<?xml version="1.0" standalone="no"?>
<!DOCTYPE svg PUBLIC "-//W3C//DTD SVG 1.1//EN" "http://www.w3.org/Graphics/SVG/1.1/DTD/svg11.dtd" >
<svg xmlns="http://www.w3.org/2000/svg">
<metadata>
This is a custom SVG webfont generated by Font Squirrel.
Copyright   : Copyright URW copyright 1999 by URW Design  Development Cyrillic glyphs added by Valek Filippov copyright 20012002 Vietnamese characters were added by Han The Thanh copyright 2006 2008 for TeX Gyre extensions by B Jackowski and JM Nowacki on behalf of TeX users groups This work is released under the GUST Font License   see httptugorgfontslicensesGUSTFONTLICENSEtxt for details
</metadata>
<defs>
<font id="webfontcSi3rVut" horiz-adv-x="1269" >
<font-face units-per-em="2048" ascent="1581" descent="-467" />
<missing-glyph horiz-adv-x="655" />
<glyph unicode="IJ" horiz-adv-x="1959" d="M82 0v63l41 7q84 14 108.5 56t24.5 169v805q0 127 -24.5 169t-108.5 56l-41 6v64h553v-64l-41 -6q-84 -14 -108.5 -56t-24.5 -169v-805q0 -127 24.5 -169t108.5 -56l41 -7v-63h-553zM670 381q0 80 45 131t114 51q51 0 82 -29.5t31 -80.5q0 -53 -51 -99q-41 -39 -41 -82 q0 -82 88 -141t207 -59q82 0 142.5 18.5t97 60.5t58 83.5t32 117.5t12.5 132.5t2 152.5v463q0 125 -26.5 170t-106.5 55l-51 6v64h573v-64l-51 -6q-80 -10 -106.5 -55t-26.5 -170v-568q0 -68 -1 -106.5t-11.5 -105t-29 -107.5t-56 -92t-90 -79t-135.5 -48.5t-187 -20.5 q-240 0 -377 126t-137 282z" />
<glyph unicode="ij" horiz-adv-x="1153" d="M82 0v61l51 5q68 8 97.5 47t29.5 123v481q0 92 -27.5 127t-107.5 43l-41 4v61q127 10 301 41h70v-757q0 -84 28.5 -123t98.5 -47l49 -5v-61h-549zM231 1290q0 51 36 86t87 35q47 0 83 -36t36 -85t-36 -85t-85 -36t-85 36t-36 85zM432 -369q0 33 27.5 57.5t66.5 24.5 q45 0 90 -53q33 -37 55.5 -49t57.5 -12q47 0 78 21.5t44 58t20.5 89t6.5 114t-1 128.5v707q0 92 -29 128t-107 42l-49 4v61q156 10 309 41h70v-1089q0 -100 -33.5 -177t-81 -117t-110 -65.5t-107.5 -32t-88 -6.5q-98 0 -158.5 35t-60.5 90zM848 1290q0 51 36 86t87 35 q47 0 83 -36t36 -85t-36 -85t-85 -36t-85 36t-36 85z" />
<glyph unicode="fk" horiz-adv-x="2048" d="M102 0v61l52 5q68 8 97.5 47t29.5 123v690h-175v67h175v76q0 68 8 122t36.5 114.5t74.5 102.5t129 68.5t194 26.5q201 0 405 -35v-958l320 278q68 57 53.5 97.5t-112.5 48.5v59h544v-61q-133 -20 -216 -58t-177 -120l-92 -82l305 -436q111 -145 248 -170v-66h-553v61 l55 5q37 4 51.5 22t7 45t-20.5 52.5t-32 50.5l-215 311l-166 -141v-170q0 -82 30 -122t95 -48l54 -5v-61h-551v61l51 5q68 8 97.5 47t29.5 123l-4 917q0 150 -45 217.5t-166 67.5q-76 0 -129 -29t-73.5 -70t-33 -86t-8.5 -80.5t0 -52.5v-127h207v-67h-207v-690 q0 -84 30 -123t97 -47l51 -5v-61h-551z" />
<glyph unicode="&#xfb00;" horiz-adv-x="1433" d="M102 0v61l52 5q68 8 97.5 47t29.5 123v690h-172v67h172v97q0 109 39.5 189.5t93 121.5t124 66.5t114.5 30.5t81 5q76 0 126 -32.5t50 -84.5q0 -35 -28.5 -61.5t-65.5 -26.5q-51 0 -94 58q-47 59 -96 59q-57 0 -103.5 -46t-46.5 -159v-217h459v97q0 109 40 189.5t93 121.5 t124 66.5t115 30.5t80 5q76 0 126.5 -32.5t50.5 -84.5q0 -37 -28 -62.5t-67 -25.5q-51 0 -94 58q-47 59 -96 59q-57 0 -103.5 -46t-46.5 -159v-217h203v-67h-203v-690q0 -84 30 -123t97 -47l52 -5v-61h-551v61l51 5q68 8 97.5 47t29.5 123v690h-459v-690q0 -84 30 -123 t97 -47l51 -5v-61h-551z" />
<glyph unicode="&#xfb01;" d="M41 0v61l51 5q68 8 97.5 47t29.5 123v690h-174v67h174v78q0 86 16.5 153.5t61.5 135t139 105.5t236 38q215 0 338 -127q61 -63 61 -131q0 -45 -28.5 -73.5t-73.5 -28.5q-63 0 -92 51q-12 20 -14.5 33.5t-4.5 79.5q-2 51 -61.5 91t-137 40t-131 -28t-74 -67.5t-32.5 -85 t-8 -81t0 -56.5v-127h653v-757q0 -84 29.5 -123t97.5 -47l51 -5v-61h-551v61l51 5q68 8 97.5 47t29.5 123v475q0 129 -36.5 172t-149.5 43h-272v-690q0 -84 29.5 -123t97.5 -47l51 -5v-61h-551z" />
<glyph unicode="&#xfb02;" d="M41 0v61l51 5q68 8 97.5 47t29.5 123v690h-174v67h174v76q0 68 8.5 122t37 114.5t74.5 102.5t129 68.5t194 26.5q113 0 401 -43v-1224q0 -84 29.5 -123t97.5 -47l51 -5v-61h-551v61l51 5q68 8 97.5 47t29.5 123v917q0 133 -24 190q-18 41 -71.5 68t-115.5 27 q-76 0 -129 -29t-73.5 -70t-32.5 -86t-8 -80.5t0 -52.5v-127h207v-67h-207v-690q0 -84 29.5 -123t97.5 -47l51 -5v-61h-551z" />
<glyph unicode="&#xfb03;" horiz-adv-x="2048" d="M102 0v61l52 5q68 8 97.5 47t29.5 123v690h-172v67h172v97q0 109 39.5 189.5t93 121.5t124 66.5t114.5 30.5t81 5q76 0 126 -32.5t50 -84.5q0 -35 -28.5 -61.5t-65.5 -26.5q-51 0 -94 58q-47 59 -96 59q-57 0 -103.5 -46t-46.5 -159v-217h459v78q0 86 16.5 153.5 t61.5 135t139 105.5t235 38q215 0 338 -127q61 -63 62 -131q0 -45 -28.5 -73.5t-74.5 -28.5q-63 0 -92 51q-12 20 -14 33.5t-4 79.5q-2 51 -61.5 91t-137.5 40t-131 -28t-73.5 -67.5t-33 -85t-8 -81t-0.5 -56.5v-127h654v-757q0 -84 29.5 -123t97.5 -47l51 -5v-61h-551v61 l51 5q68 8 97.5 47t29.5 123v475q0 129 -37 172t-149 43h-273v-690q0 -84 30 -123t97 -47l52 -5v-61h-551v61l51 5q68 8 97.5 47t29.5 123v690h-459v-690q0 -84 30 -123t97 -47l51 -5v-61h-551z" />
<glyph unicode="&#xfb04;" horiz-adv-x="2048" d="M102 0v61l52 5q68 8 97.5 47t29.5 123v690h-172v67h172v97q0 109 39.5 189.5t93 121.5t124 66.5t114.5 30.5t81 5q76 0 126 -32.5t50 -84.5q0 -35 -28.5 -61.5t-65.5 -26.5q-51 0 -94 58q-47 59 -96 59q-57 0 -103.5 -46t-46.5 -159v-217h459v76q0 68 8 122t37 114.5 t75 102.5t129 68.5t193 26.5q113 0 402 -43v-1224q0 -84 29.5 -123t97.5 -47l51 -5v-61h-551v61l51 5q68 8 97.5 47t29.5 123v917q0 150 -45 217.5t-166 67.5q-76 0 -129 -29t-73.5 -70t-33 -86t-8 -80.5t-0.5 -52.5v-127h207v-67h-207v-690q0 -84 30 -123t97 -47l52 -5v-61 h-551v61l51 5q68 8 97.5 47t29.5 123v690h-459v-690q0 -84 30 -123t97 -47l51 -5v-61h-551z" />
<glyph unicode=" "  horiz-adv-x="655" />
<glyph unicode="&#x09;" horiz-adv-x="655" />
<glyph unicode="&#xa0;" horiz-adv-x="655" />
<glyph unicode="!" horiz-adv-x="614" d="M154 1214q0 207 147 207q70 0 109 -50t39 -138q0 -61 -29 -209l-58 -279q-35 -182 -34 -325v-64h-74v66q0 174 -31 340l-45 268q-24 139 -24 184zM162 106q0 53 39 92.5t94 39.5q53 0 92 -39t39 -93q0 -55 -39 -94t-92 -39q-55 0 -94 39t-39 94z" />
<glyph unicode="&#x22;" horiz-adv-x="778" d="M115 1311q0 51 24.5 80.5t65.5 29.5q39 0 62.5 -27.5t23.5 -72.5q0 -35 -6 -59l-64 -351h-45l-57 346q-4 17 -4 54zM485 1311q0 51 25 80.5t65 29.5q39 0 63 -27.5t24 -72.5q0 -35 -7 -59l-63 -351h-45l-58 346q-4 17 -4 54z" />
<glyph unicode="#" d="M133 442v117h236l41 272h-226v117h242l63 416h123l-63 -416h268l62 416h122l-61 -416h199v-117h-217l-41 -272h206v-117h-223l-67 -442h-123l67 442h-268l-65 -442h-123l65 442h-217zM492 559h266l41 272h-267z" />
<glyph unicode="$" d="M70 365q0 68 40 109.5t105 41.5q53 0 88 -36t35 -91q0 -25 -7 -63.5t-7 -63.5q0 -125 278 -143v504q-270 39 -387 120.5t-117 231.5q0 170 138.5 278.5t365.5 116.5v250h76v-250q113 -10 200 -40t133 -64.5t75.5 -77.5t38 -73t8.5 -52q0 -57 -35 -92t-92 -35 q-49 0 -80 31.5t-31 83.5q0 25 3 43t3 30q0 70 -53 109t-170 53v-471q106 -16 167.5 -28.5t142.5 -39t123 -61.5t72.5 -95.5t30.5 -139.5q0 -170 -142 -282t-394 -134v-260h-76v260q-532 54 -532 330zM293 1065q0 -61 27.5 -105.5t79 -69t95.5 -35.5t107 -21v452h-20 q-51 0 -111.5 -16.5t-119 -70.5t-58.5 -134zM678 119q154 4 248 75.5t94 184.5q0 104 -87 151.5t-255 77.5v-489z" />
<glyph unicode="%" horiz-adv-x="1843" d="M45 979q0 174 94 303t260 129q158 0 257.5 -122t99.5 -318q0 -188 -99.5 -308t-257 -120t-256 121.5t-98.5 314.5zM199 967q0 -166 52 -257.5t148 -91.5q98 0 150.5 93.5t52.5 267.5q0 356 -199 356q-76 0 -125 -63.5t-64 -140t-15 -164.5zM383 0l950 1395h121 l-950 -1395h-121zM1077 420q0 174 94.5 303t260.5 129q158 0 257 -122t99 -318q0 -188 -99.5 -308t-257 -120t-256 121.5t-98.5 314.5zM1231 408q0 -168 53 -258.5t149.5 -90.5t148.5 93.5t52 267.5q0 356 -198 356q-76 0 -125 -63.5t-64.5 -140t-15.5 -164.5z" />
<glyph unicode="&#x26;" horiz-adv-x="1638" d="M92 410q0 137 97.5 251.5t297.5 174.5q-143 131 -143 290q0 125 106.5 210t260.5 85q133 0 221 -74.5t88 -189.5q0 -102 -78 -190t-207 -131q213 -164 410 -430q98 176 98 342q0 61 -30.5 84.5t-135.5 44.5v61h492v-61q-129 -25 -165 -66t-75 -205q-47 -182 -127 -303 q94 -135 164 -181t180 -46q41 0 66 2v-78h-199q-55 0 -81.5 1t-68.5 9t-68 23.5t-57.5 46.5t-60.5 78q-117 -102 -215 -143.5t-229 -41.5q-229 0 -385 123.5t-156 313.5zM301 446q0 -170 99.5 -274t263.5 -104q213 0 370 176q-246 358 -487 526q-246 -74 -246 -324z M524 1161q0 -119 142 -262q43 20 73.5 38.5t65.5 50.5t53.5 79t18.5 104q0 74 -49.5 121t-127.5 47q-76 0 -126 -51t-50 -127z" />
<glyph unicode="'" horiz-adv-x="450" d="M137 1311q0 51 24.5 80.5t65.5 29.5q39 0 62.5 -27.5t23.5 -72.5q0 -35 -6 -59l-63 -351h-45l-58 346q-4 17 -4 54z" />
<glyph unicode="(" horiz-adv-x="614" d="M156 580v104q0 53 2 109.5t5 110.5t13 109.5t22.5 105.5t35 97.5t50 86t66.5 72.5t86 57q47 25 133 36v-77q-127 -45 -173 -207t-46 -557v-95q0 -395 46 -556.5t173 -206.5v-78q-129 20 -204 80q-121 96 -165 265t-44 544z" />
<glyph unicode=")" horiz-adv-x="614" d="M35 -231q127 45 173 206.5t46 556.5v95q0 395 -46 557t-173 207v77q129 -20 205 -79q121 -96 165 -264.5t44 -544.5q-2 -63 0 -131t-3.5 -140.5t-13.5 -141.5t-28.5 -136.5t-50 -124t-77 -103.5t-108.5 -75q-47 -25 -133 -37v78z" />
<glyph unicode="*" horiz-adv-x="901" d="M111 909q0 68 110 88l148 29l6 39l-152 25q-111 18 -110 86q0 43 28.5 75.5t65.5 32.5q39 0 94 -61l98 -115l37 16l-55 144q-16 45 -16 67q0 39 25.5 62.5t68.5 23.5q41 0 66.5 -22.5t25.5 -57.5q0 -27 -16 -73l-50 -144l33 -24l96 119q47 61 95 61q35 0 63.5 -33 t28.5 -73q0 -68 -111 -89l-147 -28l-6 -39l151 -25q111 -18 111 -86q0 -41 -29 -74.5t-63 -33.5q-43 0 -95 61l-100 115l-37 -17l55 -143q16 -45 17 -70q0 -39 -25.5 -61t-66.5 -22t-68 22.5t-27 56.5q0 31 17 74l49 143l-33 25l-96 -119q-49 -61 -94 -61q-35 0 -63.5 32.5 t-28.5 73.5z" />
<glyph unicode="+" horiz-adv-x="1228" d="M82 432v160h453v452h159v-452h453v-160h-453v-452h-159v452h-453z" />
<glyph unicode="," horiz-adv-x="655" d="M184 104q0 57 37 96.5t92 39.5q61 0 102.5 -50.5t41.5 -126.5q0 -195 -221 -292l-23 41q125 72 152 206q-41 -31 -76 -30q-45 0 -75 33.5t-30 82.5z" />
<glyph unicode="-" horiz-adv-x="819" d="M102 475l60 117h555l-58 -117h-557z" />
<glyph unicode="." horiz-adv-x="655" d="M188 106q0 53 39 91.5t95 38.5q53 0 91 -39t38 -92.5t-39 -92.5t-92.5 -39t-92.5 39t-39 94z" />
<glyph unicode="/" horiz-adv-x="1228" d="M152 -289l761 1757h177l-766 -1757h-172z" />
<glyph unicode="0" d="M82 702q0 178 60.5 339t190.5 270.5t306 109.5q250 0 405.5 -202.5t155.5 -530.5q0 -315 -156.5 -515t-404.5 -200t-402.5 202.5t-154.5 526.5zM303 680q0 -184 33 -312t88 -188.5t107.5 -84t111.5 -23.5q96 0 165 54t104.5 149.5t51 200t15.5 226.5q0 94 -8 176.5 t-30.5 166t-58.5 143t-96.5 97.5t-138.5 38q-102 0 -175 -66.5t-106.5 -174t-48 -206t-14.5 -196.5z" />
<glyph unicode="1" d="M328 0v61l67 5q57 4 94 19t55.5 29.5t27 52.5t9.5 54.5t1 67.5v784q0 121 -29 155t-141 38l-82 4v61q221 27 381 64h65v-1110q0 -131 34 -171t151 -48l65 -5v-61h-698z" />
<glyph unicode="2" d="M86 0v143q193 119 304.5 206t213.5 200q246 274 246 502q0 121 -77 196.5t-202 75.5q-113 0 -200.5 -57.5t-87.5 -130.5q0 -41 43 -95q25 -31 24 -65q0 -43 -35.5 -77t-81.5 -34q-59 0 -99 49.5t-40 122.5q0 158 146.5 271.5t347.5 113.5q221 0 362.5 -111.5 t141.5 -287.5q0 -262 -359 -563q-127 -106 -420 -291h465q139 0 195.5 35t107.5 153l21 47l78 -20l-99 -383h-995z" />
<glyph unicode="3" d="M82 289q0 59 37 100t88 41t83 -32.5t32 -82.5q0 -27 -9.5 -54.5t-9.5 -37.5q0 -16 12.5 -38.5t42 -51.5t92 -48t148.5 -19q164 0 257 88t93 243q0 178 -105.5 254t-246.5 76q-39 0 -143 -10v92l102 -4q55 0 108.5 12t105.5 40t85 84t33 132q0 117 -77 186.5t-204 69.5 q-104 0 -178 -44t-74 -107q0 -16 17.5 -55.5t17.5 -65.5q0 -41 -33.5 -70t-79.5 -29q-51 0 -84.5 37t-33.5 95q0 117 119.5 224t340.5 107q211 0 350.5 -94t139.5 -240q0 -35 -10.5 -69.5t-40 -83.5t-104 -92t-185.5 -68q16 -4 37.5 -7t50.5 -12l59 -19q31 -9 62 -25.5 t60.5 -36t55 -47t45 -59t31 -74.5t11.5 -93q0 -186 -166 -307t-424 -121q-238 0 -373 99.5t-135 216.5z" />
<glyph unicode="4" d="M51 465l672 930h195v-897h311l-45 -117h-266v-86q0 -121 23.5 -171t107.5 -58l67 -5v-61h-592v61l68 5q61 4 91 37.5t35 72.5t5 119v86h-641zM197 498h526v723z" />
<glyph unicode="5" d="M123 274q0 53 37 92.5t88 39.5q47 0 83 -35t36 -80q0 -18 -10.5 -50t-10.5 -48q0 -53 71.5 -90t172.5 -37q170 0 272.5 105t102.5 282q0 172 -95.5 273t-257.5 101q-104 0 -173.5 -41t-147.5 -147l-88 20v736h618q78 0 109 13t57 60h78l-35 -241h-700v-410 q90 72 167.5 100.5t182.5 28.5q229 0 372.5 -129t143.5 -334q0 -225 -161 -367.5t-417 -142.5q-209 0 -352 87t-143 214z" />
<glyph unicode="6" d="M92 651q0 172 41 309.5t104.5 221.5t147.5 140t164 77.5t160 21.5q174 0 307 -79.5t133 -184.5q0 -43 -31 -71.5t-76 -28.5q-57 0 -93 45t-36 117q-2 39 -20 57q-63 63 -191 63q-313 0 -370 -442q-8 -53 -17 -215q80 109 174.5 159t225.5 50q213 0 353 -128t140 -323 q0 -199 -158.5 -333t-390.5 -134q-76 0 -147.5 16.5t-149 63.5t-136 120t-96.5 196.5t-38 281.5zM334 416q0 -160 86 -252t235 -92q147 0 234.5 97t87.5 261q0 162 -85 258t-224 96q-154 0 -244 -99t-90 -269z" />
<glyph unicode="7" d="M123 1030l65 365h996l16 -129q-160 -180 -277.5 -377t-172 -349.5t-85 -278.5t-34.5 -193l-2 -68h-264q55 305 236 628.5t450 598.5h-537q-156 0 -219.5 -36t-106.5 -161h-65z" />
<glyph unicode="8" d="M90 358q0 82 31 146.5t87 105.5t108.5 65.5t117.5 45.5q-57 23 -96 44t-83 58t-67.5 92.5t-23.5 124.5q0 168 136 274.5t349 106.5t350.5 -91t137.5 -234q0 -225 -310 -305q78 -29 130.5 -53.5t112.5 -67.5t92 -107.5t32 -146.5q0 -190 -162 -316.5t-405 -126.5 q-231 0 -384 109.5t-153 275.5zM270 356q0 -137 101.5 -219t271.5 -82q160 0 265.5 80t105.5 203q0 82 -40 139.5t-106.5 89t-152.5 61t-180 56.5q-137 -53 -201 -133t-64 -195zM344 1094q0 -61 36 -108.5t92 -72t123 -48t128 -40.5q115 27 180.5 95.5t65.5 166.5 q0 109 -84 180.5t-213 71.5q-139 0 -233.5 -70.5t-94.5 -174.5z" />
<glyph unicode="9" d="M76 948q0 199 157.5 336t389.5 137q76 0 144.5 -14t147 -60.5t135 -119t93.5 -200.5t37 -296q0 -182 -41 -321.5t-103.5 -220t-148.5 -131t-163 -68t-159 -17.5q-168 0 -299 77t-131 175q0 43 30 73t70.5 30t73.5 -27t47 -70q6 -16 6 -42.5t7.5 -45t33.5 -34.5 q66 -43 175 -43q233 0 325 219q63 152 64 450q-39 -66 -78 -109.5t-126 -82.5t-202 -39q-211 0 -348 124.5t-137 319.5zM297 967q0 -166 87 -265.5t232 -99.5q150 0 238 101.5t88 273.5q0 162 -84 257t-229 95q-150 0 -241 -99t-91 -263z" />
<glyph unicode=":" horiz-adv-x="655" d="M188 106q0 53 39 91.5t95 38.5q53 0 91 -39t38 -92.5t-39 -92.5t-92.5 -39t-92.5 39t-39 94zM188 881q0 55 39 93t95 38q53 0 91 -39t38 -92.5t-39 -92t-92.5 -38.5t-92.5 39t-39 92z" />
<glyph unicode=";" horiz-adv-x="655" d="M184 104q0 57 37 96.5t92 39.5q61 0 102.5 -50.5t41.5 -126.5q0 -195 -224 -292l-22 41q125 74 154 206q-41 -31 -76 -30q-45 0 -75 32.5t-30 83.5zM188 881q0 55 39 93t95 38q53 0 91 -39t38 -92.5t-39 -92t-92.5 -38.5t-92.5 39t-39 92z" />
<glyph unicode="&#x3c;" horiz-adv-x="1228" d="M127 442v140l938 501v-180l-731 -391l731 -391v-180z" />
<glyph unicode="=" horiz-adv-x="1228" d="M82 258v160h1065v-160h-1065zM82 606v160h1065v-160h-1065z" />
<glyph unicode="&#x3e;" horiz-adv-x="1228" d="M127 -59v180l731 391l-731 391v180l938 -501v-140z" />
<glyph unicode="?" horiz-adv-x="1105" d="M55 1073q0 127 139.5 237.5t366.5 110.5q72 0 148.5 -17.5t157.5 -57t133.5 -119.5t52.5 -187q0 -256 -277 -352l-67 -24q-104 -41 -143.5 -105.5t-37.5 -202.5h-92q-4 82 -4 90q0 98 30 153.5t111 111.5l117 80q141 98 141 268q0 133 -75.5 206.5t-214.5 73.5 q-121 0 -206 -51t-85 -125q0 -29 21.5 -74t21.5 -67q0 -39 -33 -68.5t-78 -29.5q-55 0 -91 41.5t-36 107.5zM348 106q0 53 39 92.5t96 39.5q53 0 91 -39t38 -93q0 -55 -38.5 -94t-92.5 -39q-55 0 -94 39t-39 94z" />
<glyph unicode="@" horiz-adv-x="1679" d="M113 700q0 305 218 519.5t529 214.5q285 0 485.5 -178.5t200.5 -428.5q0 -209 -143 -354t-285 -145q-59 0 -102 50t-43 122v22q-141 -195 -322 -194q-123 0 -198.5 82t-75.5 213q0 205 137 357.5t322 152.5q143 0 231 -95l14 80h148l-96 -520q-10 -61 -11 -86 q0 -35 21.5 -57.5t54.5 -22.5q86 0 173 117t87 266q0 219 -176 372.5t-426 153.5q-264 0 -454.5 -186t-190.5 -446q0 -266 187.5 -454.5t455.5 -188.5q51 0 110.5 10t147.5 38.5t173 98.5t145 172h94q-45 -100 -117 -178t-144.5 -121t-155.5 -69.5t-141.5 -35t-111.5 -8.5 q-309 0 -525 212t-216 515zM530 584q0 -82 41 -131.5t109 -49.5q63 0 131 44.5t115 113.5q43 68 69.5 154t59.5 256q-8 10 -24.5 24.5t-36 28.5t-52.5 23.5t-72 9.5q-102 0 -183 -80t-119 -185.5t-38 -207.5z" />
<glyph unicode="A" horiz-adv-x="1392" d="M-76 0v63l23 5q102 20 153.5 89.5t153.5 334.5l352 903h191l434 -1098q55 -141 93 -179t138 -55v-63h-575v63q125 18 150 58q10 16 11 41q0 36 -22 92l-102 264h-529l-65 -176q-25 -63 -34 -105q-4 -20 -4 -39q0 -21 5 -40q10 -37 45 -62q29 -18 131 -33v-63h-549z M426 606h461l-234 615z" />
<glyph unicode="B" horiz-adv-x="1515" d="M63 0v63l52 7q80 10 106.5 55t26.5 170v805q0 125 -26.5 170t-106.5 55l-52 6v64h721q129 0 227.5 -15.5t180.5 -50.5t125 -102.5t43 -163.5q0 -66 -28.5 -118t-62.5 -79.5t-86.5 -50t-72.5 -28.5l-47 -11q14 0 48 -12t75 -24.5t86 -42t82 -65.5t60.5 -93.5t23.5 -126.5 q0 -47 -9.5 -88t-32 -91.5t-67.5 -89.5t-111.5 -72.5t-171 -52t-235.5 -18.5h-748zM453 315q0 -72 5 -104.5t29.5 -67t80 -47t151.5 -12.5q227 0 357 74.5t130 263.5q0 70 -16 121t-53 82.5t-75 50t-105.5 28t-120 11.5t-142.5 2h-241v-402zM453 805h237q246 0 353.5 58.5 t107.5 193.5q0 258 -422 258q-176 0 -226 -32t-50 -142v-336z" />
<glyph unicode="C" horiz-adv-x="1515" d="M90 690q0 172 66.5 316.5t169 231.5t217 135t221.5 48q250 0 422 -131l43 86h67l99 -493h-66q-37 76 -56.5 111.5l-57 99t-72.5 95.5t-86 67.5t-114.5 51t-139.5 15.5q-203 0 -337 -179t-134 -452q0 -164 50 -290t130 -194.5t165 -102t167 -33.5q45 0 96 11t123 40 t147.5 93.5t139.5 158.5l88 -49q-227 -352 -625 -353q-309 0 -516 205t-207 512z" />
<glyph unicode="D" horiz-adv-x="1638" d="M63 0v63l52 7q80 10 106.5 55t26.5 170v805q0 125 -26.5 170t-106.5 55l-52 6v64h625q215 0 376 -50.5t249 -123t142 -174t69.5 -185.5t15.5 -176q0 -686 -852 -686h-625zM453 264q0 -53 6 -80.5t28.5 -53.5t72.5 -36t134 -10q172 0 297 57.5t188.5 152.5t91 195.5 t27.5 210.5q0 86 -15 166t-58 163t-108.5 143.5t-173 99.5t-247.5 39q-41 0 -74.5 -3t-58 -8.5t-43 -13.5t-30 -18.5t-19.5 -22.5t-11 -26.5t-5 -29.5t-2 -32v-35v-858z" />
<glyph unicode="E" horiz-adv-x="1474" d="M63 0v63l52 7q80 10 106.5 55t26.5 170v805q0 125 -26.5 170t-106.5 55l-52 6v64h1170l141 -369l-65 -27q-141 172 -277.5 240t-345.5 68q-135 0 -184 -36t-49 -134v-349h155q131 0 179.5 50.5t68.5 210.5h70v-613h-70q-14 143 -72.5 203.5t-179.5 60.5h-151v-432 q0 -100 46 -140t185 -40q229 0 378.5 81t317.5 296l64 -29l-187 -436h-1194z" />
<glyph unicode="F" horiz-adv-x="1310" d="M63 0v63l52 7q80 10 106.5 55t26.5 170v805q0 125 -26.5 170t-106.5 55l-52 6v64h1129l147 -351l-65 -32q-133 160 -269.5 228.5t-322.5 68.5q-82 0 -129 -11.5t-68.5 -42t-26.5 -60.5t-5 -87v-320h135q152 0 200 53.5t64 202.5h63v-606h-63q-18 135 -68.5 198.5 t-195.5 63.5h-135v-405q0 -125 27.5 -171t105.5 -54l67 -7v-63h-590z" />
<glyph unicode="G" horiz-adv-x="1638" d="M90 702q0 217 102.5 385t257 251t326.5 83q219 0 400 -125l41 99h63l125 -434l-78 -23q-127 178 -215 254q-158 131 -324 131q-205 0 -330.5 -174t-125.5 -461q0 -276 136 -446t357 -170q59 0 123 15t132.5 51t111.5 106.5t43 165t-44 136.5t-157 56v62h559v-64l-37 -6 q-53 -10 -77.5 -24.5t-40 -61.5t-15.5 -139v-369h-96l-65 141q-217 -168 -465 -168q-303 0 -505 209t-202 520z" />
<glyph unicode="H" horiz-adv-x="1638" d="M63 0v63l52 7q80 10 106.5 55t26.5 170v805q0 125 -26.5 170t-106.5 55l-52 6v64h574v-64l-51 -6q-80 -10 -106.5 -55t-26.5 -170v-305h733v305q0 125 -26.5 170t-106.5 55l-52 6v64h574v-64l-51 -6q-80 -10 -106.5 -55t-26.5 -170v-805q0 -125 26.5 -170t106.5 -55 l51 -7v-63h-574v63l52 7q80 10 106.5 55t26.5 170v412h-733v-412q0 -125 26.5 -170t106.5 -55l51 -7v-63h-574z" />
<glyph unicode="I" horiz-adv-x="696" d="M63 0v63l41 7q84 14 109 56t25 169v805q0 127 -25 169t-109 56l-41 6v64h553v-64l-41 -6q-84 -14 -108.5 -56t-24.5 -169v-805q0 -127 25 -169t108 -56l41 -7v-63h-553z" />
<glyph unicode="J" horiz-adv-x="1228" d="M-47 381q0 80 45 131t115 51q51 0 81.5 -29.5t30.5 -80.5q0 -53 -51 -99q-41 -39 -41 -82q0 -82 88 -141t207 -59q82 0 142.5 18.5t97.5 60.5t58.5 83.5t31.5 117.5t12 132.5t2 152.5v463q0 125 -26.5 170t-106.5 55l-51 6v64h573v-64l-51 -6q-80 -10 -106.5 -55 t-26.5 -170v-568q0 -68 -1 -106.5t-11.5 -105t-28.5 -107.5t-56 -92t-90.5 -79t-135.5 -48.5t-187 -20.5q-240 0 -377 126t-137 282z" />
<glyph unicode="K" horiz-adv-x="1474" d="M63 0v63l52 7q80 10 106.5 55t26.5 170v805q0 125 -26.5 170t-106.5 55l-52 6v64h607v-64l-84 -6q-78 -6 -105.5 -53t-27.5 -172v-393l419 376q78 70 99.5 98.5t21.5 63.5q0 41 -26.5 59.5t-92.5 24.5l-20 2v64h586v-64l-15 -4q-133 -25 -325 -188l-246 -215l389 -635 q76 -117 132.5 -161t160.5 -67v-61h-631v63q33 4 37 5q76 6 105 33q22 21 21 48q0 9 -2 18q-9 38 -46 97l-330 527l-237 -211v-285q0 -125 27.5 -172t105.5 -53l84 -7v-63h-607z" />
<glyph unicode="L" horiz-adv-x="1228" d="M63 0v63l52 7q80 10 106.5 55t26.5 170v805q0 125 -26.5 170t-106.5 55l-52 6v64h588v-64l-65 -6q-78 -8 -105.5 -54t-27.5 -171v-848q0 -88 33.5 -131t142.5 -43q195 0 377 137q102 76 225 250l57 -27l-164 -438h-1061z" />
<glyph unicode="M" horiz-adv-x="1884" d="M53 0v63l64 7q78 8 105.5 54t27.5 171v805q0 125 -26.5 170t-106.5 55l-51 6v64h477l393 -1055l428 1055h467v-64l-51 -6q-80 -10 -106.5 -55t-26.5 -170v-805q0 -125 26.5 -170t106.5 -55l51 -7v-63h-574v63l52 7q80 10 106.5 55t26.5 170v954l-514 -1249h-92l-469 1274 v-979q0 -125 27.5 -171t105.5 -54l71 -7v-63h-518z" />
<glyph unicode="N" horiz-adv-x="1515" d="M53 0v63l51 7q80 10 107 55t27 170v805q0 125 -27 170t-107 55l-51 6v64h457l668 -1104v809q0 125 -28 171t-106 54l-71 6v64h506v-64l-52 -6q-80 -10 -106.5 -55t-26.5 -170v-1100h-180l-760 1241v-946q0 -125 28 -171t105 -54l72 -7v-63h-506z" />
<glyph unicode="O" horiz-adv-x="1638" d="M90 702q0 301 214 510t523 209q315 0 520 -205.5t205 -523.5q0 -170 -64.5 -309t-170 -227t-234.5 -135.5t-264 -47.5q-311 0 -520 210t-209 519zM332 700q0 -287 133 -457.5t356 -170.5t356.5 165.5t133.5 442.5q0 297 -131 470t-357 173q-223 0 -357 -170t-134 -453z " />
<glyph unicode="P" d="M63 0v63l52 7q80 10 106.5 55t26.5 170v805q0 125 -26.5 170t-106.5 55l-52 6v64h680q238 0 375 -105.5t137 -285.5q0 -68 -22.5 -131.5t-74.5 -130t-159.5 -106.5t-257.5 -40h-288v-301q0 -125 27.5 -172t105.5 -53l76 -7v-63h-599zM453 684h256q96 0 166.5 29.5 t105.5 79t50.5 99.5t15.5 105q0 311 -361 312q-147 0 -190 -24.5t-43 -106.5v-494z" />
<glyph unicode="Q" horiz-adv-x="1679" d="M90 686q0 311 217 523t535 212q319 0 526 -206.5t207 -524.5q0 -291 -193 -504q86 -109 86 -200q0 -164 -183 -269.5t-466 -105.5q-244 0 -426 82t-182 190q0 41 32.5 67.5t84.5 26.5q57 0 91 -32.5t34 -87.5q2 -43 16 -62.5t63 -40.5q102 -51 285 -51q203 0 337 81 t134 202q0 41 -31 100q-190 -113 -423 -113q-311 0 -527.5 207t-216.5 506zM332 676q0 -512 424 -610q-74 51 -74 110q0 74 81 121t212 47q113 0 278 -59q80 188 80 413q0 281 -135 453t-356 172q-227 0 -368.5 -180t-141.5 -467zM780 133q0 -31 36 -49t93 -18 q150 0 260 106q-106 53 -211 53q-78 0 -128 -26.5t-50 -65.5z" />
<glyph unicode="R" horiz-adv-x="1474" d="M63 0v63l52 7q80 10 106.5 55t26.5 170v805q0 125 -26.5 170t-106.5 55l-52 6v64h834q221 0 347 -94.5t126 -258.5q0 -49 -13.5 -95t-48 -104.5t-116.5 -103.5t-201 -61l340 -481q47 -61 95.5 -90t123.5 -44v-63h-342l-460 657h-295v-362q0 -125 27.5 -171t105.5 -54 l73 -7v-63h-596zM453 745h344q90 0 156.5 21.5t103.5 52.5t58.5 73t27.5 74.5t6 67.5q0 276 -393 277q-182 0 -242.5 -30t-60.5 -91v-445z" />
<glyph unicode="S" horiz-adv-x="1351" d="M57 469l76 25q106 -205 258 -313.5t328 -108.5q158 0 264.5 87t106.5 218q0 92 -60.5 144t-212.5 89l-274 70q-18 6 -42 11t-52 16l-61 21q-32 11 -63.5 28.5t-61.5 37t-55.5 47t-45 58.5t-30.5 71t-11 85q0 133 118.5 249.5t350.5 116.5q221 0 387 -100l24 74h74 l125 -371l-65 -25q-211 324 -504 324q-127 0 -214 -63.5t-87 -155.5q0 -82 64.5 -134t213.5 -89l256 -62q231 -55 332.5 -143t101.5 -262q0 -184 -164.5 -312.5t-404.5 -128.5q-242 0 -424 129l-39 -102h-76z" />
<glyph unicode="T" d="M-76 1034l117 361h1188l114 -361l-71 -24q-176 307 -451 307q-51 0 -67.5 -18.5t-16.5 -71.5v-932q0 -125 28 -172t105 -53l80 -7v-63h-631v63l80 7q78 6 105.5 53t27.5 172v940q0 47 -19 64.5t-71 17.5q-276 0 -450 -307z" />
<glyph unicode="U" horiz-adv-x="1597" d="M51 1331v64h598v-64l-76 -6q-78 -6 -105.5 -53t-27.5 -172v-547q0 -98 5.5 -158.5t28 -129t63.5 -106.5t114.5 -62.5t182.5 -24.5q86 0 151.5 15t108.5 36.5t72.5 64.5t45 75t22.5 93.5t8 96t1 104.5v543q0 125 -27.5 171t-105.5 54l-68 6v64h502v-64l-51 -6 q-80 -10 -106.5 -55t-26.5 -170v-682q0 -217 -124 -331t-433 -114q-113 0 -207 20.5t-179 66.5t-133 136.5t-48 217.5v686q0 125 -27 170t-107 55z" />
<glyph unicode="V" horiz-adv-x="1433" d="M-61 1331v64h612v-64q-43 -2 -70.5 -5t-54.5 -13t-39 -28.5t-11 -50.5t17 -77l361 -930l352 893q21 49 21 88q0 36 -19 63q-39 54 -170 60v64h547v-64q-117 -12 -163 -53t-110 -191l-448 -1087h-123l-461 1118q-51 121 -91 160t-130 49z" />
<glyph unicode="W" horiz-adv-x="1966" d="M-61 1331v64h557v-64q-96 -6 -130 -41q-18 -19 -19 -51q0 -27 13 -63l299 -902l244 781q-39 141 -88 197.5t-151 78.5v64h561v-64q-96 -12 -133 -44q-21 -18 -21 -46q0 -22 12 -51l299 -911l275 851q12 41 14 73t-7 52.5t-22.5 34t-39 21.5t-47 12t-56.5 8v64h516v-64 q-98 -6 -141 -48t-92 -177l-398 -1106h-120l-301 895l-299 -895h-121l-385 1106q-47 131 -80 164.5t-139 60.5z" />
<glyph unicode="X" horiz-adv-x="1474" d="M-61 0v63q129 41 202.5 94.5t177.5 182.5l324 383l-352 448q-63 84 -116.5 117t-141.5 43v64h635v-64q-119 -4 -150 -49q-10 -15 -10 -33q0 -34 39 -78l254 -331l239 307q41 50 42 93q0 17 -7 33q-23 56 -137 58v64h551v-64q-121 -20 -184.5 -62t-178.5 -179l-268 -330 l393 -512q74 -98 132.5 -135t162.5 -50v-63h-672v63q86 12 125 30q41 18 41 60q0 38 -49 103l-286 383l-314 -389q-30 -39 -30 -75q0 -26 16 -50q37 -57 139 -62v-63h-577z" />
<glyph unicode="Y" horiz-adv-x="1310" d="M-61 1331v64h583v-64q-123 -16 -150 -48q-10 -12 -11 -30q0 -31 30 -79l289 -467l291 446q29 43 33 75t-16.5 52t-52.5 31.5t-81 19.5v64h510v-64q-109 -23 -164 -64.5t-135 -162.5l-338 -518v-291q0 -125 27.5 -172t105.5 -53l84 -7v-63h-639v63l84 7q78 6 105.5 53 t27.5 172v287l-342 544q-68 111 -111.5 148t-129.5 57z" />
<glyph unicode="Z" horiz-adv-x="1310" d="M20 63l965 1221q-123 25 -246 25q-201 0 -333 -70t-256 -240l-68 25l149 371h1014l23 -76l-959 -1215q154 -16 262 -16q291 0 454 83t255 275l63 -26l-147 -420h-1137z" />
<glyph unicode="[" horiz-adv-x="614" d="M188 -289v1757h340v-86h-32q-82 0 -102.5 -20.5t-20.5 -101.5v-1313q0 -96 21.5 -123t99.5 -27h34v-86h-340z" />
<glyph unicode="\" horiz-adv-x="1228" d="M152 1468h176l762 -1468h-177z" />
<glyph unicode="]" horiz-adv-x="614" d="M84 -203h33q82 0 102.5 20.5t20.5 102.5v1313q0 98 -21.5 123.5t-99.5 25.5h-35v86h340v-1757h-340v86z" />
<glyph unicode="^" horiz-adv-x="1228" d="M106 651l429 828h172l428 -828h-177l-337 637l-338 -637h-177z" />
<glyph unicode="_" horiz-adv-x="1024" d="M0 -195h1024v-122h-1024v122z" />
<glyph unicode="`" horiz-adv-x="696" d="M94 1333q0 33 20.5 54.5t51.5 21.5q63 0 156 -70l194 -139l-10 -29l-285 60q-127 26 -127 102z" />
<glyph unicode="a" horiz-adv-x="1187" d="M72 236q0 59 26.5 108t72.5 82t105.5 59.5t124 41t131 26.5t125 17t105.5 12v163q0 84 -64.5 134.5t-173.5 50.5q-86 0 -146.5 -31t-60.5 -76l2 -57q0 -43 -30.5 -73.5t-73.5 -30.5q-41 0 -69.5 26.5t-28.5 63.5q0 76 70.5 137t172 92t203.5 31q70 0 133.5 -13.5t125 -45 t98 -94t36.5 -150.5v-435q0 -39 1 -60t7.5 -52t17.5 -47.5t33.5 -28.5t55.5 -12q45 0 92 41l39 -54q-82 -80 -211 -79q-174 0 -229 157q-102 -86 -187.5 -121.5t-187.5 -35.5q-137 0 -226 71.5t-89 182.5zM281 256q0 -74 52 -125t126 -51q143 0 303 151v279 q-231 -20 -356 -86t-125 -168z" />
<glyph unicode="b" d="M-4 1335v64q162 18 291 69h82v-604q86 80 167.5 114t188.5 34q205 0 336 -142.5t131 -361.5q0 -231 -138.5 -378.5t-357.5 -147.5q-98 0 -178 30.5t-180 106.5l-49 -119h-115v1102q0 137 -24.5 179t-108.5 50zM369 195q119 -115 280 -115q152 0 243 114.5t91 307.5 q0 190 -84 300.5t-227 110.5q-88 0 -157 -35.5t-146 -123.5v-559z" />
<glyph unicode="c" horiz-adv-x="1064" d="M76 496q0 61 13 124.5t48 135t89.5 127t144.5 92.5t204 37q195 0 306.5 -91.5t111.5 -189.5q0 -47 -29.5 -80t-74.5 -33t-75 30t-30 75l2 72q0 53 -61 94t-141 41q-113 0 -183.5 -73t-93 -165t-22.5 -205q0 -190 97 -307t255 -117q94 0 165.5 43.5t158.5 151.5l59 -37 q-154 -240 -440 -239q-225 0 -364.5 142.5t-139.5 371.5z" />
<glyph unicode="d" d="M76 494q0 221 129 369.5t321 148.5q182 0 340 -109v199q0 137 -24.5 179t-108.5 50l-43 4v64q162 18 289 69h82v-1232q0 -82 26.5 -118t98.5 -52l24 -5v-61h-344v137q-145 -156 -354 -155q-205 0 -320.5 154.5t-115.5 357.5zM285 498q0 -68 13 -134.5t43 -134t89 -108.5 t141 -41q162 0 295 162v555q-82 70 -143 96.5t-135 26.5q-90 0 -153.5 -44.5t-94.5 -114t-43 -133.5t-12 -130z" />
<glyph unicode="e" horiz-adv-x="1064" d="M76 506q0 221 136 363.5t347 142.5q66 0 135.5 -19.5t143 -63.5t121 -132t47.5 -205h-711q0 -248 77 -383t271 -135q188 0 295 196l68 -32q-150 -256 -424 -256q-129 0 -230.5 49t-159 128t-87 168t-29.5 179zM301 674h492v6q2 37 -12.5 89t-74 106.5t-155.5 54.5 q-119 0 -174.5 -68.5t-75.5 -187.5z" />
<glyph unicode="f" horiz-adv-x="655" d="M41 0v61l51 5q68 8 97.5 47t29.5 123v690h-172v67h172v97q0 109 40 189.5t93.5 121.5t124 66.5t114.5 30.5t81 5q76 0 126 -32.5t50 -84.5q0 -35 -28.5 -61.5t-65.5 -26.5q-51 0 -95 58q-47 59 -96 59q-57 0 -103 -46t-46 -159v-217h202v-67h-202v-690q0 -84 29.5 -123 t97.5 -47l51 -5v-61h-551z" />
<glyph unicode="g" horiz-adv-x="1105" d="M35 -244q0 76 50 128.5t165 95.5q-150 53 -150 172q0 139 201 204q-166 115 -166 291q0 152 123 258.5t299 106.5q84 0 193 -41q96 182 249 182q49 0 80 -24.5t31 -63.5q0 -33 -22.5 -55.5t-55.5 -22.5q-29 0 -59.5 19.5t-48.5 19.5q-49 0 -109 -88q170 -115 170 -291 q0 -55 -20.5 -110.5t-66.5 -110.5t-135 -89t-208 -34q-92 0 -193 33q-94 -49 -94 -109q0 -66 133 -84l392 -53q66 -8 106.5 -19.5t94 -37t81 -74.5t27.5 -121q0 -152 -149.5 -242t-397.5 -90q-229 0 -374.5 69.5t-145.5 180.5zM158 -223q0 -86 110.5 -140.5t286.5 -54.5 q215 0 309 59.5t94 131.5q0 59 -49 91t-161 46l-420 51q-170 -63 -170 -184zM344 659q0 -291 217 -290q215 0 215 288.5t-209 288.5q-106 0 -164.5 -76t-58.5 -211z" />
<glyph unicode="h" horiz-adv-x="1351" d="M41 0v61l51 5q68 8 97.5 47t29.5 123v866q0 137 -24.5 179t-108.5 50l-45 4v64q162 18 291 69h82v-626q197 170 403 170q92 0 156.5 -23.5t96.5 -52.5t48.5 -76t18.5 -73.5t2 -67.5v-483q0 -84 29.5 -123t97.5 -47l51 -5v-61h-551v61l51 5q68 8 97.5 47t29.5 123v471 q0 207 -176 206q-178 0 -354 -168v-509q0 -84 29.5 -123t97.5 -47l51 -5v-61h-551z" />
<glyph unicode="i" horiz-adv-x="614" d="M41 0v61l51 5q68 8 97.5 47t29.5 123v481q0 92 -27.5 127t-107.5 43l-41 4v61q127 10 301 41h70v-757q0 -84 28.5 -123t98.5 -47l49 -5v-61h-549zM190 1290q0 51 36 86t87 35q47 0 83 -36t36 -85t-36 -85t-85 -36t-85 36t-36 85z" />
<glyph unicode="j" horiz-adv-x="614" d="M-223 -369q0 33 27.5 57.5t66.5 24.5q45 0 90 -53q33 -37 55.5 -49t57.5 -12q47 0 77.5 21.5t44 58t20.5 89.5q6 46 6 98v15q-1 61 -1 129v707q0 92 -28.5 128t-106.5 42l-49 4v61q156 10 309 41h70v-1089q0 -100 -34 -177t-81 -117t-109.5 -65.5t-107.5 -32t-88 -6.5 q-98 0 -158.5 35t-60.5 90zM193 1290q0 51 35.5 86t86.5 35q47 0 83 -36t36 -85t-36 -85t-85 -36t-84.5 36t-35.5 85z" />
<glyph unicode="k" d="M41 0v61l51 5q68 8 97.5 47t29.5 123v866q0 137 -24.5 179t-108.5 50l-45 4v64q162 18 291 69h82v-958l319 278q55 47 55 80q0 57 -114 66v59h545v-61q-133 -20 -216 -58t-178 -120l-92 -82l305 -436q111 -145 248 -170v-66h-553v61l55 5q37 4 51.5 22t7.5 45t-20.5 52.5 t-31.5 50.5l-215 311l-166 -141v-170q0 -82 29.5 -122t95.5 -48l53 -5v-61h-551z" />
<glyph unicode="l" horiz-adv-x="614" d="M41 0v61l49 5q70 8 98.5 47t28.5 123v866q0 137 -24.5 179t-108.5 50l-43 4v64q162 18 289 69h82v-1232q0 -84 28.5 -123t98.5 -47l47 -5v-61h-545z" />
<glyph unicode="m" horiz-adv-x="1925" d="M35 0v61l51 5q68 8 97.5 47t29.5 123v481q0 92 -27.5 127t-107.5 43l-43 4v61q158 14 303 41h70v-137q98 86 181 121t191 35q111 0 175.5 -39t105.5 -131q111 94 199 132t190 38q127 0 199.5 -73t72.5 -202v-501q0 -84 30 -123t97 -47l52 -5v-61h-537v61l37 5 q66 10 96.5 43.5t30.5 126.5v446q0 223 -162 223q-131 0 -301 -141v-528q0 -84 28.5 -122t98.5 -48l43 -5v-61h-535v61l43 5q70 10 98.5 48t28.5 122v452q0 113 -39.5 165t-128.5 52q-131 0 -294 -141v-528q0 -53 10 -88t33.5 -51.5t39 -21.5t44.5 -9l36 -5v-61h-536z" />
<glyph unicode="n" horiz-adv-x="1351" d="M41 891v61q156 10 309 41h70v-162q109 96 207 138.5t215 42.5q145 0 227 -72t82 -199v-505q0 -84 29.5 -123t97.5 -47l51 -5v-61h-551v61l51 5q68 8 97.5 47t29.5 123v473q0 205 -174 204q-172 0 -362 -172v-505q0 -84 29.5 -123t97.5 -47l51 -5v-61h-551v61l51 5 q68 8 97.5 47t29.5 123v481q0 92 -28.5 128t-106.5 42z" />
<glyph unicode="o" horiz-adv-x="1146" d="M76 494q0 61 12 124.5t48 136t89.5 128t143.5 92.5t202 37q117 0 208 -37t145.5 -92.5t90.5 -128t49 -138t13 -127.5q0 -227 -137 -367t-360 -140q-229 0 -366.5 140.5t-137.5 371.5zM285 498q0 -207 77.5 -321t219.5 -114q135 0 210.5 111t75.5 305q0 211 -78.5 331 t-216.5 120q-131 0 -209.5 -117.5t-78.5 -314.5z" />
<glyph unicode="p" d="M41 -406l51 5q68 6 97.5 46t29.5 124v948q0 92 -27.5 127t-107.5 43l-43 4v61q158 14 303 41h70v-135q135 154 334 154q205 0 325.5 -151.5t120.5 -358.5q0 -221 -131 -370.5t-326 -149.5q-186 0 -323 104v-317q0 -84 29.5 -124t97.5 -46l51 -5v-61h-551v61zM414 186 q119 -113 272 -112q129 0 214 114.5t85 288.5q0 201 -82 322t-219 121q-147 0 -270 -164v-570z" />
<glyph unicode="q" horiz-adv-x="1187" d="M76 481q0 127 43 231.5t110.5 168t148.5 97.5t161 34q174 0 329 -135l54 116h106v-1224q0 -84 29.5 -124t97.5 -46l51 -5v-61h-551v61l52 5q68 6 97.5 46t29.5 124v335q-168 -123 -312 -122q-49 0 -104.5 14t-116.5 51t-110.5 91.5t-82 143t-32.5 199.5zM285 485 q0 -180 83 -295.5t210 -115.5q113 0 256 129v592q-102 125 -236 125q-51 0 -102.5 -20.5t-100.5 -67t-79.5 -135.5t-30.5 -212z" />
<glyph unicode="r" horiz-adv-x="901" d="M41 891v61q156 10 309 41h70v-164q8 6 60 51.5t81 66t87.5 43t117.5 22.5q66 0 107.5 -32t41.5 -83q0 -49 -32.5 -81t-83.5 -32q-55 0 -105 37q-47 31 -86 31q-86 0 -188 -115v-501q0 -84 29.5 -123t97.5 -47l51 -5v-61h-551v61l51 5q68 8 97.5 47t29.5 123v481 q0 92 -28.5 128t-106.5 42z" />
<glyph unicode="s" horiz-adv-x="1064" d="M82 373h70q39 -109 86 -162q57 -70 144 -109t183 -39q113 0 188.5 54.5t75.5 134.5q0 96 -149 135l-262 66q-162 41 -233.5 102t-71.5 158q0 125 108.5 212t265.5 87q166 0 293 -101l21 74h57l66 -315h-66q-51 121 -146.5 190.5t-211.5 69.5q-90 0 -148.5 -44t-58.5 -110 q0 -33 13 -55.5t42 -36.5t49.5 -21.5t55.5 -15.5l284 -69q133 -33 196.5 -96.5t63.5 -168.5q0 -143 -120.5 -237t-305.5 -94q-100 0 -173.5 24.5t-155.5 87.5l-23 -86h-67z" />
<glyph unicode="t" horiz-adv-x="778" d="M41 926v67q152 6 221 96q68 87 68 266v11h78v-373h292v-67h-292v-592q0 -270 153 -271q86 0 178 107l56 -45q-111 -143 -289 -143q-74 0 -135.5 19t-109.5 80.5t-48 158.5v686h-172z" />
<glyph unicode="u" horiz-adv-x="1392" d="M41 891v61q184 12 309 41h70v-688q0 -117 45 -171t141 -54q154 0 359 180v457q0 92 -29 128t-107 42l-49 4v61q197 14 310 41h69v-757q0 -84 30 -123t97 -47l51 -5v-61h-372v172q-131 -106 -227.5 -148t-207.5 -42q-131 0 -218 69.5t-87 237.5v428q0 92 -28.5 128 t-106.5 42z" />
<glyph unicode="v" horiz-adv-x="1064" d="M-47 930v63h500v-61q-53 -6 -77 -11.5t-40.5 -20.5t-14 -40.5t16.5 -71.5l231 -608l213 561q22 48 22 85q0 24 -9 43q-25 48 -123 63v61h422v-65q-135 -31 -213 -203l-314 -725h-121l-325 788q-35 78 -66.5 105t-101.5 37z" />
<glyph unicode="w" horiz-adv-x="1597" d="M-39 932v61h483v-61q-78 -6 -104 -38q-13 -16 -13 -41.5t13 -59.5l217 -611l199 525l-35 86q-29 72 -58.5 97t-103.5 42v61h488v-61q-84 -10 -109 -42q-13 -17 -13 -45q0 -23 9 -52l213 -609l184 541q15 47 15 83q0 115 -152 124v61h453v-61q-84 -23 -126 -64t-85 -143 l-287 -725h-143l-205 588l-242 -588h-133l-305 793q-27 70 -64 101.5t-96 37.5z" />
<glyph unicode="x" horiz-adv-x="1146" d="M-33 0v61q74 10 124 42t120 110l260 293l-240 301q-55 66 -96 90.5t-112 34.5v61h507v-61q-51 -6 -73.5 -14.5t-29.5 -29.5q-1 -4 -1 -9q0 -20 25 -50l161 -196l174 196q20 29 22.5 48.5t-14 30t-34 15.5t-45.5 9v61h432v-61q-100 -20 -161.5 -54t-145.5 -116l-178 -191 l280 -358q68 -82 112 -109.5t126 -42.5v-61h-568v61q123 17 124 72q0 22 -21 51l-185 258l-204 -229q-38 -42 -38 -73q0 -59 138 -79v-61h-459z" />
<glyph unicode="y" horiz-adv-x="1105" d="M-47 930v63h477v-61q-112 -13 -111 -76q0 -18 9 -41l256 -622l190 483q31 78 39 125q3 14 3 27q0 28 -13 45q-18 26 -45 37.5t-84 21.5v61h450v-63q-82 -20 -127 -60.5t-82 -126.5l-354 -831l-36 -87q-13 -32 -54 -101.5t-79 -109.5t-99.5 -74t-128.5 -34 q-82 0 -137.5 40t-55.5 100q0 41 32 70.5t77 29.5q31 0 52.5 -13.5t60.5 -54.5q39 -39 67 -38q41 0 90 52t82 134l51 119l-366 856q-29 72 -58.5 95.5t-105.5 33.5z" />
<glyph unicode="z" horiz-adv-x="983" d="M14 59l672 856q-82 16 -137 17q-180 0 -297 -80q-78 -53 -141 -182l-64 22l115 301h766l22 -51l-686 -852q96 -29 195 -29q156 0 258 63.5t201 219.5l57 -20l-111 -324h-817z" />
<glyph unicode="{" horiz-adv-x="573" d="M72 598v66q80 12 116.5 44.5t36.5 96.5v450q0 133 55.5 194.5t176.5 61.5l51 -2v-65q-82 -14 -119 -49t-37 -97v-452q0 -90 -23.5 -134t-90.5 -81q68 -37 91 -81t23 -134v-453q0 -61 37 -96t119 -49v-66q-23 -2 -59 -2q-115 0 -169.5 62.5t-54.5 193.5v451q0 63 -36.5 96 t-116.5 45z" />
<glyph unicode="|" horiz-adv-x="1228" d="M535 -289v1757h159v-1757h-159z" />
<glyph unicode="}" horiz-adv-x="573" d="M72 -182q82 14 118.5 49t36.5 96v453q0 90 23.5 134t91.5 81q-68 37 -91.5 81t-23.5 134v452q0 61 -36.5 96.5t-118.5 49.5v65q23 2 59 2q223 0 223 -256v-450q0 -63 37 -96t117 -45v-66q-80 -12 -117 -45t-37 -96v-451q0 -133 -55 -194.5t-176 -61.5l-51 2v66z" />
<glyph unicode="~" horiz-adv-x="1228" d="M106 408q78 137 143.5 191t151.5 54q70 0 156 -39l133 -55q113 -47 164 -47q96 0 197 168l88 -96q-57 -109 -132 -169.5t-155 -60.5q-63 0 -190 54l-111 45q-102 43 -150 43q-82 0 -137 -72l-71 -113z" />
<glyph unicode="&#xa1;" horiz-adv-x="614" d="M166 -240q0 61 29 209l57 279q35 182 35 325v64h73v-66q0 -174 31 -340l45 -268q25 -139 25 -184q0 -207 -148 -207q-70 0 -108.5 50t-38.5 138zM188 887q0 55 39 94t92 39q55 0 94.5 -39t39.5 -94q0 -53 -39 -92t-95 -39q-53 0 -92 39t-39 92z" />
<glyph unicode="&#xa2;" d="M238 709q0 170 106.5 284.5t280.5 130.5v211h75v-211q139 -10 231.5 -74.5t92.5 -154.5q0 -45 -29.5 -76t-70.5 -31q-98 0 -115 132q-6 102 -109 112v-604q43 -6 62 -6q61 0 109.5 23.5t125.5 89.5l50 -29q-53 -96 -144.5 -152.5t-202.5 -64.5v-246h-75v246 q-166 14 -276.5 135t-110.5 285zM459 748q0 -213 166 -295v581q-166 -48 -166 -286z" />
<glyph unicode="&#xa3;" d="M16 164q0 82 70 136t172 54q90 0 242 -47q-2 49 -15.5 87t-68.5 173l-70 164h-260l29 88h200q-39 135 -39 191q0 57 27 122.5t81 133t155.5 111.5t230.5 44q170 0 278.5 -84t108.5 -215q0 -57 -30.5 -94t-79.5 -37q-39 0 -68 25.5t-29 60.5q0 31 19.5 72t19.5 57 q0 57 -72.5 103.5t-162.5 46.5q-129 0 -209 -86t-80 -228q0 -72 39 -170l22 -53h412l-33 -88h-338l74 -174q55 -129 0 -301l195 -61q129 -43 174 -43q66 0 109.5 34.5t43.5 87.5q0 45 -30.5 72t-79.5 27t-119 -31l-33 57q84 55 178 56q90 0 151.5 -61.5t61.5 -153.5 q0 -109 -77.5 -183.5t-192.5 -74.5q-51 0 -98 15t-146 64l-186 95q-141 -182 -340 -183q-100 0 -168 54.5t-68 136.5zM125 164q0 -47 39 -78t98 -31q133 0 223 150q-113 68 -215 67q-66 0 -105.5 -29.5t-39.5 -78.5z" />
<glyph unicode="&#xa4;" d="M119 1135l104 106l111 -111q139 104 305 105q156 0 299 -102l109 108l102 -106l-109 -107q104 -135 105 -303q0 -162 -101 -297l109 -109l-102 -104l-109 109q-141 -106 -305 -106.5t-305 106.5l-109 -109l-102 104l108 109q-100 141 -100 297q0 164 100 299zM297 729 q0 -143 99.5 -242.5t240.5 -99.5q139 0 239.5 100.5t100.5 239.5q0 137 -99.5 237.5t-234.5 100.5q-143 0 -244.5 -98.5t-101.5 -237.5z" />
<glyph unicode="&#xa5;" d="M-45 1339v56h549v-56l-23 -4q-117 -23 -130 -63.5t44 -124.5l269 -438l249 415q68 111 53.5 148t-139.5 67v56h498v-56q-109 -20 -162 -61t-141 -178l-141 -211h303v-82h-357l-116 -176v-68h473v-82h-473v-215q0 -121 38.5 -160.5t163.5 -44.5v-61h-589v61l36 2 q100 4 133 45.5t33 157.5v215h-465v82h465v21l-131 223h-334v82h283l-149 250q-68 115 -106 146t-134 54z" />
<glyph unicode="&#xa6;" horiz-adv-x="1228" d="M535 -289v703h159v-703h-159zM535 766v702h159v-702h-159z" />
<glyph unicode="&#xa7;" horiz-adv-x="1064" d="M68 -74q0 49 30.5 83t75.5 34q43 0 70.5 -28.5t27.5 -73.5q0 -12 -5 -42t-5 -51q0 -43 32 -73.5t81 -44t87 -18.5t68 -5q131 0 208 65.5t77 174.5q0 145 -176 180l-221 47q-342 72 -342 322q0 90 45 162.5t153 158.5q-98 55 -139 119.5t-41 161.5q0 145 120 234t312 89 q182 0 308.5 -80.5t126.5 -199.5q0 -51 -27 -84t-68 -33q-45 0 -73.5 31.5t-28.5 79.5l2 67q0 63 -60.5 100t-162.5 37q-127 0 -198 -51t-71 -143q0 -72 41 -116t134 -73l276 -77q119 -35 187.5 -115t68.5 -182q0 -162 -127 -324q141 -104 141 -268q0 -162 -129 -263.5 t-336 -101.5q-195 0 -328.5 88t-133.5 213zM236 563q0 -76 61 -130t168 -77l145 -30q127 -27 172 -39q55 100 56 184q0 94 -53.5 151.5t-174.5 94.5l-262 76q-112 -126 -112 -230z" />
<glyph unicode="&#xa8;" horiz-adv-x="860" d="M139 1290q0 51 36 86t87 35q47 0 83 -36t36 -85t-36 -85t-85 -36t-85 36t-36 85zM473 1290q0 51 36 86t87 35q47 0 83 -36t36 -85t-36 -85t-85 -36t-85 36t-36 85z" />
<glyph unicode="&#xa9;" horiz-adv-x="1515" d="M41 690q0 297 210 507t507 210t507 -210t210 -507t-210 -507t-507 -210t-507 210t-210 507zM115 690q0 -266 188.5 -454.5t454.5 -188.5t454.5 188.5t188.5 454.5t-188.5 454.5t-454.5 188.5t-454.5 -188.5t-188.5 -454.5zM350 686q0 123 69.5 217t161 136t179.5 42 q147 0 244 -65l24 43h47l62 -277h-52q-31 59 -50 90t-55 71t-85 57.5t-113 17.5q-115 0 -188.5 -94.5t-73.5 -235.5q0 -162 90 -242.5t197 -80.5q37 0 78 9t104.5 48t110.5 104l63 -30q-135 -197 -375 -197q-186 0 -312 110.5t-126 276.5z" />
<glyph unicode="&#xaa;" horiz-adv-x="860" d="M100 940q0 96 107 145q80 39 307 70v92q0 41 -36 65.5t-97 24.5q-53 0 -88 -28q-8 -6 -8 -29v-14q0 -35 -20.5 -56.5t-53.5 -21.5q-29 0 -49.5 19.5t-20.5 45.5q0 57 80 103.5t178 46.5q102 0 178 -40t76 -136v-269q0 -57 11.5 -79.5t40.5 -22.5q33 0 61 23l39 -50 q-59 -49 -129 -49q-119 0 -156 80q-106 -82 -219 -82q-90 0 -145.5 45t-55.5 117zM129 590v82h625v-82h-625zM244 948q0 -41 28.5 -67.5t73.5 -26.5q74 0 168 82v156q-147 -23 -208.5 -56t-61.5 -88z" />
<glyph unicode="&#xab;" horiz-adv-x="737" d="M104 543l224 352l59 -35l-127 -317l107 -324l-62 -37zM356 543l222 352l61 -35l-127 -317l104 -324l-61 -37z" />
<glyph unicode="&#xac;" horiz-adv-x="1228" d="M82 606v160h1065v-428h-160v268h-905z" />
<glyph unicode="&#xad;" horiz-adv-x="819" d="M102 475l60 117h555l-58 -117h-557z" />
<glyph unicode="&#xae;" horiz-adv-x="1515" d="M41 690q0 297 210 507t507 210t507 -210t210 -507t-210 -507t-507 -210t-507 210t-210 507zM115 690q0 -266 188.5 -454.5t454.5 -188.5t454.5 188.5t188.5 454.5t-188.5 454.5t-454.5 188.5t-454.5 -188.5t-188.5 -454.5zM319 313v45l31 4q43 6 55.5 29t12.5 86v428 q0 63 -12.5 86t-55.5 27l-31 4v45h492q135 0 213 -51t78 -142q0 -27 -7.5 -51t-27.5 -56t-67.5 -56.5t-114.5 -34.5l194 -250q43 -53 117 -68v-45h-213l-270 351h-148v-187q0 -63 12.5 -86.5t53.5 -28.5l45 -4v-45h-357zM565 723h187q193 0 192 147q0 141 -215 142 q-98 0 -131 -14.5t-33 -45.5v-229z" />
<glyph unicode="&#xaf;" horiz-adv-x="901" d="M139 1239v102h606v-102h-606z" />
<glyph unicode="&#xb0;" horiz-adv-x="819" d="M102 1094q0 131 91.5 221t222.5 90q127 0 214 -90t87 -223q0 -131 -89 -222.5t-218 -91.5t-218.5 91.5t-89.5 224.5zM217 1092q0 -82 57.5 -139.5t135.5 -57.5q80 0 135 57.5t55 139.5t-54 139t-132 57q-82 0 -139.5 -57t-57.5 -139z" />
<glyph unicode="&#xb1;" horiz-adv-x="1228" d="M82 0v160h1065v-160h-1065zM82 592v160h453v452h159v-452h453v-160h-453v-289h-159v289h-453z" />
<glyph unicode="&#xb2;" horiz-adv-x="761" d="M41 559v98q156 90 244 164q229 195 229 361q0 70 -46 111.5t-122 41.5q-66 0 -119 -31.5t-53 -70.5q0 -20 27 -49q20 -20 20 -45q0 -29 -24.5 -50.5t-57.5 -21.5q-41 0 -67.5 31.5t-26.5 79.5q0 94 94 163.5t223 69.5q139 0 229.5 -68.5t90.5 -175.5q0 -158 -225 -338 q-63 -51 -236 -155h273q84 0 115.5 18.5t62.5 85.5l16 35l64 -14l-66 -240h-645z" />
<glyph unicode="&#xb3;" horiz-adv-x="761" d="M25 735q0 39 25.5 65.5t60 26.5t57 -20.5t22.5 -52.5q0 -14 -10 -43l-2 -11q0 -33 52.5 -57.5t123.5 -24.5q102 0 158.5 48.5t56.5 136.5q0 86 -56 134t-157 48q-12 0 -94 -6v74q45 -4 74 -4q90 0 143 39.5t53 107.5q0 63 -44 101t-117 38q-61 0 -104.5 -23.5 t-43.5 -56.5q0 -6 10 -36q6 -14 7 -31q0 -27 -22.5 -46.5t-55.5 -19.5q-35 0 -58.5 24.5t-23.5 61.5q0 84 86 143.5t209 59.5q133 0 222 -58.5t89 -146.5q0 -135 -180 -184l26 -6q94 -20 149.5 -77.5t55.5 -135.5q0 -113 -107.5 -186.5t-271.5 -73.5q-141 0 -237 55t-96 137 z" />
<glyph unicode="&#xb4;" horiz-adv-x="696" d="M180 1200l195 139q92 70 155 70q31 0 51.5 -21.5t20.5 -54.5q0 -76 -127 -102l-285 -60z" />
<glyph unicode="&#xb5;" horiz-adv-x="1392" d="M41 891v61q184 12 309 41h70v-688q0 -117 45 -171t141 -54q154 0 359 180v457q0 92 -29 128t-107 42l-49 4v61q197 14 310 41h69v-757q0 -84 30 -123t97 -47l51 -5v-61h-372v172q-129 -104 -225.5 -147t-202.5 -43q-152 0 -232 118v-49q0 -70 23 -160q39 -139 39 -188 q0 -68 -28 -110t-71 -42q-45 0 -73.5 42t-28.5 106q0 53 35 186q25 90 24 156v680q0 88 -28.5 124t-106.5 42z" />
<glyph unicode="&#xb6;" horiz-adv-x="1228" d="M29 1001q0 70 20.5 130.5t73.5 124t164.5 101.5t273.5 38h621v-68l-43 -4q-88 -10 -114 -48t-26 -161v-850q0 -102 30 -144t110 -50l43 -4v-66h-838v66l39 4q102 10 134 47t32 147v344h-33q-123 0 -216 31t-143.5 74t-81 101t-38.5 101t-8 86zM233 1012 q0 -145 86.5 -238.5t229.5 -103.5v657q-150 -2 -233 -85t-83 -230zM700 68h154v1259h-154v-1259z" />
<glyph unicode="&#xb7;" horiz-adv-x="655" d="M197 512q0 53 38.5 92t92 39t92.5 -39t39 -92t-39 -92t-92.5 -39t-92 39t-38.5 92z" />
<glyph unicode="&#xb8;" horiz-adv-x="655" d="M139 -336q0 20 14.5 35.5t36.5 15.5q45 0 64 -49q14 -33 30.5 -42t49.5 -9q39 0 66.5 36t27.5 85q0 53 -31.5 83.5t-91.5 30.5q-35 0 -96 -20l51 174h64l-27 -92q20 4 49 4q82 0 141.5 -50t59.5 -122q0 -78 -62.5 -136.5t-146.5 -58.5q-80 0 -139.5 34t-59.5 81z" />
<glyph unicode="&#xb9;" horiz-adv-x="761" d="M164 559v55h53q57 0 84 26t22.5 54.5t0.5 44.5v459q0 68 -15.5 84t-81.5 21l-59 2v53q147 16 242 37h51v-660q0 -31 2 -47t11 -35.5t32.5 -29t60.5 -9.5h51v-55h-454z" />
<glyph unicode="&#xba;" horiz-adv-x="860" d="M115 590v82h624v-82h-624zM115 1094q0 139 85 224t224 85q141 0 227 -86t86 -227q0 -139 -85 -225.5t-224 -86.5q-143 0 -228 86.5t-85 229.5zM258 1096q0 -123 44 -187.5t126 -64.5q80 0 123 62.5t43 178.5q0 119 -44 185.5t-124 66.5q-78 0 -123 -64t-45 -177z" />
<glyph unicode="&#xbb;" horiz-adv-x="737" d="M104 217l127 318l-106 323l63 37l199 -360l-221 -353zM356 217l127 318l-106 323l61 37l201 -360l-223 -353z" />
<glyph unicode="&#xbc;" horiz-adv-x="1904" d="M164 559v55h53q57 0 84 26t22.5 54.5t0.5 44.5v459q0 68 -15.5 84t-81.5 21l-59 2v53q147 16 242 37h51v-660q0 -31 2 -47t11 -35.5t32.5 -29t60.5 -9.5h51v-55h-454zM410 0l950 1395h121l-953 -1395h-118zM1030 285l422 551h133v-525h195l-35 -88h-160v-43 q0 -72 15.5 -97.5t58.5 -27.5l49 -2v-53h-383v53l49 2q45 2 59.5 28t14.5 97v43h-393zM1147 311h301v389z" />
<glyph unicode="&#xbd;" horiz-adv-x="1904" d="M164 559v55h53q57 0 84 26t22.5 54.5t0.5 44.5v459q0 68 -15.5 84t-81.5 21l-59 2v53q147 16 242 37h51v-660q0 -31 2 -47t11 -35.5t32.5 -29t60.5 -9.5h51v-55h-454zM371 0l950 1395h121l-953 -1395h-118zM1102 0v98q156 90 244 164q229 195 229 361q0 70 -46 111.5 t-122 41.5q-66 0 -119 -31.5t-53 -70.5q0 -20 27 -49q20 -20 20 -45q0 -29 -24.5 -50.5t-57.5 -21.5q-41 0 -67.5 31.5t-26.5 78.5q0 94 94 164t223 70q139 0 229.5 -68.5t90.5 -175.5q0 -158 -225 -338q-63 -51 -236 -155h272q84 0 116 18.5t63 85.5l16 35l63 -14l-65 -240 h-645z" />
<glyph unicode="&#xbe;" horiz-adv-x="1904" d="M106 735q0 39 26 65.5t60.5 26.5t57 -20.5t22.5 -52.5q0 -14 -10 -43l-2 -11q0 -33 52.5 -57.5t123.5 -24.5q102 0 158.5 48.5t56.5 136.5q0 86 -56 134t-157 48q-12 0 -94 -6v74q45 -4 74 -4q90 0 143 39.5t53 107.5q0 63 -44 101t-117 38q-61 0 -104.5 -23.5 t-43.5 -56.5q0 -6 10 -36q6 -14 7 -31q0 -27 -23 -46.5t-55 -19.5q-35 0 -58.5 24.5t-23.5 61.5q0 84 86 143.5t209 59.5q133 0 222 -58.5t89 -146.5q0 -135 -180 -184l26 -6q94 -20 149.5 -77.5t55.5 -135.5q0 -113 -107.5 -186.5t-271.5 -73.5q-141 0 -237.5 55t-96.5 137 zM504 0l950 1395h121l-952 -1395h-119zM1071 285l422 551h133v-525h195l-35 -88h-160v-43q0 -72 15.5 -97.5t58.5 -27.5l49 -2v-53h-383v53l49 2q45 2 59.5 28t14.5 97v43h-393zM1188 311h301v389z" />
<glyph unicode="&#xbf;" horiz-adv-x="1105" d="M53 -47q0 256 277 352l67 25q104 41 143.5 105.5t37.5 201.5h92q4 -82 4 -90q0 -98 -30 -153.5t-112 -110.5l-116 -80q-141 -98 -142 -269q0 -133 76 -206.5t215 -73.5q121 0 206 51t85 125q0 31 -21.5 74t-21.5 67q0 39 33 69t78 30q55 0 91 -42t36 -108 q0 -127 -139.5 -237.5t-366.5 -110.5q-72 0 -149 17.5t-157.5 57.5t-133 120t-52.5 186zM494 887q0 55 38.5 94t92.5 39q55 0 94 -39t39 -94q0 -53 -39 -92t-96 -39q-53 0 -91 39t-38 92z" />
<glyph unicode="&#xc0;" horiz-adv-x="1392" d="M-76 0v63l23 5q102 20 153.5 89.5t153.5 334.5l352 903h191l434 -1098q55 -141 93 -179t138 -55v-63h-575v63q125 18 150.5 57.5t-11.5 133.5l-102 264h-529l-65 -176q-25 -63 -34 -105t1 -79t45 -62q29 -18 131 -33v-63h-549zM399 1669q0 29 22.5 48.5t57.5 19.5 q63 0 170 -64l215 -125l-10 -24l-313 53q-142 24 -142 92zM426 606h461l-234 615z" />
<glyph unicode="&#xc1;" horiz-adv-x="1392" d="M-76 0v63l23 5q102 20 153.5 89.5t153.5 334.5l352 903h191l434 -1098q55 -141 93 -179t138 -55v-63h-575v63q125 18 150.5 57.5t-11.5 133.5l-102 264h-529l-65 -176q-25 -63 -34 -105t1 -79t45 -62q29 -18 131 -33v-63h-549zM426 606h461l-234 615zM541 1548l215 125 q106 63 170 64q35 0 57.5 -19.5t22.5 -48.5q0 -68 -142 -92l-313 -53z" />
<glyph unicode="&#xc2;" horiz-adv-x="1392" d="M-76 0v63l23 5q102 20 153.5 89.5t153.5 334.5l352 903h191l434 -1098q55 -141 93 -179t138 -55v-63h-575v63q125 18 150.5 57.5t-11.5 133.5l-102 264h-529l-65 -176q-25 -63 -34 -105t1 -79t45 -62q29 -18 131 -33v-63h-549zM383 1567l319 172l320 -172l-31 -45 l-289 82l-290 -82zM426 606h461l-234 615z" />
<glyph unicode="&#xc3;" horiz-adv-x="1392" d="M-76 0v63l23 5q102 20 153.5 89.5t153.5 334.5l352 903h191l434 -1098q55 -141 93 -179t138 -55v-63h-575v63q125 18 150.5 57.5t-11.5 133.5l-102 264h-529l-65 -176q-25 -63 -34 -105t1 -79t45 -62q29 -18 131 -33v-63h-549zM391 1579q20 63 68.5 101t108 38t194.5 -37 q63 -18 100 -18q63 0 99 45l59 -18q-23 -78 -67 -113t-117 -35q-66 0 -195 37q-80 20 -111 20q-45 0 -79 -40zM426 606h461l-234 615z" />
<glyph unicode="&#xc4;" horiz-adv-x="1392" d="M-76 0v63l23 5q102 20 153.5 89.5t153.5 334.5l352 903h191l434 -1098q55 -141 93 -179t138 -55v-63h-575v63q125 18 150.5 57.5t-11.5 133.5l-102 264h-529l-65 -176q-25 -63 -34 -105t1 -79t45 -62q29 -18 131 -33v-63h-549zM412 1630q0 51 35.5 86t87.5 35 q47 0 82.5 -36t35.5 -85t-35.5 -85t-85 -36t-85 36t-35.5 85zM426 606h461l-234 615zM745 1630q0 51 36 86t87 35q47 0 83 -36t36 -85t-36 -85t-85 -36t-85 36t-36 85z" />
<glyph unicode="&#xc5;" horiz-adv-x="1392" d="M-76 0v63l23 5q102 20 153.5 89.5t153.5 334.5l352 903h191l434 -1098q55 -141 93 -179t138 -55v-63h-575v63q125 18 150.5 57.5t-11.5 133.5l-102 264h-529l-65 -176q-25 -63 -34 -105t1 -79t45 -62q29 -18 131 -33v-63h-549zM426 606h461l-234 615zM514 1659 q0 78 56.5 133t134.5 55q76 0 131 -55t55 -133t-55.5 -134.5t-133 -56.5t-133 56.5t-55.5 134.5zM590 1659q0 -47 32.5 -81t80 -34t80 34t32.5 81q0 45 -32.5 79t-77.5 34q-47 0 -81 -33t-34 -80z" />
<glyph unicode="&#xc6;" horiz-adv-x="2580" d="M-74 0v63q145 23 246.5 82.5t214.5 190.5l938 1059h1012l153 -365l-71 -20q-106 156 -258 226.5t-377 70.5q-129 0 -176 -37t-47 -140v-344h141q55 0 93 8.5t75 32t56.5 74.5t19.5 129v19h71v-623h-71v25q0 82 -24 136t-67 75.5t-75.5 28.5t-77.5 7h-141v-454 q0 -76 46 -116t185 -40h78q242 0 426 162q92 82 194 227l70 -26l-174 -451h-1215v63l52 7q80 10 106.5 55t26.5 170v403h-510l-334 -383q-90 -113 -90 -163q0 -80 188 -89v-63h-684zM930 786h426v500z" />
<glyph unicode="&#xc7;" horiz-adv-x="1515" d="M90 690q0 172 66.5 316.5t169 231.5t217 135t221.5 48q250 0 422 -131l43 86h67l99 -493h-66q-37 76 -56.5 111.5l-57 99t-72.5 95.5t-86 67.5t-114.5 51t-139.5 15.5q-203 0 -337 -179t-134 -452q0 -164 50 -290t130 -194.5t165 -102t167 -33.5q45 0 96 11t123 40 t147.5 93.5t139.5 158.5l88 -49q-223 -346 -611 -353l-18 -61q20 4 49 4q82 0 141.5 -50t59.5 -122q0 -78 -62.5 -136.5t-146.5 -58.5q-80 0 -139.5 34t-59.5 81q0 20 14.5 35.5t36.5 15.5q45 0 64 -49q14 -33 30.5 -42t49.5 -9q39 0 66.5 36t27.5 85q0 53 -31.5 83.5 t-91.5 30.5q-35 0 -96 -20l43 145q-293 16 -483.5 218t-190.5 497z" />
<glyph unicode="&#xc8;" horiz-adv-x="1474" d="M63 0v63l52 7q80 10 106.5 55t26.5 170v805q0 125 -26.5 170t-106.5 55l-52 6v64h1170l141 -369l-65 -27q-141 172 -277.5 240t-345.5 68q-135 0 -184 -36t-49 -134v-349h155q131 0 179.5 50.5t68.5 210.5h70v-613h-70q-14 143 -72.5 203.5t-179.5 60.5h-151v-432 q0 -100 46 -140t185 -40q229 0 378.5 81t317.5 296l64 -29l-187 -436h-1194zM358 1669q0 29 22.5 48.5t57.5 19.5q63 0 170 -64l215 -125l-10 -24l-313 53q-142 24 -142 92z" />
<glyph unicode="&#xc9;" horiz-adv-x="1474" d="M63 0v63l52 7q80 10 106.5 55t26.5 170v805q0 125 -26.5 170t-106.5 55l-52 6v64h1170l141 -369l-65 -27q-141 172 -277.5 240t-345.5 68q-135 0 -184 -36t-49 -134v-349h155q131 0 179.5 50.5t68.5 210.5h70v-613h-70q-14 143 -72.5 203.5t-179.5 60.5h-151v-432 q0 -100 46 -140t185 -40q229 0 378.5 81t317.5 296l64 -29l-187 -436h-1194zM500 1548l215 125q106 63 170 64q35 0 57.5 -19.5t22.5 -48.5q0 -68 -142 -92l-313 -53z" />
<glyph unicode="&#xca;" horiz-adv-x="1474" d="M63 0v63l52 7q80 10 106.5 55t26.5 170v805q0 125 -26.5 170t-106.5 55l-52 6v64h1170l141 -369l-65 -27q-141 172 -277.5 240t-345.5 68q-135 0 -184 -36t-49 -134v-349h155q131 0 179.5 50.5t68.5 210.5h70v-613h-70q-14 143 -72.5 203.5t-179.5 60.5h-151v-432 q0 -100 46 -140t185 -40q229 0 378.5 81t317.5 296l64 -29l-187 -436h-1194zM342 1567l320 172l319 -172l-31 -45l-288 82l-291 -82z" />
<glyph unicode="&#xcb;" horiz-adv-x="1474" d="M63 0v63l52 7q80 10 106.5 55t26.5 170v805q0 125 -26.5 170t-106.5 55l-52 6v64h1170l141 -369l-65 -27q-141 172 -277.5 240t-345.5 68q-135 0 -184 -36t-49 -134v-349h155q131 0 179.5 50.5t68.5 210.5h70v-613h-70q-14 143 -72.5 203.5t-179.5 60.5h-151v-432 q0 -100 46 -140t185 -40q229 0 378.5 81t317.5 296l64 -29l-187 -436h-1194zM371 1630q0 51 35.5 86t87.5 35q47 0 82.5 -36t35.5 -85t-35.5 -85t-85 -36t-85 36t-35.5 85zM705 1630q0 51 35.5 86t86.5 35q47 0 83 -36t36 -85t-36 -85t-85 -36t-84.5 36t-35.5 85z" />
<glyph unicode="&#xcc;" horiz-adv-x="696" d="M37 1669q0 29 22.5 48.5t57.5 19.5q63 0 170 -64l215 -125l-10 -24l-314 53q-141 24 -141 92zM63 0v63l41 7q84 14 109 56t25 169v805q0 127 -25 169t-109 56l-41 6v64h553v-64l-41 -6q-84 -14 -108.5 -56t-24.5 -169v-805q0 -127 25 -169t108 -56l41 -7v-63h-553z" />
<glyph unicode="&#xcd;" horiz-adv-x="696" d="M63 0v63l41 7q84 14 109 56t25 169v805q0 127 -25 169t-109 56l-41 6v64h553v-64l-41 -6q-84 -14 -108.5 -56t-24.5 -169v-805q0 -127 25 -169t108 -56l41 -7v-63h-553zM178 1548l215 125q106 63 170 64q35 0 57.5 -19.5t22.5 -48.5q0 -68 -141 -92l-314 -53z" />
<glyph unicode="&#xce;" horiz-adv-x="696" d="M20 1567l320 172l319 -172l-30 -45l-289 82l-291 -82zM63 0v63l41 7q84 14 109 56t25 169v805q0 127 -25 169t-109 56l-41 6v64h553v-64l-41 -6q-84 -14 -108.5 -56t-24.5 -169v-805q0 -127 25 -169t108 -56l41 -7v-63h-553z" />
<glyph unicode="&#xcf;" horiz-adv-x="696" d="M49 1630q0 51 36 86t87 35q47 0 83 -36t36 -85t-36 -85t-85 -36t-85 36t-36 85zM63 0v63l41 7q84 14 109 56t25 169v805q0 127 -25 169t-109 56l-41 6v64h553v-64l-41 -6q-84 -14 -108.5 -56t-24.5 -169v-805q0 -127 25 -169t108 -56l41 -7v-63h-553zM383 1630 q0 51 36 86t87 35q47 0 83 -36t36 -85t-36 -85t-85 -36t-85 36t-36 85z" />
<glyph unicode="&#xd0;" horiz-adv-x="1638" d="M63 0v63l52 7q82 10 107.5 54t25.5 171v401h-185v97h185v305q0 127 -26.5 172t-106.5 55l-52 6v64h625q215 0 376 -50.5t249 -123t142 -174t69.5 -185.5t15.5 -176q0 -686 -852 -686h-625zM453 266q0 -53 6 -80.5t28.5 -54.5t72.5 -37t134 -10q139 0 248 39t174.5 100.5 t108.5 145.5t58 164.5t15 166.5q0 109 -27.5 207.5t-91 193.5t-187.5 152.5t-296 57.5q-61 0 -105 -5.5t-70.5 -21.5t-41 -26.5t-19.5 -41t-6 -42t-1 -52.5v-329h409v-97h-409v-430z" />
<glyph unicode="&#xd1;" horiz-adv-x="1515" d="M53 0v63l51 7q80 10 107 55t27 170v805q0 125 -27 170t-107 55l-51 6v64h457l668 -1104v809q0 125 -28 171t-106 54l-71 6v64h506v-64l-52 -6q-80 -10 -106.5 -55t-26.5 -170v-1100h-180l-760 1241v-946q0 -125 28 -171t105 -54l72 -7v-63h-506zM455 1579q20 63 68 101 t107.5 38t194.5 -37q63 -18 101 -18q63 0 98 45l59 -18q-23 -78 -66.5 -113t-117.5 -35q-66 0 -194 37q-80 20 -111 20q-45 0 -80 -40z" />
<glyph unicode="&#xd2;" horiz-adv-x="1638" d="M90 702q0 301 214 510t523 209q315 0 520 -205.5t205 -523.5q0 -170 -64.5 -309t-170 -227t-234.5 -135.5t-264 -47.5q-311 0 -520 210t-209 519zM332 700q0 -287 133 -457.5t356 -170.5t356.5 165.5t133.5 442.5q0 297 -131 470t-357 173q-223 0 -357 -170t-134 -453z M524 1669q0 29 22.5 48.5t57.5 19.5q63 0 170 -64l215 -125l-10 -24l-313 53q-142 24 -142 92z" />
<glyph unicode="&#xd3;" horiz-adv-x="1638" d="M90 702q0 301 214 510t523 209q315 0 520 -205.5t205 -523.5q0 -170 -64.5 -309t-170 -227t-234.5 -135.5t-264 -47.5q-311 0 -520 210t-209 519zM332 700q0 -287 133 -457.5t356 -170.5t356.5 165.5t133.5 442.5q0 297 -131 470t-357 173q-223 0 -357 -170t-134 -453z M666 1548l215 125q106 63 170 64q35 0 57 -19.5t22 -48.5q0 -68 -141 -92l-313 -53z" />
<glyph unicode="&#xd4;" horiz-adv-x="1638" d="M90 702q0 301 214 510t523 209q315 0 520 -205.5t205 -523.5q0 -170 -64.5 -309t-170 -227t-234.5 -135.5t-264 -47.5q-311 0 -520 210t-209 519zM332 700q0 -287 133 -457.5t356 -170.5t356.5 165.5t133.5 442.5q0 297 -131 470t-357 173q-223 0 -357 -170t-134 -453z M508 1567l319 172l320 -172l-31 -45l-289 82l-290 -82z" />
<glyph unicode="&#xd5;" horiz-adv-x="1638" d="M90 702q0 301 214 510t523 209q315 0 520 -205.5t205 -523.5q0 -170 -64.5 -309t-170 -227t-234.5 -135.5t-264 -47.5q-311 0 -520 210t-209 519zM332 700q0 -287 133 -457.5t356 -170.5t356.5 165.5t133.5 442.5q0 297 -131 470t-357 173q-223 0 -357 -170t-134 -453z M516 1579q20 63 68.5 101t108 38t194.5 -37q63 -18 100 -18q63 0 98 45l60 -18q-23 -78 -67 -113t-117 -35q-66 0 -195 37q-80 20 -111 20q-45 0 -80 -40z" />
<glyph unicode="&#xd6;" horiz-adv-x="1638" d="M90 702q0 301 214 510t523 209q315 0 520 -205.5t205 -523.5q0 -170 -64.5 -309t-170 -227t-234.5 -135.5t-264 -47.5q-311 0 -520 210t-209 519zM332 700q0 -287 133 -457.5t356 -170.5t356.5 165.5t133.5 442.5q0 297 -131 470t-357 173q-223 0 -357 -170t-134 -453z M537 1630q0 51 35.5 86t86.5 35q47 0 83 -36t36 -85t-35.5 -85t-85 -36t-85 36t-35.5 85zM870 1630q0 51 36 86t87 35q47 0 83 -36t36 -85t-36 -85t-85 -36t-85 36t-36 85z" />
<glyph unicode="&#xd7;" horiz-adv-x="1228" d="M182 193l320 319l-320 319l113 113l319 -319l320 319l113 -113l-320 -319l320 -319l-113 -113l-320 319l-319 -319z" />
<glyph unicode="&#xd8;" horiz-adv-x="1638" d="M90 694q0 307 213 517t526 210q227 0 410 -112l154 194h125l-203 -252q127 -127 182 -257t55 -298q0 -170 -64.5 -310t-171 -228t-235.5 -136.5t-264 -48.5q-211 0 -411 119l-160 -201h-129l211 265q-238 229 -238 538zM332 688q0 -121 22.5 -206t81.5 -189l711 899 q-78 72 -150.5 101.5t-171.5 29.5q-229 0 -361 -170t-132 -465zM498 211q137 -139 325 -139q221 0 354.5 165.5t133.5 440.5q0 137 -22.5 232.5t-80.5 197.5z" />
<glyph unicode="&#xd9;" horiz-adv-x="1597" d="M51 1331v64h598v-64l-76 -6q-78 -6 -105.5 -53t-27.5 -172v-547q0 -98 5.5 -158.5t28 -129t63.5 -106.5t114.5 -62.5t182.5 -24.5q86 0 151.5 15t108.5 36.5t72.5 64.5t45 75t22.5 93.5t8 96t1 104.5v543q0 125 -27.5 171t-105.5 54l-68 6v64h502v-64l-51 -6 q-80 -10 -106.5 -55t-26.5 -170v-682q0 -217 -124 -331t-433 -114q-113 0 -207 20.5t-179 66.5t-133 136.5t-48 217.5v686q0 125 -27 170t-107 55zM516 1669q0 29 22.5 48.5t57.5 19.5q63 0 170 -64l215 -125l-10 -24l-314 53q-141 24 -141 92z" />
<glyph unicode="&#xda;" horiz-adv-x="1597" d="M51 1331v64h598v-64l-76 -6q-78 -6 -105.5 -53t-27.5 -172v-547q0 -98 5.5 -158.5t28 -129t63.5 -106.5t114.5 -62.5t182.5 -24.5q86 0 151.5 15t108.5 36.5t72.5 64.5t45 75t22.5 93.5t8 96t1 104.5v543q0 125 -27.5 171t-105.5 54l-68 6v64h502v-64l-51 -6 q-80 -10 -106.5 -55t-26.5 -170v-682q0 -217 -124 -331t-433 -114q-113 0 -207 20.5t-179 66.5t-133 136.5t-48 217.5v686q0 125 -27 170t-107 55zM657 1548l215 125q106 63 170 64q35 0 57.5 -19.5t22.5 -48.5q0 -68 -141 -92l-313 -53z" />
<glyph unicode="&#xdb;" horiz-adv-x="1597" d="M51 1331v64h598v-64l-76 -6q-78 -6 -105.5 -53t-27.5 -172v-547q0 -98 5.5 -158.5t28 -129t63.5 -106.5t114.5 -62.5t182.5 -24.5q86 0 151.5 15t108.5 36.5t72.5 64.5t45 75t22.5 93.5t8 96t1 104.5v543q0 125 -27.5 171t-105.5 54l-68 6v64h502v-64l-51 -6 q-80 -10 -106.5 -55t-26.5 -170v-682q0 -217 -124 -331t-433 -114q-113 0 -207 20.5t-179 66.5t-133 136.5t-48 217.5v686q0 125 -27 170t-107 55zM500 1567l319 172l320 -172l-31 -45l-289 82l-291 -82z" />
<glyph unicode="&#xdc;" horiz-adv-x="1597" d="M51 1331v64h598v-64l-76 -6q-78 -6 -105.5 -53t-27.5 -172v-547q0 -98 5.5 -158.5t28 -129t63.5 -106.5t114.5 -62.5t182.5 -24.5q86 0 151.5 15t108.5 36.5t72.5 64.5t45 75t22.5 93.5t8 96t1 104.5v543q0 125 -27.5 171t-105.5 54l-68 6v64h502v-64l-51 -6 q-80 -10 -106.5 -55t-26.5 -170v-682q0 -217 -124 -331t-433 -114q-113 0 -207 20.5t-179 66.5t-133 136.5t-48 217.5v686q0 125 -27 170t-107 55zM528 1630q0 51 36 86t87 35q47 0 83 -36t36 -85t-36 -85t-85 -36t-85 36t-36 85zM862 1630q0 51 36 86t87 35q47 0 83 -36 t36 -85t-36 -85t-85 -36t-85 36t-36 85z" />
<glyph unicode="&#xdd;" horiz-adv-x="1310" d="M-61 1331v64h583v-64q-123 -16 -150.5 -48t19.5 -109l289 -467l291 446q29 43 33 75t-16.5 52t-52.5 31.5t-81 19.5v64h510v-64q-109 -23 -164 -64.5t-135 -162.5l-338 -518v-291q0 -125 27.5 -172t105.5 -53l84 -7v-63h-639v63l84 7q78 6 105.5 53t27.5 172v287 l-342 544q-68 111 -111.5 148t-129.5 57zM463 1548l215 125q106 63 170 64q35 0 57.5 -19.5t22.5 -48.5q0 -68 -142 -92l-313 -53z" />
<glyph unicode="&#xde;" d="M63 0v63l52 7q80 10 106.5 55t26.5 170v805q0 127 -25.5 171t-107.5 54l-52 6v64h574v-64l-51 -6q-27 -4 -43.5 -9t-40 -20.5t-35.5 -50.5t-12 -86v-29h288q236 0 374 -106t138 -287q0 -68 -22.5 -133t-75.5 -129.5t-160.5 -104.5t-255.5 -40h-288v-35q0 -129 30.5 -172 t126.5 -53l54 -7v-63h-601zM453 418h256q96 0 166.5 29.5t105.5 78.5t50.5 99.5t15.5 105.5q0 147 -88.5 229t-247.5 82h-258v-624z" />
<glyph unicode="&#xdf;" horiz-adv-x="1351" d="M-223 -184l33 80q106 -39 170 -39q47 0 88 16t85 57t69.5 129t25.5 213v654h-172v67h172q23 98 63.5 175t93 121t102.5 73t106.5 41t88 15t62.5 3q152 0 250 -71.5t98 -180.5q0 -72 -47 -131t-129 -92l-47 -18q-68 -25 -68 -58q0 -25 62 -53l116 -53q258 -117 258 -322 q0 -190 -157.5 -325t-380.5 -135q-147 0 -275 71l48 78q125 -59 210 -59q133 0 240 105.5t107 236.5q0 57 -20.5 99t-57.5 69.5t-86 54.5t-105 53l-102 53q-88 47 -88 105q0 63 115 106l55 19q96 35 140 81t44 115q0 78 -52 127.5t-138 49.5q-53 0 -102.5 -18.5t-99.5 -64.5 t-80 -142.5t-30 -233.5v-547q0 -141 -35.5 -249.5t-87 -166t-119 -93.5t-117.5 -46t-99 -10q-119 0 -207 41z" />
<glyph unicode="&#xe0;" horiz-adv-x="1187" d="M72 236q0 59 26.5 108t72.5 82t105.5 59.5t124 41t131 26.5t125 17t105.5 12v163q0 84 -64.5 134.5t-173.5 50.5q-86 0 -146.5 -31t-60.5 -76l2 -57q0 -43 -30.5 -73.5t-73.5 -30.5q-41 0 -69.5 26.5t-28.5 63.5q0 76 70.5 137t172 92t203.5 31q70 0 133.5 -13.5t125 -45 t98 -94t36.5 -150.5v-435q0 -39 1 -60t7.5 -52t17.5 -47.5t33.5 -28.5t55.5 -12q45 0 92 41l39 -54q-82 -80 -211 -79q-174 0 -229 157q-102 -86 -187.5 -121.5t-187.5 -35.5q-137 0 -226 71.5t-89 182.5zM281 256q0 -74 52 -125t126 -51q143 0 303 151v279 q-231 -20 -356 -86t-125 -168zM309 1333q0 33 20.5 54.5t51.5 21.5q63 0 156 -70l194 -139l-10 -29l-285 60q-127 26 -127 102z" />
<glyph unicode="&#xe1;" horiz-adv-x="1187" d="M72 236q0 59 26.5 108t72.5 82t105.5 59.5t124 41t131 26.5t125 17t105.5 12v163q0 84 -64.5 134.5t-173.5 50.5q-86 0 -146.5 -31t-60.5 -76l2 -57q0 -43 -30.5 -73.5t-73.5 -30.5q-41 0 -69.5 26.5t-28.5 63.5q0 76 70.5 137t172 92t203.5 31q70 0 133.5 -13.5t125 -45 t98 -94t36.5 -150.5v-435q0 -39 1 -60t7.5 -52t17.5 -47.5t33.5 -28.5t55.5 -12q45 0 92 41l39 -54q-82 -80 -211 -79q-174 0 -229 157q-102 -86 -187.5 -121.5t-187.5 -35.5q-137 0 -226 71.5t-89 182.5zM281 256q0 -74 52 -125t126 -51q143 0 303 151v279 q-231 -20 -356 -86t-125 -168zM395 1200l195 139q92 70 155 70q31 0 51.5 -21.5t20.5 -54.5q0 -76 -127 -102l-284 -60z" />
<glyph unicode="&#xe2;" horiz-adv-x="1187" d="M72 236q0 59 26.5 108t72.5 82t105.5 59.5t124 41t131 26.5t125 17t105.5 12v163q0 84 -64.5 134.5t-173.5 50.5q-86 0 -146.5 -31t-60.5 -76l2 -57q0 -43 -30.5 -73.5t-73.5 -30.5q-41 0 -69.5 26.5t-28.5 63.5q0 76 70.5 137t172 92t203.5 31q70 0 133.5 -13.5t125 -45 t98 -94t36.5 -150.5v-435q0 -39 1 -60t7.5 -52t17.5 -47.5t33.5 -28.5t55.5 -12q45 0 92 41l39 -54q-82 -80 -211 -79q-174 0 -229 157q-102 -86 -187.5 -121.5t-187.5 -35.5q-137 0 -226 71.5t-89 182.5zM272 1221l291 190l291 -190l-29 -52l-262 93l-264 -93zM281 256 q0 -74 52 -125t126 -51q143 0 303 151v279q-231 -20 -356 -86t-125 -168z" />
<glyph unicode="&#xe3;" horiz-adv-x="1187" d="M72 236q0 59 26.5 108t72.5 82t105.5 59.5t124 41t131 26.5t125 17t105.5 12v163q0 84 -64.5 134.5t-173.5 50.5q-86 0 -146.5 -31t-60.5 -76l2 -57q0 -43 -30.5 -73.5t-73.5 -30.5q-41 0 -69.5 26.5t-28.5 63.5q0 76 70.5 137t172 92t203.5 31q70 0 133.5 -13.5t125 -45 t98 -94t36.5 -150.5v-435q0 -39 1 -60t7.5 -52t17.5 -47.5t33.5 -28.5t55.5 -12q45 0 92 41l39 -54q-82 -80 -211 -79q-174 0 -229 157q-102 -86 -187.5 -121.5t-187.5 -35.5q-137 0 -226 71.5t-89 182.5zM252 1239q20 63 68.5 101t107.5 38t195 -37q63 -18 100 -18 q63 0 98 45l60 -18q-23 -78 -67 -113t-118 -35q-66 0 -194 37q-80 20 -111 21q-45 0 -80 -41zM281 256q0 -74 52 -125t126 -51q143 0 303 151v279q-231 -20 -356 -86t-125 -168z" />
<glyph unicode="&#xe4;" horiz-adv-x="1187" d="M72 236q0 59 26.5 108t72.5 82t105.5 59.5t124 41t131 26.5t125 17t105.5 12v163q0 84 -64.5 134.5t-173.5 50.5q-86 0 -146.5 -31t-60.5 -76l2 -57q0 -43 -30.5 -73.5t-73.5 -30.5q-41 0 -69.5 26.5t-28.5 63.5q0 76 70.5 137t172 92t203.5 31q70 0 133.5 -13.5t125 -45 t98 -94t36.5 -150.5v-435q0 -39 1 -60t7.5 -52t17.5 -47.5t33.5 -28.5t55.5 -12q45 0 92 41l39 -54q-82 -80 -211 -79q-174 0 -229 157q-102 -86 -187.5 -121.5t-187.5 -35.5q-137 0 -226 71.5t-89 182.5zM272 1290q0 51 36 86t87 35q47 0 83 -36t36 -85t-36 -85t-85 -36 t-85 36t-36 85zM281 256q0 -74 52 -125t126 -51q143 0 303 151v279q-231 -20 -356 -86t-125 -168zM606 1290q0 51 36 86t87 35q47 0 83 -36t36 -85t-36 -85t-85 -36t-85 36t-36 85z" />
<glyph unicode="&#xe5;" horiz-adv-x="1187" d="M72 236q0 59 26.5 108t72.5 82t105.5 59.5t124 41t131 26.5t125 17t105.5 12v163q0 84 -64.5 134.5t-173.5 50.5q-86 0 -146.5 -31t-60.5 -76l2 -57q0 -43 -30.5 -73.5t-73.5 -30.5q-41 0 -69.5 26.5t-28.5 63.5q0 76 70.5 137t172 92t203.5 31q70 0 133.5 -13.5t125 -45 t98 -94t36.5 -150.5v-435q0 -39 1 -60t7.5 -52t17.5 -47.5t33.5 -28.5t55.5 -12q45 0 92 41l39 -54q-82 -80 -211 -79q-174 0 -229 157q-102 -86 -187.5 -121.5t-187.5 -35.5q-137 0 -226 71.5t-89 182.5zM281 256q0 -74 52 -125t126 -51q143 0 303 151v279 q-231 -20 -356 -86t-125 -168zM375 1292q0 78 56 133.5t134 55.5q76 0 131.5 -55.5t55.5 -133.5t-55.5 -134t-133.5 -56t-133 56t-55 134zM451 1292q0 -47 32.5 -80.5t79.5 -33.5t80 33.5t33 80.5q0 45 -33 79t-78 34q-47 0 -80.5 -33t-33.5 -80z" />
<glyph unicode="&#xe6;" horiz-adv-x="1761" d="M72 233q0 61 28.5 118t98 114t213 91t346.5 34v145q0 92 -58.5 143.5t-162.5 51.5q-96 0 -154.5 -35t-58.5 -92v-33q0 -49 -29 -78.5t-78 -29.5q-39 0 -65.5 25.5t-26.5 62.5q0 106 129 184t305 78q236 0 346 -138q166 137 355 138q66 0 135 -20.5t142 -65.5t120 -136.5 t47 -214.5v-45h-739q16 -467 346 -467q201 0 323 205l66 -35q-158 -252 -432 -251q-279 0 -439 251q-74 -133 -173 -192t-253 -59q-150 0 -240.5 69t-90.5 182zM260 262q0 -80 60.5 -134t148.5 -54q92 0 168 54t102 138q16 51 19 209v55q-498 -37 -498 -268zM967 598h534v29 q0 139 -68.5 221t-185.5 82q-43 0 -81 -10.5t-64.5 -29t-48 -40t-34.5 -49.5l-24 -52q-10 -24 -15 -51.5t-7 -45.5l-4 -36z" />
<glyph unicode="&#xe7;" horiz-adv-x="1064" d="M76 496q0 61 13 124.5t48 135t89.5 127t144.5 92.5t204 37q195 0 306.5 -91.5t111.5 -189.5q0 -47 -29.5 -80t-74.5 -33t-75 30t-30 75l2 72q0 53 -61 94t-141 41q-113 0 -183.5 -73t-93 -165t-22.5 -205q0 -190 97 -307t255 -117q94 0 165.5 43.5t158.5 151.5l59 -37 q-156 -240 -436 -239l-21 -70q20 4 49 4q82 0 141.5 -50t59.5 -122q0 -78 -62.5 -136.5t-146.5 -58.5q-80 0 -139 34t-59 81q0 20 14 35.5t37 15.5q45 0 63 -49q14 -33 30.5 -42t49.5 -9q39 0 66.5 36t27.5 85q0 53 -31.5 83.5t-91.5 30.5q-35 0 -96 -20l45 154 q-201 20 -322.5 159.5t-121.5 352.5z" />
<glyph unicode="&#xe8;" horiz-adv-x="1064" d="M76 506q0 221 136 363.5t347 142.5q66 0 135.5 -19.5t143 -63.5t121 -132t47.5 -205h-711q0 -248 77 -383t271 -135q188 0 295 196l68 -32q-150 -256 -424 -256q-129 0 -230.5 49t-159 128t-87 168t-29.5 179zM301 674h492v6q2 37 -12.5 89t-74 106.5t-155.5 54.5 q-119 0 -174.5 -68.5t-75.5 -187.5zM305 1333q0 33 20.5 54.5t51.5 21.5q63 0 155 -70l195 -139l-10 -29l-285 60q-127 26 -127 102z" />
<glyph unicode="&#xe9;" horiz-adv-x="1064" d="M76 506q0 221 136 363.5t347 142.5q66 0 135.5 -19.5t143 -63.5t121 -132t47.5 -205h-711q0 -248 77 -383t271 -135q188 0 295 196l68 -32q-150 -256 -424 -256q-129 0 -230.5 49t-159 128t-87 168t-29.5 179zM301 674h492v6q2 37 -12.5 89t-74 106.5t-155.5 54.5 q-119 0 -174.5 -68.5t-75.5 -187.5zM391 1200l195 139q92 70 155 70q31 0 51.5 -21.5t20.5 -54.5q0 -76 -127 -102l-285 -60z" />
<glyph unicode="&#xea;" horiz-adv-x="1064" d="M76 506q0 221 136 363.5t347 142.5q66 0 135.5 -19.5t143 -63.5t121 -132t47.5 -205h-711q0 -248 77 -383t271 -135q188 0 295 196l68 -32q-150 -256 -424 -256q-129 0 -230.5 49t-159 128t-87 168t-29.5 179zM268 1221l291 190l291 -190l-29 -52l-262 93l-264 -93z M301 674h492v6q2 37 -12.5 89t-74 106.5t-155.5 54.5q-119 0 -174.5 -68.5t-75.5 -187.5z" />
<glyph unicode="&#xeb;" horiz-adv-x="1064" d="M76 506q0 221 136 363.5t347 142.5q66 0 135.5 -19.5t143 -63.5t121 -132t47.5 -205h-711q0 -248 77 -383t271 -135q188 0 295 196l68 -32q-150 -256 -424 -256q-129 0 -230.5 49t-159 128t-87 168t-29.5 179zM268 1290q0 51 36 86t87 35q47 0 83 -36t36 -85t-36 -85 t-85 -36t-85 36t-36 85zM301 674h492v6q2 37 -12.5 89t-74 106.5t-155.5 54.5q-119 0 -174.5 -68.5t-75.5 -187.5zM602 1290q0 51 36 86t87 35q47 0 83 -36t36 -85t-36 -85t-85 -36t-85 36t-36 85z" />
<glyph unicode="&#xec;" horiz-adv-x="614" d="M41 0v61l51 5q68 8 97.5 47t29.5 123v481q0 92 -27.5 127t-107.5 43l-41 4v61q127 10 301 41h70v-757q0 -84 28.5 -123t98.5 -47l49 -5v-61h-549zM63 1333q0 33 20.5 54.5t51.5 21.5q63 0 156 -70l194 -139l-10 -29l-285 60q-127 26 -127 102z" />
<glyph unicode="&#xed;" horiz-adv-x="614" d="M41 0v61l51 5q68 8 97.5 47t29.5 123v481q0 92 -27.5 127t-107.5 43l-41 4v61q127 10 301 41h70v-757q0 -84 28.5 -123t98.5 -47l49 -5v-61h-549zM150 1200l194 139q92 70 156 70q31 0 51 -21.5t20 -54.5q0 -76 -127 -102l-284 -60z" />
<glyph unicode="&#xee;" horiz-adv-x="614" d="M27 1221l290 190l291 -190l-28 -52l-263 93l-264 -93zM41 0v61l51 5q68 8 97.5 47t29.5 123v481q0 92 -27.5 127t-107.5 43l-41 4v61q127 10 301 41h70v-757q0 -84 28.5 -123t98.5 -47l49 -5v-61h-549z" />
<glyph unicode="&#xef;" horiz-adv-x="614" d="M27 1290q0 51 35.5 86t87.5 35q47 0 82.5 -36t35.5 -85t-35.5 -85t-85 -36t-85 36t-35.5 85zM41 0v61l51 5q68 8 97.5 47t29.5 123v481q0 92 -27.5 127t-107.5 43l-41 4v61q127 10 301 41h70v-757q0 -84 28.5 -123t98.5 -47l49 -5v-61h-549zM360 1290q0 51 36 86t87 35 q47 0 83 -36t36 -85t-36 -85t-85 -36t-85 36t-36 85z" />
<glyph unicode="&#xf0;" horiz-adv-x="1146" d="M76 493.5q0 231.5 139 376t363 144.5q92 0 163 -33q-109 197 -315 305l-233 -156l-43 68l186 127q-68 20 -232 55l48 86q166 -27 284 -61l228 149l45 -65l-179 -119q266 -109 406.5 -329t140.5 -525q0 -248 -134 -391t-365 -143q-227 0 -364.5 140t-137.5 371.5zM285 498 q0 -207 77.5 -321t219.5 -114q135 0 210.5 111t75.5 305q0 211 -77.5 332t-215.5 121q-133 0 -211.5 -117.5t-78.5 -316.5z" />
<glyph unicode="&#xf1;" horiz-adv-x="1351" d="M41 891v61q156 10 309 41h70v-162q109 96 207 138.5t215 42.5q145 0 227 -72t82 -199v-505q0 -84 29.5 -123t97.5 -47l51 -5v-61h-551v61l51 5q68 8 97.5 47t29.5 123v473q0 205 -174 204q-172 0 -362 -172v-505q0 -84 29.5 -123t97.5 -47l51 -5v-61h-551v61l51 5 q68 8 97.5 47t29.5 123v481q0 92 -28.5 128t-106.5 42zM377 1239q20 63 68.5 101t107.5 38t195 -37q63 -18 100 -18q63 0 98 45l60 -18q-23 -78 -67 -113t-118 -35q-66 0 -194 37q-80 20 -111 21q-45 0 -80 -41z" />
<glyph unicode="&#xf2;" horiz-adv-x="1146" d="M76 494q0 61 12 124.5t48 136t89.5 128t143.5 92.5t202 37q117 0 208 -37t145.5 -92.5t90.5 -128t49 -138t13 -127.5q0 -227 -137 -367t-360 -140q-229 0 -366.5 140.5t-137.5 371.5zM285 498q0 -207 77.5 -321t219.5 -114q135 0 210.5 111t75.5 305q0 211 -78.5 331 t-216.5 120q-131 0 -209.5 -117.5t-78.5 -314.5zM317 1333q0 33 20.5 54.5t51.5 21.5q63 0 156 -70l194 -139l-10 -29l-285 60q-127 26 -127 102z" />
<glyph unicode="&#xf3;" horiz-adv-x="1146" d="M76 494q0 61 12 124.5t48 136t89.5 128t143.5 92.5t202 37q117 0 208 -37t145.5 -92.5t90.5 -128t49 -138t13 -127.5q0 -227 -137 -367t-360 -140q-229 0 -366.5 140.5t-137.5 371.5zM285 498q0 -207 77.5 -321t219.5 -114q135 0 210.5 111t75.5 305q0 211 -78.5 331 t-216.5 120q-131 0 -209.5 -117.5t-78.5 -314.5zM403 1200l195 139q92 70 156 70q31 0 51 -21.5t20 -54.5q0 -76 -127 -102l-284 -60z" />
<glyph unicode="&#xf4;" horiz-adv-x="1146" d="M76 494q0 61 12 124.5t48 136t89.5 128t143.5 92.5t202 37q117 0 208 -37t145.5 -92.5t90.5 -128t49 -138t13 -127.5q0 -227 -137 -367t-360 -140q-229 0 -366.5 140.5t-137.5 371.5zM281 1221l290 190l291 -190l-28 -52l-263 93l-264 -93zM285 498q0 -207 77.5 -321 t219.5 -114q135 0 210.5 111t75.5 305q0 211 -78.5 331t-216.5 120q-131 0 -209.5 -117.5t-78.5 -314.5z" />
<glyph unicode="&#xf5;" horiz-adv-x="1146" d="M76 494q0 61 12 124.5t48 136t89.5 128t143.5 92.5t202 37q117 0 208 -37t145.5 -92.5t90.5 -128t49 -138t13 -127.5q0 -227 -137 -367t-360 -140q-229 0 -366.5 140.5t-137.5 371.5zM260 1239q20 63 68.5 101t108 38t194.5 -37q63 -18 100 -18q63 0 98 45l60 -18 q-23 -78 -67 -113t-117 -35q-66 0 -195 37q-80 20 -111 21q-45 0 -80 -41zM285 498q0 -207 77.5 -321t219.5 -114q135 0 210.5 111t75.5 305q0 211 -78.5 331t-216.5 120q-131 0 -209.5 -117.5t-78.5 -314.5z" />
<glyph unicode="&#xf6;" horiz-adv-x="1146" d="M76 494q0 61 12 124.5t48 136t89.5 128t143.5 92.5t202 37q117 0 208 -37t145.5 -92.5t90.5 -128t49 -138t13 -127.5q0 -227 -137 -367t-360 -140q-229 0 -366.5 140.5t-137.5 371.5zM281 1290q0 51 35.5 86t86.5 35q47 0 83 -36t36 -85t-35.5 -85t-85 -36t-85 36 t-35.5 85zM285 498q0 -207 77.5 -321t219.5 -114q135 0 210.5 111t75.5 305q0 211 -78.5 331t-216.5 120q-131 0 -209.5 -117.5t-78.5 -314.5zM614 1290q0 51 36 86t87 35q47 0 83 -36t36 -85t-36 -85t-85 -36t-85 36t-36 85z" />
<glyph unicode="&#xf7;" horiz-adv-x="1228" d="M82 432v160h1065v-160h-1065zM483 164q0 53 39 92t92.5 39t92 -39t38.5 -92q0 -55 -38.5 -93t-92 -38t-92.5 38t-39 93zM483 860q0 55 39 93t92.5 38t92 -38t38.5 -93q0 -53 -38.5 -92t-92 -39t-92.5 39t-39 92z" />
<glyph unicode="&#xf8;" horiz-adv-x="1146" d="M76 483q0 240 135 384.5t360 144.5q150 0 242 -51l92 151h96l-116 -192q90 -68 141 -181.5t51 -244.5q0 -229 -136 -370.5t-359 -141.5q-147 0 -240 51l-72 -119h-102l100 162q-192 145 -192 407zM285 489q0 -166 61 -284l404 655q-68 70 -168 70q-139 0 -218 -118 t-79 -323zM403 131q72 -68 183 -68q133 0 207.5 111t74.5 309q0 197 -63 308z" />
<glyph unicode="&#xf9;" horiz-adv-x="1392" d="M41 891v61q184 12 309 41h70v-688q0 -117 45 -171t141 -54q154 0 359 180v457q0 92 -29 128t-107 42l-49 4v61q197 14 310 41h69v-757q0 -84 30 -123t97 -47l51 -5v-61h-372v172q-131 -106 -227.5 -148t-207.5 -42q-131 0 -218 69.5t-87 237.5v428q0 92 -28.5 128 t-106.5 42zM438 1333q0 33 20.5 54.5t51.5 21.5q63 0 156 -70l194 -139l-10 -29l-285 60q-127 26 -127 102z" />
<glyph unicode="&#xfa;" horiz-adv-x="1392" d="M41 891v61q184 12 309 41h70v-688q0 -117 45 -171t141 -54q154 0 359 180v457q0 92 -29 128t-107 42l-49 4v61q197 14 310 41h69v-757q0 -84 30 -123t97 -47l51 -5v-61h-372v172q-131 -106 -227.5 -148t-207.5 -42q-131 0 -218 69.5t-87 237.5v428q0 92 -28.5 128 t-106.5 42zM524 1200l195 139q92 70 155 70q31 0 51.5 -21.5t20.5 -54.5q0 -76 -127 -102l-284 -60z" />
<glyph unicode="&#xfb;" horiz-adv-x="1392" d="M41 891v61q184 12 309 41h70v-688q0 -117 45 -171t141 -54q154 0 359 180v457q0 92 -29 128t-107 42l-49 4v61q197 14 310 41h69v-757q0 -84 30 -123t97 -47l51 -5v-61h-372v172q-131 -106 -227.5 -148t-207.5 -42q-131 0 -218 69.5t-87 237.5v428q0 92 -28.5 128 t-106.5 42zM401 1221l291 190l291 -190l-29 -52l-262 93l-264 -93z" />
<glyph unicode="&#xfc;" horiz-adv-x="1392" d="M41 891v61q184 12 309 41h70v-688q0 -117 45 -171t141 -54q154 0 359 180v457q0 92 -29 128t-107 42l-49 4v61q197 14 310 41h69v-757q0 -84 30 -123t97 -47l51 -5v-61h-372v172q-131 -106 -227.5 -148t-207.5 -42q-131 0 -218 69.5t-87 237.5v428q0 92 -28.5 128 t-106.5 42zM401 1290q0 51 36 86t87 35q47 0 83 -36t36 -85t-36 -85t-85 -36t-85 36t-36 85zM735 1290q0 51 36 86t87 35q47 0 83 -36t36 -85t-36 -85t-85 -36t-85 36t-36 85z" />
<glyph unicode="&#xfd;" horiz-adv-x="1105" d="M-47 930v63h477v-61q-143 -16 -102 -117l256 -622l190 483q31 78 39 125t-10.5 72.5t-45 37t-83.5 21.5v61h450v-63q-82 -20 -127 -60.5t-82 -126.5l-354 -831l-36 -87q-13 -32 -54 -101.5t-79 -109.5t-99.5 -74t-128.5 -34q-82 0 -137.5 40t-55.5 100q0 41 32 70.5 t77 29.5q31 0 52.5 -13.5t60.5 -54.5q39 -39 67 -38q41 0 90 52t82 134l51 119l-366 856q-29 72 -58.5 95.5t-105.5 33.5zM385 1200l195 139q92 70 155 70q31 0 51.5 -21.5t20.5 -54.5q0 -76 -127 -102l-285 -60z" />
<glyph unicode="&#xfe;" d="M41 -406l51 5q68 6 97.5 46t29.5 124v1423q0 92 -27.5 127t-107.5 43l-43 4v61q158 14 303 41h70v-610q135 154 334 154q205 0 325.5 -151.5t120.5 -358.5q0 -221 -131 -370.5t-326 -149.5q-186 0 -323 104v-317q0 -84 29.5 -124t97.5 -46l51 -5v-61h-551v61zM414 186 q119 -113 272 -112q129 0 214 113.5t85 287.5q0 201 -83 319.5t-220 118.5q-80 0 -140.5 -35.5t-127.5 -121.5v-570z" />
<glyph unicode="&#xff;" horiz-adv-x="1105" d="M-47 930v63h477v-61q-143 -16 -102 -117l256 -622l190 483q31 78 39 125t-10.5 72.5t-45 37t-83.5 21.5v61h450v-63q-82 -20 -127 -60.5t-82 -126.5l-354 -831l-36 -87q-13 -32 -54 -101.5t-79 -109.5t-99.5 -74t-128.5 -34q-82 0 -137.5 40t-55.5 100q0 41 32 70.5 t77 29.5q31 0 52.5 -13.5t60.5 -54.5q39 -39 67 -38q41 0 90 52t82 134l51 119l-366 856q-29 72 -58.5 95.5t-105.5 33.5zM262 1290q0 51 36 86t87 35q47 0 83 -36t36 -85t-36 -85t-85 -36t-85 36t-36 85zM596 1290q0 51 36 86t87 35q47 0 83 -36t36 -85t-36 -85t-85 -36 t-85 36t-36 85z" />
<glyph unicode="&#x100;" horiz-adv-x="1392" d="M-76 0v63l23 5q102 20 153.5 89.5t153.5 334.5l352 903h191l434 -1098q55 -141 93 -179t138 -55v-63h-575v63q125 18 150.5 57.5t-11.5 133.5l-102 264h-529l-65 -176q-25 -63 -34 -105t1 -79t45 -62q29 -18 131 -33v-63h-549zM391 1579v102h606v-102h-606zM426 606h461 l-234 615z" />
<glyph unicode="&#x101;" horiz-adv-x="1187" d="M72 236q0 59 26.5 108t72.5 82t105.5 59.5t124 41t131 26.5t125 17t105.5 12v163q0 84 -64.5 134.5t-173.5 50.5q-86 0 -146.5 -31t-60.5 -76l2 -57q0 -43 -30.5 -73.5t-73.5 -30.5q-41 0 -69.5 26.5t-28.5 63.5q0 76 70.5 137t172 92t203.5 31q70 0 133.5 -13.5t125 -45 t98 -94t36.5 -150.5v-435q0 -39 1 -60t7.5 -52t17.5 -47.5t33.5 -28.5t55.5 -12q45 0 92 41l39 -54q-82 -80 -211 -79q-174 0 -229 157q-102 -86 -187.5 -121.5t-187.5 -35.5q-137 0 -226 71.5t-89 182.5zM252 1239v102h606v-102h-606zM281 256q0 -74 52 -125t126 -51 q143 0 303 151v279q-231 -20 -356 -86t-125 -168z" />
<glyph unicode="&#x102;" horiz-adv-x="1392" d="M-76 0v63l23 5q102 20 153.5 89.5t153.5 334.5l352 903h191l434 -1098q55 -141 93 -179t138 -55v-63h-575v63q125 18 150.5 57.5t-11.5 133.5l-102 264h-529l-65 -176q-25 -63 -34 -105t1 -79t45 -62q29 -18 131 -33v-63h-549zM334 1708l51 33q143 -96 322 -96 q186 0 313 96l53 -33q-53 -84 -154.5 -135t-218.5 -51q-260 0 -366 186zM426 606h461l-234 615z" />
<glyph unicode="&#x103;" horiz-adv-x="1187" d="M72 236q0 59 26.5 108t72.5 82t105.5 59.5t124 41t131 26.5t125 17t105.5 12v163q0 84 -64.5 134.5t-173.5 50.5q-86 0 -146.5 -31t-60.5 -76l2 -57q0 -43 -30.5 -73.5t-73.5 -30.5q-41 0 -69.5 26.5t-28.5 63.5q0 76 70.5 137t172 92t203.5 31q70 0 133.5 -13.5t125 -45 t98 -94t36.5 -150.5v-435q0 -39 1 -60t7.5 -52t17.5 -47.5t33.5 -28.5t55.5 -12q45 0 92 41l39 -54q-82 -80 -211 -79q-174 0 -229 157q-102 -86 -187.5 -121.5t-187.5 -35.5q-137 0 -226 71.5t-89 182.5zM231 1376l48 37q131 -106 290 -106q76 0 155 29.5t132 76.5l47 -37 q-47 -94 -139 -150.5t-199 -56.5q-113 0 -200 54.5t-134 152.5zM281 256q0 -74 52 -125t126 -51q143 0 303 151v279q-231 -20 -356 -86t-125 -168z" />
<glyph unicode="&#x104;" horiz-adv-x="1392" d="M-76 0v63l23 5q102 20 153.5 89.5t153.5 334.5l352 903h191l434 -1098q55 -141 93 -179t138 -55v-63h-114q-90 0 -150.5 -68.5t-60.5 -164.5q0 -55 32.5 -98.5t85.5 -43.5q39 0 85 18.5t71 47.5l51 -39q-37 -61 -105.5 -102.5t-137.5 -41.5q-98 0 -171 62.5t-73 153.5 q0 141 168 276h-256v63q125 18 150.5 57.5t-11.5 133.5l-102 264h-529l-65 -176q-25 -63 -34 -105t1 -79t45 -62q29 -18 131 -33v-63h-549zM426 606h461l-234 615z" />
<glyph unicode="&#x105;" horiz-adv-x="1187" d="M72 236q0 59 26.5 108t72.5 82t105.5 59.5t124 41t131 26.5t125 17t105.5 12v163q0 84 -64.5 134.5t-173.5 50.5q-86 0 -146.5 -31t-60.5 -76l2 -57q0 -43 -30.5 -73.5t-73.5 -30.5q-41 0 -69.5 26.5t-28.5 63.5q0 76 70.5 137t172 92t203.5 31q70 0 133.5 -13.5t125 -45 t98 -94t36.5 -150.5v-435q0 -39 1 -60t7.5 -52t17.5 -47.5t33.5 -28.5t55.5 -12q45 0 92 41l39 -54q-63 -59 -149 -75q-78 -12 -127 -75t-49 -144q0 -55 32.5 -98.5t85.5 -43.5q39 0 85 18.5t71 47.5l51 -39q-37 -61 -105.5 -102.5t-138.5 -41.5q-98 0 -170.5 62.5 t-72.5 153.5q0 137 168 276q-84 33 -121 139q-102 -86 -187.5 -121.5t-187.5 -35.5q-137 0 -226 71.5t-89 182.5zM281 256q0 -74 52 -125t126 -51q143 0 303 151v279q-231 -20 -356 -86t-125 -168z" />
<glyph unicode="&#x106;" horiz-adv-x="1515" d="M90 690q0 172 66.5 316.5t169 231.5t217 135t221.5 48q250 0 422 -131l43 86h67l99 -493h-66q-37 76 -56.5 111.5l-57 99t-72.5 95.5t-86 67.5t-114.5 51t-139.5 15.5q-203 0 -337 -179t-134 -452q0 -164 50 -290t130 -194.5t165 -102t167 -33.5q45 0 96 11t123 40 t147.5 93.5t139.5 158.5l88 -49q-227 -352 -625 -353q-309 0 -516 205t-207 512zM641 1548l215 125q106 63 170 64q35 0 57.5 -19.5t22.5 -48.5q0 -68 -141 -92l-314 -53z" />
<glyph unicode="&#x107;" horiz-adv-x="1064" d="M76 496q0 61 13 124.5t48 135t89.5 127t144.5 92.5t204 37q195 0 306.5 -91.5t111.5 -189.5q0 -47 -29.5 -80t-74.5 -33t-75 30t-30 75l2 72q0 53 -61 94t-141 41q-113 0 -183.5 -73t-93 -165t-22.5 -205q0 -190 97 -307t255 -117q94 0 165.5 43.5t158.5 151.5l59 -37 q-154 -240 -440 -239q-225 0 -364.5 142.5t-139.5 371.5zM408 1200l194 139q92 70 156 70q31 0 51 -21.5t20 -54.5q0 -76 -127 -102l-284 -60z" />
<glyph unicode="&#x108;" horiz-adv-x="1515" d="M90 690q0 172 66.5 316.5t169 231.5t217 135t221.5 48q250 0 422 -131l43 86h67l99 -493h-66q-37 76 -56.5 111.5l-57 99t-72.5 95.5t-86 67.5t-114.5 51t-139.5 15.5q-203 0 -337 -179t-134 -452q0 -164 50 -290t130 -194.5t165 -102t167 -33.5q45 0 96 11t123 40 t147.5 93.5t139.5 158.5l88 -49q-227 -352 -625 -353q-309 0 -516 205t-207 512zM483 1567l320 172l319 -172l-30 -45l-289 82l-291 -82z" />
<glyph unicode="&#x109;" horiz-adv-x="1064" d="M76 496q0 61 13 124.5t48 135t89.5 127t144.5 92.5t204 37q195 0 306.5 -91.5t111.5 -189.5q0 -47 -29.5 -80t-74.5 -33t-75 30t-30 75l2 72q0 53 -61 94t-141 41q-113 0 -183.5 -73t-93 -165t-22.5 -205q0 -190 97 -307t255 -117q94 0 165.5 43.5t158.5 151.5l59 -37 q-154 -240 -440 -239q-225 0 -364.5 142.5t-139.5 371.5zM285 1221l290 190l291 -190l-28 -52l-263 93l-264 -93z" />
<glyph unicode="&#x10a;" horiz-adv-x="1515" d="M90 690q0 172 66.5 316.5t169 231.5t217 135t221.5 48q250 0 422 -131l43 86h67l99 -493h-66q-37 76 -56.5 111.5l-57 99t-72.5 95.5t-86 67.5t-114.5 51t-139.5 15.5q-203 0 -337 -179t-134 -452q0 -164 50 -290t130 -194.5t165 -102t167 -33.5q45 0 96 11t123 40 t147.5 93.5t139.5 158.5l88 -49q-227 -352 -625 -353q-309 0 -516 205t-207 512zM676 1630q0 51 36 86t87 35q47 0 83 -36t36 -85t-36 -85t-85 -36t-85 36t-36 85z" />
<glyph unicode="&#x10b;" horiz-adv-x="1064" d="M76 496q0 61 13 124.5t48 135t89.5 127t144.5 92.5t204 37q195 0 306.5 -91.5t111.5 -189.5q0 -47 -29.5 -80t-74.5 -33t-75 30t-30 75l2 72q0 53 -61 94t-141 41q-113 0 -183.5 -73t-93 -165t-22.5 -205q0 -190 97 -307t255 -117q94 0 165.5 43.5t158.5 151.5l59 -37 q-154 -240 -440 -239q-225 0 -364.5 142.5t-139.5 371.5zM449 1290q0 51 35.5 86t86.5 35q47 0 83 -36t36 -85t-36 -85t-85 -36t-84.5 36t-35.5 85z" />
<glyph unicode="&#x10c;" horiz-adv-x="1515" d="M90 690q0 172 66.5 316.5t169 231.5t217 135t221.5 48q250 0 422 -131l43 86h67l99 -493h-66q-37 76 -56.5 111.5l-57 99t-72.5 95.5t-86 67.5t-114.5 51t-139.5 15.5q-203 0 -337 -179t-134 -452q0 -164 50 -290t130 -194.5t165 -102t167 -33.5q45 0 96 11t123 40 t147.5 93.5t139.5 158.5l88 -49q-227 -352 -625 -353q-309 0 -516 205t-207 512zM483 1694l31 45l289 -82l291 82l28 -45l-319 -172z" />
<glyph unicode="&#x10d;" horiz-adv-x="1064" d="M76 496q0 61 13 124.5t48 135t89.5 127t144.5 92.5t204 37q195 0 306.5 -91.5t111.5 -189.5q0 -47 -29.5 -80t-74.5 -33t-75 30t-30 75l2 72q0 53 -61 94t-141 41q-113 0 -183.5 -73t-93 -165t-22.5 -205q0 -190 97 -307t255 -117q94 0 165.5 43.5t158.5 151.5l59 -37 q-154 -240 -440 -239q-225 0 -364.5 142.5t-139.5 371.5zM285 1360l26 51l264 -94l263 94l28 -51l-291 -191z" />
<glyph unicode="&#x10e;" horiz-adv-x="1638" d="M63 0v63l52 7q80 10 106.5 55t26.5 170v805q0 125 -26.5 170t-106.5 55l-52 6v64h625q215 0 376 -50.5t249 -123t142 -174t69.5 -185.5t15.5 -176q0 -686 -852 -686h-625zM453 264q0 -53 6 -80.5t28.5 -53.5t72.5 -36t134 -10q172 0 297 57.5t188.5 152.5t91 195.5 t27.5 210.5q0 86 -15 166t-58 163t-108.5 143.5t-173 99.5t-247.5 39q-41 0 -74.5 -3t-58 -8.5t-43 -13.5t-30 -18.5t-19.5 -22.5t-11 -26.5t-5 -29.5t-2 -32v-35v-858zM471 1694l31 45l289 -82l290 82l29 -45l-319 -172z" />
<glyph unicode="&#x10f;" d="M76 494q0 221 129 369.5t321 148.5q182 0 340 -109v199q0 137 -24.5 179t-108.5 50l-43 4v64q162 18 289 69h82v-1232q0 -82 26.5 -118t98.5 -52l24 -5v-61h-344v137q-145 -156 -354 -155q-205 0 -320.5 154.5t-115.5 357.5zM285 498q0 -68 13 -134.5t43 -134t89 -108.5 t141 -41q162 0 295 162v555q-82 70 -143 96.5t-135 26.5q-90 0 -153.5 -44.5t-94.5 -114t-43 -133.5t-12 -130zM1143 1343.5q0 51.5 38 88t89 36.5q59 0 101 -49t42 -119q0 -88 -53 -160.5t-148 -117.5l-22 45q119 76 127 188q-37 -29 -64 -28q-49 0 -79.5 32.5t-30.5 84z " />
<glyph unicode="&#x110;" horiz-adv-x="1638" d="M63 0v63l52 7q82 10 107.5 54t25.5 171v401h-185v97h185v305q0 127 -26.5 172t-106.5 55l-52 6v64h625q215 0 376 -50.5t249 -123t142 -174t69.5 -185.5t15.5 -176q0 -686 -852 -686h-625zM453 266q0 -53 6 -80.5t28.5 -54.5t72.5 -37t134 -10q139 0 248 39t174.5 100.5 t108.5 145.5t58 164.5t15 166.5q0 109 -27.5 207.5t-91 193.5t-187.5 152.5t-296 57.5q-61 0 -105 -5.5t-70.5 -21.5t-41 -26.5t-19.5 -41t-6 -42t-1 -52.5v-329h409v-97h-409v-430z" />
<glyph unicode="&#x111;" d="M76 494q0 221 129 369.5t321 148.5q182 0 340 -109v193h-262v96h260q-4 70 -32.5 100.5t-98.5 38.5l-43 4v64q162 18 289 69h82v-276h149v-96h-149v-860q0 -82 26.5 -118t98.5 -52l24 -5v-61h-344v137q-70 -76 -149 -110q-106 -45 -205 -45q-96 0 -183 42t-141 113 q-112 150 -112 357zM285 498q0 -152 55 -269q33 -70 93.5 -109.5t137.5 -39.5q162 0 295 162v555q-82 70 -143 96.5t-135 26.5q-178 0 -250 -160q-53 -121 -53 -262z" />
<glyph unicode="&#x112;" horiz-adv-x="1474" d="M63 0v63l52 7q80 10 106.5 55t26.5 170v805q0 125 -26.5 170t-106.5 55l-52 6v64h1170l141 -369l-65 -27q-141 172 -277.5 240t-345.5 68q-135 0 -184 -36t-49 -134v-349h155q131 0 179.5 50.5t68.5 210.5h70v-613h-70q-14 143 -72.5 203.5t-179.5 60.5h-151v-432 q0 -100 46 -140t185 -40q229 0 378.5 81t317.5 296l64 -29l-187 -436h-1194zM350 1579v102h606v-102h-606z" />
<glyph unicode="&#x113;" horiz-adv-x="1064" d="M76 506q0 221 136 363.5t347 142.5q66 0 135.5 -19.5t143 -63.5t121 -132t47.5 -205h-711q0 -248 77 -383t271 -135q188 0 295 196l68 -32q-150 -256 -424 -256q-129 0 -230.5 49t-159 128t-87 168t-29.5 179zM248 1239v102h606v-102h-606zM301 674h492v6q2 37 -12.5 89 t-74 106.5t-155.5 54.5q-119 0 -174.5 -68.5t-75.5 -187.5z" />
<glyph unicode="&#x114;" horiz-adv-x="1474" d="M63 0v63l52 7q80 10 106.5 55t26.5 170v805q0 125 -26.5 170t-106.5 55l-52 6v64h1170l141 -369l-65 -27q-141 172 -277.5 240t-345.5 68q-135 0 -184 -36t-49 -134v-349h155q131 0 179.5 50.5t68.5 210.5h70v-613h-70q-14 143 -72.5 203.5t-179.5 60.5h-151v-432 q0 -100 46 -140t185 -40q229 0 378.5 81t317.5 296l64 -29l-187 -436h-1194zM293 1708l51 33q143 -96 322 -96q186 0 313 96l53 -33q-53 -84 -154.5 -135t-218.5 -51q-260 0 -366 186z" />
<glyph unicode="&#x115;" horiz-adv-x="1064" d="M76 506q0 221 136 363.5t347 142.5q66 0 135.5 -19.5t143 -63.5t121 -132t47.5 -205h-711q0 -248 77 -383t271 -135q188 0 295 196l68 -32q-150 -256 -424 -256q-129 0 -230.5 49t-159 128t-87 168t-29.5 179zM227 1376l47 37q131 -106 291 -106q76 0 155 29.5t132 76.5 l47 -37q-47 -94 -139 -150.5t-199 -56.5q-113 0 -200 54.5t-134 152.5zM301 674h492v6q2 37 -12.5 89t-74 106.5t-155.5 54.5q-119 0 -174.5 -68.5t-75.5 -187.5z" />
<glyph unicode="&#x116;" horiz-adv-x="1474" d="M63 0v63l52 7q80 10 106.5 55t26.5 170v805q0 125 -26.5 170t-106.5 55l-52 6v64h1170l141 -369l-65 -27q-141 172 -277.5 240t-345.5 68q-135 0 -184 -36t-49 -134v-349h155q131 0 179.5 50.5t68.5 210.5h70v-613h-70q-14 143 -72.5 203.5t-179.5 60.5h-151v-432 q0 -100 46 -140t185 -40q229 0 378.5 81t317.5 296l64 -29l-187 -436h-1194zM535 1630q0 51 35.5 86t86.5 35q47 0 83 -36t36 -85t-35.5 -85t-85 -36t-85 36t-35.5 85z" />
<glyph unicode="&#x117;" horiz-adv-x="1064" d="M76 506q0 221 136 363.5t347 142.5q66 0 135.5 -19.5t143 -63.5t121 -132t47.5 -205h-711q0 -248 77 -383t271 -135q188 0 295 196l68 -32q-150 -256 -424 -256q-129 0 -230.5 49t-159 128t-87 168t-29.5 179zM301 674h492v6q2 37 -12.5 89t-74 106.5t-155.5 54.5 q-119 0 -174.5 -68.5t-75.5 -187.5zM432 1290q0 51 36 86t87 35q47 0 83 -36t36 -85t-36 -85t-85 -36t-85 36t-36 85z" />
<glyph unicode="&#x118;" horiz-adv-x="1474" d="M63 0v63l52 7q80 10 106.5 55t26.5 170v805q0 125 -26.5 170t-106.5 55l-52 6v64h1170l141 -369l-65 -27q-141 172 -277.5 240t-345.5 68q-135 0 -184 -36t-49 -134v-349h155q131 0 179.5 50.5t68.5 210.5h70v-613h-70q-14 143 -72.5 203.5t-179.5 60.5h-151v-432 q0 -100 46 -140t185 -40q229 0 378.5 81t317.5 296l64 -29l-187 -436h-32q-86 0 -141.5 -69.5t-55.5 -163.5q0 -55 33 -98.5t86 -43.5q39 0 85 18.5t71 47.5l51 -39q-37 -61 -105.5 -102.5t-138.5 -41.5q-98 0 -171 62.5t-73 153.5q0 141 168 276h-971z" />
<glyph unicode="&#x119;" horiz-adv-x="1064" d="M76 506q0 221 136 363.5t347 142.5q66 0 135.5 -19.5t143 -63.5t121 -132t47.5 -205h-711q0 -248 77 -383t271 -135q188 0 295 196l68 -32q-98 -168 -246 -228q-74 -27 -118 -94.5t-44 -148.5q0 -55 33 -98.5t86 -43.5q39 0 85 18.5t70 47.5l52 -39 q-37 -61 -105.5 -102.5t-138.5 -41.5q-98 0 -171 62.5t-73 153.5q0 129 148 258h-2q-129 0 -230.5 49t-159 128t-87 168t-29.5 179zM301 674h492v6q2 37 -12.5 89t-74 106.5t-155.5 54.5q-119 0 -174.5 -68.5t-75.5 -187.5z" />
<glyph unicode="&#x11a;" horiz-adv-x="1474" d="M63 0v63l52 7q80 10 106.5 55t26.5 170v805q0 125 -26.5 170t-106.5 55l-52 6v64h1170l141 -369l-65 -27q-141 172 -277.5 240t-345.5 68q-135 0 -184 -36t-49 -134v-349h155q131 0 179.5 50.5t68.5 210.5h70v-613h-70q-14 143 -72.5 203.5t-179.5 60.5h-151v-432 q0 -100 46 -140t185 -40q229 0 378.5 81t317.5 296l64 -29l-187 -436h-1194zM342 1694l31 45l289 -82l290 82l29 -45l-319 -172z" />
<glyph unicode="&#x11b;" horiz-adv-x="1064" d="M76 506q0 221 136 363.5t347 142.5q66 0 135.5 -19.5t143 -63.5t121 -132t47.5 -205h-711q0 -248 77 -383t271 -135q188 0 295 196l68 -32q-150 -256 -424 -256q-129 0 -230.5 49t-159 128t-87 168t-29.5 179zM268 1360l27 51l264 -94l262 94l29 -51l-291 -191zM301 674 h492v6q2 37 -12.5 89t-74 106.5t-155.5 54.5q-119 0 -174.5 -68.5t-75.5 -187.5z" />
<glyph unicode="&#x11c;" horiz-adv-x="1638" d="M90 702q0 217 102.5 385t257 251t326.5 83q219 0 400 -125l41 99h63l125 -434l-78 -23q-127 178 -215 254q-158 131 -324 131q-205 0 -330.5 -174t-125.5 -461q0 -276 136 -446t357 -170q59 0 123 15t132.5 51t111.5 106.5t43 165t-44 136.5t-157 56v62h559v-64l-37 -6 q-53 -10 -77.5 -24.5t-40 -61.5t-15.5 -139v-369h-96l-65 141q-217 -168 -465 -168q-303 0 -505 209t-202 520zM469 1567l319 172l320 -172l-31 -45l-289 82l-290 -82z" />
<glyph unicode="&#x11d;" horiz-adv-x="1105" d="M35 -244q0 76 50 128.5t165 95.5q-150 53 -150 172q0 139 201 204q-166 115 -166 291q0 152 123 258.5t299 106.5q84 0 193 -41q96 182 249 182q49 0 80 -24.5t31 -63.5q0 -33 -22.5 -55.5t-55.5 -22.5q-29 0 -59.5 19.5t-48.5 19.5q-49 0 -109 -88q170 -115 170 -291 q0 -55 -20.5 -110.5t-66.5 -110.5t-135 -89t-208 -34q-92 0 -193 33q-94 -49 -94 -109q0 -66 133 -84l392 -53q66 -8 106.5 -19.5t94 -37t81 -74.5t27.5 -121q0 -152 -149.5 -242t-397.5 -90q-229 0 -374.5 69.5t-145.5 180.5zM158 -223q0 -86 110.5 -140.5t286.5 -54.5 q215 0 309 59.5t94 131.5q0 59 -49 91t-161 46l-420 51q-170 -63 -170 -184zM266 1221l291 190l291 -190l-29 -52l-262 93l-264 -93zM344 659q0 -291 217 -290q215 0 215 288.5t-209 288.5q-106 0 -164.5 -76t-58.5 -211z" />
<glyph unicode="&#x11e;" horiz-adv-x="1638" d="M90 702q0 217 102.5 385t257 251t326.5 83q219 0 400 -125l41 99h63l125 -434l-78 -23q-127 178 -215 254q-158 131 -324 131q-205 0 -330.5 -174t-125.5 -461q0 -276 136 -446t357 -170q59 0 123 15t132.5 51t111.5 106.5t43 165t-44 136.5t-157 56v62h559v-64l-37 -6 q-53 -10 -77.5 -24.5t-40 -61.5t-15.5 -139v-369h-96l-65 141q-217 -168 -465 -168q-303 0 -505 209t-202 520zM420 1708l51 33q143 -96 322 -96q186 0 313 96l53 -33q-53 -84 -154.5 -135t-218.5 -51q-260 0 -366 186z" />
<glyph unicode="&#x11f;" horiz-adv-x="1105" d="M35 -244q0 76 50 128.5t165 95.5q-150 53 -150 172q0 139 201 204q-166 115 -166 291q0 152 123 258.5t299 106.5q84 0 193 -41q96 182 249 182q49 0 80 -24.5t31 -63.5q0 -33 -22.5 -55.5t-55.5 -22.5q-29 0 -59.5 19.5t-48.5 19.5q-49 0 -109 -88q170 -115 170 -291 q0 -55 -20.5 -110.5t-66.5 -110.5t-135 -89t-208 -34q-92 0 -193 33q-94 -49 -94 -109q0 -66 133 -84l392 -53q66 -8 106.5 -19.5t94 -37t81 -74.5t27.5 -121q0 -152 -149.5 -242t-397.5 -90q-229 0 -374.5 69.5t-145.5 180.5zM158 -223q0 -86 110.5 -140.5t286.5 -54.5 q215 0 309 59.5t94 131.5q0 59 -49 91t-161 46l-420 51q-170 -63 -170 -184zM225 1376l47 37q131 -106 291 -106q76 0 155 29.5t132 76.5l47 -37q-47 -94 -139 -150.5t-199 -56.5q-113 0 -200 54.5t-134 152.5zM344 659q0 -291 217 -290q215 0 215 288.5t-209 288.5 q-106 0 -164.5 -76t-58.5 -211z" />
<glyph unicode="&#x120;" horiz-adv-x="1638" d="M90 702q0 217 102.5 385t257 251t326.5 83q219 0 400 -125l41 99h63l125 -434l-78 -23q-127 178 -215 254q-158 131 -324 131q-205 0 -330.5 -174t-125.5 -461q0 -276 136 -446t357 -170q59 0 123 15t132.5 51t111.5 106.5t43 165t-44 136.5t-157 56v62h559v-64l-37 -6 q-53 -10 -77.5 -24.5t-40 -61.5t-15.5 -139v-369h-96l-65 141q-217 -168 -465 -168q-303 0 -505 209t-202 520zM662 1630q0 51 35.5 86t86.5 35q47 0 83 -36t36 -85t-36 -85t-85 -36t-84.5 36t-35.5 85z" />
<glyph unicode="&#x121;" horiz-adv-x="1105" d="M35 -244q0 76 50 128.5t165 95.5q-150 53 -150 172q0 139 201 204q-166 115 -166 291q0 152 123 258.5t299 106.5q84 0 193 -41q96 182 249 182q49 0 80 -24.5t31 -63.5q0 -33 -22.5 -55.5t-55.5 -22.5q-29 0 -59.5 19.5t-48.5 19.5q-49 0 -109 -88q170 -115 170 -291 q0 -55 -20.5 -110.5t-66.5 -110.5t-135 -89t-208 -34q-92 0 -193 33q-94 -49 -94 -109q0 -66 133 -84l392 -53q66 -8 106.5 -19.5t94 -37t81 -74.5t27.5 -121q0 -152 -149.5 -242t-397.5 -90q-229 0 -374.5 69.5t-145.5 180.5zM158 -223q0 -86 110.5 -140.5t286.5 -54.5 q215 0 309 59.5t94 131.5q0 59 -49 91t-161 46l-420 51q-170 -63 -170 -184zM344 659q0 -291 217 -290q215 0 215 288.5t-209 288.5q-106 0 -164.5 -76t-58.5 -211zM430 1290q0 51 36 86t87 35q47 0 83 -36t36 -85t-36 -85t-85 -36t-85 36t-36 85z" />
<glyph unicode="&#x122;" horiz-adv-x="1638" d="M90 702q0 217 102.5 385t257 251t326.5 83q219 0 400 -125l41 99h63l125 -434l-78 -23q-127 178 -215 254q-158 131 -324 131q-205 0 -330.5 -174t-125.5 -461q0 -276 136 -446t357 -170q59 0 123 15t132.5 51t111.5 106.5t43 165t-44 136.5t-157 56v62h559v-64l-37 -6 q-53 -10 -77.5 -24.5t-40 -61.5t-15.5 -139v-369h-96l-65 141q-217 -168 -465 -168q-303 0 -505 209t-202 520zM653 -227.5q0 51.5 38 88.5t89 37q59 0 101.5 -49.5t42.5 -118.5q0 -88 -53.5 -161t-147.5 -118l-23 45q119 76 127 189q-37 -29 -63 -29q-49 0 -80 32.5t-31 84 z" />
<glyph unicode="&#x123;" horiz-adv-x="1105" d="M35 -244q0 76 50 128.5t165 95.5q-150 53 -150 172q0 139 201 204q-166 115 -166 291q0 152 123 258.5t299 106.5q84 0 193 -41q96 182 249 182q49 0 80 -24.5t31 -63.5q0 -33 -22.5 -55.5t-55.5 -22.5q-29 0 -59.5 19.5t-48.5 19.5q-49 0 -109 -88q170 -115 170 -291 q0 -55 -20.5 -110.5t-66.5 -110.5t-135 -89t-208 -34q-92 0 -193 33q-94 -49 -94 -109q0 -66 133 -84l392 -53q66 -8 106.5 -19.5t94 -37t81 -74.5t27.5 -121q0 -152 -149.5 -242t-397.5 -90q-229 0 -374.5 69.5t-145.5 180.5zM158 -223q0 -86 110.5 -140.5t286.5 -54.5 q215 0 309 59.5t94 131.5q0 59 -49 91t-161 46l-420 51q-170 -63 -170 -184zM344 659q0 -291 217 -290q215 0 215 288.5t-209 288.5q-106 0 -164.5 -76t-58.5 -211zM422 1276q0 88 53 160.5t148 117.5l22 -45q-119 -76 -127 -188q37 29 64 29q49 0 79.5 -33t30.5 -84 t-38 -88t-89 -37q-59 0 -101 49t-42 119z" />
<glyph unicode="&#x124;" horiz-adv-x="1638" d="M63 0v63l52 7q80 10 106.5 55t26.5 170v805q0 125 -26.5 170t-106.5 55l-52 6v64h574v-64l-51 -6q-80 -10 -106.5 -55t-26.5 -170v-305h733v305q0 125 -26.5 170t-106.5 55l-52 6v64h574v-64l-51 -6q-80 -10 -106.5 -55t-26.5 -170v-805q0 -125 26.5 -170t106.5 -55 l51 -7v-63h-574v63l52 7q80 10 106.5 55t26.5 170v412h-733v-412q0 -125 26.5 -170t106.5 -55l51 -7v-63h-574zM500 1567l319 172l320 -172l-31 -45l-289 82l-291 -82z" />
<glyph unicode="&#x125;" horiz-adv-x="1351" d="M41 0v61l51 5q68 8 97.5 47t29.5 123v866q0 137 -24.5 179t-108.5 50l-45 4v64q162 18 291 69h82v-626q197 170 403 170q92 0 156.5 -23.5t96.5 -52.5t48.5 -76t18.5 -73.5t2 -67.5v-483q0 -84 29.5 -123t97.5 -47l51 -5v-61h-551v61l51 5q68 8 97.5 47t29.5 123v471 q0 207 -176 206q-178 0 -354 -168v-509q0 -84 29.5 -123t97.5 -47l51 -5v-61h-551zM356 1640l320 172l319 -172l-30 -45l-289 82l-291 -82z" />
<glyph unicode="&#x126;" horiz-adv-x="1638" d="M63 0v63l52 7q80 10 106.5 55t26.5 170v711h-185v81h185v13q0 125 -26.5 170t-106.5 55l-52 6v64h574v-64l-51 -6q-80 -10 -106.5 -55t-26.5 -170v-13h733v13q0 125 -26.5 170t-106.5 55l-52 6v64h574v-64l-51 -6q-80 -10 -106.5 -55t-26.5 -170v-13h184v-81h-184v-711 q0 -125 26.5 -170t106.5 -55l51 -7v-63h-574v63l52 7q80 10 106.5 55t26.5 170v412h-733v-412q0 -125 26.5 -170t106.5 -55l51 -7v-63h-574zM453 795h733v211h-733v-211z" />
<glyph unicode="&#x127;" horiz-adv-x="1439" d="M82 0v61l51 5q68 8 97.5 47t29.5 123v780l-178 -58v70l178 55v19q0 137 -24.5 179t-108.5 50l-45 4v64q162 18 291 69h82v-323l262 84v-70l-262 -82v-235q197 170 403 170q92 0 156.5 -23.5t96.5 -52.5t48.5 -76t18.5 -73.5t2 -67.5v-483q0 -84 29.5 -123t97.5 -47l51 -5 v-61h-551v61l51 5q68 8 97.5 47t29.5 123v471q0 207 -176 206q-178 0 -354 -168v-509q0 -84 29.5 -123t97.5 -47l51 -5v-61h-551z" />
<glyph unicode="&#x128;" horiz-adv-x="696" d="M29 1579q20 63 68 101t107.5 38t194.5 -37q63 -18 101 -18q63 0 98 45l59 -18q-23 -78 -66.5 -113t-117.5 -35q-66 0 -194 37q-80 20 -111 20q-45 0 -80 -40zM63 0v63l41 7q84 14 109 56t25 169v805q0 127 -25 169t-109 56l-41 6v64h553v-64l-41 -6q-84 -14 -108.5 -56 t-24.5 -169v-805q0 -127 25 -169t108 -56l41 -7v-63h-553z" />
<glyph unicode="&#x129;" horiz-adv-x="614" d="M6 1239q20 63 68.5 101t108 38t194.5 -37q63 -18 100 -18q63 0 98 45l60 -18q-23 -78 -67 -113t-117 -35q-66 0 -195 37q-80 20 -111 21q-45 0 -79 -41zM41 0v61l51 5q68 8 97.5 47t29.5 123v481q0 92 -27.5 127t-107.5 43l-41 4v61q127 10 301 41h70v-757 q0 -84 28.5 -123t98.5 -47l49 -5v-61h-549z" />
<glyph unicode="&#x12a;" horiz-adv-x="696" d="M29 1579v102h606v-102h-606zM63 0v63l41 7q84 14 109 56t25 169v805q0 127 -25 169t-109 56l-41 6v64h553v-64l-41 -6q-84 -14 -108.5 -56t-24.5 -169v-805q0 -127 25 -169t108 -56l41 -7v-63h-553z" />
<glyph unicode="&#x12b;" horiz-adv-x="614" d="M6 1239v102h606v-102h-606zM41 0v61l51 5q68 8 97.5 47t29.5 123v481q0 92 -27.5 127t-107.5 43l-41 4v61q127 10 301 41h70v-757q0 -84 28.5 -123t98.5 -47l49 -5v-61h-549z" />
<glyph unicode="&#x12c;" horiz-adv-x="696" d="M-29 1708l52 33q143 -96 321 -96q186 0 313 96l54 -33q-51 -84 -153.5 -135t-219.5 -51q-261 0 -367 186zM63 0v63l41 7q84 14 109 56t25 169v805q0 127 -25 169t-109 56l-41 6v64h553v-64l-41 -6q-84 -14 -108.5 -56t-24.5 -169v-805q0 -127 25 -169t108 -56l41 -7v-63 h-553z" />
<glyph unicode="&#x12d;" horiz-adv-x="614" d="M-14 1376l47 37q131 -106 291 -106q76 0 154.5 29.5t131.5 76.5l47 -37q-47 -94 -139 -150.5t-199 -56.5q-113 0 -199.5 54.5t-133.5 152.5zM41 0v61l51 5q68 8 97.5 47t29.5 123v481q0 92 -27.5 127t-107.5 43l-41 4v61q127 10 301 41h70v-757q0 -84 28.5 -123t98.5 -47 l49 -5v-61h-549z" />
<glyph unicode="&#x12e;" horiz-adv-x="696" d="M63 0v63l41 7q84 14 109 56t25 169v805q0 127 -25 169t-109 56l-41 6v64h553v-64l-41 -6q-84 -14 -108.5 -56t-24.5 -169v-805q0 -127 25 -169t108 -56l41 -7v-63h-110q-90 0 -152.5 -69.5t-62.5 -163.5q0 -55 32.5 -98.5t86.5 -43.5q39 0 85 18.5t70 47.5l51 -39 q-37 -61 -105.5 -102.5t-137.5 -41.5q-98 0 -171 62.5t-73 153.5q0 141 168 276h-234z" />
<glyph unicode="&#x12f;" horiz-adv-x="614" d="M41 0v61l51 5q68 8 97.5 47t29.5 123v481q0 92 -27.5 127t-107.5 43l-41 4v61q127 10 301 41h70v-757q0 -84 28.5 -123t98.5 -47l49 -5v-61h-111q-90 0 -152.5 -69.5t-62.5 -163.5q0 -55 33 -98.5t86 -43.5q39 0 85 18.5t71 47.5l51 -39q-37 -61 -105.5 -102.5 t-138.5 -41.5q-98 0 -171 62.5t-73 153.5q0 141 168 276h-229zM190 1290q0 51 36 86t87 35q47 0 83 -36t36 -85t-36 -85t-85 -36t-85 36t-36 85z" />
<glyph unicode="&#x130;" horiz-adv-x="696" d="M63 0v63l41 7q84 14 109 56t25 169v805q0 127 -25 169t-109 56l-41 6v64h553v-64l-41 -6q-84 -14 -108.5 -56t-24.5 -169v-805q0 -127 25 -169t108 -56l41 -7v-63h-553zM213 1630q0 51 36 86t87 35q47 0 83 -36t36 -85t-36 -85t-85 -36t-85 36t-36 85z" />
<glyph unicode="&#x131;" horiz-adv-x="614" d="M41 0v61l51 5q68 8 97.5 47t29.5 123v481q0 92 -27.5 127t-107.5 43l-41 4v61q127 10 301 41h70v-757q0 -84 28.5 -123t98.5 -47l49 -5v-61h-549z" />
<glyph unicode="&#x134;" horiz-adv-x="1228" d="M-47 381q0 80 45 131t115 51q51 0 81.5 -29.5t30.5 -80.5q0 -53 -51 -99q-41 -39 -41 -82q0 -82 88 -141t207 -59q82 0 142.5 18.5t97.5 60.5t58.5 83.5t31.5 117.5t12 132.5t2 152.5v463q0 125 -26.5 170t-106.5 55l-51 6v64h573v-64l-51 -6q-80 -10 -106.5 -55 t-26.5 -170v-568q0 -68 -1 -106.5t-11.5 -105t-28.5 -107.5t-56 -92t-90.5 -79t-135.5 -48.5t-187 -20.5q-240 0 -377 126t-137 282zM555 1567l319 172l320 -172l-31 -45l-289 82l-290 -82z" />
<glyph unicode="&#x135;" horiz-adv-x="614" d="M-223 -369q0 33 27.5 57.5t66.5 24.5q45 0 90 -53q33 -37 55.5 -49t57.5 -12q47 0 77.5 21.5t44 58t20.5 89t6 114t-1 128.5v707q0 92 -28.5 128t-106.5 42l-49 4v61q156 10 309 41h70v-1089q0 -100 -34 -177t-81 -117t-109.5 -65.5t-107.5 -32t-88 -6.5q-98 0 -158.5 35 t-60.5 90zM29 1221l290 190l291 -190l-28 -52l-263 93l-264 -93z" />
<glyph unicode="&#x136;" horiz-adv-x="1474" d="M63 0v63l52 7q80 10 106.5 55t26.5 170v805q0 125 -26.5 170t-106.5 55l-52 6v64h607v-64l-84 -6q-78 -6 -105.5 -53t-27.5 -172v-393l419 376q78 70 99.5 98.5t21.5 63.5q0 41 -26.5 59.5t-92.5 24.5l-20 2v64h586v-64l-15 -4q-133 -25 -325 -188l-246 -215l389 -635 q76 -117 132.5 -161t160.5 -67v-61h-631v63q33 4 37 5q76 6 104.5 33.5t19.5 65.5t-46 97l-330 527l-237 -211v-285q0 -125 27.5 -172t105.5 -53l84 -7v-63h-607zM653 -227.5q0 51.5 38 88.5t89 37q59 0 101.5 -49.5t42.5 -118.5q0 -88 -53.5 -161t-147.5 -118l-23 45 q119 76 127 189q-37 -29 -63 -29q-49 0 -80 32.5t-31 84z" />
<glyph unicode="&#x137;" d="M41 0v61l51 5q68 8 97.5 47t29.5 123v866q0 137 -24.5 179t-108.5 50l-45 4v64q162 18 291 69h82v-958l319 278q55 47 55 80q0 57 -114 66v59h545v-61q-133 -20 -216 -58t-178 -120l-92 -82l305 -436q111 -145 248 -170v-66h-553v61l55 5q37 4 51.5 22t7.5 45t-20.5 52.5 t-31.5 50.5l-215 311l-166 -141v-170q0 -82 29.5 -122t95.5 -48l53 -5v-61h-551zM528 -227.5q0 51.5 38 88.5t89 37q59 0 101.5 -49.5t42.5 -118.5q0 -88 -53.5 -161t-147.5 -118l-23 45q119 76 127 189q-37 -29 -63 -29q-49 0 -80 32.5t-31 84z" />
<glyph unicode="&#x139;" horiz-adv-x="1228" d="M63 0v63l52 7q80 10 106.5 55t26.5 170v805q0 125 -26.5 170t-106.5 55l-52 6v64h588v-64l-65 -6q-78 -8 -105.5 -54t-27.5 -171v-848q0 -88 33.5 -131t142.5 -43q195 0 377 137q102 76 225 250l57 -27l-164 -438h-1061zM197 1548l215 125q106 63 170 64q35 0 57.5 -19.5 t22.5 -48.5q0 -68 -142 -92l-313 -53z" />
<glyph unicode="&#x13a;" horiz-adv-x="614" d="M41 0v61l49 5q70 8 98.5 47t28.5 123v866q0 137 -24.5 179t-108.5 50l-43 4v64q162 18 289 69h82v-1232q0 -84 28.5 -123t98.5 -47l47 -5v-61h-545zM127 1622l215 125q106 63 170 63q35 0 57.5 -19t22.5 -48q0 -68 -141 -92l-314 -54z" />
<glyph unicode="&#x13b;" horiz-adv-x="1228" d="M63 0v63l52 7q80 10 106.5 55t26.5 170v805q0 125 -26.5 170t-106.5 55l-52 6v64h588v-64l-65 -6q-78 -8 -105.5 -54t-27.5 -171v-848q0 -88 33.5 -131t142.5 -43q195 0 377 137q102 76 225 250l57 -27l-164 -438h-1061zM479 -227.5q0 51.5 38 88.5t89 37 q59 0 101.5 -49.5t42.5 -118.5q0 -88 -53.5 -161t-147.5 -118l-23 45q119 76 127 189q-37 -29 -63 -29q-49 0 -80 32.5t-31 84z" />
<glyph unicode="&#x13c;" horiz-adv-x="614" d="M41 0v61l49 5q70 8 98.5 47t28.5 123v866q0 137 -24.5 179t-108.5 50l-43 4v64q162 18 289 69h82v-1232q0 -84 28.5 -123t98.5 -47l47 -5v-61h-545zM180 -227.5q0 51.5 38 88.5t89 37q59 0 101.5 -49.5t42.5 -118.5q0 -88 -53.5 -161t-147.5 -118l-23 45q119 76 127 189 q-37 -29 -63 -29q-49 0 -80 32.5t-31 84z" />
<glyph unicode="&#x13d;" horiz-adv-x="1228" d="M63 0v63l52 7q80 10 106.5 55t26.5 170v805q0 125 -26.5 170t-106.5 55l-52 6v64h588v-64l-65 -6q-78 -8 -105.5 -54t-27.5 -171v-848q0 -88 33.5 -131t142.5 -43q195 0 377 137q102 76 225 250l57 -27l-164 -438h-1061zM733 1270q0 51 38 88t89 37q59 0 101.5 -49.5 t42.5 -118.5q0 -88 -53.5 -161t-147.5 -118l-23 45q119 76 127 189q-37 -29 -63 -29q-49 0 -80 33t-31 84z" />
<glyph unicode="&#x13e;" horiz-adv-x="614" d="M41 0v61l49 5q70 8 98.5 47t28.5 123v866q0 137 -24.5 179t-108.5 50l-43 4v64q162 18 289 69h82v-1232q0 -84 28.5 -123t98.5 -47l47 -5v-61h-545zM494 1343.5q0 51.5 37.5 88t89.5 36.5q59 0 101 -49t42 -119q0 -88 -53.5 -160.5t-147.5 -117.5l-22 45q119 76 127 188 q-37 -29 -64 -28q-49 0 -79.5 32.5t-30.5 84z" />
<glyph unicode="&#x13f;" horiz-adv-x="1228" d="M63 0v63l52 7q80 10 106.5 55t26.5 170v805q0 125 -26.5 170t-106.5 55l-52 6v64h588v-64l-65 -6q-78 -8 -105.5 -54t-27.5 -171v-848q0 -88 33.5 -131t142.5 -43q195 0 377 137q102 76 225 250l57 -27l-164 -438h-1061zM844 762q0 51 35.5 86t87.5 35q47 0 82.5 -36 t35.5 -85t-35.5 -85t-85 -36t-85 36t-35.5 85z" />
<glyph unicode="&#x140;" horiz-adv-x="614" d="M41 0v61l49 5q70 8 98.5 47t28.5 123v866q0 137 -24.5 179t-108.5 50l-43 4v64q162 18 289 69h82v-1232q0 -84 28.5 -123t98.5 -47l47 -5v-61h-545zM502 762q0 51 35.5 86t87.5 35q47 0 82.5 -36t35.5 -85t-35.5 -85t-85 -36t-85 36t-35.5 85z" />
<glyph unicode="&#x141;" horiz-adv-x="1228" d="M63 0v63l52 7q80 10 106.5 55t26.5 170v213l-185 -141v151l185 139v443q0 125 -26.5 170t-106.5 55l-52 6v64h588v-64l-65 -6q-78 -8 -105.5 -54t-27.5 -171v-305l366 280v-151l-366 -281v-391q0 -88 33.5 -131t142.5 -43q195 0 377 137q102 76 225 250l57 -27l-164 -438 h-1061z" />
<glyph unicode="&#x142;" horiz-adv-x="655" d="M70 0v61l49 5q70 8 98.5 47t28.5 123v444l-176 -158v160l176 158v262q0 137 -24.5 179t-108.5 50l-43 4v64q162 18 288 69h82v-475l174 156v-162l-174 -153v-598q0 -84 29 -123t98 -47l47 -5v-61h-544z" />
<glyph unicode="&#x143;" horiz-adv-x="1515" d="M53 0v63l51 7q80 10 107 55t27 170v805q0 125 -27 170t-107 55l-51 6v64h457l668 -1104v809q0 125 -28 171t-106 54l-71 6v64h506v-64l-52 -6q-80 -10 -106.5 -55t-26.5 -170v-1100h-180l-760 1241v-946q0 -125 28 -171t105 -54l72 -7v-63h-506zM604 1548l215 125 q106 63 170 64q35 0 57.5 -19.5t22.5 -48.5q0 -68 -141 -92l-314 -53z" />
<glyph unicode="&#x144;" horiz-adv-x="1351" d="M41 891v61q156 10 309 41h70v-162q109 96 207 138.5t215 42.5q145 0 227 -72t82 -199v-505q0 -84 29.5 -123t97.5 -47l51 -5v-61h-551v61l51 5q68 8 97.5 47t29.5 123v473q0 205 -174 204q-172 0 -362 -172v-505q0 -84 29.5 -123t97.5 -47l51 -5v-61h-551v61l51 5 q68 8 97.5 47t29.5 123v481q0 92 -28.5 128t-106.5 42zM520 1200l195 139q92 70 155 70q31 0 51.5 -21.5t20.5 -54.5q0 -76 -127 -102l-285 -60z" />
<glyph unicode="&#x145;" horiz-adv-x="1515" d="M53 0v63l51 7q80 10 107 55t27 170v805q0 125 -27 170t-107 55l-51 6v64h457l668 -1104v809q0 125 -28 171t-106 54l-71 6v64h506v-64l-52 -6q-80 -10 -106.5 -55t-26.5 -170v-1100h-180l-760 1241v-946q0 -125 28 -171t105 -54l72 -7v-63h-506zM631 -227.5 q0 51.5 38 88.5t89 37q59 0 101 -49.5t42 -118.5q0 -88 -53 -161t-148 -118l-22 45q119 76 127 189q-37 -29 -64 -29q-49 0 -79.5 32.5t-30.5 84z" />
<glyph unicode="&#x146;" horiz-adv-x="1351" d="M41 891v61q156 10 309 41h70v-162q109 96 207 138.5t215 42.5q145 0 227 -72t82 -199v-505q0 -84 29.5 -123t97.5 -47l51 -5v-61h-551v61l51 5q68 8 97.5 47t29.5 123v473q0 205 -174 204q-172 0 -362 -172v-505q0 -84 29.5 -123t97.5 -47l51 -5v-61h-551v61l51 5 q68 8 97.5 47t29.5 123v481q0 92 -28.5 128t-106.5 42zM553 -227.5q0 51.5 38 88.5t89 37q59 0 101 -49.5t42 -118.5q0 -88 -53 -161t-147 -118l-23 45q119 76 127 189q-37 -29 -63 -29q-49 0 -80 32.5t-31 84z" />
<glyph unicode="&#x147;" horiz-adv-x="1515" d="M53 0v63l51 7q80 10 107 55t27 170v805q0 125 -27 170t-107 55l-51 6v64h457l668 -1104v809q0 125 -28 171t-106 54l-71 6v64h506v-64l-52 -6q-80 -10 -106.5 -55t-26.5 -170v-1100h-180l-760 1241v-946q0 -125 28 -171t105 -54l72 -7v-63h-506zM446 1694l31 45l289 -82 l291 82l28 -45l-319 -172z" />
<glyph unicode="&#x148;" horiz-adv-x="1351" d="M41 891v61q156 10 309 41h70v-162q109 96 207 138.5t215 42.5q145 0 227 -72t82 -199v-505q0 -84 29.5 -123t97.5 -47l51 -5v-61h-551v61l51 5q68 8 97.5 47t29.5 123v473q0 205 -174 204q-172 0 -362 -172v-505q0 -84 29.5 -123t97.5 -47l51 -5v-61h-551v61l51 5 q68 8 97.5 47t29.5 123v481q0 92 -28.5 128t-106.5 42zM397 1360l27 51l264 -94l262 94l29 -51l-291 -191z" />
<glyph unicode="&#x14a;" horiz-adv-x="1515" d="M53 0v63l51 7q80 10 107 55t27 170v805q0 125 -27 170t-107 55l-51 6v64h457l668 -1104v809q0 125 -28 171t-106 54l-71 6v64h506v-64l-52 -6q-80 -10 -106.5 -55t-26.5 -170v-1100q0 -209 -158.5 -351.5t-377.5 -142.5q-98 0 -158.5 35t-60.5 90q0 33 27.5 57.5 t66.5 24.5q45 0 90 -53q33 -37 55.5 -49t57.5 -12q129 0 203.5 118.5t74.5 282.5l-760 1241v-946q0 -125 28 -171t105 -54l72 -7v-63h-506z" />
<glyph unicode="&#x14b;" horiz-adv-x="1351" d="M41 891v61q156 10 309 41h70v-162q109 96 207 138.5t215 42.5q145 0 227 -72t82 -199v-505q0 -190 -50 -351t-161 -270t-264 -109q-98 0 -158.5 35t-60.5 90q0 33 27.5 57.5t66.5 24.5q45 0 90 -53q33 -37 55.5 -49t57.5 -12q43 0 75.5 21.5t53 52t36 88t22.5 101.5 t11 122.5t4 123.5v128v473q0 205 -174 204q-172 0 -362 -172v-505q0 -84 29.5 -123t97.5 -47l51 -5v-61h-551v61l51 5q68 8 97.5 47t29.5 123v481q0 92 -28.5 128t-106.5 42z" />
<glyph unicode="&#x14c;" horiz-adv-x="1638" d="M90 702q0 301 214 510t523 209q315 0 520 -205.5t205 -523.5q0 -170 -64.5 -309t-170 -227t-234.5 -135.5t-264 -47.5q-311 0 -520 210t-209 519zM332 700q0 -287 133 -457.5t356 -170.5t356.5 165.5t133.5 442.5q0 297 -131 470t-357 173q-223 0 -357 -170t-134 -453z M516 1579v102h606v-102h-606z" />
<glyph unicode="&#x14d;" horiz-adv-x="1146" d="M76 494q0 61 12 124.5t48 136t89.5 128t143.5 92.5t202 37q117 0 208 -37t145.5 -92.5t90.5 -128t49 -138t13 -127.5q0 -227 -137 -367t-360 -140q-229 0 -366.5 140.5t-137.5 371.5zM260 1239v102h606v-102h-606zM285 498q0 -207 77.5 -321t219.5 -114q135 0 210.5 111 t75.5 305q0 211 -78.5 331t-216.5 120q-131 0 -209.5 -117.5t-78.5 -314.5z" />
<glyph unicode="&#x14e;" horiz-adv-x="1638" d="M90 702q0 301 214 510t523 209q315 0 520 -205.5t205 -523.5q0 -170 -64.5 -309t-170 -227t-234.5 -135.5t-264 -47.5q-311 0 -520 210t-209 519zM332 700q0 -287 133 -457.5t356 -170.5t356.5 165.5t133.5 442.5q0 297 -131 470t-357 173q-223 0 -357 -170t-134 -453z M459 1708l51 33q143 -96 321 -96q186 0 314 96l53 -33q-51 -84 -153.5 -135t-219.5 -51q-260 0 -366 186z" />
<glyph unicode="&#x14f;" horiz-adv-x="1146" d="M76 494q0 61 12 124.5t48 136t89.5 128t143.5 92.5t202 37q117 0 208 -37t145.5 -92.5t90.5 -128t49 -138t13 -127.5q0 -227 -137 -367t-360 -140q-229 0 -366.5 140.5t-137.5 371.5zM240 1376l47 37q131 -106 291 -106q76 0 154.5 29.5t131.5 76.5l47 -37 q-47 -94 -139 -150.5t-199 -56.5q-113 0 -199.5 54.5t-133.5 152.5zM285 498q0 -207 77.5 -321t219.5 -114q135 0 210.5 111t75.5 305q0 211 -78.5 331t-216.5 120q-131 0 -209.5 -117.5t-78.5 -314.5z" />
<glyph unicode="&#x150;" horiz-adv-x="1638" d="M90 702q0 301 214 510t523 209q315 0 520 -205.5t205 -523.5q0 -170 -64.5 -309t-170 -227t-234.5 -135.5t-264 -47.5q-311 0 -520 210t-209 519zM332 700q0 -287 133 -457.5t356 -170.5t356.5 165.5t133.5 442.5q0 297 -131 470t-357 173q-223 0 -357 -170t-134 -453z M680 1550l72 185q27 68 51 95.5t57 27.5q51 0 51 -59.5t-41 -104.5l-157 -166zM926 1550l71 185q45 123 109 123q51 0 51 -62q0 -55 -43 -102l-156 -166z" />
<glyph unicode="&#x151;" horiz-adv-x="1146" d="M76 494q0 61 12 124.5t48 136t89.5 128t143.5 92.5t202 37q117 0 208 -37t145.5 -92.5t90.5 -128t49 -138t13 -127.5q0 -227 -137 -367t-360 -140q-229 0 -366.5 140.5t-137.5 371.5zM285 498q0 -207 77.5 -321t219.5 -114q135 0 210.5 111t75.5 305q0 211 -78.5 331 t-216.5 120q-131 0 -209.5 -117.5t-78.5 -314.5zM424 1149l72 184q27 68 51 95.5t57 27.5q51 0 51 -59.5t-41 -104.5l-157 -166zM670 1149l71 184q45 123 109 123q51 0 51 -61q0 -55 -43 -103l-156 -166z" />
<glyph unicode="&#x152;" horiz-adv-x="2539" d="M90 698.5q0 307.5 206 515t511 207.5q274 0 489 -186v160h953l159 -355l-67 -26q-113 141 -203 194q-166 98 -407 99q-63 0 -103.5 -3.5t-69 -17.5t-43 -26.5t-21.5 -49t-8 -64.5t-1 -91v-240h98q154 0 223.5 47t69.5 180v35h78v-628h-78v30q0 70 -21.5 119t-49 73.5 t-73.5 38t-76 15.5t-75 2h-96v-434q0 -63 5 -93t29.5 -60.5t79 -41t148.5 -10.5q252 0 436 135q98 74 234 254l69 -31l-178 -446h-1012v176q-207 -203 -493 -203q-303 0 -508 209t-205 516.5zM332 715q0 -291 130 -467t345 -176q217 0 349 174t132 459q0 274 -134 446 t-349 172q-213 0 -343 -167t-130 -441z" />
<glyph unicode="&#x153;" horiz-adv-x="1843" d="M76 489q0 231 138 377t359 146q242 0 398 -185q147 184 387 185q186 0 311 -118t125 -294h-719q-6 -66 -6 -111q0 -106 24.5 -186t59.5 -124t83 -71.5t88 -36t81 -8.5q201 0 321 201l68 -33q-57 -115 -175 -182t-263 -67q-229 0 -385 192q-156 -193 -406 -192 q-215 0 -352 142t-137 365zM285 496q0 -432 290 -433q84 0 143.5 41t90.5 112t44 146.5t13 163.5q0 207 -72.5 313.5t-211.5 106.5q-143 0 -220 -116.5t-77 -333.5zM1079 668h510q0 123 -65.5 192.5t-180.5 69.5q-215 0 -264 -262z" />
<glyph unicode="&#x154;" horiz-adv-x="1474" d="M63 0v63l52 7q80 10 106.5 55t26.5 170v805q0 125 -26.5 170t-106.5 55l-52 6v64h834q221 0 347 -94.5t126 -258.5q0 -49 -13.5 -95t-48 -104.5t-116.5 -103.5t-201 -61l340 -481q47 -61 95.5 -90t123.5 -44v-63h-342l-460 657h-295v-362q0 -125 27.5 -171t105.5 -54 l73 -7v-63h-596zM453 745h344q90 0 156.5 21.5t103.5 52.5t58.5 73t27.5 74.5t6 67.5q0 276 -393 277q-182 0 -242.5 -30t-60.5 -91v-445zM586 1548l215 125q106 63 170 64q35 0 57.5 -19.5t22.5 -48.5q0 -68 -142 -92l-313 -53z" />
<glyph unicode="&#x155;" horiz-adv-x="901" d="M41 891v61q156 10 309 41h70v-164q8 6 60 51.5t81 66t87.5 43t117.5 22.5q66 0 107.5 -32t41.5 -83q0 -49 -32.5 -81t-83.5 -32q-55 0 -105 37q-47 31 -86 31q-86 0 -188 -115v-501q0 -84 29.5 -123t97.5 -47l51 -5v-61h-551v61l51 5q68 8 97.5 47t29.5 123v481 q0 92 -28.5 128t-106.5 42zM252 1200l194 139q92 70 156 70q31 0 51.5 -21.5t20.5 -54.5q0 -76 -127 -102l-285 -60z" />
<glyph unicode="&#x156;" horiz-adv-x="1474" d="M63 0v63l52 7q80 10 106.5 55t26.5 170v805q0 125 -26.5 170t-106.5 55l-52 6v64h834q221 0 347 -94.5t126 -258.5q0 -49 -13.5 -95t-48 -104.5t-116.5 -103.5t-201 -61l340 -481q47 -61 95.5 -90t123.5 -44v-63h-342l-460 657h-295v-362q0 -125 27.5 -171t105.5 -54 l73 -7v-63h-596zM453 745h344q90 0 156.5 21.5t103.5 52.5t58.5 73t27.5 74.5t6 67.5q0 276 -393 277q-182 0 -242.5 -30t-60.5 -91v-445zM612 -227.5q0 51.5 38 88.5t89 37q59 0 101.5 -49.5t42.5 -118.5q0 -88 -53.5 -161t-147.5 -118l-23 45q119 76 127 189 q-37 -29 -63 -29q-49 0 -80 32.5t-31 84z" />
<glyph unicode="&#x157;" horiz-adv-x="901" d="M41 891v61q156 10 309 41h70v-164q8 6 60 51.5t81 66t87.5 43t117.5 22.5q66 0 107.5 -32t41.5 -83q0 -49 -32.5 -81t-83.5 -32q-55 0 -105 37q-47 31 -86 31q-86 0 -188 -115v-501q0 -84 29.5 -123t97.5 -47l51 -5v-61h-551v61l51 5q68 8 97.5 47t29.5 123v481 q0 92 -28.5 128t-106.5 42zM188 -227.5q0 51.5 38 88.5t89 37q59 0 101.5 -49.5t42.5 -118.5q0 -88 -53.5 -161t-147.5 -118l-22 45q119 76 126 189q-37 -29 -63 -29q-49 0 -80 32.5t-31 84z" />
<glyph unicode="&#x158;" horiz-adv-x="1474" d="M63 0v63l52 7q80 10 106.5 55t26.5 170v805q0 125 -26.5 170t-106.5 55l-52 6v64h834q221 0 347 -94.5t126 -258.5q0 -49 -13.5 -95t-48 -104.5t-116.5 -103.5t-201 -61l340 -481q47 -61 95.5 -90t123.5 -44v-63h-342l-460 657h-295v-362q0 -125 27.5 -171t105.5 -54 l73 -7v-63h-596zM428 1694l31 45l289 -82l290 82l29 -45l-319 -172zM453 745h344q90 0 156.5 21.5t103.5 52.5t58.5 73t27.5 74.5t6 67.5q0 276 -393 277q-182 0 -242.5 -30t-60.5 -91v-445z" />
<glyph unicode="&#x159;" horiz-adv-x="901" d="M41 891v61q156 10 309 41h70v-164q8 6 60 51.5t81 66t87.5 43t117.5 22.5q66 0 107.5 -32t41.5 -83q0 -49 -32.5 -81t-83.5 -32q-55 0 -105 37q-47 31 -86 31q-86 0 -188 -115v-501q0 -84 29.5 -123t97.5 -47l51 -5v-61h-551v61l51 5q68 8 97.5 47t29.5 123v481 q0 92 -28.5 128t-106.5 42zM129 1360l27 51l264 -94l262 94l29 -51l-291 -191z" />
<glyph unicode="&#x15a;" horiz-adv-x="1351" d="M57 469l76 25q106 -205 258 -313.5t328 -108.5q158 0 264.5 87t106.5 218q0 92 -60.5 144t-212.5 89l-274 70q-18 6 -42 11t-52 16l-61 21q-32 11 -63.5 28.5t-61.5 37t-55.5 47t-45 58.5t-30.5 71t-11 85q0 133 118.5 249.5t350.5 116.5q221 0 387 -100l24 74h74 l125 -371l-65 -25q-211 324 -504 324q-127 0 -214 -63.5t-87 -155.5q0 -82 64.5 -134t213.5 -89l256 -62q231 -55 332.5 -143t101.5 -262q0 -184 -164.5 -312.5t-404.5 -128.5q-242 0 -424 129l-39 -102h-76zM494 1548l215 125q106 63 170 64q35 0 57 -19.5t22 -48.5 q0 -68 -141 -92l-313 -53z" />
<glyph unicode="&#x15b;" horiz-adv-x="1064" d="M82 373h70q39 -109 86 -162q57 -70 144 -109t183 -39q113 0 188.5 54.5t75.5 134.5q0 96 -149 135l-262 66q-162 41 -233.5 102t-71.5 158q0 125 108.5 212t265.5 87q166 0 293 -101l21 74h57l66 -315h-66q-51 121 -146.5 190.5t-211.5 69.5q-90 0 -148.5 -44t-58.5 -110 q0 -33 13 -55.5t42 -36.5t49.5 -21.5t55.5 -15.5l284 -69q133 -33 196.5 -96.5t63.5 -168.5q0 -143 -120.5 -237t-305.5 -94q-100 0 -173.5 24.5t-155.5 87.5l-23 -86h-67zM362 1200l195 139q92 70 156 70q31 0 51 -21.5t20 -54.5q0 -76 -127 -102l-284 -60z" />
<glyph unicode="&#x15c;" horiz-adv-x="1351" d="M57 469l76 25q106 -205 258 -313.5t328 -108.5q158 0 264.5 87t106.5 218q0 92 -60.5 144t-212.5 89l-274 70q-18 6 -42 11t-52 16l-61 21q-32 11 -63.5 28.5t-61.5 37t-55.5 47t-45 58.5t-30.5 71t-11 85q0 133 118.5 249.5t350.5 116.5q221 0 387 -100l24 74h74 l125 -371l-65 -25q-211 324 -504 324q-127 0 -214 -63.5t-87 -155.5q0 -82 64.5 -134t213.5 -89l256 -62q231 -55 332.5 -143t101.5 -262q0 -184 -164.5 -312.5t-404.5 -128.5q-242 0 -424 129l-39 -102h-76zM336 1567l319 172l320 -172l-31 -45l-289 82l-290 -82z" />
<glyph unicode="&#x15d;" horiz-adv-x="1064" d="M82 373h70q39 -109 86 -162q57 -70 144 -109t183 -39q113 0 188.5 54.5t75.5 134.5q0 96 -149 135l-262 66q-162 41 -233.5 102t-71.5 158q0 125 108.5 212t265.5 87q166 0 293 -101l21 74h57l66 -315h-66q-51 121 -146.5 190.5t-211.5 69.5q-90 0 -148.5 -44t-58.5 -110 q0 -33 13 -55.5t42 -36.5t49.5 -21.5t55.5 -15.5l284 -69q133 -33 196.5 -96.5t63.5 -168.5q0 -143 -120.5 -237t-305.5 -94q-100 0 -173.5 24.5t-155.5 87.5l-23 -86h-67zM240 1221l290 190l291 -190l-28 -52l-263 93l-264 -93z" />
<glyph unicode="&#x15e;" horiz-adv-x="1351" d="M57 469l76 25q106 -205 258 -313.5t328 -108.5q158 0 264.5 87t106.5 218q0 92 -60.5 144t-212.5 89l-274 70q-18 6 -42 11t-52 16l-61 21q-32 11 -63.5 28.5t-61.5 37t-55.5 47t-45 58.5t-30.5 71t-11 85q0 133 118.5 249.5t350.5 116.5q221 0 387 -100l24 74h74 l125 -371l-65 -25q-211 324 -504 324q-127 0 -214 -63.5t-87 -155.5q0 -82 64.5 -134t213.5 -89l256 -62q231 -55 332.5 -143t101.5 -262q0 -182 -159.5 -309.5t-393.5 -131.5l-18 -61q20 4 49 4q82 0 141.5 -50t59.5 -122q0 -78 -62.5 -136.5t-146.5 -58.5q-80 0 -139.5 34 t-59.5 81q0 20 14.5 35.5t37.5 15.5q45 0 63 -49q14 -33 30.5 -42t49.5 -9q39 0 66.5 36t27.5 85q0 53 -31.5 83.5t-91.5 30.5q-35 0 -96 -20l43 145q-211 8 -377 127l-39 -102h-76z" />
<glyph unicode="&#x15f;" horiz-adv-x="1064" d="M82 373h70q39 -109 86 -162q57 -70 144 -109t183 -39q113 0 188.5 54.5t75.5 134.5q0 96 -149 135l-262 66q-162 41 -233.5 102t-71.5 158q0 125 108.5 212t265.5 87q166 0 293 -101l21 74h57l66 -315h-66q-51 121 -146.5 190.5t-211.5 69.5q-90 0 -148.5 -44t-58.5 -110 q0 -33 13 -55.5t42 -36.5t49.5 -21.5t55.5 -15.5l284 -69q133 -33 196.5 -96.5t63.5 -168.5q0 -139 -116.5 -234t-296.5 -97l-21 -70q20 4 49 4q82 0 141.5 -50t59.5 -122q0 -78 -62.5 -136.5t-146.5 -58.5q-80 0 -139 34t-59 81q0 20 14 35.5t37 15.5q45 0 63 -49 q14 -33 30.5 -42t49.5 -9q39 0 66.5 36t27.5 85q0 53 -31.5 83.5t-91.5 30.5q-35 0 -96 -20l45 154q-141 8 -278 110l-23 -86h-67z" />
<glyph unicode="&#x160;" horiz-adv-x="1351" d="M57 469l76 25q106 -205 258 -313.5t328 -108.5q158 0 264.5 87t106.5 218q0 92 -60.5 144t-212.5 89l-274 70q-18 6 -42 11t-52 16l-61 21q-32 11 -63.5 28.5t-61.5 37t-55.5 47t-45 58.5t-30.5 71t-11 85q0 133 118.5 249.5t350.5 116.5q221 0 387 -100l24 74h74 l125 -371l-65 -25q-211 324 -504 324q-127 0 -214 -63.5t-87 -155.5q0 -82 64.5 -134t213.5 -89l256 -62q231 -55 332.5 -143t101.5 -262q0 -184 -164.5 -312.5t-404.5 -128.5q-242 0 -424 129l-39 -102h-76zM336 1694l31 45l288 -82l291 82l29 -45l-320 -172z" />
<glyph unicode="&#x161;" horiz-adv-x="1064" d="M82 373h70q39 -109 86 -162q57 -70 144 -109t183 -39q113 0 188.5 54.5t75.5 134.5q0 96 -149 135l-262 66q-162 41 -233.5 102t-71.5 158q0 125 108.5 212t265.5 87q166 0 293 -101l21 74h57l66 -315h-66q-51 121 -146.5 190.5t-211.5 69.5q-90 0 -148.5 -44t-58.5 -110 q0 -33 13 -55.5t42 -36.5t49.5 -21.5t55.5 -15.5l284 -69q133 -33 196.5 -96.5t63.5 -168.5q0 -143 -120.5 -237t-305.5 -94q-100 0 -173.5 24.5t-155.5 87.5l-23 -86h-67zM240 1360l26 51l264 -94l263 94l28 -51l-291 -191z" />
<glyph unicode="&#x162;" d="M-76 1034l117 361h1188l114 -361l-71 -24q-176 307 -451 307q-51 0 -67.5 -18.5t-16.5 -71.5v-932q0 -125 28 -172t105 -53l80 -7v-63h-280l-25 -88q20 4 49 4q82 0 141.5 -50t59.5 -122q0 -78 -62.5 -136.5t-146.5 -58.5q-80 0 -139.5 34t-59.5 81q0 20 14.5 35.5 t37.5 15.5q45 0 63 -49q14 -33 30.5 -42t49.5 -9q39 0 66.5 36t27.5 85q0 53 -31.5 83.5t-91.5 30.5q-35 0 -96 -20l49 170h-287v63l80 7q78 6 105.5 53t27.5 172v940q0 47 -19 64.5t-71 17.5q-276 0 -450 -307z" />
<glyph unicode="&#x163;" horiz-adv-x="778" d="M41 926v67q152 6 221.5 95.5t67.5 277.5h78v-373h292v-67h-292v-592q0 -270 153 -271q86 0 178 107l56 -45q-111 -143 -289 -143q-29 0 -45 2l-21 -72q20 4 49 4q82 0 141.5 -50t59.5 -122q0 -78 -62.5 -136.5t-146.5 -58.5q-80 0 -139 34t-59 81q0 20 14 35.5t37 15.5 q45 0 63 -49q14 -33 30.5 -42t49.5 -9q39 0 66.5 36t27.5 85q0 53 -31.5 83.5t-90.5 30.5q-35 0 -97 -20l49 164q-188 47 -188 246v686h-172z" />
<glyph unicode="&#x164;" d="M-76 1034l117 361h1188l114 -361l-71 -24q-176 307 -451 307q-51 0 -67.5 -18.5t-16.5 -71.5v-932q0 -125 28 -172t105 -53l80 -7v-63h-631v63l80 7q78 6 105.5 53t27.5 172v940q0 47 -19 64.5t-71 17.5q-276 0 -450 -307zM315 1694l31 45l289 -82l291 82l28 -45 l-319 -172z" />
<glyph unicode="&#x165;" horiz-adv-x="778" d="M41 926v67q152 6 221.5 95.5t67.5 277.5h78v-373h292v-67h-292v-592q0 -270 153 -271q86 0 178 107l56 -45q-111 -143 -289 -143q-74 0 -135.5 19t-109.5 80.5t-48 158.5v686h-172zM449 1356q0 51 37.5 88t88.5 37q59 0 101.5 -49.5t42.5 -118.5q0 -88 -53.5 -161 t-147.5 -118l-22 45q119 76 127 189q-37 -29 -64 -29q-49 0 -79.5 33t-30.5 84z" />
<glyph unicode="&#x168;" horiz-adv-x="1597" d="M51 1331v64h598v-64l-76 -6q-78 -6 -105.5 -53t-27.5 -172v-547q0 -98 5.5 -158.5t28 -129t63.5 -106.5t114.5 -62.5t182.5 -24.5q86 0 151.5 15t108.5 36.5t72.5 64.5t45 75t22.5 93.5t8 96t1 104.5v543q0 125 -27.5 171t-105.5 54l-68 6v64h502v-64l-51 -6 q-80 -10 -106.5 -55t-26.5 -170v-682q0 -217 -124 -331t-433 -114q-113 0 -207 20.5t-179 66.5t-133 136.5t-48 217.5v686q0 125 -27 170t-107 55zM508 1579q20 63 68.5 101t107.5 38t195 -37q63 -18 100 -18q63 0 98 45l60 -18q-23 -78 -67 -113t-118 -35q-66 0 -194 37 q-80 20 -111 20q-45 0 -80 -40z" />
<glyph unicode="&#x169;" horiz-adv-x="1392" d="M41 891v61q184 12 309 41h70v-688q0 -117 45 -171t141 -54q154 0 359 180v457q0 92 -29 128t-107 42l-49 4v61q197 14 310 41h69v-757q0 -84 30 -123t97 -47l51 -5v-61h-372v172q-131 -106 -227.5 -148t-207.5 -42q-131 0 -218 69.5t-87 237.5v428q0 92 -28.5 128 t-106.5 42zM381 1239q20 63 68.5 101t107.5 38t195 -37q63 -18 100 -18q63 0 98 45l60 -18q-23 -78 -67 -113t-118 -35q-66 0 -194 37q-80 20 -111 21q-45 0 -80 -41z" />
<glyph unicode="&#x16a;" horiz-adv-x="1597" d="M51 1331v64h598v-64l-76 -6q-78 -6 -105.5 -53t-27.5 -172v-547q0 -98 5.5 -158.5t28 -129t63.5 -106.5t114.5 -62.5t182.5 -24.5q86 0 151.5 15t108.5 36.5t72.5 64.5t45 75t22.5 93.5t8 96t1 104.5v543q0 125 -27.5 171t-105.5 54l-68 6v64h502v-64l-51 -6 q-80 -10 -106.5 -55t-26.5 -170v-682q0 -217 -124 -331t-433 -114q-113 0 -207 20.5t-179 66.5t-133 136.5t-48 217.5v686q0 125 -27 170t-107 55zM508 1579v102h606v-102h-606z" />
<glyph unicode="&#x16b;" horiz-adv-x="1392" d="M41 891v61q184 12 309 41h70v-688q0 -117 45 -171t141 -54q154 0 359 180v457q0 92 -29 128t-107 42l-49 4v61q197 14 310 41h69v-757q0 -84 30 -123t97 -47l51 -5v-61h-372v172q-131 -106 -227.5 -148t-207.5 -42q-131 0 -218 69.5t-87 237.5v428q0 92 -28.5 128 t-106.5 42zM381 1239v102h606v-102h-606z" />
<glyph unicode="&#x16c;" horiz-adv-x="1597" d="M51 1331v64h598v-64l-76 -6q-78 -6 -105.5 -53t-27.5 -172v-547q0 -98 5.5 -158.5t28 -129t63.5 -106.5t114.5 -62.5t182.5 -24.5q86 0 151.5 15t108.5 36.5t72.5 64.5t45 75t22.5 93.5t8 96t1 104.5v543q0 125 -27.5 171t-105.5 54l-68 6v64h502v-64l-51 -6 q-80 -10 -106.5 -55t-26.5 -170v-682q0 -217 -124 -331t-433 -114q-113 0 -207 20.5t-179 66.5t-133 136.5t-48 217.5v686q0 125 -27 170t-107 55zM451 1708l51 33q143 -96 321 -96q186 0 314 96l53 -33q-51 -84 -153.5 -135t-219.5 -51q-260 0 -366 186z" />
<glyph unicode="&#x16d;" horiz-adv-x="1392" d="M41 891v61q184 12 309 41h70v-688q0 -117 45 -171t141 -54q154 0 359 180v457q0 92 -29 128t-107 42l-49 4v61q197 14 310 41h69v-757q0 -84 30 -123t97 -47l51 -5v-61h-372v172q-131 -106 -227.5 -148t-207.5 -42q-131 0 -218 69.5t-87 237.5v428q0 92 -28.5 128 t-106.5 42zM360 1376l48 37q131 -106 290 -106q76 0 155 29.5t132 76.5l47 -37q-47 -94 -139 -150.5t-199 -56.5q-113 0 -200 54.5t-134 152.5z" />
<glyph unicode="&#x16e;" horiz-adv-x="1597" d="M51 1331v64h598v-64l-76 -6q-78 -6 -105.5 -53t-27.5 -172v-547q0 -98 5.5 -158.5t28 -129t63.5 -106.5t114.5 -62.5t182.5 -24.5q86 0 151.5 15t108.5 36.5t72.5 64.5t45 75t22.5 93.5t8 96t1 104.5v543q0 125 -27.5 171t-105.5 54l-68 6v64h502v-64l-51 -6 q-80 -10 -106.5 -55t-26.5 -170v-682q0 -217 -124 -331t-433 -114q-113 0 -207 20.5t-179 66.5t-133 136.5t-48 217.5v686q0 125 -27 170t-107 55zM631 1659q0 78 56 133t134 55q76 0 131.5 -55t55.5 -133t-55.5 -134.5t-133.5 -56.5t-133 56.5t-55 134.5zM707 1659 q0 -47 32.5 -81t79.5 -34t80 34t33 81q0 45 -33 79t-78 34q-47 0 -80.5 -33t-33.5 -80z" />
<glyph unicode="&#x16f;" horiz-adv-x="1392" d="M41 891v61q184 12 309 41h70v-688q0 -117 45 -171t141 -54q154 0 359 180v457q0 92 -29 128t-107 42l-49 4v61q197 14 310 41h69v-757q0 -84 30 -123t97 -47l51 -5v-61h-372v172q-131 -106 -227.5 -148t-207.5 -42q-131 0 -218 69.5t-87 237.5v428q0 92 -28.5 128 t-106.5 42zM504 1292q0 78 56 133.5t134 55.5q76 0 131.5 -55.5t55.5 -133.5t-55.5 -134t-133.5 -56t-133 56t-55 134zM580 1292q0 -47 32.5 -80.5t79.5 -33.5t80 33.5t33 80.5q0 45 -33 79t-78 34q-47 0 -80.5 -33t-33.5 -80z" />
<glyph unicode="&#x170;" horiz-adv-x="1597" d="M51 1331v64h598v-64l-76 -6q-78 -6 -105.5 -53t-27.5 -172v-547q0 -98 5.5 -158.5t28 -129t63.5 -106.5t114.5 -62.5t182.5 -24.5q86 0 151.5 15t108.5 36.5t72.5 64.5t45 75t22.5 93.5t8 96t1 104.5v543q0 125 -27.5 171t-105.5 54l-68 6v64h502v-64l-51 -6 q-80 -10 -106.5 -55t-26.5 -170v-682q0 -217 -124 -331t-433 -114q-113 0 -207 20.5t-179 66.5t-133 136.5t-48 217.5v686q0 125 -27 170t-107 55zM672 1550l71 185q27 68 51.5 95.5t57.5 27.5q51 0 51 -59.5t-41 -104.5l-157 -166zM918 1550l71 185q45 123 109 123 q51 0 51 -62q0 -55 -43 -102l-156 -166z" />
<glyph unicode="&#x171;" horiz-adv-x="1392" d="M41 891v61q184 12 309 41h70v-688q0 -117 45 -171t141 -54q154 0 359 180v457q0 92 -29 128t-107 42l-49 4v61q197 14 310 41h69v-757q0 -84 30 -123t97 -47l51 -5v-61h-372v172q-131 -106 -227.5 -148t-207.5 -42q-131 0 -218 69.5t-87 237.5v428q0 92 -28.5 128 t-106.5 42zM545 1149l71 184q27 68 51.5 95.5t57.5 27.5q51 0 51 -59.5t-41 -104.5l-157 -166zM791 1149l71 184q45 123 109 123q51 0 51 -61q0 -55 -43 -103l-156 -166z" />
<glyph unicode="&#x172;" horiz-adv-x="1597" d="M51 1331v64h598v-64l-76 -6q-78 -6 -105.5 -53t-27.5 -172v-547q0 -98 5.5 -158.5t28 -129t63.5 -106.5t114.5 -62.5t182.5 -24.5q86 0 151.5 15t108.5 36.5t72.5 64.5t45 75t22.5 93.5t8 96t1 104.5v543q0 125 -27.5 171t-105.5 54l-68 6v64h502v-64l-51 -6 q-80 -10 -106.5 -55t-26.5 -170v-682q0 -182 -86 -292t-295 -140q-68 -10 -104.5 -74t-36.5 -145q0 -55 32.5 -98.5t85.5 -43.5q39 0 85 18.5t71 47.5l51 -39q-37 -61 -105.5 -102.5t-137.5 -41.5q-98 0 -171 62.5t-73 153.5q0 125 137 249h-10q-113 0 -207 20.5t-179 66.5 t-133 136.5t-48 217.5v686q0 125 -27 170t-107 55z" />
<glyph unicode="&#x173;" horiz-adv-x="1392" d="M41 891v61q184 12 309 41h70v-688q0 -117 45 -171t141 -54q154 0 359 180v457q0 92 -29 128t-107 42l-49 4v61q197 14 310 41h69v-757q0 -84 30 -123t97 -47l51 -5v-61h-112q-90 0 -151.5 -69.5t-61.5 -163.5q0 -55 32.5 -98.5t85.5 -43.5q39 0 85.5 18.5t70.5 47.5 l51 -39q-37 -61 -105.5 -102.5t-137.5 -41.5q-98 0 -171 62.5t-73 153.5q0 141 168 276h-53v172q-131 -106 -227.5 -148t-207.5 -42q-131 0 -218 69.5t-87 237.5v428q0 92 -28.5 128t-106.5 42z" />
<glyph unicode="&#x174;" horiz-adv-x="1966" d="M-61 1331v64h557v-64q-96 -6 -130 -41t-6 -114l299 -902l244 781q-39 141 -88 197.5t-151 78.5v64h561v-64q-96 -12 -133 -44t-9 -97l299 -911l275 851q12 41 14 73t-7 52.5t-22.5 34t-39 21.5t-47 12t-56.5 8v64h516v-64q-98 -6 -141 -48t-92 -177l-398 -1106h-120 l-301 895l-299 -895h-121l-385 1106q-47 131 -80 164.5t-139 60.5zM643 1567l320 172l319 -172l-31 -45l-288 82l-291 -82z" />
<glyph unicode="&#x175;" horiz-adv-x="1597" d="M-39 932v61h483v-61q-78 -6 -104.5 -38t0.5 -101l217 -611l199 525l-35 86q-29 72 -58.5 97t-103.5 42v61h488v-61q-84 -10 -109 -42t-4 -97l213 -609l184 541q63 195 -137 207v61h453v-61q-84 -23 -126 -64t-85 -143l-287 -725h-143l-205 588l-242 -588h-133l-305 793 q-27 70 -64 101.5t-96 37.5zM510 1221l291 190l291 -190l-29 -52l-262 93l-264 -93z" />
<glyph unicode="&#x176;" horiz-adv-x="1310" d="M-61 1331v64h583v-64q-123 -16 -150.5 -48t19.5 -109l289 -467l291 446q29 43 33 75t-16.5 52t-52.5 31.5t-81 19.5v64h510v-64q-109 -23 -164 -64.5t-135 -162.5l-338 -518v-291q0 -125 27.5 -172t105.5 -53l84 -7v-63h-639v63l84 7q78 6 105.5 53t27.5 172v287 l-342 544q-68 111 -111.5 148t-129.5 57zM305 1567l320 172l319 -172l-31 -45l-288 82l-291 -82z" />
<glyph unicode="&#x177;" horiz-adv-x="1105" d="M-47 930v63h477v-61q-143 -16 -102 -117l256 -622l190 483q31 78 39 125t-10.5 72.5t-45 37t-83.5 21.5v61h450v-63q-82 -20 -127 -60.5t-82 -126.5l-354 -831l-36 -87q-13 -32 -54 -101.5t-79 -109.5t-99.5 -74t-128.5 -34q-82 0 -137.5 40t-55.5 100q0 41 32 70.5 t77 29.5q31 0 52.5 -13.5t60.5 -54.5q39 -39 67 -38q41 0 90 52t82 134l51 119l-366 856q-29 72 -58.5 95.5t-105.5 33.5zM262 1221l291 190l291 -190l-29 -52l-262 93l-264 -93z" />
<glyph unicode="&#x178;" horiz-adv-x="1310" d="M-61 1331v64h583v-64q-123 -16 -150.5 -48t19.5 -109l289 -467l291 446q29 43 33 75t-16.5 52t-52.5 31.5t-81 19.5v64h510v-64q-109 -23 -164 -64.5t-135 -162.5l-338 -518v-291q0 -125 27.5 -172t105.5 -53l84 -7v-63h-639v63l84 7q78 6 105.5 53t27.5 172v287 l-342 544q-68 111 -111.5 148t-129.5 57zM334 1630q0 51 36 86t87 35q47 0 82.5 -36t35.5 -85t-35.5 -85t-84.5 -36t-85 36t-36 85zM668 1630q0 51 35.5 86t87.5 35q47 0 82.5 -36t35.5 -85t-35.5 -85t-85 -36t-85 36t-35.5 85z" />
<glyph unicode="&#x179;" horiz-adv-x="1310" d="M20 63l965 1221q-123 25 -246 25q-201 0 -333 -70t-256 -240l-68 25l149 371h1014l23 -76l-959 -1215q154 -16 262 -16q291 0 454 83t255 275l63 -26l-147 -420h-1137zM578 1548l215 125q106 63 170 64q35 0 57 -19.5t22 -48.5q0 -68 -141 -92l-313 -53z" />
<glyph unicode="&#x17a;" horiz-adv-x="983" d="M14 59l672 856q-82 16 -137 17q-180 0 -297 -80q-78 -53 -141 -182l-64 22l115 301h766l22 -51l-686 -852q96 -29 195 -29q156 0 258 63.5t201 219.5l57 -20l-111 -324h-817zM336 1200l194 139q92 70 156 70q31 0 51.5 -21.5t20.5 -54.5q0 -76 -127 -102l-285 -60z" />
<glyph unicode="&#x17b;" horiz-adv-x="1310" d="M20 63l965 1221q-123 25 -246 25q-201 0 -333 -70t-256 -240l-68 25l149 371h1014l23 -76l-959 -1215q154 -16 262 -16q291 0 454 83t255 275l63 -26l-147 -420h-1137zM612 1630q0 51 36 86t87 35q47 0 83 -36t36 -85t-36 -85t-85 -36t-85 36t-36 85z" />
<glyph unicode="&#x17c;" horiz-adv-x="983" d="M14 59l672 856q-82 16 -137 17q-180 0 -297 -80q-78 -53 -141 -182l-64 22l115 301h766l22 -51l-686 -852q96 -29 195 -29q156 0 258 63.5t201 219.5l57 -20l-111 -324h-817zM377 1290q0 51 36 86t87 35q47 0 82.5 -36t35.5 -85t-35.5 -85t-84.5 -36t-85 36t-36 85z" />
<glyph unicode="&#x17d;" horiz-adv-x="1310" d="M20 63l965 1221q-123 25 -246 25q-201 0 -333 -70t-256 -240l-68 25l149 371h1014l23 -76l-959 -1215q154 -16 262 -16q291 0 454 83t255 275l63 -26l-147 -420h-1137zM420 1694l31 45l288 -82l291 82l29 -45l-320 -172z" />
<glyph unicode="&#x17e;" horiz-adv-x="983" d="M14 59l672 856q-82 16 -137 17q-180 0 -297 -80q-78 -53 -141 -182l-64 22l115 301h766l22 -51l-686 -852q96 -29 195 -29q156 0 258 63.5t201 219.5l57 -20l-111 -324h-817zM213 1360l27 51l264 -94l262 94l29 -51l-291 -191z" />
<glyph unicode="&#x17f;" horiz-adv-x="655" d="M41 0v61l51 5q68 8 97.5 47t29.5 123v690h-172v67h172v97q0 113 24.5 177t88.5 115q66 55 158 88t182 33q76 0 126 -32.5t50 -84.5q0 -35 -28.5 -61.5t-65.5 -26.5q-51 0 -95 58q-47 59 -96 59q-55 0 -102 -47q-47 -49 -47 -158v-974q0 -84 29.5 -123t97.5 -47l51 -5v-61 h-551z" />
<glyph unicode="&#x18e;" horiz-adv-x="1474" d="M63 436l64 29q168 -215 317.5 -296t378.5 -81q139 0 185.5 40t46.5 140v432h-152q-121 0 -179 -60t-73 -204h-69v613h69q20 -160 68.5 -210.5t179.5 -50.5h156v349q0 98 -49.5 134t-184.5 36q-209 0 -345 -68t-277 -240l-66 27l141 369h1170v-64l-51 -6 q-80 -10 -106.5 -55t-26.5 -170v-805q0 -125 26.5 -170t106.5 -55l51 -7v-63h-1194z" />
<glyph unicode="&#x192;" d="M-59 -129q0 35 25.5 59.5t64.5 24.5q68 0 94 -92q20 -70 39.5 -92.5t58.5 -22.5q53 0 94 41t70 126t46.5 155.5t37.5 189.5l121 688h-199l15 68h196l10 55q0 4 2 14q10 55 18.5 88t28 94.5t50 101.5t76 82t115 62.5t157.5 20.5q102 0 168.5 -33t66.5 -84 q0 -35 -26.5 -59.5t-65.5 -24.5q-61 0 -102 62q-27 45 -49.5 59t-61.5 14q-72 0 -103.5 -52t-58.5 -214l-32 -186h219l-15 -68h-219l-118 -686q0 -12 -8.5 -44t-16.5 -75t-29 -94l-43 -102q-23 -51 -59.5 -98.5t-78.5 -84t-101.5 -59t-126.5 -22.5q-100 0 -180 58t-80 130z " />
<glyph unicode="&#x1a0;" horiz-adv-x="1638" d="M90 702q0 301 214 510t523 209q209 0 377 -98q80 39 84 72q-90 10 -90 90q0 41 34 75.5t81 34.5t80.5 -35.5t33.5 -82.5q0 -125 -153 -199q131 -100 204.5 -252t73.5 -334q0 -264 -151 -450q-102 -125 -258 -197t-324 -72q-311 0 -520 210t-209 519zM332 700 q0 -287 133 -457.5t356 -170.5t356.5 165.5t133.5 442.5q0 297 -131 470t-357 173q-223 0 -357 -170t-134 -453z" />
<glyph unicode="&#x1a1;" horiz-adv-x="1146" d="M76 494q0 106 39 211.5t104 173.5q129 133 352 133q172 0 297 -84q61 33 68 65q-90 10 -90 90q0 41 33.5 76t81 35t81 -36t33.5 -83q0 -125 -147 -196l26 -27q123 -154 123 -363q0 -227 -137 -367t-360 -140q-229 0 -366.5 140.5t-137.5 371.5zM285 498q0 -207 77.5 -321 t219.5 -114q135 0 210.5 111t75.5 305q0 211 -78.5 331t-216.5 120q-131 0 -209.5 -117.5t-78.5 -314.5z" />
<glyph unicode="&#x1af;" horiz-adv-x="1597" d="M51 1331v64h598v-64l-76 -6q-78 -6 -105.5 -53t-27.5 -172v-547q0 -242 49 -330q82 -152 345 -151q236 0 333 114q45 53 60.5 129t15.5 242v543q0 125 -27.5 171t-105.5 54l-68 6v64h318v-84q102 43 110 84q-90 10 -90 90q0 41 34 75.5t81 34.5t81 -35.5t34 -82.5 q0 -90 -75 -150.5t-175 -81.5v-827q0 -190 -86 -289q-137 -156 -471 -156q-244 0 -387 93q-100 63 -140 141t-40 207v686q0 125 -27 170t-107 55z" />
<glyph unicode="&#x1b0;" horiz-adv-x="1392" d="M41 891v61q184 12 309 41h70v-688q0 -117 45 -171t141 -54q154 0 359 180v457q0 92 -29 128t-107 42l-49 4v61q197 14 310 41h69v-82q96 41 105 82q-90 10 -90 90q0 41 33.5 76t80.5 35t81 -36t34 -83q0 -88 -73 -147.5t-171 -83.5v-608q0 -84 30 -123t97 -47l51 -5v-61 h-372v172q-131 -106 -227.5 -148t-207.5 -42q-158 0 -239 94q-66 74 -66 213v428q0 92 -28.5 128t-106.5 42z" />
<glyph unicode="&#x1dd;" horiz-adv-x="1064" d="M76 401h710q0 248 -76.5 383.5t-271.5 135.5q-188 0 -295 -197l-67 33q150 256 424 256q129 0 230 -49.5t158.5 -128t87.5 -167.5t30 -180q0 -221 -136.5 -363t-347.5 -142q-66 0 -135.5 19t-143 63.5t-120.5 132t-47 204.5zM289 313q-2 -37 12 -89t73.5 -106.5 t155.5 -54.5q119 0 174.5 69t75.5 187h-491v-6z" />
<glyph unicode="&#x1e6;" horiz-adv-x="1638" d="M90 702q0 217 102.5 385t257 251t326.5 83q219 0 400 -125l41 99h63l125 -434l-78 -23q-127 178 -215 254q-158 131 -324 131q-205 0 -330.5 -174t-125.5 -461q0 -276 136 -446t357 -170q59 0 123 15t132.5 51t111.5 106.5t43 165t-44 136.5t-157 56v62h559v-64l-37 -6 q-53 -10 -77.5 -24.5t-40 -61.5t-15.5 -139v-369h-96l-65 141q-217 -168 -465 -168q-303 0 -505 209t-202 520zM469 1694l31 45l288 -82l291 82l29 -45l-320 -172z" />
<glyph unicode="&#x1e7;" horiz-adv-x="1105" d="M35 -244q0 76 50 128.5t165 95.5q-150 53 -150 172q0 139 201 204q-166 115 -166 291q0 152 123 258.5t299 106.5q84 0 193 -41q96 182 249 182q49 0 80 -24.5t31 -63.5q0 -33 -22.5 -55.5t-55.5 -22.5q-29 0 -59.5 19.5t-48.5 19.5q-49 0 -109 -88q170 -115 170 -291 q0 -55 -20.5 -110.5t-66.5 -110.5t-135 -89t-208 -34q-92 0 -193 33q-94 -49 -94 -109q0 -66 133 -84l392 -53q66 -8 106.5 -19.5t94 -37t81 -74.5t27.5 -121q0 -152 -149.5 -242t-397.5 -90q-229 0 -374.5 69.5t-145.5 180.5zM158 -223q0 -86 110.5 -140.5t286.5 -54.5 q215 0 309 59.5t94 131.5q0 59 -49 91t-161 46l-420 51q-170 -63 -170 -184zM266 1360l27 51l264 -94l262 94l29 -51l-291 -191zM344 659q0 -291 217 -290q215 0 215 288.5t-209 288.5q-106 0 -164.5 -76t-58.5 -211z" />
<glyph unicode="&#x1ea;" horiz-adv-x="1638" d="M90 702q0 301 214 510t523 209q315 0 520 -205.5t205 -523.5q0 -266 -148.5 -445t-373.5 -243q-72 -20 -111.5 -87t-39.5 -150q0 -55 32.5 -98.5t85.5 -43.5q39 0 85 18.5t71 47.5l51 -39q-37 -61 -105.5 -102.5t-137.5 -41.5q-98 0 -171 62.5t-73 153.5q0 127 139 249 h-37q-311 0 -520 210t-209 519zM332 700q0 -287 133 -457.5t356 -170.5t356.5 165.5t133.5 442.5q0 297 -131 470t-357 173q-223 0 -357 -170t-134 -453z" />
<glyph unicode="&#x1eb;" horiz-adv-x="1146" d="M76 494q0 61 12 124.5t48 136t89.5 128t143.5 92.5t202 37q117 0 208 -37t145.5 -92.5t90.5 -128t49 -138t13 -127.5q0 -170 -78.5 -293.5t-216.5 -177.5q-76 -31 -123 -99.5t-47 -151.5q0 -55 33 -98.5t86 -43.5q39 0 85 18.5t71 47.5l51 -39q-37 -61 -105.5 -102.5 t-138.5 -41.5q-98 0 -170.5 62.5t-72.5 153.5q0 129 147 258h-18q-229 0 -366.5 140.5t-137.5 371.5zM285 498q0 -207 77.5 -321t219.5 -114q135 0 210.5 111t75.5 305q0 211 -78.5 331t-216.5 120q-131 0 -209.5 -117.5t-78.5 -314.5z" />
<glyph unicode="&#x1f4;" horiz-adv-x="1638" d="M90 702q0 217 102.5 385t257 251t326.5 83q219 0 400 -125l41 99h63l125 -434l-78 -23q-127 178 -215 254q-158 131 -324 131q-205 0 -330.5 -174t-125.5 -461q0 -276 136 -446t357 -170q59 0 123 15t132.5 51t111.5 106.5t43 165t-44 136.5t-157 56v62h559v-64l-37 -6 q-53 -10 -77.5 -24.5t-40 -61.5t-15.5 -139v-369h-96l-65 141q-217 -168 -465 -168q-303 0 -505 209t-202 520zM627 1548l215 125q106 63 170 64q35 0 57.5 -19.5t22.5 -48.5q0 -68 -142 -92l-313 -53z" />
<glyph unicode="&#x1f5;" horiz-adv-x="1105" d="M35 -244q0 76 50 128.5t165 95.5q-150 53 -150 172q0 139 201 204q-166 115 -166 291q0 152 123 258.5t299 106.5q84 0 193 -41q96 182 249 182q49 0 80 -24.5t31 -63.5q0 -33 -22.5 -55.5t-55.5 -22.5q-29 0 -59.5 19.5t-48.5 19.5q-49 0 -109 -88q170 -115 170 -291 q0 -55 -20.5 -110.5t-66.5 -110.5t-135 -89t-208 -34q-92 0 -193 33q-94 -49 -94 -109q0 -66 133 -84l392 -53q66 -8 106.5 -19.5t94 -37t81 -74.5t27.5 -121q0 -152 -149.5 -242t-397.5 -90q-229 0 -374.5 69.5t-145.5 180.5zM158 -223q0 -86 110.5 -140.5t286.5 -54.5 q215 0 309 59.5t94 131.5q0 59 -49 91t-161 46l-420 51q-170 -63 -170 -184zM344 659q0 -291 217 -290q215 0 215 288.5t-209 288.5q-106 0 -164.5 -76t-58.5 -211zM389 1200l195 139q92 70 155 70q31 0 51.5 -21.5t20.5 -54.5q0 -76 -127 -102l-285 -60z" />
<glyph unicode="&#x1fa;" horiz-adv-x="1392" d="M-76 0v63l23 5q102 20 153.5 89.5t153.5 334.5l352 903h191l434 -1098q55 -141 93 -179t138 -55v-63h-575v63q125 18 150.5 57.5t-11.5 133.5l-102 264h-529l-65 -176q-25 -63 -34 -105t1 -79t45 -62q29 -18 131 -33v-63h-549zM426 606h461l-234 615zM514 1659 q0 78 56.5 133t134.5 55q76 0 131 -55t55 -133t-55.5 -134.5t-133 -56.5t-133 56.5t-55.5 134.5zM541 1913l215 125q106 63 170 63q35 0 57.5 -19.5t22.5 -47.5q0 -68 -142 -92l-313 -54zM590 1659q0 -47 32.5 -81t80 -34t80 34t32.5 81q0 45 -32.5 79t-77.5 34 q-47 0 -81 -33t-34 -80z" />
<glyph unicode="&#x1fb;" horiz-adv-x="1187" d="M72 236q0 59 26.5 108t72.5 82t105.5 59.5t124 41t131 26.5t125 17t105.5 12v163q0 84 -64.5 134.5t-173.5 50.5q-86 0 -146.5 -31t-60.5 -76l2 -57q0 -43 -30.5 -73.5t-73.5 -30.5q-41 0 -69.5 26.5t-28.5 63.5q0 76 70.5 137t172 92t203.5 31q70 0 133.5 -13.5t125 -45 t98 -94t36.5 -150.5v-435q0 -39 1 -60t7.5 -52t17.5 -47.5t33.5 -28.5t55.5 -12q45 0 92 41l39 -54q-82 -80 -211 -79q-174 0 -229 157q-102 -86 -187.5 -121.5t-187.5 -35.5q-137 0 -226 71.5t-89 182.5zM281 256q0 -74 52 -125t126 -51q143 0 303 151v279 q-231 -20 -356 -86t-125 -168zM375 1257.5q0 77.5 56 133t134 55.5q76 0 131.5 -55.5t55.5 -133t-55.5 -134t-133.5 -56.5t-133 56.5t-55 134zM401 1511l215 125q106 63 170 64q35 0 57.5 -19.5t22.5 -48.5q0 -68 -141 -92l-313 -53zM451 1257.5q0 -47.5 32.5 -81 t79.5 -33.5t80 33.5t33 80.5q0 45 -33 79t-78 34q-47 0 -80.5 -32.5t-33.5 -80z" />
<glyph unicode="&#x1fc;" horiz-adv-x="2580" d="M-74 0v63q145 23 246.5 82.5t214.5 190.5l938 1059h1012l153 -365l-71 -20q-106 156 -258 226.5t-377 70.5q-129 0 -176 -37t-47 -140v-344h141q55 0 93 8.5t75 32t56.5 74.5t19.5 129v19h71v-623h-71v25q0 82 -24 136t-67 75.5t-75.5 28.5t-77.5 7h-141v-454 q0 -76 46 -116t185 -40h78q242 0 426 162q92 82 194 227l70 -26l-174 -451h-1215v63l52 7q80 10 106.5 55t26.5 170v403h-510l-334 -383q-90 -113 -90 -163q0 -80 188 -89v-63h-684zM930 786h426v500zM1296 1548l215 125q106 63 170 64q35 0 57.5 -19.5t22.5 -48.5 q0 -68 -141 -92l-313 -53z" />
<glyph unicode="&#x1fd;" horiz-adv-x="1761" d="M72 233q0 61 28.5 118t98 114t213 91t346.5 34v145q0 92 -58.5 143.5t-162.5 51.5q-96 0 -154.5 -35t-58.5 -92v-33q0 -49 -29 -78.5t-78 -29.5q-39 0 -65.5 25.5t-26.5 62.5q0 106 129 184t305 78q236 0 346 -138q166 137 355 138q66 0 135 -20.5t142 -65.5t120 -136.5 t47 -214.5v-45h-739q16 -467 346 -467q201 0 323 205l66 -35q-158 -252 -432 -251q-279 0 -439 251q-74 -133 -173 -192t-253 -59q-150 0 -240.5 69t-90.5 182zM260 262q0 -80 60.5 -134t148.5 -54q92 0 168 54t102 138q16 51 19 209v55q-498 -37 -498 -268zM694 1200 l195 139q92 70 155 70q31 0 51.5 -21.5t20.5 -54.5q0 -76 -127 -102l-284 -60zM967 598h534v29q0 139 -68.5 221t-185.5 82q-43 0 -81 -10.5t-64.5 -29t-48 -40t-34.5 -49.5l-24 -52q-10 -24 -15 -51.5t-7 -45.5l-4 -36z" />
<glyph unicode="&#x1fe;" horiz-adv-x="1638" d="M90 694q0 307 213 517t526 210q227 0 410 -112l154 194h125l-203 -252q127 -127 182 -257t55 -298q0 -170 -64.5 -310t-171 -228t-235.5 -136.5t-264 -48.5q-211 0 -411 119l-160 -201h-129l211 265q-238 229 -238 538zM332 688q0 -121 22.5 -206t81.5 -189l711 899 q-78 72 -150.5 101.5t-171.5 29.5q-229 0 -361 -170t-132 -465zM498 211q137 -139 325 -139q221 0 354.5 165.5t133.5 440.5q0 137 -22.5 232.5t-80.5 197.5zM668 1548l215 125q106 63 170 64q35 0 57.5 -19.5t22.5 -48.5q0 -68 -142 -92l-313 -53z" />
<glyph unicode="&#x1ff;" horiz-adv-x="1146" d="M76 483q0 240 135 384.5t360 144.5q150 0 242 -51l92 151h96l-116 -192q90 -68 141 -181.5t51 -244.5q0 -229 -136 -370.5t-359 -141.5q-147 0 -240 51l-72 -119h-102l100 162q-192 145 -192 407zM285 489q0 -166 61 -284l404 655q-68 70 -168 70q-139 0 -218 -118 t-79 -323zM403 131q72 -68 183 -68q133 0 207.5 111t74.5 309q0 197 -63 308zM403 1200l195 139q92 70 156 70q31 0 51 -21.5t20 -54.5q0 -76 -127 -102l-284 -60z" />
<glyph unicode="&#x200;" horiz-adv-x="1392" d="M-76 0v63l23 5q102 20 153.5 89.5t153.5 334.5l352 903h191l434 -1098q55 -141 93 -179t138 -55v-63h-575v63q125 18 150.5 57.5t-11.5 133.5l-102 264h-529l-65 -176q-25 -63 -34 -105t1 -79t45 -62q29 -18 131 -33v-63h-549zM373 1796q0 61 51 62q63 0 108 -123 l72 -185l-33 -22l-155 166q-43 47 -43 102zM426 606h461l-234 615zM618 1798.5q0 59.5 52 59.5q33 0 57.5 -28t50.5 -95l72 -185l-33 -22l-158 166q-41 45 -41 104.5z" />
<glyph unicode="&#x201;" horiz-adv-x="1187" d="M72 236q0 59 26.5 108t72.5 82t105.5 59.5t124 41t131 26.5t125 17t105.5 12v163q0 84 -64.5 134.5t-173.5 50.5q-86 0 -146.5 -31t-60.5 -76l2 -57q0 -43 -30.5 -73.5t-73.5 -30.5q-41 0 -69.5 26.5t-28.5 63.5q0 76 70.5 137t172 92t203.5 31q70 0 133.5 -13.5t125 -45 t98 -94t36.5 -150.5v-435q0 -39 1 -60t7.5 -52t17.5 -47.5t33.5 -28.5t55.5 -12q45 0 92 41l39 -54q-82 -80 -211 -79q-174 0 -229 157q-102 -86 -187.5 -121.5t-187.5 -35.5q-137 0 -226 71.5t-89 182.5zM233 1395q0 61 52 61q63 0 108 -123l72 -184l-33 -23l-156 166 q-43 48 -43 103zM281 256q0 -74 52 -125t126 -51q143 0 303 151v279q-231 -20 -356 -86t-125 -168zM479 1396.5q0 59.5 51 59.5q33 0 57.5 -27.5t51.5 -95.5l72 -184l-33 -23l-158 166q-41 45 -41 104.5z" />
<glyph unicode="&#x204;" horiz-adv-x="1474" d="M63 0v63l52 7q80 10 106.5 55t26.5 170v805q0 125 -26.5 170t-106.5 55l-52 6v64h1170l141 -369l-65 -27q-141 172 -277.5 240t-345.5 68q-135 0 -184 -36t-49 -134v-349h155q131 0 179.5 50.5t68.5 210.5h70v-613h-70q-14 143 -72.5 203.5t-179.5 60.5h-151v-432 q0 -100 46 -140t185 -40q229 0 378.5 81t317.5 296l64 -29l-187 -436h-1194zM332 1796q0 61 51 62q63 0 109 -123l71 -185l-33 -22l-155 166q-43 47 -43 102zM578 1798.5q0 59.5 51 59.5q33 0 57.5 -28t50.5 -95l72 -185l-33 -22l-158 166q-40 45 -40 104.5z" />
<glyph unicode="&#x205;" horiz-adv-x="1064" d="M76 506q0 221 136 363.5t347 142.5q66 0 135.5 -19.5t143 -63.5t121 -132t47.5 -205h-711q0 -248 77 -383t271 -135q188 0 295 196l68 -32q-150 -256 -424 -256q-129 0 -230.5 49t-159 128t-87 168t-29.5 179zM229 1395q0 61 52 61q63 0 108 -123l72 -184l-33 -23 l-156 166q-43 48 -43 103zM301 674h492v6q2 37 -12.5 89t-74 106.5t-155.5 54.5q-119 0 -174.5 -68.5t-75.5 -187.5zM475 1396.5q0 59.5 51 59.5q33 0 57.5 -27.5t51.5 -95.5l72 -184l-33 -23l-158 166q-41 45 -41 104.5z" />
<glyph unicode="&#x208;" horiz-adv-x="696" d="M10 1796q0 61 51 62q63 0 109 -123l72 -185l-33 -22l-156 166q-43 47 -43 102zM63 0v63l41 7q84 14 109 56t25 169v805q0 127 -25 169t-109 56l-41 6v64h553v-64l-41 -6q-84 -14 -108.5 -56t-24.5 -169v-805q0 -127 25 -169t108 -56l41 -7v-63h-553zM256 1798.5 q0 59.5 51 59.5q33 0 57.5 -28t51.5 -95l71 -185l-32 -22l-158 166q-41 45 -41 104.5z" />
<glyph unicode="&#x209;" horiz-adv-x="614" d="M-12 1395q0 61 51 61q63 0 108 -123l72 -184l-33 -23l-155 166q-43 48 -43 103zM41 0v61l51 5q68 8 97.5 47t29.5 123v481q0 92 -27.5 127t-107.5 43l-41 4v61q127 10 301 41h70v-757q0 -84 28.5 -123t98.5 -47l49 -5v-61h-549zM233 1396.5q0 59.5 52 59.5 q33 0 57.5 -27.5t50.5 -95.5l72 -184l-33 -23l-158 166q-41 45 -41 104.5z" />
<glyph unicode="&#x20c;" horiz-adv-x="1638" d="M90 702q0 301 214 510t523 209q315 0 520 -205.5t205 -523.5q0 -170 -64.5 -309t-170 -227t-234.5 -135.5t-264 -47.5q-311 0 -520 210t-209 519zM332 700q0 -287 133 -457.5t356 -170.5t356.5 165.5t133.5 442.5q0 297 -131 470t-357 173q-223 0 -357 -170t-134 -453z M498 1796q0 61 51 62q63 0 108 -123l72 -185l-33 -22l-155 166q-43 47 -43 102zM743 1798.5q0 59.5 52 59.5q33 0 57.5 -28t50.5 -95l72 -185l-33 -22l-158 166q-41 45 -41 104.5z" />
<glyph unicode="&#x20d;" horiz-adv-x="1146" d="M76 494q0 61 12 124.5t48 136t89.5 128t143.5 92.5t202 37q117 0 208 -37t145.5 -92.5t90.5 -128t49 -138t13 -127.5q0 -227 -137 -367t-360 -140q-229 0 -366.5 140.5t-137.5 371.5zM242 1395q0 61 51 61q63 0 108 -123l72 -184l-33 -23l-155 166q-43 48 -43 103z M285 498q0 -207 77.5 -321t219.5 -114q135 0 210.5 111t75.5 305q0 211 -78.5 331t-216.5 120q-131 0 -209.5 -117.5t-78.5 -314.5zM487 1396.5q0 59.5 52 59.5q33 0 57.5 -27.5t50.5 -95.5l72 -184l-33 -23l-158 166q-41 45 -41 104.5z" />
<glyph unicode="&#x210;" horiz-adv-x="1474" d="M63 0v63l52 7q80 10 106.5 55t26.5 170v805q0 125 -26.5 170t-106.5 55l-52 6v64h834q221 0 347 -94.5t126 -258.5q0 -49 -13.5 -95t-48 -104.5t-116.5 -103.5t-201 -61l340 -481q47 -61 95.5 -90t123.5 -44v-63h-342l-460 657h-295v-362q0 -125 27.5 -171t105.5 -54 l73 -7v-63h-596zM418 1796q0 61 51 62q63 0 109 -123l71 -185l-33 -22l-155 166q-43 47 -43 102zM453 745h344q90 0 156.5 21.5t103.5 52.5t58.5 73t27.5 74.5t6 67.5q0 276 -393 277q-182 0 -242.5 -30t-60.5 -91v-445zM664 1798.5q0 59.5 51 59.5q33 0 57.5 -28t50.5 -95 l72 -185l-33 -22l-157 166q-41 45 -41 104.5z" />
<glyph unicode="&#x211;" horiz-adv-x="901" d="M41 891v61q156 10 309 41h70v-164q8 6 60 51.5t81 66t87.5 43t117.5 22.5q66 0 107.5 -32t41.5 -83q0 -49 -32.5 -81t-83.5 -32q-55 0 -105 37q-47 31 -86 31q-86 0 -188 -115v-501q0 -84 29.5 -123t97.5 -47l51 -5v-61h-551v61l51 5q68 8 97.5 47t29.5 123v481 q0 92 -28.5 128t-106.5 42zM90 1395q0 61 51 61q63 0 109 -123l72 -184l-33 -23l-156 166q-43 48 -43 103zM336 1396.5q0 59.5 51 59.5q33 0 57.5 -27.5t51.5 -95.5l71 -184l-32 -23l-158 166q-41 45 -41 104.5z" />
<glyph unicode="&#x214;" horiz-adv-x="1597" d="M51 1331v64h598v-64l-76 -6q-78 -6 -105.5 -53t-27.5 -172v-547q0 -98 5.5 -158.5t28 -129t63.5 -106.5t114.5 -62.5t182.5 -24.5q86 0 151.5 15t108.5 36.5t72.5 64.5t45 75t22.5 93.5t8 96t1 104.5v543q0 125 -27.5 171t-105.5 54l-68 6v64h502v-64l-51 -6 q-80 -10 -106.5 -55t-26.5 -170v-682q0 -217 -124 -331t-433 -114q-113 0 -207 20.5t-179 66.5t-133 136.5t-48 217.5v686q0 125 -27 170t-107 55zM489 1796q0 61 52 62q63 0 108 -123l72 -185l-33 -22l-156 166q-43 47 -43 102zM735 1798.5q0 59.5 51 59.5q33 0 57.5 -28 t51.5 -95l72 -185l-33 -22l-158 166q-41 45 -41 104.5z" />
<glyph unicode="&#x215;" horiz-adv-x="1392" d="M41 891v61q184 12 309 41h70v-688q0 -117 45 -171t141 -54q154 0 359 180v457q0 92 -29 128t-107 42l-49 4v61q197 14 310 41h69v-757q0 -84 30 -123t97 -47l51 -5v-61h-372v172q-131 -106 -227.5 -148t-207.5 -42q-131 0 -218 69.5t-87 237.5v428q0 92 -28.5 128 t-106.5 42zM362 1395q0 61 52 61q63 0 108 -123l72 -184l-33 -23l-155 166q-44 48 -44 103zM608 1396.5q0 59.5 51 59.5q33 0 57.5 -27.5t51.5 -95.5l72 -184l-33 -23l-158 166q-41 45 -41 104.5z" />
<glyph unicode="&#x218;" horiz-adv-x="1351" d="M57 469l76 25q106 -205 258 -313.5t328 -108.5q158 0 264.5 87t106.5 218q0 92 -60.5 144t-212.5 89l-274 70q-18 6 -42 11t-52 16l-61 21q-32 11 -63.5 28.5t-61.5 37t-55.5 47t-45 58.5t-30.5 71t-11 85q0 133 118.5 249.5t350.5 116.5q221 0 387 -100l24 74h74 l125 -371l-65 -25q-211 324 -504 324q-127 0 -214 -63.5t-87 -155.5q0 -82 64.5 -134t213.5 -89l256 -62q231 -55 332.5 -143t101.5 -262q0 -184 -164.5 -312.5t-404.5 -128.5q-242 0 -424 129l-39 -102h-76zM520 -227.5q0 51.5 38 88.5t89 37q59 0 101.5 -49.5t42.5 -118.5 q0 -88 -53.5 -161t-147.5 -118l-23 45q119 76 127 189q-37 -29 -63 -29q-49 0 -80 32.5t-31 84z" />
<glyph unicode="&#x219;" horiz-adv-x="1064" d="M82 373h70q39 -109 86 -162q57 -70 144 -109t183 -39q113 0 188.5 54.5t75.5 134.5q0 96 -149 135l-262 66q-162 41 -233.5 102t-71.5 158q0 125 108.5 212t265.5 87q166 0 293 -101l21 74h57l66 -315h-66q-51 121 -146.5 190.5t-211.5 69.5q-90 0 -148.5 -44t-58.5 -110 q0 -33 13 -55.5t42 -36.5t49.5 -21.5t55.5 -15.5l284 -69q133 -33 196.5 -96.5t63.5 -168.5q0 -143 -120.5 -237t-305.5 -94q-100 0 -173.5 24.5t-155.5 87.5l-23 -86h-67zM395 -227.5q0 51.5 38 88.5t89 37q59 0 101.5 -49.5t42.5 -118.5q0 -88 -53.5 -161t-147.5 -118 l-23 45q119 76 127 189q-37 -29 -63 -29q-49 0 -80 32.5t-31 84z" />
<glyph unicode="&#x21a;" d="M-76 1034l117 361h1188l114 -361l-71 -24q-176 307 -451 307q-51 0 -67.5 -18.5t-16.5 -71.5v-932q0 -125 28 -172t105 -53l80 -7v-63h-631v63l80 7q78 6 105.5 53t27.5 172v940q0 47 -19 64.5t-71 17.5q-276 0 -450 -307zM500 -227.5q0 51.5 37.5 88.5t89.5 37 q59 0 101 -49.5t42 -118.5q0 -88 -53 -161t-148 -118l-22 45q119 76 127 189q-37 -29 -64 -29q-49 0 -79.5 32.5t-30.5 84z" />
<glyph unicode="&#x21b;" horiz-adv-x="778" d="M41 926v67q152 6 221.5 95.5t67.5 277.5h78v-373h292v-67h-292v-592q0 -270 153 -271q86 0 178 107l56 -45q-111 -143 -289 -143q-74 0 -135.5 19t-109.5 80.5t-48 158.5v686h-172zM272 -227.5q0 51.5 38 88.5t89 37q59 0 101.5 -49.5t42.5 -118.5q0 -88 -53.5 -161 t-147.5 -118l-23 45q119 76 127 189q-37 -29 -63 -29q-49 0 -80 32.5t-31 84z" />
<glyph unicode="&#x258;" horiz-adv-x="1064" d="M76 238l67 32q106 -197 295 -196q195 0 271.5 135t76.5 383h-710q0 117 47 205t120.5 132t143.5 63.5t135 19.5q211 0 347.5 -142.5t136.5 -363.5q0 -90 -30 -179t-87.5 -168t-158.5 -128t-230 -49q-274 0 -424 256zM289 674h491q-20 119 -75.5 187.5t-174.5 68.5 q-96 0 -155.5 -54.5t-73.5 -106.5t-12 -89v-6z" />
<glyph unicode="&#x259;" horiz-adv-x="1064" d="M76 401h710q0 248 -76.5 383.5t-271.5 135.5q-188 0 -295 -197l-67 33q150 256 424 256q129 0 230 -49.5t158.5 -128t87.5 -167.5t30 -180q0 -221 -136.5 -363t-347.5 -142q-66 0 -135.5 19t-143 63.5t-120.5 132t-47 204.5zM289 313q-2 -37 12 -89t73.5 -106.5 t155.5 -54.5q119 0 174.5 69t75.5 187h-491v-6z" />
<glyph unicode="&#x2be;" horiz-adv-x="825" d="M84 1204q106 166 307 166q158 0 255 -99.5t97 -258.5q0 -55 -16 -111.5t-52 -116t-109.5 -96.5t-172.5 -37q-137 0 -216 65.5t-79 137.5q0 39 26 65.5t60 26.5q37 0 61.5 -24.5t24.5 -61.5v-47q0 -31 36 -52.5t83 -21.5q182 0 182 279q0 119 -60 192.5t-159 73.5 q-57 0 -102 -28.5t-100 -96.5q-8 -14 -21 -2l-41 25q-12 8 -4 22z" />
<glyph unicode="&#x2bf;" horiz-adv-x="825" d="M82 1010q0 55 16.5 111.5t52 115.5t109.5 96t172 37q137 0 216 -65.5t79 -137.5q0 -39 -25.5 -65.5t-60.5 -26.5q-37 0 -61.5 24.5t-24.5 61.5v47q0 31 -36 52.5t-83 21.5q-182 0 -182 -278q0 -119 60.5 -193t158.5 -74q57 0 102.5 29t100.5 96q8 14 20 2l41 -24 q12 -8 4 -23q-106 -166 -307 -166q-158 0 -255 99.5t-97 259.5z" />
<glyph unicode="&#x2c6;" horiz-adv-x="860" d="M139 1221l291 190l291 -190l-29 -52l-262 93l-264 -93z" />
<glyph unicode="&#x2c7;" horiz-adv-x="860" d="M139 1360l27 51l264 -94l262 94l29 -51l-291 -191z" />
<glyph unicode="&#x2d8;" horiz-adv-x="942" d="M139 1376l47 37q131 -106 291 -106q76 0 155 29.5t132 76.5l47 -37q-47 -94 -139 -150.5t-199 -56.5q-113 0 -200 54.5t-134 152.5z" />
<glyph unicode="&#x2d9;" horiz-adv-x="532" d="M139 1290q0 51 36 86t87 35q47 0 83 -36t36 -85t-36 -85t-85 -36t-85 36t-36 85z" />
<glyph unicode="&#x2da;" horiz-adv-x="655" d="M139 1292q0 78 56.5 133.5t134.5 55.5q76 0 131 -55.5t55 -133.5t-55 -134t-133 -56t-133.5 56t-55.5 134zM215 1292q0 -47 33 -80.5t80 -33.5t79.5 33.5t32.5 80.5q0 45 -32.5 79t-77.5 34q-47 0 -81 -33t-34 -80z" />
<glyph unicode="&#x2db;" horiz-adv-x="655" d="M61 -276q0 150 195 296h131q-76 -35 -120 -103.5t-44 -149.5q0 -55 33 -98.5t86 -43.5q39 0 85 18.5t71 47.5l51 -39q-37 -61 -105.5 -102.5t-138.5 -41.5q-98 0 -171 63t-73 153z" />
<glyph unicode="&#x2dc;" horiz-adv-x="901" d="M139 1239q20 63 68.5 101t108 38t194.5 -37q63 -18 100 -18q63 0 99 45l59 -18q-23 -78 -67 -113t-117 -35q-66 0 -195 37q-80 20 -110 21q-45 0 -80 -41z" />
<glyph unicode="&#x2dd;" horiz-adv-x="778" d="M242 1149l71 184q27 68 51.5 95.5t57.5 27.5q51 0 51 -59.5t-41 -104.5l-158 -166zM487 1149l72 184q45 123 109 123q51 0 51 -61q0 -55 -43 -103l-156 -166z" />
<glyph unicode="&#x300;" horiz-adv-x="0" d="M-848 1333q0 33 20.5 54.5t51.5 21.5q63 0 155 -70l195 -139l-10 -29l-285 60q-127 26 -127 102z" />
<glyph unicode="&#x301;" horiz-adv-x="0" d="M-762 1200l195 139q92 70 155 70q31 0 51.5 -21.5t20.5 -54.5q0 -76 -127 -102l-285 -60z" />
<glyph unicode="&#x302;" horiz-adv-x="0" d="M-885 1221l291 190l291 -190l-29 -52l-262 93l-264 -93z" />
<glyph unicode="&#x303;" horiz-adv-x="0" d="M-905 1239q20 63 68.5 101t107.5 38t194 -37q63 -18 101 -18q63 0 98 45l60 -18q-23 -78 -67 -113t-118 -35q-66 0 -194 37q-80 20 -111 21q-45 0 -80 -41z" />
<glyph unicode="&#x304;" horiz-adv-x="0" d="M-905 1239v102h606v-102h-606z" />
<glyph unicode="&#x306;" horiz-adv-x="0" d="M-926 1376l47 37q131 -106 291 -106q76 0 155 29.5t132 76.5l47 -37q-47 -94 -139 -150.5t-199 -56.5q-113 0 -200 54.5t-134 152.5z" />
<glyph unicode="&#x307;" horiz-adv-x="0" d="M-721 1290q0 51 36 86t87 35q47 0 83 -36t36 -85t-36 -85t-85 -36t-85 36t-36 85z" />
<glyph unicode="&#x308;" horiz-adv-x="0" d="M-885 1290q0 51 36 86t87 35q47 0 83 -36t36 -85t-36 -85t-85 -36t-85 36t-36 85zM-551 1290q0 51 36 86t87 35q47 0 83 -36t36 -85t-36 -85t-85 -36t-85 36t-36 85z" />
<glyph unicode="&#x309;" horiz-adv-x="0" d="M-791 1362q0 59 60.5 107.5t161.5 48.5q86 0 150.5 -46.5t64.5 -123.5q0 -109 -150 -168q-35 -14 -46 -37t-11 -80h-82q0 2 -1 22.5t-1 30.5q0 45 13.5 69.5t51.5 51.5l45 29q43 29 43 90q0 90 -86 90q-39 0 -64.5 -14.5t-25.5 -36.5q0 -2 4 -19v2q12 -25 13 -37 q0 -23 -20.5 -41t-45.5 -18q-33 0 -53.5 22.5t-20.5 57.5z" />
<glyph unicode="&#x30a;" horiz-adv-x="0" d="M-782 1292q0 78 56 133.5t134 55.5q76 0 131 -55.5t55 -133.5t-55 -134t-133 -56t-133 56t-55 134zM-707 1292q0 -47 33 -80.5t80 -33.5t80 33.5t33 80.5q0 45 -33 79t-78 34q-47 0 -81 -33t-34 -80z" />
<glyph unicode="&#x30b;" horiz-adv-x="0" d="M-741 1149l71 184q27 68 51.5 95.5t57.5 27.5q51 0 51 -59.5t-41 -104.5l-158 -166zM-496 1149l72 184q45 123 109 123q51 0 51 -61q0 -55 -43 -103l-156 -166z" />
<glyph unicode="&#x30c;" horiz-adv-x="0" d="M-885 1360l27 51l264 -94l262 94l29 -51l-291 -191z" />
<glyph unicode="&#x30f;" horiz-adv-x="0" d="M-924 1395q0 61 52 61q63 0 108 -123l72 -184l-33 -23l-156 166q-43 48 -43 103zM-678 1396.5q0 59.5 51 59.5q33 0 57.5 -27.5t51.5 -95.5l72 -184l-33 -23l-158 166q-41 45 -41 104.5z" />
<glyph unicode="&#x311;" horiz-adv-x="0" d="M-926 1206q47 94 139.5 150.5t198.5 56.5q113 0 200 -54t134 -153l-47 -37q-131 106 -291 107q-76 0 -154.5 -29.5t-132.5 -77.5z" />
<glyph unicode="&#x323;" horiz-adv-x="0" d="M-721 -307q0 51 36 86t87 35q47 0 83 -36t36 -85t-36 -85t-85 -36t-85 36t-36 85z" />
<glyph unicode="&#x326;" horiz-adv-x="0" d="M-729 -227.5q0 51.5 38 88.5t89 37q59 0 101 -49.5t42 -118.5q0 -88 -53 -161t-147 -118l-23 45q119 76 127 189q-37 -29 -63 -29q-49 0 -80 32.5t-31 84z" />
<glyph unicode="&#x32e;" horiz-adv-x="0" d="M-963 -229l52 32q143 -96 321 -96q186 0 314 96l53 -32q-51 -84 -153.5 -135.5t-219.5 -51.5q-261 1 -367 187z" />
<glyph unicode="&#x32f;" horiz-adv-x="0" d="M-963 -383q53 84 154.5 135t218.5 51q260 0 367 -186l-51 -33q-143 96 -322 97q-186 0 -313 -97z" />
<glyph unicode="&#x330;" horiz-adv-x="0" d="M-905 -358q20 63 68.5 101t107.5 38t194 -37q63 -18 101 -18q63 0 98 45l60 -19q-23 -78 -67 -112.5t-118 -34.5q-66 0 -194 37q-80 20 -111 20q-45 0 -80 -41z" />
<glyph unicode="&#x331;" horiz-adv-x="0" d="M-905 -256h606v-102h-606v102z" />
<glyph unicode="&#x332;" horiz-adv-x="0" d="M-905 -256h606v-102h-606v102z" />
<glyph unicode="&#x391;" horiz-adv-x="1392" d="M-76 0v63l23 5q102 20 153.5 89.5t153.5 334.5l352 903h191l434 -1098q55 -141 93 -179t138 -55v-63h-575v63q125 18 150.5 57.5t-11.5 133.5l-102 264h-529l-65 -176q-25 -63 -34 -105t1 -79t45 -62q29 -18 131 -33v-63h-549zM426 606h461l-234 615z" />
<glyph unicode="&#x392;" horiz-adv-x="1515" d="M63 0v63l52 7q80 10 106.5 55t26.5 170v805q0 125 -26.5 170t-106.5 55l-52 6v64h721q129 0 227.5 -15.5t180.5 -50.5t125 -102.5t43 -163.5q0 -66 -28.5 -118t-62.5 -79.5t-86.5 -50t-72.5 -28.5l-47 -11q14 0 48 -12t75 -24.5t86 -42t82 -65.5t60.5 -93.5t23.5 -126.5 q0 -47 -9.5 -88t-32 -91.5t-67.5 -89.5t-111.5 -72.5t-171 -52t-235.5 -18.5h-748zM453 315q0 -72 5 -104.5t29.5 -67t80 -47t151.5 -12.5q227 0 357 74.5t130 263.5q0 70 -16 121t-53 82.5t-75 50t-105.5 28t-120 11.5t-142.5 2h-241v-402zM453 805h237q246 0 353.5 58.5 t107.5 193.5q0 258 -422 258q-176 0 -226 -32t-50 -142v-336z" />
<glyph unicode="&#x393;" horiz-adv-x="1310" d="M63 0v63l52 7q80 10 106.5 55t26.5 170v805q0 125 -26.5 170t-106.5 55l-52 6v64h1129l147 -351l-65 -32q-133 160 -269.5 228.5t-322.5 68.5q-82 0 -129 -11.5t-68.5 -42t-26.5 -60.5t-5 -87v-813q0 -125 27.5 -171t105.5 -54l67 -7v-63h-590z" />
<glyph unicode="&#x394;" horiz-adv-x="1228" d="M18 0v84l517 1311h163l512 -1311v-84h-1192zM147 106h857l-431 1108z" />
<glyph unicode="&#x395;" horiz-adv-x="1474" d="M63 0v63l52 7q80 10 106.5 55t26.5 170v805q0 125 -26.5 170t-106.5 55l-52 6v64h1170l141 -369l-65 -27q-141 172 -277.5 240t-345.5 68q-135 0 -184 -36t-49 -134v-349h155q131 0 179.5 50.5t68.5 210.5h70v-613h-70q-14 143 -72.5 203.5t-179.5 60.5h-151v-432 q0 -100 46 -140t185 -40q229 0 378.5 81t317.5 296l64 -29l-187 -436h-1194z" />
<glyph unicode="&#x396;" horiz-adv-x="1310" d="M20 63l965 1221q-123 25 -246 25q-201 0 -333 -70t-256 -240l-68 25l149 371h1014l23 -76l-959 -1215q154 -16 262 -16q291 0 454 83t255 275l63 -26l-147 -420h-1137z" />
<glyph unicode="&#x397;" horiz-adv-x="1638" d="M63 0v63l52 7q80 10 106.5 55t26.5 170v805q0 125 -26.5 170t-106.5 55l-52 6v64h574v-64l-51 -6q-80 -10 -106.5 -55t-26.5 -170v-305h733v305q0 125 -26.5 170t-106.5 55l-52 6v64h574v-64l-51 -6q-80 -10 -106.5 -55t-26.5 -170v-805q0 -125 26.5 -170t106.5 -55 l51 -7v-63h-574v63l52 7q80 10 106.5 55t26.5 170v412h-733v-412q0 -125 26.5 -170t106.5 -55l51 -7v-63h-574z" />
<glyph unicode="&#x398;" horiz-adv-x="1638" d="M106 696q0 219 99.5 381t265.5 252q170 90 367 90q322 0 507 -194.5t185 -519.5q0 -336 -190.5 -533t-520.5 -197q-326 0 -519.5 198.5t-193.5 522.5zM324 686q0 -250 120 -420q135 -190 377 -190q229 0 361.5 183t132.5 446q0 270 -121 438t-354 168q-250 0 -383 -173 t-133 -452zM502 440v564h96v-41q0 -162 172 -162h96q174 0 174 162v41h97v-564h-97v72q0 78 -42 107.5t-132 29.5h-96q-172 0 -172 -166v-43h-96z" />
<glyph unicode="&#x399;" horiz-adv-x="696" d="M63 0v63l41 7q84 14 109 56t25 169v805q0 127 -25 169t-109 56l-41 6v64h553v-64l-41 -6q-84 -14 -108.5 -56t-24.5 -169v-805q0 -127 25 -169t108 -56l41 -7v-63h-553z" />
<glyph unicode="&#x39a;" horiz-adv-x="1474" d="M63 0v63l52 7q80 10 106.5 55t26.5 170v805q0 125 -26.5 170t-106.5 55l-52 6v64h607v-64l-84 -6q-78 -6 -105.5 -53t-27.5 -172v-393l419 376q78 70 99.5 98.5t21.5 63.5q0 41 -26.5 59.5t-92.5 24.5l-20 2v64h586v-64l-15 -4q-133 -25 -325 -188l-246 -215l389 -635 q76 -117 132.5 -161t160.5 -67v-61h-631v63q33 4 37 5q76 6 104.5 33.5t19.5 65.5t-46 97l-330 527l-237 -211v-285q0 -125 27.5 -172t105.5 -53l84 -7v-63h-607z" />
<glyph unicode="&#x39b;" horiz-adv-x="1392" d="M-76 0v63l23 5q102 20 153.5 89.5t153.5 334.5l352 903h191l434 -1098q55 -141 93 -179t138 -55v-63h-575v63q125 18 150.5 57.5t-11.5 133.5l-373 967l-323 -879q-25 -63 -34 -105t1 -79t45 -62q29 -18 131 -33v-63h-549z" />
<glyph unicode="&#x39c;" horiz-adv-x="1884" d="M53 0v63l64 7q78 8 105.5 54t27.5 171v805q0 125 -26.5 170t-106.5 55l-51 6v64h477l393 -1055l428 1055h467v-64l-51 -6q-80 -10 -106.5 -55t-26.5 -170v-805q0 -125 26.5 -170t106.5 -55l51 -7v-63h-574v63l52 7q80 10 106.5 55t26.5 170v954l-514 -1249h-92l-469 1274 v-979q0 -125 27.5 -171t105.5 -54l71 -7v-63h-518z" />
<glyph unicode="&#x39d;" horiz-adv-x="1515" d="M53 0v63l51 7q80 10 107 55t27 170v805q0 125 -27 170t-107 55l-51 6v64h457l668 -1104v809q0 125 -28 171t-106 54l-71 6v64h506v-64l-52 -6q-80 -10 -106.5 -55t-26.5 -170v-1100h-180l-760 1241v-946q0 -125 28 -171t105 -54l72 -7v-63h-506z" />
<glyph unicode="&#x39e;" horiz-adv-x="1468" d="M41 469l90 33q90 -219 260 -307q84 -45 264 -45h158q123 0 209 22q209 57 315 330l90 -33l-118 -469h-1149zM109 999l96 396h1061l94 -396l-86 -32q-76 215 -238 262q-49 14 -202 14h-197q-133 0 -186 -12q-174 -39 -254 -264zM393 416v612h96v-22q0 -109 45.5 -157 t151.5 -48h96q160 0 187 92q12 39 12 113v22h96v-612h-96v53q0 100 -46 140t-153 40h-96q-197 0 -197 -207v-26h-96z" />
<glyph unicode="&#x39f;" horiz-adv-x="1638" d="M90 702q0 301 214 510t523 209q315 0 520 -205.5t205 -523.5q0 -170 -64.5 -309t-170 -227t-234.5 -135.5t-264 -47.5q-311 0 -520 210t-209 519zM332 700q0 -287 133 -457.5t356 -170.5t356.5 165.5t133.5 442.5q0 297 -131 470t-357 173q-223 0 -357 -170t-134 -453z " />
<glyph unicode="&#x3a0;" horiz-adv-x="1761" d="M125 0v63l51 7q80 10 106.5 55t26.5 170v805q0 125 -26.5 170t-106.5 55l-51 6v64h1511v-64l-51 -6q-80 -10 -106.5 -55t-26.5 -170v-805q0 -125 26.5 -170t106.5 -55l51 -7v-63h-573v63l51 7q80 10 106.5 55t26.5 170v805q0 129 -27.5 177t-105.5 48h-467 q-78 0 -105.5 -48t-27.5 -177v-805q0 -125 26.5 -170t106.5 -55l51 -7v-63h-573z" />
<glyph unicode="&#x3a1;" d="M63 0v63l52 7q80 10 106.5 55t26.5 170v805q0 125 -26.5 170t-106.5 55l-52 6v64h680q238 0 375 -105.5t137 -285.5q0 -68 -22.5 -131.5t-74.5 -130t-159.5 -106.5t-257.5 -40h-288v-301q0 -125 27.5 -172t105.5 -53l76 -7v-63h-599zM453 684h256q96 0 166.5 29.5 t105.5 79t50.5 99.5t15.5 105q0 311 -361 312q-147 0 -190 -24.5t-43 -106.5v-494z" />
<glyph unicode="&#x3a3;" horiz-adv-x="1310" d="M41 0v84l463 633l-438 594v84h925l170 -369l-86 -41q-84 156 -197.5 228.5t-316.5 72.5h-276l397 -532l-436 -604h393q217 0 342 73q133 82 219 273l92 -33l-159 -463h-1092z" />
<glyph unicode="&#x3a4;" d="M-76 1034l117 361h1188l114 -361l-71 -24q-176 307 -451 307q-51 0 -67.5 -18.5t-16.5 -71.5v-932q0 -125 28 -172t105 -53l80 -7v-63h-631v63l80 7q78 6 105.5 53t27.5 172v940q0 47 -19 64.5t-71 17.5q-276 0 -450 -307z" />
<glyph unicode="&#x3a5;" horiz-adv-x="1310" d="M-20 930q0 465 231 465q319 0 418 -459q51 209 160.5 334t283.5 125q133 0 191.5 -134.5t58.5 -330.5h-82q0 113 -43 192.5t-125 79.5q-346 0 -346 -690v-217q0 -125 27.5 -172t105.5 -53l84 -7v-63h-639v63l84 7q78 6 105.5 53t27.5 172v217q0 143 -10 248.5t-40 215 t-95.5 168t-165.5 58.5q-78 0 -114 -79t-36 -193h-81z" />
<glyph unicode="&#x3a6;" horiz-adv-x="1650" d="M47 696q0 268 223 369q150 68 459 78v35q0 80 -29.5 106.5t-111.5 26.5h-33v84h541v-84h-33q-84 0 -113.5 -27t-29.5 -106v-35q307 -6 460 -78q221 -104 222 -375q0 -262 -228 -366q-147 -70 -454 -70v-37q0 -82 29.5 -107.5t113.5 -25.5h33v-84h-541v84h33 q82 0 111.5 27.5t29.5 105.5v37q-311 6 -459 76q-223 104 -223 366zM258 690q0 -195 145 -272q104 -53 326 -60v678q-238 -6 -354.5 -79.5t-116.5 -266.5zM920 358q240 0 355.5 73t115.5 267q0 203 -142 281q-100 55 -329 57v-678z" />
<glyph unicode="&#x3a7;" horiz-adv-x="1474" d="M-61 0v63q129 41 202.5 94.5t177.5 182.5l324 383l-352 448q-63 84 -116.5 117t-141.5 43v64h635v-64q-119 -4 -150 -49t29 -111l254 -331l239 307q57 70 35 126t-137 58v64h551v-64q-121 -20 -184.5 -62t-178.5 -179l-268 -330l393 -512q74 -98 132.5 -135t162.5 -50 v-63h-672v63q86 12 125 30t41 56.5t-49 106.5l-286 383l-314 -389q-51 -68 -14 -125t139 -62v-63h-577z" />
<glyph unicode="&#x3a8;" horiz-adv-x="1798" d="M27 1311v84h362v-365q0 -174 6 -215q16 -109 99 -182q61 -55 225 -55h86v575l-2 82q-14 76 -135 76v84h458v-84q-76 0 -104.5 -31t-28.5 -109v-593h86q260 0 307 176q23 94 23 276v365h363v-84h-56q-119 0 -119 -140v-141q0 -221 -14 -278q-63 -283 -463 -283h-127v-248 q0 -80 29 -107.5t111 -27.5h30v-86h-532v86h39q117 0 129 37q6 18 6 110v236h-127q-360 0 -445 225q-33 86 -32 336v141q0 80 -22.5 110t-94.5 30h-57z" />
<glyph unicode="&#x3a9;" horiz-adv-x="1576" d="M23 360l92 31q78 -162 184 -215q78 -39 291 -39l-12 92q-106 49 -181 96.5t-145 116t-105.5 161.5t-35.5 208q0 281 197.5 444.5t500.5 163.5q291 0 473 -151.5t182 -419.5q0 -440 -465 -619l-12 -92q195 0 287 41q106 49 190 213l90 -31l-122 -360h-562l31 315 q348 145 348 525q0 219 -117.5 345t-330.5 126q-223 0 -348 -139.5t-125 -372.5q0 -338 348 -484l31 -315h-560z" />
<glyph unicode="&#x3b1;" d="M82 471q0 225 126 371.5t333 146.5q188 0 323 -151l66 127h108v-711q0 -131 39 -156q20 -14 92 -14h43v-84l-348 -16v159q-174 -168 -362 -168q-193 0 -312 156q-108 143 -108 340zM274 479q0 -141 66 -254q78 -133 211 -133q152 0 313 150v358q0 125 -75.5 203 t-196.5 78q-152 0 -235 -114t-83 -288z" />
<glyph unicode="&#x3b2;" horiz-adv-x="1024" d="M33 637q0 365 146.5 603.5t404.5 238.5q154 0 247 -66.5t93 -183.5q0 -96 -60 -172q-63 -82 -262 -162q115 -29 213 -96q174 -119 174 -353v-6q0 -205 -132 -335t-335 -130q-489 0 -489 662zM172 692q47 96 125 160q47 37 373 201q35 18 60.5 69.5t25.5 100.5 q0 76 -52.5 114.5t-140.5 38.5q-156 0 -252 -165t-139 -519zM236 440q0 -160 71.5 -254t210.5 -94q141 0 216 98.5t75 258.5q0 154 -76 250t-213 96q-135 0 -209.5 -100.5t-74.5 -254.5z" />
<glyph unicode="&#x3b3;" horiz-adv-x="1134" d="M-20 885l18 76h504l-13 -72q-39 -2 -71.5 -2t-54 -14.5t-21.5 -45.5q-2 -25 14 -67l217 -602l205 524l80 184q-2 25 -70 25h-43l9 72h366l-6 -68q-76 -10 -94 -14q-70 -41 -123 -172l-264 -660q2 -10 35.5 -104.5t36.5 -124.5q6 -68 6 -111q0 -94 -41 -143t-107 -49 q-170 0 -170 190q0 109 70 285l-336 854q-27 39 -88 39h-59z" />
<glyph unicode="&#x3b4;" horiz-adv-x="1146" d="M82 475q0 324 346 473q-240 72 -240 232q0 135 117 210.5t281 75.5q143 0 247.5 -54t104.5 -134q0 -37 -25.5 -62.5t-62.5 -25.5q-16 0 -113 88q-100 88 -159 88q-84 0 -140.5 -51t-56.5 -131q0 -82 57.5 -120t167.5 -65q252 -59 355.5 -169.5t103.5 -346t-132 -372 t-364 -136.5q-229 0 -358 134.5t-129 365.5zM279 475q0 -182 72.5 -295.5t219.5 -113.5q152 0 226.5 117.5t74.5 301.5q0 176 -76.5 292t-222 116t-220 -120t-74.5 -298z" />
<glyph unicode="&#x3b5;" horiz-adv-x="962" d="M80 254q0 195 274 254q-244 72 -243 227q0 127 104 190.5t262 63.5q143 0 252 -53t109 -133q0 -88 -88 -88q-29 0 -119 86q-88 88 -150 88q-184 0 -184 -166q0 -186 293 -186h28v-84h-32q-154 0 -234 -39t-80 -150q0 -90 70 -138t178 -48q225 0 381 203l64 -52 q-106 -141 -211 -197.5t-265 -56.5q-176 0 -292.5 71t-116.5 208z" />
<glyph unicode="&#x3b6;" horiz-adv-x="780" d="M29 1298q0 88 111.5 138.5t240.5 50.5q154 0 268.5 -69.5t114.5 -168.5q0 -82 -64 -133q-188 -131 -317 -296t-129 -343q0 -109 70 -166q35 -27 170 -90l172 -82q180 -86 180 -250q0 -166 -118 -262t-298 -96q-109 0 -200 35t-91 104q0 82 92 82l97 -55q94 -55 123 -55 q94 0 151 53t57 145q0 86 -92 148q-264 109 -336 157q-174 119 -174 301q0 178 93.5 327t298.5 292q20 12 41 29l41 31q19 15 35 36t20 43q0 80 -57.5 131t-139.5 51q-61 0 -158 -88q-100 -88 -114 -88q-37 0 -62.5 25.5t-25.5 62.5z" />
<glyph unicode="&#x3b7;" horiz-adv-x="1296" d="M76 0v84h24q117 0 136 49q10 31 10 119v569h-170v84q135 10 260 84h70v-190q219 190 413 190q309 0 309 -321v-1114h-170v1050q0 129 -37.5 193.5t-156.5 64.5q-174 0 -350 -164v-460q0 -119 43 -142q23 -12 102 -12h29v-84h-512z" />
<glyph unicode="&#x3b8;" horiz-adv-x="1177" d="M82 698q0 348 135 558t375 210q170 0 287.5 -113.5t167 -283.5t49.5 -379q0 -313 -140.5 -514t-375.5 -201q-166 0 -282 103.5t-166 262t-50 357.5zM272 690q0 -281 81 -447.5t231 -166.5q309 0 317 614h-629zM276 799h623q-31 569 -311 569q-275 0 -312 -569z" />
<glyph unicode="&#x3b9;" horiz-adv-x="655" d="M80 821v82q143 14 266 86h74v-727q0 -104 8 -123q23 -61 92 -61q43 0 105 37v-99q-78 -41 -156 -41q-162 0 -201 113q-16 49 -16 162v571h-172z" />
<glyph unicode="&#x3ba;" d="M59 0v84q57 0 80 2t50.5 16.5t35.5 46t8 89.5v585h-174v82q106 6 267 84h75v-520l367 293q88 70 88 92q0 27 -78 27h-53v84h508v-84q-139 0 -254 -86l-291 -222l342 -372q70 -76 111 -96.5t129 -20.5v-84h-289l-416 483l-164 -125v-131q0 -80 30 -111.5t108 -31.5h36v-84 h-516z" />
<glyph unicode="&#x3bb;" horiz-adv-x="1105" d="M-2 0v84q41 2 66.5 12t42 29.5t30.5 49.5l33 69l307 647l-137 405h-219v86q162 18 264 84h76l440 -1233q27 -76 60.5 -112.5t101.5 -36.5v-84h-459v84h29q109 0 108 49q0 31 -20 86l-203 565l-235 -542q-31 -72 -31 -109q0 -49 92 -49h47v-84h-393z" />
<glyph unicode="&#x3bc;" horiz-adv-x="1497" d="M137 -512q27 367 27 760v745h192v-745q0 -86 75 -139.5t177 -53.5q80 0 149.5 36t110.5 95q8 4 0 30t-8 32v745h193v-745q0 -78 43 -135.5t110 -57.5q61 0 94 57.5t33 135.5h82q0 -111 -58.5 -193t-150.5 -82t-172 36t-127 97q-117 -133 -299 -133q-143 0 -252 41v-526 h-219z" />
<glyph unicode="&#x3bd;" horiz-adv-x="1030" d="M-6 881v84l289 16l305 -805l168 359q51 104 51 165q0 29 -19 60q-45 76 -45 125q0 104 117 104q133 0 133 -131q0 -61 -47 -186l-340 -672h-119l-321 764q-27 63 -61.5 90t-110.5 27z" />
<glyph unicode="&#x3be;" horiz-adv-x="860" d="M47 1483q0 86 100 86q43 0 145.5 -52.5t164.5 -52.5q174 0 370 80l11 -41l-158 -119q6 2 -10.5 -6l-49.5 -23l-74 -35l-82 -41l-77 -42t-57.5 -39.5t-22.5 -30.5q0 -162 336 -227l119 -22q74 -25 74 -76q0 -76 -74 -76q-25 0 -103.5 30.5t-117.5 30.5q-131 0 -209 -91 t-78 -230q0 -115 59.5 -174.5t184.5 -118.5q209 -100 231 -115q117 -82 117 -209q0 -166 -118 -262t-298 -96q-109 0 -200 35t-91 104q0 82 92 82l97 -55q94 -55 123 -55q92 0 150 54t58 142q0 78 -63 127l-135 70l-37 18q-10 4 -38 18l-61 29q-34 16 -67 35 q-209 115 -209 328q0 178 119 291.5t301 146.5q-59 16 -99 29.5t-89.5 37t-78 50t-49 66.5t-20.5 90q14 45 143 116q23 8 120.5 36t138.5 42q-76 -18 -185 -18q-303 0 -303 133z" />
<glyph unicode="&#x3bf;" horiz-adv-x="1146" d="M76 494q0 61 12 124.5t48 136t89.5 128t143.5 92.5t202 37q117 0 208 -37t145.5 -92.5t90.5 -128t49 -138t13 -127.5q0 -227 -137 -367t-360 -140q-229 0 -366.5 140.5t-137.5 371.5zM285 498q0 -207 77.5 -321t219.5 -114q135 0 210.5 111t75.5 305q0 211 -78.5 331 t-216.5 120q-131 0 -209.5 -117.5t-78.5 -314.5z" />
<glyph unicode="&#x3c0;" horiz-adv-x="1372" d="M72 864v101h1226v-101h-61q-41 0 -55.5 -2t-30.5 -14t-19.5 -38t-3.5 -75v-481q0 -94 18.5 -135t84.5 -41q43 0 100 37v-99q-78 -41 -153 -41q-127 0 -173.5 61.5t-46.5 223.5v490q0 68 -21.5 91t-86.5 23h-328q-41 0 -55 -2t-30.5 -14t-19.5 -38t-3 -75v-534 q0 -70 21.5 -93.5t86.5 -23.5h66v-84h-512v84h61q68 0 88.5 20.5t20.5 108.5v537q0 68 -21.5 91t-89.5 23h-63z" />
<glyph unicode="&#x3c1;" horiz-adv-x="1185" d="M121 340q0 221 26 309q43 154 167 247t304 93q231 0 358.5 -135t127.5 -370.5t-132 -372t-364 -136.5q-215 0 -319 142v-563h-168v786zM317 475q0 -182 73 -295.5t220 -113.5q152 0 226.5 117.5t74.5 301.5q0 176 -76.5 292t-222 116t-220.5 -120t-75 -298z" />
<glyph unicode="&#x3c2;" horiz-adv-x="989" d="M43 469q0 238 142.5 379t377.5 141q141 0 270.5 -71.5t129.5 -172.5q0 -96 -89 -96q-59 0 -106 90q-80 158 -233 158q-137 0 -216 -122t-79 -286q0 -106 66.5 -169.5t277.5 -143.5q76 -29 116.5 -48t93 -53t76 -79t23.5 -105q0 -170 -136 -266t-333 -96q-125 0 -211 39 t-86 102q0 82 92 82q-4 0 23.5 -17.5t66.5 -38t78 -37.5t55 -17q111 0 188 53t77 145q0 94 -150 162l-252 113q-262 139 -262 354z" />
<glyph unicode="&#x3c3;" horiz-adv-x="1165" d="M82 481q0 238 132 373t366 135q72 0 153 -24h432v-101h-282q182 -147 182 -391q0 -229 -133 -363.5t-363 -134.5q-225 0 -356 139.5t-131 366.5zM279 475q0 -182 72.5 -295.5t219.5 -113.5q152 0 226.5 117.5t74.5 301.5q0 176 -76.5 292t-222 116t-220 -120t-74.5 -298z " />
<glyph unicode="&#x3c4;" horiz-adv-x="821" d="M6 864v101h752v-101h-309v-602q0 -102 25.5 -143t107.5 -41q88 0 209 84v-96q-127 -90 -261 -91q-184 0 -229 113q-20 47 -20 162v614h-275z" />
<glyph unicode="&#x3c5;" horiz-adv-x="1257" d="M18 881v84l379 16v-524q0 -178 60.5 -266.5t212.5 -88.5q184 0 243 134q29 68 29 221v284q0 82 -28.5 111t-110.5 29h-70v84l379 16v-473q0 -180 -20 -260q-68 -272 -408 -272.5t-420 217.5q-37 102 -37 315v233q0 80 -29.5 110t-109.5 30h-70z" />
<glyph unicode="&#x3c6;" horiz-adv-x="1392" d="M80 494q0 240 130 367.5t370 127.5v-98q-150 0 -229 -103.5t-79 -302.5q0 -207 77 -307t263 -100v467q0 242 72 343t256 101q186 0 280.5 -124t94.5 -335q0 -555 -535 -555v-421h-168v421q-274 0 -403 126.5t-129 392.5zM780 78q184 0 263 101.5t79 361.5q0 346 -182 346 q-90 0 -125 -69.5t-35 -260.5v-479z" />
<glyph unicode="&#x3c7;" horiz-adv-x="1165" d="M25 -346q98 2 146 39t97 127l256 489l-260 459l-17 29q-7 12 -15.5 22t-17.5 17.5t-21.5 13.5t-30.5 10q-90 20 -135 21v84l299 16l290 -545l279 549h201l-402 -655l402 -760h-189l-307 614l-221 -415q-4 -6 -15 -30l-20 -42q-8 -18 -2 -25q10 -18 84 -18v-84h-401v84z " />
<glyph unicode="&#x3c8;" horiz-adv-x="1570" d="M39 881v84l323 16v-408q0 -209 9 -243q27 -145 114 -199q80 -47 230 -47v881h170v-881q133 0 200 27q113 45 142 200q10 66 10 262v197q0 66 -23.5 88.5t-91.5 22.5h-39v84l324 16v-408q0 -211 -21 -299q-37 -168 -155.5 -233.5t-345.5 -65.5v-421h-170v421 q-225 0 -346 72q-150 86 -170 295q-6 59 -6 231v205q0 57 -19.5 80t-75.5 23h-59z" />
<glyph unicode="&#x3c9;" horiz-adv-x="1392" d="M78 459q0 530 510 530v-100q-166 0 -240 -102.5t-74 -337.5q0 -371 181 -371q88 0 122.5 70.5t34.5 273.5v123h168v-123q0 -203 35 -273.5t123 -70.5q180 0 180 383q0 211 -69.5 318.5t-243.5 109.5v100q510 0 510 -520q0 -219 -93.5 -356.5t-275.5 -137.5 q-172 0 -250 170q-80 -170 -250 -170q-184 0 -276 132.5t-92 351.5z" />
<glyph unicode="&#x3d1;" horiz-adv-x="1230" d="M55 551v113q133 -2 183 -25q111 -47 135 -154q25 -115 37 -211q23 -199 215 -198q303 0 311 592q-338 0 -534.5 109.5t-196.5 320.5q0 178 120.5 273t307.5 95q217 0 349 -182t153 -504q27 0 45 8v-104q-16 -8 -43 -8q-4 -307 -143.5 -504t-372.5 -197q-152 0 -255.5 71 t-140.5 208q-16 61 -26.5 122.5t-13.5 87t-16 49.5t-38 30t-76 8zM375 1077q0 -135 166 -219t401 -84q0 260 -84 420t-231 160q-117 0 -184.5 -78t-67.5 -199z" />
<glyph unicode="&#x3d5;" horiz-adv-x="1415" d="M100 494q0 244 141.5 375.5t391.5 131.5v152h168v-154q256 0 394 -130t138 -377q0 -268 -125 -390t-407 -125v-423h-168v426q-283 0 -408 123t-125 391zM293 485.5q0 -206.5 76.5 -307t263.5 -100.5v811q-184 -2 -262 -99.5t-78 -304zM801 76q188 2 264 100t76 307 t-76 306.5t-264 97.5v-811z" />
<glyph unicode="&#x3d6;" horiz-adv-x="1611" d="M35 846q115 164 430 164q180 0 475 -43q164 -23 246 -23q160 0 239 53l146 -22q-92 -137 -330 -166q74 -51 124 -148.5t50 -201.5q0 -217 -92 -350.5t-276 -133.5q-170 0 -250 170q-80 -170 -250 -170q-184 0 -276.5 132.5t-92.5 351.5q0 111 68.5 245t148.5 166h-20 q-113 0 -195 -49zM375 449q0 -371 180 -371q88 0 123 70.5t35 273.5v123h168v-123q0 -203 34.5 -273.5t122.5 -70.5q180 0 181 371q0 262 -99 354q-63 0 -144 7t-228.5 25.5t-233.5 26.5q-66 -37 -102.5 -165.5t-36.5 -247.5z" />
<glyph unicode="&#x3f5;" horiz-adv-x="962" d="M78 498q0 156 70.5 270.5t187.5 167.5q92 45 190 45q96 0 190.5 -49t143.5 -115l-96 -139q-100 203 -250 203q-111 0 -179.5 -98.5t-68.5 -225.5h359v-125h-361q4 -186 123 -280q92 -74 195 -74q160 0 299 182l63 -51q-139 -233 -352 -234q-178 0 -280.5 63.5 t-170.5 197.5q-63 125 -63 262z" />
<glyph unicode="&#x400;" horiz-adv-x="1474" d="M63 0v63l52 7q80 10 106.5 55t26.5 170v805q0 125 -26.5 170t-106.5 55l-52 6v64h1170l141 -369l-65 -27q-141 172 -277.5 240t-345.5 68q-135 0 -184 -36t-49 -134v-349h155q131 0 179.5 50.5t68.5 210.5h70v-613h-70q-14 143 -72.5 203.5t-179.5 60.5h-151v-432 q0 -88 26 -123q49 -57 205 -57q229 0 378.5 81t317.5 296l64 -29l-187 -436h-1194zM467 1704q0 33 20.5 54.5t51.5 21.5q63 0 155 -70l195 -139l-10 -29l-285 60q-127 26 -127 102z" />
<glyph unicode="&#x401;" horiz-adv-x="1474" d="M63 0v63l52 7q80 10 106.5 55t26.5 170v805q0 125 -26.5 170t-106.5 55l-52 6v64h1170l141 -369l-65 -27q-141 172 -277.5 240t-345.5 68q-135 0 -184 -36t-49 -134v-349h155q131 0 179.5 50.5t68.5 210.5h70v-613h-70q-14 143 -72.5 203.5t-179.5 60.5h-151v-432 q0 -88 26 -123q49 -57 205 -57q229 0 378.5 81t317.5 296l64 -29l-187 -436h-1194zM444 1663q0 51 36 86t87 35q47 0 83 -36t36 -85t-36 -85t-85 -36t-85 36t-36 85zM778 1663q0 51 36 86t87 35q47 0 83 -36t36 -85t-36 -85t-85 -36t-85 36t-36 85z" />
<glyph unicode="&#x402;" horiz-adv-x="1556" d="M-76 1034l76 361h1188l74 -361l-72 -24q-90 158 -184.5 232.5t-225.5 74.5q-51 0 -67.5 -18.5t-16.5 -71.5v-475q190 78 342 77q209 0 326 -62t119 -230v-490q0 -90 -35 -150.5t-101.5 -90t-140 -41t-174.5 -11.5v90q246 0 246 207v481q0 207 -246 207q-170 0 -336 -75 v-369q0 -125 28 -172t105 -53l80 -7v-63h-630v63l79 7q78 6 106 53t28 172v940q0 47 -19.5 64.5t-71.5 17.5q-137 0 -226 -70.5t-183 -236.5z" />
<glyph unicode="&#x403;" horiz-adv-x="1265" d="M63 0v63l52 7q80 10 106.5 55t26.5 170v805q0 125 -26.5 170t-106.5 55l-52 6v64h1129l147 -351l-65 -32q-133 160 -269.5 228.5t-322.5 68.5q-150 0 -195 -45q-35 -35 -34 -156v-813q0 -125 27.5 -171t105.5 -54l67 -7v-63h-590zM489 1628l195 139q92 70 156 70 q31 0 51 -21.5t20 -54.5q0 -76 -127 -102l-284 -60z" />
<glyph unicode="&#x404;" horiz-adv-x="1515" d="M90 690q0 301 193 506q94 102 226 163.5t255 61.5q250 0 422 -131l43 86h67l99 -493h-66q-84 152 -127 215q-72 104 -179.5 164.5t-219.5 60.5q-193 0 -324 -162t-145 -411h698v-88h-700q10 -272 149 -424q66 -74 167.5 -120t195.5 -46q176 0 338 121q88 63 168 182 l88 -49q-227 -352 -625 -353q-309 0 -516 205t-207 512z" />
<glyph unicode="&#x405;" horiz-adv-x="1351" d="M57 469l76 25q106 -205 258 -313.5t328 -108.5q158 0 264.5 87t106.5 218q0 92 -60.5 144t-212.5 89l-274 70q-240 61 -332 154q-90 94 -90 221q0 156 141 268q127 98 328 98q221 0 387 -100l24 74h74l125 -371l-65 -25q-211 324 -504 324q-127 0 -214 -63.5t-87 -155.5 q0 -82 64.5 -134t213.5 -89l256 -62q166 -39 252 -86t133 -121q49 -76 49 -198q0 -184 -164.5 -312.5t-404.5 -128.5q-242 0 -424 129l-39 -102h-76z" />
<glyph unicode="&#x406;" horiz-adv-x="696" d="M63 0v63l41 7q84 14 109 56t25 169v805q0 127 -25 169t-109 56l-41 6v64h553v-64l-41 -6q-84 -14 -108.5 -56t-24.5 -169v-805q0 -127 25 -169t108 -56l41 -7v-63h-553z" />
<glyph unicode="&#x407;" horiz-adv-x="696" d="M57 1663q0 51 36 86t87 35q47 0 83 -36t36 -85t-36 -85t-85 -36t-85 36t-36 85zM63 0v63l41 7q84 14 109 56t25 169v805q0 127 -25 169t-109 56l-41 6v64h553v-64l-41 -6q-84 -14 -108.5 -56t-24.5 -169v-805q0 -127 25 -169t108 -56l41 -7v-63h-553zM391 1663 q0 51 36 86t87 35q47 0 83 -36t36 -85t-36 -85t-85 -36t-85 36t-36 85z" />
<glyph unicode="&#x408;" horiz-adv-x="1228" d="M-47 381q0 80 45 131t115 51q51 0 81.5 -29.5t30.5 -80.5q0 -53 -51 -99q-41 -39 -41 -82q0 -82 88 -141t207 -59q199 0 279 127q39 61 52 152t13 286v463q0 125 -26.5 170t-106.5 55l-51 6v64h573v-64l-51 -6q-80 -10 -106.5 -55t-26.5 -170v-568q0 -174 -13.5 -246.5 t-58.5 -129.5q-61 -84 -181 -133.5t-257 -49.5q-197 0 -332 90q-82 55 -132 142.5t-50 175.5z" />
<glyph unicode="&#x409;" horiz-adv-x="2072" d="M-41 135q0 66 37 109t96 43q106 0 133 -62q8 -33 21.5 -55.5t48.5 -22.5q82 0 143.5 320.5t61.5 632.5q0 125 -27 171t-106 54l-52 6v64h1125v-64l-51 -6q-78 -10 -106 -56t-28 -169v-301h289q211 0 338 -78q80 -51 128 -140t48 -190q0 -180 -137 -285.5t-375 -105.5 h-680v63l52 7q80 8 106.5 53t26.5 172v803q0 133 -14.5 171t-65.5 38h-256q-66 0 -78 -123q-18 -246 -30.5 -364t-43.5 -280.5t-82 -322.5q-37 -111 -125 -178.5t-188 -67.5q-209 0 -209 164zM1255 217q0 -82 43 -106.5t191 -24.5q199 0 283 92q78 84 77 219q0 129 -77 217 q-84 96 -261 97h-256v-494z" />
<glyph unicode="&#x40a;" horiz-adv-x="2207" d="M63 0v63l52 7q80 8 106.5 53t26.5 172v805q0 125 -26.5 170t-106.5 55l-52 6v64h574v-64l-51 -6q-80 -10 -106.5 -55t-26.5 -170v-305h733v305q0 125 -26.5 170t-106.5 55l-52 6v64h574v-64l-51 -6q-78 -10 -105.5 -56t-27.5 -169v-301h288q211 0 338 -78 q80 -51 128 -140t48 -190q0 -180 -137 -285.5t-375 -105.5h-680v63l52 7q80 8 106.5 53t26.5 172v412h-733v-412q0 -127 26.5 -172t106.5 -53l51 -7v-63h-574zM1391 217q0 -82 43 -106.5t190 -24.5q199 0 283 92q78 84 78 219q0 129 -78 217q-84 96 -260 97h-256v-494z" />
<glyph unicode="&#x40b;" horiz-adv-x="1703" d="M-76 1034l76 361h1188l74 -361l-72 -24q-90 158 -184.5 232.5t-225.5 74.5q-51 0 -67.5 -18.5t-16.5 -71.5v-475q190 78 342 77q98 0 172 -12t139.5 -42t99.5 -90t34 -148v-242q0 -125 26.5 -171t106.5 -54l51 -7v-63h-573v63l51 7q80 8 106.5 53t26.5 172v237 q0 207 -246 207q-170 0 -336 -75v-369q0 -125 28 -172t105 -53l80 -7v-63h-630v63l79 7q78 6 106 53t28 172v940q0 47 -19.5 64.5t-71.5 17.5q-137 0 -226 -70.5t-183 -236.5z" />
<glyph unicode="&#x40c;" horiz-adv-x="1452" d="M63 0v63l52 7q80 8 106.5 53t26.5 172v805q0 125 -26.5 170t-106.5 55l-52 6v64h607v-64l-84 -6q-76 -6 -104.5 -55t-28.5 -170v-314h239q96 0 164 109t98 276q20 109 84 181.5t156 72.5q74 0 134.5 -46t60.5 -134q0 -160 -103 -160q-84 0 -110 62q-6 14 -10.5 35.5 t-6.5 35t-11 24.5t-26 11q-49 0 -49 -65q0 -135 -68.5 -262t-175.5 -183q256 -29 359 -460q10 -47 19.5 -71t37 -44.5t74.5 -20.5q41 0 64.5 36t25.5 71l4 37l74 -21l-6 -47q-6 -47 -28.5 -104.5t-85 -104.5t-155.5 -47q-100 0 -170.5 53.5t-70.5 135.5q0 336 -127 479 q-37 43 -71 54t-114 11h-208v-405q0 -117 29.5 -168t105.5 -57l84 -7v-63h-607zM563 1628l195 139q92 70 155 70q31 0 51.5 -21.5t20.5 -54.5q0 -76 -127 -102l-285 -60z" />
<glyph unicode="&#x40d;" horiz-adv-x="1638" d="M63 0v63l52 7q80 8 106.5 53t26.5 172v805q0 125 -26.5 170t-106.5 55l-52 6v64h574v-64l-51 -6q-80 -10 -106.5 -55t-26.5 -170v-629l733 571v58q0 125 -26.5 170t-106.5 55l-52 6v64h574v-64l-51 -6q-80 -10 -106.5 -55t-26.5 -170v-805q0 -127 26.5 -172t106.5 -53 l51 -7v-63h-574v63l52 7q80 10 107.5 55t27.5 170v618l-737 -571v-47q0 -123 27.5 -170t107.5 -55l51 -7v-63h-574zM608 1761q0 33 20.5 54.5t51.5 21.5q63 0 156 -70l194 -139l-10 -29l-285 60q-127 26 -127 102z" />
<glyph unicode="&#x40e;" horiz-adv-x="1232" d="M-61 1331v64h507v-62q-111 -14 -110 -76q0 -27 8 -40l324 -623l254 483q39 76 39 156q0 43 -29 64.5t-111 35.5v62h484v-64q-80 -6 -114 -36.5t-95 -149.5l-430 -832q-119 -195 -225.5 -268.5t-223.5 -73.5q-82 0 -139.5 47.5t-57.5 108.5q0 41 32 70.5t77 29.5 q31 0 52.5 -13t60.5 -54q39 -39 67 -39q41 -6 112 66.5t116 148.5l-435 866q-29 72 -58 95.5t-105 33.5zM287 1806l47 37q131 -106 291 -106q76 0 154.5 29.5t131.5 76.5l47 -37q-47 -94 -139 -150.5t-198 -56.5q-113 0 -200 54.5t-134 152.5z" />
<glyph unicode="&#x40f;" horiz-adv-x="1638" d="M63 0v63l52 7q80 8 106.5 53t26.5 172v805q0 125 -26.5 170t-106.5 55l-52 6v64h574v-64l-51 -6q-80 -10 -106.5 -55t-26.5 -170v-1012h733v1012q0 125 -26.5 170t-106.5 55l-52 6v64h574v-64l-51 -6q-80 -10 -106.5 -55t-26.5 -170v-805q0 -127 26.5 -172t106.5 -53 l51 -7v-63h-653v-315h-205v315h-654z" />
<glyph unicode="&#x410;" horiz-adv-x="1392" d="M-76 0v63l23 5q102 20 153.5 89.5t153.5 334.5l352 903h191l434 -1098q55 -141 93 -179t138 -55v-63h-575v63q96 14 119 31q43 27 43 72q0 25 -23 88l-102 264h-529l-65 -176q-39 -100 -39 -152q0 -59 51 -94q29 -18 131 -33v-63h-549zM426 606h461l-234 615z" />
<glyph unicode="&#x411;" horiz-adv-x="1357" d="M63 1331v64h1018l148 -351l-66 -32q-139 166 -255.5 231.5t-299.5 65.5q-35 0 -59.5 -11.5t-37.5 -29t-21.5 -40t-9.5 -45t-3 -45t0 -38.5v-273q104 29 275 29q213 0 370.5 -126t157.5 -320q0 -182 -139.5 -296t-372.5 -114h-680v63l51 7q80 8 106.5 53t26.5 172v807 q0 123 -27.5 170t-105.5 53zM477 217q0 -82 43 -106.5t191 -24.5q170 0 265 86t95 244q0 154 -99.5 253t-252.5 99q-145 0 -242 -29v-522z" />
<glyph unicode="&#x412;" horiz-adv-x="1515" d="M63 0v63l52 7q80 10 106.5 55t26.5 170v805q0 125 -26.5 170t-106.5 55l-52 6v64h721q293 0 426 -78q70 -39 110 -107.5t40 -146.5q0 -127 -98 -201q-70 -55 -199 -86q139 -33 219 -84q156 -96 156 -280q0 -88 -41 -170t-113 -133q-150 -109 -473 -109h-748zM453 315 q0 -131 24 -165q43 -66 242 -66q260 0 373 86q115 86 114 252q0 193 -153 260q-82 35 -359 35h-241v-402zM453 805h237q246 0 353.5 58.5t107.5 193.5q0 258 -422 258q-176 0 -226 -32t-50 -142v-336z" />
<glyph unicode="&#x413;" horiz-adv-x="1265" d="M63 0v63l52 7q80 10 106.5 55t26.5 170v805q0 125 -26.5 170t-106.5 55l-52 6v64h1108l76 -351l-65 -32q-66 170 -183.5 233.5t-316.5 63.5q-150 0 -195 -45q-35 -35 -34 -156v-813q0 -125 27.5 -171t105.5 -54l67 -7v-63h-590z" />
<glyph unicode="&#x414;" horiz-adv-x="1597" d="M53 -262l68 342q143 0 181 16.5t77 104.5q61 139 113.5 438t52.5 461q0 131 -25.5 173t-107.5 52l-52 6v64h1125v-64l-51 -6q-82 -10 -108 -52t-26 -173l3 -805q0 -137 36.5 -177t145.5 -36l43 -344h-70q-8 45 -17 80l-17 62q-7 28 -21 48.5t-31.5 33.5t-46.5 21.5 t-66.5 12.5t-91.5 4h-727q-123 0 -167 -18.5t-73.5 -80t-78.5 -177.5zM506 131q0 -43 59 -43h465q47 0 56.5 27.5t9.5 179.5v803q0 133 -14.5 171t-65.5 38h-256q-78 0 -78 -123q0 -182 -42 -448.5t-114 -518.5q-20 -66 -20 -86z" />
<glyph unicode="&#x415;" horiz-adv-x="1474" d="M63 0v63l52 7q80 10 106.5 55t26.5 170v805q0 125 -26.5 170t-106.5 55l-52 6v64h1170l141 -369l-65 -27q-141 172 -277.5 240t-345.5 68q-135 0 -184 -36t-49 -134v-349h155q131 0 179.5 50.5t68.5 210.5h70v-613h-70q-14 143 -72.5 203.5t-179.5 60.5h-151v-432 q0 -88 26 -123q49 -57 205 -57q229 0 378.5 81t317.5 296l64 -29l-187 -436h-1194z" />
<glyph unicode="&#x416;" horiz-adv-x="1988" d="M33 270l73 21l9 -37q6 -35 32.5 -71t67.5 -36q117 0 117 136q0 207 105.5 326.5t273.5 133.5q-100 33 -171 166t-83 279q-6 66 -49 65q-23 0 -30 -6t-12.5 -27.5t-11.5 -35.5q-27 -61 -110 -62q-59 0 -98.5 47.5t-39.5 112.5q0 143 230 143q90 0 155.5 -72.5t83.5 -181.5 q29 -162 99.5 -273.5t156.5 -111.5h68v314q0 125 -26.5 170t-106.5 55l-51 6v64h573v-64l-51 -6q-80 -10 -106.5 -55t-26.5 -170v-314h53q86 0 156.5 112t99.5 273q18 106 85 180t155 74q223 0 223 -143q0 -66 -37 -113t-94 -47q-84 0 -111 62q-6 14 -11 35.5t-12 27.5 t-30 6q-43 0 -49 -65q-12 -145 -83 -278.5t-171 -166.5q168 -14 273.5 -134t105.5 -326q0 -135 117 -136q41 0 67.5 36t34.5 71l6 37l74 -21l-2 -30q-2 -31 -17.5 -76t-41 -90t-82 -76t-132.5 -31q-96 0 -161.5 59.5t-89 128t-23.5 134.5q0 203 -72.5 307t-210.5 104h-20 v-405q0 -127 26.5 -172t106.5 -53l51 -7v-63h-573v63l51 7q80 8 106.5 53t26.5 172v405h-35q-137 0 -209.5 -104t-72.5 -307q0 -66 -23.5 -134.5t-89.5 -128t-162 -59.5q-92 0 -154.5 47t-85 104.5t-28.5 104.5z" />
<glyph unicode="&#x417;" horiz-adv-x="1351" d="M94 360q0 57 38 96.5t97 39.5q51 0 86 -37t35 -88q0 -27 -7 -54.5t-7 -50.5q0 -86 105.5 -136t246.5 -50q160 0 270.5 84t110.5 213q0 150 -81 244t-251 94h-278v88h274q145 0 201.5 69.5t56.5 206.5q0 113 -85 178.5t-216 65.5q-178 0 -266 -73.5t-174 -250.5l-66 25 l62 371h73l25 -74q166 100 387 100q190 0 329.5 -103.5t139.5 -262.5q0 -119 -43 -188.5t-100 -94.5q94 -20 167.5 -116.5t73.5 -241.5q0 -201 -166.5 -321t-433.5 -120q-293 0 -448.5 111.5t-155.5 275.5z" />
<glyph unicode="&#x418;" horiz-adv-x="1638" d="M63 0v63l52 7q80 8 106.5 53t26.5 172v805q0 125 -26.5 170t-106.5 55l-52 6v64h574v-64l-51 -6q-80 -10 -106.5 -55t-26.5 -170v-629l733 571v58q0 125 -26.5 170t-106.5 55l-52 6v64h574v-64l-51 -6q-80 -10 -106.5 -55t-26.5 -170v-805q0 -127 26.5 -172t106.5 -53 l51 -7v-63h-574v63l52 7q80 10 107.5 55t27.5 170v618l-735 -571v-47q0 -123 26.5 -170t106.5 -55l51 -7v-63h-574z" />
<glyph unicode="&#x419;" horiz-adv-x="1638" d="M63 0v63l52 7q80 8 106.5 53t26.5 172v805q0 125 -26.5 170t-106.5 55l-52 6v64h574v-64l-51 -6q-80 -10 -106.5 -55t-26.5 -170v-629l733 571v58q0 125 -26.5 170t-106.5 55l-52 6v64h574v-64l-51 -6q-80 -10 -106.5 -55t-26.5 -170v-805q0 -127 26.5 -172t106.5 -53 l51 -7v-63h-574v63l52 7q80 10 107.5 55t27.5 170v618l-735 -571v-47q0 -123 26.5 -170t106.5 -55l51 -7v-63h-574zM483 1751l47 37q131 -106 291 -107q76 0 155 30t132 77l47 -37q-47 -94 -139 -150.5t-199 -56.5q-113 0 -200 54.5t-134 152.5z" />
<glyph unicode="&#x41a;" horiz-adv-x="1452" d="M63 0v63l52 7q80 8 106.5 53t26.5 172v805q0 125 -26.5 170t-106.5 55l-52 6v64h607v-64l-84 -6q-78 -6 -105.5 -51t-27.5 -174v-314h112q90 0 180.5 116t116.5 269q20 109 84 181.5t156 72.5q51 0 85 -4t69.5 -17t53 -44t17.5 -78q0 -66 -37 -110t-96 -44q-86 0 -111 56 q-6 14 -11 35.5t-12 27.5t-30 6q-43 0 -49 -65q-12 -145 -83 -278.5t-171 -166.5q197 -41 305.5 -159.5t108.5 -300.5q0 -135 116 -136q41 0 68 36t35 71l6 37l74 -21l-2 -30q-2 -31 -17.5 -76t-41 -90t-82 -76t-132.5 -31q-139 0 -213.5 107.5t-74.5 214.5 q0 197 -100.5 304t-244.5 107h-81v-405q0 -123 28.5 -171t106.5 -54l84 -7v-63h-607z" />
<glyph unicode="&#x41b;" horiz-adv-x="1552" d="M31 135q0 66 36.5 109t96.5 43q106 0 133 -62q8 -33 21.5 -55.5t48.5 -22.5q82 0 143 324t61 629q0 125 -26.5 171t-106.5 54l-51 6v64h1124v-64l-51 -6q-80 -10 -106.5 -55t-26.5 -170v-805q0 -127 26.5 -172t106.5 -53l51 -7v-63h-573v63l51 7q80 8 106.5 53t26.5 172 v803q0 133 -14 171t-66 38h-249q-78 0 -78 -123q0 -178 -40 -496.5t-100 -470.5q-41 -109 -138 -177.5t-197 -68.5q-209 0 -209 164z" />
<glyph unicode="&#x41c;" horiz-adv-x="1884" d="M53 0v63l64 7q78 8 105.5 54t27.5 171v805q0 125 -26.5 170t-106.5 55l-51 6v64h477l393 -1055l428 1055h467v-64l-51 -6q-80 -10 -106.5 -55t-26.5 -170v-805q0 -125 26.5 -170t106.5 -55l51 -7v-63h-574v63l52 7q80 10 106.5 55t26.5 170v954l-514 -1249h-92l-469 1274 v-979q0 -125 27.5 -171t105.5 -54l71 -7v-63h-518z" />
<glyph unicode="&#x41d;" horiz-adv-x="1638" d="M63 0v63l52 7q80 10 106.5 55t26.5 170v805q0 125 -26.5 170t-106.5 55l-52 6v64h574v-64l-51 -6q-80 -10 -106.5 -55t-26.5 -170v-305h733v305q0 125 -26.5 170t-106.5 55l-52 6v64h574v-64l-51 -6q-80 -10 -106.5 -55t-26.5 -170v-805q0 -125 26.5 -170t106.5 -55 l51 -7v-63h-574v63l52 7q80 10 106.5 55t26.5 170v412h-733v-412q0 -125 26.5 -170t106.5 -55l51 -7v-63h-574z" />
<glyph unicode="&#x41e;" horiz-adv-x="1638" d="M90 702q0 301 214 510t523 209q315 0 520 -205.5t205 -523.5q0 -264 -151 -450q-102 -125 -258 -197t-324 -72q-311 0 -520 210t-209 519zM332 700q0 -287 133 -457.5t356 -170.5t356.5 165.5t133.5 442.5q0 297 -131 470t-357 173q-223 0 -357 -170t-134 -453z" />
<glyph unicode="&#x41f;" horiz-adv-x="1597" d="M63 0v63l52 7q80 8 106.5 53t26.5 172v805q0 125 -26.5 170t-106.5 55l-52 6v64h1471v-64l-51 -6q-80 -10 -106.5 -55t-26.5 -170v-805q0 -127 26.5 -172t106.5 -53l51 -7v-63h-573v63l51 7q80 8 106.5 53t26.5 172v1012h-692v-1012q0 -127 26.5 -172t106.5 -53l51 -7 v-63h-574z" />
<glyph unicode="&#x420;" d="M63 0v63l52 7q80 10 106.5 55t26.5 170v805q0 125 -26.5 170t-106.5 55l-52 6v64h680q238 0 375 -105.5t137 -285.5q0 -100 -48 -189.5t-128 -140.5q-127 -78 -338 -78h-288v-301q0 -125 27.5 -172t105.5 -53l76 -7v-63h-599zM453 684h256q176 0 260 96q78 88 78 217 q0 135 -78 220q-84 92 -283 92q-147 0 -190 -24.5t-43 -106.5v-494z" />
<glyph unicode="&#x421;" horiz-adv-x="1515" d="M90 690q0 301 193 506q94 102 226 163.5t255 61.5q250 0 422 -131l43 86h67l99 -493h-66q-84 152 -127 215q-72 104 -179.5 164.5t-219.5 60.5q-203 0 -337 -179t-134 -452q0 -293 149 -454q66 -74 167.5 -120t195.5 -46q176 0 338 121q88 63 168 182l88 -49 q-227 -352 -625 -353q-309 0 -516 205t-207 512z" />
<glyph unicode="&#x422;" d="M-76 1034l117 361h1188l114 -361l-71 -24q-176 307 -451 307q-51 0 -67.5 -18.5t-16.5 -71.5v-932q0 -125 28 -172t105 -53l80 -7v-63h-631v63l80 7q78 6 105.5 53t27.5 172v940q0 47 -19 64.5t-71 17.5q-276 0 -450 -307z" />
<glyph unicode="&#x423;" horiz-adv-x="1232" d="M-23 1331v64h492v-62q-111 -14 -111 -76q0 -27 9 -40l278 -623l215 483q39 88 39 156q0 43 -28.5 64.5t-110.5 35.5v62h491v-64q-84 -6 -119.5 -36.5t-89.5 -149.5l-376 -832q-82 -180 -187.5 -261t-261.5 -81q-82 0 -139.5 47.5t-57.5 108.5q0 41 32 70.5t77 29.5 t97.5 -53t82.5 -53q129 0 228 215l-396 866q-33 72 -61.5 95.5t-102.5 33.5z" />
<glyph unicode="&#x424;" horiz-adv-x="1630" d="M68 698q0 104 41 186.5t100 129.5t138 76.5t144.5 40t126.5 10.5h91q0 86 -27 129t-107 55l-40 6v64h552v-64l-40 -6q-80 -12 -107 -55t-27 -129h91q61 0 126.5 -10.5t144.5 -40t138.5 -76.5t100 -129t40.5 -187q0 -106 -40.5 -188t-100 -129t-138.5 -77t-144.5 -40 t-126.5 -10h-91q0 -88 28 -130t106 -54l40 -7v-63h-552v63l40 7q78 12 106 54t28 130h-91q-61 0 -126.5 10t-144.5 40t-138 77t-100 129t-41 188zM285 698q0 -98 34.5 -169.5t91 -108.5t112 -53.5t108.5 -16.5h78v694h-78q-41 0 -85 -9t-92 -33.5t-84 -62.5t-60.5 -100.5 t-24.5 -140.5zM913 350h78q53 0 108.5 16.5t112 53.5t91 108.5t34.5 169.5q0 78 -24.5 140.5t-60 100.5t-84 62.5t-92.5 33.5t-85 9h-78v-694z" />
<glyph unicode="&#x425;" horiz-adv-x="1474" d="M-61 0v63q129 41 202.5 94.5t177.5 182.5l324 383l-352 448q-63 84 -116.5 117t-141.5 43v64h635v-64q-86 -2 -122 -20.5t-36 -57.5t37 -82l254 -331l239 307q41 55 41 96q0 86 -143 88v64h551v-64q-121 -20 -184.5 -62t-178.5 -179l-268 -330l393 -512 q74 -98 132.5 -135t162.5 -50v-63h-672v63l31 5q135 12 135 79q0 43 -49 109l-286 383l-314 -389q-29 -39 -29 -78q0 -102 154 -109v-63h-577z" />
<glyph unicode="&#x426;" horiz-adv-x="1708" d="M63 0v63l52 7q80 8 106.5 53t26.5 172v805q0 125 -26.5 170t-106.5 55l-52 6v64h574v-64l-51 -6q-80 -10 -106.5 -55t-26.5 -170v-1012h733v1012q0 125 -26.5 170t-106.5 55l-52 6v64h574v-64l-51 -6q-80 -10 -106.5 -55t-26.5 -170v-805q0 -139 37.5 -178t146.5 -35 l70 -344l-66 -33l-69 144q-26 56 -57.5 90t-76.5 47.5t-125 13.5h-1188z" />
<glyph unicode="&#x427;" horiz-adv-x="1484" d="M61 1331v64h574v-64l-51 -6q-80 -10 -106.5 -55t-26.5 -170v-238q0 -207 245 -207q170 0 336 76v369q0 125 -26.5 170t-106.5 55l-51 6v64h573v-64l-51 -6q-80 -10 -106.5 -55t-26.5 -170v-805q0 -127 26.5 -172t106.5 -53l51 -7v-63h-573v63l51 7q80 8 106.5 53 t26.5 172v348q-190 -78 -342 -78q-98 0 -172 12.5t-139.5 42t-99 90t-33.5 148.5v242q0 125 -26.5 170t-106.5 55z" />
<glyph unicode="&#x428;" horiz-adv-x="2207" d="M63 0v63l52 7q80 8 106.5 53t26.5 172v805q0 125 -26.5 170t-106.5 55l-52 6v64h574v-64l-51 -6q-80 -10 -106.5 -55t-26.5 -170v-1012h548v1012q0 125 -26.5 170t-106.5 55l-51 6v64h574v-64l-52 -6q-80 -10 -106.5 -55t-26.5 -170v-1012h549v1012q0 125 -26.5 170 t-106.5 55l-51 6v64h573v-64l-51 -6q-80 -10 -106.5 -55t-26.5 -170v-805q0 -127 26.5 -172t106.5 -53l51 -7v-63h-2081z" />
<glyph unicode="&#x429;" horiz-adv-x="2277" d="M63 0v63l52 7q80 8 106.5 53t26.5 172v805q0 125 -26.5 170t-106.5 55l-52 6v64h574v-64l-51 -6q-80 -10 -106.5 -55t-26.5 -170v-1012h548v1012q0 125 -26.5 170t-106.5 55l-51 6v64h574v-64l-52 -6q-80 -10 -106.5 -55t-26.5 -170v-1012h549v1012q0 125 -26.5 170 t-106.5 55l-51 6v64h573v-64l-51 -6q-80 -10 -106.5 -55t-26.5 -170v-805q0 -147 36 -182t148 -31l70 -344l-66 -33q-23 47 -52.5 115.5t-41.5 89t-43 49.5t-74 35t-116 6h-1758z" />
<glyph unicode="&#x42a;" horiz-adv-x="1673" d="M-76 1044l127 351h967v-64l-76 -6q-78 -6 -105.5 -53t-27.5 -172v-291l111 20q111 20 178 21q225 0 369.5 -120t144.5 -318q0 -184 -139.5 -298t-372.5 -114h-680v63l51 7q80 8 106.5 53t26.5 172v805q0 209 -94 209q-121 0 -208 -33t-150.5 -89.5t-161.5 -174.5z M809 217q0 -82 43 -106.5t190 -24.5q170 0 265.5 87t95.5 245q0 154 -93 249t-245 95q-59 0 -158 -21l-98 -20v-504z" />
<glyph unicode="&#x42b;" horiz-adv-x="1878" d="M63 0v63l52 7q80 10 106.5 55t26.5 170v805q0 125 -26.5 170t-106.5 55l-52 6v64h599v-64l-76 -6q-78 -6 -105.5 -53t-27.5 -172v-291l110 20q111 20 178 21q225 0 369.5 -120t144.5 -318q0 -184 -139 -298t-373 -114h-680zM453 217q0 -82 43 -106.5t190 -24.5 q170 0 265.5 87t95.5 245q0 154 -93.5 249t-244.5 95q-59 0 -158 -21l-98 -20v-504zM1262 0v63l41 7q84 14 108.5 56t24.5 169v805q0 127 -25 169t-108 56l-41 6v64h553v-64l-41 -6q-84 -14 -109 -56t-25 -169v-805q0 -127 25 -169t109 -56l41 -7v-63h-553z" />
<glyph unicode="&#x42c;" horiz-adv-x="1314" d="M63 0v63l52 7q80 10 106.5 55t26.5 170v805q0 125 -26.5 170t-106.5 55l-52 6v64h599v-64l-76 -6q-78 -6 -105.5 -53t-27.5 -172v-291l110 20q111 20 178 21q225 0 369.5 -120t144.5 -318q0 -184 -139 -298t-373 -114h-680zM453 217q0 -82 43 -106.5t190 -24.5 q170 0 265.5 87t95.5 245q0 154 -93.5 249t-244.5 95q-59 0 -158 -21l-98 -20v-504z" />
<glyph unicode="&#x42d;" horiz-adv-x="1515" d="M104 367q0 121 125 120q57 0 89 -31.5t32 -78.5q0 -27 -19.5 -69t-19.5 -66q0 -31 29 -52q158 -119 336 -118q94 0 195.5 46t166.5 120q137 150 150 424h-639v88h637q-16 252 -147.5 412.5t-321.5 160.5q-113 0 -220.5 -60.5t-179.5 -164.5q-43 -63 -127 -215h-65l98 493 h68l43 -86q172 131 422 131q123 0 255 -61.5t226 -163.5q193 -205 193 -506q0 -307 -207 -512t-516 -205q-166 0 -317.5 61.5t-246.5 205.5q-39 61 -39 127z" />
<glyph unicode="&#x42e;" horiz-adv-x="2097" d="M63 0v63l52 7q80 8 106.5 53t26.5 172v805q0 125 -26.5 170t-106.5 55l-52 6v64h574v-64l-51 -6q-80 -10 -106.5 -55t-26.5 -170v-305h227q37 274 220 450t460 176q309 0 491.5 -203.5t182.5 -525.5q0 -264 -152 -450q-219 -268 -530 -269q-307 0 -493.5 207t-184.5 527 h-221v-412q0 -127 26.5 -172t106.5 -53l51 -7v-63h-574zM915 700q0 -297 110 -462.5t329 -165.5q217 0 327.5 161.5t110.5 446.5q0 305 -108.5 474t-327.5 169q-217 0 -329 -166t-112 -457z" />
<glyph unicode="&#x42f;" horiz-adv-x="1613" d="M119 270l74 21l4 -37q2 -35 25.5 -71t64.5 -36q47 0 74.5 20.5t37 44.5t19.5 71q20 102 74.5 217.5t130.5 177.5q-168 25 -261.5 116t-93.5 248q0 166 115 259.5t334 93.5h833v-64l-51 -6q-80 -10 -106.5 -55t-26.5 -170v-805q0 -125 26.5 -170t106.5 -55l51 -7v-63h-596 v63l74 7q78 8 105.5 54t27.5 171v362h-379q-78 -82 -112.5 -181t-34.5 -281q0 -113 -68.5 -170.5t-173.5 -57.5q-92 0 -154.5 47t-85 104.5t-28.5 104.5zM489 1034q0 -289 328 -289h344v445q0 41 -19.5 66.5t-63.5 37t-84 14.5t-109 3q-396 -1 -396 -277z" />
<glyph unicode="&#x430;" horiz-adv-x="1187" d="M72 236q0 209 344 294q96 25 346 52v163q0 84 -64.5 134.5t-173.5 50.5q-86 0 -146.5 -31t-60.5 -76l2 -57q0 -43 -30.5 -73.5t-73.5 -30.5q-41 0 -69.5 26.5t-28.5 63.5q0 53 47 110.5t119 89.5q139 59 280 60q154 0 277 -70q63 -35 89.5 -88t26.5 -145v-435 q0 -106 19 -143q27 -57 96 -57q45 0 92 41l39 -54q-82 -80 -211 -79q-174 0 -229 157q-102 -86 -187.5 -121.5t-187.5 -35.5q-137 0 -226 71.5t-89 182.5zM281 256q0 -74 52 -125t126 -51q143 0 303 151v279q-231 -20 -356 -86t-125 -168z" />
<glyph unicode="&#x431;" horiz-adv-x="1134" d="M70 494q0 303 67.5 500.5t249.5 291.5q66 35 134.5 48.5t138 15.5t75.5 2q39 4 50.5 6t44 9t45 16.5t24.5 26.5t12 40h82q0 -94 -52 -167t-144 -85q-33 -4 -113 -10t-130 -16.5t-89 -30.5q-123 -66 -181.5 -147t-86.5 -199q35 74 80 120t97 65t91 25.5t94 6.5 q248 0 383 -160q123 -154 123 -363q0 -227 -137 -367t-361 -140q-227 0 -362 139.5t-135 372.5zM272 498q0 -207 78 -321t219 -114q135 0 211 111t76 305q0 211 -79 331t-216 120q-131 0 -210 -117.5t-79 -314.5z" />
<glyph unicode="&#x432;" horiz-adv-x="1112" d="M41 0v61l51 5q80 6 104.5 35.5t24.5 123.5v518q0 98 -25.5 138.5t-103.5 46.5l-51 4v61h440q117 0 190.5 -6t158.5 -26.5t127 -69.5t42 -127q0 -88 -85 -141.5t-212 -75.5q375 -43 375 -260q0 -287 -569 -287h-467zM395 215q0 -80 40 -106.5t122 -26.5q131 0 210 51 t79 160q0 117 -85 162t-267 45h-99v-285zM395 578h109q170 0 228.5 46t58.5 124q0 174 -250 174q-88 0 -117 -17.5t-29 -95.5v-231z" />
<glyph unicode="&#x433;" horiz-adv-x="972" d="M41 0v61l51 5q68 6 96.5 46t28.5 124v522q0 84 -28.5 124t-96.5 46l-51 4v61h788l115 -301l-63 -22q-113 231 -357 231q-57 0 -95 -35t-38 -102v-528q0 -86 29 -125t96 -45l49 -5v-61h-524z" />
<glyph unicode="&#x434;" horiz-adv-x="1193" d="M33 -223l45 284h28q76 0 137.5 126t91.5 291t30 317q0 68 -29 98.5t-105 36.5l-51 2v61h953v-61l-52 -4q-80 -6 -106.5 -38t-26.5 -122v-565q0 -88 20.5 -115t82.5 -27h41l43 -284l-64 -23q-59 166 -108.5 206t-169.5 40h-418q-121 0 -170 -40t-109 -206zM356 113 q0 -29 39 -29h248q80 0 105.5 28.5t25.5 118.5v551q0 94 -14.5 122t-65.5 28h-123q-35 0 -58.5 -25.5t-23.5 -62.5q0 -223 -33.5 -393t-66.5 -251t-33 -87z" />
<glyph unicode="&#x435;" horiz-adv-x="1064" d="M76 506q0 221 136 363.5t347 142.5q223 0 350 -150q94 -109 97 -270h-711q0 -211 41 -307q86 -211 307 -211q188 0 295 196l68 -32q-150 -256 -424 -256q-233 0 -371 155q-135 152 -135 369zM301 674h492q0 55 -17 104q-59 152 -225 152q-125 0 -191 -90 q-41 -53 -59 -166z" />
<glyph unicode="&#x436;" horiz-adv-x="1710" d="M10 190l74 15l10 -25q10 -25 37 -50.5t57 -25.5q47 0 73 35t40 113q18 100 103 181t243 93q-102 37 -160.5 126t-72.5 194q-6 47 -39 47q-20 0 -28.5 -18.5t-9.5 -41t-22.5 -41t-64.5 -18.5q-55 0 -83 35t-28 80q0 63 55.5 95t129.5 32q92 0 139 -44t69 -136 q6 -27 14 -54l14 -51q7 -25 16.5 -47t19.5 -41.5t23.5 -35t30 -27t39 -17.5t46.5 -6h33v227q0 90 -26.5 122t-106.5 38l-51 4v45h542v-45l-51 -4q-80 -6 -106.5 -38t-26.5 -122v-227h33q25 0 47 6t38.5 17.5t30 27t23.5 35t19.5 42t16.5 46.5l14 51l14 54q23 92 69.5 136 t138.5 44q74 0 129.5 -32t55.5 -95q0 -45 -27.5 -80t-83.5 -35q-43 0 -64.5 18.5t-22.5 41t-9 41t-29 18.5q-33 0 -39 -47q-14 -104 -72.5 -193.5t-160.5 -126.5q158 -12 243 -93t103 -181q14 -78 40 -113t73 -35q31 0 57.5 26t36.5 50l10 25l74 -15l-4 -22 q-4 -23 -22.5 -54.5t-47.5 -62.5t-87 -53.5t-134 -22.5q-90 0 -143.5 53.5t-59.5 121.5q-37 346 -260 346v-289q0 -88 26.5 -120t106.5 -38l51 -4v-45h-542v45l51 4q80 6 106.5 38t26.5 120v289q-223 0 -260 -346q-6 -68 -59.5 -121.5t-143.5 -53.5q-76 0 -134 22.5 t-87 53.5t-47.5 62.5t-22.5 54.5z" />
<glyph unicode="&#x437;" horiz-adv-x="995" d="M61 252q0 39 24 69.5t65 30.5q104 0 104 -88q0 -25 -6 -42t-6 -34q0 -57 76.5 -87.5t168.5 -30.5q61 0 113.5 15t94.5 64.5t42 126.5q0 104 -65.5 156.5t-175.5 52.5h-117v99h141q98 0 143.5 43t45.5 137q0 172 -238 172q-102 0 -175 -76t-89 -190h-70l25 315h57l17 -59 q92 96 247 96q201 0 306.5 -81t105.5 -200q0 -150 -123 -196q76 -16 117 -82t41 -166q0 -317 -436 -317q-178 0 -305.5 73.5t-127.5 198.5z" />
<glyph unicode="&#x438;" horiz-adv-x="1318" d="M41 0v61l51 5q68 6 97.5 45t29.5 122v525q0 84 -29.5 124t-97.5 46l-51 4v61h530v-61l-51 -4q-68 -6 -97.5 -46t-29.5 -124v-383l537 381q0 86 -30 127t-97 45l-51 4v61h530v-61l-51 -4q-68 -6 -97.5 -46t-29.5 -124v-525q0 -84 29.5 -122.5t97.5 -44.5l51 -5v-61h-530 v61l51 5q68 6 97.5 45t29.5 122v385l-537 -380v-5q0 -84 30 -122.5t97 -44.5l51 -5v-61h-530z" />
<glyph unicode="&#x439;" horiz-adv-x="1318" d="M41 0v61l51 5q68 6 97.5 45t29.5 122v525q0 84 -29.5 124t-97.5 46l-51 4v61h530v-61l-51 -4q-68 -6 -97.5 -46t-29.5 -124v-383l537 381q0 86 -30 127t-97 45l-51 4v61h530v-61l-51 -4q-68 -6 -97.5 -46t-29.5 -124v-525q0 -84 29.5 -122.5t97.5 -44.5l51 -5v-61h-530 v61l51 5q68 6 97.5 45t29.5 122v385l-537 -380v-5q0 -84 30 -122.5t97 -44.5l51 -5v-61h-530zM326 1341l47 37q131 -106 291 -106q76 0 154.5 29.5t131.5 76.5l47 -37q-47 -94 -139 -150t-199 -56q-113 0 -199.5 54t-133.5 152z" />
<glyph unicode="&#x43a;" horiz-adv-x="1200" d="M41 0v61l51 5q68 6 97.5 45t29.5 122v527q0 84 -29.5 123t-97.5 45l-51 4v61h530v-61l-51 -4q-68 -6 -97.5 -45t-29.5 -123v-203h74q25 0 47.5 6t38.5 17.5t29.5 27t23.5 35t19.5 42t16.5 46.5l14 51l14 54q23 92 72 136t141 44q72 0 122 -32t50 -95q0 -47 -23.5 -81 t-79.5 -34q-43 0 -64.5 18.5t-22.5 41t-9 41t-29 18.5q-33 0 -39 -47q-14 -104 -72.5 -193.5t-160.5 -126.5q131 -4 236.5 -81.5t105.5 -184.5q0 -80 33 -118t84 -38q31 0 57.5 26t36.5 50l10 25l74 -15l-4 -34q-6 -33 -26.5 -73t-82 -74t-153.5 -34q-117 0 -177.5 62.5 t-60.5 146.5q0 131 -64.5 221.5t-189.5 90.5h-41v-263q0 -84 30 -122.5t97 -44.5l51 -5v-61h-530z" />
<glyph unicode="&#x43b;" horiz-adv-x="1249" d="M25 96q0 47 29.5 77t86.5 30q35 0 56.5 -15.5t28.5 -34t22.5 -34t42.5 -15.5q82 0 137 224.5t55 455.5q0 133 -133 144l-51 4v61h909v-61l-51 -4q-68 -6 -97.5 -45t-29.5 -123v-527q0 -84 30 -122.5t97 -44.5l51 -5v-61h-530v61l51 5q68 6 97.5 45t29.5 122v549 q0 94 -14.5 122t-65.5 28h-96q-78 0 -78 -88q0 -131 -38 -361.5t-87 -328.5q-53 -106 -122.5 -140t-180.5 -34q-78 0 -113.5 24t-35.5 92z" />
</font>
</defs>
</svg>
