<?xml version="1.0" standalone="no"?>
<!DOCTYPE svg PUBLIC "-//W3C//DTD SVG 1.1//EN" "http://www.w3.org/Graphics/SVG/1.1/DTD/svg11.dtd" >
<svg xmlns="http://www.w3.org/2000/svg">
<metadata>
This is a custom SVG webfont generated by Font Squirrel.
Copyright   : Copyright URW copyright 1999 by URW Design  Development Cyrillic glyphs added by Valek Filippov copyright 20012002 Vietnamese characters were added by Han The Thanh copyright 2006 2008 for TeX Gyre extensions by B Jackowski and JM Nowacki on behalf of TeX users groups This work is released under the GUST Font License   see httptugorgfontslicensesGUSTFONTLICENSEtxt for details
</metadata>
<defs>
<font id="webfontaYvmTJiJ" horiz-adv-x="1187" >
<font-face units-per-em="2048" ascent="1612" descent="-436" />
<missing-glyph horiz-adv-x="696" />
<glyph unicode="IJ" horiz-adv-x="2254" d="M82 0v168l49 4q92 8 115.5 46t23.5 126v707q0 92 -23.5 129t-115.5 43l-49 4v168h735v-168l-49 -4q-92 -8 -115.5 -46t-23.5 -126v-707q0 -92 23.5 -129t115.5 -43l49 -4v-168h-735zM874 387q0 102 58.5 168t148.5 66q68 0 113 -44.5t45 -111.5q0 -70 -55 -133 q-18 -20 -19 -35q0 -45 67.5 -80t151.5 -35q72 0 122 23.5t75 52.5t37 76t14 72.5t2 66.5v578q0 98 -26.5 129.5t-112.5 42.5l-41 4v168h719v-168l-41 -4q-86 -10 -112.5 -42t-26.5 -130v-557q0 -90 -11.5 -159t-47.5 -139.5t-97 -116.5t-166.5 -76t-249.5 -30 q-242 0 -394.5 116t-152.5 298z" />
<glyph unicode="ij" horiz-adv-x="1419" d="M82 0v166l65 14q57 12 74 40t17 116v295q0 94 -24 128t-89 40l-43 4v166l360 59h127v-692q0 -88 15.5 -114.5t74.5 -41.5l64 -14v-166h-641zM215 1374q0 84 55.5 139.5t139.5 55.5q78 0 137 -60.5t59 -142.5q0 -76 -57 -132t-135 -56q-82 0 -140.5 57t-58.5 139z M582 -291q0 57 42 96t107 39q41 0 67.5 -14t73.5 -66q29 -29 58 -28q76 0 76 139v756q0 94 -22.5 127t-90.5 41l-37 4v166l354 59h127v-1055q0 -436 -477 -436q-131 0 -204.5 46t-73.5 126zM983 1374q0 84 55.5 139.5t139.5 55.5q78 0 137 -60.5t59 -142.5q0 -76 -57 -132 t-135 -56q-82 0 -140.5 57t-58.5 139z" />
<glyph unicode="fk" horiz-adv-x="2129" d="M45 0v168l64 14q59 12 74.5 40t15.5 116v516h-138v174h138v37q0 231 142 336.5t452 105.5q252 0 503 -24v-860l134 143q41 45 40 65q0 27 -53 29l-22 2v166h592v-166l-29 -2q-92 -12 -168 -67l-180 -134l278 -389q66 -92 162 -100l37 -4v-166h-625v166l23 4q43 8 43 35 q0 20 -19 49l-137 213l-76 -68v-63q0 -143 95 -164l28 -6v-166h-604v166l59 14q59 14 75 41t16 115v692q0 66 -1 97.5t-11.5 77.5t-31 67.5t-60.5 38t-99 16.5q-82 0 -133 -20.5t-70.5 -64.5t-24 -77t-4.5 -94v-41h183v-174h-183v-516q0 -88 15.5 -115.5t75.5 -40.5l63 -14 v-168h-639z" />
<glyph unicode="&#xfb00;" horiz-adv-x="1556" d="M45 854v174h154v94q0 168 132 276.5t339 108.5q129 0 201.5 -44t72.5 -124q0 -59 -48 -101t-118 -42q-41 0 -66.5 16.5t-58.5 63.5q-16 23 -47 22q-76 0 -76 -120v-150h439v94q0 168 132 276.5t339 108.5q129 0 201.5 -44t72.5 -124q0 -61 -49 -102t-117 -41 q-41 0 -66.5 16.5t-58.5 63.5q-16 23 -47 22q-76 0 -76 -120v-150h193v-174h-193v-516q0 -88 17.5 -114.5t85.5 -41.5l67 -14v-168h-651v168l60 14q59 14 74.5 41t15.5 115v516h-439v-516q0 -88 17.5 -114.5t85.5 -41.5l67 -14v-168h-651v168l60 14q59 14 74.5 41t15.5 115 v516h-154z" />
<glyph unicode="&#xfb01;" horiz-adv-x="1515" d="M45 0v168l64 14q70 14 87 41t17 115v516h-152v174h152v64q0 201 129 308t455 107q219 0 358 -67.5t139 -175.5q0 -66 -55 -110t-137 -44q-74 0 -118 29.5t-75 97.5q-27 59 -59.5 80.5t-101.5 21.5q-72 0 -116 -18t-61.5 -62.5t-21.5 -80t-4 -109.5v-41h755v-690 q0 -88 16.5 -115.5t74.5 -40.5l63 -14v-168h-639v168l64 14q57 12 73.5 40t16.5 116v321q0 123 -35 159t-143 36h-246v-516q0 -88 16.5 -115.5t73.5 -40.5l63 -14v-168h-653z" />
<glyph unicode="&#xfb02;" horiz-adv-x="1515" d="M45 0v168l64 14q57 12 73.5 40t16.5 116v516h-138v174h138v37q0 215 130 328.5t464 113.5q102 0 507 -37v-1132q0 -88 16.5 -115.5t74.5 -40.5l63 -14v-168h-639v168l64 14q57 12 73.5 40t16.5 116v690q0 66 -1 97.5t-12.5 77.5t-32 67.5t-61.5 38t-100 16.5 q-82 0 -133 -20.5t-70.5 -64.5t-24 -77t-4.5 -94v-41h183v-174h-183v-516q0 -88 16.5 -115.5t74.5 -40.5l63 -14v-168h-639z" />
<glyph unicode="&#xfb03;" horiz-adv-x="2293" d="M45 854v174h154v94q0 168 132 276.5t339 108.5q129 0 201.5 -44t72.5 -124q0 -59 -48 -101t-118 -42q-41 0 -66.5 16.5t-58.5 63.5q-16 23 -47 22q-76 0 -76 -120v-150h439v64q0 100 12 150t47 91q143 174 524 174q219 0 358.5 -67.5t139.5 -175.5q0 -66 -55.5 -110 t-136.5 -44q-74 0 -118 29.5t-75 97.5q-27 59 -59.5 80.5t-102.5 21.5q-72 0 -116 -18t-61 -62.5t-21.5 -80t-4.5 -109.5v-41h756v-690q0 -88 16.5 -115.5t73.5 -40.5l64 -14v-168h-639v168l63 14q57 12 73.5 40t16.5 116v321q0 133 -29.5 164t-148.5 31h-246v-516 q0 -88 16.5 -115.5t74.5 -40.5l63 -14v-168h-653v168l63 14q70 14 87.5 41t17.5 115v516h-439v-516q0 -88 17.5 -114.5t85.5 -41.5l67 -14v-168h-651v168l60 14q59 14 74.5 41t15.5 115v516h-154z" />
<glyph unicode="&#xfb04;" horiz-adv-x="2293" d="M45 854v174h154v94q0 168 132 276.5t339 108.5q129 0 201.5 -44t72.5 -124q0 -59 -48 -101t-118 -42q-41 0 -66.5 16.5t-58.5 63.5q-16 23 -47 22q-76 0 -76 -120v-150h424v37q0 100 15.5 156.5t58.5 113.5q129 172 520 172q102 0 508 -37v-1132q0 -88 16.5 -115.5 t73.5 -40.5l64 -14v-168h-639v168l63 14q57 12 73.5 40t16.5 116v690q0 66 -1 97.5t-12 77.5t-31.5 67.5t-61.5 38t-100 16.5q-82 0 -133.5 -20.5t-71 -64.5t-23.5 -77t-4 -94v-41h182v-174h-182v-516q0 -88 16.5 -115.5t73.5 -40.5l64 -14v-168h-639v168l63 14 q57 12 73.5 40t16.5 116v516h-424v-516q0 -88 17.5 -114.5t85.5 -41.5l67 -14v-168h-651v168l60 14q59 14 74.5 41t15.5 115v516h-154z" />
<glyph unicode=" "  horiz-adv-x="696" />
<glyph unicode="&#x09;" horiz-adv-x="696" />
<glyph unicode="&#xa0;" horiz-adv-x="696" />
<glyph unicode="!" horiz-adv-x="737" d="M168 1217q0 86 59.5 145t147.5 59q92 0 147.5 -61.5t55.5 -163.5q0 -55 -50 -272q-53 -242 -71 -482h-168q-25 256 -72 469q-49 226 -49 306zM182 168q0 76 56.5 130t134.5 54t133 -55t55 -133q-2 -80 -56 -135.5t-134 -55.5q-78 0 -133.5 56.5t-55.5 138.5z" />
<glyph unicode="&#x22;" horiz-adv-x="860" d="M23 1280q0 59 39.5 100t99 41t99.5 -41t40 -102q0 -14 -8 -57l-82 -437h-98l-82 437q-8 43 -8 59zM477 1280q0 59 40 100t99.5 41t99.5 -41t40 -102q0 -14 -8 -57l-82 -437h-99l-82 437q-8 43 -8 59z" />
<glyph unicode="#" horiz-adv-x="1351" d="M172 449v174h234l26 176h-203v174h230l61 422h176l-61 -422h178l61 422h177l-62 -422h191v-174h-215l-27 -176h184v-174h-209l-67 -449h-176l65 449h-176l-67 -449h-177l66 449h-209zM584 623h176l26 176h-176z" />
<glyph unicode="$" horiz-adv-x="1351" d="M98 377q0 70 45 115t115 45q66 0 115 -40t49 -96q0 -6 -4 -30.5t-4 -40.5q0 -57 70.5 -93t185.5 -36q137 0 220 53t83 141q0 66 -37 98.5t-143 57.5l-183 43q-70 10 -153.5 35.5t-154.5 56.5t-119 103.5t-48 175.5q0 172 132 281.5t360 123.5v279h129v-277 q193 -14 318.5 -96t125.5 -191q0 -57 -35 -93t-90 -36q-137 0 -160 168q-6 45 -79.5 77t-167.5 32q-106 0 -171 -44t-65 -116q0 -80 66.5 -120t216.5 -74l145 -33q219 -49 314.5 -135t95.5 -238q0 -172 -137.5 -283.5t-376.5 -136.5v-299h-129v299q-248 18 -388.5 104.5 t-140.5 219.5z" />
<glyph unicode="%" horiz-adv-x="1925" d="M25 971q0 201 109.5 320.5t289.5 119.5q174 0 280.5 -118.5t106.5 -313.5q0 -199 -106.5 -317.5t-286.5 -118.5t-286.5 115.5t-106.5 312.5zM276 981q0 -311 142 -311q68 0 104.5 79.5t36.5 227.5q0 145 -37 226t-104.5 81t-104.5 -80t-37 -223zM434 0l871 1395h165 l-876 -1395h-160zM1106 412q0 201 109.5 320.5t289.5 119.5q174 0 280.5 -119t106.5 -313q0 -199 -106.5 -317.5t-286.5 -118.5t-286.5 115.5t-106.5 312.5zM1358 422q0 -311 141 -311q68 0 104.5 79.5t36.5 227.5q0 145 -36.5 226t-104 81t-104.5 -80t-37 -223z" />
<glyph unicode="&#x26;" horiz-adv-x="1638" d="M43 399q0 70 21.5 140.5t94 151.5t189.5 124q-117 117 -117 266.5t114 244.5t296 95q162 0 266.5 -84t104.5 -213q0 -88 -54.5 -170t-154.5 -139q188 -193 258 -311q66 154 65 235q0 41 -23.5 59.5t-88.5 28.5v160h538v-160q-121 -10 -166 -44.5t-61 -129.5 q-57 -219 -143 -321q59 -84 129.5 -122t173.5 -38q47 0 96 4v-168q-86 -14 -219 -14q-137 0 -220 26.5t-161 94.5q-176 -141 -416 -142q-229 0 -375.5 120t-146.5 306zM399 449q0 -121 61.5 -194t166.5 -73q106 0 223 72l-23 25q-14 16 -84 116q-137 188 -258 283 q-86 -73 -86 -229zM563 1133q0 -78 92 -187q111 74 111 180q0 45 -28.5 76t-69.5 31q-43 0 -74 -29.5t-31 -70.5z" />
<glyph unicode="'" horiz-adv-x="491" d="M86 1280q0 59 40 100t99.5 41t99.5 -41t40 -102q0 -14 -9 -57l-82 -437h-98l-82 437q-8 43 -8 59z" />
<glyph unicode="(" horiz-adv-x="655" d="M98 377v438q0 344 129 516t365 178v-166q-113 -31 -162 -158.5t-49 -375.5v-426q0 -252 51 -379t160 -154v-167q-248 4 -371 185t-123 509z" />
<glyph unicode=")" horiz-adv-x="655" d="M41 -150q111 27 161 154t50 379v426q0 254 -51 379t-160 155v166q248 -4 372 -185t124 -509v-438q0 -346 -130.5 -517t-365.5 -177v167z" />
<glyph unicode="*" horiz-adv-x="942" d="M127 901q0 68 113 88l151 31l4 39l-153 24q-113 18 -113 88q0 43 28.5 77t67.5 34q41 0 94 -61l101 -117l39 14l-58 148q-16 45 -16 69q0 39 25.5 62.5t70.5 23.5q41 0 67.5 -22.5t26.5 -59.5q0 -23 -16 -73l-51 -148l33 -24l98 120q49 63 96 64q35 0 64.5 -34t29.5 -75 q0 -70 -112 -90l-152 -28l-4 -41l154 -25q113 -18 112 -88q0 -41 -28.5 -75t-65.5 -34q-43 0 -96 62l-100 117l-39 -17l55 -145q18 -45 18 -72q0 -39 -25.5 -61.5t-68.5 -22.5t-69.5 22.5t-26.5 57.5q0 29 16 76l52 145l-33 25l-99 -121q-49 -61 -98 -61q-35 0 -63.5 33.5 t-28.5 74.5z" />
<glyph unicode="+" horiz-adv-x="1228" d="M82 393v238h414v413h237v-413h414v-238h-414v-413h-237v413h-414z" />
<glyph unicode="," horiz-adv-x="696" d="M160 160q0 78 51 130t127 52q84 0 136 -60.5t52 -156.5q0 -201 -231 -371l-98 105q76 68 110 135q-147 31 -147 166z" />
<glyph unicode="-" horiz-adv-x="737" d="M41 430l96 221h559l-92 -221h-563z" />
<glyph unicode="." horiz-adv-x="696" d="M156 162q0 76 54 129t132 53q76 0 130 -53t54 -131t-54 -132.5t-132 -54.5q-76 0 -130 55.5t-54 133.5z" />
<glyph unicode="/" horiz-adv-x="1228" d="M102 -283l766 1758h269l-766 -1758h-269z" />
<glyph unicode="0" horiz-adv-x="1351" d="M61 688q0 90 16.5 182.5t61.5 194.5t112.5 179t182.5 127t260 50q279 0 447 -196.5t168 -522.5q0 -334 -169 -531.5t-456 -197.5t-455 192.5t-168 522.5zM444 705q0 -262 61.5 -402.5t178.5 -140.5t179.5 139t62.5 395q0 258 -62.5 397.5t-179.5 139.5 q-115 0 -177.5 -138t-62.5 -390z" />
<glyph unicode="1" horiz-adv-x="1351" d="M281 0v168l53 4q141 10 175 35.5t34 118.5v690q0 47 -4 68.5t-14.5 41t-43 25.5t-76 10t-124.5 4v160q115 0 318.5 26.5t203.5 43.5h98v-1069q0 -88 31 -114t139 -36l92 -8v-168h-882z" />
<glyph unicode="2" horiz-adv-x="1351" d="M84 229q229 152 306 208.5t167 140.5q250 233 250 460q0 94 -59.5 149.5t-159.5 55.5q-80 0 -143.5 -34.5t-63.5 -80.5q0 -20 20 -53q33 -49 33 -96q0 -63 -50 -110.5t-120 -47.5q-78 0 -129 54.5t-51 140.5q0 176 158.5 290.5t402.5 114.5q258 0 413.5 -115.5 t155.5 -304.5q0 -102 -51 -192t-168 -197q-162 -143 -499 -325h256q86 0 130 4t83 12t62.5 33.5t43 57.5t49.5 95l166 -45l-125 -444h-1044z" />
<glyph unicode="3" horiz-adv-x="1351" d="M76 313q0 80 50 134.5t126 54.5q74 0 125 -45t51 -111q0 -31 -20 -86q0 -39 67.5 -68.5t153.5 -29.5q121 0 191.5 66.5t70.5 181.5q0 143 -85 198.5t-241 55.5q-41 0 -76 -2v182h58q287 0 287 217q0 78 -55.5 125t-149.5 47q-66 0 -128.5 -32t-62.5 -64q0 -10 17.5 -45 t17.5 -68q0 -63 -51 -107.5t-127 -44.5q-78 0 -126 50.5t-48 130.5q0 160 158.5 264t398.5 104q242 0 395.5 -105.5t153.5 -271.5q0 -92 -62.5 -168.5t-169.5 -115.5q143 -35 220 -121t77 -211q0 -203 -186 -329t-477 -126q-238 0 -395.5 97.5t-157.5 242.5z" />
<glyph unicode="4" horiz-adv-x="1351" d="M39 496q430 524 670 899h323v-848h297l-88 -199h-209v-76q0 -92 127 -100l51 -4v-168h-688v168l51 4q127 8 127 100v76h-589zM324 547h376v530q-73 -131 -376 -530z" />
<glyph unicode="5" horiz-adv-x="1351" d="M90 297q0 82 50 134t130 52t133.5 -50t53.5 -124q0 -16 -5.5 -41.5t-5.5 -42.5q0 -33 40 -53t100 -20q121 0 197.5 87t76.5 226q0 133 -72.5 221t-181.5 88q-82 0 -160.5 -54t-123.5 -138q-18 6 -162 45v768h497q178 0 218 2t67 12q29 12 55 74h166l-59 -375h-744v-244 q156 109 379 109q238 0 387.5 -134t149.5 -345q0 -236 -176 -378.5t-467 -142.5q-238 0 -390.5 90.5t-152.5 233.5z" />
<glyph unicode="6" horiz-adv-x="1351" d="M70 659q0 137 30.5 261t101 242t209 188.5t328.5 70.5q205 0 349.5 -80.5t144.5 -195.5q0 -66 -48 -112t-118 -46q-68 0 -115 39t-53 102q-6 70 -37 92.5t-104 22.5q-152 0 -238 -114.5t-104 -325.5q158 117 381 117q219 0 360 -130.5t141 -330.5q0 -219 -164.5 -352.5 t-437.5 -133.5q-305 0 -465.5 176t-160.5 510zM442 434q0 -129 63.5 -200.5t176.5 -71.5q115 0 179.5 74.5t64.5 207.5q0 127 -62.5 202t-171.5 75q-115 0 -182.5 -77t-67.5 -210z" />
<glyph unicode="7" horiz-adv-x="1351" d="M74 967l67 428h1127l26 -211q-94 -76 -215 -248t-225 -429t-104 -478l2 -29h-418q16 238 202.5 552t477.5 591h-508q-137 0 -182 -32t-103 -165z" />
<glyph unicode="8" horiz-adv-x="1351" d="M74 375q0 221 250 319q-195 98 -195 301q0 70 30.5 139.5t92 136t175.5 108.5t261 42q236 0 381 -97t145 -253q0 -174 -194 -287q143 -57 209.5 -140t66.5 -206q0 -209 -177 -337t-466 -128q-264 0 -421.5 110t-157.5 292zM346 379q0 -102 83 -159.5t233 -57.5 q141 0 222 47t81 131q0 111 -220 188l-219 78q-96 -41 -138 -93t-42 -134zM461 1089.5q0 -63.5 78.5 -114.5t259.5 -115q80 53 111.5 96t31.5 101q0 80 -70.5 128t-185.5 48q-100 0 -162.5 -40t-62.5 -103.5z" />
<glyph unicode="9" horiz-adv-x="1351" d="M68 928q0 215 172 354t438 139q92 0 176 -18.5t168 -67.5t144.5 -125.5t98.5 -202.5t38 -288q0 -172 -42 -306t-110 -215t-161 -133.5t-185 -72t-193 -19.5q-205 0 -342 78t-137 193q0 66 47 111.5t115 45.5q74 0 115 -41t65 -135q16 -63 143 -63q147 0 235.5 115.5 t88.5 308.5q-147 -117 -373 -117q-219 0 -360 129t-141 330zM424 958q0 -129 63.5 -204.5t171.5 -75.5q121 0 192 74.5t71 201.5q0 129 -65.5 204t-180.5 75q-117 0 -184.5 -74t-67.5 -201z" />
<glyph unicode=":" horiz-adv-x="696" d="M156 162q0 76 54 129t132 53q76 0 130 -53t54 -131t-54 -132.5t-132 -54.5q-76 0 -130 55.5t-54 133.5zM156 874q0 76 54 129.5t132 53.5q76 0 130 -53.5t54 -131t-54 -132t-132 -54.5q-76 0 -130 55t-54 133z" />
<glyph unicode=";" horiz-adv-x="696" d="M154 874q0 76 55 129.5t131 53.5q78 0 131 -53.5t53 -131t-55 -132t-131 -54.5t-130 55t-54 133zM162 160q0 78 51 130t127 52q84 0 137 -60.5t53 -156.5q0 -201 -233 -371l-98 105q76 68 110 135q-147 31 -147 166z" />
<glyph unicode="&#x3c;" horiz-adv-x="1228" d="M104 410v204l961 551v-274l-662 -379l662 -379v-274z" />
<glyph unicode="=" horiz-adv-x="1228" d="M82 219v238h1065v-238h-1065zM82 567v238h1065v-238h-1065z" />
<glyph unicode="&#x3e;" horiz-adv-x="1228" d="M104 133l662 379l-662 379v274l961 -551v-204l-961 -551v274z" />
<glyph unicode="?" horiz-adv-x="1351" d="M125 1042q0 162 160.5 270.5t398.5 108.5q264 0 412.5 -102t148.5 -285q0 -258 -274 -377q-109 -47 -138.5 -82.5t-29.5 -113.5v-17h-205q-4 25 -4 68q0 113 31.5 170t146.5 147q100 80 100 199q0 98 -60 156.5t-161 58.5q-82 0 -145.5 -32.5t-63.5 -75.5 q0 -12 15.5 -52.5t15.5 -74.5q0 -68 -48 -112t-122 -44q-84 0 -131 51t-47 139zM520 168q0 76 55.5 130t133.5 54q80 0 135 -55t55 -133t-56.5 -134.5t-134 -56.5t-133 56.5t-55.5 138.5z" />
<glyph unicode="@" horiz-adv-x="1679" d="M123 709q0 217 112.5 386t281.5 254t355 85q113 0 229 -38t219 -108.5t167.5 -189.5t64.5 -262q0 -121 -51 -220.5t-126 -154.5t-150.5 -84t-137.5 -29q-135 0 -163 107q-90 -106 -226 -107q-115 0 -189.5 82t-74.5 207q0 172 120 299t284 127q109 0 182 -64l10 52h193 l-80 -435l-4 -26q-6 -25 -6 -43q0 -23 14 -38t35 -15q55 0 138 82.5t83 234.5q0 205 -152.5 344t-378.5 139q-258 0 -429 -165.5t-171 -417.5q0 -258 170 -428t430 -170q340 0 523 264h143q-109 -197 -278.5 -300.5t-387.5 -103.5q-313 0 -531 215.5t-218 520.5zM666 604 q0 -57 24.5 -90t67.5 -33q74 0 126 81t103 339q-63 43 -113 43q-82 0 -145 -103.5t-63 -236.5z" />
<glyph unicode="A" horiz-adv-x="1474" d="M-70 0v168l33 4q86 10 133 59.5t107 190.5l405 973h318l401 -1000q63 -133 95 -171t108 -52l33 -4v-168h-748v168l51 4q66 4 92.5 19.5t26.5 46.5q-2 31 -20 84l-62 174h-440l-66 -177q-18 -47 -18 -61q0 -41 35 -58.5t116 -27.5l33 -4v-168h-633zM528 670h308l-152 399z " />
<glyph unicode="B" horiz-adv-x="1474" d="M41 0v168l41 4q86 10 112.5 42t26.5 130v707q0 98 -26.5 129.5t-112.5 42.5l-41 4v168h778q160 0 272.5 -27t189.5 -107.5t77 -216.5q0 -94 -52.5 -171.5t-144.5 -122.5q125 -41 191.5 -128t66.5 -212q0 -111 -40 -191t-95 -121t-140 -64.5t-145.5 -28.5t-138.5 -5h-819z M580 287q0 -53 32.5 -79t145.5 -26q135 0 212 65.5t77 182.5t-70 169t-227 52h-170v-364zM580 840h163q127 0 197 46t70 128q0 88 -69 137t-193 49q-80 0 -118 -15.5t-44 -32.5t-6 -58v-254z" />
<glyph unicode="C" horiz-adv-x="1515" d="M72 698q0 96 21.5 192.5t73.5 193t130 171t201 120.5t274 46q188 0 342 -73l16 47h142l172 -484l-158 -59q-111 193 -170 256q-141 145 -291 145q-166 0 -263 -149.5t-97 -403.5q0 -150 38 -261t100.5 -167.5t126 -83t128.5 -26.5q268 0 453 323l172 -77 q-74 -197 -259.5 -316t-416.5 -119q-322 0 -528.5 204t-206.5 521z" />
<glyph unicode="D" horiz-adv-x="1597" d="M41 0v168l41 4q86 10 112.5 42t26.5 130v707q0 98 -26.5 129.5t-112.5 42.5l-41 4v168h651q143 0 258 -16.5t227.5 -62.5t187.5 -122t121 -204t46 -298q0 -141 -36 -255.5t-121 -218t-246.5 -161t-389.5 -57.5h-698zM580 332q0 -90 20.5 -119t116.5 -29 q193 0 307.5 142.5t114.5 380.5q0 236 -109.5 369.5t-302.5 133.5q-88 0 -117.5 -22.5t-29.5 -85.5v-770z" />
<glyph unicode="E" horiz-adv-x="1474" d="M41 0v168l41 4q86 10 112.5 42t26.5 130v707q0 98 -26.5 129.5t-112.5 42.5l-41 4v168h1182l202 -422l-139 -70q-213 307 -489 307q-66 0 -107 -7t-63.5 -17t-32.5 -39t-12 -51.5t-2 -75.5v-174h59q66 0 96.5 4t60 25.5t40 66.5t12.5 127h160v-637h-160 q-18 143 -64.5 184t-146.5 41h-57v-241q0 -162 23.5 -197t146.5 -35q176 0 316 87t273 280l144 -68l-226 -483h-1216z" />
<glyph unicode="F" horiz-adv-x="1392" d="M41 0v168l41 4q86 10 112.5 42t26.5 130v707q0 98 -26.5 129.5t-112.5 42.5l-41 4v168h1169l195 -420l-141 -72q-119 162 -236 229.5t-276 67.5q-121 0 -146.5 -31.5t-25.5 -142.5v-192h59q119 0 157 35.5t52 187.5h151v-664h-151q-8 88 -22.5 138.5t-47.5 72t-60.5 25.5 t-90.5 4h-47v-289q0 -90 23.5 -127t115.5 -45l55 -4v-168h-733z" />
<glyph unicode="G" horiz-adv-x="1597" d="M72 696q0 317 194.5 521t497.5 204q90 0 191.5 -24.5t164.5 -61.5l31 60h131l125 -469l-147 -52q-80 143 -142 205q-139 143 -315 144q-152 0 -245 -151.5t-93 -401.5q0 -219 99.5 -358.5t254.5 -139.5q111 0 195 73.5t84 170.5q0 131 -180 133v168h665v-168l-56.5 -8 t-40 -9.5t-32.5 -16.5t-17.5 -28.5t-13.5 -46t-2 -67.5v-391h-223l-47 118q-184 -127 -422 -127q-301 0 -479 207t-178 516z" />
<glyph unicode="H" horiz-adv-x="1679" d="M41 0v168l41 4q86 10 112.5 42t26.5 130v707q0 98 -26.5 129.5t-112.5 42.5l-41 4v168h719v-168l-41 -4q-86 -10 -112.5 -42t-26.5 -130v-201h520v201q0 98 -26.5 129.5t-112.5 42.5l-41 4v168h718v-168l-41 -4q-86 -10 -112.5 -42t-26.5 -130v-707q0 -98 26.5 -130 t112.5 -42l41 -4v-168h-718v168l41 4q86 10 112.5 42t26.5 130v307h-520v-307q0 -98 26.5 -130t112.5 -42l41 -4v-168h-719z" />
<glyph unicode="I" horiz-adv-x="819" d="M41 0v168l49 4q92 8 115.5 46t23.5 126v707q0 92 -23.5 129t-115.5 43l-49 4v168h735v-168l-49 -4q-92 -8 -115.5 -46t-23.5 -126v-707q0 -92 23.5 -129t115.5 -43l49 -4v-168h-735z" />
<glyph unicode="J" horiz-adv-x="1310" d="M-25 387q0 102 58.5 168t148.5 66q68 0 113 -44.5t45 -111.5q0 -70 -55 -133q-18 -20 -19 -35q0 -45 67.5 -80t151.5 -35q72 0 122 23.5t75 52.5t37 76t14 72.5t2 66.5v578q0 98 -26.5 129.5t-112.5 42.5l-41 4v168h719v-168l-41 -4q-86 -10 -112.5 -42t-26.5 -130v-557 q0 -90 -11.5 -159t-47.5 -139.5t-97 -116.5t-166.5 -76t-249.5 -30q-242 0 -394.5 116t-152.5 298z" />
<glyph unicode="K" horiz-adv-x="1638" d="M41 0v168l41 4q86 10 112.5 42t26.5 130v707q0 98 -26.5 129.5t-112.5 42.5l-41 4v168h704v-168l-26 -4q-94 -14 -116.5 -42t-22.5 -130v-277l344 328q68 63 67 84q0 41 -102 41h-35v168h692v-168q-133 -18 -229 -68.5t-230 -173.5l-83 -78l299 -469q106 -166 159.5 -210 t167.5 -60v-168h-776v168l37 4q82 8 103.5 17.5t21.5 35.5q0 18 -29 64l-29 45l-210 348l-168 -145v-193q0 -102 22.5 -130t116.5 -42l26 -4v-168h-704z" />
<glyph unicode="L" horiz-adv-x="1310" d="M41 0v168l41 4q86 10 112.5 42t26.5 130v707q0 98 -26.5 129.5t-112.5 42.5l-41 4v168h719v-168l-41 -4q-86 -10 -112.5 -42t-26.5 -130v-680q0 -127 17 -157t108 -30q309 0 522 379l141 -76l-213 -487h-1114z" />
<glyph unicode="M" horiz-adv-x="1925" d="M41 0v168l41 4q86 10 112.5 42t26.5 130v707q0 98 -26.5 129.5t-112.5 42.5l-41 4v168h637l283 -873l290 873h641v-168l-41 -4q-86 -10 -112.5 -42t-26.5 -130v-707q0 -98 26.5 -130t112.5 -42l41 -4v-168h-718v168l40 4q86 10 113 42t27 130v711l-359 -1055h-221 l-352 1069v-725q0 -98 26.5 -130t112.5 -42l41 -4v-168h-561z" />
<glyph unicode="N" horiz-adv-x="1515" d="M41 0v168l41 4q86 10 112.5 42t26.5 130v707q0 98 -26.5 129.5t-112.5 42.5l-41 4v168h604l467 -805v461q0 98 -26.5 129.5t-112.5 42.5l-41 4v168h551v-168l-41 -4q-86 -10 -112.5 -42t-26.5 -130v-1051h-254l-637 1077v-733q0 -98 26.5 -130t112.5 -42l41 -4v-168h-551 z" />
<glyph unicode="O" horiz-adv-x="1638" d="M72 684q0 319 215 528t542 209q322 0 534 -196.5t212 -515.5q0 -313 -221 -524.5t-551 -211.5q-307 0 -519 194.5t-212 516.5zM465 692q0 -84 16.5 -166t53 -162.5t110.5 -131t174 -50.5q162 0 262.5 144.5t100.5 378.5q0 240 -93.5 373.5t-257 133.5t-265 -144.5 t-101.5 -375.5z" />
<glyph unicode="P" horiz-adv-x="1351" d="M41 0v168l41 4q86 10 112.5 42t26.5 130v707q0 98 -26.5 129.5t-112.5 42.5l-41 4v168h735q131 0 228.5 -18.5t178.5 -62.5t123 -128t42 -207q0 -203 -146.5 -308.5t-427.5 -105.5h-194v-221q0 -98 26.5 -130t112.5 -42l41 -4v-168h-719zM580 752q33 -4 67 -4 q147 0 227 61t80 174q0 100 -65.5 161.5t-169.5 61.5q-51 0 -81 -8t-42 -31.5t-14 -44t-2 -65.5v-305z" />
<glyph unicode="Q" horiz-adv-x="1638" d="M72 686q0 319 215 527t544 208q322 0 533 -199.5t211 -504.5q0 -248 -125 -426q137 -139 137 -281q0 -203 -223 -338t-557 -135q-281 0 -482.5 92t-201.5 221q0 59 44 101.5t105 42.5q76 0 123 -57q27 -35 41 -97q8 -49 53 -73q84 -51 261 -52q217 0 361 73t144 181 q0 61 -45 113q-197 -109 -409 -109q-313 0 -521 204t-208 509zM465 694q0 -274 133 -426q-2 8 -2 23q0 76 96 139.5t236 63.5q84 0 217 -35q37 115 37 268q0 219 -96.5 352t-254.5 133q-104 0 -180 -52t-113.5 -136t-55 -167t-17.5 -163zM745 231q0 -49 95 -49q88 0 164 54 q-74 47 -158 47q-45 0 -73 -14.5t-28 -37.5z" />
<glyph unicode="R" horiz-adv-x="1597" d="M41 0v168l41 4q86 10 112.5 42t26.5 130v707q0 98 -26.5 129.5t-112.5 42.5l-41 4v168h797q137 0 240.5 -16.5t190.5 -57.5t132 -116t45 -183q0 -141 -91 -241.5t-251 -137.5l258 -334q78 -86 121 -113.5t121 -27.5v-168h-476l-442 600h-106v-256q0 -98 26.5 -130 t112.5 -42l41 -4v-168h-719zM580 795h145q174 0 238.5 62.5t64.5 143.5q0 66 -26.5 110t-75.5 62.5t-91 24.5t-97.5 6t-90.5 -7t-48 -22.5t-16 -26.5t-3 -34v-319z" />
<glyph unicode="S" horiz-adv-x="1351" d="M43 500l154 51q207 -379 536 -379q113 0 185.5 51t72.5 131q0 57 -41 87t-155 59l-203 51q-61 18 -129 30.5t-135.5 43t-122.5 70.5t-89 112t-34 168q0 195 148.5 320.5t379.5 125.5q190 0 328 -92l25 66h122l136 -416l-148 -55q-119 164 -213 231.5t-235 67.5 q-98 0 -162 -40t-64 -104q0 -39 33 -70.5t85 -51t90 -28.5t73 -16l186 -39l98 -20q38 -8 111.5 -40t117.5 -70.5t80 -112.5t36 -166q0 -213 -165 -352.5t-415 -139.5q-225 0 -367 105l-28 -101h-121z" />
<glyph unicode="T" horiz-adv-x="1433" d="M-8 971l153 424h1129l166 -424l-150 -60q-47 78 -86 131.5t-115.5 109.5t-156.5 56q-29 0 -35 -11t-6 -60v-793q0 -35 1 -53.5t8 -44t21.5 -38.5t42 -23.5t66.5 -12.5l62 -4v-168h-760v168l61 4q49 2 80 15.5t43 42t14 50t2 64.5v786q0 53 -6 65.5t-28 12.5 q-102 0 -200.5 -83t-152.5 -214z" />
<glyph unicode="U" horiz-adv-x="1515" d="M31 1227v168h719v-168l-41 -4q-86 -10 -113 -42t-27 -130v-541q0 -154 56.5 -238t201.5 -84q94 0 154.5 31t84.5 87t30 97t6 101v547q0 98 -26.5 129.5t-112.5 42.5l-41 4v168h561v-168l-41 -4q-86 -10 -112.5 -42t-26.5 -130v-537q0 -92 -9.5 -160.5t-42 -144.5 t-89 -124t-159 -80t-243.5 -32q-113 0 -203 21.5t-146.5 52.5t-97.5 80t-59 89t-29.5 97.5t-12.5 85t-1 72.5v580q0 98 -26.5 129.5t-112.5 42.5z" />
<glyph unicode="V" horiz-adv-x="1474" d="M-41 1227v168h754v-168l-31 -4q-86 -12 -116.5 -24.5t-30.5 -45.5q0 -20 16 -63l264 -719l250 712q6 23 12 66q0 37 -28.5 51t-98.5 23l-35 4v168h580v-168l-25 -4q-78 -10 -116.5 -48t-87.5 -149l-392 -1026h-278l-406 1061q-37 96 -69.5 121.5t-132.5 40.5z" />
<glyph unicode="W" horiz-adv-x="1925" d="M-41 1227v168h616v-168q-86 -6 -86 -62q0 -23 11 -59l178 -670l160 492l-68 186q-25 66 -50.5 88.5t-80.5 24.5v168h639v-168l-49 -6q-51 -6 -71.5 -20.5t-20.5 -45.5q0 -25 8 -55l188 -678l199 672q2 10 2 30q0 98 -152 99l-26 4v168h616v-168l-33 -4 q-102 -14 -141 -54.5t-86 -185.5l-319 -983h-269l-190 637l-203 -637h-264l-336 1059q-29 94 -64.5 130t-107.5 38z" />
<glyph unicode="X" horiz-adv-x="1597" d="M2 0v168q137 10 252 151l311 383l-241 322q-96 129 -140.5 162t-142.5 41v168h762v-168q-129 -6 -129 -43q0 -20 24 -56l152 -215l149 211q18 41 19 58q0 45 -98 45h-33v168h641v-168q-207 -29 -361 -226l-200 -253l276 -361q106 -123 158.5 -164t124.5 -51l51 -4v-168 h-801v168l41 4q96 8 96 43q0 10 -24 49l-205 289l-176 -254q-31 -45 -31 -72q0 -47 109 -55l51 -4v-168h-635z" />
<glyph unicode="Y" horiz-adv-x="1433" d="M-41 1227v168h778v-168q-160 -2 -159 -45q0 -20 32 -78l168 -305l160 264q57 94 57 119q0 43 -151 45v168h626v-168q-106 -6 -175.5 -54.5t-149.5 -173.5l-264 -409v-246q0 -90 23.5 -128t115.5 -44l57 -4v-168h-751v168l57 4q92 6 115.5 45t23.5 127v221l-286 449 q-74 117 -129.5 161t-147.5 52z" />
<glyph unicode="Z" horiz-adv-x="1310" d="M12 133l781 1075q-90 8 -123 9q-348 0 -516 -328l-142 59l203 447h989l35 -131l-774 -1071q86 -14 145 -15q248 0 391 127q94 80 148 223l151 -49l-182 -479h-1073z" />
<glyph unicode="[" horiz-adv-x="614" d="M154 -283v1758h430v-160h-60q-51 0 -69.5 -19.5t-18.5 -76.5v-1246q0 -57 18.5 -76.5t69.5 -19.5h60v-160h-430z" />
<glyph unicode="\" horiz-adv-x="1228" d="M102 1485h275l760 -1485h-275z" />
<glyph unicode="]" horiz-adv-x="614" d="M43 -123h59q53 0 72 19.5t19 76.5v1246q0 57 -18.5 76.5t-72.5 19.5h-59v160h430v-1758h-430v160z" />
<glyph unicode="^" horiz-adv-x="1228" d="M106 651l429 828h174l426 -828h-244l-268 512l-273 -512h-244z" />
<glyph unicode="_" horiz-adv-x="1024" d="M0 -195h1024v-122h-1024v122z" />
<glyph unicode="`" horiz-adv-x="819" d="M109 1411q0 61 42 105.5t101 44.5q76 0 172 -84l215 -193l-41 -100l-326 69q-163 35 -163 158z" />
<glyph unicode="a" d="M57 262q0 233 308 326q133 41 299 55v105q0 111 -129 110q-49 0 -90.5 -20.5t-41.5 -69.5q0 -68 -28 -102q-45 -55 -129 -56q-63 0 -107.5 44t-44.5 110q0 123 128 203t327 80q446 0 446 -338v-404q0 -115 43 -115l15 7q14 6 37 28l114 -139q-131 -104 -260 -104 q-70 0 -134.5 28.5t-100.5 75.5q-154 -104 -326 -104q-145 0 -235.5 77.5t-90.5 202.5zM406 305q0 -45 26.5 -73.5t69.5 -28.5q84 0 162 71v205q-258 -47 -258 -174z" />
<glyph unicode="b" horiz-adv-x="1228" d="M-41 1229v166q152 0 350 88h133v-496q139 59 250 60q207 0 339 -151t132 -388q0 -229 -135 -377.5t-346 -148.5q-76 0 -133 16t-160 68l-37 -66h-241v1059q0 94 -22.5 126t-98.5 40zM442 262q66 -72 166 -72q207 0 207 345q0 152 -50 232.5t-147 80.5q-100 0 -176 -78 v-508z" />
<glyph unicode="c" d="M63 514q0 242 154 387.5t408 145.5q190 0 322 -87.5t132 -214.5q0 -72 -49 -119.5t-121 -47.5q-66 0 -118 43t-52 96v59q0 33 -34.5 57.5t-79.5 24.5q-94 0 -145.5 -85t-51.5 -241q0 -160 66.5 -256t177.5 -96q178 0 289 201l165 -86q-61 -147 -197 -230t-319 -83 q-244 0 -395.5 148t-151.5 384z" />
<glyph unicode="d" horiz-adv-x="1310" d="M63 502q0 231 139.5 388t346.5 157q129 0 235 -60v72q0 94 -22.5 124.5t-97.5 41.5l-29 4v166q170 14 373 88h108v-1147q0 -88 15.5 -115.5t74.5 -40.5l68 -14v-166h-459v78q-111 -96 -283 -96q-223 0 -346 157.5t-123 362.5zM412 498q0 -133 53 -217t135 -84 q111 0 184 86v483q-72 59 -163 59q-94 0 -151.5 -88.5t-57.5 -238.5z" />
<glyph unicode="e" d="M63 518q0 231 152 380t387 149q147 0 265 -60.5t177 -167.5q53 -96 54 -299h-664q0 -154 63.5 -235.5t184.5 -81.5q152 0 268 174l172 -84q-41 -66 -72.5 -107t-92 -95t-145.5 -81.5t-191 -27.5q-242 0 -400 151.5t-158 384.5zM446 678h289q-2 96 -33.5 138t-101.5 42 t-110 -47t-44 -133z" />
<glyph unicode="f" horiz-adv-x="778" d="M45 854v174h154v94q0 168 132 276.5t339 108.5q129 0 201.5 -44t72.5 -124q0 -59 -48 -101t-118 -42q-41 0 -66.5 16.5t-58.5 63.5q-16 23 -47 22q-76 0 -76 -120v-150h193v-174h-193v-516q0 -88 17.5 -114.5t85.5 -41.5l67 -14v-168h-651v168l60 14q59 14 74.5 41 t15.5 115v516h-154z" />
<glyph unicode="g" d="M18 -231q0 121 140 184q-102 76 -103 178q0 92 53.5 159.5t143.5 88.5q-141 106 -141 283q0 170 129 281.5t325 111.5q70 0 178 -25q2 10 29 40t58.5 61.5t88 57t115.5 25.5q68 0 114 -39.5t46 -99.5q0 -47 -37 -82t-88 -35q-18 0 -54 12.5t-59 12.5q-37 0 -63 -25 q160 -123 160 -299q0 -170 -127 -278.5t-328 -108.5q-35 0 -109.5 11.5t-91.5 11.5q-45 0 -45 -45q0 -35 32 -48.5t134 -23.5l324 -28q317 -29 317 -273q0 -51 -13 -99t-53 -102.5t-104.5 -93.5t-177.5 -64.5t-260 -25.5q-98 0 -185 12.5t-169 42t-130.5 86t-48.5 136.5z M250 -221q0 -51 84 -85t211 -34q297 0 297 98q0 37 -34 54.5t-128 27.5l-363 39q-67 -41 -67 -100zM442 645q0 -205 139.5 -205t139.5 201q0 119 -33 172t-106 53q-72 0 -106 -53t-34 -168z" />
<glyph unicode="h" horiz-adv-x="1392" d="M45 0v166l72 14q57 10 73.5 40t16.5 116v723q0 86 -20.5 122t-100.5 44l-41 4v166q152 0 361 88h133v-529q164 92 317 93q53 0 102.5 -13.5t101.5 -46.5t84 -100.5t32 -161.5v-389q0 -86 16 -116t74 -40l73 -14v-166h-612v166l27 10q63 25 76.5 47.5t13.5 112.5v362 q0 127 -86 127q-49 0 -116 -23.5t-103 -56.5v-409q0 -90 13 -112.5t77 -47.5l26 -10v-166h-610z" />
<glyph unicode="i" horiz-adv-x="737" d="M45 0v166l66 14q57 12 73.5 40t16.5 116v295q0 94 -23.5 128t-89.5 40l-43 4v166l361 59h126v-692q0 -88 15.5 -114.5t75.5 -41.5l63 -14v-166h-641zM178 1374q0 84 55.5 139.5t139.5 55.5q78 0 137 -60.5t59 -142.5q0 -76 -57 -132t-135 -56q-82 0 -140.5 57t-58.5 139z " />
<glyph unicode="j" horiz-adv-x="696" d="M-193 -291q0 57 42 96t108 39q41 0 67.5 -14t73.5 -66q29 -29 58 -28q76 0 75 139v756q0 94 -22.5 127t-89.5 41l-37 4v166l354 59h127v-1055q0 -436 -477 -436q-131 0 -205 46t-74 126zM209 1374q0 84 55 139.5t139 55.5q78 0 137.5 -60.5t59.5 -142.5q0 -76 -57.5 -132 t-134.5 -56q-82 0 -140.5 57t-58.5 139z" />
<glyph unicode="k" horiz-adv-x="1351" d="M45 0v166l59 14q59 14 75 41t16 115v723q0 94 -22.5 124.5t-98.5 41.5l-29 4v166q150 0 348 88h133v-860l133 143q39 41 39 65q0 27 -51 29l-22 2v166h592v-166l-29 -2q-92 -12 -168 -67l-180 -134l278 -389q66 -92 162 -100l37 -4v-166h-625v166l23 4q43 8 43 35 q0 20 -19 49l-137 213l-76 -68v-63q0 -143 95 -164l28 -6v-166h-604z" />
<glyph unicode="l" horiz-adv-x="696" d="M18 0v166l66 14q57 12 73.5 40t16.5 116v723q0 86 -20.5 122t-100.5 44l-35 4v166q188 16 353 88h135v-1147q0 -88 15.5 -114.5t74.5 -41.5l63 -14v-166h-641z" />
<glyph unicode="m" horiz-adv-x="2048" d="M45 0v166l68 14q57 12 73.5 40t16.5 116v295q0 92 -23.5 127t-89.5 41l-45 4v166l328 59h127v-76q160 94 364 95q164 0 277 -107q176 106 381 107q139 0 233 -72t94 -242v-397q0 -88 16.5 -115.5t73.5 -40.5l68 -14v-166h-616v166l36 10q59 16 75 44t16 116v373 q0 53 -31 84.5t-82 31.5q-98 0 -213 -71v-418q0 -88 15.5 -115.5t74.5 -44.5l37 -10v-166h-586v166l37 10q59 16 74.5 44t15.5 116v381q0 121 -90 121q-109 0 -235 -84v-418q0 -88 15 -115.5t75 -44.5l37 -10v-166h-617z" />
<glyph unicode="n" horiz-adv-x="1392" d="M45 0v166l59 14q59 14 75 41t16 115v295q0 94 -22.5 127t-90.5 41l-37 4v166l320 59h127v-88q193 106 372 107q133 0 226.5 -74t93.5 -252v-385q0 -88 15 -114.5t75 -41.5l61 -14v-166h-610v166l37 10q59 16 74.5 44t15.5 116v358q0 131 -92 131q-100 0 -234 -90v-399 q0 -88 15.5 -115.5t74.5 -44.5l37 -10v-166h-608z" />
<glyph unicode="o" horiz-adv-x="1269" d="M63 528q0 231 154 375t404 144q264 0 420.5 -145.5t156.5 -393.5q0 -240 -154.5 -383t-412.5 -143q-262 0 -415 147t-153 399zM436 504q0 -324 197 -324q193 0 192 320q0 338 -192 338q-197 0 -197 -334z" />
<glyph unicode="p" horiz-adv-x="1310" d="M45 -270l59 14q59 14 75 41t16 115v731q0 94 -22.5 127t-90.5 41l-37 4v166l320 59h127v-59q164 78 274 78q205 0 345 -149.5t140 -367.5q0 -238 -136 -393t-343 -155q-100 0 -246 57v-139q0 -88 15.5 -115t74.5 -41l60 -14v-166h-631v166zM526 254q70 -63 158 -64 q104 0 161.5 91.5t57.5 255.5q0 143 -53 227t-145 84q-104 0 -179 -84v-510z" />
<glyph unicode="q" horiz-adv-x="1269" d="M63 514q0 238 137.5 385.5t356.5 147.5q162 0 301 -89l39 70h236v-1128q0 -90 16 -118t74 -38l73 -14v-166h-659v166l74 14q57 10 73.5 39t16.5 117v149q-78 -68 -242 -67q-217 0 -356.5 149.5t-139.5 382.5zM412 504q0 -61 9 -114.5t31.5 -102.5t65.5 -78t103 -29 q88 0 180 60v532q-78 66 -170 66q-219 0 -219 -334z" />
<glyph unicode="r" horiz-adv-x="942" d="M45 0v166l59 14q59 14 75 41t16 115v295q0 94 -22.5 127t-90.5 41l-37 4v166l320 59h127v-100q102 72 154 95.5t116 23.5q78 0 131 -54.5t53 -134.5q0 -68 -46 -112t-116 -44q-55 0 -102 32t-74 32q-43 0 -82 -33v-397q0 -88 15.5 -114.5t74.5 -41.5l60 -14v-166h-631z " />
<glyph unicode="s" horiz-adv-x="1064" d="M45 338l158 33q76 -84 92 -99q92 -82 227 -82q76 0 127 26t51 60q0 72 -180 95l-131 16q-160 20 -244 98t-84 205q0 156 118 256.5t300 100.5q121 0 262 -68l25 49h129l39 -303l-168 -25q-115 158 -266 158q-61 0 -101.5 -22.5t-40.5 -57.5q0 -63 160 -92l154 -29 q55 -10 81.5 -16t84 -29.5t88 -52.5t56.5 -84t26 -125q0 -156 -131.5 -262t-321.5 -106q-131 0 -268 61l-25 -51h-135z" />
<glyph unicode="t" horiz-adv-x="942" d="M45 844v162q264 37 295 348h192v-326h281v-174h-281v-496q0 -80 16.5 -109.5t57.5 -29.5q39 0 77 23.5t105 89.5l123 -146q-90 -109 -192.5 -156.5t-239.5 -47.5q-80 0 -135 23.5t-83 54t-42 86t-16 88t-2 92.5v518h-156z" />
<glyph unicode="u" horiz-adv-x="1351" d="M45 803v166l354 59h127v-676q0 -88 20.5 -117.5t82.5 -29.5q92 0 223 78v348q0 94 -22.5 127t-90.5 41l-37 4v166l355 59h127v-692q0 -88 15 -114.5t75 -41.5l63 -14v-166h-450v80q-102 -59 -180 -83t-179 -24q-94 0 -161.5 29t-100.5 65.5t-50 97t-19 94.5t-2 87v285 q0 94 -22.5 127t-90.5 41z" />
<glyph unicode="v" horiz-adv-x="1228" d="M-12 862v166h622v-166q-51 -6 -75.5 -35.5t-24.5 -66.5q0 -18 6 -35l133 -342l125 328q12 33 17 69q0 31 -23 48.5t-78 33.5v166h524v-166q-109 -51 -142.5 -85t-88.5 -154l-293 -623h-207l-317 682q-51 109 -73.5 132t-104.5 48z" />
<glyph unicode="w" horiz-adv-x="1638" d="M-12 862v166h551v-166l-27 -4q-82 -12 -82 -78q0 -16 6 -35l150 -383l116 371l-8 23q-23 59 -34 72.5t-52 27.5l-22 6v166h536v-166l-30 -4q-82 -10 -82 -72q0 -18 8 -41l123 -358l135 358q6 18 6 33q0 55 -88 78l-25 6v166h490v-166l-23 -4q-55 -10 -91 -47t-66 -119 l-265 -692h-247l-152 440l-153 -440h-238l-277 682q-37 92 -58 119.5t-79 52.5z" />
<glyph unicode="x" horiz-adv-x="1228" d="M16 0v166q68 20 109 52t156 155l147 159l-127 173q-63 88 -106 116.5t-136 40.5v166h590v-166q-82 -6 -82 -37q0 -14 21 -41l65 -86l88 84q33 31 33 47q0 27 -69 33v166h491v-166q-160 -31 -317 -190l-123 -109l190 -246q57 -72 106.5 -100.5t157.5 -50.5v-166h-635v166 q82 14 82 43q0 20 -30 59l-82 111l-99 -111q-33 -39 -32 -55q0 -37 104 -47v-166h-502z" />
<glyph unicode="y" horiz-adv-x="1269" d="M12 860v168h637v-168h-22q-113 0 -113 -51q0 -8 8 -41l152 -385l145 381q8 16 8 35q0 61 -94 61h-24v168h546v-168l-24 -4q-80 -20 -120 -57t-85 -135l-352 -760q-29 -61 -48.5 -98t-58.5 -92.5t-77.5 -87.5t-100 -55.5t-133.5 -23.5q-98 0 -159.5 50.5t-61.5 130.5 q0 72 46 120t115.5 48t135.5 -60q16 -16 28 -16q18 0 62.5 60.5t77.5 129.5l-310 699q-39 86 -63.5 112.5t-81.5 34.5z" />
<glyph unicode="z" horiz-adv-x="1146" d="M45 166l588 674q-33 2 -62 2q-150 0 -237 -88q-37 -37 -88 -121l-164 57l123 338h811l65 -151l-587 -682q29 -4 61 -5q150 0 243 56.5t165 189.5l157 -55l-129 -381h-895z" />
<glyph unicode="{" horiz-adv-x="655" d="M70 516v156q80 10 114.5 40.5t34.5 88.5v413q0 260 256 261q45 0 98 -5v-159q-82 -10 -117.5 -38t-35.5 -83v-367q0 -96 -33 -146t-115 -83q82 -33 115 -83t33 -146v-367q0 -55 36 -83t117 -38v-160q-66 -4 -106 -4q-248 0 -248 260v414q0 57 -34.5 88t-114.5 41z" />
<glyph unicode="|" horiz-adv-x="1228" d="M496 -283v1758h237v-1758h-237z" />
<glyph unicode="}" horiz-adv-x="655" d="M72 -123q86 12 119.5 39t33.5 82v367q0 96 33 146t115 83q-82 33 -115 83t-33 146v367q0 55 -33.5 81.5t-119.5 39.5v159q51 4 98 5q256 0 256 -261v-413q0 -57 35 -87t112 -42v-156q-78 -12 -112.5 -42t-34.5 -87v-414q0 -135 -65.5 -197.5t-206.5 -62.5q-16 0 -82 4 v160z" />
<glyph unicode="~" horiz-adv-x="1228" d="M104 657q74 135 141.5 190.5t157.5 55.5q61 0 152 -37l133 -57q88 -37 148 -37q82 0 170 135l131 -145q-51 -106 -130 -168t-161 -62q-59 0 -187 54l-112 45q-74 33 -133 33q-51 0 -89 -31t-94 -119z" />
<glyph unicode="&#xa1;" horiz-adv-x="737" d="M160 -168q0 55 49 272q53 242 72 482h168q25 -256 71 -469q49 -225 49 -305q0 -86 -59 -145.5t-148 -59.5q-92 0 -147 61.5t-55 163.5zM176 864q2 80 56.5 135.5t134.5 55.5q78 0 133 -56.5t55 -138.5q0 -76 -56.5 -130t-134 -54t-133 55t-55.5 133z" />
<glyph unicode="&#xa2;" horiz-adv-x="1351" d="M272 717q0 158 95.5 263t267.5 134v266h121v-266q131 -2 218 -63.5t87 -151.5q0 -51 -37 -87t-88 -36q-53 0 -94 37q-20 18 -27.5 32.5t-21.5 69.5q-16 53 -76 54q-78 0 -125 -67.5t-47 -180.5q0 -106 57 -172t154 -66q123 0 252 111l88 -72q-51 -80 -143.5 -136 t-196.5 -71v-282h-121v282q-168 27 -265.5 134.5t-97.5 267.5z" />
<glyph unicode="&#xa3;" horiz-adv-x="1351" d="M20 197q0 96 74 154.5t197 58.5q88 0 174 -31q-35 182 -111 328h-268l45 129h174q-23 84 -22 155q0 137 85 238.5t205.5 146.5t255.5 45q190 0 315.5 -90t125.5 -227q0 -82 -45 -135.5t-115 -53.5q-59 0 -103 39t-44 93q0 18 17 59t17 59q0 41 -51 69t-125 28 q-111 0 -176 -67t-65 -179q0 -72 43 -180h407l-43 -129h-313q96 -162 96 -310q0 -41 -10 -92q195 -100 297 -100q39 0 66.5 18.5t27.5 47t-27.5 46t-70.5 17.5q-33 0 -66 -6l-45 114q76 39 162 39q104 0 175 -70.5t71 -174.5q0 -111 -84 -187t-207 -76q-68 0 -121 19.5 t-136 70t-128 72.5q-59 -74 -157.5 -118t-205.5 -44q-129 0 -210 63t-81 161zM209 197q0 -25 24.5 -40.5t65.5 -15.5q98 0 145 80q-70 29 -129 29q-106 0 -106 -53z" />
<glyph unicode="&#xa4;" horiz-adv-x="1351" d="M158 319l98 99q-86 139 -86 276q0 154 86 283l-98 98l137 139l98 -98q139 88 287 88q145 0 281 -88l98 98l135 -139l-98 -96q88 -127 88 -282.5t-86 -278.5l98 -99l-135 -139l-98 99q-137 -88 -285 -89q-154 0 -285 89l-98 -99zM422 696.5q0 -102.5 74.5 -176.5t179 -74 t180.5 74t76 174q0 104 -75 178t-181 74q-104 0 -179 -73.5t-75 -176z" />
<glyph unicode="&#xa5;" horiz-adv-x="1351" d="M-57 1227v168h751v-168q-160 -2 -159 -43q2 -25 32 -78l170 -309l156 266q57 96 57 119q0 25 -32.5 33t-118.5 12v168h626v-168q-119 -4 -190.5 -64.5t-190.5 -253.5h265v-129h-351l-108 -176h459v-129h-471v-131q0 -90 24.5 -128t114.5 -44l57 -4v-168h-725v168l58 4 q92 6 115.5 45t23.5 127v131h-443v129h422l-110 176h-312v129h228l-68 107q-74 117 -129 158t-151 53z" />
<glyph unicode="&#xa6;" horiz-adv-x="1228" d="M496 -283v703h237v-703h-237zM496 772v703h237v-703h-237z" />
<glyph unicode="&#xa7;" horiz-adv-x="1228" d="M74 -12q0 59 44 98t111 39q57 0 97.5 -23.5t54.5 -53.5t18 -52l4 -25q4 -35 30 -59.5t62.5 -32.5t59.5 -11t43 -3q90 0 174 40t84 130q0 57 -37 87t-139 54l-176 41q-80 18 -140.5 40t-121 58.5t-92 91t-31.5 125.5q0 174 145 269q-72 51 -100.5 105.5t-28.5 137.5 q0 164 140.5 270.5t357.5 106.5q190 0 332.5 -88t142.5 -207q0 -49 -45 -87t-102 -38q-59 0 -107.5 40t-62.5 102q-23 100 -166 100q-86 0 -139.5 -38t-53.5 -99q0 -16 3 -28.5t10.5 -21.5t17.5 -17.5t22.5 -14.5t27.5 -12t32.5 -11.5l36.5 -11.5l231 -65q20 -8 57 -15.5 t85.5 -33t90 -57.5t70.5 -92t29 -136q0 -141 -111 -240q113 -104 113 -244q0 -205 -170 -317.5t-408 -112.5q-211 0 -353 89.5t-142 222.5zM406 614q0 -41 25.5 -62.5t96.5 -39.5l316 -84q29 45 28 86q0 47 -27.5 73.5t-96.5 47.5l-281 82q-61 -46 -61 -103z" />
<glyph unicode="&#xa8;" horiz-adv-x="1024" d="M139 1374q0 61 40 101.5t102 40.5q57 0 100 -44.5t43 -103.5q0 -55 -42 -96t-99 -41q-59 0 -101.5 42t-42.5 101zM618 1374q0 61 40 101.5t102 40.5q57 0 100 -44.5t43 -103.5q0 -55 -42 -96t-99 -41q-59 0 -101.5 42t-42.5 101z" />
<glyph unicode="&#xa9;" horiz-adv-x="1515" d="M41 690q0 297 210 507t507 210t507 -210t210 -507t-210 -507t-507 -210t-507 210t-210 507zM160 690q0 -248 175 -423t423 -175t423 175t175 423t-175 423t-423 175t-423 -175t-175 -423zM365 690q0 139 95 253t294 114q98 0 174 -31l6 18h98l101 -260l-111 -36 q-63 100 -94 131q-74 68 -146 67q-82 0 -130 -68.5t-48 -185.5q0 -129 60.5 -188.5t134.5 -59.5q135 0 229 152l19 6l106 -45q-37 -104 -142.5 -168.5t-238.5 -64.5q-178 0 -292.5 103t-114.5 263z" />
<glyph unicode="&#xaa;" horiz-adv-x="819" d="M55 586v116h742v-116h-742zM55 940q0 125 203 186q74 20 186 37v78q0 57 -71 57q-80 0 -76 -38q0 -41 -29.5 -66t-81.5 -25q-45 0 -74.5 22.5t-29.5 57.5q0 76 84 124t213 48q168 0 244 -65q53 -47 53 -137v-252q0 -55 18 -56q8 0 35 21l82 -90q-84 -70 -176 -70 q-84 0 -154 59l-10 -4q-98 -55 -199 -55q-96 0 -156.5 47t-60.5 121zM287 967q0 -23 16 -39.5t39 -16.5q55 0 102 41v103q-157 -25 -157 -88z" />
<glyph unicode="&#xab;" horiz-adv-x="819" d="M70 518l213 361l112 -56l-112 -288l112 -326l-100 -64zM422 535l209 346l106 -58l-106 -288l106 -320l-106 -63z" />
<glyph unicode="&#xac;" horiz-adv-x="1228" d="M82 567v238h1065v-467h-238v229h-827z" />
<glyph unicode="&#xad;" horiz-adv-x="737" d="M41 430l96 221h559l-92 -221h-563z" />
<glyph unicode="&#xae;" horiz-adv-x="1515" d="M41 690q0 297 210 507t507 210t507 -210t210 -507t-210 -507t-507 -210t-507 210t-210 507zM160 690q0 -248 175 -423t423 -175t423 175t175 423t-175 423t-423 175t-423 -175t-175 -423zM332 336v113l30 2q37 2 48.5 15t11.5 52v344q0 39 -11.5 52.5t-48.5 15.5l-30 4 v110h434q340 0 340 -196q0 -70 -44 -121t-126 -72l121 -143q43 -41 64.5 -53.5t62.5 -9.5v-113h-271l-235 291h-35v-109q0 -39 11.5 -52t50.5 -15l26 -5v-110h-399zM643 754h64q145 0 145 84t-139 84q-33 0 -48.5 -4.5t-18.5 -9.5t-3 -15v-139z" />
<glyph unicode="&#xaf;" horiz-adv-x="942" d="M139 1286v174h645v-174h-645z" />
<glyph unicode="&#xb0;" horiz-adv-x="819" d="M102 1094q0 131 91.5 221t222.5 90q127 0 214 -90t87 -223q0 -131 -89 -222.5t-218 -91.5t-218.5 91.5t-89.5 224.5zM217 1092q0 -82 57.5 -139.5t135.5 -57.5q80 0 135 57.5t55 139.5t-54 139t-132 57q-82 0 -139.5 -57t-57.5 -139z" />
<glyph unicode="&#xb1;" horiz-adv-x="1228" d="M82 0v238h1065v-238h-1065zM82 631v237h414v414h237v-414h414v-237h-414v-180h-237v180h-414z" />
<glyph unicode="&#xb2;" horiz-adv-x="811" d="M29 705q213 131 301 206q154 137 153 267q0 53 -35.5 83.5t-97.5 30.5q-47 0 -85 -19.5t-38 -41.5q0 -8 16.5 -36t16.5 -52q0 -41 -32.5 -71t-80.5 -30q-51 0 -84.5 35t-33.5 86q0 106 100 177t254 71q162 0 261 -70.5t99 -185.5q0 -102 -99 -199.5t-325 -214.5h152 q117 0 148.5 17.5t74.5 103.5l117 -28l-82 -275h-678z" />
<glyph unicode="&#xb3;" horiz-adv-x="811" d="M10 750q0 51 34 84.5t81 33.5q49 0 83 -28.5t34 -69.5q0 -16 -11 -43l-2 -6q0 -20 42 -35.5t96 -15.5q82 0 128 36.5t46 102.5q0 74 -51.5 107.5t-159.5 33.5q-27 0 -54 -2v123h39q82 0 117 21q55 31 55 98q0 43 -32.5 68.5t-85.5 25.5q-37 0 -74 -16.5t-37 -32.5 q0 -4 11.5 -27.5t11.5 -40.5q0 -39 -35 -66.5t-84 -27.5q-51 0 -83 32t-32 83q0 96 100.5 159.5t252 63.5t250 -64.5t98.5 -164.5q0 -51 -35 -97.5t-92 -68.5q86 -25 133 -77t47 -122q0 -121 -120 -197.5t-308 -76.5q-156 0 -259.5 58.5t-103.5 148.5z" />
<glyph unicode="&#xb4;" horiz-adv-x="819" d="M180 1284l215 193q96 84 172 84q59 0 101.5 -44t42.5 -106q0 -123 -164 -158l-326 -69z" />
<glyph unicode="&#xb5;" horiz-adv-x="1351" d="M45 803v166l354 59h127v-676q0 -88 20.5 -117.5t82.5 -29.5q92 0 223 78v348q0 94 -22.5 127t-90.5 41l-37 4v166l355 59h127v-692q0 -88 16.5 -115.5t73.5 -40.5l63 -14v-166h-450v80q-180 -106 -352 -107q-141 0 -222 101v-25q0 -76 35 -158q57 -137 58 -186 q0 -70 -41 -112t-107 -42q-68 0 -110 41t-42 107q0 49 54 186q35 92 35 156v592q0 92 -22.5 125t-90.5 41z" />
<glyph unicode="&#xb6;" horiz-adv-x="1638" d="M29 985q0 410 542 410h979v-174l-32 -4q-96 -12 -118 -49.5t-22 -194.5v-760q0 -147 22.5 -187t112.5 -49l37 -4v-174h-1122v174l33 4q90 10 114.5 54.5t24.5 181.5v348q-125 6 -216 24.5t-177 62.5t-132 129t-46 208zM903 -27h174v1248h-174v-1248z" />
<glyph unicode="&#xb7;" horiz-adv-x="696" d="M164 512q0 78 53 131t131 53t131 -53t53 -131t-53 -131t-131 -53t-131 53t-53 131z" />
<glyph unicode="&#xb8;" horiz-adv-x="737" d="M139 -340q0 33 19.5 51.5t50.5 18.5q29 0 63 -25q43 -35 76 -35q27 0 45.5 24.5t18.5 67.5q0 84 -125 84q-41 0 -68 -4l19 162h149v-94h74q70 0 117 -44t47 -110q0 -86 -88 -152.5t-195 -66.5q-88 0 -145.5 35t-57.5 88z" />
<glyph unicode="&#xb9;" horiz-adv-x="811" d="M133 559v113h45q55 0 86 21.5t35 43.5l2 21v405q0 45 -25.5 63.5t-111.5 18.5h-25v109q16 -2 31 -2q117 0 274 39l23 4h70v-637q0 -27 6 -42.5t35.5 -29.5t87.5 -14h41v-113h-574z" />
<glyph unicode="&#xba;" horiz-adv-x="819" d="M35 1100q0 152 99 236.5t280 84.5q170 0 270 -89t100 -240q0 -147 -100 -233.5t-272 -86.5q-176 0 -276.5 87t-100.5 241zM39 586v116h741v-116h-741zM287 1087q0 -188 122.5 -188t122.5 193q0 203 -120 202q-66 0 -95.5 -48t-29.5 -159z" />
<glyph unicode="&#xbb;" horiz-adv-x="819" d="M70 215l106 320l-106 288l106 58l209 -346l-209 -383zM412 209l112 326l-112 288l112 56l213 -361l-225 -373z" />
<glyph unicode="&#xbc;" horiz-adv-x="2027" d="M133 559v113h45q55 0 86 21.5t35 43.5l2 21v405q0 45 -25.5 63.5t-111.5 18.5h-25v109q14 -2 29 -2q119 0 276 39l23 4h70v-637q0 -27 6 -42.5t35.5 -29.5t87.5 -14h41v-113h-574zM537 0l870 1395h166l-877 -1395h-159zM1161 299q264 303 420 537h203v-500h196l-61 -131 h-135v-37q0 -51 78 -53l41 -2v-113h-441v113l37 2q74 4 74 53v37h-363zM1360 336h213v280q-37 -57 -213 -280z" />
<glyph unicode="&#xbd;" horiz-adv-x="2027" d="M133 559v113h45q55 0 86 21.5t35 43.5l2 21v405q0 45 -25.5 63.5t-111.5 18.5h-25v109q16 -2 29 -2q109 0 276 39l23 4h70v-637q0 -27 6 -42.5t35.5 -29.5t87.5 -14h41v-113h-574zM483 0l871 1395h166l-877 -1395h-160zM1225 145q213 131 301 207q154 137 153 266 q0 53 -35.5 84t-97.5 31q-47 0 -85 -19.5t-38 -41.5q0 -8 16.5 -36t16.5 -52q0 -41 -32.5 -71t-80.5 -30q-51 0 -84.5 35t-33.5 86q0 106 100 177t254 71q162 0 261 -70.5t99 -185.5q0 -102 -99 -199.5t-324 -214.5h151q117 0 148.5 17.5t74.5 103.5l117 -29l-82 -274h-678z " />
<glyph unicode="&#xbe;" horiz-adv-x="2027" d="M31 750q0 51 33.5 84.5t80.5 33.5q49 0 83 -28.5t34 -69.5q0 -16 -10 -43l-2 -6q0 -20 42 -35.5t95 -15.5q82 0 128 36.5t46 102.5q0 74 -51 107.5t-160 33.5q-27 0 -53 -2v123h39q82 0 117 21q55 31 55 98q0 43 -33 68.5t-86 25.5q-37 0 -73.5 -16.5t-36.5 -32.5 q0 -4 11 -27.5t11 -40.5q0 -39 -35 -66.5t-84 -27.5q-51 0 -82.5 32t-31.5 83q0 96 100 159.5t251.5 63.5t250 -64.5t98.5 -164.5q0 -51 -35 -97.5t-92 -68.5q86 -25 133 -77t47 -122q0 -121 -119.5 -197.5t-308.5 -76.5q-156 0 -259 58.5t-103 148.5zM557 0l870 1395h166 l-876 -1395h-160zM1161 299q264 303 420 537h203v-500h196l-61 -131h-135v-37q0 -51 78 -53l41 -2v-113h-441v113l37 2q74 4 74 53v37h-363zM1360 336h213v280q-37 -57 -213 -280z" />
<glyph unicode="&#xbf;" horiz-adv-x="1351" d="M106 -6q0 258 275 377q109 47 138.5 82.5t29.5 113.5v17h205q4 -25 4 -68q0 -113 -32 -170t-146 -147q-100 -80 -101 -199q0 -98 60.5 -156.5t160.5 -58.5q82 0 145.5 32.5t63.5 76.5q0 12 -15 52t-15 74q0 68 48 112t122 44q84 0 131 -51t47 -139q0 -162 -161 -270.5 t-398 -108.5q-264 0 -413 102.5t-149 284.5zM453 864q0 78 56 134.5t134 56.5t133 -56.5t55 -138.5q0 -76 -55 -130t-133 -54q-80 0 -135 55t-55 133z" />
<glyph unicode="&#xc0;" horiz-adv-x="1474" d="M-70 0v168l33 4q86 10 133 59.5t107 190.5l405 973h318l401 -1000q63 -133 95 -171t108 -52l33 -4v-168h-748v168l51 4q66 4 92.5 19.5t26.5 46.5q-2 31 -20 84l-62 174h-440l-66 -177q-18 -47 -18 -61q0 -41 35 -58.5t116 -27.5l33 -4v-168h-633zM393 1690q0 55 47 95 t111 40q86 0 188 -76l238 -172l-45 -90l-359 61q-180 31 -180 142zM528 670h308l-152 399z" />
<glyph unicode="&#xc1;" horiz-adv-x="1474" d="M-70 0v168l33 4q86 10 133 59.5t107 190.5l405 973h318l401 -1000q63 -133 95 -171t108 -52l33 -4v-168h-748v168l51 4q66 4 92.5 19.5t26.5 46.5q-2 31 -20 84l-62 174h-440l-66 -177q-18 -47 -18 -61q0 -41 35 -58.5t116 -27.5l33 -4v-168h-633zM528 670h308l-152 399z M559 1577l238 172q102 76 188 76q63 0 110.5 -40t47.5 -95q0 -111 -180 -142l-359 -61z" />
<glyph unicode="&#xc2;" horiz-adv-x="1474" d="M-70 0v168l33 4q86 10 133 59.5t107 190.5l405 973h318l401 -1000q63 -133 95 -171t108 -52l33 -4v-168h-748v168l51 4q66 4 92.5 19.5t26.5 46.5q-2 31 -20 84l-62 174h-440l-66 -177q-18 -47 -18 -61q0 -41 35 -58.5t116 -27.5l33 -4v-168h-633zM360 1620l410 201 l406 -201l-86 -125l-324 100l-320 -100zM528 670h308l-152 399z" />
<glyph unicode="&#xc3;" horiz-adv-x="1474" d="M-70 0v168l33 4q86 10 133 59.5t107 190.5l405 973h318l401 -1000q63 -133 95 -171t108 -52l33 -4v-168h-748v168l51 4q66 4 92.5 19.5t26.5 46.5q-2 31 -20 84l-62 174h-440l-66 -177q-18 -47 -18 -61q0 -41 35 -58.5t116 -27.5l33 -4v-168h-633zM418 1595 q33 92 102.5 146.5t155.5 54.5q59 0 149 -29.5t127 -29.5q55 0 84 49l103 -51q-33 -113 -92.5 -164t-159.5 -51q-66 0 -157 30.5t-128 30.5q-43 0 -78 -49zM528 670h308l-152 399z" />
<glyph unicode="&#xc4;" horiz-adv-x="1474" d="M-70 0v168l33 4q86 10 133 59.5t107 190.5l405 973h318l401 -1000q63 -133 95 -171t108 -52l33 -4v-168h-748v168l51 4q66 4 92.5 19.5t26.5 46.5q-2 31 -20 84l-62 174h-440l-66 -177q-18 -47 -18 -61q0 -41 35 -58.5t116 -27.5l33 -4v-168h-633zM395 1659q0 61 40 101 t102 40q57 0 100 -44t43 -103q0 -55 -42 -96t-99 -41q-59 0 -101.5 42t-42.5 101zM528 670h308l-152 399zM874 1659q0 61 40 101t102 40q57 0 100 -44t43 -103q0 -55 -42 -96t-99 -41q-59 0 -101.5 42t-42.5 101z" />
<glyph unicode="&#xc5;" horiz-adv-x="1474" d="M-70 0v168l33 4q86 10 133 59.5t107 190.5l405 973h318l401 -1000q63 -133 95 -171t108 -52l33 -4v-168h-748v168l51 4q66 4 92.5 19.5t26.5 46.5q-2 31 -20 84l-62 174h-440l-66 -177q-18 -47 -18 -61q0 -41 35 -58.5t116 -27.5l33 -4v-168h-633zM528 670h308l-152 399z M559 1683q0 86 62.5 147.5t148.5 61.5q90 0 151.5 -61.5t61.5 -151.5q0 -84 -62.5 -144t-148.5 -60q-88 0 -150.5 61t-62.5 147zM698 1686q0 -33 21.5 -55.5t50.5 -22.5q31 0 52.5 22.5t21.5 53t-21.5 53t-52.5 22.5q-29 0 -50.5 -21t-21.5 -52z" />
<glyph unicode="&#xc6;" horiz-adv-x="2334" d="M-70 0v168l31 6q113 29 180.5 74t155.5 147l772 1000h1020l203 -396l-144 -73q-125 170 -247.5 233.5t-325.5 63.5q-90 0 -119 -31t-29 -127v-219h64q117 0 159 51t46 195h162v-697h-162q-4 139 -48 193.5t-155 54.5q-33 0 -66 -2v-311q0 -84 34 -110.5t143 -26.5 q186 0 320 81.5t286 286.5l143 -53l-225 -508h-1221v168l41 4q86 10 112.5 42t26.5 130v164h-448l-152 -201q-29 -37 -28 -69q0 -70 149 -70h31v-168h-709zM764 682h323v410z" />
<glyph unicode="&#xc7;" horiz-adv-x="1515" d="M72 698q0 96 21.5 192.5t73.5 193t130 171t201 120.5t274 46q188 0 342 -73l16 47h142l172 -484l-158 -59q-111 193 -170 256q-141 145 -291 145q-166 0 -263 -149.5t-97 -403.5q0 -150 38 -261t100.5 -167.5t126 -83t128.5 -26.5q268 0 453 323l172 -77 q-68 -180 -232 -297t-372 -134v-67h73q70 0 117 -44t47 -110q0 -86 -88 -152.5t-194 -66.5q-88 0 -145.5 35t-57.5 88q0 33 19.5 51.5t49.5 18.5q29 0 64 -25q43 -35 76 -35q27 0 45 24.5t18 67.5q0 84 -125 84q-41 0 -67 -4l14 135q-289 27 -471 226.5t-182 494.5z" />
<glyph unicode="&#xc8;" horiz-adv-x="1474" d="M41 0v168l41 4q86 10 112.5 42t26.5 130v707q0 98 -26.5 129.5t-112.5 42.5l-41 4v168h1182l202 -422l-139 -70q-213 307 -489 307q-66 0 -107 -7t-63.5 -17t-32.5 -39t-12 -51.5t-2 -75.5v-174h59q66 0 96.5 4t60 25.5t40 66.5t12.5 127h160v-637h-160 q-18 143 -64.5 184t-146.5 41h-57v-241q0 -162 23.5 -197t146.5 -35q176 0 316 87t273 280l144 -68l-226 -483h-1216zM274 1690q0 55 47.5 95t110.5 40q86 0 189 -76l237 -172l-45 -90l-358 61q-181 31 -181 142z" />
<glyph unicode="&#xc9;" horiz-adv-x="1474" d="M41 0v168l41 4q86 10 112.5 42t26.5 130v707q0 98 -26.5 129.5t-112.5 42.5l-41 4v168h1182l202 -422l-139 -70q-213 307 -489 307q-66 0 -107 -7t-63.5 -17t-32.5 -39t-12 -51.5t-2 -75.5v-174h59q66 0 96.5 4t60 25.5t40 66.5t12.5 127h160v-637h-160 q-18 143 -64.5 184t-146.5 41h-57v-241q0 -162 23.5 -197t146.5 -35q176 0 316 87t273 280l144 -68l-226 -483h-1216zM440 1577l238 172q102 76 188 76q63 0 110.5 -40t47.5 -95q0 -111 -180 -142l-359 -61z" />
<glyph unicode="&#xca;" horiz-adv-x="1474" d="M41 0v168l41 4q86 10 112.5 42t26.5 130v707q0 98 -26.5 129.5t-112.5 42.5l-41 4v168h1182l202 -422l-139 -70q-213 307 -489 307q-66 0 -107 -7t-63.5 -17t-32.5 -39t-12 -51.5t-2 -75.5v-174h59q66 0 96.5 4t60 25.5t40 66.5t12.5 127h160v-637h-160 q-18 143 -64.5 184t-146.5 41h-57v-241q0 -162 23.5 -197t146.5 -35q176 0 316 87t273 280l144 -68l-226 -483h-1216zM242 1620l409 201l406 -201l-86 -125l-324 100l-319 -100z" />
<glyph unicode="&#xcb;" horiz-adv-x="1474" d="M41 0v168l41 4q86 10 112.5 42t26.5 130v707q0 98 -26.5 129.5t-112.5 42.5l-41 4v168h1182l202 -422l-139 -70q-213 307 -489 307q-66 0 -107 -7t-63.5 -17t-32.5 -39t-12 -51.5t-2 -75.5v-174h59q66 0 96.5 4t60 25.5t40 66.5t12.5 127h160v-637h-160 q-18 143 -64.5 184t-146.5 41h-57v-241q0 -162 23.5 -197t146.5 -35q176 0 316 87t273 280l144 -68l-226 -483h-1216zM276 1659q0 61 40 101t102 40q57 0 100 -44t43 -103q0 -55 -42 -96t-99 -41q-59 0 -101.5 42t-42.5 101zM756 1659q0 61 40 101t101 40q57 0 100 -44 t43 -103q0 -55 -42 -96t-99 -41q-59 0 -101 42t-42 101z" />
<glyph unicode="&#xcc;" horiz-adv-x="819" d="M35 1690q0 55 46 95t112 40q86 0 188 -76l237 -172l-45 -90l-358 61q-180 31 -180 142zM41 0v168l49 4q92 8 115.5 46t23.5 126v707q0 92 -23.5 129t-115.5 43l-49 4v168h735v-168l-49 -4q-92 -8 -115.5 -46t-23.5 -126v-707q0 -92 23.5 -129t115.5 -43l49 -4v-168h-735z " />
<glyph unicode="&#xcd;" horiz-adv-x="819" d="M41 0v168l49 4q92 8 115.5 46t23.5 126v707q0 92 -23.5 129t-115.5 43l-49 4v168h735v-168l-49 -4q-92 -8 -115.5 -46t-23.5 -126v-707q0 -92 23.5 -129t115.5 -43l49 -4v-168h-735zM201 1577l237 172q102 76 189 76q66 0 111.5 -40t45.5 -95q0 -111 -180 -142l-358 -61z " />
<glyph unicode="&#xce;" horiz-adv-x="819" d="M2 1620l410 201l405 -201l-86 -125l-323 100l-320 -100zM41 0v168l49 4q92 8 115.5 46t23.5 126v707q0 92 -23.5 129t-115.5 43l-49 4v168h735v-168l-49 -4q-92 -8 -115.5 -46t-23.5 -126v-707q0 -92 23.5 -129t115.5 -43l49 -4v-168h-735z" />
<glyph unicode="&#xcf;" horiz-adv-x="819" d="M37 1659q0 61 40 101t101 40q57 0 100.5 -44t43.5 -103q0 -55 -42 -96t-100 -41q-59 0 -101 42t-42 101zM41 0v168l49 4q92 8 115.5 46t23.5 126v707q0 92 -23.5 129t-115.5 43l-49 4v168h735v-168l-49 -4q-92 -8 -115.5 -46t-23.5 -126v-707q0 -92 23.5 -129t115.5 -43 l49 -4v-168h-735zM516 1659q0 61 40 101t101 40q57 0 100.5 -44t43.5 -103q0 -55 -42 -96t-100 -41q-59 0 -101 42t-42 101z" />
<glyph unicode="&#xd0;" horiz-adv-x="1597" d="M41 0v168l41 4q86 10 112.5 42t26.5 130v313h-180v179h180v211q0 100 -26.5 132.5t-112.5 41.5l-41 4v170h651q143 0 258 -16.5t227.5 -62.5t187.5 -122t121 -204t46 -300q0 -690 -793 -690h-698zM580 332q0 -90 20.5 -119t116.5 -29q193 0 307.5 141.5t114.5 379.5 q0 233 -110.5 368t-303.5 135q-86 0 -115.5 -22.5t-29.5 -85.5v-264h313v-179h-313v-325z" />
<glyph unicode="&#xd1;" horiz-adv-x="1515" d="M41 0v168l41 4q86 10 112.5 42t26.5 130v707q0 98 -26.5 129.5t-112.5 42.5l-41 4v168h604l467 -805v461q0 98 -26.5 129.5t-112.5 42.5l-41 4v168h551v-168l-41 -4q-86 -10 -112.5 -42t-26.5 -130v-1051h-254l-637 1077v-733q0 -98 26.5 -130t112.5 -42l41 -4v-168h-551 zM412 1595q33 92 102.5 146.5t155.5 54.5q59 0 149 -29.5t127 -29.5q55 0 84 49l103 -51q-33 -113 -92.5 -164t-159.5 -51q-66 0 -157 30.5t-128 30.5q-43 0 -78 -49z" />
<glyph unicode="&#xd2;" horiz-adv-x="1638" d="M72 684q0 319 215 528t542 209q322 0 534 -196.5t212 -515.5q0 -313 -221 -524.5t-551 -211.5q-307 0 -519 194.5t-212 516.5zM455 1690q0 55 47 95t110 40q86 0 189 -76l237 -172l-45 -90l-358 61q-180 31 -180 142zM465 692q0 -84 16.5 -166t53 -162.5t110.5 -131 t174 -50.5q162 0 262.5 144.5t100.5 378.5q0 240 -93.5 373.5t-257 133.5t-265 -144.5t-101.5 -375.5z" />
<glyph unicode="&#xd3;" horiz-adv-x="1638" d="M72 684q0 319 215 528t542 209q322 0 534 -196.5t212 -515.5q0 -313 -221 -524.5t-551 -211.5q-307 0 -519 194.5t-212 516.5zM465 692q0 -84 16.5 -166t53 -162.5t110.5 -131t174 -50.5q162 0 262.5 144.5t100.5 378.5q0 240 -93.5 373.5t-257 133.5t-265 -144.5 t-101.5 -375.5zM621 1577l237 172q102 76 189 76q63 0 110 -40t47 -95q0 -111 -180 -142l-358 -61z" />
<glyph unicode="&#xd4;" horiz-adv-x="1638" d="M72 684q0 319 215 528t542 209q322 0 534 -196.5t212 -515.5q0 -313 -221 -524.5t-551 -211.5q-307 0 -519 194.5t-212 516.5zM422 1620l409 201l406 -201l-86 -125l-324 100l-319 -100zM465 692q0 -84 16.5 -166t53 -162.5t110.5 -131t174 -50.5q162 0 262.5 144.5 t100.5 378.5q0 240 -93.5 373.5t-257 133.5t-265 -144.5t-101.5 -375.5z" />
<glyph unicode="&#xd5;" horiz-adv-x="1638" d="M72 684q0 319 215 528t542 209q322 0 534 -196.5t212 -515.5q0 -313 -221 -524.5t-551 -211.5q-307 0 -519 194.5t-212 516.5zM465 692q0 -84 16.5 -166t53 -162.5t110.5 -131t174 -50.5q162 0 262.5 144.5t100.5 378.5q0 240 -93.5 373.5t-257 133.5t-265 -144.5 t-101.5 -375.5zM479 1595q33 92 102.5 146.5t155.5 54.5q59 0 149.5 -29.5t127.5 -29.5q55 0 84 49l102 -51q-33 -113 -92 -164t-160 -51q-66 0 -157 30.5t-127 30.5q-43 0 -78 -49z" />
<glyph unicode="&#xd6;" horiz-adv-x="1638" d="M72 684q0 319 215 528t542 209q322 0 534 -196.5t212 -515.5q0 -313 -221 -524.5t-551 -211.5q-307 0 -519 194.5t-212 516.5zM457 1659q0 61 40 101t101 40q57 0 100 -44t43 -103q0 -55 -42 -96t-99 -41q-59 0 -101 42t-42 101zM465 692q0 -84 16.5 -166t53 -162.5 t110.5 -131t174 -50.5q162 0 262.5 144.5t100.5 378.5q0 240 -93.5 373.5t-257 133.5t-265 -144.5t-101.5 -375.5zM936 1659q0 61 40 101t101 40q57 0 100.5 -44t43.5 -103q0 -55 -42 -96t-100 -41q-59 0 -101 42t-42 101z" />
<glyph unicode="&#xd7;" horiz-adv-x="1228" d="M154 219l292 293l-292 293l168 168l292 -293l293 293l168 -168l-293 -293l293 -293l-168 -168l-293 293l-292 -293z" />
<glyph unicode="&#xd8;" horiz-adv-x="1638" d="M72 698q0 309 210 516t527 207q139 0 258 -32l107 206h172l-136 -256q53 -33 94.5 -63.5t96.5 -86.5t91 -119.5t61.5 -157t25.5 -201.5q0 -317 -207 -527.5t-520 -210.5q-174 0 -303 41l-115 -239h-178l150 299q-152 82 -243 251.5t-91 372.5zM444 690q0 -221 99 -364 l424 862q-70 35 -136 35q-129 0 -220 -82t-129 -199t-38 -252zM655 215q78 -43 172 -43q174 0 276.5 145.5t102.5 393.5q0 250 -114 387z" />
<glyph unicode="&#xd9;" horiz-adv-x="1515" d="M31 1227v168h719v-168l-41 -4q-86 -10 -113 -42t-27 -130v-541q0 -154 56.5 -238t201.5 -84q94 0 154.5 31t84.5 87t30 97t6 101v547q0 98 -26.5 129.5t-112.5 42.5l-41 4v168h561v-168l-41 -4q-86 -10 -112.5 -42t-26.5 -130v-537q0 -92 -9.5 -160.5t-42 -144.5 t-89 -124t-159 -80t-243.5 -32q-113 0 -203 21.5t-146.5 52.5t-97.5 80t-59 89t-29.5 97.5t-12.5 85t-1 72.5v580q0 98 -26.5 129.5t-112.5 42.5zM422 1690q0 55 47 95t111 40q86 0 188 -76l238 -172l-45 -90l-359 61q-180 31 -180 142z" />
<glyph unicode="&#xda;" horiz-adv-x="1515" d="M31 1227v168h719v-168l-41 -4q-86 -10 -113 -42t-27 -130v-541q0 -154 56.5 -238t201.5 -84q94 0 154.5 31t84.5 87t30 97t6 101v547q0 98 -26.5 129.5t-112.5 42.5l-41 4v168h561v-168l-41 -4q-86 -10 -112.5 -42t-26.5 -130v-537q0 -92 -9.5 -160.5t-42 -144.5 t-89 -124t-159 -80t-243.5 -32q-113 0 -203 21.5t-146.5 52.5t-97.5 80t-59 89t-29.5 97.5t-12.5 85t-1 72.5v580q0 98 -26.5 129.5t-112.5 42.5zM588 1577l237 172q102 76 189 76q63 0 110 -40t47 -95q0 -111 -180 -142l-358 -61z" />
<glyph unicode="&#xdb;" horiz-adv-x="1515" d="M31 1227v168h719v-168l-41 -4q-86 -10 -113 -42t-27 -130v-541q0 -154 56.5 -238t201.5 -84q94 0 154.5 31t84.5 87t30 97t6 101v547q0 98 -26.5 129.5t-112.5 42.5l-41 4v168h561v-168l-41 -4q-86 -10 -112.5 -42t-26.5 -130v-537q0 -92 -9.5 -160.5t-42 -144.5 t-89 -124t-159 -80t-243.5 -32q-113 0 -203 21.5t-146.5 52.5t-97.5 80t-59 89t-29.5 97.5t-12.5 85t-1 72.5v580q0 98 -26.5 129.5t-112.5 42.5zM389 1620l410 201l405 -201l-86 -125l-323 100l-320 -100z" />
<glyph unicode="&#xdc;" horiz-adv-x="1515" d="M31 1227v168h719v-168l-41 -4q-86 -10 -113 -42t-27 -130v-541q0 -154 56.5 -238t201.5 -84q94 0 154.5 31t84.5 87t30 97t6 101v547q0 98 -26.5 129.5t-112.5 42.5l-41 4v168h561v-168l-41 -4q-86 -10 -112.5 -42t-26.5 -130v-537q0 -92 -9.5 -160.5t-42 -144.5 t-89 -124t-159 -80t-243.5 -32q-113 0 -203 21.5t-146.5 52.5t-97.5 80t-59 89t-29.5 97.5t-12.5 85t-1 72.5v580q0 98 -26.5 129.5t-112.5 42.5zM424 1659q0 61 40 101t101 40q57 0 100.5 -44t43.5 -103q0 -55 -42 -96t-100 -41q-59 0 -101 42t-42 101zM903 1659 q0 61 40 101t101 40q57 0 100.5 -44t43.5 -103q0 -55 -42 -96t-99 -41q-59 0 -101.5 42t-42.5 101z" />
<glyph unicode="&#xdd;" horiz-adv-x="1433" d="M-41 1227v168h778v-168q-160 -2 -159 -45q0 -20 32 -78l168 -305l160 264q57 94 57 119q0 43 -151 45v168h626v-168q-106 -6 -175.5 -54.5t-149.5 -173.5l-264 -409v-246q0 -90 23.5 -128t115.5 -44l57 -4v-168h-751v168l57 4q92 6 115.5 45t23.5 127v221l-286 449 q-74 117 -129.5 161t-147.5 52zM494 1577l237 172q102 76 189 76q63 0 110 -40t47 -95q0 -111 -180 -142l-358 -61z" />
<glyph unicode="&#xde;" horiz-adv-x="1351" d="M41 0v168l41 4q86 10 112.5 42t26.5 130v709q0 98 -26.5 129.5t-112.5 42.5l-41 4v166h729v-166l-49 -4q-76 -8 -104.5 -33t-28.5 -82h188q131 0 227.5 -17.5t178.5 -61.5t124 -126t42 -203q0 -401 -574 -401h-192q0 -66 27.5 -92.5t109.5 -36.5l41 -4v-168h-719z M580 483h79q295 0 295 219q0 217 -295 218h-79v-437z" />
<glyph unicode="&#xdf;" horiz-adv-x="1351" d="M-125 -160l37 137q49 -6 80 -6q68 0 111.5 27t62 78t24 93t5.5 105v574h-154v180h154q72 381 548 381q176 0 293 -74.5t117 -187.5q0 -102 -111 -186q-72 -55 -71 -95q0 -31 59 -53q289 -113 289 -369q0 -182 -160 -322t-366 -140q-90 0 -209 16l41 156q109 6 170 32 q74 33 116.5 94.5t42.5 129t-38.5 123t-94 91t-114.5 81.5q-84 57 -84 135q0 41 27.5 74.5t109.5 86.5q111 76 110 150q0 47 -34.5 79t-85.5 32q-223 0 -224 -357v-530q0 -162 -40 -276.5t-110.5 -175t-149.5 -86t-173 -25.5q-63 -1 -178 28z" />
<glyph unicode="&#xe0;" d="M57 262q0 233 308 326q133 41 299 55v105q0 111 -129 110q-49 0 -90.5 -20.5t-41.5 -69.5q0 -68 -28 -102q-45 -55 -129 -56q-63 0 -107.5 44t-44.5 110q0 123 128 203t327 80q446 0 446 -338v-404q0 -115 43 -115l15 7q14 6 37 28l114 -139q-131 -104 -260 -104 q-70 0 -134.5 28.5t-100.5 75.5q-154 -104 -326 -104q-145 0 -235.5 77.5t-90.5 202.5zM248 1411q0 61 42 105.5t101 44.5q76 0 172 -84l215 -193l-41 -100l-325 69q-164 35 -164 158zM406 305q0 -45 26.5 -73.5t69.5 -28.5q84 0 162 71v205q-258 -47 -258 -174z" />
<glyph unicode="&#xe1;" d="M57 262q0 233 308 326q133 41 299 55v105q0 111 -129 110q-49 0 -90.5 -20.5t-41.5 -69.5q0 -68 -28 -102q-45 -55 -129 -56q-63 0 -107.5 44t-44.5 110q0 123 128 203t327 80q446 0 446 -338v-404q0 -115 43 -115l15 7q14 6 37 28l114 -139q-131 -104 -260 -104 q-70 0 -134.5 28.5t-100.5 75.5q-154 -104 -326 -104q-145 0 -235.5 77.5t-90.5 202.5zM319 1284l216 193q96 84 172 84q59 0 101 -44t42 -106q0 -123 -164 -158l-326 -69zM406 305q0 -45 26.5 -73.5t69.5 -28.5q84 0 162 71v205q-258 -47 -258 -174z" />
<glyph unicode="&#xe2;" d="M57 262q0 233 308 326q133 41 299 55v105q0 111 -129 110q-49 0 -90.5 -20.5t-41.5 -69.5q0 -68 -28 -102q-45 -55 -129 -56q-63 0 -107.5 44t-44.5 110q0 123 128 203t327 80q446 0 446 -338v-404q0 -115 43 -115l15 7q14 6 37 28l114 -139q-131 -104 -260 -104 q-70 0 -134.5 28.5t-100.5 75.5q-154 -104 -326 -104q-145 0 -235.5 77.5t-90.5 202.5zM178 1329l373 223l369 -223l-78 -137l-291 111l-295 -111zM406 305q0 -45 26.5 -73.5t69.5 -28.5q84 0 162 71v205q-258 -47 -258 -174z" />
<glyph unicode="&#xe3;" d="M57 262q0 233 308 326q133 41 299 55v105q0 111 -129 110q-49 0 -90.5 -20.5t-41.5 -69.5q0 -68 -28 -102q-45 -55 -129 -56q-63 0 -107.5 44t-44.5 110q0 123 128 203t327 80q446 0 446 -338v-404q0 -115 43 -115l15 7q14 6 37 28l114 -139q-131 -104 -260 -104 q-70 0 -134.5 28.5t-100.5 75.5q-154 -104 -326 -104q-145 0 -235.5 77.5t-90.5 202.5zM199 1311q33 92 102.5 146t155.5 54q59 0 149 -29.5t127 -29.5q55 0 84 49l103 -51q-33 -113 -92.5 -164t-159.5 -51q-66 0 -157 30.5t-128 30.5q-43 0 -78 -49zM406 305 q0 -45 26.5 -73.5t69.5 -28.5q84 0 162 71v205q-258 -47 -258 -174z" />
<glyph unicode="&#xe4;" d="M57 262q0 233 308 326q133 41 299 55v105q0 111 -129 110q-49 0 -90.5 -20.5t-41.5 -69.5q0 -68 -28 -102q-45 -55 -129 -56q-63 0 -107.5 44t-44.5 110q0 123 128 203t327 80q446 0 446 -338v-404q0 -115 43 -115l15 7q14 6 37 28l114 -139q-131 -104 -260 -104 q-70 0 -134.5 28.5t-100.5 75.5q-154 -104 -326 -104q-145 0 -235.5 77.5t-90.5 202.5zM176 1374q0 61 40 101.5t101 40.5q57 0 100.5 -44.5t43.5 -103.5q0 -55 -42 -96t-100 -41q-59 0 -101 42t-42 101zM406 305q0 -45 26.5 -73.5t69.5 -28.5q84 0 162 71v205 q-258 -47 -258 -174zM655 1374q0 61 40 101.5t102 40.5q57 0 100 -44.5t43 -103.5q0 -55 -42 -96t-99 -41q-59 0 -101.5 42t-42.5 101z" />
<glyph unicode="&#xe5;" d="M57 262q0 233 308 326q133 41 299 55v105q0 111 -129 110q-49 0 -90.5 -20.5t-41.5 -69.5q0 -68 -28 -102q-45 -55 -129 -56q-63 0 -107.5 44t-44.5 110q0 123 128 203t327 80q446 0 446 -338v-404q0 -115 43 -115l15 7q14 6 37 28l114 -139q-131 -104 -260 -104 q-70 0 -134.5 28.5t-100.5 75.5q-154 -104 -326 -104q-145 0 -235.5 77.5t-90.5 202.5zM340 1372q0 86 62.5 147.5t148.5 61.5q88 0 150.5 -61.5t62.5 -151.5q0 -84 -62.5 -144.5t-148.5 -60.5q-88 0 -150.5 61.5t-62.5 147.5zM406 305q0 -45 26.5 -73.5t69.5 -28.5 q84 0 162 71v205q-258 -47 -258 -174zM479 1374q0 -33 21.5 -55.5t50.5 -22.5q31 0 52.5 22.5t21.5 53.5t-21.5 53.5t-52.5 22.5q-29 0 -50.5 -21.5t-21.5 -52.5z" />
<glyph unicode="&#xe6;" horiz-adv-x="1802" d="M57 272q0 168 173 261.5t499 101.5q0 61 -3 95t-17.5 70t-47 51t-86.5 15q-78 0 -114 -37q-23 -23 -45 -104q-14 -51 -55.5 -81t-96.5 -30q-68 0 -108.5 40t-40.5 106q0 127 130 207t334.5 80t340.5 -91q150 90 317 91q219 0 356.5 -127t137.5 -330q0 -33 -5 -105h-679 q20 -283 256 -282q158 0 274 176l168 -86q-66 -147 -200 -229t-308 -82q-227 0 -410 168q-150 -168 -399 -168q-168 0 -269.5 78.5t-101.5 211.5zM406 285q0 -47 32.5 -75t87.5 -28q88 0 144.5 78t56.5 199h-14q-125 0 -216 -50t-91 -124zM1057 643h325v33q0 84 -39.5 137 t-109.5 53q-151 0 -176 -223z" />
<glyph unicode="&#xe7;" d="M63 514q0 242 154 387.5t408 145.5q190 0 322 -87.5t132 -214.5q0 -72 -49 -119.5t-121 -47.5q-66 0 -118 43t-52 96v59q0 33 -34.5 57.5t-79.5 24.5q-94 0 -145.5 -85t-51.5 -241q0 -160 66.5 -256t177.5 -96q178 0 289 201l165 -86q-59 -139 -182 -221t-291 -90v-74h74 q70 0 117 -44t47 -110q0 -86 -88 -152.5t-195 -66.5q-88 0 -145 35t-57 88q0 33 19 51.5t50 18.5q29 0 64 -25q43 -35 75 -35q27 0 45.5 24.5t18.5 67.5q0 84 -125 84q-41 0 -68 -4l17 148q-199 33 -319 174t-120 350z" />
<glyph unicode="&#xe8;" d="M63 518q0 231 152 380t387 149q147 0 265 -60.5t177 -167.5q53 -96 54 -299h-664q0 -154 63.5 -235.5t184.5 -81.5q152 0 268 174l172 -84q-41 -66 -72.5 -107t-92 -95t-145.5 -81.5t-191 -27.5q-242 0 -400 151.5t-158 384.5zM301 1411q0 61 42 105.5t101 44.5 q76 0 172 -84l215 -193l-40 -100l-326 69q-164 35 -164 158zM446 678h289q-2 96 -33.5 138t-101.5 42t-110 -47t-44 -133z" />
<glyph unicode="&#xe9;" d="M63 518q0 231 152 380t387 149q147 0 265 -60.5t177 -167.5q53 -96 54 -299h-664q0 -154 63.5 -235.5t184.5 -81.5q152 0 268 174l172 -84q-41 -66 -72.5 -107t-92 -95t-145.5 -81.5t-191 -27.5q-242 0 -400 151.5t-158 384.5zM373 1284l215 193q96 84 172 84 q59 0 101 -44t42 -106q0 -123 -164 -158l-325 -69zM446 678h289q-2 96 -33.5 138t-101.5 42t-110 -47t-44 -133z" />
<glyph unicode="&#xea;" d="M63 518q0 231 152 380t387 149q147 0 265 -60.5t177 -167.5q53 -96 54 -299h-664q0 -154 63.5 -235.5t184.5 -81.5q152 0 268 174l172 -84q-41 -66 -72.5 -107t-92 -95t-145.5 -81.5t-191 -27.5q-242 0 -400 151.5t-158 384.5zM231 1329l373 223l369 -223l-78 -137 l-291 111l-295 -111zM446 678h289q-2 96 -33.5 138t-101.5 42t-110 -47t-44 -133z" />
<glyph unicode="&#xeb;" d="M63 518q0 231 152 380t387 149q147 0 265 -60.5t177 -167.5q53 -96 54 -299h-664q0 -154 63.5 -235.5t184.5 -81.5q152 0 268 174l172 -84q-41 -66 -72.5 -107t-92 -95t-145.5 -81.5t-191 -27.5q-242 0 -400 151.5t-158 384.5zM229 1374q0 61 40 101.5t102 40.5 q57 0 100 -44.5t43 -103.5q0 -55 -42 -96t-99 -41q-59 0 -101.5 42t-42.5 101zM446 678h289q-2 96 -33.5 138t-101.5 42t-110 -47t-44 -133zM709 1374q0 61 39.5 101.5t101.5 40.5q57 0 100 -44.5t43 -103.5q0 -55 -42 -96t-99 -41q-59 0 -101 42t-42 101z" />
<glyph unicode="&#xec;" horiz-adv-x="737" d="M45 0v166l66 14q57 12 73.5 40t16.5 116v295q0 94 -23.5 128t-89.5 40l-43 4v166l361 59h126v-692q0 -88 15.5 -114.5t75.5 -41.5l63 -14v-166h-641zM66 1411q0 61 42 105.5t101 44.5q76 0 172 -84l215 -193l-41 -100l-326 69q-163 35 -163 158z" />
<glyph unicode="&#xed;" horiz-adv-x="737" d="M45 0v166l66 14q57 12 73.5 40t16.5 116v295q0 94 -23.5 128t-89.5 40l-43 4v166l361 59h126v-692q0 -88 15.5 -114.5t75.5 -41.5l63 -14v-166h-641zM137 1284l215 193q96 84 172 84q59 0 101.5 -44t42.5 -106q0 -123 -164 -158l-326 -69z" />
<glyph unicode="&#xee;" horiz-adv-x="737" d="M-4 1329l373 223l368 -223l-78 -137l-290 111l-295 -111zM45 0v166l66 14q57 12 73.5 40t16.5 116v295q0 94 -23.5 128t-89.5 40l-43 4v166l361 59h126v-692q0 -88 15.5 -114.5t75.5 -41.5l63 -14v-166h-641z" />
<glyph unicode="&#xef;" horiz-adv-x="737" d="M-6 1374q0 61 40 101.5t101 40.5q57 0 100.5 -44.5t43.5 -103.5q0 -55 -42 -96t-100 -41q-59 0 -101 42t-42 101zM45 0v166l66 14q57 12 73.5 40t16.5 116v295q0 94 -23.5 128t-89.5 40l-43 4v166l361 59h126v-692q0 -88 15.5 -114.5t75.5 -41.5l63 -14v-166h-641z M473 1374q0 61 40 101.5t101 40.5q57 0 100.5 -44.5t43.5 -103.5q0 -55 -42 -96t-100 -41q-59 0 -101 42t-42 101z" />
<glyph unicode="&#xf0;" horiz-adv-x="1269" d="M63 520q0 135 51.5 240.5t131.5 166t166 90.5t168 30q55 0 114 -13q-131 160 -276 223l-248 -163l-70 104l174 117q-98 29 -211 49l54 111q156 -2 309 -39l244 159l71 -112l-143 -92q215 -92 338 -209q121 -119 191.5 -294t70.5 -356q0 -260 -150.5 -405t-416.5 -145 q-258 0 -413 146t-155 392zM436 504q0 -324 197 -324q193 0 192 320q0 338 -192 338q-197 0 -197 -334z" />
<glyph unicode="&#xf1;" horiz-adv-x="1392" d="M45 0v166l59 14q59 14 75 41t16 115v295q0 94 -22.5 127t-90.5 41l-37 4v166l320 59h127v-88q193 106 372 107q133 0 226.5 -74t93.5 -252v-385q0 -88 15 -114.5t75 -41.5l61 -14v-166h-610v166l37 10q59 16 74.5 44t15.5 116v358q0 131 -92 131q-100 0 -234 -90v-399 q0 -88 15.5 -115.5t74.5 -44.5l37 -10v-166h-608zM340 1311q33 92 102.5 146t155.5 54q59 0 149.5 -29.5t126.5 -29.5q55 0 84 49l103 -51q-33 -113 -92.5 -164t-159.5 -51q-66 0 -157 30.5t-128 30.5q-43 0 -78 -49z" />
<glyph unicode="&#xf2;" horiz-adv-x="1269" d="M63 528q0 231 154 375t404 144q264 0 420.5 -145.5t156.5 -393.5q0 -240 -154.5 -383t-412.5 -143q-262 0 -415 147t-153 399zM319 1411q0 61 42 105.5t102 44.5q76 0 172 -84l215 -193l-41 -100l-326 69q-164 35 -164 158zM436 504q0 -324 197 -324q193 0 192 320 q0 338 -192 338q-197 0 -197 -334z" />
<glyph unicode="&#xf3;" horiz-adv-x="1269" d="M63 528q0 231 154 375t404 144q264 0 420.5 -145.5t156.5 -393.5q0 -240 -154.5 -383t-412.5 -143q-262 0 -415 147t-153 399zM391 1284l215 193q96 84 172 84q59 0 101.5 -44t42.5 -106q0 -123 -164 -158l-326 -69zM436 504q0 -324 197 -324q193 0 192 320 q0 338 -192 338q-197 0 -197 -334z" />
<glyph unicode="&#xf4;" horiz-adv-x="1269" d="M63 528q0 231 154 375t404 144q264 0 420.5 -145.5t156.5 -393.5q0 -240 -154.5 -383t-412.5 -143q-262 0 -415 147t-153 399zM250 1329l373 223l368 -223l-78 -137l-290 111l-295 -111zM436 504q0 -324 197 -324q193 0 192 320q0 338 -192 338q-197 0 -197 -334z" />
<glyph unicode="&#xf5;" horiz-adv-x="1269" d="M63 528q0 231 154 375t404 144q264 0 420.5 -145.5t156.5 -393.5q0 -240 -154.5 -383t-412.5 -143q-262 0 -415 147t-153 399zM270 1311q33 92 102.5 146t155.5 54q59 0 149.5 -29.5t127.5 -29.5q55 0 84 49l102 -51q-33 -113 -92 -164t-160 -51q-66 0 -156.5 30.5 t-127.5 30.5q-43 0 -78 -49zM436 504q0 -324 197 -324q193 0 192 320q0 338 -192 338q-197 0 -197 -334z" />
<glyph unicode="&#xf6;" horiz-adv-x="1269" d="M63 528q0 231 154 375t404 144q264 0 420.5 -145.5t156.5 -393.5q0 -240 -154.5 -383t-412.5 -143q-262 0 -415 147t-153 399zM248 1374q0 61 40 101.5t101 40.5q57 0 100 -44.5t43 -103.5q0 -55 -41.5 -96t-99.5 -41q-59 0 -101 42t-42 101zM436 504q0 -324 197 -324 q193 0 192 320q0 338 -192 338q-197 0 -197 -334zM727 1374q0 61 40 101.5t101 40.5q57 0 100.5 -44.5t43.5 -103.5q0 -55 -42 -96t-100 -41q-59 0 -101 42t-42 101z" />
<glyph unicode="&#xf7;" horiz-adv-x="1228" d="M82 393v238h1065v-238h-1065zM430 164q0 76 54.5 130t130 54t130 -54t54.5 -130q0 -78 -53.5 -131t-131 -53t-131 53t-53.5 131zM430 860q0 78 53.5 131t131 53t131 -53t53.5 -131q0 -76 -54.5 -130t-130 -54t-130 54t-54.5 130z" />
<glyph unicode="&#xf8;" horiz-adv-x="1269" d="M63 522q0 240 151 382.5t404 142.5q145 0 267 -46l76 117h165l-118 -180q193 -147 192 -422q0 -240 -154.5 -387t-406.5 -147q-141 0 -246 41l-65 -105h-168l106 166q-203 149 -203 438zM436 502q0 -63 17 -160l297 461q-59 45 -117 45q-197 0 -197 -346zM530 215 q47 -25 97 -25q201 0 200 316q0 74 -10 156z" />
<glyph unicode="&#xf9;" horiz-adv-x="1351" d="M45 803v166l354 59h127v-676q0 -88 20.5 -117.5t82.5 -29.5q92 0 223 78v348q0 94 -22.5 127t-90.5 41l-37 4v166l355 59h127v-692q0 -88 15 -114.5t75 -41.5l63 -14v-166h-450v80q-102 -59 -180 -83t-179 -24q-94 0 -161.5 29t-100.5 65.5t-50 97t-19 94.5t-2 87v285 q0 94 -22.5 127t-90.5 41zM389 1411q0 61 42 105.5t101 44.5q76 0 173 -84l215 -193l-41 -100l-326 69q-164 35 -164 158z" />
<glyph unicode="&#xfa;" horiz-adv-x="1351" d="M45 803v166l354 59h127v-676q0 -88 20.5 -117.5t82.5 -29.5q92 0 223 78v348q0 94 -22.5 127t-90.5 41l-37 4v166l355 59h127v-692q0 -88 15 -114.5t75 -41.5l63 -14v-166h-450v80q-102 -59 -180 -83t-179 -24q-94 0 -161.5 29t-100.5 65.5t-50 97t-19 94.5t-2 87v285 q0 94 -22.5 127t-90.5 41zM461 1284l215 193q96 84 172 84q59 0 101 -44t42 -106q0 -123 -164 -158l-325 -69z" />
<glyph unicode="&#xfb;" horiz-adv-x="1351" d="M45 803v166l354 59h127v-676q0 -88 20.5 -117.5t82.5 -29.5q92 0 223 78v348q0 94 -22.5 127t-90.5 41l-37 4v166l355 59h127v-692q0 -88 15 -114.5t75 -41.5l63 -14v-166h-450v80q-102 -59 -180 -83t-179 -24q-94 0 -161.5 29t-100.5 65.5t-50 97t-19 94.5t-2 87v285 q0 94 -22.5 127t-90.5 41zM319 1329l373 223l369 -223l-78 -137l-291 111l-295 -111z" />
<glyph unicode="&#xfc;" horiz-adv-x="1351" d="M45 803v166l354 59h127v-676q0 -88 20.5 -117.5t82.5 -29.5q92 0 223 78v348q0 94 -22.5 127t-90.5 41l-37 4v166l355 59h127v-692q0 -88 15 -114.5t75 -41.5l63 -14v-166h-450v80q-102 -59 -180 -83t-179 -24q-94 0 -161.5 29t-100.5 65.5t-50 97t-19 94.5t-2 87v285 q0 94 -22.5 127t-90.5 41zM317 1374q0 61 40 101.5t102 40.5q57 0 100 -44.5t43 -103.5q0 -55 -42 -96t-99 -41q-59 0 -101.5 42t-42.5 101zM797 1374q0 61 40 101.5t101 40.5q57 0 100 -44.5t43 -103.5q0 -55 -42 -96t-99 -41q-59 0 -101 42t-42 101z" />
<glyph unicode="&#xfd;" horiz-adv-x="1269" d="M12 860v168h637v-168h-22q-113 0 -113 -51q0 -8 8 -41l152 -385l145 381q8 16 8 35q0 61 -94 61h-24v168h546v-168l-24 -4q-80 -20 -120 -57t-85 -135l-352 -760q-29 -61 -48.5 -98t-58.5 -92.5t-77.5 -87.5t-100 -55.5t-133.5 -23.5q-98 0 -159.5 50.5t-61.5 130.5 q0 72 46 120t115.5 48t135.5 -60q16 -16 28 -16q18 0 62.5 60.5t77.5 129.5l-310 699q-39 86 -63.5 112.5t-81.5 34.5zM451 1284l215 193q96 84 172 84q59 0 101 -44t42 -106q0 -123 -164 -158l-325 -69z" />
<glyph unicode="&#xfe;" horiz-adv-x="1310" d="M45 -270l59 14q59 14 75 41t16 115v1185q0 94 -22.5 127t-90.5 41l-37 4v166l324 60h155v-504q111 68 246 68q209 0 345 -146.5t136 -370.5q0 -238 -136 -393t-343 -155q-100 0 -246 57v-139q0 -88 15.5 -115t74.5 -41l60 -14v-166h-631v166zM526 254q68 -63 160 -64 q106 0 164.5 90.5t58.5 254.5q0 145 -54 229t-148 84q-102 0 -181 -82v-512z" />
<glyph unicode="&#xff;" horiz-adv-x="1269" d="M12 860v168h637v-168h-22q-113 0 -113 -51q0 -8 8 -41l152 -385l145 381q8 16 8 35q0 61 -94 61h-24v168h546v-168l-24 -4q-80 -20 -120 -57t-85 -135l-352 -760q-29 -61 -48.5 -98t-58.5 -92.5t-77.5 -87.5t-100 -55.5t-133.5 -23.5q-98 0 -159.5 50.5t-61.5 130.5 q0 72 46 120t115.5 48t135.5 -60q16 -16 28 -16q18 0 62.5 60.5t77.5 129.5l-310 699q-39 86 -63.5 112.5t-81.5 34.5zM307 1374q0 61 40 101.5t102 40.5q57 0 100 -44.5t43 -103.5q0 -55 -42 -96t-99 -41q-59 0 -101.5 42t-42.5 101zM786 1374q0 61 40 101.5t102 40.5 q57 0 100 -44.5t43 -103.5q0 -55 -42 -96t-99 -41q-59 0 -101.5 42t-42.5 101z" />
<glyph unicode="&#x100;" horiz-adv-x="1474" d="M-70 0v168l33 4q86 10 133 59.5t107 190.5l405 973h318l401 -1000q63 -133 95 -171t108 -52l33 -4v-168h-748v168l51 4q66 4 92.5 19.5t26.5 46.5q-2 31 -20 84l-62 174h-440l-66 -177q-18 -47 -18 -61q0 -41 35 -58.5t116 -27.5l33 -4v-168h-633zM436 1571v174h645v-174 h-645zM528 670h308l-152 399z" />
<glyph unicode="&#x101;" d="M57 262q0 233 308 326q133 41 299 55v105q0 111 -129 110q-49 0 -90.5 -20.5t-41.5 -69.5q0 -68 -28 -102q-45 -55 -129 -56q-63 0 -107.5 44t-44.5 110q0 123 128 203t327 80q446 0 446 -338v-404q0 -115 43 -115l15 7q14 6 37 28l114 -139q-131 -104 -260 -104 q-70 0 -134.5 28.5t-100.5 75.5q-154 -104 -326 -104q-145 0 -235.5 77.5t-90.5 202.5zM217 1286v174h645v-174h-645zM406 305q0 -45 26.5 -73.5t69.5 -28.5q84 0 162 71v205q-258 -47 -258 -174z" />
<glyph unicode="&#x102;" horiz-adv-x="1474" d="M-70 0v168l33 4q86 10 133 59.5t107 190.5l405 973h318l401 -1000q63 -133 95 -171t108 -52l33 -4v-168h-748v168l51 4q66 4 92.5 19.5t26.5 46.5q-2 31 -20 84l-62 174h-440l-66 -177q-18 -47 -18 -61q0 -41 35 -58.5t116 -27.5l33 -4v-168h-633zM362 1765l113 47 q123 -111 297 -110q158 0 285 110l119 -47q-47 -115 -161 -189.5t-243 -74.5q-250 0 -410 264zM528 670h308l-152 399z" />
<glyph unicode="&#x103;" d="M57 262q0 233 308 326q133 41 299 55v105q0 111 -129 110q-49 0 -90.5 -20.5t-41.5 -69.5q0 -68 -28 -102q-45 -55 -129 -56q-63 0 -107.5 44t-44.5 110q0 123 128 203t327 80q446 0 446 -338v-404q0 -115 43 -115l15 7q14 6 37 28l114 -139q-131 -104 -260 -104 q-70 0 -134.5 28.5t-100.5 75.5q-154 -104 -326 -104q-145 0 -235.5 77.5t-90.5 202.5zM176 1493l103 53q113 -125 270 -125q143 0 258 125l108 -53q-43 -127 -146 -210t-220 -83q-230 0 -373 293zM406 305q0 -45 26.5 -73.5t69.5 -28.5q84 0 162 71v205q-258 -47 -258 -174 z" />
<glyph unicode="&#x104;" horiz-adv-x="1474" d="M-70 0v168l33 4q86 10 133 59.5t107 190.5l405 973h318l401 -1000q63 -133 95 -171t108 -52l33 -4v-168h-150q-82 0 -140.5 -54.5t-58.5 -131.5q0 -51 35 -82t84 -31q68 0 152 84l78 -72q-47 -84 -129 -134t-179 -50q-131 0 -219 52t-88 159q0 147 176 260h-309v168l51 4 q66 4 92.5 19.5t26.5 46.5q-2 31 -20 84l-62 174h-440l-66 -177q-18 -47 -18 -61q0 -41 35 -58.5t116 -27.5l33 -4v-168h-633zM528 670h308l-152 399z" />
<glyph unicode="&#x105;" d="M57 262q0 233 308 326q133 41 299 55v105q0 111 -129 110q-49 0 -90.5 -20.5t-41.5 -69.5q0 -68 -28 -102q-45 -55 -129 -56q-63 0 -107.5 44t-44.5 110q0 123 128 203t327 80q446 0 446 -338v-404q0 -115 43 -115l15 7q14 6 37 28l114 -139q-102 -80 -192 -98 q-68 -12 -112 -61.5t-44 -112.5q0 -51 35 -82t84 -31q68 0 151 84l78 -72q-47 -84 -129 -134t-178 -50q-131 0 -219 52t-88 159q0 94 55 158.5t150 119.5q-53 25 -86 68q-154 -104 -326 -104q-145 0 -235.5 77.5t-90.5 202.5zM406 305q0 -45 26.5 -73.5t69.5 -28.5 q84 0 162 71v205q-258 -47 -258 -174z" />
<glyph unicode="&#x106;" horiz-adv-x="1515" d="M72 698q0 96 21.5 192.5t73.5 193t130 171t201 120.5t274 46q188 0 342 -73l16 47h142l172 -484l-158 -59q-111 193 -170 256q-141 145 -291 145q-166 0 -263 -149.5t-97 -403.5q0 -150 38 -261t100.5 -167.5t126 -83t128.5 -26.5q268 0 453 323l172 -77 q-74 -197 -259.5 -316t-416.5 -119q-322 0 -528.5 204t-206.5 521zM563 1577l238 172q102 76 188 76q63 0 110.5 -40t47.5 -95q0 -111 -180 -142l-359 -61z" />
<glyph unicode="&#x107;" d="M63 514q0 242 154 387.5t408 145.5q190 0 322 -87.5t132 -214.5q0 -72 -49 -119.5t-121 -47.5q-66 0 -118 43t-52 96v59q0 33 -34.5 57.5t-79.5 24.5q-94 0 -145.5 -85t-51.5 -241q0 -160 66.5 -256t177.5 -96q178 0 289 201l165 -86q-61 -147 -197 -230t-319 -83 q-244 0 -395.5 148t-151.5 384zM395 1284l215 193q96 84 172 84q59 0 101.5 -44t42.5 -106q0 -123 -164 -158l-326 -69z" />
<glyph unicode="&#x108;" horiz-adv-x="1515" d="M72 698q0 96 21.5 192.5t73.5 193t130 171t201 120.5t274 46q188 0 342 -73l16 47h142l172 -484l-158 -59q-111 193 -170 256q-141 145 -291 145q-166 0 -263 -149.5t-97 -403.5q0 -150 38 -261t100.5 -167.5t126 -83t128.5 -26.5q268 0 453 323l172 -77 q-74 -197 -259.5 -316t-416.5 -119q-322 0 -528.5 204t-206.5 521zM365 1620l409 201l406 -201l-86 -125l-324 100l-319 -100z" />
<glyph unicode="&#x109;" d="M63 514q0 242 154 387.5t408 145.5q190 0 322 -87.5t132 -214.5q0 -72 -49 -119.5t-121 -47.5q-66 0 -118 43t-52 96v59q0 33 -34.5 57.5t-79.5 24.5q-94 0 -145.5 -85t-51.5 -241q0 -160 66.5 -256t177.5 -96q178 0 289 201l165 -86q-61 -147 -197 -230t-319 -83 q-244 0 -395.5 148t-151.5 384zM254 1329l373 223l368 -223l-77 -137l-291 111l-295 -111z" />
<glyph unicode="&#x10a;" horiz-adv-x="1515" d="M72 698q0 96 21.5 192.5t73.5 193t130 171t201 120.5t274 46q188 0 342 -73l16 47h142l172 -484l-158 -59q-111 193 -170 256q-141 145 -291 145q-166 0 -263 -149.5t-97 -403.5q0 -150 38 -261t100.5 -167.5t126 -83t128.5 -26.5q268 0 453 323l172 -77 q-74 -197 -259.5 -316t-416.5 -119q-322 0 -528.5 204t-206.5 521zM584 1659q0 84 55 139t139 55q78 0 137.5 -60t59.5 -142q0 -76 -57.5 -132.5t-135.5 -56.5q-82 0 -140 57.5t-58 139.5z" />
<glyph unicode="&#x10b;" d="M63 514q0 242 154 387.5t408 145.5q190 0 322 -87.5t132 -214.5q0 -72 -49 -119.5t-121 -47.5q-66 0 -118 43t-52 96v59q0 33 -34.5 57.5t-79.5 24.5q-94 0 -145.5 -85t-51.5 -241q0 -160 66.5 -256t177.5 -96q178 0 289 201l165 -86q-61 -147 -197 -230t-319 -83 q-244 0 -395.5 148t-151.5 384zM436 1374q0 84 55.5 139.5t139.5 55.5q78 0 137 -60.5t59 -142.5q0 -76 -57 -132t-135 -56q-82 0 -140.5 57t-58.5 139z" />
<glyph unicode="&#x10c;" horiz-adv-x="1515" d="M72 698q0 96 21.5 192.5t73.5 193t130 171t201 120.5t274 46q188 0 342 -73l16 47h142l172 -484l-158 -59q-111 193 -170 256q-141 145 -291 145q-166 0 -263 -149.5t-97 -403.5q0 -150 38 -261t100.5 -167.5t126 -83t128.5 -26.5q268 0 453 323l172 -77 q-74 -197 -259.5 -316t-416.5 -119q-322 0 -528.5 204t-206.5 521zM365 1696l86 125l323 -101l320 101l86 -125l-410 -201z" />
<glyph unicode="&#x10d;" d="M63 514q0 242 154 387.5t408 145.5q190 0 322 -87.5t132 -214.5q0 -72 -49 -119.5t-121 -47.5q-66 0 -118 43t-52 96v59q0 33 -34.5 57.5t-79.5 24.5q-94 0 -145.5 -85t-51.5 -241q0 -160 66.5 -256t177.5 -96q178 0 289 201l165 -86q-61 -147 -197 -230t-319 -83 q-244 0 -395.5 148t-151.5 384zM252 1417l78 135l295 -108l290 108l78 -135l-368 -225z" />
<glyph unicode="&#x10e;" horiz-adv-x="1597" d="M41 0v168l41 4q86 10 112.5 42t26.5 130v707q0 98 -26.5 129.5t-112.5 42.5l-41 4v168h651q143 0 258 -16.5t227.5 -62.5t187.5 -122t121 -204t46 -298q0 -141 -36 -255.5t-121 -218t-246.5 -161t-389.5 -57.5h-698zM332 1696l86 125l323 -101l320 101l86 -125l-410 -201 zM580 332q0 -90 20.5 -119t116.5 -29q193 0 307.5 142.5t114.5 380.5q0 236 -109.5 369.5t-302.5 133.5q-88 0 -117.5 -22.5t-29.5 -85.5v-770z" />
<glyph unicode="&#x10f;" horiz-adv-x="1310" d="M63 502q0 231 139.5 388t346.5 157q129 0 235 -60v72q0 94 -22.5 124.5t-97.5 41.5l-29 4v166q170 14 373 88h108v-1147q0 -88 15.5 -115.5t74.5 -40.5l68 -14v-166h-459v78q-111 -96 -283 -96q-223 0 -346 157.5t-123 362.5zM412 498q0 -133 53 -217t135 -84 q111 0 184 86v483q-72 59 -163 59q-94 0 -151.5 -88.5t-57.5 -238.5zM1198 1321q0 70 46 116t114 46q76 0 122 -54.5t46 -140.5q0 -90 -55.5 -178t-151.5 -152l-88 93q68 59 100 120q-133 25 -133 150z" />
<glyph unicode="&#x110;" horiz-adv-x="1597" d="M41 0v168l41 4q86 10 112.5 42t26.5 130v313h-180v179h180v211q0 100 -26.5 132.5t-112.5 41.5l-41 4v170h651q143 0 258 -16.5t227.5 -62.5t187.5 -122t121 -204t46 -300q0 -690 -793 -690h-698zM580 332q0 -90 20.5 -119t116.5 -29q193 0 307.5 141.5t114.5 379.5 q0 233 -110.5 368t-303.5 135q-86 0 -115.5 -22.5t-29.5 -85.5v-264h313v-179h-313v-325z" />
<glyph unicode="&#x111;" horiz-adv-x="1310" d="M63 483.5q0 118.5 57.5 237.5t147.5 186q123 94 281 94q129 0 235 -59v135h-307v99h301q-8 78 -114 77h-29v142q174 14 373 88h108v-307h158v-99h-158v-741q0 -88 15.5 -115.5t74.5 -40.5l68 -14v-166h-459v78q-111 -96 -283 -96q-166 0 -272 88q-90 74 -143.5 184.5 t-53.5 229zM412 483q0 -125 50 -209t126 -84q51 0 106.5 28t89.5 71v424q-74 68 -166 67q-59 0 -102 -32q-47 -41 -75.5 -114t-28.5 -151z" />
<glyph unicode="&#x112;" horiz-adv-x="1474" d="M41 0v168l41 4q86 10 112.5 42t26.5 130v707q0 98 -26.5 129.5t-112.5 42.5l-41 4v168h1182l202 -422l-139 -70q-213 307 -489 307q-66 0 -107 -7t-63.5 -17t-32.5 -39t-12 -51.5t-2 -75.5v-174h59q66 0 96.5 4t60 25.5t40 66.5t12.5 127h160v-637h-160 q-18 143 -64.5 184t-146.5 41h-57v-241q0 -162 23.5 -197t146.5 -35q176 0 316 87t273 280l144 -68l-226 -483h-1216zM317 1571v174h646v-174h-646z" />
<glyph unicode="&#x113;" d="M63 518q0 231 152 380t387 149q147 0 265 -60.5t177 -167.5q53 -96 54 -299h-664q0 -154 63.5 -235.5t184.5 -81.5q152 0 268 174l172 -84q-41 -66 -72.5 -107t-92 -95t-145.5 -81.5t-191 -27.5q-242 0 -400 151.5t-158 384.5zM270 1286v174h645v-174h-645zM446 678h289 q-2 96 -33.5 138t-101.5 42t-110 -47t-44 -133z" />
<glyph unicode="&#x114;" horiz-adv-x="1474" d="M41 0v168l41 4q86 10 112.5 42t26.5 130v707q0 98 -26.5 129.5t-112.5 42.5l-41 4v168h1182l202 -422l-139 -70q-213 307 -489 307q-66 0 -107 -7t-63.5 -17t-32.5 -39t-12 -51.5t-2 -75.5v-174h59q66 0 96.5 4t60 25.5t40 66.5t12.5 127h160v-637h-160 q-18 143 -64.5 184t-146.5 41h-57v-241q0 -162 23.5 -197t146.5 -35q176 0 316 87t273 280l144 -68l-226 -483h-1216zM244 1765l112 47q123 -111 297 -110q158 0 285 110l119 -47q-47 -115 -161 -189.5t-243 -74.5q-249 0 -409 264z" />
<glyph unicode="&#x115;" d="M63 518q0 231 152 380t387 149q147 0 265 -60.5t177 -167.5q53 -96 54 -299h-664q0 -154 63.5 -235.5t184.5 -81.5q152 0 268 174l172 -84q-41 -66 -72.5 -107t-92 -95t-145.5 -81.5t-191 -27.5q-242 0 -400 151.5t-158 384.5zM229 1493l103 53q113 -125 270 -125 q143 0 258 125l109 -53q-43 -127 -146.5 -210t-220.5 -83q-230 0 -373 293zM446 678h289q-2 96 -33.5 138t-101.5 42t-110 -47t-44 -133z" />
<glyph unicode="&#x116;" horiz-adv-x="1474" d="M41 0v168l41 4q86 10 112.5 42t26.5 130v707q0 98 -26.5 129.5t-112.5 42.5l-41 4v168h1182l202 -422l-139 -70q-213 307 -489 307q-66 0 -107 -7t-63.5 -17t-32.5 -39t-12 -51.5t-2 -75.5v-174h59q66 0 96.5 4t60 25.5t40 66.5t12.5 127h160v-637h-160 q-18 143 -64.5 184t-146.5 41h-57v-241q0 -162 23.5 -197t146.5 -35q176 0 316 87t273 280l144 -68l-226 -483h-1216zM461 1659q0 84 55 139t139 55q78 0 137.5 -60t59.5 -142q0 -76 -57.5 -132.5t-135.5 -56.5q-82 0 -140 57.5t-58 139.5z" />
<glyph unicode="&#x117;" d="M63 518q0 231 152 380t387 149q147 0 265 -60.5t177 -167.5q53 -96 54 -299h-664q0 -154 63.5 -235.5t184.5 -81.5q152 0 268 174l172 -84q-41 -66 -72.5 -107t-92 -95t-145.5 -81.5t-191 -27.5q-242 0 -400 151.5t-158 384.5zM414 1374q0 84 55 139.5t139 55.5 q78 0 137.5 -60.5t59.5 -142.5q0 -76 -57.5 -132t-135.5 -56q-82 0 -140 57t-58 139zM446 678h289q-2 96 -33.5 138t-101.5 42t-110 -47t-44 -133z" />
<glyph unicode="&#x118;" horiz-adv-x="1474" d="M41 0v168l41 4q86 10 112.5 42t26.5 130v707q0 98 -26.5 129.5t-112.5 42.5l-41 4v168h1182l202 -422l-139 -70q-213 307 -489 307q-66 0 -107 -7t-63.5 -17t-32.5 -39t-12 -51.5t-2 -75.5v-174h59q66 0 96.5 4t60 25.5t40 66.5t12.5 127h160v-637h-160 q-18 143 -64.5 184t-146.5 41h-57v-241q0 -162 23.5 -197t146.5 -35q176 0 316 87t273 280l144 -68l-226 -483q-90 0 -155.5 -53t-65.5 -133q0 -51 35 -82t84 -31q68 0 152 84l77 -72q-47 -84 -128.5 -134t-178.5 -50q-131 0 -219 52t-88 159q0 147 176 260h-905z" />
<glyph unicode="&#x119;" d="M63 518q0 231 152 380t387 149q147 0 265 -60.5t177 -167.5q53 -96 54 -299h-664q0 -154 63.5 -235.5t184.5 -81.5q152 0 268 174l172 -84q-39 -63 -70.5 -105.5t-96 -95.5t-140.5 -80q-66 -23 -104.5 -77t-38.5 -121q0 -51 34.5 -82t84.5 -31q68 0 151 84l78 -72 q-47 -84 -129 -134t-178 -50q-131 0 -219 52t-88 159q0 141 151 244q-219 23 -356.5 170t-137.5 364zM446 678h289q-2 96 -33.5 138t-101.5 42t-110 -47t-44 -133z" />
<glyph unicode="&#x11a;" horiz-adv-x="1474" d="M41 0v168l41 4q86 10 112.5 42t26.5 130v707q0 98 -26.5 129.5t-112.5 42.5l-41 4v168h1182l202 -422l-139 -70q-213 307 -489 307q-66 0 -107 -7t-63.5 -17t-32.5 -39t-12 -51.5t-2 -75.5v-174h59q66 0 96.5 4t60 25.5t40 66.5t12.5 127h160v-637h-160 q-18 143 -64.5 184t-146.5 41h-57v-241q0 -162 23.5 -197t146.5 -35q176 0 316 87t273 280l144 -68l-226 -483h-1216zM242 1696l86 125l323 -101l320 101l86 -125l-410 -201z" />
<glyph unicode="&#x11b;" d="M63 518q0 231 152 380t387 149q147 0 265 -60.5t177 -167.5q53 -96 54 -299h-664q0 -154 63.5 -235.5t184.5 -81.5q152 0 268 174l172 -84q-41 -66 -72.5 -107t-92 -95t-145.5 -81.5t-191 -27.5q-242 0 -400 151.5t-158 384.5zM229 1417l78 135l295 -108l291 108l78 -135 l-369 -225zM446 678h289q-2 96 -33.5 138t-101.5 42t-110 -47t-44 -133z" />
<glyph unicode="&#x11c;" horiz-adv-x="1597" d="M72 696q0 317 194.5 521t497.5 204q90 0 191.5 -24.5t164.5 -61.5l31 60h131l125 -469l-147 -52q-80 143 -142 205q-139 143 -315 144q-152 0 -245 -151.5t-93 -401.5q0 -219 99.5 -358.5t254.5 -139.5q111 0 195 73.5t84 170.5q0 131 -180 133v168h665v-168l-56.5 -8 t-40 -9.5t-32.5 -16.5t-17.5 -28.5t-13.5 -46t-2 -67.5v-391h-223l-47 118q-184 -127 -422 -127q-301 0 -479 207t-178 516zM356 1620l410 201l405 -201l-86 -125l-323 100l-320 -100z" />
<glyph unicode="&#x11d;" d="M18 -231q0 121 140 184q-102 76 -103 178q0 92 53.5 159.5t143.5 88.5q-141 106 -141 283q0 170 129 281.5t325 111.5q70 0 178 -25q2 10 29 40t58.5 61.5t88 57t115.5 25.5q68 0 114 -39.5t46 -99.5q0 -47 -37 -82t-88 -35q-18 0 -54 12.5t-59 12.5q-37 0 -63 -25 q160 -123 160 -299q0 -170 -127 -278.5t-328 -108.5q-35 0 -109.5 11.5t-91.5 11.5q-45 0 -45 -45q0 -35 32 -48.5t134 -23.5l324 -28q317 -29 317 -273q0 -51 -13 -99t-53 -102.5t-104.5 -93.5t-177.5 -64.5t-260 -25.5q-98 0 -185 12.5t-169 42t-130.5 86t-48.5 136.5z M195 1329l372 223l369 -223l-78 -137l-291 111l-295 -111zM250 -221q0 -51 84 -85t211 -34q297 0 297 98q0 37 -34 54.5t-128 27.5l-363 39q-67 -41 -67 -100zM442 645q0 -205 139.5 -205t139.5 201q0 119 -33 172t-106 53q-72 0 -106 -53t-34 -168z" />
<glyph unicode="&#x11e;" horiz-adv-x="1597" d="M72 696q0 317 194.5 521t497.5 204q90 0 191.5 -24.5t164.5 -61.5l31 60h131l125 -469l-147 -52q-80 143 -142 205q-139 143 -315 144q-152 0 -245 -151.5t-93 -401.5q0 -219 99.5 -358.5t254.5 -139.5q111 0 195 73.5t84 170.5q0 131 -180 133v168h665v-168l-56.5 -8 t-40 -9.5t-32.5 -16.5t-17.5 -28.5t-13.5 -46t-2 -67.5v-391h-223l-47 118q-184 -127 -422 -127q-301 0 -479 207t-178 516zM358 1765l113 47q123 -111 297 -110q158 0 285 110l118 -47q-47 -115 -160.5 -189.5t-242.5 -74.5q-250 0 -410 264z" />
<glyph unicode="&#x11f;" d="M18 -231q0 121 140 184q-102 76 -103 178q0 92 53.5 159.5t143.5 88.5q-141 106 -141 283q0 170 129 281.5t325 111.5q70 0 178 -25q2 10 29 40t58.5 61.5t88 57t115.5 25.5q68 0 114 -39.5t46 -99.5q0 -47 -37 -82t-88 -35q-18 0 -54 12.5t-59 12.5q-37 0 -63 -25 q160 -123 160 -299q0 -170 -127 -278.5t-328 -108.5q-35 0 -109.5 11.5t-91.5 11.5q-45 0 -45 -45q0 -35 32 -48.5t134 -23.5l324 -28q317 -29 317 -273q0 -51 -13 -99t-53 -102.5t-104.5 -93.5t-177.5 -64.5t-260 -25.5q-98 0 -185 12.5t-169 42t-130.5 86t-48.5 136.5z M193 1493l102 53q113 -125 270 -125q143 0 258 125l109 -53q-43 -127 -146.5 -210t-220.5 -83q-229 0 -372 293zM250 -221q0 -51 84 -85t211 -34q297 0 297 98q0 37 -34 54.5t-128 27.5l-363 39q-67 -41 -67 -100zM442 645q0 -205 139.5 -205t139.5 201q0 119 -33 172 t-106 53q-72 0 -106 -53t-34 -168z" />
<glyph unicode="&#x120;" horiz-adv-x="1597" d="M72 696q0 317 194.5 521t497.5 204q90 0 191.5 -24.5t164.5 -61.5l31 60h131l125 -469l-147 -52q-80 143 -142 205q-139 143 -315 144q-152 0 -245 -151.5t-93 -401.5q0 -219 99.5 -358.5t254.5 -139.5q111 0 195 73.5t84 170.5q0 131 -180 133v168h665v-168l-56.5 -8 t-40 -9.5t-32.5 -16.5t-17.5 -28.5t-13.5 -46t-2 -67.5v-391h-223l-47 118q-184 -127 -422 -127q-301 0 -479 207t-178 516zM575 1659q0 84 55.5 139t139.5 55q78 0 137.5 -60t59.5 -142q0 -76 -57.5 -132.5t-135.5 -56.5q-82 0 -140.5 57.5t-58.5 139.5z" />
<glyph unicode="&#x121;" d="M18 -231q0 121 140 184q-102 76 -103 178q0 92 53.5 159.5t143.5 88.5q-141 106 -141 283q0 170 129 281.5t325 111.5q70 0 178 -25q2 10 29 40t58.5 61.5t88 57t115.5 25.5q68 0 114 -39.5t46 -99.5q0 -47 -37 -82t-88 -35q-18 0 -54 12.5t-59 12.5q-37 0 -63 -25 q160 -123 160 -299q0 -170 -127 -278.5t-328 -108.5q-35 0 -109.5 11.5t-91.5 11.5q-45 0 -45 -45q0 -35 32 -48.5t134 -23.5l324 -28q317 -29 317 -273q0 -51 -13 -99t-53 -102.5t-104.5 -93.5t-177.5 -64.5t-260 -25.5q-98 0 -185 12.5t-169 42t-130.5 86t-48.5 136.5z M250 -221q0 -51 84 -85t211 -34q297 0 297 98q0 37 -34 54.5t-128 27.5l-363 39q-67 -41 -67 -100zM377 1374q0 84 55 139.5t139 55.5q78 0 137.5 -60.5t59.5 -142.5q0 -76 -57.5 -132t-135.5 -56q-82 0 -140 57t-58 139zM442 645q0 -205 139.5 -205t139.5 201 q0 119 -33 172t-106 53q-72 0 -106 -53t-34 -168z" />
<glyph unicode="&#x122;" horiz-adv-x="1597" d="M72 696q0 317 194.5 521t497.5 204q90 0 191.5 -24.5t164.5 -61.5l31 60h131l125 -469l-147 -52q-80 143 -142 205q-139 143 -315 144q-152 0 -245 -151.5t-93 -401.5q0 -219 99.5 -358.5t254.5 -139.5q111 0 195 73.5t84 170.5q0 131 -180 133v168h665v-168l-56.5 -8 t-40 -9.5t-32.5 -16.5t-17.5 -28.5t-13.5 -46t-2 -67.5v-391h-223l-47 118q-184 -127 -422 -127q-301 0 -479 207t-178 516zM600 -264q0 70 46 116t114 46q76 0 122 -54.5t46 -140.5q0 -90 -55.5 -178t-151.5 -152l-88 92q68 59 100 121q-133 25 -133 150z" />
<glyph unicode="&#x123;" d="M18 -231q0 121 140 184q-102 76 -103 178q0 92 53.5 159.5t143.5 88.5q-141 106 -141 283q0 170 129 281.5t325 111.5q70 0 178 -25q2 10 29 40t58.5 61.5t88 57t115.5 25.5q68 0 114 -39.5t46 -99.5q0 -47 -37 -82t-88 -35q-18 0 -54 12.5t-59 12.5q-37 0 -63 -25 q160 -123 160 -299q0 -170 -127 -278.5t-328 -108.5q-35 0 -109.5 11.5t-91.5 11.5q-45 0 -45 -45q0 -35 32 -48.5t134 -23.5l324 -28q317 -29 317 -273q0 -51 -13 -99t-53 -102.5t-104.5 -93.5t-177.5 -64.5t-260 -25.5q-98 0 -185 12.5t-169 42t-130.5 86t-48.5 136.5z M250 -221q0 -51 84 -85t211 -34q297 0 297 98q0 37 -34 54.5t-128 27.5l-363 39q-67 -41 -67 -100zM401 1346q0 90 55.5 178t151.5 151l88 -92q-68 -59 -100 -121q133 -25 133 -149q0 -70 -46 -116t-114 -46q-76 0 -122 54.5t-46 140.5zM442 645q0 -205 139.5 -205 t139.5 201q0 119 -33 172t-106 53q-72 0 -106 -53t-34 -168z" />
<glyph unicode="&#x124;" horiz-adv-x="1679" d="M41 0v168l41 4q86 10 112.5 42t26.5 130v707q0 98 -26.5 129.5t-112.5 42.5l-41 4v168h719v-168l-41 -4q-86 -10 -112.5 -42t-26.5 -130v-201h520v201q0 98 -26.5 129.5t-112.5 42.5l-41 4v168h718v-168l-41 -4q-86 -10 -112.5 -42t-26.5 -130v-707q0 -98 26.5 -130 t112.5 -42l41 -4v-168h-718v168l41 4q86 10 112.5 42t26.5 130v307h-520v-307q0 -98 26.5 -130t112.5 -42l41 -4v-168h-719zM432 1620l410 201l405 -201l-86 -125l-323 100l-320 -100z" />
<glyph unicode="&#x125;" horiz-adv-x="1392" d="M45 0v166l72 14q57 10 73.5 40t16.5 116v723q0 86 -20.5 122t-100.5 44l-41 4v166q152 0 361 88h133v-529q164 92 317 93q53 0 102.5 -13.5t101.5 -46.5t84 -100.5t32 -161.5v-389q0 -86 16 -116t74 -40l73 -14v-166h-612v166l27 10q63 25 76.5 47.5t13.5 112.5v362 q0 127 -86 127q-49 0 -116 -23.5t-103 -56.5v-409q0 -90 13 -112.5t77 -47.5l26 -10v-166h-610zM289 1708l409 201l406 -201l-86 -125l-324 100l-319 -100z" />
<glyph unicode="&#x126;" horiz-adv-x="1679" d="M41 0v168l41 4q86 10 112.5 42t26.5 130v604h-180v197h172q-12 39 -41 55.5t-90 22.5l-41 4v168h719v-168l-41 -4q-61 -6 -90 -22.5t-41 -55.5h504q-12 39 -41 55.5t-90 22.5l-41 4v168h718v-168l-41 -4q-61 -6 -89.5 -22.5t-41.5 -55.5h172v-197h-180v-604 q0 -98 26.5 -130t112.5 -42l41 -4v-168h-718v168l41 4q86 10 112.5 42t26.5 130v307h-520v-307q0 -98 26.5 -130t112.5 -42l41 -4v-168h-719zM580 850h520v98h-520v-98z" />
<glyph unicode="&#x127;" horiz-adv-x="1458" d="M82 0v166l72 14q57 10 73.5 40t16.5 116v655l-162 -45v164l154 43q-18 61 -113 72l-41 4v166q152 0 360 88h133v-234l158 43v-162l-158 -45v-131q164 92 318 93q53 0 102 -13.5t101.5 -46.5t84 -100.5t31.5 -161.5v-389q0 -86 16.5 -116t74.5 -40l73 -14v-166h-612v166 l27 10q63 25 76.5 47.5t13.5 112.5v362q0 127 -86 127q-49 0 -116 -23.5t-104 -56.5v-409q0 -90 13.5 -112.5t77.5 -47.5l26 -10v-166h-610z" />
<glyph unicode="&#x128;" horiz-adv-x="819" d="M41 0v168l49 4q92 8 115.5 46t23.5 126v707q0 92 -23.5 129t-115.5 43l-49 4v168h735v-168l-49 -4q-92 -8 -115.5 -46t-23.5 -126v-707q0 -92 23.5 -129t115.5 -43l49 -4v-168h-735zM59 1595q33 92 102.5 146.5t155.5 54.5q59 0 149.5 -29.5t127.5 -29.5q55 0 84 49 l102 -51q-33 -113 -92 -164t-160 -51q-66 0 -156.5 30.5t-127.5 30.5q-43 0 -78 -49z" />
<glyph unicode="&#x129;" horiz-adv-x="737" d="M16 1311q33 92 102.5 146t155.5 54q59 0 149.5 -29.5t127.5 -29.5q55 0 84 49l102 -51q-33 -113 -92 -164t-160 -51q-66 0 -156.5 30.5t-127.5 30.5q-43 0 -78 -49zM45 0v166l66 14q57 12 73.5 40t16.5 116v295q0 94 -23.5 128t-89.5 40l-43 4v166l361 59h126v-692 q0 -88 15.5 -114.5t75.5 -41.5l63 -14v-166h-641z" />
<glyph unicode="&#x12a;" horiz-adv-x="819" d="M41 0v168l49 4q92 8 115.5 46t23.5 126v707q0 92 -23.5 129t-115.5 43l-49 4v168h735v-168l-49 -4q-92 -8 -115.5 -46t-23.5 -126v-707q0 -92 23.5 -129t115.5 -43l49 -4v-168h-735zM78 1571v174h645v-174h-645z" />
<glyph unicode="&#x12b;" horiz-adv-x="737" d="M35 1286v174h645v-174h-645zM45 0v166l66 14q57 12 73.5 40t16.5 116v295q0 94 -23.5 128t-89.5 40l-43 4v166l361 59h126v-692q0 -88 15.5 -114.5t75.5 -41.5l63 -14v-166h-641z" />
<glyph unicode="&#x12c;" horiz-adv-x="819" d="M4 1765l113 47q123 -111 297 -110q158 0 284 110l119 -47q-47 -115 -160.5 -189.5t-242.5 -74.5q-250 0 -410 264zM41 0v168l49 4q92 8 115.5 46t23.5 126v707q0 92 -23.5 129t-115.5 43l-49 4v168h735v-168l-49 -4q-92 -8 -115.5 -46t-23.5 -126v-707q0 -92 23.5 -129 t115.5 -43l49 -4v-168h-735z" />
<glyph unicode="&#x12d;" horiz-adv-x="737" d="M-6 1493l102 53q113 -125 271 -125q143 0 258 125l108 -53q-43 -127 -146.5 -210t-219.5 -83q-230 0 -373 293zM45 0v166l66 14q57 12 73.5 40t16.5 116v295q0 94 -23.5 128t-89.5 40l-43 4v166l361 59h126v-692q0 -88 15.5 -114.5t75.5 -41.5l63 -14v-166h-641z" />
<glyph unicode="&#x12e;" horiz-adv-x="819" d="M41 0v168l49 4q92 8 115.5 46t23.5 126v707q0 92 -23.5 129t-115.5 43l-49 4v168h735v-168l-49 -4q-92 -8 -115.5 -46t-23.5 -126v-707q0 -92 23.5 -129t115.5 -43l49 -4v-168h-147q-82 0 -141.5 -53t-59.5 -133q0 -51 35 -82t84 -31q68 0 151 84l78 -72 q-47 -84 -129 -134t-178 -50q-131 0 -219 52t-88 159q0 147 176 260h-297z" />
<glyph unicode="&#x12f;" horiz-adv-x="737" d="M45 0v166l66 14q57 12 73.5 40t16.5 116v295q0 94 -23.5 128t-89.5 40l-43 4v166l361 59h126v-692q0 -88 15.5 -114.5t75.5 -41.5l63 -14v-166h-129q-88 0 -153.5 -53t-65.5 -133q0 -51 35 -82t84 -31q68 0 151 84l78 -72q-47 -84 -129 -134t-178 -50q-131 0 -219 52 t-88 159q0 147 176 260h-203zM178 1374q0 84 55.5 139.5t139.5 55.5q78 0 137 -60.5t59 -142.5q0 -76 -57 -132t-135 -56q-82 0 -140.5 57t-58.5 139z" />
<glyph unicode="&#x130;" horiz-adv-x="819" d="M41 0v168l49 4q92 8 115.5 46t23.5 126v707q0 92 -23.5 129t-115.5 43l-49 4v168h735v-168l-49 -4q-92 -8 -115.5 -46t-23.5 -126v-707q0 -92 23.5 -129t115.5 -43l49 -4v-168h-735zM221 1659q0 84 55.5 139t139.5 55q78 0 137 -60t59 -142q0 -76 -57 -132.5t-135 -56.5 q-82 0 -140.5 57.5t-58.5 139.5z" />
<glyph unicode="&#x131;" horiz-adv-x="737" d="M45 0v166l66 14q57 12 73.5 40t16.5 116v295q0 94 -23.5 128t-89.5 40l-43 4v166l361 59h126v-692q0 -88 15.5 -114.5t75.5 -41.5l63 -14v-166h-641z" />
<glyph unicode="&#x134;" horiz-adv-x="1310" d="M-25 387q0 102 58.5 168t148.5 66q68 0 113 -44.5t45 -111.5q0 -70 -55 -133q-18 -20 -19 -35q0 -45 67.5 -80t151.5 -35q72 0 122 23.5t75 52.5t37 76t14 72.5t2 66.5v578q0 98 -26.5 129.5t-112.5 42.5l-41 4v168h719v-168l-41 -4q-86 -10 -112.5 -42t-26.5 -130v-557 q0 -90 -11.5 -159t-47.5 -139.5t-97 -116.5t-166.5 -76t-249.5 -30q-242 0 -394.5 116t-152.5 298zM508 1620l410 201l405 -201l-86 -125l-324 100l-319 -100z" />
<glyph unicode="&#x135;" horiz-adv-x="696" d="M-193 -291q0 57 42 96t108 39q41 0 67.5 -14t73.5 -66q29 -29 58 -28q76 0 75 139v756q0 94 -22.5 127t-89.5 41l-37 4v166l354 59h127v-1055q0 -436 -477 -436q-131 0 -205 46t-74 126zM27 1329l372 223l369 -223l-78 -137l-291 111l-295 -111z" />
<glyph unicode="&#x136;" horiz-adv-x="1638" d="M41 0v168l41 4q86 10 112.5 42t26.5 130v707q0 98 -26.5 129.5t-112.5 42.5l-41 4v168h704v-168l-26 -4q-94 -14 -116.5 -42t-22.5 -130v-277l344 328q68 63 67 84q0 41 -102 41h-35v168h692v-168q-133 -18 -229 -68.5t-230 -173.5l-83 -78l299 -469q106 -166 159.5 -210 t167.5 -60v-168h-776v168l37 4q82 8 103.5 17.5t21.5 35.5q0 18 -29 64l-29 45l-210 348l-168 -145v-193q0 -102 22.5 -130t116.5 -42l26 -4v-168h-704zM637 -264q0 70 46 116t114 46q76 0 122 -54.5t46 -140.5q0 -90 -55.5 -178t-151.5 -152l-88 92q68 59 100 121 q-133 25 -133 150z" />
<glyph unicode="&#x137;" horiz-adv-x="1351" d="M45 0v166l59 14q59 14 75 41t16 115v723q0 94 -22.5 124.5t-98.5 41.5l-29 4v166q150 0 348 88h133v-860l133 143q39 41 39 65q0 27 -51 29l-22 2v166h592v-166l-29 -2q-92 -12 -168 -67l-180 -134l278 -389q66 -92 162 -100l37 -4v-166h-625v166l23 4q43 8 43 35 q0 20 -19 49l-137 213l-76 -68v-63q0 -143 95 -164l28 -6v-166h-604zM508 -264q0 70 46 116t114 46q76 0 122 -54.5t46 -140.5q0 -90 -55.5 -178t-151.5 -152l-88 92q68 59 100 121q-133 25 -133 150z" />
<glyph unicode="&#x139;" horiz-adv-x="1310" d="M41 0v168l41 4q86 10 112.5 42t26.5 130v707q0 98 -26.5 129.5t-112.5 42.5l-41 4v168h719v-168l-41 -4q-86 -10 -112.5 -42t-26.5 -130v-680q0 -127 17 -157t108 -30q309 0 522 379l141 -76l-213 -487h-1114zM193 1577l237 172q102 76 188 76q66 0 112 -40t46 -95 q0 -111 -180 -142l-358 -61z" />
<glyph unicode="&#x13a;" horiz-adv-x="696" d="M18 0v166l66 14q57 12 73.5 40t16.5 116v723q0 86 -20.5 122t-100.5 44l-35 4v166q188 16 353 88h135v-1147q0 -88 15.5 -114.5t74.5 -41.5l63 -14v-166h-641zM135 1665l238 172q102 76 188 76q66 0 112 -40t46 -95q0 -111 -180 -142l-359 -61z" />
<glyph unicode="&#x13b;" horiz-adv-x="1310" d="M41 0v168l41 4q86 10 112.5 42t26.5 130v707q0 98 -26.5 129.5t-112.5 42.5l-41 4v168h719v-168l-41 -4q-86 -10 -112.5 -42t-26.5 -130v-680q0 -127 17 -157t108 -30q309 0 522 379l141 -76l-213 -487h-1114zM492 -264q0 70 46 116t113 46q76 0 122 -54.5t46 -140.5 q0 -90 -55 -178t-152 -152l-88 92q68 59 101 121q-133 25 -133 150z" />
<glyph unicode="&#x13c;" horiz-adv-x="696" d="M18 0v166l66 14q57 12 73.5 40t16.5 116v723q0 86 -20.5 122t-100.5 44l-35 4v166q188 16 353 88h135v-1147q0 -88 15.5 -114.5t74.5 -41.5l63 -14v-166h-641zM176 -264q0 70 46 116t114 46q76 0 122 -54.5t46 -140.5q0 -90 -55.5 -178t-151.5 -152l-88 92q68 59 100 121 q-133 25 -133 150z" />
<glyph unicode="&#x13d;" horiz-adv-x="1310" d="M41 0v168l41 4q86 10 112.5 42t26.5 130v707q0 98 -26.5 129.5t-112.5 42.5l-41 4v168h719v-168l-41 -4q-86 -10 -112.5 -42t-26.5 -130v-680q0 -127 17 -157t108 -30q309 0 522 379l141 -76l-213 -487h-1114zM842 1233q0 70 46 116t113 46q76 0 122 -54.5t46 -140.5 q0 -90 -55 -178t-151 -152l-89 93q68 59 101 120q-133 25 -133 150z" />
<glyph unicode="&#x13e;" horiz-adv-x="696" d="M18 0v166l66 14q57 12 73.5 40t16.5 116v723q0 86 -20.5 122t-100.5 44l-35 4v166q188 16 353 88h135v-1147q0 -88 15.5 -114.5t74.5 -41.5l63 -14v-166h-641zM588 1321q0 70 46 116t114 46q76 0 121.5 -54.5t45.5 -140.5q0 -90 -55 -178t-151 -152l-88 93q68 59 100 120 q-133 25 -133 150z" />
<glyph unicode="&#x13f;" horiz-adv-x="1310" d="M41 0v168l41 4q86 10 112.5 42t26.5 130v707q0 98 -26.5 129.5t-112.5 42.5l-41 4v168h719v-168l-41 -4q-86 -10 -112.5 -42t-26.5 -130v-680q0 -127 17 -157t108 -30q309 0 522 379l141 -76l-213 -487h-1114zM860 770q0 84 55.5 139.5t139.5 55.5q78 0 137 -60.5 t59 -142.5q0 -76 -57 -132.5t-135 -56.5q-82 0 -140.5 57.5t-58.5 139.5z" />
<glyph unicode="&#x140;" horiz-adv-x="1116" d="M18 0v166l66 14q57 12 73.5 40t16.5 116v723q0 86 -20.5 122t-100.5 44l-35 4v166q188 16 353 88h135v-1147q0 -88 15.5 -114.5t74.5 -41.5l63 -14v-166h-641zM702 770q0 84 55.5 139.5t139.5 55.5q78 0 137.5 -60.5t59.5 -142.5q0 -76 -57.5 -132.5t-135.5 -56.5 q-82 0 -140.5 57.5t-58.5 139.5z" />
<glyph unicode="&#x141;" horiz-adv-x="1310" d="M41 0v168l41 4q86 10 112.5 42t26.5 130v90l-180 -115v216l180 114v402q0 98 -26.5 129.5t-112.5 42.5l-41 4v168h719v-168l-41 -4q-86 -10 -112.5 -42t-26.5 -130v-195l294 188v-215l-294 -188v-270q0 -127 17 -157t108 -30q309 0 522 379l141 -76l-213 -487h-1114z" />
<glyph unicode="&#x142;" horiz-adv-x="696" d="M18 0v166l66 14q57 12 73.5 40t16.5 116v258l-156 -111v224l156 108v244q0 86 -20.5 122t-100.5 44l-35 4v166q188 16 353 88h135v-455l153 109v-222l-153 -108v-471q0 -88 15.5 -114.5t74.5 -41.5l63 -14v-166h-641z" />
<glyph unicode="&#x143;" horiz-adv-x="1515" d="M41 0v168l41 4q86 10 112.5 42t26.5 130v707q0 98 -26.5 129.5t-112.5 42.5l-41 4v168h604l467 -805v461q0 98 -26.5 129.5t-112.5 42.5l-41 4v168h551v-168l-41 -4q-86 -10 -112.5 -42t-26.5 -130v-1051h-254l-637 1077v-733q0 -98 26.5 -130t112.5 -42l41 -4v-168h-551 zM553 1577l238 172q102 76 188 76q66 0 112 -40t46 -95q0 -111 -181 -142l-358 -61z" />
<glyph unicode="&#x144;" horiz-adv-x="1392" d="M45 0v166l59 14q59 14 75 41t16 115v295q0 94 -22.5 127t-90.5 41l-37 4v166l320 59h127v-88q193 106 372 107q133 0 226.5 -74t93.5 -252v-385q0 -88 15 -114.5t75 -41.5l61 -14v-166h-610v166l37 10q59 16 74.5 44t15.5 116v358q0 131 -92 131q-100 0 -234 -90v-399 q0 -88 15.5 -115.5t74.5 -44.5l37 -10v-166h-608zM461 1284l215 193q96 84 172 84q59 0 101 -44t42 -106q0 -123 -164 -158l-325 -69z" />
<glyph unicode="&#x145;" horiz-adv-x="1515" d="M41 0v168l41 4q86 10 112.5 42t26.5 130v707q0 98 -26.5 129.5t-112.5 42.5l-41 4v168h604l467 -805v461q0 98 -26.5 129.5t-112.5 42.5l-41 4v168h551v-168l-41 -4q-86 -10 -112.5 -42t-26.5 -130v-1051h-254l-637 1077v-733q0 -98 26.5 -130t112.5 -42l41 -4v-168h-551 zM598 -264q0 70 46 116t114 46q76 0 122 -54.5t46 -140.5q0 -90 -55.5 -178t-151.5 -152l-88 92q68 59 100 121q-133 25 -133 150z" />
<glyph unicode="&#x146;" horiz-adv-x="1392" d="M45 0v166l59 14q59 14 75 41t16 115v295q0 94 -22.5 127t-90.5 41l-37 4v166l320 59h127v-88q193 106 372 107q133 0 226.5 -74t93.5 -252v-385q0 -88 15 -114.5t75 -41.5l61 -14v-166h-610v166l37 10q59 16 74.5 44t15.5 116v358q0 131 -92 131q-100 0 -234 -90v-399 q0 -88 15.5 -115.5t74.5 -44.5l37 -10v-166h-608zM526 -264q0 70 46 116t114 46q76 0 122 -54.5t46 -140.5q0 -90 -55.5 -178t-151.5 -152l-88 92q68 59 100 121q-133 25 -133 150z" />
<glyph unicode="&#x147;" horiz-adv-x="1515" d="M41 0v168l41 4q86 10 112.5 42t26.5 130v707q0 98 -26.5 129.5t-112.5 42.5l-41 4v168h604l467 -805v461q0 98 -26.5 129.5t-112.5 42.5l-41 4v168h551v-168l-41 -4q-86 -10 -112.5 -42t-26.5 -130v-1051h-254l-637 1077v-733q0 -98 26.5 -130t112.5 -42l41 -4v-168h-551 zM354 1696l86 125l324 -101l319 101l86 -125l-409 -201z" />
<glyph unicode="&#x148;" horiz-adv-x="1392" d="M45 0v166l59 14q59 14 75 41t16 115v295q0 94 -22.5 127t-90.5 41l-37 4v166l320 59h127v-88q193 106 372 107q133 0 226.5 -74t93.5 -252v-385q0 -88 15 -114.5t75 -41.5l61 -14v-166h-610v166l37 10q59 16 74.5 44t15.5 116v358q0 131 -92 131q-100 0 -234 -90v-399 q0 -88 15.5 -115.5t74.5 -44.5l37 -10v-166h-608zM317 1417l78 135l295 -108l291 108l78 -135l-369 -225z" />
<glyph unicode="&#x14a;" horiz-adv-x="1515" d="M41 0v168l41 4q86 10 112.5 42t26.5 130v707q0 98 -26.5 129.5t-112.5 42.5l-41 4v168h604l467 -805v461q0 98 -26.5 129.5t-112.5 42.5l-41 4v168h551v-168l-41 -4q-86 -10 -112.5 -42t-26.5 -130v-1051q0 -199 -162 -331t-383 -132q-131 0 -205 46t-74 126q0 57 42 96 t108 39q41 0 67.5 -14t73.5 -66q29 -29 57 -28q96 0 159 79t63 185l-637 1077v-733q0 -98 26.5 -130t112.5 -42l41 -4v-168h-551z" />
<glyph unicode="&#x14b;" horiz-adv-x="1392" d="M45 0v166l59 14q59 14 75 41t16 115v295q0 94 -22.5 127t-90.5 41l-37 4v166l320 59h127v-88q193 106 372 107q133 0 226.5 -74t93.5 -252v-385q0 -207 -61.5 -386t-191.5 -296t-304 -117q-131 0 -205 46t-74 126q0 57 42 96t108 39q41 0 67.5 -14t73.5 -66 q29 -29 57 -28q37 0 66 23.5t45 74.5t25.5 99.5t13.5 131t5 132t1 139.5v358q0 131 -92 131q-100 0 -234 -90v-399q0 -88 15.5 -115.5t74.5 -44.5l37 -10v-166h-608z" />
<glyph unicode="&#x14c;" horiz-adv-x="1638" d="M72 684q0 319 215 528t542 209q322 0 534 -196.5t212 -515.5q0 -313 -221 -524.5t-551 -211.5q-307 0 -519 194.5t-212 516.5zM465 692q0 -84 16.5 -166t53 -162.5t110.5 -131t174 -50.5q162 0 262.5 144.5t100.5 378.5q0 240 -93.5 373.5t-257 133.5t-265 -144.5 t-101.5 -375.5zM498 1571v174h645v-174h-645z" />
<glyph unicode="&#x14d;" horiz-adv-x="1269" d="M63 528q0 231 154 375t404 144q264 0 420.5 -145.5t156.5 -393.5q0 -240 -154.5 -383t-412.5 -143q-262 0 -415 147t-153 399zM289 1286v174h645v-174h-645zM436 504q0 -324 197 -324q193 0 192 320q0 338 -192 338q-197 0 -197 -334z" />
<glyph unicode="&#x14e;" horiz-adv-x="1638" d="M72 684q0 319 215 528t542 209q322 0 534 -196.5t212 -515.5q0 -313 -221 -524.5t-551 -211.5q-307 0 -519 194.5t-212 516.5zM424 1765l113 47q123 -111 297 -110q158 0 284 110l119 -47q-47 -115 -160.5 -189.5t-242.5 -74.5q-250 0 -410 264zM465 692q0 -84 16.5 -166 t53 -162.5t110.5 -131t174 -50.5q162 0 262.5 144.5t100.5 378.5q0 240 -93.5 373.5t-257 133.5t-265 -144.5t-101.5 -375.5z" />
<glyph unicode="&#x14f;" horiz-adv-x="1269" d="M63 528q0 231 154 375t404 144q264 0 420.5 -145.5t156.5 -393.5q0 -240 -154.5 -383t-412.5 -143q-262 0 -415 147t-153 399zM248 1493l102 53q113 -125 271 -125q143 0 258 125l108 -53q-43 -127 -146.5 -210t-219.5 -83q-230 0 -373 293zM436 504q0 -324 197 -324 q193 0 192 320q0 338 -192 338q-197 0 -197 -334z" />
<glyph unicode="&#x150;" horiz-adv-x="1638" d="M72 684q0 319 215 528t542 209q322 0 534 -196.5t212 -515.5q0 -313 -221 -524.5t-551 -211.5q-307 0 -519 194.5t-212 516.5zM465 692q0 -84 16.5 -166t53 -162.5t110.5 -131t174 -50.5q162 0 262.5 144.5t100.5 378.5q0 240 -93.5 373.5t-257 133.5t-265 -144.5 t-101.5 -375.5zM621 1577l49 215q18 82 43.5 110.5t81.5 28.5q43 0 72.5 -29.5t29.5 -74.5q0 -59 -57 -117l-170 -164zM932 1577l49 215q18 82 44 110.5t81 28.5q45 0 73.5 -29.5t28.5 -76.5q0 -61 -57 -115l-170 -164z" />
<glyph unicode="&#x151;" horiz-adv-x="1269" d="M63 528q0 231 154 375t404 144q264 0 420.5 -145.5t156.5 -393.5q0 -240 -154.5 -383t-412.5 -143q-262 0 -415 147t-153 399zM412 1210l49 215q18 82 43.5 111t81.5 29q43 0 72.5 -30t29.5 -75q0 -59 -57 -117l-170 -163zM436 504q0 -324 197 -324q193 0 192 320 q0 338 -192 338q-197 0 -197 -334zM723 1210l49 215q18 82 44 111t81 29q45 0 73.5 -30t28.5 -77q0 -61 -57 -115l-170 -163z" />
<glyph unicode="&#x152;" horiz-adv-x="2498" d="M72 704.5q0 305.5 215 511t534 205.5q279 0 449 -139v113h962l201 -408l-152 -74q-119 162 -248.5 229.5t-318.5 67.5q-90 0 -117.5 -24.5t-27.5 -104.5v-247h51q119 0 160 45t53 186h166v-670h-166q-10 152 -50 199t-157 47q-31 0 -57 -2v-303q0 -59 2 -83t17.5 -48.5 t46 -30.5t89.5 -6q307 0 465 194l164 203l144 -67l-228 -498h-999v113q-227 -139 -471 -140q-303 0 -515 213t-212 518.5zM465 709q0 -143 37 -264t123 -202t209 -81q176 0 281.5 149.5t105.5 401.5q0 242 -101.5 386t-269.5 144q-176 0 -280.5 -145t-104.5 -389z" />
<glyph unicode="&#x153;" horiz-adv-x="1925" d="M63 502q0 246 156 395.5t412 149.5q197 0 362 -119q168 119 367 119q207 0 343 -128t136 -323q0 -18 -4 -76h-674v-26q0 -133 68.5 -212t181.5 -79q168 0 277 174l172 -84q-43 -94 -112 -160.5t-145.5 -97.5t-137 -42t-117.5 -11q-203 0 -355 114q-203 -115 -395 -114 q-238 0 -386.5 145.5t-148.5 374.5zM412 510q0 -340 202 -340q94 0 148.5 90t54.5 246t-55 247t-148 91q-96 0 -149 -88t-53 -246zM1182 678h299q-2 84 -41 132t-103 48q-132 0 -155 -180z" />
<glyph unicode="&#x154;" horiz-adv-x="1597" d="M41 0v168l41 4q86 10 112.5 42t26.5 130v707q0 98 -26.5 129.5t-112.5 42.5l-41 4v168h797q137 0 240.5 -16.5t190.5 -57.5t132 -116t45 -183q0 -141 -91 -241.5t-251 -137.5l258 -334q78 -86 121 -113.5t121 -27.5v-168h-476l-442 600h-106v-256q0 -98 26.5 -130 t112.5 -42l41 -4v-168h-719zM551 1577l237 172q102 76 189 76q63 0 110.5 -40t47.5 -95q0 -111 -181 -142l-358 -61zM580 795h145q174 0 238.5 62.5t64.5 143.5q0 66 -26.5 110t-75.5 62.5t-91 24.5t-97.5 6t-90.5 -7t-48 -22.5t-16 -26.5t-3 -34v-319z" />
<glyph unicode="&#x155;" horiz-adv-x="942" d="M45 0v166l59 14q59 14 75 41t16 115v295q0 94 -22.5 127t-90.5 41l-37 4v166l320 59h127v-100q102 72 154 95.5t116 23.5q78 0 131 -54.5t53 -134.5q0 -68 -46 -112t-116 -44q-55 0 -102 32t-74 32q-43 0 -82 -33v-397q0 -88 15.5 -114.5t74.5 -41.5l60 -14v-166h-631z M262 1284l215 193q96 84 172 84q59 0 101.5 -44t42.5 -106q0 -123 -164 -158l-326 -69z" />
<glyph unicode="&#x156;" horiz-adv-x="1597" d="M41 0v168l41 4q86 10 112.5 42t26.5 130v707q0 98 -26.5 129.5t-112.5 42.5l-41 4v168h797q137 0 240.5 -16.5t190.5 -57.5t132 -116t45 -183q0 -141 -91 -241.5t-251 -137.5l258 -334q78 -86 121 -113.5t121 -27.5v-168h-476l-442 600h-106v-256q0 -98 26.5 -130 t112.5 -42l41 -4v-168h-719zM580 795h145q174 0 238.5 62.5t64.5 143.5q0 66 -26.5 110t-75.5 62.5t-91 24.5t-97.5 6t-90.5 -7t-48 -22.5t-16 -26.5t-3 -34v-319zM596 -264q0 70 46 116t114 46q76 0 122 -54.5t46 -140.5q0 -90 -55.5 -178t-151.5 -152l-88 92 q68 59 100 121q-133 25 -133 150z" />
<glyph unicode="&#x157;" horiz-adv-x="942" d="M45 0v166l59 14q59 14 75 41t16 115v295q0 94 -22.5 127t-90.5 41l-37 4v166l320 59h127v-100q102 72 154 95.5t116 23.5q78 0 131 -54.5t53 -134.5q0 -68 -46 -112t-116 -44q-55 0 -102 32t-74 32q-43 0 -82 -33v-397q0 -88 15.5 -114.5t74.5 -41.5l60 -14v-166h-631z M197 -264q0 70 46 116t113 46q76 0 122 -54.5t46 -140.5q0 -90 -55 -178t-152 -152l-88 92q68 59 101 121q-133 25 -133 150z" />
<glyph unicode="&#x158;" horiz-adv-x="1597" d="M41 0v168l41 4q86 10 112.5 42t26.5 130v707q0 98 -26.5 129.5t-112.5 42.5l-41 4v168h797q137 0 240.5 -16.5t190.5 -57.5t132 -116t45 -183q0 -141 -91 -241.5t-251 -137.5l258 -334q78 -86 121 -113.5t121 -27.5v-168h-476l-442 600h-106v-256q0 -98 26.5 -130 t112.5 -42l41 -4v-168h-719zM352 1696l86 125l324 -101l319 101l86 -125l-409 -201zM580 795h145q174 0 238.5 62.5t64.5 143.5q0 66 -26.5 110t-75.5 62.5t-91 24.5t-97.5 6t-90.5 -7t-48 -22.5t-16 -26.5t-3 -34v-319z" />
<glyph unicode="&#x159;" horiz-adv-x="942" d="M45 0v166l59 14q59 14 75 41t16 115v295q0 94 -22.5 127t-90.5 41l-37 4v166l320 59h127v-100q102 72 154 95.5t116 23.5q78 0 131 -54.5t53 -134.5q0 -68 -46 -112t-116 -44q-55 0 -102 32t-74 32q-43 0 -82 -33v-397q0 -88 15.5 -114.5t74.5 -41.5l60 -14v-166h-631z M119 1417l78 135l295 -108l290 108l78 -135l-368 -225z" />
<glyph unicode="&#x15a;" horiz-adv-x="1351" d="M43 500l154 51q207 -379 536 -379q113 0 185.5 51t72.5 131q0 57 -41 87t-155 59l-203 51q-61 18 -129 30.5t-135.5 43t-122.5 70.5t-89 112t-34 168q0 195 148.5 320.5t379.5 125.5q190 0 328 -92l25 66h122l136 -416l-148 -55q-119 164 -213 231.5t-235 67.5 q-98 0 -162 -40t-64 -104q0 -39 33 -70.5t85 -51t90 -28.5t73 -16l186 -39l98 -20q38 -8 111.5 -40t117.5 -70.5t80 -112.5t36 -166q0 -213 -165 -352.5t-415 -139.5q-225 0 -367 105l-28 -101h-121zM461 1577l237 172q102 76 189 76q63 0 110 -40t47 -95q0 -111 -180 -142 l-358 -61z" />
<glyph unicode="&#x15b;" horiz-adv-x="1064" d="M45 338l158 33q76 -84 92 -99q92 -82 227 -82q76 0 127 26t51 60q0 72 -180 95l-131 16q-160 20 -244 98t-84 205q0 156 118 256.5t300 100.5q121 0 262 -68l25 49h129l39 -303l-168 -25q-115 158 -266 158q-61 0 -101.5 -22.5t-40.5 -57.5q0 -63 160 -92l154 -29 q55 -10 81.5 -16t84 -29.5t88 -52.5t56.5 -84t26 -125q0 -156 -131.5 -262t-321.5 -106q-131 0 -268 61l-25 -51h-135zM289 1284l215 193q96 84 172 84q59 0 101 -44t42 -106q0 -123 -164 -158l-325 -69z" />
<glyph unicode="&#x15c;" horiz-adv-x="1351" d="M43 500l154 51q207 -379 536 -379q113 0 185.5 51t72.5 131q0 57 -41 87t-155 59l-203 51q-61 18 -129 30.5t-135.5 43t-122.5 70.5t-89 112t-34 168q0 195 148.5 320.5t379.5 125.5q190 0 328 -92l25 66h122l136 -416l-148 -55q-119 164 -213 231.5t-235 67.5 q-98 0 -162 -40t-64 -104q0 -39 33 -70.5t85 -51t90 -28.5t73 -16l186 -39l98 -20q38 -8 111.5 -40t117.5 -70.5t80 -112.5t36 -166q0 -213 -165 -352.5t-415 -139.5q-225 0 -367 105l-28 -101h-121zM262 1620l410 201l405 -201l-86 -125l-323 100l-320 -100z" />
<glyph unicode="&#x15d;" horiz-adv-x="1064" d="M45 338l158 33q76 -84 92 -99q92 -82 227 -82q76 0 127 26t51 60q0 72 -180 95l-131 16q-160 20 -244 98t-84 205q0 156 118 256.5t300 100.5q121 0 262 -68l25 49h129l39 -303l-168 -25q-115 158 -266 158q-61 0 -101.5 -22.5t-40.5 -57.5q0 -63 160 -92l154 -29 q55 -10 81.5 -16t84 -29.5t88 -52.5t56.5 -84t26 -125q0 -156 -131.5 -262t-321.5 -106q-131 0 -268 61l-25 -51h-135zM147 1329l373 223l369 -223l-78 -137l-291 111l-295 -111z" />
<glyph unicode="&#x15e;" horiz-adv-x="1351" d="M43 500l154 51q207 -379 536 -379q113 0 185.5 51t72.5 131q0 57 -41 87t-155 59l-203 51q-61 18 -129 30.5t-135.5 43t-122.5 70.5t-89 112t-34 168q0 195 148.5 320.5t379.5 125.5q190 0 328 -92l25 66h122l136 -416l-148 -55q-119 164 -213 231.5t-235 67.5 q-98 0 -162 -40t-64 -104q0 -39 33 -70.5t85 -51t90 -28.5t73 -16l186 -39l98 -20q38 -8 111.5 -40t117.5 -70.5t80 -112.5t36 -166q0 -197 -143.5 -333t-368.5 -157v-65h73q70 0 117 -44t47 -110q0 -86 -88 -152.5t-194 -66.5q-88 0 -145.5 35t-57.5 88q0 33 19.5 51.5 t49.5 18.5q29 0 64 -25q43 -35 76 -35q27 0 45 24.5t18 67.5q0 84 -125 84q-41 0 -67 -4l16 135q-180 23 -283 101l-28 -101h-121z" />
<glyph unicode="&#x15f;" horiz-adv-x="1064" d="M45 338l158 33q76 -84 92 -99q92 -82 227 -82q76 0 127 26t51 60q0 72 -180 95l-131 16q-160 20 -244 98t-84 205q0 156 118 256.5t300 100.5q121 0 262 -68l25 49h129l39 -303l-168 -25q-115 158 -266 158q-61 0 -101.5 -22.5t-40.5 -57.5q0 -63 160 -92l154 -29 q55 -10 81.5 -16t84 -29.5t88 -52.5t56.5 -84t26 -125q0 -141 -113 -245.5t-283 -120.5v-74h74q70 0 117 -44t47 -110q0 -86 -88 -152.5t-195 -66.5q-88 0 -145 35t-57 88q0 33 19 51.5t50 18.5q29 0 64 -25q43 -35 75 -35q27 0 45.5 24.5t18.5 67.5q0 84 -125 84 q-41 0 -68 -4l17 146q-78 12 -174 55l-25 -51h-135z" />
<glyph unicode="&#x160;" horiz-adv-x="1351" d="M43 500l154 51q207 -379 536 -379q113 0 185.5 51t72.5 131q0 57 -41 87t-155 59l-203 51q-61 18 -129 30.5t-135.5 43t-122.5 70.5t-89 112t-34 168q0 195 148.5 320.5t379.5 125.5q190 0 328 -92l25 66h122l136 -416l-148 -55q-119 164 -213 231.5t-235 67.5 q-98 0 -162 -40t-64 -104q0 -39 33 -70.5t85 -51t90 -28.5t73 -16l186 -39l98 -20q38 -8 111.5 -40t117.5 -70.5t80 -112.5t36 -166q0 -213 -165 -352.5t-415 -139.5q-225 0 -367 105l-28 -101h-121zM262 1696l86 125l324 -101l319 101l86 -125l-409 -201z" />
<glyph unicode="&#x161;" horiz-adv-x="1064" d="M45 338l158 33q76 -84 92 -99q92 -82 227 -82q76 0 127 26t51 60q0 72 -180 95l-131 16q-160 20 -244 98t-84 205q0 156 118 256.5t300 100.5q121 0 262 -68l25 49h129l39 -303l-168 -25q-115 158 -266 158q-61 0 -101.5 -22.5t-40.5 -57.5q0 -63 160 -92l154 -29 q55 -10 81.5 -16t84 -29.5t88 -52.5t56.5 -84t26 -125q0 -156 -131.5 -262t-321.5 -106q-131 0 -268 61l-25 -51h-135zM145 1417l78 135l295 -108l291 108l78 -135l-369 -225z" />
<glyph unicode="&#x162;" horiz-adv-x="1433" d="M-8 971l153 424h1129l166 -424l-150 -60q-47 78 -86 131.5t-115.5 109.5t-156.5 56q-29 0 -35 -11t-6 -60v-793q0 -35 1 -53.5t8 -44t21.5 -38.5t42 -23.5t66.5 -12.5l62 -4v-168h-316v-90h74q70 0 117 -44t47 -110q0 -86 -88 -152.5t-195 -66.5q-88 0 -145.5 35 t-57.5 88q0 33 19.5 51.5t50.5 18.5q29 0 64 -25q43 -35 75 -35q27 0 45.5 24.5t18.5 67.5q0 84 -125 84q-41 0 -68 -4l19 158h-295v168l61 4q49 2 80 15.5t43 42t14 50t2 64.5v786q0 53 -6 65.5t-28 12.5q-102 0 -200.5 -83t-152.5 -214z" />
<glyph unicode="&#x163;" horiz-adv-x="942" d="M45 844v162q264 37 295 348h192v-326h281v-174h-281v-496q0 -80 16.5 -109.5t57.5 -29.5q39 0 77 23.5t105 89.5l123 -146q-147 -180 -360 -200v-76h74q70 0 116.5 -44t46.5 -110q0 -86 -88 -152.5t-194 -66.5q-88 0 -145.5 35t-57.5 88q0 33 19.5 51.5t50.5 18.5 q29 0 63 -25q43 -35 76 -35q27 0 45 24.5t18 67.5q0 84 -124 84q-41 0 -68 -4l16 146q-70 12 -113.5 46t-60 91t-20.5 95t-4 106v518h-156z" />
<glyph unicode="&#x164;" horiz-adv-x="1433" d="M-8 971l153 424h1129l166 -424l-150 -60q-47 78 -86 131.5t-115.5 109.5t-156.5 56q-29 0 -35 -11t-6 -60v-793q0 -35 1 -53.5t8 -44t21.5 -38.5t42 -23.5t66.5 -12.5l62 -4v-168h-760v168l61 4q49 2 80 15.5t43 42t14 50t2 64.5v786q0 53 -6 65.5t-28 12.5 q-102 0 -200.5 -83t-152.5 -214zM305 1696l86 125l324 -101l319 101l86 -125l-409 -201z" />
<glyph unicode="&#x165;" horiz-adv-x="942" d="M45 844v162q264 37 295 348h192v-326h281v-174h-281v-496q0 -80 16.5 -109.5t57.5 -29.5q39 0 77 23.5t105 89.5l123 -146q-90 -109 -192.5 -156.5t-239.5 -47.5q-80 0 -135 23.5t-83 54t-42 86t-16 88t-2 92.5v518h-156zM573 1432q0 70 46.5 115.5t113.5 45.5 q76 0 122 -54t46 -140q0 -90 -55 -178t-152 -152l-88 92q68 59 101 121q-134 25 -134 150z" />
<glyph unicode="&#x168;" horiz-adv-x="1515" d="M31 1227v168h719v-168l-41 -4q-86 -10 -113 -42t-27 -130v-541q0 -154 56.5 -238t201.5 -84q94 0 154.5 31t84.5 87t30 97t6 101v547q0 98 -26.5 129.5t-112.5 42.5l-41 4v168h561v-168l-41 -4q-86 -10 -112.5 -42t-26.5 -130v-537q0 -92 -9.5 -160.5t-42 -144.5 t-89 -124t-159 -80t-243.5 -32q-113 0 -203 21.5t-146.5 52.5t-97.5 80t-59 89t-29.5 97.5t-12.5 85t-1 72.5v580q0 98 -26.5 129.5t-112.5 42.5zM446 1595q33 92 102.5 146.5t156.5 54.5q59 0 149 -29.5t127 -29.5q55 0 84 49l102 -51q-33 -113 -92 -164t-160 -51 q-66 0 -156.5 30.5t-127.5 30.5q-43 0 -78 -49z" />
<glyph unicode="&#x169;" horiz-adv-x="1351" d="M45 803v166l354 59h127v-676q0 -88 20.5 -117.5t82.5 -29.5q92 0 223 78v348q0 94 -22.5 127t-90.5 41l-37 4v166l355 59h127v-692q0 -88 15 -114.5t75 -41.5l63 -14v-166h-450v80q-102 -59 -180 -83t-179 -24q-94 0 -161.5 29t-100.5 65.5t-50 97t-19 94.5t-2 87v285 q0 94 -22.5 127t-90.5 41zM340 1311q33 92 102.5 146t155.5 54q59 0 149.5 -29.5t126.5 -29.5q55 0 84 49l103 -51q-33 -113 -92.5 -164t-159.5 -51q-66 0 -157 30.5t-128 30.5q-43 0 -78 -49z" />
<glyph unicode="&#x16a;" horiz-adv-x="1515" d="M31 1227v168h719v-168l-41 -4q-86 -10 -113 -42t-27 -130v-541q0 -154 56.5 -238t201.5 -84q94 0 154.5 31t84.5 87t30 97t6 101v547q0 98 -26.5 129.5t-112.5 42.5l-41 4v168h561v-168l-41 -4q-86 -10 -112.5 -42t-26.5 -130v-537q0 -92 -9.5 -160.5t-42 -144.5 t-89 -124t-159 -80t-243.5 -32q-113 0 -203 21.5t-146.5 52.5t-97.5 80t-59 89t-29.5 97.5t-12.5 85t-1 72.5v580q0 98 -26.5 129.5t-112.5 42.5zM465 1571v174h645v-174h-645z" />
<glyph unicode="&#x16b;" horiz-adv-x="1351" d="M45 803v166l354 59h127v-676q0 -88 20.5 -117.5t82.5 -29.5q92 0 223 78v348q0 94 -22.5 127t-90.5 41l-37 4v166l355 59h127v-692q0 -88 15 -114.5t75 -41.5l63 -14v-166h-450v80q-102 -59 -180 -83t-179 -24q-94 0 -161.5 29t-100.5 65.5t-50 97t-19 94.5t-2 87v285 q0 94 -22.5 127t-90.5 41zM358 1286v174h646v-174h-646z" />
<glyph unicode="&#x16c;" horiz-adv-x="1515" d="M31 1227v168h719v-168l-41 -4q-86 -10 -113 -42t-27 -130v-541q0 -154 56.5 -238t201.5 -84q94 0 154.5 31t84.5 87t30 97t6 101v547q0 98 -26.5 129.5t-112.5 42.5l-41 4v168h561v-168l-41 -4q-86 -10 -112.5 -42t-26.5 -130v-537q0 -92 -9.5 -160.5t-42 -144.5 t-89 -124t-159 -80t-243.5 -32q-113 0 -203 21.5t-146.5 52.5t-97.5 80t-59 89t-29.5 97.5t-12.5 85t-1 72.5v580q0 98 -26.5 129.5t-112.5 42.5zM391 1765l113 47q123 -111 297 -110q158 0 284 110l119 -47q-47 -115 -160.5 -189.5t-242.5 -74.5q-250 0 -410 264z" />
<glyph unicode="&#x16d;" horiz-adv-x="1351" d="M45 803v166l354 59h127v-676q0 -88 20.5 -117.5t82.5 -29.5q92 0 223 78v348q0 94 -22.5 127t-90.5 41l-37 4v166l355 59h127v-692q0 -88 15 -114.5t75 -41.5l63 -14v-166h-450v80q-102 -59 -180 -83t-179 -24q-94 0 -161.5 29t-100.5 65.5t-50 97t-19 94.5t-2 87v285 q0 94 -22.5 127t-90.5 41zM317 1493l103 53q113 -125 270 -125q143 0 258 125l109 -53q-43 -127 -146.5 -210t-220.5 -83q-230 0 -373 293z" />
<glyph unicode="&#x16e;" horiz-adv-x="1515" d="M31 1227v168h719v-168l-41 -4q-86 -10 -113 -42t-27 -130v-541q0 -154 56.5 -238t201.5 -84q94 0 154.5 31t84.5 87t30 97t6 101v547q0 98 -26.5 129.5t-112.5 42.5l-41 4v168h561v-168l-41 -4q-86 -10 -112.5 -42t-26.5 -130v-537q0 -92 -9.5 -160.5t-42 -144.5 t-89 -124t-159 -80t-243.5 -32q-113 0 -203 21.5t-146.5 52.5t-97.5 80t-59 89t-29.5 97.5t-12.5 85t-1 72.5v580q0 98 -26.5 129.5t-112.5 42.5zM588 1683q0 86 62.5 147.5t148.5 61.5q90 0 151.5 -61.5t61.5 -151.5q0 -84 -62.5 -144t-148.5 -60q-88 0 -150.5 61 t-62.5 147zM727 1686q0 -33 21.5 -55.5t50.5 -22.5q31 0 52 22.5t21 53t-21.5 53t-51.5 22.5q-29 0 -50.5 -21t-21.5 -52z" />
<glyph unicode="&#x16f;" horiz-adv-x="1351" d="M45 803v166l354 59h127v-676q0 -88 20.5 -117.5t82.5 -29.5q92 0 223 78v348q0 94 -22.5 127t-90.5 41l-37 4v166l355 59h127v-692q0 -88 15 -114.5t75 -41.5l63 -14v-166h-450v80q-102 -59 -180 -83t-179 -24q-94 0 -161.5 29t-100.5 65.5t-50 97t-19 94.5t-2 87v285 q0 94 -22.5 127t-90.5 41zM481 1372q0 86 62.5 147.5t148.5 61.5q90 0 151.5 -61.5t61.5 -151.5q0 -84 -62.5 -144.5t-148.5 -60.5q-88 0 -150.5 61.5t-62.5 147.5zM621 1374q0 -33 21.5 -55.5t49.5 -22.5q31 0 52.5 22.5t21.5 53.5t-21.5 53.5t-52.5 22.5q-29 0 -50 -21.5 t-21 -52.5z" />
<glyph unicode="&#x170;" horiz-adv-x="1515" d="M31 1227v168h719v-168l-41 -4q-86 -10 -113 -42t-27 -130v-541q0 -154 56.5 -238t201.5 -84q94 0 154.5 31t84.5 87t30 97t6 101v547q0 98 -26.5 129.5t-112.5 42.5l-41 4v168h561v-168l-41 -4q-86 -10 -112.5 -42t-26.5 -130v-537q0 -92 -9.5 -160.5t-42 -144.5 t-89 -124t-159 -80t-243.5 -32q-113 0 -203 21.5t-146.5 52.5t-97.5 80t-59 89t-29.5 97.5t-12.5 85t-1 72.5v580q0 98 -26.5 129.5t-112.5 42.5zM588 1577l49 215q18 82 44 110.5t81 28.5q43 0 72.5 -29.5t29.5 -74.5q0 -59 -57 -117l-170 -164zM899 1577l49 215 q18 82 44 110.5t81 28.5q45 0 74 -29.5t29 -76.5q0 -61 -58 -115l-170 -164z" />
<glyph unicode="&#x171;" horiz-adv-x="1351" d="M45 803v166l354 59h127v-676q0 -88 20.5 -117.5t82.5 -29.5q92 0 223 78v348q0 94 -22.5 127t-90.5 41l-37 4v166l355 59h127v-692q0 -88 15 -114.5t75 -41.5l63 -14v-166h-450v80q-102 -59 -180 -83t-179 -24q-94 0 -161.5 29t-100.5 65.5t-50 97t-19 94.5t-2 87v285 q0 94 -22.5 127t-90.5 41zM481 1210l49 215q18 82 44 111t81 29q43 0 73 -30t30 -75q0 -59 -58 -117l-170 -163zM793 1210l49 215q18 82 43.5 111t81.5 29q45 0 73.5 -30t28.5 -77q0 -61 -57 -115l-170 -163z" />
<glyph unicode="&#x172;" horiz-adv-x="1515" d="M31 1227v168h719v-168l-41 -4q-86 -10 -113 -42t-27 -130v-541q0 -154 56.5 -238t201.5 -84q94 0 154.5 31t84.5 87t30 97t6 101v547q0 98 -26.5 129.5t-112.5 42.5l-41 4v168h561v-168l-41 -4q-86 -10 -112.5 -42t-26.5 -130v-537q0 -86 -9.5 -151.5t-34 -136t-77 -123 t-131.5 -83.5q-74 -29 -122 -84t-48 -122q0 -51 34.5 -82t83.5 -31q68 0 152 84l78 -72q-47 -84 -129 -134t-178 -50q-131 0 -219.5 52t-88.5 159q0 133 138 233q-111 0 -200 22.5t-144.5 52.5t-95.5 80t-59.5 89t-29.5 96.5t-11 85t-1 72.5v580q0 98 -26.5 129.5 t-112.5 42.5z" />
<glyph unicode="&#x173;" horiz-adv-x="1351" d="M45 803v166l354 59h127v-676q0 -88 20.5 -117.5t82.5 -29.5q92 0 223 78v348q0 94 -22.5 127t-90.5 41l-37 4v166l355 59h127v-692q0 -88 15 -114.5t75 -41.5l63 -14v-166h-135q-86 0 -149.5 -53t-63.5 -133q0 -51 35 -82t84 -31q68 0 152 84l77 -72q-47 -84 -129 -134 t-178 -50q-131 0 -219 52t-88 159q0 94 65 170q45 51 99 90v80q-102 -59 -180 -83t-179 -24q-94 0 -161.5 29t-100.5 65.5t-50 97t-19 94.5t-2 87v285q0 94 -22.5 127t-90.5 41z" />
<glyph unicode="&#x174;" horiz-adv-x="1925" d="M-41 1227v168h616v-168q-86 -6 -86 -62q0 -23 11 -59l178 -670l160 492l-68 186q-25 66 -50.5 88.5t-80.5 24.5v168h639v-168l-49 -6q-51 -6 -71.5 -20.5t-20.5 -45.5q0 -25 8 -55l188 -678l199 672q2 10 2 30q0 98 -152 99l-26 4v168h616v-168l-33 -4 q-102 -14 -141 -54.5t-86 -185.5l-319 -983h-269l-190 637l-203 -637h-264l-336 1059q-29 94 -64.5 130t-107.5 38zM526 1620l410 201l405 -201l-86 -125l-323 100l-320 -100z" />
<glyph unicode="&#x175;" horiz-adv-x="1638" d="M-12 862v166h551v-166l-27 -4q-82 -12 -82 -78q0 -16 6 -35l150 -383l116 371l-8 23q-23 59 -34 72.5t-52 27.5l-22 6v166h536v-166l-30 -4q-82 -10 -82 -72q0 -18 8 -41l123 -358l135 358q6 18 6 33q0 55 -88 78l-25 6v166h490v-166l-23 -4q-55 -10 -91 -47t-66 -119 l-265 -692h-247l-152 440l-153 -440h-238l-277 682q-37 92 -58 119.5t-79 52.5zM444 1329l373 223l369 -223l-78 -137l-291 111l-295 -111z" />
<glyph unicode="&#x176;" horiz-adv-x="1433" d="M-41 1227v168h778v-168q-160 -2 -159 -45q0 -20 32 -78l168 -305l160 264q57 94 57 119q0 43 -151 45v168h626v-168q-106 -6 -175.5 -54.5t-149.5 -173.5l-264 -409v-246q0 -90 23.5 -128t115.5 -44l57 -4v-168h-751v168l57 4q92 6 115.5 45t23.5 127v221l-286 449 q-74 117 -129.5 161t-147.5 52zM295 1620l410 201l405 -201l-86 -125l-324 100l-319 -100z" />
<glyph unicode="&#x177;" horiz-adv-x="1269" d="M12 860v168h637v-168h-22q-113 0 -113 -51q0 -8 8 -41l152 -385l145 381q8 16 8 35q0 61 -94 61h-24v168h546v-168l-24 -4q-80 -20 -120 -57t-85 -135l-352 -760q-29 -61 -48.5 -98t-58.5 -92.5t-77.5 -87.5t-100 -55.5t-133.5 -23.5q-98 0 -159.5 50.5t-61.5 130.5 q0 72 46 120t115.5 48t135.5 -60q16 -16 28 -16q18 0 62.5 60.5t77.5 129.5l-310 699q-39 86 -63.5 112.5t-81.5 34.5zM309 1329l373 223l369 -223l-78 -137l-291 111l-295 -111z" />
<glyph unicode="&#x178;" horiz-adv-x="1433" d="M-41 1227v168h778v-168q-160 -2 -159 -45q0 -20 32 -78l168 -305l160 264q57 94 57 119q0 43 -151 45v168h626v-168q-106 -6 -175.5 -54.5t-149.5 -173.5l-264 -409v-246q0 -90 23.5 -128t115.5 -44l57 -4v-168h-751v168l57 4q92 6 115.5 45t23.5 127v221l-286 449 q-74 117 -129.5 161t-147.5 52zM330 1659q0 61 40 101t101 40q57 0 100 -44t43 -103q0 -55 -42 -96t-99 -41q-59 0 -101 42t-42 101zM809 1659q0 61 40 101t101 40q57 0 100.5 -44t43.5 -103q0 -55 -42 -96t-100 -41q-59 0 -101 42t-42 101z" />
<glyph unicode="&#x179;" horiz-adv-x="1310" d="M12 133l781 1075q-90 8 -123 9q-348 0 -516 -328l-142 59l203 447h989l35 -131l-774 -1071q86 -14 145 -15q248 0 391 127q94 80 148 223l151 -49l-182 -479h-1073zM502 1577l237 172q102 76 189 76q63 0 110 -40t47 -95q0 -111 -180 -142l-358 -61z" />
<glyph unicode="&#x17a;" horiz-adv-x="1146" d="M45 166l588 674q-33 2 -62 2q-150 0 -237 -88q-37 -37 -88 -121l-164 57l123 338h811l65 -151l-587 -682q29 -4 61 -5q150 0 243 56.5t165 189.5l157 -55l-129 -381h-895zM381 1284l215 193q96 84 172 84q59 0 101 -44t42 -106q0 -123 -163 -158l-326 -69z" />
<glyph unicode="&#x17b;" horiz-adv-x="1310" d="M12 133l781 1075q-90 8 -123 9q-348 0 -516 -328l-142 59l203 447h989l35 -131l-774 -1071q86 -14 145 -15q248 0 391 127q94 80 148 223l151 -49l-182 -479h-1073zM522 1659q0 84 55.5 139t139.5 55q78 0 137 -60t59 -142q0 -76 -57 -132.5t-135 -56.5 q-82 0 -140.5 57.5t-58.5 139.5z" />
<glyph unicode="&#x17c;" horiz-adv-x="1146" d="M45 166l588 674q-33 2 -62 2q-150 0 -237 -88q-37 -37 -88 -121l-164 57l123 338h811l65 -151l-587 -682q29 -4 61 -5q150 0 243 56.5t165 189.5l157 -55l-129 -381h-895zM422 1374q0 84 55 139.5t139 55.5q78 0 137.5 -60.5t59.5 -142.5q0 -76 -57.5 -132t-134.5 -56 q-82 0 -140.5 57t-58.5 139z" />
<glyph unicode="&#x17d;" horiz-adv-x="1310" d="M12 133l781 1075q-90 8 -123 9q-348 0 -516 -328l-142 59l203 447h989l35 -131l-774 -1071q86 -14 145 -15q248 0 391 127q94 80 148 223l151 -49l-182 -479h-1073zM303 1696l86 125l324 -101l319 101l86 -125l-409 -201z" />
<glyph unicode="&#x17e;" horiz-adv-x="1146" d="M45 166l588 674q-33 2 -62 2q-150 0 -237 -88q-37 -37 -88 -121l-164 57l123 338h811l65 -151l-587 -682q29 -4 61 -5q150 0 243 56.5t165 189.5l157 -55l-129 -381h-895zM238 1417l77 135l295 -108l291 108l78 -135l-369 -225z" />
<glyph unicode="&#x17f;" horiz-adv-x="778" d="M45 854v174h154v94q0 168 132 276.5t339 108.5q129 0 201.5 -44t72.5 -124q0 -59 -48 -101t-118 -42q-41 0 -66.5 16.5t-58.5 63.5q-16 23 -47 22q-76 0 -76 -120v-840q0 -88 17.5 -114.5t85.5 -41.5l67 -14v-168h-651v168l60 14q59 14 74.5 41t15.5 115v516h-154z" />
<glyph unicode="&#x18e;" horiz-adv-x="1474" d="M41 483l143 68q133 -193 273.5 -280t316.5 -87q123 0 146.5 35t23.5 197v241h-57q-100 0 -146.5 -41t-64.5 -184h-160v637h160q2 -82 12 -127t40 -66.5t60.5 -25.5t96.5 -4h59v174q0 53 -2 75.5t-12 51.5t-33 39t-63.5 17t-106.5 7q-276 0 -489 -307l-140 70l203 422 h1182v-168l-41 -4q-86 -10 -112.5 -42t-26.5 -130v-707q0 -98 26.5 -130t112.5 -42l41 -4v-168h-1217z" />
<glyph unicode="&#x192;" horiz-adv-x="1351" d="M-94 -262q0 61 55 109.5t127 48.5q70 0 115 -62q23 -33 36 -42t35 -9q59 0 86 69.5t76 350.5l113 635h-227l22 129h227l27 149q16 94 57 169t97.5 118t113 71.5t119 40t98 15.5t68.5 4q229 0 229 -145q0 -63 -56 -113.5t-126 -50.5q-41 0 -63.5 16t-47.5 62 q-10 23 -43 22q-39 0 -60 -26.5t-34 -90.5l-43 -241h318l-23 -129h-317l-101 -572q-16 -94 -26 -144t-35 -134t-51.5 -131t-73.5 -106.5t-104.5 -90.5t-142.5 -53.5t-187 -22.5q-121 0 -189.5 41t-68.5 113z" />
<glyph unicode="&#x1a0;" horiz-adv-x="1638" d="M72 684q0 319 215 528t542 209q221 0 400 -100q113 33 131 74q-57 10 -98 51t-41 94q0 68 52 113t113 45q84 0 132.5 -59.5t48.5 -129.5q0 -186 -215 -276q223 -197 223 -524q0 -313 -221 -524.5t-551 -211.5q-260 0 -459 148q-272 205 -272 563zM465 692 q0 -240 100 -383q41 -59 109.5 -93t144.5 -34q162 0 262.5 144.5t100.5 378.5q0 240 -93.5 373.5t-257 133.5t-265 -144.5t-101.5 -375.5z" />
<glyph unicode="&#x1a1;" horiz-adv-x="1306" d="M63 528q0 231 154 375t404 144q207 0 352 -95q117 37 133 76q-57 10 -98 51t-41 95q0 68 52 112.5t114 44.5q84 0 132 -59.5t48 -128.5q0 -193 -234 -285q119 -141 119 -350q0 -240 -154.5 -383t-412.5 -143q-262 0 -415 147t-153 399zM436 504q0 -324 197 -324 q193 0 192 320q0 338 -192 338q-197 0 -197 -334z" />
<glyph unicode="&#x1af;" horiz-adv-x="1671" d="M31 1227v168h719v-168l-41 -4q-86 -10 -113 -42t-27 -130v-541q0 -94 13.5 -145.5t48.5 -94.5q68 -82 196 -82q117 0 191 58q45 37 64.5 95t19.5 163v547q0 98 -26.5 129.5t-112.5 42.5l-41 4v168h381v-84q141 37 161 84q-57 10 -98 51t-41 94q0 68 52.5 113t113.5 45 q84 0 132 -59.5t48 -129.5q0 -137 -109.5 -216t-258.5 -103v-676q0 -174 -27 -260t-98 -152q-68 -59 -179.5 -94t-238.5 -35q-133 0 -252 40t-191 108q-61 59 -83.5 134t-22.5 216v580q0 98 -26.5 129.5t-112.5 42.5z" />
<glyph unicode="&#x1b0;" horiz-adv-x="1505" d="M45 803v166l354 59h127v-676q0 -88 20.5 -117.5t82.5 -29.5q92 0 223 78v348q0 94 -22.5 127t-90.5 41l-37 4v166l355 59h127v-82q133 35 155 82q-57 10 -98 51t-41 95q0 68 52.5 112.5t113.5 44.5q84 0 132 -59.5t48 -128.5q0 -135 -107.5 -215t-254.5 -105v-487 q0 -88 15 -114.5t75 -41.5l63 -14v-166h-450v80q-102 -59 -180 -83t-179 -24q-147 0 -239 76q-53 47 -73.5 110.5t-20.5 186.5v285q0 94 -22.5 127t-90.5 41z" />
<glyph unicode="&#x1dd;" d="M63 735q41 66 73 107t92.5 95t145.5 82t191 28q242 0 399.5 -152t157.5 -385q0 -231 -151.5 -379.5t-386.5 -148.5q-147 0 -265 60t-178 167q-53 96 -53 299h664q0 154 -63.5 235.5t-184.5 81.5q-152 0 -268 -174zM451 350q2 -96 33.5 -138t101 -42t109.5 47t44 133h-288 z" />
<glyph unicode="&#x1e6;" horiz-adv-x="1597" d="M72 696q0 317 194.5 521t497.5 204q90 0 191.5 -24.5t164.5 -61.5l31 60h131l125 -469l-147 -52q-80 143 -142 205q-139 143 -315 144q-152 0 -245 -151.5t-93 -401.5q0 -219 99.5 -358.5t254.5 -139.5q111 0 195 73.5t84 170.5q0 131 -180 133v168h665v-168l-56.5 -8 t-40 -9.5t-32.5 -16.5t-17.5 -28.5t-13.5 -46t-2 -67.5v-391h-223l-47 118q-184 -127 -422 -127q-301 0 -479 207t-178 516zM356 1696l86 125l324 -101l319 101l86 -125l-409 -201z" />
<glyph unicode="&#x1e7;" d="M18 -231q0 121 140 184q-102 76 -103 178q0 92 53.5 159.5t143.5 88.5q-141 106 -141 283q0 170 129 281.5t325 111.5q70 0 178 -25q2 10 29 40t58.5 61.5t88 57t115.5 25.5q68 0 114 -39.5t46 -99.5q0 -47 -37 -82t-88 -35q-18 0 -54 12.5t-59 12.5q-37 0 -63 -25 q160 -123 160 -299q0 -170 -127 -278.5t-328 -108.5q-35 0 -109.5 11.5t-91.5 11.5q-45 0 -45 -45q0 -35 32 -48.5t134 -23.5l324 -28q317 -29 317 -273q0 -51 -13 -99t-53 -102.5t-104.5 -93.5t-177.5 -64.5t-260 -25.5q-98 0 -185 12.5t-169 42t-130.5 86t-48.5 136.5z M193 1417l77 135l295 -108l291 108l78 -135l-369 -225zM250 -221q0 -51 84 -85t211 -34q297 0 297 98q0 37 -34 54.5t-128 27.5l-363 39q-67 -41 -67 -100zM442 645q0 -205 139.5 -205t139.5 201q0 119 -33 172t-106 53q-72 0 -106 -53t-34 -168z" />
<glyph unicode="&#x1ea;" horiz-adv-x="1638" d="M72 684q0 319 215 528t542 209q322 0 534 -196.5t212 -515.5q0 -231 -127 -413.5t-340 -266.5q-72 -27 -119 -85.5t-47 -129.5q0 -51 35 -82t84 -31q68 0 151 84l78 -72q-47 -84 -129 -134t-178 -50q-131 0 -219 52t-88 159q0 133 137 233h-10q-307 0 -519 194.5 t-212 516.5zM465 692q0 -84 16.5 -166t53 -162.5t110.5 -131t174 -50.5q162 0 262.5 144.5t100.5 378.5q0 240 -93.5 373.5t-257 133.5t-265 -144.5t-101.5 -375.5z" />
<glyph unicode="&#x1eb;" horiz-adv-x="1269" d="M63 528q0 231 154 375t404 144q264 0 420.5 -145.5t156.5 -393.5q0 -178 -88 -306t-246 -184q-74 -27 -121 -81t-47 -123q0 -51 35 -82t84 -31q68 0 152 84l77 -72q-47 -84 -128.5 -134t-178.5 -50q-131 0 -219 52t-88 159q0 139 150 244q-240 14 -378.5 159t-138.5 385z M436 504q0 -324 197 -324q193 0 192 320q0 338 -192 338q-197 0 -197 -334z" />
<glyph unicode="&#x1f4;" horiz-adv-x="1597" d="M72 696q0 317 194.5 521t497.5 204q90 0 191.5 -24.5t164.5 -61.5l31 60h131l125 -469l-147 -52q-80 143 -142 205q-139 143 -315 144q-152 0 -245 -151.5t-93 -401.5q0 -219 99.5 -358.5t254.5 -139.5q111 0 195 73.5t84 170.5q0 131 -180 133v168h665v-168l-56.5 -8 t-40 -9.5t-32.5 -16.5t-17.5 -28.5t-13.5 -46t-2 -67.5v-391h-223l-47 118q-184 -127 -422 -127q-301 0 -479 207t-178 516zM555 1577l238 172q102 76 188 76q63 0 110.5 -40t47.5 -95q0 -111 -181 -142l-358 -61z" />
<glyph unicode="&#x1f5;" d="M18 -231q0 121 140 184q-102 76 -103 178q0 92 53.5 159.5t143.5 88.5q-141 106 -141 283q0 170 129 281.5t325 111.5q70 0 178 -25q2 10 29 40t58.5 61.5t88 57t115.5 25.5q68 0 114 -39.5t46 -99.5q0 -47 -37 -82t-88 -35q-18 0 -54 12.5t-59 12.5q-37 0 -63 -25 q160 -123 160 -299q0 -170 -127 -278.5t-328 -108.5q-35 0 -109.5 11.5t-91.5 11.5q-45 0 -45 -45q0 -35 32 -48.5t134 -23.5l324 -28q317 -29 317 -273q0 -51 -13 -99t-53 -102.5t-104.5 -93.5t-177.5 -64.5t-260 -25.5q-98 0 -185 12.5t-169 42t-130.5 86t-48.5 136.5z M250 -221q0 -51 84 -85t211 -34q297 0 297 98q0 37 -34 54.5t-128 27.5l-363 39q-67 -41 -67 -100zM336 1284l215 193q96 84 172 84q59 0 101 -44t42 -106q0 -123 -164 -158l-325 -69zM442 645q0 -205 139.5 -205t139.5 201q0 119 -33 172t-106 53q-72 0 -106 -53t-34 -168z " />
<glyph unicode="&#x1fa;" horiz-adv-x="1474" d="M-70 0v168l33 4q86 10 133 59.5t107 190.5l405 973h318l401 -1000q63 -133 95 -171t108 -52l33 -4v-168h-748v168l51 4q66 4 92.5 19.5t26.5 46.5q-2 31 -20 84l-62 174h-440l-66 -177q-18 -47 -18 -61q0 -41 35 -58.5t116 -27.5l33 -4v-168h-633zM528 670h308l-152 399z M559 1683q0 86 62.5 147.5t148.5 61.5q90 0 151.5 -61.5t61.5 -151.5q0 -84 -62.5 -144t-148.5 -60q-88 0 -150.5 61t-62.5 147zM559 2023l238 172q102 76 188 76q63 0 110.5 -40t47.5 -95q0 -111 -180 -141l-359 -62zM698 1686q0 -33 21.5 -55.5t50.5 -22.5q31 0 52.5 22.5 t21.5 53t-21.5 53t-52.5 22.5q-29 0 -50.5 -21t-21.5 -52z" />
<glyph unicode="&#x1fb;" d="M57 262q0 233 308 326q133 41 299 55v105q0 111 -129 110q-49 0 -90.5 -20.5t-41.5 -69.5q0 -68 -28 -102q-45 -55 -129 -56q-63 0 -107.5 44t-44.5 110q0 123 128 203t327 80q446 0 446 -338v-404q0 -115 43 -115l15 7q14 6 37 28l114 -139q-131 -104 -260 -104 q-70 0 -134.5 28.5t-100.5 75.5q-154 -104 -326 -104q-145 0 -235.5 77.5t-90.5 202.5zM340 1317q0 86 62.5 147.5t148.5 61.5q88 0 150.5 -62.5t62.5 -150.5q0 -84 -62.5 -144.5t-148.5 -60.5q-88 0 -150.5 61.5t-62.5 147.5zM340 1657l238 172q102 76 188 76q66 0 112 -40 t46 -96q0 -111 -181 -141l-358 -61zM406 305q0 -45 26.5 -73.5t69.5 -28.5q84 0 162 71v205q-258 -47 -258 -174zM479 1319q0 -33 21.5 -55.5t50.5 -22.5q31 0 52.5 22.5t21.5 53.5t-21.5 53.5t-52.5 22.5q-29 0 -50.5 -21.5t-21.5 -52.5z" />
<glyph unicode="&#x1fc;" horiz-adv-x="2334" d="M-70 0v168l31 6q113 29 180.5 74t155.5 147l772 1000h1020l203 -396l-144 -73q-125 170 -247.5 233.5t-325.5 63.5q-90 0 -119 -31t-29 -127v-219h64q117 0 159 51t46 195h162v-697h-162q-4 139 -48 193.5t-155 54.5q-33 0 -66 -2v-311q0 -84 34 -110.5t143 -26.5 q186 0 320 81.5t286 286.5l143 -53l-225 -508h-1221v168l41 4q86 10 112.5 42t26.5 130v164h-448l-152 -201q-29 -37 -28 -69q0 -70 149 -70h31v-168h-709zM764 682h323v410zM1049 1577l237 172q102 76 189 76q66 0 111.5 -40t45.5 -95q0 -111 -180 -142l-358 -61z" />
<glyph unicode="&#x1fd;" horiz-adv-x="1802" d="M57 272q0 168 173 261.5t499 101.5q0 61 -3 95t-17.5 70t-47 51t-86.5 15q-78 0 -114 -37q-23 -23 -45 -104q-14 -51 -55.5 -81t-96.5 -30q-68 0 -108.5 40t-40.5 106q0 127 130 207t334.5 80t340.5 -91q150 90 317 91q219 0 356.5 -127t137.5 -330q0 -33 -5 -105h-679 q20 -283 256 -282q158 0 274 176l168 -86q-66 -147 -200 -229t-308 -82q-227 0 -410 168q-150 -168 -399 -168q-168 0 -269.5 78.5t-101.5 211.5zM406 285q0 -47 32.5 -75t87.5 -28q88 0 144.5 78t56.5 199h-14q-125 0 -216 -50t-91 -124zM672 1284l215 193q96 84 172 84 q59 0 101 -44t42 -106q0 -123 -164 -158l-325 -69zM1057 643h325v33q0 84 -39.5 137t-109.5 53q-151 0 -176 -223z" />
<glyph unicode="&#x1fe;" horiz-adv-x="1638" d="M72 698q0 309 210 516t527 207q139 0 258 -32l107 206h172l-136 -256q53 -33 94.5 -63.5t96.5 -86.5t91 -119.5t61.5 -157t25.5 -201.5q0 -317 -207 -527.5t-520 -210.5q-174 0 -303 41l-115 -239h-178l150 299q-152 82 -243 251.5t-91 372.5zM444 690q0 -221 99 -364 l424 862q-70 35 -136 35q-129 0 -220 -82t-129 -199t-38 -252zM610 1577l238 172q102 76 188 76q66 0 112 -40t46 -95q0 -111 -180 -142l-359 -61zM655 215q78 -43 172 -43q174 0 276.5 145.5t102.5 393.5q0 250 -114 387z" />
<glyph unicode="&#x1ff;" horiz-adv-x="1269" d="M63 522q0 240 151 382.5t404 142.5q145 0 267 -46l76 117h165l-118 -180q193 -147 192 -422q0 -240 -154.5 -387t-406.5 -147q-141 0 -246 41l-65 -105h-168l106 166q-203 149 -203 438zM406 1284l215 193q96 84 172 84q59 0 101 -44t42 -106q0 -123 -164 -158l-326 -69z M436 502q0 -63 17 -160l297 461q-59 45 -117 45q-197 0 -197 -346zM530 215q47 -25 97 -25q201 0 200 316q0 74 -10 156z" />
<glyph unicode="&#x200;" horiz-adv-x="1474" d="M-70 0v168l33 4q86 10 133 59.5t107 190.5l405 973h318l401 -1000q63 -133 95 -171t108 -52l33 -4v-168h-748v168l51 4q66 4 92.5 19.5t26.5 46.5q-2 31 -20 84l-62 174h-440l-66 -177q-18 -47 -18 -61q0 -41 35 -58.5t116 -27.5l33 -4v-168h-633zM389 1825 q0 47 28.5 76.5t74.5 29.5q55 0 80.5 -28.5t43.5 -110.5l50 -215l-50 -31l-170 164q-57 54 -57 115zM528 670h308l-152 399zM700 1827q0 45 30 74.5t73 29.5q55 0 80.5 -28.5t44.5 -110.5l49 -215l-49 -31l-170 164q-58 58 -58 117z" />
<glyph unicode="&#x201;" d="M57 262q0 233 308 326q133 41 299 55v105q0 111 -129 110q-49 0 -90.5 -20.5t-41.5 -69.5q0 -68 -28 -102q-45 -55 -129 -56q-63 0 -107.5 44t-44.5 110q0 123 128 203t327 80q446 0 446 -338v-404q0 -115 43 -115l15 7q14 6 37 28l114 -139q-131 -104 -260 -104 q-70 0 -134.5 28.5t-100.5 75.5q-154 -104 -326 -104q-145 0 -235.5 77.5t-90.5 202.5zM170 1458q0 47 28.5 77t73.5 30q55 0 81 -29t44 -111l49 -215l-49 -30l-170 163q-57 54 -57 115zM406 305q0 -45 26.5 -73.5t69.5 -28.5q84 0 162 71v205q-258 -47 -258 -174zM481 1460 q0 45 30 75t73 30q55 0 80.5 -29t44.5 -111l49 -215l-49 -30l-170 163q-58 58 -58 117z" />
<glyph unicode="&#x204;" horiz-adv-x="1474" d="M41 0v168l41 4q86 10 112.5 42t26.5 130v707q0 98 -26.5 129.5t-112.5 42.5l-41 4v168h1182l202 -422l-139 -70q-213 307 -489 307q-66 0 -107 -7t-63.5 -17t-32.5 -39t-12 -51.5t-2 -75.5v-174h59q66 0 96.5 4t60 25.5t40 66.5t12.5 127h160v-637h-160 q-18 143 -64.5 184t-146.5 41h-57v-241q0 -162 23.5 -197t146.5 -35q176 0 316 87t273 280l144 -68l-226 -483h-1216zM270 1825q0 47 29 76.5t74 29.5q55 0 80.5 -28.5t44.5 -110.5l49 -215l-49 -31l-170 164q-58 54 -58 115zM582 1827q0 45 29.5 74.5t72.5 29.5 q55 0 81 -28.5t44 -110.5l49 -215l-49 -31l-170 164q-57 58 -57 117z" />
<glyph unicode="&#x205;" d="M63 518q0 231 152 380t387 149q147 0 265 -60.5t177 -167.5q53 -96 54 -299h-664q0 -154 63.5 -235.5t184.5 -81.5q152 0 268 174l172 -84q-41 -66 -72.5 -107t-92 -95t-145.5 -81.5t-191 -27.5q-242 0 -400 151.5t-158 384.5zM223 1458q0 47 29 77t74 30q55 0 80.5 -29 t44.5 -111l49 -215l-49 -30l-170 163q-58 54 -58 115zM446 678h289q-2 96 -33.5 138t-101.5 42t-110 -47t-44 -133zM535 1460q0 45 29.5 75t72.5 30q55 0 80.5 -29t44.5 -111l49 -215l-49 -30l-170 163q-57 58 -57 117z" />
<glyph unicode="&#x208;" horiz-adv-x="819" d="M31 1825q0 47 28.5 76.5t73.5 29.5q55 0 81 -28.5t44 -110.5l49 -215l-49 -31l-170 164q-57 54 -57 115zM41 0v168l49 4q92 8 115.5 46t23.5 126v707q0 92 -23.5 129t-115.5 43l-49 4v168h735v-168l-49 -4q-92 -8 -115.5 -46t-23.5 -126v-707q0 -92 23.5 -129t115.5 -43 l49 -4v-168h-735zM342 1827q0 45 29.5 74.5t72.5 29.5q55 0 81 -28.5t44 -110.5l49 -215l-49 -31l-170 164q-57 58 -57 117z" />
<glyph unicode="&#x209;" horiz-adv-x="737" d="M-12 1458q0 47 28.5 77t73.5 30q55 0 81 -29t44 -111l49 -215l-49 -30l-170 163q-57 54 -57 115zM45 0v166l66 14q57 12 73.5 40t16.5 116v295q0 94 -23.5 128t-89.5 40l-43 4v166l361 59h126v-692q0 -88 15.5 -114.5t75.5 -41.5l63 -14v-166h-641zM299 1460 q0 45 29.5 75t72.5 30q55 0 81 -29t44 -111l49 -215l-49 -30l-170 163q-57 58 -57 117z" />
<glyph unicode="&#x20c;" horiz-adv-x="1638" d="M72 684q0 319 215 528t542 209q322 0 534 -196.5t212 -515.5q0 -313 -221 -524.5t-551 -211.5q-307 0 -519 194.5t-212 516.5zM451 1825q0 47 28.5 76.5t73.5 29.5q55 0 80.5 -28.5t44.5 -110.5l49 -215l-49 -31l-170 164q-57 54 -57 115zM465 692q0 -84 16.5 -166 t53 -162.5t110.5 -131t174 -50.5q162 0 262.5 144.5t100.5 378.5q0 240 -93.5 373.5t-257 133.5t-265 -144.5t-101.5 -375.5zM762 1827q0 45 29.5 74.5t72.5 29.5q55 0 81 -28.5t44 -110.5l49 -215l-49 -31l-170 164q-57 58 -57 117z" />
<glyph unicode="&#x20d;" horiz-adv-x="1269" d="M63 528q0 231 154 375t404 144q264 0 420.5 -145.5t156.5 -393.5q0 -240 -154.5 -383t-412.5 -143q-262 0 -415 147t-153 399zM242 1458q0 47 28.5 77t73.5 30q55 0 81 -29t44 -111l49 -215l-49 -30l-170 163q-57 54 -57 115zM436 504q0 -324 197 -324q193 0 192 320 q0 338 -192 338q-197 0 -197 -334zM553 1460q0 45 29.5 75t72.5 30q55 0 81 -29t44 -111l49 -215l-49 -30l-170 163q-57 58 -57 117z" />
<glyph unicode="&#x210;" horiz-adv-x="1597" d="M41 0v168l41 4q86 10 112.5 42t26.5 130v707q0 98 -26.5 129.5t-112.5 42.5l-41 4v168h797q137 0 240.5 -16.5t190.5 -57.5t132 -116t45 -183q0 -141 -91 -241.5t-251 -137.5l258 -334q78 -86 121 -113.5t121 -27.5v-168h-476l-442 600h-106v-256q0 -98 26.5 -130 t112.5 -42l41 -4v-168h-719zM381 1825q0 47 28.5 76.5t73.5 29.5q55 0 81 -28.5t44 -110.5l49 -215l-49 -31l-170 164q-57 54 -57 115zM580 795h145q174 0 238.5 62.5t64.5 143.5q0 66 -26.5 110t-75.5 62.5t-91 24.5t-97.5 6t-90.5 -7t-48 -22.5t-16 -26.5t-3 -34v-319z M692 1827q0 45 30 74.5t73 29.5q55 0 80.5 -28.5t44.5 -110.5l49 -215l-49 -31l-170 164q-58 58 -58 117z" />
<glyph unicode="&#x211;" horiz-adv-x="942" d="M45 0v166l59 14q59 14 75 41t16 115v295q0 94 -22.5 127t-90.5 41l-37 4v166l320 59h127v-100q102 72 154 95.5t116 23.5q78 0 131 -54.5t53 -134.5q0 -68 -46 -112t-116 -44q-55 0 -102 32t-74 32q-43 0 -82 -33v-397q0 -88 15.5 -114.5t74.5 -41.5l60 -14v-166h-631z M113 1458q0 47 28.5 77t73.5 30q55 0 81 -29t44 -111l49 -215l-49 -30l-170 163q-57 54 -57 115zM424 1460q0 45 29.5 75t72.5 30q55 0 81 -29t44 -111l49 -215l-49 -30l-170 163q-57 58 -57 117z" />
<glyph unicode="&#x214;" horiz-adv-x="1515" d="M31 1227v168h719v-168l-41 -4q-86 -10 -113 -42t-27 -130v-541q0 -154 56.5 -238t201.5 -84q94 0 154.5 31t84.5 87t30 97t6 101v547q0 98 -26.5 129.5t-112.5 42.5l-41 4v168h561v-168l-41 -4q-86 -10 -112.5 -42t-26.5 -130v-537q0 -92 -9.5 -160.5t-42 -144.5 t-89 -124t-159 -80t-243.5 -32q-113 0 -203 21.5t-146.5 52.5t-97.5 80t-59 89t-29.5 97.5t-12.5 85t-1 72.5v580q0 98 -26.5 129.5t-112.5 42.5zM418 1825q0 47 28.5 76.5t73.5 29.5q55 0 81 -28.5t44 -110.5l49 -215l-49 -31l-170 164q-57 54 -57 115zM729 1827 q0 45 29.5 74.5t72.5 29.5q55 0 81 -28.5t44 -110.5l50 -215l-50 -31l-170 164q-57 58 -57 117z" />
<glyph unicode="&#x215;" horiz-adv-x="1351" d="M45 803v166l354 59h127v-676q0 -88 20.5 -117.5t82.5 -29.5q92 0 223 78v348q0 94 -22.5 127t-90.5 41l-37 4v166l355 59h127v-692q0 -88 15 -114.5t75 -41.5l63 -14v-166h-450v80q-102 -59 -180 -83t-179 -24q-94 0 -161.5 29t-100.5 65.5t-50 97t-19 94.5t-2 87v285 q0 94 -22.5 127t-90.5 41zM311 1458q0 47 29 77t74 30q55 0 80.5 -29t44.5 -111l49 -215l-49 -30l-170 163q-58 54 -58 115zM623 1460q0 45 29.5 75t72.5 30q55 0 80.5 -29t44.5 -111l49 -215l-49 -30l-170 163q-57 58 -57 117z" />
<glyph unicode="&#x218;" horiz-adv-x="1351" d="M43 500l154 51q207 -379 536 -379q113 0 185.5 51t72.5 131q0 57 -41 87t-155 59l-203 51q-61 18 -129 30.5t-135.5 43t-122.5 70.5t-89 112t-34 168q0 195 148.5 320.5t379.5 125.5q190 0 328 -92l25 66h122l136 -416l-148 -55q-119 164 -213 231.5t-235 67.5 q-98 0 -162 -40t-64 -104q0 -39 33 -70.5t85 -51t90 -28.5t73 -16l186 -39l98 -20q38 -8 111.5 -40t117.5 -70.5t80 -112.5t36 -166q0 -213 -165 -352.5t-415 -139.5q-225 0 -367 105l-28 -101h-121zM506 -264q0 70 46 116t114 46q76 0 122 -54.5t46 -140.5 q0 -90 -55.5 -178t-151.5 -152l-88 92q68 59 100 121q-133 25 -133 150z" />
<glyph unicode="&#x219;" horiz-adv-x="1064" d="M45 338l158 33q76 -84 92 -99q92 -82 227 -82q76 0 127 26t51 60q0 72 -180 95l-131 16q-160 20 -244 98t-84 205q0 156 118 256.5t300 100.5q121 0 262 -68l25 49h129l39 -303l-168 -25q-115 158 -266 158q-61 0 -101.5 -22.5t-40.5 -57.5q0 -63 160 -92l154 -29 q55 -10 81.5 -16t84 -29.5t88 -52.5t56.5 -84t26 -125q0 -156 -131.5 -262t-321.5 -106q-131 0 -268 61l-25 -51h-135zM354 -264q0 70 46 116t114 46q76 0 122 -54.5t46 -140.5q0 -90 -55.5 -178t-151.5 -152l-88 92q68 59 100 121q-133 25 -133 150z" />
<glyph unicode="&#x21a;" horiz-adv-x="1433" d="M-8 971l153 424h1129l166 -424l-150 -60q-47 78 -86 131.5t-115.5 109.5t-156.5 56q-29 0 -35 -11t-6 -60v-793q0 -35 1 -53.5t8 -44t21.5 -38.5t42 -23.5t66.5 -12.5l62 -4v-168h-760v168l61 4q49 2 80 15.5t43 42t14 50t2 64.5v786q0 53 -6 65.5t-28 12.5 q-102 0 -200.5 -83t-152.5 -214zM549 -264q0 70 46 116t114 46q76 0 122 -54.5t46 -140.5q0 -90 -55.5 -178t-151.5 -152l-88 92q68 59 100 121q-133 25 -133 150z" />
<glyph unicode="&#x21b;" horiz-adv-x="942" d="M45 844v162q264 37 295 348h192v-326h281v-174h-281v-496q0 -80 16.5 -109.5t57.5 -29.5q39 0 77 23.5t105 89.5l123 -146q-90 -109 -192.5 -156.5t-239.5 -47.5q-80 0 -135 23.5t-83 54t-42 86t-16 88t-2 92.5v518h-156zM369 -264q0 70 46 116t113 46q76 0 122 -54.5 t46 -140.5q0 -90 -55 -178t-152 -152l-88 92q68 59 101 121q-133 25 -133 150z" />
<glyph unicode="&#x258;" d="M63 293l173 84q117 -174 268 -174q121 0 184.5 82t63.5 235h-664q0 203 53 299q59 106 177 167t266 61q236 0 387 -148.5t151 -380.5q0 -233 -157.5 -384.5t-399.5 -151.5q-106 0 -191 27.5t-145.5 81.5t-92.5 95t-73 107zM451 678h288q-4 86 -44 133t-109.5 47t-101 -42 t-33.5 -138z" />
<glyph unicode="&#x259;" d="M63 735q41 66 73 107t92.5 95t145.5 82t191 28q242 0 399.5 -152t157.5 -385q0 -231 -151.5 -379.5t-386.5 -148.5q-147 0 -265 60t-178 167q-53 96 -53 299h664q0 154 -63.5 235.5t-184.5 81.5q-152 0 -268 -174zM451 350q2 -96 33.5 -138t101 -42t109.5 47t44 133h-288 z" />
<glyph unicode="&#x2be;" horiz-adv-x="905" d="M84 1151q41 102 136 160.5t222 58.5q170 0 275.5 -103.5t105.5 -269.5q0 -168 -106.5 -269t-284.5 -101q-135 0 -227 63.5t-92 153.5q0 55 37.5 92t93.5 37q51 0 90 -35t39 -76v-39q0 -16 17.5 -27.5t41.5 -11.5q115 0 115 201q0 98 -39 158.5t-107 60.5 q-109 0 -178 -125q-6 -14 -22 -6l-111 57q-14 5 -6 21z" />
<glyph unicode="&#x2bf;" horiz-adv-x="905" d="M82 999q0 168 106.5 269.5t284.5 101.5q135 0 227.5 -63.5t92.5 -153.5q0 -55 -38 -92t-93 -37q-49 0 -89.5 35t-40.5 76v39q0 16 -17 27t-42 11q-115 0 -115 -200q0 -98 39 -158.5t107 -60.5q109 0 178 125q6 14 23 6l110 -58q14 -4 6 -20q-41 -102 -136 -160.5 t-222 -58.5q-170 0 -275.5 103t-105.5 269z" />
<glyph unicode="&#x2c6;" horiz-adv-x="1024" d="M141 1329l373 223l369 -223l-78 -137l-291 111l-295 -111z" />
<glyph unicode="&#x2c7;" horiz-adv-x="1024" d="M139 1417l78 135l295 -108l291 108l78 -135l-369 -225z" />
<glyph unicode="&#x2d8;" horiz-adv-x="1024" d="M139 1493l103 53q113 -125 270 -125q143 0 258 125l109 -53q-43 -127 -146.5 -210t-220.5 -83q-230 0 -373 293z" />
<glyph unicode="&#x2d9;" horiz-adv-x="655" d="M139 1374q0 84 55.5 139.5t139.5 55.5q78 0 137 -60.5t59 -142.5q0 -76 -57 -132t-135 -56q-82 0 -140.5 57t-58.5 139z" />
<glyph unicode="&#x2da;" horiz-adv-x="696" d="M139 1372q0 86 62.5 147.5t148.5 61.5q88 0 150.5 -61.5t62.5 -151.5q0 -84 -62.5 -144.5t-148.5 -60.5q-88 0 -150.5 61.5t-62.5 147.5zM279 1374q0 -33 21.5 -55.5t49.5 -22.5q31 0 52.5 22.5t21.5 53.5t-21.5 53.5t-52.5 22.5q-29 0 -50 -21.5t-21 -52.5z" />
<glyph unicode="&#x2db;" horiz-adv-x="655" d="M61 -260q0 94 56.5 158.5t152.5 121.5h201q-72 -33 -107.5 -79.5t-35.5 -126.5q0 -51 34.5 -82t83.5 -31q68 0 152 84l78 -72q-47 -84 -129 -134t-178 -50q-131 0 -219.5 52.5t-88.5 158.5z" />
<glyph unicode="&#x2dc;" horiz-adv-x="983" d="M141 1311q33 92 102.5 146t155.5 54q59 0 149.5 -29.5t127.5 -29.5q55 0 84 49l102 -51q-33 -113 -92 -164t-160 -51q-66 0 -157 30.5t-127 30.5q-43 0 -78 -49z" />
<glyph unicode="&#x2dd;" horiz-adv-x="901" d="M242 1210l49 215q18 82 43.5 111t81.5 29q43 0 72.5 -30t29.5 -75q0 -59 -57 -117l-170 -163zM553 1210l49 215q18 82 44 111t81 29q45 0 73.5 -30t28.5 -77q0 -61 -57 -115l-170 -163z" />
<glyph unicode="&#x300;" horiz-adv-x="0" d="M-895 1411q0 61 42 105.5t101 44.5q76 0 172 -84l215 -193l-41 -100l-325 69q-164 35 -164 158z" />
<glyph unicode="&#x301;" horiz-adv-x="0" d="M-823 1284l215 193q96 84 172 84q59 0 101 -44t42 -106q0 -123 -164 -158l-325 -69z" />
<glyph unicode="&#x302;" horiz-adv-x="0" d="M-965 1329l373 223l369 -223l-78 -137l-291 111l-295 -111z" />
<glyph unicode="&#x303;" horiz-adv-x="0" d="M-944 1311q33 92 102.5 146t155.5 54q59 0 149.5 -29.5t126.5 -29.5q55 0 84 49l103 -51q-33 -113 -92.5 -164t-159.5 -51q-66 0 -157 30.5t-128 30.5q-43 0 -78 -49z" />
<glyph unicode="&#x304;" horiz-adv-x="0" d="M-926 1286v174h645v-174h-645z" />
<glyph unicode="&#x306;" horiz-adv-x="0" d="M-967 1493l103 53q113 -125 270 -125q143 0 258 125l109 -53q-43 -127 -146.5 -210t-220.5 -83q-230 0 -373 293z" />
<glyph unicode="&#x307;" horiz-adv-x="0" d="M-782 1374q0 84 55 139.5t139 55.5q78 0 137.5 -60.5t59.5 -142.5q0 -76 -57.5 -132t-135.5 -56q-82 0 -140 57t-58 139z" />
<glyph unicode="&#x308;" horiz-adv-x="0" d="M-967 1374q0 61 40 101.5t102 40.5q57 0 100 -44.5t43 -103.5q0 -55 -42 -96t-99 -41q-59 0 -101.5 42t-42.5 101zM-487 1374q0 61 39.5 101.5t101.5 40.5q57 0 100 -44.5t43 -103.5q0 -55 -42 -96t-99 -41q-59 0 -101 42t-42 101z" />
<glyph unicode="&#x309;" horiz-adv-x="0" d="M-862 1425q0 86 83 143.5t208 57.5q135 0 211.5 -54t76.5 -151q0 -135 -143 -196q-45 -20 -59.5 -35.5t-14.5 -48.5v-23h-127q-4 25 -4 47q0 59 16.5 90t75.5 78v-2q45 37 45 88q0 41 -25.5 65.5t-68.5 24.5q-35 0 -61.5 -11t-26.5 -28l6 -12q6 -14 6 -49 q0 -39 -26.5 -64.5t-69.5 -25.5q-47 0 -74.5 28.5t-27.5 77.5z" />
<glyph unicode="&#x30a;" horiz-adv-x="0" d="M-803 1372q0 86 62.5 147.5t148.5 61.5q88 0 150.5 -61.5t62.5 -151.5q0 -84 -62.5 -144.5t-148.5 -60.5q-88 0 -150.5 61.5t-62.5 147.5zM-664 1374q0 -33 21.5 -55.5t50.5 -22.5q31 0 52.5 22.5t21.5 53.5t-21.5 53.5t-52.5 22.5q-29 0 -50.5 -21.5t-21.5 -52.5z" />
<glyph unicode="&#x30b;" horiz-adv-x="0" d="M-803 1210l49 215q18 82 44 111t81 29q43 0 73 -30t30 -75q0 -59 -58 -117l-170 -163zM-492 1210l50 215q18 82 43.5 111t81.5 29q45 0 73.5 -30t28.5 -77q0 -61 -57 -115l-170 -163z" />
<glyph unicode="&#x30c;" horiz-adv-x="0" d="M-967 1417l78 135l295 -108l291 108l78 -135l-369 -225z" />
<glyph unicode="&#x30f;" horiz-adv-x="0" d="M-973 1458q0 47 29 77t74 30q55 0 80.5 -29t44.5 -111l49 -215l-49 -30l-170 163q-58 54 -58 115zM-662 1460q0 45 30 75t73 30q55 0 80.5 -29t44.5 -111l49 -215l-49 -30l-170 163q-58 58 -58 117z" />
<glyph unicode="&#x311;" horiz-adv-x="0" d="M-967 1253q43 127 146.5 210t220.5 83q229 0 373 -293l-103 -53q-113 125 -270 125q-143 0 -258 -125z" />
<glyph unicode="&#x323;" horiz-adv-x="0" d="M-782 -326q0 84 55 139.5t139 55.5q78 0 137.5 -60.5t59.5 -142.5q0 -76 -57.5 -132t-135.5 -56q-82 0 -140 57t-58 139z" />
<glyph unicode="&#x326;" horiz-adv-x="0" d="M-758 -264q0 70 46 116t114 46q76 0 122 -54.5t46 -140.5q0 -90 -55.5 -178t-151.5 -152l-88 92q68 59 100 121q-133 25 -133 150z" />
<glyph unicode="&#x32e;" horiz-adv-x="0" d="M-999 -219l112 47q123 -111 297 -111q158 0 285 111l119 -47q-47 -115 -161 -189.5t-243 -74.5q-249 0 -409 264z" />
<glyph unicode="&#x32f;" horiz-adv-x="0" d="M-999 -436q47 115 160.5 189.5t242.5 74.5q250 0 410 -264l-113 -47q-123 111 -297 110q-158 0 -285 -110z" />
<glyph unicode="&#x330;" horiz-adv-x="0" d="M-944 -389q33 92 102.5 146.5t155.5 54.5q59 0 149.5 -30t126.5 -30q55 0 84 49l103 -51q-33 -113 -92.5 -164t-159.5 -51q-66 0 -157 31t-128 31q-43 0 -78 -50z" />
<glyph unicode="&#x331;" horiz-adv-x="0" d="M-926 -240h645v-174h-645v174z" />
<glyph unicode="&#x332;" horiz-adv-x="0" d="M-926 -240h645v-174h-645v174z" />
<glyph unicode="&#x391;" horiz-adv-x="1474" d="M-70 0v168l33 4q86 10 133 59.5t107 190.5l405 973h318l401 -1000q63 -133 95 -171t108 -52l33 -4v-168h-748v168l51 4q66 4 92.5 19.5t26.5 46.5q-2 31 -20 84l-62 174h-440l-66 -177q-18 -47 -18 -61q0 -41 35 -58.5t116 -27.5l33 -4v-168h-633zM528 670h308l-152 399z " />
<glyph unicode="&#x392;" horiz-adv-x="1474" d="M41 0v168l41 4q86 10 112.5 42t26.5 130v707q0 98 -26.5 129.5t-112.5 42.5l-41 4v168h778q160 0 272.5 -27t189.5 -107.5t77 -216.5q0 -94 -52.5 -171.5t-144.5 -122.5q125 -41 191.5 -128t66.5 -212q0 -111 -40 -191t-95 -121t-140 -64.5t-145.5 -28.5t-138.5 -5h-819z M580 287q0 -53 32.5 -79t145.5 -26q135 0 212 65.5t77 182.5t-70 169t-227 52h-170v-364zM580 840h163q127 0 197 46t70 128q0 88 -69 137t-193 49q-80 0 -118 -15.5t-44 -32.5t-6 -58v-254z" />
<glyph unicode="&#x393;" horiz-adv-x="1392" d="M41 0v168l41 4q86 10 112.5 42t26.5 130v707q0 98 -26.5 129.5t-112.5 42.5l-41 4v168h1169l195 -420l-141 -72q-119 162 -236 229.5t-276 67.5q-121 0 -146.5 -31.5t-25.5 -142.5v-682q0 -90 23.5 -127t115.5 -45l55 -4v-168h-733z" />
<glyph unicode="&#x394;" horiz-adv-x="1744" d="M74 0v203l674 1192h325l598 -1192v-203h-1597zM311 184h914l-424 871z" />
<glyph unicode="&#x395;" horiz-adv-x="1474" d="M41 0v168l41 4q86 10 112.5 42t26.5 130v707q0 98 -26.5 129.5t-112.5 42.5l-41 4v168h1182l202 -422l-139 -70q-213 307 -489 307q-66 0 -107 -7t-63.5 -17t-32.5 -39t-12 -51.5t-2 -75.5v-174h59q66 0 96.5 4t60 25.5t40 66.5t12.5 127h160v-637h-160 q-18 143 -64.5 184t-146.5 41h-57v-241q0 -162 23.5 -197t146.5 -35q176 0 316 87t273 280l144 -68l-226 -483h-1216z" />
<glyph unicode="&#x396;" horiz-adv-x="1310" d="M12 133l781 1075q-90 8 -123 9q-348 0 -516 -328l-142 59l203 447h989l35 -131l-774 -1071q86 -14 145 -15q248 0 391 127q94 80 148 223l151 -49l-182 -479h-1073z" />
<glyph unicode="&#x397;" horiz-adv-x="1679" d="M41 0v168l41 4q86 10 112.5 42t26.5 130v707q0 98 -26.5 129.5t-112.5 42.5l-41 4v168h719v-168l-41 -4q-86 -10 -112.5 -42t-26.5 -130v-201h520v201q0 98 -26.5 129.5t-112.5 42.5l-41 4v168h718v-168l-41 -4q-86 -10 -112.5 -42t-26.5 -130v-707q0 -98 26.5 -130 t112.5 -42l41 -4v-168h-718v168l41 4q86 10 112.5 42t26.5 130v307h-520v-307q0 -98 26.5 -130t112.5 -42l41 -4v-168h-719z" />
<glyph unicode="&#x398;" horiz-adv-x="1638" d="M72 684q0 319 215 528t542 209q299 0 510 -176q236 -199 236 -536q0 -313 -221 -524.5t-551 -211.5q-260 0 -459 148q-272 205 -272 563zM465 692q0 -240 100 -383q41 -59 109.5 -93t144.5 -34q162 0 262.5 144.5t100.5 378.5q0 240 -93.5 373.5t-257 133.5t-265 -144.5 t-101.5 -375.5zM586 461v497h59q0 -74 36 -101.5t136 -27.5q98 0 136 29t38 100h58v-497h-58q0 133 -155 133q-90 0 -123 -12q-68 -23 -68 -121h-59z" />
<glyph unicode="&#x399;" horiz-adv-x="819" d="M41 0v168l49 4q92 8 115.5 46t23.5 126v707q0 92 -23.5 129t-115.5 43l-49 4v168h735v-168l-49 -4q-92 -8 -115.5 -46t-23.5 -126v-707q0 -92 23.5 -129t115.5 -43l49 -4v-168h-735z" />
<glyph unicode="&#x39a;" horiz-adv-x="1638" d="M41 0v168l41 4q86 10 112.5 42t26.5 130v707q0 98 -26.5 129.5t-112.5 42.5l-41 4v168h704v-168l-26 -4q-94 -14 -116.5 -42t-22.5 -130v-277l344 328q68 63 67 84q0 41 -102 41h-35v168h692v-168q-133 -18 -229 -68.5t-230 -173.5l-83 -78l299 -469q106 -166 159.5 -210 t167.5 -60v-168h-776v168l37 4q82 8 103.5 17.5t21.5 35.5q0 18 -29 64l-29 45l-210 348l-168 -145v-193q0 -102 22.5 -130t116.5 -42l26 -4v-168h-704z" />
<glyph unicode="&#x39b;" horiz-adv-x="1474" d="M-70 0v168l33 4q86 10 133 59.5t107 190.5l405 973h318l401 -1000q63 -133 95 -171t108 -52l33 -4v-168h-748v168l51 4q66 4 92.5 19.5t26.5 46.5q-2 31 -20 84l-281 747l-287 -750q-18 -47 -18 -61q0 -41 35 -58.5t116 -27.5l33 -4v-168h-633z" />
<glyph unicode="&#x39c;" horiz-adv-x="1925" d="M41 0v168l41 4q86 10 112.5 42t26.5 130v707q0 98 -26.5 129.5t-112.5 42.5l-41 4v168h637l283 -873l290 873h641v-168l-41 -4q-86 -10 -112.5 -42t-26.5 -130v-707q0 -98 26.5 -130t112.5 -42l41 -4v-168h-718v168l40 4q86 10 113 42t27 130v711l-359 -1055h-221 l-352 1069v-725q0 -98 26.5 -130t112.5 -42l41 -4v-168h-561z" />
<glyph unicode="&#x39d;" horiz-adv-x="1515" d="M41 0v168l41 4q86 10 112.5 42t26.5 130v707q0 98 -26.5 129.5t-112.5 42.5l-41 4v168h604l467 -805v461q0 98 -26.5 129.5t-112.5 42.5l-41 4v168h551v-168l-41 -4q-86 -10 -112.5 -42t-26.5 -130v-1051h-254l-637 1077v-733q0 -98 26.5 -130t112.5 -42l41 -4v-168h-551 z" />
<glyph unicode="&#x39e;" horiz-adv-x="1413" d="M61 0v532h185q0 -70 29.5 -167t72.5 -97h717q43 0 72.5 97.5t29.5 166.5h185v-532h-1291zM61 862v533h1291v-533h-185q0 70 -29.5 167t-72.5 97h-717q-43 0 -72.5 -97t-29.5 -167h-185zM457 461v497h59q0 -70 53.5 -99.5t159.5 -29.5q215 0 215 129h57v-497h-57 q0 63 -56.5 98t-139.5 35q-74 0 -114 -5t-77 -36t-41 -92h-59z" />
<glyph unicode="&#x39f;" horiz-adv-x="1638" d="M72 684q0 319 215 528t542 209q322 0 534 -196.5t212 -515.5q0 -313 -221 -524.5t-551 -211.5q-307 0 -519 194.5t-212 516.5zM465 692q0 -84 16.5 -166t53 -162.5t110.5 -131t174 -50.5q162 0 262.5 144.5t100.5 378.5q0 240 -93.5 373.5t-257 133.5t-265 -144.5 t-101.5 -375.5z" />
<glyph unicode="&#x3a0;" horiz-adv-x="1802" d="M102 0v168l41 4q86 10 113 42t27 130v707q0 98 -27 129.5t-113 42.5l-41 4v168h1598v-168l-41 -4q-86 -10 -112.5 -42t-26.5 -130v-707q0 -98 26.5 -130t112.5 -42l41 -4v-168h-719v168l41 4q86 10 112.5 42t26.5 130v707q0 100 -27.5 136t-111.5 36h-242 q-84 0 -111.5 -36t-27.5 -136v-707q0 -98 26.5 -130t112.5 -42l41 -4v-168h-719z" />
<glyph unicode="&#x3a1;" horiz-adv-x="1351" d="M41 0v168l41 4q86 10 112.5 42t26.5 130v707q0 98 -26.5 129.5t-112.5 42.5l-41 4v168h735q131 0 228.5 -18.5t178.5 -62.5t123 -128t42 -207q0 -203 -146.5 -308.5t-427.5 -105.5h-194v-221q0 -98 26.5 -130t112.5 -42l41 -4v-168h-719zM580 752q33 -4 67 -4 q147 0 227 61t80 174q0 100 -65.5 161.5t-169.5 61.5q-51 0 -81 -8t-42 -31.5t-14 -44t-2 -65.5v-305z" />
<glyph unicode="&#x3a3;" horiz-adv-x="1474" d="M41 0l451 698l-451 697h1182l202 -422l-139 -70q-213 307 -489 307h-236l252 -391l-410 -635h347q176 0 316 87t273 280l144 -68l-226 -483h-1216z" />
<glyph unicode="&#x3a4;" horiz-adv-x="1433" d="M-8 971l153 424h1129l166 -424l-150 -60q-47 78 -86 131.5t-115.5 109.5t-156.5 56q-29 0 -35 -11t-6 -60v-793q0 -35 1 -53.5t8 -44t21.5 -38.5t42 -23.5t66.5 -12.5l62 -4v-168h-760v168l61 4q49 2 80 15.5t43 42t14 50t2 64.5v786q0 53 -6 65.5t-28 12.5 q-102 0 -200.5 -83t-152.5 -214z" />
<glyph unicode="&#x3a5;" horiz-adv-x="1433" d="M57 930q0 121 26 222t89.5 172t157.5 71q244 0 375 -244q141 244 385 244q96 0 161.5 -71t93 -172t27.5 -222h-196q0 53 -23 93t-63 40q-43 0 -77 -18.5t-56.5 -44t-37 -76t-22.5 -88t-11 -105t-4 -106.5t-1 -113v-168q0 -90 23.5 -128t115.5 -44l57 -4v-168h-751v168 l57 4q92 6 115.5 45t23.5 127v168q0 102 -1 156.5t-11 142.5t-28.5 134t-57.5 82t-94 36q-39 0 -57.5 -39t-18.5 -94h-197z" />
<glyph unicode="&#x3a6;" horiz-adv-x="1650" d="M47 696q0 262 215 371q143 74 440 86v4q0 68 -18 82q-20 16 -88 16h-59v140h577v-140h-59q-63 0 -86 -16t-23 -82v-4q297 -10 445 -86q211 -111 211 -377q0 -270 -232 -375q-154 -70 -424 -71v-6q0 -68 21 -82q23 -16 88 -17h59v-139h-577v139h59q66 0 86 17q20 18 20 82 v6q-291 8 -440 84q-215 106 -215 368zM309 690q0 -170 123 -233q80 -43 270 -54v588q-193 -10 -274 -57q-119 -68 -119 -244zM946 401q193 6 275 52q119 63 118 245q0 178 -120 244q-80 43 -273 49v-590z" />
<glyph unicode="&#x3a7;" horiz-adv-x="1597" d="M2 0v168q137 10 252 151l311 383l-241 322q-96 129 -140.5 162t-142.5 41v168h762v-168q-129 -6 -129 -43q0 -20 24 -56l152 -215l149 211q18 41 19 58q0 45 -98 45h-33v168h641v-168q-207 -29 -361 -226l-200 -253l276 -361q106 -123 158.5 -164t124.5 -51l51 -4v-168 h-801v168l41 4q96 8 96 43q0 10 -24 49l-205 289l-176 -254q-31 -45 -31 -72q0 -47 109 -55l51 -4v-168h-635z" />
<glyph unicode="&#x3a8;" horiz-adv-x="2045" d="M29 1202v193h485v-430q0 -154 52 -205t208 -51h76v387q0 63 -18.5 84.5t-79.5 21.5h-27v193h602v-193h-33q-68 0 -84 -23.5t-16 -101.5v-368h68q158 0 213 52t55 204v430h487v-193h-37q-68 0 -86 -21.5t-18 -113.5v-135q0 -233 -126 -336.5t-409 -103.5h-147v-170 q0 -84 23.5 -106.5t105.5 -22.5h41v-193h-682v193h43q82 0 103.5 22.5t21.5 106.5v170h-121q-141 0 -234.5 16t-172 62t-115.5 135.5t-37 226.5v135q0 88 -20.5 111.5t-83.5 23.5h-37z" />
<glyph unicode="&#x3a9;" horiz-adv-x="1597" d="M61 0v406h185q0 -55 28.5 -96.5t73.5 -41.5h144v191q-162 59 -259.5 174t-97.5 266q0 223 197.5 359.5t466 136.5t466 -136.5t197.5 -359.5q0 -152 -97 -266.5t-259 -173.5v-191h143q45 0 74 41t29 97h184v-406h-614v639q70 37 112.5 106.5t42.5 153.5q0 121 -81 206 t-197.5 85t-197.5 -85t-81 -206q0 -84 43 -153.5t113 -106.5v-639h-615z" />
<glyph unicode="&#x3b1;" horiz-adv-x="1310" d="M90 498q0 205 117 358q125 166 325 166q141 0 261 -94l102 69h217v-692q0 -82 12 -94q14 -18 93 -18h47v-193l-435 -14v102q-164 -113 -307 -113q-199 0 -321 166q-111 150 -111 357zM434 504q0 -111 39 -187q53 -102 148 -102q63 0 172 72v311q0 72 -9 96q-16 49 -57 78 q-43 31 -94 31q-104 0 -158 -103q-41 -81 -41 -196z" />
<glyph unicode="&#x3b2;" horiz-adv-x="1015" d="M51 621q0 369 149.5 599t407.5 230q166 0 268.5 -80t102.5 -211q0 -184 -186 -291l61 -41q184 -127 184 -368q0 -207 -139 -347.5t-344 -140.5q-240 0 -372 167.5t-132 482.5zM330 457q0 -119 63.5 -208t157.5 -89q90 0 155.5 87t65.5 210q0 121 -64.5 210t-156.5 89 t-156.5 -87t-64.5 -212zM336 891q92 68 225 119q63 25 96 51t38 45.5t5 50.5q0 72 -108 72q-96 0 -160 -105q-14 -20 -82 -186q-10 -22 -14 -47z" />
<glyph unicode="&#x3b3;" horiz-adv-x="1134" d="M-82 834l39 178h604l-29 -174h-108q-27 0 -27 -29q0 -16 9 -37l120 -475l269 522l2 6q0 14 -60 15h-49l21 172h467l-15 -166l-63 -2q-47 -2 -77 -30t-79 -128l-315 -641q72 -207 71 -305q0 -272 -196 -272q-104 0 -162.5 66.5t-58.5 180.5q0 117 67 279l-233 747 q-18 59 -31.5 76t-44.5 17h-121z" />
<glyph unicode="&#x3b4;" horiz-adv-x="1269" d="M76 479q0 328 362 461q-293 61 -293 234q0 127 137.5 209.5t344.5 82.5q193 0 333 -63.5t140 -157.5q0 -51 -40 -85t-95 -34q-74 0 -131 64q-90 96 -199 96q-152 0 -152 -115q0 -63 49.5 -98t174.5 -57q266 -49 376.5 -163t110.5 -351q0 -242 -155.5 -384.5 t-401.5 -142.5t-403.5 139.5t-157.5 364.5zM426 502q0 -143 53 -226t152 -83q102 0 158.5 83.5t56.5 221t-54.5 221.5t-152.5 84q-102 0 -157.5 -80t-55.5 -221z" />
<glyph unicode="&#x3b5;" horiz-adv-x="1134" d="M68 270q0 172 221 250q-178 80 -178 228q0 125 116.5 199.5t298.5 74.5q168 0 298 -63.5t130 -157.5q0 -51 -38.5 -85t-92.5 -34q-66 0 -118 61q-70 82 -148 82q-137 0 -137 -120q0 -111 137 -111h107v-166h-117q-152 0 -152 -109q0 -117 170 -116q117 0 194 36.5 t173 139.5l147 -129q-188 -274 -559 -275q-201 0 -326.5 79t-125.5 216z" />
<glyph unicode="&#x3b6;" horiz-adv-x="780" d="M29 1251q0 104 104.5 170t255.5 66q174 0 279.5 -88t105.5 -195q0 -68 -28.5 -112.5t-131.5 -126.5q-129 -109 -205.5 -240t-76.5 -246q0 -70 23.5 -95.5t154.5 -92.5q172 -88 223 -129q113 -92 113 -236q0 -178 -116 -286.5t-300 -108.5q-133 0 -219 51t-86 137 q0 135 133 136q10 0 95 -52.5t96 -52.5q129 0 129 129q0 47 -54 88q-236 106 -311 166q-160 125 -160 318q0 369 406 659q49 37 53 59q-2 47 -36 77t-81 30q-33 0 -116.5 -82t-120.5 -82q-53 0 -91 41t-38 98z" />
<glyph unicode="&#x3b7;" horiz-adv-x="1363" d="M90 0v193h31q70 0 90 10q29 16 29 76v466h-150v193q188 23 338 84h92v-133q195 133 361 133q92 0 168 -39q86 -41 120 -121q25 -57 25 -157v-1151h-317v1101q0 63 -15 90q-23 37 -78 37q-96 0 -225 -98v-395q0 -72 12.5 -82t100.5 -14v-193h-582z" />
<glyph unicode="&#x3b8;" horiz-adv-x="1302" d="M63 721q0 340 153 542.5t439 202.5q276 0 429 -195.5t153 -547.5q0 -354 -152.5 -551t-437.5 -197q-276 0 -430 198t-154 548zM418 616q23 -422 233 -421q209 0 238 421h-471zM418 834h469q-29 416 -244 415q-196 1 -225 -415z" />
<glyph unicode="&#x3b9;" horiz-adv-x="811" d="M78 745v189q236 12 373 88h94v-565q0 -164 19.5 -206t90.5 -42q66 0 131 27v-216q-156 -37 -288 -36q-164 0 -218.5 80.5t-54.5 324.5v356h-147z" />
<glyph unicode="&#x3ba;" horiz-adv-x="1351" d="M86 0v193q117 0 131 22q14 20 14 98v432h-145v195q170 6 371 82h96v-455l192 162q41 35 41 49q0 27 -69 27h-39v192h610v-192q-74 -4 -99.5 -14.5t-94.5 -61.5l-195 -141l277 -322q45 -53 71.5 -63t102.5 -10v-193h-367l-305 422l-125 -94v-54q0 -70 33 -75q16 -2 73 -6 v-193h-573z" />
<glyph unicode="&#x3bb;" horiz-adv-x="1228" d="M2 0v193q59 2 76.5 6t34 19t41.5 63l338 663l-93 246h-256v194q195 12 367 82h123l457 -1208q25 -66 104 -65h33v-193h-602v193h18q94 0 94 38q0 14 -12 50l-141 411l-176 -411q-14 -31 -15 -50q0 -39 92 -38h25v-193h-508z" />
<glyph unicode="&#x3bc;" horiz-adv-x="1591" d="M137 -512q27 371 27 770v770h332v-770q0 -88 172 -88q102 0 172 86v772h331v-770q0 -37 23 -62.5t55 -25.5q29 0 46.5 26.5t17.5 61.5h196q0 -117 -75.5 -201t-184.5 -84q-201 0 -317 99q-115 -98 -264 -99q-90 0 -172 13v-498h-359z" />
<glyph unicode="&#x3bd;" horiz-adv-x="1191" d="M2 805v192l410 11l272 -742l72 148q55 113 55 207q0 35 -16.5 116.5t-16.5 116.5q0 82 58 127q53 41 135 41q80 0 133 -41q51 -43 51 -123q0 -131 -201 -491l-204 -367h-269l-317 739q-29 66 -107 66h-55z" />
<glyph unicode="&#x3be;" horiz-adv-x="860" d="M47 1434q0 135 137 135q29 0 135.5 -50.5t137.5 -50.5q131 0 364 101v-189l-157 -59q-72 -33 -181.5 -95.5t-109.5 -90.5q0 -63 75.5 -101.5t286.5 -83.5q102 -37 103 -123q0 -125 -113 -125q-14 0 -91 30t-104 30q-94 0 -149 -72t-55 -182q0 -80 34.5 -125t151.5 -107 q164 -86 227.5 -131t85 -90t21.5 -131q0 -176 -117 -284.5t-297 -108.5q-137 0 -220 50t-83 134q0 131 127 131q33 0 102.5 -52t92.5 -52q135 0 135 131q0 45 -24.5 67.5t-123.5 73.5q-231 117 -310 209t-79 244q0 287 258 418q-182 84 -182 258l6 37q18 35 56 56t71 21h104 q-315 1 -315 177z" />
<glyph unicode="&#x3bf;" horiz-adv-x="1269" d="M63 528q0 231 154 375t404 144q264 0 420.5 -145.5t156.5 -393.5q0 -240 -154.5 -383t-412.5 -143q-262 0 -415 147t-153 399zM436 504q0 -324 197 -324q193 0 192 320q0 338 -192 338q-197 0 -197 -334z" />
<glyph unicode="&#x3c0;" horiz-adv-x="1460" d="M90 0v193h66q49 0 66.5 18t17.5 68v421q0 51 -17.5 68.5t-66.5 17.5h-66v211h1253v-211h-63q-57 0 -71.5 -18t-14.5 -78v-305q0 -100 24.5 -138t92.5 -38q59 0 127 27v-216q-156 -37 -291 -36q-158 0 -214 73.5t-56 307.5v335q0 53 -18.5 69.5t-67.5 16.5h-150 q-55 0 -68.5 -18t-13.5 -78v-401q0 -66 14.5 -81t67.5 -15h31v-193h-582z" />
<glyph unicode="&#x3c1;" horiz-adv-x="1302" d="M109 430q0 592 561 592q244 0 400.5 -141.5t156.5 -378.5q0 -236 -153.5 -381.5t-403.5 -145.5q-123 0 -240 39v-460h-321v876zM457 502q0 -145 54 -227t153 -82q100 0 156.5 83.5t56.5 221.5q0 141 -54.5 223t-150.5 82q-102 0 -158.5 -81t-56.5 -220z" />
<glyph unicode="&#x3c2;" d="M76 500q0 229 160.5 375.5t408.5 146.5q182 0 324.5 -87t142.5 -210q0 -70 -47 -115t-117 -45q-106 0 -162 115q-63 131 -149 131q-92 0 -152.5 -83t-60.5 -204q0 -74 47 -124t180 -111l98 -46l81 -41q38 -19 69 -38t54.5 -38.5t41 -42t29.5 -49t17.5 -58t5.5 -70.5 q0 -178 -126 -277.5t-343 -99.5q-201 0 -330 57.5t-129 149.5q0 113 127 112q59 0 127 -49q119 -84 225 -84q166 0 166 113q0 51 -40 87t-161 95q-303 145 -395 233.5t-92 256.5z" />
<glyph unicode="&#x3c3;" horiz-adv-x="1288" d="M76 502q0 229 156.5 374.5t400.5 145.5q92 0 172 -25h483v-213h-207q113 -125 113 -303q0 -221 -157.5 -363.5t-399.5 -142.5q-258 0 -409.5 142.5t-151.5 384.5zM424 502q0 -145 54 -227t153 -82q100 0 156.5 83.5t56.5 221.5q0 141 -54.5 223t-150.5 82 q-102 0 -158.5 -81t-56.5 -220z" />
<glyph unicode="&#x3c4;" horiz-adv-x="1054" d="M12 784v213h949v-213h-312v-348q0 -133 32 -182t132 -49q94 0 193 67v-215q-150 -74 -306 -73q-371 0 -370 325v475h-318z" />
<glyph unicode="&#x3c5;" horiz-adv-x="1325" d="M53 805v192l467 11v-609q0 -94 31 -137q37 -49 129 -49q96 0 129 51q29 41 29 139v299q0 61 -17 82q-14 20 -76 21h-55v192l465 11v-566q0 -133 -10 -190q-55 -276 -461 -277q-254 0 -365 99q-119 104 -118 354v274q0 61 -17 82q-14 20 -75 21h-56z" />
<glyph unicode="&#x3c6;" horiz-adv-x="1658" d="M76 514q0 227 156.5 367.5t408.5 140.5v-219q-215 0 -215 -291q0 -170 62.5 -244.5t199.5 -74.5v352q0 248 94.5 362.5t300.5 114.5q242 0 371 -125t129 -365q0 -299 -142.5 -428t-475.5 -129v-421h-277v421q-301 0 -456.5 137.5t-155.5 401.5zM965 193q162 0 215 80.5 t53 250.5q0 287 -160 287q-59 0 -83.5 -58.5t-24.5 -195.5v-364z" />
<glyph unicode="&#x3c7;" horiz-adv-x="1191" d="M25 -242q109 2 143 21q39 18 82 104l215 422l-242 440q-37 31 -196 31v187l354 20l229 -436l217 438h312l-396 -661l390 -754h-295l-244 498l-152 -295q4 -12 54 -13v-190h-471v188z" />
<glyph unicode="&#x3c8;" horiz-adv-x="1943" d="M53 797v192l461 10v-520q0 -170 72 -219q53 -37 239 -43v772h320v-772q133 4 151 6q92 12 129 72q29 43 29 184v193q0 80 -16 100q-18 23 -92 25v192l428 10v-555q0 -274 -187 -372q-137 -72 -442 -72v-446h-320v446q-334 2 -452 63q-178 92 -178 381v220q0 82 -13 102 q-18 31 -92 31h-37z" />
<glyph unicode="&#x3c9;" horiz-adv-x="1685" d="M76 479q0 543 616 543v-215q-150 0 -208 -68.5t-58 -255.5q0 -297 164 -297q68 0 95.5 52.5t27.5 201.5v99h260v-99q0 -147 25.5 -200.5t97.5 -53.5q164 0 164 297q0 180 -58.5 252t-210.5 72v215q315 0 467 -133t152 -410q0 -236 -122 -370t-345 -134q-104 0 -171 34 t-130 120q-63 -86 -129 -120t-170 -34q-225 0 -346 132t-121 372z" />
<glyph unicode="&#x3d1;" horiz-adv-x="1230" d="M55 510v215q102 -2 169 -16.5t111 -38t69.5 -75.5t38 -109.5t22.5 -157.5q35 -145 160 -146q104 0 163.5 113t59.5 321q-305 10 -481.5 124t-176.5 325q0 168 115 284.5t326 116.5q207 0 341 -162.5t161 -455.5l47 20v-219l-41 -16q0 -291 -146.5 -474.5t-371.5 -183.5 q-190 0 -305 115t-136 338q-4 49 -24.5 63.5t-100.5 18.5zM418 1055q0 -106 124 -171t306 -65q0 209 -59.5 332t-172.5 123q-88 0 -143 -62.5t-55 -156.5z" />
<glyph unicode="&#x3d5;" horiz-adv-x="1638" d="M90 494q0 236 154.5 362.5t449.5 128.5v172h273l-2 -174q297 0 450.5 -127t153.5 -364q0 -516 -604 -519v-422h-271v424q-604 1 -604 519zM414 483q0 -141 76.5 -215.5t203.5 -74.5v569q-129 0 -204.5 -77t-75.5 -202zM965 193q135 0 203.5 77.5t68.5 212.5 q0 127 -71.5 203t-200.5 76v-569z" />
<glyph unicode="&#x3d6;" horiz-adv-x="1884" d="M6 881q31 33 51.5 50t64.5 40.5t105 42.5q190 55 406 55q72 0 367.5 -26.5t361.5 -26.5q90 0 182 31l37 12l272 -49q-43 -78 -221 -140q27 -31 54.5 -105.5t31.5 -96.5q12 -49 13 -127q0 -252 -97 -412q-53 -90 -138 -129t-234 -39q-172 0 -275 129q-104 -129 -272 -129 q-143 0 -217 29q-125 47 -189.5 193.5t-64.5 346.5q0 76 12 123l2 13l9 27l13 36q7 20 15 39.5t19.5 40t23.5 33.5q-10 -2 -80 -21zM594 518q0 -346 129 -346q59 0 82.5 61.5t23.5 255.5v222h318v-222q0 -135 11 -204.5t31.5 -91t61.5 -21.5q76 0 104.5 110.5t28.5 352.5 q0 43 -24 166q-4 6 -43 6q-86 -6 -180 -6q-184 0 -443 28q-53 -37 -88 -161q-12 -46 -12 -150z" />
<glyph unicode="&#x3f5;" horiz-adv-x="962" d="M78 496q0 154 69.5 269.5t188.5 170.5q96 45 188 45q100 0 195.5 -52t157.5 -136l-140 -205q-63 127 -115.5 176t-107.5 49q-72 0 -124 -64.5t-62 -158.5h323v-193h-325q12 -125 96 -192q76 -59 153 -60q129 0 267 185l114 -92q-156 -262 -370 -263q-172 0 -275.5 64.5 t-171.5 198.5q-61 123 -61 258z" />
<glyph unicode="&#x400;" horiz-adv-x="1474" d="M41 0v168l41 4q86 10 112.5 42t26.5 130v707q0 98 -26.5 129.5t-112.5 42.5l-41 4v168h1182l202 -422l-139 -70q-213 307 -489 307q-66 0 -107 -7t-63.5 -17t-32.5 -39t-12 -51.5t-2 -75.5v-174h59q66 0 96.5 4t60 25.5t40 66.5t12.5 127h160v-637h-160 q-18 143 -64.5 184t-146.5 41h-57v-241q0 -162 23.5 -197t146.5 -35q176 0 316 87t273 280l144 -68l-226 -483h-1216zM348 1778q0 61 42 105t102 44q76 0 172 -84l215 -192l-41 -101l-326 70q-164 35 -164 158z" />
<glyph unicode="&#x401;" horiz-adv-x="1474" d="M41 0v168l41 4q86 10 112.5 42t26.5 130v707q0 98 -26.5 129.5t-112.5 42.5l-41 4v168h1182l202 -422l-139 -70q-213 307 -489 307q-66 0 -107 -7t-63.5 -17t-32.5 -39t-12 -51.5t-2 -75.5v-174h59q66 0 96.5 4t60 25.5t40 66.5t12.5 127h160v-637h-160 q-18 143 -64.5 184t-146.5 41h-57v-241q0 -162 23.5 -197t146.5 -35q176 0 316 87t273 280l144 -68l-226 -483h-1216zM276 1741q0 61 40 101t102 40q57 0 100 -44t43 -103q0 -55 -42 -96.5t-99 -41.5q-59 0 -101.5 42.5t-42.5 101.5zM756 1741q0 61 40 101t101 40 q57 0 100 -44t43 -103q0 -55 -42 -96.5t-99 -41.5q-59 0 -101 42.5t-42 101.5z" />
<glyph unicode="&#x402;" horiz-adv-x="1875" d="M-8 971l153 424h1129l166 -424l-150 -60q-80 133 -133 185q-117 113 -225 112q-31 0 -36 -9t-5 -62v-396q135 123 348 123q211 0 346 -93t135 -271v-455q0 -178 -135 -271t-346 -93h-82v198q92 0 148.5 58.5t56.5 115.5v439q0 57 -56.5 115.5t-148.5 58.5 q-100 0 -154.5 -29t-111.5 -94v-199q0 -102 24 -129q33 -39 115 -43l62 -4v-168h-760v168l61 4q82 4 115 43q25 27 24 129v786q0 47 -6 60.5t-28 13.5q-102 0 -200.5 -81t-152.5 -212z" />
<glyph unicode="&#x403;" horiz-adv-x="1392" d="M41 0v168l41 4q86 10 112.5 42t26.5 130v707q0 98 -26.5 129.5t-112.5 42.5l-41 4v168h1169l195 -420l-141 -72q-119 162 -236 229.5t-276 67.5q-125 0 -154 -37q-18 -27 -18 -137v-682q0 -102 24 -129q29 -35 115 -43l55 -4v-168h-733zM459 1577l215 192q96 84 172 84 q59 0 101 -44t42 -105q0 -123 -164 -158l-325 -69z" />
<glyph unicode="&#x404;" horiz-adv-x="1515" d="M72 698q0 182 70.5 338t197.5 252q176 133 432 133q188 0 342 -73l16 47h142l172 -484l-158 -59q-111 193 -170 256q-141 145 -291 145q-141 0 -233 -108.5t-117 -300.5h129q125 0 160 33q12 10 20.5 29.5t13.5 44t9 54t8 64.5h160v-637h-160q-2 158 -55 199 q-33 25 -154 24h-141q12 -274 160 -403q102 -90 233 -90q166 0 303 127q68 59 154 205l168 -86q-74 -197 -259.5 -316t-416.5 -119q-322 0 -528.5 204t-206.5 521z" />
<glyph unicode="&#x405;" horiz-adv-x="1351" d="M43 500l154 51q207 -379 536 -379q113 0 185.5 51t72.5 131q0 57 -41 87t-155 59l-203 51q-61 18 -129 30.5t-135.5 43t-122.5 70.5t-89 112t-34 168q0 195 148.5 320.5t379.5 125.5q190 0 328 -92l25 66h122l136 -416l-148 -55q-119 164 -213 231.5t-235 67.5 q-98 0 -162 -40t-64 -104q0 -39 33 -70.5t85 -51t90 -28.5t73 -16l186 -39l98 -20q38 -8 111.5 -40t117.5 -70.5t80 -112.5t36 -166q0 -213 -165 -352.5t-415 -139.5q-225 0 -367 105l-28 -101h-121z" />
<glyph unicode="&#x406;" horiz-adv-x="819" d="M41 0v168l49 4q92 8 115.5 46t23.5 126v707q0 92 -23.5 129t-115.5 43l-49 4v168h735v-168l-49 -4q-92 -8 -115.5 -46t-23.5 -126v-707q0 -92 23.5 -129t115.5 -43l49 -4v-168h-735z" />
<glyph unicode="&#x407;" horiz-adv-x="819" d="M37 1741q0 61 40 101t101 40q57 0 100.5 -44t43.5 -103q0 -55 -42 -96.5t-100 -41.5q-59 0 -101 42.5t-42 101.5zM41 0v168l49 4q92 8 115.5 46t23.5 126v707q0 92 -23.5 129t-115.5 43l-49 4v168h735v-168l-49 -4q-92 -8 -115.5 -46t-23.5 -126v-707q0 -92 23.5 -129 t115.5 -43l49 -4v-168h-735zM516 1741q0 61 40 101t101 40q57 0 100.5 -44t43.5 -103q0 -55 -42 -96.5t-100 -41.5q-59 0 -101 42.5t-42 101.5z" />
<glyph unicode="&#x408;" horiz-adv-x="1310" d="M-25 387q0 102 58.5 168t148.5 66q68 0 113 -44.5t45 -111.5q0 -70 -55 -133q-18 -20 -19 -35q0 -45 67.5 -80t151.5 -35q72 0 122 23.5t75 52.5t37 76t14 72.5t2 66.5v578q0 98 -26.5 129.5t-112.5 42.5l-41 4v168h719v-168l-41 -4q-86 -10 -112.5 -42t-26.5 -130v-557 q0 -90 -11.5 -159t-47.5 -139.5t-97 -116.5t-166.5 -76t-249.5 -30q-242 0 -394.5 116t-152.5 298z" />
<glyph unicode="&#x409;" horiz-adv-x="2209" d="M-51 178q0 66 37 109t96 43q106 0 133 -62q8 -35 21.5 -56.5t48.5 -21.5q84 0 145.5 258.5t58.5 548.5q2 125 -24.5 171t-106.5 55l-51 6v166h1307v-164l-37 -4q-86 -8 -112.5 -43t-26.5 -133v-222h194q281 0 427.5 -105.5t146.5 -307.5q0 -215 -160 -328 q-66 -49 -158 -68.5t-254 -19.5h-735v166l51 6q80 8 106.5 53t26.5 172v592q0 133 -14 171t-65 38h-162q-39 0 -55.5 -14.5t-18.5 -41t-6 -67.5q-25 -307 -51.5 -459.5t-104.5 -398.5q-35 -111 -107.5 -178.5t-166.5 -67.5q-383 0 -383 207zM1438 338q0 -94 14 -113 q23 -37 125 -37q104 0 169.5 61.5t65.5 162.5q0 113 -79.5 174t-227.5 61q-35 0 -67 -4v-305z" />
<glyph unicode="&#x40a;" horiz-adv-x="2230" d="M41 0v168l41 4q86 10 112.5 42t26.5 130v707q0 98 -26.5 129.5t-112.5 42.5l-41 4v168h719v-168l-41 -4q-86 -10 -112.5 -42t-26.5 -130v-222h520v222q0 98 -26.5 129.5t-112.5 42.5l-41 4v168h718v-168l-41 -4q-86 -10 -112.5 -42t-26.5 -130v-222h195q281 0 427 -105.5 t146 -307.5q0 -215 -160 -328q-66 -49 -157.5 -68.5t-253.5 -19.5h-735v168l41 4q86 10 112.5 42t26.5 130v301h-520v-301q0 -98 26.5 -130t112.5 -42l41 -4v-168h-719zM1458 338q0 -94 15 -113q23 -37 124 -37q104 0 170 61.5t66 162.5q0 113 -80 174t-227 61q-35 0 -68 -4 v-305z" />
<glyph unicode="&#x40b;" horiz-adv-x="1955" d="M-8 971l153 424h1129l166 -424l-150 -60q-80 133 -133 185q-117 113 -225 112q-31 0 -36 -9t-5 -62v-396q135 123 348 123q211 0 346 -93t135 -271v-156q0 -98 27 -130t113 -42l41 -4v-168h-719v168l41 4q86 8 112.5 42t26.5 130v148q0 57 -56.5 115.5t-148.5 58.5 q-100 0 -154.5 -29t-111.5 -94v-199q0 -102 24 -129q33 -39 115 -43l62 -4v-168h-760v168l61 4q82 4 115 43q25 27 24 129v786q0 47 -6 60.5t-28 13.5q-102 0 -200.5 -81t-152.5 -212z" />
<glyph unicode="&#x40c;" horiz-adv-x="1560" d="M92 0v164l51 6q80 10 106.5 55t26.5 170v602q0 125 -26.5 170t-106.5 56l-51 6v166h709v-172l-60 -6q-74 -8 -91 -50.5t-17 -175.5v-170h164q96 0 146 88t81 262q20 111 98 182.5t176 71.5q123 0 174.5 -55t55.5 -160q8 -158 -103 -159q-72 -2 -101.5 13t-43.5 48 q-6 14 -10 35.5t-6 35t-11.5 25t-25.5 11.5q-43 0 -49 -66q-29 -319 -209 -410q82 -10 149.5 -56t111.5 -114.5t70.5 -133t42.5 -132.5q8 -31 13.5 -55.5t23 -43t50.5 -18.5q41 0 63.5 29t24.5 60l2 28l106 -20l-12 -49q-10 -51 -39 -110.5t-97.5 -110t-160.5 -50.5 q-135 0 -200.5 49.5t-96.5 139.5q-41 123 -69.5 263t-57.5 181q-27 39 -52.5 51.5t-76.5 14.5h-131v-265q0 -133 17.5 -175t90.5 -50l60 -6v-170h-709zM594 1608l215 192q96 84 172 84q59 0 101 -44t42 -105q0 -123 -163 -158l-326 -70z" />
<glyph unicode="&#x40d;" horiz-adv-x="1679" d="M41 0v168l41 4q86 10 112.5 42t26.5 130v707q0 98 -26.5 129.5t-112.5 42.5l-41 4v168h719v-168l-41 -4q-86 -10 -112.5 -42t-26.5 -130v-488l520 467v21q0 98 -26.5 129.5t-112.5 42.5l-41 4v168h718v-168l-41 -4q-86 -10 -112.5 -42t-26.5 -130v-707q0 -98 26.5 -130 t112.5 -42l41 -4v-168h-718v168l41 4q86 10 112.5 42t26.5 130v487l-520 -466v-21q0 -98 26.5 -130t112.5 -42l41 -4v-168h-719zM573 1704q0 59 43 104t101 45q76 0 172 -84l215 -192l-41 -100l-326 69q-164 37 -164 158z" />
<glyph unicode="&#x40e;" horiz-adv-x="1572" d="M80 1233v162h696v-164q-74 -10 -126 -32.5t-34 -55.5q6 -12 19 -41l229 -451l174 338q53 102 49 156q-2 27 -29.5 45t-56.5 24l-100 21v160h612v-166q-53 -8 -75.5 -14.5t-58.5 -28t-66.5 -64.5t-67.5 -114l-356 -693q-123 -203 -217 -273.5t-266 -70.5q-100 0 -167 56.5 t-65 140.5q2 39 53.5 81t96.5 42q31 0 46 -2t40.5 -17.5t38.5 -48.5q8 -23 12 -31t16 -19t27 -11q51 0 99 48t71 95l22 47l-420 789q-27 41 -54 59.5t-59 21.5t-83 11zM426 1769l102 54q113 -125 271 -125q143 0 258 125l108 -54q-43 -127 -146.5 -209.5t-219.5 -82.5 q-230 -1 -373 292z" />
<glyph unicode="&#x40f;" horiz-adv-x="1679" d="M41 0v168l41 4q86 10 112.5 42t26.5 130v707q0 98 -26.5 129.5t-112.5 42.5l-41 4v168h719v-168l-41 -4q-86 -10 -112.5 -42t-26.5 -130v-852h520v852q0 98 -26.5 129.5t-112.5 42.5l-41 4v168h718v-168l-41 -4q-86 -10 -112.5 -42t-26.5 -130v-707q0 -98 26.5 -130 t112.5 -42l41 -4v-168h-643v-315h-299v315h-655z" />
<glyph unicode="&#x410;" horiz-adv-x="1474" d="M-70 0v168l33 4q86 10 133 59.5t107 190.5l405 973h318l401 -1000q63 -133 95 -171t108 -52l33 -4v-168h-748v168l51 4q66 4 92.5 19.5t26.5 46.5q-2 31 -20 84l-62 174h-440l-66 -177q-18 -47 -18 -61q0 -41 35 -58.5t116 -27.5l33 -4v-168h-633zM528 670h308l-152 399z " />
<glyph unicode="&#x411;" horiz-adv-x="1474" d="M41 0v168l41 4q86 10 112.5 42t26.5 130v707q0 98 -26.5 129.5t-112.5 42.5l-41 4v168h1169l195 -420l-141 -72q-119 162 -236 229.5t-276 67.5q-143 0 -162 -35q-10 -14 -10 -71v-265l104 15q106 16 176 16q147 0 262 -46t176.5 -117.5t91 -145.5t29.5 -141 q0 -109 -51 -200t-139 -142q-68 -39 -146.5 -53.5t-222.5 -14.5h-819zM580 287q0 -49 16 -68q33 -37 162 -37q135 0 212 65.5t77 182.5q0 113 -87.5 177.5t-220.5 64.5q-39 0 -100 -10l-59 -11v-364z" />
<glyph unicode="&#x412;" horiz-adv-x="1474" d="M41 0v168l41 4q86 10 112.5 42t26.5 130v707q0 98 -26.5 129.5t-112.5 42.5l-41 4v168h778q160 0 272.5 -27t189.5 -107.5t77 -216.5q0 -94 -52.5 -171.5t-144.5 -122.5q125 -41 191.5 -128t66.5 -212q0 -111 -40 -191t-95 -121t-140 -64.5t-145.5 -28.5t-138.5 -5h-819z M580 287q0 -53 32.5 -79t145.5 -26q135 0 212 65.5t77 182.5t-70 169t-227 52h-170v-364zM580 840h163q127 0 197 46t70 128q0 88 -69 137t-193 49q-80 0 -118 -15.5t-44 -32.5t-6 -58v-254z" />
<glyph unicode="&#x413;" horiz-adv-x="1372" d="M41 0v168l41 4q86 10 112.5 42t26.5 130v707q0 98 -26.5 129.5t-112.5 42.5l-41 4v168h1149l194 -420l-141 -72q-119 162 -235.5 229.5t-276.5 67.5q-104 0 -133 -37q-18 -27 -18 -137v-682q0 -102 24 -129q29 -35 115 -43l55 -4v-168h-733z" />
<glyph unicode="&#x414;" horiz-adv-x="1597" d="M-29 -262l68 436h81q36 0 65.5 5t52 18.5t41 37t32.5 60.5q74 193 96.5 331t24.5 369q0 209 -133 226l-51 6v168h1298v-168l-51 -6q-80 -10 -106.5 -54.5t-26.5 -171.5l2 -608q0 -139 37 -178t145 -35l43 -436h-131q-8 45 -17 80l-17 62q-7 28 -21 48.5t-31.5 33.5 t-46.5 21.5t-66.5 12.5t-91.5 4h-747q-78 0 -121 -6t-76 -22.5t-47 -47.5l-36 -80q-22 -49 -40 -120zM592 317q-37 -129 41 -129h323q47 0 56.5 28t9.5 179v594q0 133 -14.5 171t-65.5 38h-199q-63 0 -61 -123q4 -256 -17.5 -419t-72.5 -339z" />
<glyph unicode="&#x415;" horiz-adv-x="1474" d="M41 0v168l41 4q86 10 112.5 42t26.5 130v707q0 98 -26.5 129.5t-112.5 42.5l-41 4v168h1182l202 -422l-139 -70q-213 307 -489 307q-66 0 -107 -7t-63.5 -17t-32.5 -39t-12 -51.5t-2 -75.5v-174h59q66 0 96.5 4t60 25.5t40 66.5t12.5 127h160v-637h-160 q-18 143 -64.5 184t-146.5 41h-57v-241q0 -162 23.5 -197t146.5 -35q176 0 316 87t273 280l144 -68l-226 -483h-1216z" />
<glyph unicode="&#x416;" horiz-adv-x="2179" d="M-20 287l106 20l2 -28q2 -31 24.5 -60t63.5 -29q33 0 50.5 18.5t22.5 43t13 55.5q6 39 20 85l26 92q13 46 38 90t53.5 79t74.5 59.5t101 30.5q-68 35 -99.5 99.5t-34.5 141.5t-13 169q-6 66 -49 66q-20 0 -28.5 -15.5t-13.5 -45.5t-11 -46q-14 -33 -44 -48t-102 -13 q-111 2 -102 159q4 104 55 159.5t174 55.5q98 0 176 -71.5t99 -182.5l15 -95q9 -58 13 -88t15.5 -67.5t26 -55t38 -31t58.5 -13.5h163l2 180q2 125 -25.5 168t-109.5 54l-51 6v166h709v-172l-60 -6q-74 -8 -91 -50.5t-17 -175.5v-170h164q35 0 58 13.5t37.5 31t26 55 t15.5 67.5t13 88l15 95q20 111 98.5 182.5t176.5 71.5q123 0 174 -55t55 -160q8 -158 -102 -159q-72 -2 -101.5 13t-44.5 48q-6 14 -10 35.5t-6 35t-11 25t-26 11.5q-43 0 -49 -66q-10 -92 -13 -169t-35 -141.5t-99 -99.5q55 -6 101 -30.5t74.5 -59.5t53.5 -79t38 -90 l26 -92q13 -46 20 -85q8 -31 13 -55.5t22.5 -43t50.5 -18.5q41 0 63.5 29t24.5 60l2 28l107 -20l-13 -49q-10 -51 -38.5 -110.5t-97.5 -110t-161 -50.5q-135 0 -200.5 49.5t-96.5 139.5q-41 123 -69.5 263t-57.5 181q-27 39 -52 51.5t-77 14.5h-69v-265q0 -133 17.5 -175 t90.5 -50l60 -6v-170h-709v164l51 6q82 10 109.5 53t25.5 168l-2 275h-69q-51 -2 -77 -14.5t-52 -51.5q-29 -41 -57.5 -181t-69.5 -263q-31 -90 -96.5 -139.5t-200.5 -49.5q-92 0 -161 50.5t-97.5 109.5t-38.5 111z" />
<glyph unicode="&#x417;" horiz-adv-x="1310" d="M45 412l137 75q47 -92 77 -139t79 -94t115.5 -64.5t164.5 -17.5q141 0 224.5 69.5t83.5 166.5q0 35 -1 54t-15.5 59t-40 62.5t-81 41t-133.5 18.5h-266v213h293q180 0 180 209q0 63 -64.5 110.5t-160.5 47.5q-162 0 -293 -131q-35 -35 -108 -168l-148 55l135 416h123 l25 -66q137 92 280 92q240 0 384.5 -96t144.5 -285q0 -80 -23.5 -164.5t-75.5 -109.5q82 -14 134.5 -106.5t52.5 -194.5q0 -223 -158 -358.5t-477 -133.5q-123 0 -218.5 29t-153.5 69t-104 103.5t-67.5 114.5t-44.5 123z" />
<glyph unicode="&#x418;" horiz-adv-x="1679" d="M41 0v168l41 4q86 10 112.5 42t26.5 130v707q0 98 -26.5 129.5t-112.5 42.5l-41 4v168h719v-168l-41 -4q-86 -10 -112.5 -42t-26.5 -130v-488l520 467v21q0 98 -26.5 129.5t-112.5 42.5l-41 4v168h718v-168l-41 -4q-86 -10 -112.5 -42t-26.5 -130v-707q0 -98 26.5 -130 t112.5 -42l41 -4v-168h-718v168l41 4q86 10 112.5 42t26.5 130v487l-520 -466v-21q0 -98 26.5 -130t112.5 -42l41 -4v-168h-719z" />
<glyph unicode="&#x419;" horiz-adv-x="1679" d="M41 0v168l41 4q86 10 112.5 42t26.5 130v707q0 98 -26.5 129.5t-112.5 42.5l-41 4v168h719v-168l-41 -4q-86 -10 -112.5 -42t-26.5 -130v-488l520 467v21q0 98 -26.5 129.5t-112.5 42.5l-41 4v168h718v-168l-41 -4q-86 -10 -112.5 -42t-26.5 -130v-707q0 -98 26.5 -130 t112.5 -42l41 -4v-168h-718v168l41 4q86 10 112.5 42t26.5 130v487l-520 -466v-21q0 -98 26.5 -130t112.5 -42l41 -4v-168h-719zM469 1769l102 54q113 -125 271 -125q143 0 258 125l108 -54q-43 -127 -146.5 -209.5t-219.5 -82.5q-230 -1 -373 292z" />
<glyph unicode="&#x41a;" horiz-adv-x="1560" d="M92 0v164l51 6q80 10 106.5 55t26.5 170v602q0 125 -26.5 170t-106.5 56l-51 6v166h709v-172l-60 -6q-74 -8 -91 -50.5t-17 -175.5v-170h164q96 0 146 88t81 262q20 111 98 182.5t176 71.5q123 0 174.5 -55t55.5 -160q8 -158 -103 -159q-72 -2 -101.5 13t-43.5 48 q-6 14 -10 35.5t-6 35t-11.5 25t-25.5 11.5q-43 0 -49 -66q-29 -319 -209 -410q82 -10 149.5 -56t111.5 -114.5t70.5 -133t42.5 -132.5q8 -31 13.5 -55.5t23 -43t50.5 -18.5q41 0 63.5 29t24.5 60l2 28l106 -20l-12 -49q-10 -51 -39 -110.5t-97.5 -110t-160.5 -50.5 q-135 0 -200.5 49.5t-96.5 139.5q-41 123 -69.5 263t-57.5 181q-27 39 -52.5 51.5t-76.5 14.5h-131v-265q0 -133 17.5 -175t90.5 -50l60 -6v-170h-709z" />
<glyph unicode="&#x41b;" horiz-adv-x="1679" d="M-51 178q0 66 37 109t96 43q106 0 133 -62q8 -35 21.5 -56.5t48.5 -21.5q82 0 143 265.5t61 541.5q0 119 -26.5 168t-104.5 58l-51 6v166h1307v-164l-51 -6q-80 -8 -106.5 -53.5t-26.5 -172.5v-604q0 -125 26.5 -170t106.5 -55l51 -6v-164h-715v166l51 6q80 8 106.5 53 t26.5 172v592q0 133 -14 171t-65 38h-162q-39 0 -55.5 -14.5t-18.5 -41t-6 -67.5q-25 -328 -51.5 -488.5t-100.5 -396.5q-35 -113 -114.5 -166t-237.5 -53q-309 0 -309 207z" />
<glyph unicode="&#x41c;" horiz-adv-x="1925" d="M41 0v168l41 4q86 10 112.5 42t26.5 130v707q0 98 -26.5 129.5t-112.5 42.5l-41 4v168h637l283 -873l290 873h641v-168l-41 -4q-86 -10 -112.5 -42t-26.5 -130v-707q0 -98 26.5 -130t112.5 -42l41 -4v-168h-718v168l40 4q86 10 113 42t27 130v711l-359 -1055h-221 l-352 1069v-725q0 -98 26.5 -130t112.5 -42l41 -4v-168h-561z" />
<glyph unicode="&#x41d;" horiz-adv-x="1679" d="M41 0v168l41 4q86 10 112.5 42t26.5 130v707q0 98 -26.5 129.5t-112.5 42.5l-41 4v168h719v-168l-41 -4q-86 -10 -112.5 -42t-26.5 -130v-201h520v201q0 98 -26.5 129.5t-112.5 42.5l-41 4v168h718v-168l-41 -4q-86 -10 -112.5 -42t-26.5 -130v-707q0 -98 26.5 -130 t112.5 -42l41 -4v-168h-718v168l41 4q86 10 112.5 42t26.5 130v307h-520v-307q0 -98 26.5 -130t112.5 -42l41 -4v-168h-719z" />
<glyph unicode="&#x41e;" horiz-adv-x="1638" d="M72 684q0 319 215 528t542 209q322 0 534 -196.5t212 -515.5q0 -313 -221 -524.5t-551 -211.5q-307 0 -519 194.5t-212 516.5zM465 692q0 -84 16.5 -166t53 -162.5t110.5 -131t174 -50.5q162 0 262.5 144.5t100.5 378.5q0 240 -93.5 373.5t-257 133.5t-265 -144.5 t-101.5 -375.5z" />
<glyph unicode="&#x41f;" horiz-adv-x="1679" d="M41 0v168l41 4q86 10 112.5 42t26.5 130v707q0 98 -26.5 129.5t-112.5 42.5l-41 4v168h1597v-168l-41 -4q-86 -10 -112.5 -42t-26.5 -130v-707q0 -98 26.5 -130t112.5 -42l41 -4v-168h-718v168l41 4q86 10 112.5 42t26.5 130v852h-520v-852q0 -98 26.5 -130t112.5 -42 l41 -4v-168h-719z" />
<glyph unicode="&#x420;" horiz-adv-x="1351" d="M41 0v168l41 4q86 10 112.5 42t26.5 130v707q0 98 -26.5 129.5t-112.5 42.5l-41 4v168h735q131 0 228.5 -18.5t178.5 -62.5t123 -128t42 -207q0 -203 -146.5 -308.5t-427.5 -105.5h-194v-221q0 -98 26.5 -130t112.5 -42l41 -4v-168h-719zM580 752q33 -4 67 -4 q147 0 227 61t80 174q0 100 -65.5 161.5t-169.5 61.5q-51 0 -81 -8t-42 -31.5t-14 -44t-2 -65.5v-305z" />
<glyph unicode="&#x421;" horiz-adv-x="1515" d="M72 698q0 96 21.5 192.5t73.5 193t130 171t201 120.5t274 46q188 0 342 -73l16 47h142l172 -484l-158 -59q-111 193 -170 256q-141 145 -291 145q-166 0 -263 -149.5t-97 -403.5q0 -150 38 -261t100.5 -167.5t126 -83t128.5 -26.5q268 0 453 323l172 -77 q-74 -197 -259.5 -316t-416.5 -119q-322 0 -528.5 204t-206.5 521z" />
<glyph unicode="&#x422;" horiz-adv-x="1433" d="M-8 971l153 424h1129l166 -424l-150 -60q-47 78 -86 131.5t-115.5 109.5t-156.5 56q-29 0 -35 -11t-6 -60v-793q0 -35 1 -53.5t8 -44t21.5 -38.5t42 -23.5t66.5 -12.5l62 -4v-168h-760v168l61 4q49 2 80 15.5t43 42t14 50t2 64.5v786q0 53 -6 65.5t-28 12.5 q-102 0 -200.5 -83t-152.5 -214z" />
<glyph unicode="&#x423;" horiz-adv-x="1572" d="M80 1233v162h696v-164q-74 -10 -126 -32.5t-34 -55.5q6 -12 19 -41l229 -451l174 338q53 102 49 156q-2 27 -29.5 45t-56.5 24l-100 21v160h612v-166q-53 -8 -75.5 -14.5t-58.5 -28t-66.5 -64.5t-67.5 -114l-356 -693q-123 -203 -217 -273.5t-266 -70.5q-100 0 -167 56.5 t-65 140.5q2 39 53.5 81t96.5 42q31 0 46 -2t40.5 -17.5t38.5 -48.5q8 -23 12 -31t16 -19t27 -11q51 0 99 48t71 95l22 47l-420 789q-27 41 -54 59.5t-59 21.5t-83 11z" />
<glyph unicode="&#x424;" horiz-adv-x="1595" d="M20 696q0 86 42 156t106.5 113t146.5 72.5t158 41t145 11.5q0 63 -24 90q-29 37 -115 43l-49 4v168h735v-168l-49 -4q-86 -6 -115 -43q-25 -27 -24 -90q70 0 145.5 -11.5t157.5 -41t146.5 -72.5t106.5 -113t42 -156t-42 -155.5t-106.5 -112.5t-146.5 -72.5t-157.5 -41 t-145.5 -11.5q0 -61 24 -88q29 -37 115 -43l49 -4v-168h-735v168l49 4q86 6 115 43q25 27 24 88q-70 0 -145.5 11.5t-157.5 41t-146.5 72.5t-106.5 112.5t-42 155.5zM352 696q0 -190 266 -190v383q-45 0 -100 -13.5t-110.5 -60.5t-55.5 -119zM977 506q266 0 266 190 q0 72 -55 119t-110.5 60.5t-100.5 13.5v-383z" />
<glyph unicode="&#x425;" horiz-adv-x="1597" d="M2 0v168q137 10 252 151l311 383l-241 322q-96 129 -140.5 162t-142.5 41v168h762v-168q-129 -6 -129 -43q0 -20 24 -56l152 -215l149 211q18 41 19 58q0 45 -98 45h-33v168h641v-168q-207 -29 -361 -226l-200 -253l276 -361q106 -123 158.5 -164t124.5 -51l51 -4v-168 h-801v168l41 4q96 8 96 43q0 10 -24 49l-205 289l-176 -254q-31 -45 -31 -72q0 -47 109 -55l51 -4v-168h-635z" />
<glyph unicode="&#x426;" horiz-adv-x="1712" d="M41 0v168l41 4q86 10 112.5 42t26.5 130v707q0 98 -26.5 129.5t-112.5 42.5l-41 4v168h719v-168l-41 -4q-86 -10 -112.5 -42t-26.5 -130v-852h520v852q0 98 -26.5 129.5t-112.5 42.5l-41 4v168h718v-168l-41 -4q-86 -10 -112.5 -42t-26.5 -130v-682q0 -100 27.5 -135 t111.5 -37l43 -2l72 -418l-141 -41q-39 115 -64.5 174t-63.5 75.5t-145 16.5z" />
<glyph unicode="&#x427;" horiz-adv-x="1609" d="M20 1227v168h719v-168l-41 -4q-86 -10 -112.5 -42t-26.5 -130v-193q0 -57 56.5 -115.5t148.5 -58.5q100 0 154.5 28.5t111.5 94.5v244q0 98 -26.5 129.5t-112.5 42.5l-41 4v168h719v-168l-41 -4q-86 -10 -112.5 -42t-26.5 -130v-707q0 -98 26.5 -130t112.5 -42l41 -4 v-168h-719v168l41 4q86 10 112.5 42t26.5 130v264q-135 -123 -348 -123q-211 0 -346 93.5t-135 271.5v201q0 98 -27 129.5t-113 42.5z" />
<glyph unicode="&#x428;" horiz-adv-x="2334" d="M41 0v168l41 4q86 10 112.5 42t26.5 130v707q0 98 -26.5 129.5t-112.5 42.5l-41 4v168h719v-168l-41 -4q-86 -10 -112.5 -42t-26.5 -130v-852l407 -2l2 854q0 98 -26.5 129.5t-112.5 42.5l-41 4v168h719v-168l-41 -4q-86 -8 -111.5 -41t-25.5 -131v-854l405 2v852 q0 98 -26.5 129.5t-112.5 42.5l-41 4v168h719v-168l-41 -4q-86 -10 -112.5 -42t-26.5 -130l-3 -707q0 -98 27 -130t113 -42l41 -4v-168h-2251z" />
<glyph unicode="&#x429;" horiz-adv-x="2367" d="M41 0v168l41 4q86 10 112.5 42t26.5 130v707q0 98 -26.5 129.5t-112.5 42.5l-41 4v168h719v-168l-41 -4q-86 -10 -112.5 -42t-26.5 -130v-852l407 -2l2 854q0 98 -26.5 129.5t-112.5 42.5l-41 4v168h719v-168l-41 -4q-86 -10 -112.5 -42t-26.5 -130l2 -854l405 2v852 q0 98 -26.5 129.5t-112.5 42.5l-41 4v168h719v-168l-41 -4q-86 -10 -112.5 -42t-26.5 -130v-682q0 -100 27.5 -135t111.5 -37l43 -2l71 -418l-141 -41q-39 115 -64.5 174t-63.5 75.5t-144 16.5z" />
<glyph unicode="&#x42a;" horiz-adv-x="1773" d="M-20 975l194 420h991v-168l-41 -4q-86 -10 -112.5 -42t-26.5 -130v-222l80 17q78 16 131 16q264 0 410.5 -120.5t146.5 -325.5q0 -215 -160 -328q-66 -49 -158 -68.5t-253 -19.5h-736v168l41 4q88 10 114 40t26 126v688q0 111 -19 137q-27 37 -133 37q-84 0 -134 -28.5 t-96 -95.5l-124 -173zM985 338q0 -94 14 -113q23 -37 125 -37q104 0 170 61.5t66 162.5q0 121 -63.5 194.5t-202.5 73.5q-18 0 -54 -10.5t-55 -26.5v-305z" />
<glyph unicode="&#x42b;" horiz-adv-x="2125" d="M41 0v168l41 4q86 10 112.5 42t26.5 130v707q0 98 -26.5 129.5t-112.5 42.5l-41 4v168h719v-168l-41 -4q-86 -10 -112.5 -42t-26.5 -130v-222l79 17q78 16 132 16q264 0 410.5 -120.5t146.5 -325.5q0 -215 -160 -328q-66 -49 -158 -68.5t-254 -19.5h-735zM580 338 q0 -94 14 -113q23 -37 125 -37q104 0 169.5 61.5t65.5 162.5q0 121 -63.5 194.5t-202.5 73.5q-18 0 -54 -10.5t-54 -26.5v-305zM1329 0v168l49 4q86 6 115 43q25 27 25 129v707q0 102 -25 129q-29 37 -115 43l-49 4v168h756v-168l-70 -4q-86 -6 -114 -43q-25 -27 -25 -129 v-707q0 -102 25 -129q29 -37 114 -43l49 -4v-168h-735z" />
<glyph unicode="&#x42c;" horiz-adv-x="1394" d="M41 0v168l41 4q86 10 112.5 42t26.5 130v707q0 98 -26.5 129.5t-112.5 42.5l-41 4v168h719v-168l-41 -4q-86 -10 -112.5 -42t-26.5 -130v-222l79 17q78 16 132 16q264 0 410.5 -120.5t146.5 -325.5q0 -215 -160 -328q-66 -49 -158 -68.5t-254 -19.5h-735zM580 338 q0 -94 14 -113q23 -37 125 -37q104 0 169.5 61.5t65.5 162.5q0 121 -63.5 194.5t-202.5 73.5q-18 0 -54 -10.5t-54 -26.5v-305z" />
<glyph unicode="&#x42d;" horiz-adv-x="1515" d="M72 408l168 86q86 -145 153 -205q137 -127 303 -127q131 0 234 90q147 129 160 403h-510v189h501q-27 193 -119 301t-233 108q-150 0 -291 -145q-59 -63 -170 -256l-157 59l172 484h141l16 -47q154 74 342 73q256 0 432 -133q127 -96 198 -251.5t71 -338.5 q0 -317 -207 -521t-528 -204q-231 0 -416.5 119t-259.5 316z" />
<glyph unicode="&#x42e;" horiz-adv-x="2285" d="M41 0v168l41 4q86 10 112.5 42t26.5 130v707q0 98 -26.5 129.5t-112.5 42.5l-41 4v168h719v-168l-41 -4q-86 -10 -112.5 -42t-26.5 -130v-201h194q55 256 257 413.5t485 157.5q299 0 509 -176q236 -199 236 -536q0 -313 -221 -524.5t-551 -211.5q-260 0 -459 148 q-258 195 -270 530h-180v-307q0 -98 26.5 -130t112.5 -42l41 -4v-168h-719zM1151 692q0 -240 100 -383q41 -59 110 -93t144 -34q162 0 262.5 144.5t100.5 378.5q0 240 -93.5 373.5t-257 133.5t-265 -144.5t-101.5 -375.5z" />
<glyph unicode="&#x42f;" horiz-adv-x="1357" d="M-94 287l106 20l2 -37q2 -35 24.5 -70.5t63.5 -35.5q45 0 68 22.5t26 54t9 66.5q20 125 70.5 177.5t142.5 80.5q-408 55 -408 414q0 215 160 328q66 49 158 68.5t254 19.5h735v-168l-41 -4q-86 -10 -112.5 -42t-26.5 -130v-707q0 -98 26.5 -130t112.5 -42l41 -4v-168 h-719v168l41 4q86 10 112.5 42t26.5 130v221h-82q-63 0 -132.5 -129t-71.5 -280q-2 -88 -76 -138.5t-183 -50.5q-111 0 -185.5 50.5t-101 109.5t-32.5 111zM403 983q0 -113 80 -174t228 -61q35 0 67 4v305q0 94 -14 112q-23 37 -125 37q-104 0 -170 -61.5t-66 -161.5z" />
<glyph unicode="&#x430;" d="M57 262q0 233 308 326q133 41 299 55v105q0 111 -129 110q-49 0 -90.5 -20.5t-41.5 -69.5q0 -68 -28 -102q-45 -55 -129 -56q-63 0 -107.5 44t-44.5 110q0 123 128 203t327 80q446 0 446 -338v-404q0 -115 43 -115l15 7q14 6 37 28l114 -139q-131 -104 -260 -104 q-70 0 -134.5 28.5t-100.5 75.5q-154 -104 -326 -104q-145 0 -235.5 77.5t-90.5 202.5zM406 305q0 -45 26.5 -73.5t69.5 -28.5q84 0 162 71v205q-258 -47 -258 -174z" />
<glyph unicode="&#x431;" horiz-adv-x="1253" d="M63 528q4 676 343 846q90 45 179 65.5t143 17.5t108 -1q63 0 139 60h164q-12 -98 -71.5 -203t-149.5 -121q-66 -12 -188 -17.5t-189 -27.5q-127 -43 -202 -100.5t-124 -182.5q74 104 188.5 143.5t217.5 39.5q264 0 420.5 -145.5t156.5 -393.5q0 -240 -154.5 -383 t-412.5 -143q-262 0 -415 147t-153 399zM436 504q0 -324 197 -324q193 0 192 320q0 338 -192 338q-197 0 -197 -334z" />
<glyph unicode="&#x432;" horiz-adv-x="1277" d="M41 0v170h35q125 0 125 141v402q0 78 -21.5 107.5t-97.5 33.5l-41 2v172h602q309 0 426 -76q113 -74 113 -184q0 -80 -50.5 -145.5t-146.5 -71.5q119 -14 188.5 -84t69.5 -166q0 -80 -50 -146.5t-140 -105.5q-115 -49 -369 -49h-643zM535 254q0 -35 16 -51 q27 -20 111 -21q109 0 158.5 33t49.5 117q0 41 -20.5 67.5t-64.5 38t-85 14.5t-106 3h-59v-201zM535 631h92q123 0 165 22.5t42 83.5q0 57 -41 84t-142 27q-80 0 -96 -17q-20 -18 -20 -75v-125z" />
<glyph unicode="&#x433;" horiz-adv-x="999" d="M33 0v166l65 14q57 12 73.5 40t16.5 116v356q0 88 -15 116t-75 40l-65 14v166h915l82 -338l-164 -37q-25 47 -41 72t-47 47q-92 68 -200 68h-58v-504q0 -88 15.5 -114.5t74.5 -41.5l64 -14v-166h-641z" />
<glyph unicode="&#x434;" horiz-adv-x="1384" d="M25 -223l45 397l149 -2q39 0 73 49t56.5 136t36.5 166t25 171q8 66 -24 110t-107 50l-52 4v170h1114v-170l-30 -4q-80 -10 -105.5 -41t-25.5 -119v-366q0 -90 22.5 -119t102.5 -33l30 -2l35 -397l-121 -23q-23 68 -43 110t-40.5 70.5t-44 41t-53.5 19.5t-67.5 5t-89.5 0 h-422q-43 2 -77.5 0t-61 -3t-50.5 -11.5t-42 -24.5t-35.5 -43t-35 -67.5t-37.5 -96.5zM516 229q-10 -35 12.5 -41t46.5 0h144q80 0 105.5 29t25.5 119v354q0 94 -14.5 122t-65.5 28h-88q-39 0 -56.5 -16.5t-21.5 -71.5q-4 -72 -9 -132.5t-12.5 -115.5t-23.5 -123t-43 -152z " />
<glyph unicode="&#x435;" d="M63 518q0 231 152 380t387 149q147 0 265 -60.5t177 -167.5q53 -96 54 -299h-664q0 -154 63.5 -235.5t184.5 -81.5q152 0 268 174l172 -84q-41 -66 -72.5 -107t-92 -95t-145.5 -81.5t-191 -27.5q-242 0 -400 151.5t-158 384.5zM446 678h289q-2 96 -33.5 138t-101.5 42 t-110 -47t-44 -133z" />
<glyph unicode="&#x436;" horiz-adv-x="1937" d="M-20 207l143 16v-20q-2 -20 11 -41t42 -21t41 13.5t17.5 48.5t9.5 45q86 258 346 278q-100 37 -136 97.5t-51 169.5q0 12 -3 25t-6 24.5t-10 18.5t-19 7q-16 0 -24.5 -11t-16 -32.5t-13.5 -31.5q-27 -43 -110 -43q-111 0 -103 112q6 86 47 138.5t148 52.5q137 0 186 -30 t115 -151q27 -47 40 -124.5t35.5 -114.5t84.5 -37h51v102q2 57 1 92t-19.5 49.5t-69.5 18.5l-51 4v166h606v-166l-43 -4q-51 -4 -71.5 -23.5t-22.5 -41t-2 -95.5v-102h51q61 0 83.5 37t36 114.5t39.5 124.5q66 121 115 151t187 30q106 0 147 -52.5t47 -138.5 q8 -113 -102 -112q-84 0 -111 43q-6 10 -13 31.5t-15.5 32.5t-24.5 11q-12 0 -19.5 -7t-10.5 -18.5t-6 -24.5t-3 -25q-14 -109 -50 -169.5t-136 -97.5q260 -20 346 -278q4 -10 9 -45t17.5 -48.5t41 -13.5t42 20.5t11.5 41.5v20l143 -16l-4 -23q-4 -25 -22.5 -59.5t-47.5 -68 t-87 -57.5t-134 -24q-119 0 -169 21.5t-114 114.5q-55 80 -75.5 189.5t-51.5 133.5q-8 6 -16 19.5t-23.5 15.5t-62.5 2h-18v-121q0 -92 31.5 -134t72.5 -46l35 -4v-166h-606v166l51 8q29 4 44 11.5t24.5 19.5t12.5 29.5t4 44t1 61.5l2 131h-19q-47 0 -62 -2t-23.5 -15.5 t-16.5 -19.5q-31 -25 -51.5 -134.5t-75.5 -188.5q-63 -92 -113.5 -114t-169.5 -22q-76 0 -134 24t-86.5 57.5t-47 68.5t-22.5 59z" />
<glyph unicode="&#x437;" horiz-adv-x="1064" d="M68 301l135 70q20 -47 34.5 -72t47 -60.5t83 -52t119.5 -16.5q104 2 158.5 44t54.5 105q0 160 -223 160h-149v148h149q57 0 94 12t49.5 35.5t15.5 39t1 40.5q-2 53 -42 79.5t-99 24.5q-76 -2 -123 -37t-94 -121l-168 25l39 303h129l24 -49q92 68 266 68q170 2 271.5 -71 t101.5 -204q0 -174 -80 -205q59 -20 102.5 -82.5t43.5 -167.5q0 -137 -121 -237t-328 -100q-199 0 -321.5 84.5t-169.5 236.5z" />
<glyph unicode="&#x438;" horiz-adv-x="1474" d="M33 0v166l65 14q57 12 73.5 40t16.5 116v356q0 88 -15 116t-75 40l-65 14v166h641v-166l-64 -14q-59 -14 -74.5 -41t-15.5 -115v-237l432 284q0 47 -16 72t-74 37l-63 14v166h641v-166l-66 -14q-59 -12 -74.5 -40t-15.5 -116v-356q0 -88 16.5 -115.5t73.5 -40.5l66 -14 v-166h-641v166l63 14q59 14 74.5 41t15.5 115v223l-432 -285q0 -37 15.5 -57t74.5 -37l64 -14v-166h-641z" />
<glyph unicode="&#x439;" horiz-adv-x="1474" d="M33 0v166l65 14q57 12 73.5 40t16.5 116v356q0 88 -15 116t-75 40l-65 14v166h641v-166l-64 -14q-59 -14 -74.5 -41t-15.5 -115v-237l432 284q0 47 -16 72t-74 37l-63 14v166h641v-166l-66 -14q-59 -12 -74.5 -40t-15.5 -116v-356q0 -88 16.5 -115.5t73.5 -40.5l66 -14 v-166h-641v166l63 14q59 14 74.5 41t15.5 115v223l-432 -285q0 -37 15.5 -57t74.5 -37l64 -14v-166h-641zM367 1403l102 53q113 -125 270 -125q143 0 258 125l109 -53q-43 -127 -146.5 -210t-220.5 -83q-229 0 -372 293z" />
<glyph unicode="&#x43a;" horiz-adv-x="1361" d="M41 0v166l51 8q68 10 87.5 43t19.5 125v356q0 96 -15.5 125t-91.5 35l-51 4v166h606v-166l-43 -4q-49 -4 -65.5 -19.5t-15.5 -49t3 -91.5v-102h52q63 0 93.5 35t58.5 119t48 122q66 121 115 151t186 30q106 0 147.5 -52.5t47.5 -138.5q8 -113 -103 -112q-84 0 -110 43 q-6 10 -13.5 31.5t-15.5 32.5t-24 11q-12 0 -19.5 -7t-10.5 -18.5t-6 -24.5t-3 -25q-25 -193 -228 -267q158 -12 256.5 -95t130.5 -183q4 -10 9.5 -45t17.5 -48.5t41 -13.5t42 20.5t11 41.5v20l144 -16l-4 -23q-4 -25 -22.5 -59.5t-47.5 -68t-87 -57.5t-134 -24 q-119 0 -169 21.5t-114 114.5q-55 80 -75.5 189.5t-51.5 133.5q-35 29 -51 33t-92 4h-19v-121q0 -172 86 -180l35 -4v-166h-606z" />
<glyph unicode="&#x43b;" horiz-adv-x="1572" d="M66 137q0 47 37.5 87t95.5 40q106 0 133 -43q6 -10 11 -32.5t14.5 -33t33.5 -10.5q80 0 128 161t67 388q2 88 -26 121t-107 39l-52 4v170h1117v-170l-45 -6q-78 -10 -96.5 -40t-18.5 -124v-346q0 -94 17.5 -124t90.5 -42l52 -8v-168h-646v166l21 4q84 16 108.5 42 t24.5 110v368q0 94 -14.5 122t-65.5 28h-74q-66 0 -77 -88l-28 -250q-11 -106 -36.5 -200.5t-71.5 -168.5q-61 -102 -127.5 -130t-246.5 -28q-127 0 -173 41t-46 121z" />
<glyph unicode="&#x43c;" horiz-adv-x="1787" d="M45 0v166l66 14q57 12 73.5 40t16.5 116v356q0 88 -15.5 116t-74.5 40l-66 14v166h582l266 -645l283 645h567v-166l-66 -14q-59 -12 -74.5 -40t-15.5 -116v-356q0 -88 16.5 -115.5t73.5 -40.5l66 -14v-166h-641v166l63 14q59 14 74.5 41t15.5 115v346l-321 -682h-207 l-317 682v-346q0 -86 16 -113.5t74 -42.5l63 -14v-166h-518z" />
<glyph unicode="&#x43d;" horiz-adv-x="1425" d="M33 0v166l65 14q57 12 73.5 40t16.5 116v356q0 88 -15 116t-75 40l-65 14v166h641v-166l-64 -14q-59 -14 -74.5 -41t-15.5 -115v-88h387v88q0 88 -15 115t-75 41l-63 14v166h641v-166l-66 -14q-59 -12 -74.5 -40t-15.5 -116v-356q0 -88 16.5 -115.5t73.5 -40.5l66 -14 v-166h-641v166l63 14q59 14 74.5 41t15.5 115v88h-387v-88q0 -88 15.5 -114.5t74.5 -41.5l64 -14v-166h-641z" />
<glyph unicode="&#x43e;" horiz-adv-x="1269" d="M63 528q0 231 154 375t404 144q264 0 420.5 -145.5t156.5 -393.5q0 -240 -154.5 -383t-412.5 -143q-262 0 -415 147t-153 399zM436 504q0 -324 197 -324q193 0 192 320q0 338 -192 338q-197 0 -197 -334z" />
<glyph unicode="&#x43f;" horiz-adv-x="1437" d="M33 0v166l65 14q57 12 73.5 40t16.5 116v356q0 88 -15 116t-75 40l-65 14v166h1366v-166l-66 -14q-59 -12 -74.5 -40t-15.5 -116v-356q0 -88 16.5 -115.5t73.5 -40.5l66 -14v-166h-641v166l63 14q59 14 74.5 41t15.5 115v504h-391v-504q0 -88 15.5 -114.5t74.5 -41.5 l64 -14v-166h-641z" />
<glyph unicode="&#x440;" horiz-adv-x="1310" d="M45 -270l59 14q59 14 75 41t16 115v731q0 94 -22.5 127t-90.5 41l-37 4v166l320 59h127v-59q164 78 274 78q205 0 345 -149.5t140 -367.5q0 -238 -136 -393t-343 -155q-100 0 -246 57v-139q0 -88 15.5 -115t74.5 -41l60 -14v-166h-631v166zM526 254q70 -63 158 -64 q104 0 161.5 91.5t57.5 255.5q0 143 -53 227t-145 84q-104 0 -179 -84v-510z" />
<glyph unicode="&#x441;" d="M63 514q0 242 154 387.5t408 145.5q190 0 322 -87.5t132 -214.5q0 -72 -49 -119.5t-121 -47.5q-66 0 -118 43t-52 96v59q0 33 -34.5 57.5t-79.5 24.5q-94 0 -145.5 -85t-51.5 -241q0 -160 66.5 -256t177.5 -96q178 0 289 201l165 -86q-61 -147 -197 -230t-319 -83 q-244 0 -395.5 148t-151.5 384z" />
<glyph unicode="&#x442;" horiz-adv-x="1228" d="M-4 690l82 338h1073l82 -338l-164 -37q-25 47 -41 72t-47 47q-92 68 -201 68v-504q0 -88 15.5 -114.5t74.5 -41.5l64 -14v-166h-641v166l65 14q57 12 74 40t17 116v504q-109 0 -201 -68q-31 -23 -47.5 -47.5t-40.5 -71.5z" />
<glyph unicode="&#x443;" horiz-adv-x="1269" d="M12 860v168h637v-168h-22q-113 0 -113 -51q0 -8 8 -41l152 -385l145 381q8 16 8 35q0 61 -94 61h-24v168h546v-168l-24 -4q-80 -20 -120 -57t-85 -135l-352 -760q-29 -61 -48.5 -98t-58.5 -92.5t-77.5 -87.5t-100 -55.5t-133.5 -23.5q-98 0 -159.5 50.5t-61.5 130.5 q0 72 46 120t115.5 48t135.5 -60q16 -16 28 -16q18 0 62.5 60.5t77.5 129.5l-310 699q-39 86 -63.5 112.5t-81.5 34.5z" />
</font>
</defs>
</svg>
