<?xml version="1.0" standalone="no"?>
<!DOCTYPE svg PUBLIC "-//W3C//DTD SVG 1.1//EN" "http://www.w3.org/Graphics/SVG/1.1/DTD/svg11.dtd" >
<svg xmlns="http://www.w3.org/2000/svg">
<metadata>
This is a custom SVG webfont generated by Font Squirrel.
Copyright   : Copyright URW copyright 1999 by URW Design  Development Cyrillic glyphs added by Valek Filippov copyright 20012002 Vietnamese characters were added by Han The Thanh copyright 2006 2008 for TeX Gyre extensions by B Jackowski and JM Nowacki on behalf of TeX users groups This work is released under the GUST Font License   see httptugorgfontslicensesGUSTFONTLICENSEtxt for details
</metadata>
<defs>
<font id="webfontEHjKbFyV" horiz-adv-x="1392" >
<font-face units-per-em="2048" ascent="1612" descent="-436" />
<missing-glyph horiz-adv-x="696" />
<glyph unicode="IJ" horiz-adv-x="2181" d="M84 0l31 166l45 4q82 12 114.5 46t49.5 128l129 707q6 39 6 69q0 49 -23.5 74t-85.5 31l-43 4l29 166h713l-31 -166l-45 -4q-82 -10 -115 -44t-49 -130l-129 -707q-6 -39 -6 -70q0 -51 23.5 -75.5t84.5 -28.5l43 -4l-30 -166h-711zM893 336q0 113 69.5 191.5t170.5 78.5 q72 0 119.5 -46t47.5 -114q0 -80 -71 -131q-31 -23 -38 -32t-7 -25q0 -41 53 -72.5t123 -31.5q43 0 80 10t64.5 31.5t49 41t38 56.5t26.5 57.5t19.5 62.5t12.5 53t9 48l98 537q0 6 3 30.5t3 36.5q0 49 -23.5 76t-84.5 31l-70 4l31 166h737l-31 -166l-45 -4 q-80 -8 -112.5 -43t-50.5 -131l-111 -600q-90 -477 -631 -478q-215 0 -347 100.5t-132 262.5z" />
<glyph unicode="ij" horiz-adv-x="1460" d="M229 807l31 168q201 10 393 72h107l-117 -648q-20 -123 -20 -125q0 -29 23.5 -50t55.5 -21q41 0 132 45l86 -115q-178 -152 -367 -151q-119 0 -192.5 56t-73.5 146q0 29 12 101l68 372q4 41 4 56q0 49 -27 71.5t-90 22.5h-25zM487 1341q0 78 61.5 139.5t139.5 61.5 q61 0 99 -38t38 -99q0 -76 -63.5 -139.5t-138.5 -63.5q-57 0 -96.5 40t-39.5 99zM510 -256q0 57 45 101t102 44q84 0 156 -94q37 -53 78 -53q70 0 103.5 58.5t60.5 199.5l119 655q8 49 8 66q0 43 -27 64.5t-92 21.5h-25l31 168q201 10 393 72h107l-178 -977 q-8 -45 -14.5 -76t-26 -88.5t-44 -96t-67.5 -87t-97.5 -78t-135 -50t-179.5 -20.5q-137 0 -227 48t-90 122zM1296 1341q0 78 61.5 139.5t139.5 61.5q61 0 99 -38t38 -99q0 -76 -63.5 -139.5t-138.5 -63.5q-57 0 -96.5 40t-39.5 99z" />
<glyph unicode="fk" horiz-adv-x="2293" d="M-391 -266q0 63 51 111.5t119 48.5q45 0 72.5 -14.5t76.5 -65.5q41 -43 92 -43q39 0 72 13t60 46l47 59q20 27 40 86l29 90q10 30 26.5 104.5t20.5 96.5l19 101l90 495h-172l33 185h174q23 123 60.5 194.5t109.5 132.5q94 82 219 117t317 35q274 0 527 -27l-174 -964 q150 238 315 362q223 168 395 168q74 0 121 -37t47 -94q0 -66 -43 -108t-112 -42q-59 0 -105.5 30t-58.5 30q-57 0 -162 -107q23 -193 48.5 -284t70.5 -154q57 -78 133 -78q35 0 67.5 14.5t65.5 34.5l86 -120q-55 -63 -175 -115.5t-208 -52.5q-164 0 -277 151 q-57 74 -78.5 149.5t-21.5 196.5v19q-104 -129 -137 -244l-70 -254h-323l202 1116q10 66 11 105q0 82 -48.5 121.5t-173.5 39.5q-143 0 -225 -98q-29 -35 -43 -77t-37 -160h203l-33 -185h-204l-91 -495l-14 -79q-4 -22 -24.5 -97.5t-40 -120.5t-57.5 -119t-81 -123 t-108.5 -101.5t-141.5 -82.5q-168 -70 -344 -70q-106 0 -171.5 44t-65.5 116z" />
<glyph unicode="&#xfb00;" horiz-adv-x="1720" d="M-393 -266q0 66 52 113t126 47q70 0 131 -64q37 -39 54.5 -49t49.5 -10q45 0 84 19.5t67 61.5t48.5 83.5t38.5 108.5t28 114l23 121l107 583h-172l32 185h173q39 225 195.5 352t397.5 127q125 0 198 -44t73 -122q0 -57 -44 -94t-110 -37q-53 0 -85 17.5t-64 62.5 q-27 37 -68 37q-63 0 -98 -52.5t-58 -173.5l-14 -73h512q39 225 195.5 352t398.5 127q125 0 197.5 -44t72.5 -122q0 -53 -47 -92t-106 -39q-53 0 -85 17.5t-65 62.5q-27 37 -67 37q-63 0 -98 -52.5t-58 -173.5l-14 -73h196l-35 -185h-194l-68 -366q-2 -8 -4 -29 q-18 -98 -30.5 -154.5t-43 -163t-65.5 -173t-97.5 -151.5t-136 -133t-183 -83t-240.5 -35q-127 0 -196 42t-69 118q0 66 52.5 113t126.5 47q70 0 131 -64q37 -39 54 -49t50 -10q45 0 84 19.5t66.5 61.5t48 83.5t39 108.5t27.5 114l24 121l106 583h-512l-67 -366 q-2 -8 -4 -25l-23 -119q-8 -43 -29.5 -126t-41 -135t-55.5 -128t-76 -125t-98 -103t-125.5 -86t-157 -53.5t-191.5 -21.5q-127 0 -195.5 42t-68.5 118z" />
<glyph unicode="&#xfb01;" horiz-adv-x="1679" d="M-391 -266q0 66 50 113t122 47q45 0 72.5 -15.5t76.5 -64.5q43 -43 88 -43t83 21.5t63.5 46t51.5 83.5l39 92q13 33 31.5 117t23.5 112l22 122l90 497h-172l35 185h172q61 258 229 368.5t500 110.5q207 0 321.5 -57.5t114.5 -161.5q0 -72 -53 -120t-131 -48 q-125 0 -178 133q-43 111 -168 110q-152 0 -232 -98q-29 -35 -44 -81t-36 -156h828l-131 -719q-6 -35 -7 -54q0 -33 23 -52t59 -19q45 0 107 37l82 -115q-98 -82 -178 -117t-170 -35q-115 0 -189 54.5t-74 138.5q0 41 23 162l66 360q8 41 8 78q0 53 -36 74.5t-132 21.5h-314 l-90 -497l-22 -116q-8 -42 -38 -136.5t-62.5 -154.5t-94 -140t-136.5 -128t-186.5 -82t-244.5 -34q-127 0 -194.5 42t-67.5 118z" />
<glyph unicode="&#xfb02;" horiz-adv-x="1679" d="M-391 -266q0 63 51 111.5t119 48.5q45 0 72.5 -14.5t76.5 -65.5q41 -43 92 -43q43 0 80 21.5t63.5 50t52.5 86t40 95t32 115.5l24 112q7 34 22 116l90 495h-172l33 185h174q49 256 219 367.5t487 111.5q211 0 525 -39l-211 -1153q-6 -31 -6 -53q0 -39 20 -61.5t53 -22.5 q49 0 111 47l84 -117q-100 -84 -180 -119t-170 -35q-115 0 -186.5 55.5t-71.5 143.5q0 41 22 162l143 782q10 66 11 105q0 82 -48.5 121.5t-173.5 39.5q-143 0 -225 -98q-29 -35 -43 -77t-37 -160h203l-33 -185h-204l-91 -495q-8 -51 -16 -86t-35.5 -125t-62.5 -157 t-99.5 -152t-143.5 -140t-196.5 -94t-257.5 -39q-106 0 -171.5 44t-65.5 116z" />
<glyph unicode="&#xfb03;" horiz-adv-x="2539" d="M-393 -266q0 66 52 113t126 47q70 0 131 -64q37 -39 54.5 -49t49.5 -10q45 0 84 19.5t67 61.5t48.5 83.5t38.5 108.5t28 114l23 121l107 583h-172l32 185h173q39 225 195.5 352t397.5 127q125 0 198 -44t73 -122q0 -57 -44 -94t-110 -37q-53 0 -85 17.5t-64 62.5 q-27 37 -68 37q-63 0 -98 -52.5t-58 -173.5l-14 -73h520q29 121 70 194.5t108 134.5q174 150 551 150q207 0 322 -57.5t115 -161.5q0 -72 -53.5 -120t-131.5 -48q-49 0 -86 16t-52 39t-27.5 44.5t-12.5 33.5q-43 111 -168 110q-152 0 -231 -98q-29 -33 -44.5 -79t-35.5 -158 h827l-131 -719q-6 -33 -6 -54q0 -33 22.5 -52t59.5 -19q45 0 106 37l82 -115q-152 -152 -348 -152q-115 0 -188.5 54.5t-73.5 138.5q0 78 23 162l65 360q8 41 8 78q0 53 -35.5 74.5t-132.5 21.5h-313l-90 -497l-23 -116q-8 -42 -37.5 -136.5t-62.5 -154.5t-94.5 -140 t-136 -128t-186 -82t-244.5 -34q-127 0 -195 42t-68 118q0 66 50.5 113t121.5 47q45 0 73 -15.5t77 -64.5q43 -43 88 -43t83 21.5t63.5 46t51.5 83.5l39 92q13 33 31.5 117t23.5 112l21 122l90 497h-518l-67 -366q-2 -8 -4 -29q-18 -98 -30.5 -154.5t-43.5 -163t-65.5 -173 t-97 -151.5t-136.5 -133t-183.5 -83t-240.5 -35q-127 0 -195.5 42t-68.5 118z" />
<glyph unicode="&#xfb04;" horiz-adv-x="2539" d="M-393 -266q0 66 52 113t126 47q70 0 131 -64q37 -39 54.5 -49t49.5 -10q45 0 84 19.5t67 61.5t48.5 83.5t38.5 108.5t28 114l23 121l107 583h-172l32 185h173q39 225 195.5 352t397.5 127q125 0 198 -44t73 -122q0 -57 -44 -94t-110 -37q-53 0 -85 17.5t-64 62.5 q-27 37 -68 37q-63 0 -98 -51.5t-58 -174.5l-14 -73h522q49 256 219 367.5t488 111.5q211 0 524 -39l-211 -1153q-6 -31 -6 -53q0 -39 20.5 -61.5t53.5 -22.5q49 0 110 47l84 -117q-154 -154 -350 -154q-115 0 -186.5 55.5t-71.5 143.5q0 78 23 162l143 782q10 66 10 105 q0 82 -48 121.5t-173 39.5q-143 0 -225 -98q-29 -35 -43.5 -77t-36.5 -160h203l-33 -185h-205l-90 -495l-14 -79q-4 -22 -24.5 -98.5t-39 -120.5t-56.5 -118t-82 -123t-109.5 -100.5t-141.5 -83.5q-168 -70 -344 -70q-106 0 -172 44t-66 116q0 63 51.5 111.5t118.5 48.5 q45 0 73 -14.5t77 -65.5q41 -43 92 -43q39 0 72 13t59 46l47 59q20 27 40 86l30 90q10 30 26.5 104.5t20.5 96.5l18 101l91 495h-521l-67 -366q-2 -8 -4 -25l-23 -119q-8 -43 -29.5 -126t-41 -135t-55.5 -128t-76 -125t-98 -103t-125.5 -86t-157 -53.5t-191.5 -21.5 q-127 0 -195.5 42t-68.5 118z" />
<glyph unicode=" "  horiz-adv-x="696" />
<glyph unicode="&#x09;" horiz-adv-x="696" />
<glyph unicode="&#xa0;" horiz-adv-x="696" />
<glyph unicode="!" horiz-adv-x="655" d="M176 139q0 82 59.5 142.5t139.5 60.5q68 0 111.5 -47t43.5 -119q0 -80 -59 -141.5t-135 -61.5q-68 0 -114 48t-46 118zM322 449q31 295 30 405l-4 141q-6 78 -6 103q0 162 63.5 242.5t172.5 80.5q76 0 124 -47t48 -123q0 -68 -50 -192l-106 -266q-59 -150 -105 -344h-167 z" />
<glyph unicode="&#x22;" horiz-adv-x="778" d="M287 748l24 464q2 18 2 43q6 139 140 140q82 0 131 -42t49 -112q0 -45 -25 -92l-231 -428zM692 748l25 464q2 18 2 43q6 139 139 140q82 0 131 -42t49 -112q0 -45 -24 -92l-232 -428z" />
<glyph unicode="#" d="M322 449v176h233l27 174h-203v176h229l62 420h178l-64 -420h179l61 420h178l-63 -420h190v-176h-215l-27 -174h185v-176h-209l-68 -449h-176l66 449h-176l-68 -449h-176l65 449h-208zM733 625h176l27 174h-176z" />
<glyph unicode="$" d="M92 252q0 70 50.5 113t127.5 43q53 0 91 -19.5t64 -51.5l60 -73q96 -117 228 -117q113 0 193.5 59.5t80.5 141.5q0 78 -61.5 119t-241.5 96q-397 117 -397 387q0 170 136 276.5t382 141.5l47 252h170l-45 -250q213 -31 331.5 -97.5t118.5 -154.5q0 -59 -44 -99t-109 -40 q-43 0 -77 17.5t-58 44.5l-58 63q-92 98 -215 98q-100 0 -167.5 -49t-67.5 -121q0 -84 90 -129q53 -29 237 -82q117 -33 200 -78t123 -81.5t61.5 -85t24.5 -72t3 -55.5q0 -193 -163 -322t-441 -158l-53 -305h-170l53 305q-504 72 -504 283z" />
<glyph unicode="%" horiz-adv-x="1802" d="M217 969q0 180 132 311t315 131q145 0 230 -83t85 -226q0 -174 -133 -303t-314 -129q-141 0 -228 82t-87 217zM457 971q0 -133 104 -133q86 0 132 95t46 195q0 123 -106 123q-74 0 -125 -80.5t-51 -199.5zM496 0l905 1395h170l-903 -1395h-172zM1079 283q0 180 132 311 t315 131q145 0 230 -83t85 -226q0 -174 -133 -303t-313 -129q-141 0 -228.5 82t-87.5 217zM1319 285q0 -133 104 -133q86 0 132.5 95t46.5 195q0 123 -107 123q-74 0 -125 -80.5t-51 -199.5z" />
<glyph unicode="&#x26;" horiz-adv-x="2007" d="M98 395q0 174 107.5 287t335.5 143q-88 27 -127 77t-39 132q0 164 146.5 275.5t363.5 111.5q182 0 290.5 -72.5t108.5 -193.5t-86 -201t-254 -129q164 -76 233.5 -152.5t147.5 -262.5q115 88 194.5 215t79.5 221q0 37 -34 74q-47 47 -62.5 76.5t-15.5 76.5q0 76 47 128 t117 52q82 0 135 -73.5t53 -186.5q0 -174 -121 -375.5t-305 -334.5q129 -113 244 -113q70 0 105.5 26.5t43.5 100.5q6 72 48 117t102 45q53 0 89 -35t36 -86q0 -143 -154.5 -254t-353.5 -111q-100 0 -191.5 27t-131.5 48.5t-101 62.5l-19 -9q-59 -25 -117.5 -53.5 t-160.5 -52t-211 -23.5q-84 0 -170 19.5t-174 63.5t-143.5 132t-55.5 207zM453 494q0 -131 104.5 -227.5t249.5 -96.5q92 0 235 61q-84 84 -145 201t-112.5 176.5t-81 69.5t-76.5 10q-74 0 -124 -56t-50 -138zM698 1047q0 -61 32 -98.5t83 -37.5q84 0 132 84t48 160 q0 55 -31.5 89t-84.5 34q-84 0 -131.5 -75.5t-47.5 -155.5z" />
<glyph unicode="'" horiz-adv-x="368" d="M258 748l25 464q2 18 2 43q6 139 139 140q82 0 131 -42t49 -112q0 -45 -24 -92l-232 -428z" />
<glyph unicode="(" horiz-adv-x="532" d="M63 115q0 123 48.5 397t101.5 455q145 487 582 487l-27 -151q-117 -14 -195 -179q-76 -158 -146.5 -503t-70.5 -553q0 -94 35 -145.5t113 -76.5l-27 -143h-20q-188 2 -291 115t-103 297z" />
<glyph unicode=")" horiz-adv-x="532" d="M-72 -297l27 150q117 18 195 180q76 158 146.5 502t70.5 555q0 92 -35 144t-113 77l27 143q195 0 304 -107.5t109 -304.5q0 -227 -110 -704q-80 -344 -236 -489.5t-385 -145.5z" />
<glyph unicode="*" horiz-adv-x="942" d="M258 1049q0 49 28.5 84.5t69.5 35.5q25 0 76 -18l121 -45l35 41l-92 86q-47 43 -47 86q0 41 40.5 77t88.5 36q53 0 63 -64q4 -12 4 -53l4 -135l47 -6l45 139q37 115 111 114q37 0 65.5 -24.5t28.5 -56.5q0 -53 -82 -113l-119 -92l13 -43l137 49q45 18 74 18q72 0 71 -73 q0 -51 -29.5 -86t-70.5 -35q-23 0 -72 16l-120 45l-35 -39l92 -88q47 -47 47 -86q0 -41 -42 -76.5t-89 -35.5q-68 0 -68 116l-2 138l-47 4l-45 -140q-39 -117 -110 -116q-37 0 -66 25.5t-29 56.5q0 51 80 114l119 92l-12 43l-138 -49q-45 -18 -71 -18q-74 0 -74 76z" />
<glyph unicode="+" horiz-adv-x="1228" d="M184 393v238h414v413h238v-413h413v-238h-413v-413h-238v413h-414z" />
<glyph unicode="," horiz-adv-x="696" d="M205 131q0 92 73.5 164t170.5 72q72 0 116.5 -46.5t44.5 -119.5q0 -115 -89 -242t-236 -225l-78 73q139 123 164 181q-14 -2 -31 -2q-61 0 -98 38.5t-37 106.5z" />
<glyph unicode="-" horiz-adv-x="573" d="M121 459l69 184h463l-67 -184h-465z" />
<glyph unicode="." horiz-adv-x="696" d="M217 123q0 92 70.5 160.5t165.5 68.5q66 0 109.5 -45t43.5 -114q0 -84 -70.5 -152t-158.5 -68q-68 0 -114 43.5t-46 106.5z" />
<glyph unicode="/" horiz-adv-x="737" d="M18 -297l736 1751h274l-731 -1751h-279z" />
<glyph unicode="0" d="M178 504q0 242 89 448.5t263.5 337.5t399.5 131q242 0 376 -148.5t134 -416.5q0 -86 -19.5 -190.5t-74 -229.5t-135.5 -225t-218 -169t-307 -69q-233 0 -370.5 143.5t-137.5 387.5zM522 430q0 -129 51.5 -202.5t139.5 -73.5q106 0 187 96t120 236.5t57.5 256t18.5 195.5 q0 315 -193 315q-90 0 -161.5 -69.5t-111.5 -167.5t-65.5 -219t-34 -211t-8.5 -156z" />
<glyph unicode="1" d="M252 0l31 166l110 4q86 4 123 30.5t49 94.5l129 713q8 57 8 73q0 41 -28.5 59.5t-106.5 18.5h-100l29 168l36 -2q227 14 304 25.5t172 44.5h112l-194 -1076q-4 -23 -11 -73q0 -39 29 -56.5t109 -19.5l104 -4l-31 -166h-874z" />
<glyph unicode="2" d="M137 209l60 35q231 135 328.5 202.5t205.5 167.5q262 240 262 465q0 76 -55 125t-139 49q-92 0 -165 -39.5t-73 -91.5q0 -12 24.5 -59t24.5 -62q0 -66 -57 -120t-127 -54t-113 46.5t-43 119.5q0 170 176.5 299t415.5 129q238 0 378 -100t140 -270q0 -158 -129 -306 q-72 -82 -169 -152.5t-310 -201.5l-194 -119h251q178 0 242 33t148 170l141 -51l-193 -424h-1013z" />
<glyph unicode="3" d="M147 291q0 88 58.5 150.5t138.5 62.5q63 0 106.5 -38t43.5 -91q0 -35 -35 -117q0 -41 63.5 -72.5t147.5 -31.5t145.5 31.5t92 80.5t45 97.5t14.5 91.5q0 113 -72 162t-236 49h-53l33 172h70q317 0 317 237q0 166 -190 166q-74 0 -137.5 -29.5t-63.5 -64.5q0 -8 8 -43 t8 -51q0 -57 -57 -105.5t-129 -48.5q-68 0 -111 39t-43 98q0 152 161 268.5t405 116.5q233 0 377.5 -97t144.5 -255q0 -106 -72 -193.5t-192 -134.5q227 -74 227 -280.5t-202 -347t-498 -140.5q-225 0 -370 89.5t-145 228.5z" />
<glyph unicode="4" d="M129 541l838 854h333l-147 -815h297l-100 -205h-236l-14 -74q-4 -20 -4 -29q0 -43 32.5 -70.5t85.5 -31.5l52 -4l-31 -166h-709l29 166l57 4q82 8 115 43t51 135l4 27h-610zM414 580h405l99 540z" />
<glyph unicode="5" d="M160 276q0 90 59.5 153t142.5 63q70 0 118 -42t48 -102q0 -31 -17 -71.5t-17 -49.5q0 -31 42 -52t101 -21q139 0 234.5 109.5t95.5 271.5q0 113 -59.5 181t-155.5 68q-176 0 -314 -182l-149 51l164 742h917l-88 -273h-686l-59 -239q154 90 364 90q207 0 338 -115 t131 -297q0 -260 -200.5 -424t-518.5 -164q-215 0 -353 85t-138 218z" />
<glyph unicode="6" d="M180 504q0 115 20.5 229.5t77 241.5t141.5 223t228.5 159.5t325.5 63.5q197 0 333 -72.5t136 -179.5q0 -72 -53.5 -125t-124.5 -53q-137 0 -150 156q-6 94 -162 94q-295 0 -397 -438q172 115 385 115q205 0 330 -110t125 -290q0 -229 -190.5 -387t-469.5 -158 q-104 0 -195 25t-176 81t-134.5 164.5t-49.5 260.5zM514 385q0 -106 62.5 -168.5t168.5 -62.5q137 0 221.5 99t84.5 257q0 109 -58.5 168t-165.5 59q-135 0 -224 -100t-89 -252z" />
<glyph unicode="7" d="M252 954l139 441h1116v-187q-301 -360 -429 -613t-183 -595h-412q47 197 167 405.5t230 336.5l223 249q114 121 122 131h-494q-135 0 -189.5 -31.5t-138.5 -177.5z" />
<glyph unicode="8" d="M139 340q0 256 312 375q-29 18 -45.5 30.5t-46 42t-45 71.5t-15.5 93q0 66 29.5 139.5t93 151.5t186.5 128t287 50q229 0 369.5 -90t140.5 -235q0 -98 -59.5 -175t-190.5 -147q121 -57 173 -125.5t52 -169.5q0 -219 -192.5 -362.5t-487.5 -143.5q-256 0 -408.5 99.5 t-152.5 267.5zM420 365q0 -100 81 -155.5t232 -55.5q135 0 219 54t84 142q0 135 -407 273q-98 -39 -153.5 -106.5t-55.5 -151.5zM643 1085q0 -53 66.5 -101t238.5 -120q186 82 187 213q0 74 -69 119t-181 45q-100 0 -171 -46.5t-71 -109.5z" />
<glyph unicode="9" d="M145 203q0 74 56.5 128t132.5 54q133 0 145 -168q4 -35 36 -49t114 -14q180 0 276 105.5t162 342.5q-199 -121 -401 -121q-197 0 -313.5 100.5t-116.5 268.5q0 236 204.5 403.5t491.5 167.5q106 0 194 -23.5t166 -78.5t122 -160.5t44 -255.5q0 -180 -57.5 -346 t-162.5 -297t-274 -209t-376 -78q-199 0 -321 64t-122 166zM590 893q0 -215 198 -215q135 0 230.5 101.5t95.5 244.5q0 102 -55 159.5t-152 57.5q-135 0 -226 -99t-91 -249z" />
<glyph unicode=":" horiz-adv-x="696" d="M217 123q0 92 70.5 160.5t165.5 68.5q66 0 109.5 -45t43.5 -114q0 -84 -70.5 -152t-158.5 -68q-68 0 -114 43.5t-46 106.5zM340 836q0 92 70.5 160.5t164.5 68.5q66 0 110 -45t44 -115q0 -84 -70.5 -151.5t-158.5 -67.5q-68 0 -114 43.5t-46 106.5z" />
<glyph unicode=";" horiz-adv-x="696" d="M205 131q0 92 73.5 164t170.5 72q72 0 116.5 -46.5t44.5 -119.5q0 -115 -88 -242t-237 -225l-78 73q141 127 164 181q-14 -2 -31 -2q-61 0 -98 38.5t-37 106.5zM332 836q0 90 70.5 159.5t164.5 69.5q66 0 110 -45t44 -115q0 -84 -70.5 -151.5t-158.5 -67.5 q-68 0 -114 43.5t-46 106.5z" />
<glyph unicode="&#x3c;" horiz-adv-x="1269" d="M205 412v200l962 592v-278l-673 -414l673 -414v-278z" />
<glyph unicode="=" horiz-adv-x="1228" d="M184 219v238h1065v-238h-1065zM184 567v238h1065v-238h-1065z" />
<glyph unicode="&#x3e;" horiz-adv-x="1269" d="M205 98l674 414l-674 414v278l962 -592v-200l-962 -592v278z" />
<glyph unicode="?" horiz-adv-x="1269" d="M297 1032q0 158 172 273.5t408 115.5q219 0 355 -97t136 -253q0 -139 -86 -254t-238 -174q-104 -41 -141 -81t-49 -122h-186q6 145 44 217t156 152q150 100 150 244q0 90 -54.5 145t-144.5 55q-82 0 -147.5 -33.5t-65.5 -76.5q0 -12 9.5 -49t9.5 -50q0 -63 -53.5 -114 t-118.5 -51q-72 0 -114 40.5t-42 112.5zM559 133q0 78 59.5 137.5t137.5 59.5q72 0 115.5 -43t43.5 -113q0 -82 -58 -141.5t-140 -59.5q-68 0 -113 45t-45 115z" />
<glyph unicode="@" horiz-adv-x="1597" d="M164 709q0 217 116.5 387t288.5 254t361 84q170 0 323.5 -71t256 -210t102.5 -317q0 -123 -51.5 -222.5t-128 -153.5t-151.5 -83t-134 -29q-135 0 -164 107q-90 -106 -225 -107q-115 0 -189.5 82t-74.5 207q0 170 120.5 298t282.5 128q104 0 182 -64l11 52h192l-80 -437 q-12 -55 -10 -67q0 -23 14.5 -39t34.5 -16q57 0 141 82.5t84 238.5q0 209 -152.5 348t-381.5 139q-266 0 -443.5 -167.5t-177.5 -421.5q0 -262 176.5 -433.5t444.5 -171.5q352 0 541 271h145q-233 -403 -686 -404q-319 0 -543.5 215.5t-224.5 520.5zM723 604q0 -57 24.5 -90 t67.5 -33q49 0 83 25.5t73 121t76 273.5q-2 4 -41 23.5t-72 19.5q-82 0 -146.5 -103.5t-64.5 -236.5z" />
<glyph unicode="A" horiz-adv-x="1474" d="M-55 0l30 166q109 25 170.5 85t130.5 179l570 965h309l238 -1030q35 -119 57.5 -145.5t99.5 -47.5l25 -6l-31 -166h-721l31 166l68 8q68 10 92 25.5t24 48.5q0 23 -14 90l-33 158h-454l-95 -179q-33 -61 -32 -88q0 -45 118 -59l39 -4l-30 -166h-592zM625 655h336l-84 447 z" />
<glyph unicode="B" horiz-adv-x="1474" d="M29 0l30 166l45 4q82 12 114 46t50 128l129 707q8 57 9 75q0 45 -24 69t-85 30l-45 4l29 166h772q266 0 387 -60.5t121 -232.5q0 -137 -103.5 -234.5t-267.5 -117.5q145 -4 234 -80t89 -195q0 -78 -31.5 -154.5t-99 -151.5t-195.5 -122t-296 -47h-862zM618 262 q0 -51 32 -70.5t124 -19.5q176 0 259 99.5t83 205.5q0 100 -59.5 141t-202.5 41h-172l-45 -247q-19 -148 -19 -150zM713 829h127q174 0 266 58.5t92 171.5q0 170 -246 170q-117 0 -146.5 -29t-47.5 -125z" />
<glyph unicode="C" horiz-adv-x="1433" d="M160 578q0 96 26.5 203.5t90 223t152.5 207t227.5 150.5t301.5 59q154 0 345 -88l24 62h115l102 -537l-151 -33q-25 137 -141.5 272.5t-262.5 135.5q-131 0 -233.5 -106.5t-152.5 -259t-50 -314.5q0 -184 90 -287.5t250 -103.5q127 0 258 81t219 216l141 -92 q-252 -393 -698 -394q-295 0 -474 176.5t-179 428.5z" />
<glyph unicode="D" horiz-adv-x="1556" d="M29 0l30 166l45 4q82 12 114 46t50 128l129 707q8 57 9 75q0 45 -24 69t-85 30l-45 4l29 166h655q174 0 296 -23.5t221 -83t147.5 -172t48.5 -282.5q0 -242 -113 -443t-303 -297q-186 -94 -598 -94h-606zM612 256q0 -45 35 -61.5t123 -16.5q215 0 369.5 201t154.5 479 q0 180 -86 274.5t-247 94.5q-66 0 -106 -11.5t-60.5 -43t-27.5 -54t-15 -76.5l-129 -720q-11 -46 -11 -66z" />
<glyph unicode="E" horiz-adv-x="1474" d="M29 0l30 166l45 4q80 8 114 44t50 130l129 707l9 73q0 47 -25 71t-84 30l-45 4l31 166h1196l112 -453l-143 -45q-152 332 -465 332q-51 0 -88 -7.5t-59.5 -18.5t-38 -28.5t-22.5 -37t-12 -43t-9 -47.5l-39 -207q33 -4 82 -4q113 0 153.5 37.5t75.5 173.5h145l-112 -619 h-146q4 49 5 66q0 45 -12.5 75.5t-29 48t-51 26.5t-62.5 11t-81 2l-61 -338q-8 -53 -9 -65q0 -47 33 -64.5t125 -17.5q182 0 322.5 77t330.5 283l136 -71l-232 -461h-1298z" />
<glyph unicode="F" horiz-adv-x="1351" d="M29 0l30 166l45 4q82 12 114 46t50 128l129 707q8 57 9 75q0 45 -24 69t-85 30l-45 4l29 166h1171l111 -484l-142 -37l-6 15q-74 119 -101.5 154.5t-74.5 74.5q-121 96 -291 96q-106 0 -140 -29.5t-54 -137.5l-41 -222h86q78 0 129 41t84 181h141l-119 -648h-139 q4 27 4 74q0 166 -127 166h-92l-55 -295q-6 -43 -7 -74q0 -51 26 -73.5t95 -26.5l58 -4l-31 -166h-737z" />
<glyph unicode="G" horiz-adv-x="1556" d="M158 569q0 348 234.5 600t559.5 252q188 0 383 -108l39 82h113l86 -502l-152 -27l-38 76t-58 89.5t-85 97t-108.5 66.5t-140.5 30q-184 0 -317 -199t-133 -475q0 -176 79.5 -278.5t217.5 -102.5q127 0 225 81t98 183q0 35 -13 57.5t-32.5 30.5t-43 14.5t-42.5 8.5l-22 4 l28 166h660l-31 -166l-39 -8q-78 -18 -103.5 -46t-39.5 -102l-72 -393h-223l-23 104q-178 -131 -420 -131q-264 0 -425.5 164t-161.5 432z" />
<glyph unicode="H" horiz-adv-x="1638" d="M29 0l30 166l45 4q82 8 114 43t50 131l129 707q8 57 9 75q0 45 -24 69t-85 30l-45 4l29 166h712l-28 -166l-47 -4q-80 -10 -114 -45t-50 -129l-37 -205h512l37 205q8 53 8 71q0 94 -109 103l-45 4l31 166h713l-31 -166l-45 -4q-82 -10 -114 -44t-50 -130l-129 -707 q-8 -39 -8 -74q0 -47 24.5 -71.5t83.5 -28.5l45 -4l-30 -166h-713l31 166l47 4q82 8 114.5 43t49.5 131l57 318h-512l-59 -318q-6 -39 -7 -70q0 -51 24 -74.5t85 -29.5l45 -4l-31 -166h-712z" />
<glyph unicode="I" horiz-adv-x="778" d="M29 0l30 166l45 4q82 12 115 46t49 128l129 707q6 39 6 69q0 49 -23.5 74t-84.5 31l-43 4l29 166h712l-30 -166l-45 -4q-82 -10 -115 -44t-49 -130l-129 -707q-6 -39 -7 -70q0 -51 24 -75.5t85 -28.5l43 -4l-31 -166h-710z" />
<glyph unicode="J" horiz-adv-x="1269" d="M16 336q0 113 70 191.5t170 78.5q72 0 120 -46t48 -114q0 -80 -72 -131q-31 -23 -38 -32t-7 -25q0 -41 53.5 -72.5t122.5 -31.5q43 0 80 10t64.5 31.5t49 41t38 56.5t27 57.5t19.5 62.5t12 53t9 48l99 537q0 6 3 30.5t3 36.5q0 49 -23.5 76t-85.5 31l-69 4l30 166h738 l-31 -166l-45 -4q-80 -8 -113 -43t-51 -131l-111 -600q-90 -477 -630 -478q-215 0 -347.5 100.5t-132.5 262.5z" />
<glyph unicode="K" horiz-adv-x="1597" d="M29 0l30 166l45 4q82 8 114 43t50 131l129 707q8 57 9 75q0 45 -24 69t-85 30l-45 4l29 166h714l-30 -166l-47 -4q-80 -10 -114 -44t-50 -130l-49 -277l421 332q80 63 80 84q0 18 -71 31l-58 8l29 166h694l-31 -166q-121 -18 -208.5 -55t-194.5 -115l-221 -162l276 -506 q70 -125 109 -161.5t135 -63.5l-31 -166h-733l29 166l22 4q129 16 129 66q0 27 -37 100l-182 350l-203 -154l-34 -188q-6 -39 -7 -72q0 -47 23 -71.5t86 -30.5l45 -4l-31 -166h-712z" />
<glyph unicode="L" horiz-adv-x="1310" d="M29 0l30 166l45 4q80 8 114 44t50 130l129 707q4 25 9 75q0 45 -24 69t-85 30l-45 4l29 166h739l-31 -166l-71 -4q-80 -10 -114 -45t-50 -129l-129 -709q-8 -43 -9 -82q0 -43 26 -60.5t95 -17.5q109 0 212.5 40t180 104.5t127 120t86.5 108.5l142 -76l-242 -479h-1214z " />
<glyph unicode="M" horiz-adv-x="1761" d="M29 0l30 166l27 4q84 10 117 44t49 130l127 707q8 57 8 73q0 47 -23.5 70t-84.5 31l-27 4l29 166h614l88 -774l381 774h623l-31 -166l-31 -4q-82 -12 -113.5 -46t-48.5 -128l-127 -707q-7 -31 -7 -54q0 -9 1 -18q0 -51 23.5 -72.5t79.5 -29.5l30 -4l-30 -166h-695l31 166 l45 4q82 10 115 44t51 130l143 789l-553 -1133h-137l-143 1133l-144 -789q-10 -61 -10 -65q0 -102 111 -109l69 -4l-30 -166h-557z" />
<glyph unicode="N" horiz-adv-x="1515" d="M29 0l30 166l45 4q82 10 116 44t50 130l127 707q8 57 9 73q0 47 -25 72t-84 29l-45 4l31 166h591l326 -871l94 527q8 57 9 71q0 51 -27 75t-82 28l-45 4l31 166h551l-31 -166l-45 -4q-82 -10 -116 -44t-50 -130l-191 -1051h-254l-438 1124l-141 -780q-8 -35 -8 -68 q0 -96 108 -106l45 -4l-30 -166h-551z" />
<glyph unicode="O" horiz-adv-x="1556" d="M160 596q0 342 241.5 583.5t591.5 241.5q297 0 477.5 -173t180.5 -457q0 -137 -56.5 -278.5t-158 -263.5t-267 -199t-362.5 -77q-289 0 -468 172t-179 451zM545 543q0 -174 73.5 -273.5t200.5 -99.5q98 0 178 53t126 132t78 175.5t43 174t11 139.5q0 186 -74.5 287.5 t-211.5 101.5q-174 0 -299 -203.5t-125 -486.5z" />
<glyph unicode="P" horiz-adv-x="1310" d="M-12 0l30 166l45 4q82 8 114 43t50 131l129 707q8 57 9 75q0 45 -24 69t-85 30l-45 4l29 166h700q137 0 228.5 -12.5t167 -47.5t111.5 -102.5t36 -173.5q0 -479 -686 -479h-170l-43 -236q-6 -37 -6 -70q0 -49 23.5 -75.5t84.5 -28.5l70 -4l-31 -166h-737zM659 756h52 q109 0 159 10t99 41q59 41 96 105.5t37 131.5q0 186 -206 187h-9q-53 0 -85 -10.5t-48.5 -37t-21.5 -44t-13 -60.5z" />
<glyph unicode="Q" horiz-adv-x="1556" d="M76 -115q0 61 48 106.5t114 45.5q76 0 109.5 -46t37.5 -134q0 -53 98.5 -88t235.5 -35q186 0 314 74.5t128 183.5q0 18 -8 41q-193 -59 -348 -60q-289 0 -467 170t-178 449q0 344 245.5 586.5t595.5 242.5q285 0 466.5 -171t181.5 -439q0 -158 -59.5 -315.5 t-157.5 -262.5q43 -70 43 -172q0 -225 -213 -366t-549 -141q-264 0 -450.5 99t-186.5 232zM543 539q0 -213 110 -316q-4 20 -4 33q0 82 78 143.5t240 61.5q123 0 215 -35q84 217 84 416q0 176 -75 283.5t-200 107.5q-188 0 -318 -201.5t-130 -492.5zM768 207q0 -23 27.5 -38 t72.5 -15q74 0 156 49q-59 53 -162 53q-94 0 -94 -49z" />
<glyph unicode="R" horiz-adv-x="1515" d="M29 0l30 166l45 4q82 8 114 43t50 131l129 707q8 57 9 75q0 45 -24 69t-85 30l-45 4l29 166h768q123 0 211 -13.5t158.5 -48.5t106.5 -98.5t36 -157.5q0 -135 -92.5 -253.5t-276.5 -159.5l149 -310q59 -109 93 -138.5t133 -49.5l-31 -166h-416l-293 612h-153l-49 -268 q-6 -39 -7 -70q0 -51 24 -74.5t85 -29.5l45 -4l-31 -166h-712zM709 801q16 -2 34 -2q217 0 327 54t110 206q0 170 -244 170q-78 0 -116 -18.5t-43 -47t-15 -63.5z" />
<glyph unicode="S" horiz-adv-x="1433" d="M121 524l158 27q141 -397 520 -397q129 0 212 56t83 142q0 39 -15.5 71t-39 48t-50 29.5t-47 16.5t-33.5 7l-266 64q-16 2 -40.5 10t-55.5 16.5t-64.5 24.5t-66.5 35.5t-63.5 49.5t-53.5 64.5t-36 84t-13 104.5q0 195 168 319.5t430 124.5q246 0 444 -114l43 88h146v-469 h-156q-102 315 -432 315q-111 0 -185.5 -47t-74.5 -117q0 -29 13 -51t27.5 -35.5t52.5 -28t55.5 -18.5t68.5 -18l258 -68q14 0 48 -12t77 -25.5t90 -45.5t85 -70.5t63.5 -101t25.5 -136.5q0 -207 -191.5 -350.5t-465.5 -143.5q-256 0 -449 119l-45 -92h-135z" />
<glyph unicode="T" horiz-adv-x="1433" d="M143 977l207 418h1192l100 -445l-147 -32q-57 150 -153.5 225.5t-239.5 85.5l-162 -885q-6 -39 -6 -70q0 -57 27.5 -78.5t99.5 -25.5l65 -4l-28 -166h-795l29 166l67 4q92 6 129 40t56 134l161 885q-160 -12 -260 -77t-221 -234z" />
<glyph unicode="U" horiz-adv-x="1515" d="M229 1229l31 166h713l-31 -166l-45 -4q-82 -10 -115.5 -44t-50.5 -130l-86 -482q-16 -74 -16 -184q0 -98 63.5 -152.5t179.5 -54.5q59 0 109.5 14.5t83.5 34t60.5 57.5t42 63.5t27.5 72.5t17.5 67.5t12.5 65.5l90 498q8 35 8 67q0 96 -109 107l-45 4l31 166h551l-31 -166 l-45 -4q-82 -10 -113.5 -44t-50.5 -130l-104 -576q-94 -502 -666 -502q-221 0 -356 90.5t-135 237.5q0 47 16 150l109 600q8 57 8 73q0 47 -24.5 72t-84.5 29z" />
<glyph unicode="V" horiz-adv-x="1351" d="M147 1229l31 166h727l-28 -166q-74 -4 -107 -9.5t-55.5 -21.5t-22.5 -49q0 -12 8 -49l129 -725l349 661q43 76 43 127q0 27 -27 40.5t-107 25.5l31 166h559l-30 -166q-102 -12 -155.5 -52t-117.5 -155l-563 -1022h-250l-217 1049q-23 100 -50.5 127.5t-129.5 48.5z" />
<glyph unicode="W" horiz-adv-x="2048" d="M147 1229l31 166h635l-29 -166q-135 -6 -135 -119q0 -16 2 -25l94 -657l302 657l2 11v4q0 72 -62 102q-23 12 -88 27l29 166h645l-29 -166l-24 -2q-84 -8 -107.5 -24.5t-23.5 -55.5q0 -8 1 -28.5t1 -33.5l94 -657l299 657q27 57 26 80q0 27 -27.5 39.5t-96.5 20.5l-25 4 l31 166h540l-30 -166q-111 -12 -150 -49t-117 -193l-487 -987h-254l-111 778l-378 -778h-250l-148 1036q-14 100 -43 135t-117 58z" />
<glyph unicode="X" horiz-adv-x="1515" d="M-14 0l30 166q133 33 185.5 64.5t171.5 150.5l295 332l-174 311q-63 111 -106.5 145.5t-127.5 53.5q-4 2 -24 6l30 166h731l-28 -166q-76 -4 -107 -14.5t-31 -34.5q0 -27 33 -86l105 -189l194 221q35 37 35 60q0 12 -9 21.5t-35 13.5t-36 5t-47 3l29 166h610l-31 -166 q-199 -20 -366 -211l-242 -275l213 -374q66 -100 129.5 -146.5t155.5 -56.5l-31 -166h-770l31 166q78 6 105.5 14t27.5 31q0 16 -31 82l-135 258l-213 -244q-51 -57 -51 -86q0 -23 27.5 -34t91.5 -19l22 -2l-31 -166h-626z" />
<glyph unicode="Y" horiz-adv-x="1351" d="M147 1229l31 166h723l-31 -166q-59 -4 -77.5 -6t-47 -7.5t-37 -15.5t-8.5 -26q0 -18 13 -48l157 -370l285 354q41 47 41 74q0 31 -139 45l30 166h586l-31 -166q-115 -18 -184 -63.5t-194 -192.5l-324 -387l-43 -242l-8 -72q0 -47 24.5 -72.5t83.5 -29.5l62 -4l-31 -166 h-739l30 166l64 4q80 10 113.5 45t50.5 129l43 242l-182 389q-68 143 -111 186t-131 62z" />
<glyph unicode="Z" d="M47 127l979 1096q-53 10 -104 10q-248 0 -416 -125q-70 -49 -182 -197l-152 56l180 428h1123l41 -123l-971 -1096q94 -12 155 -12q211 0 360.5 88t256.5 276l156 -51l-211 -477h-1162z" />
<glyph unicode="[" horiz-adv-x="532" d="M18 -297l318 1751h430l-29 -160h-86q-51 0 -63.5 -10t-22.5 -59l-227 -1254q-8 -35 -8 -63q0 -27 14 -36t55 -9h78l-28 -160h-431z" />
<glyph unicode="\" horiz-adv-x="1187" d="M150 1518h282l746 -1518h-279z" />
<glyph unicode="]" horiz-adv-x="532" d="M-37 -297l29 160h86q51 0 63.5 10t22.5 59l227 1254q8 53 8 63q0 27 -14 36t-55 9h-78l29 160h430l-318 -1751h-430z" />
<glyph unicode="^" horiz-adv-x="1269" d="M188 651l428 828h175l426 -828h-244l-268 512l-273 -512h-244z" />
<glyph unicode="_" horiz-adv-x="1024" d="M0 -195h1024v-122h-1024v122z" />
<glyph unicode="`" horiz-adv-x="778" d="M440 1440q20 53 73.5 88t113.5 35q63 0 115.5 -74t109.5 -219l-117 -90q-203 78 -262.5 130t-32.5 130z" />
<glyph unicode="a" d="M172 418q0 260 182.5 453.5t427.5 193.5q164 0 279 -96l14 78h291l-119 -660q-12 -61 -12 -88q0 -96 74 -96q45 0 108 49l88 -109q-172 -162 -344 -161q-203 0 -248 161q-137 -162 -342 -161q-174 0 -286.5 123t-112.5 313zM518 373q0 -86 38 -136.5t103 -50.5 q117 0 211 162q66 111 142 471q-104 66 -174 66q-98 0 -175 -91.5t-111 -205t-34 -215.5z" />
<glyph unicode="b" horiz-adv-x="1228" d="M117 0l200 1104q8 49 9 65q0 43 -27 63.5t-90 20.5h-23l31 168q213 0 387 78h68l-107 -584q109 150 309 150q182 0 302 -125t120 -315q0 -250 -185 -446.5t-421 -196.5q-127 0 -278 90l-13 -72h-282zM481 225l6 -4q55 -59 134 -59q94 0 172.5 83t118.5 200.5t40 236.5 q0 84 -39 135t-104 51q-244 0 -328 -643z" />
<glyph unicode="c" horiz-adv-x="1146" d="M119 422q0 256 213 449.5t491 193.5q166 0 283 -77t117 -187q0 -76 -59.5 -130.5t-141.5 -54.5q-63 0 -107.5 35t-44.5 88q0 18 8.5 46t8.5 46q0 33 -28 53.5t-68 20.5q-123 0 -225.5 -157.5t-102.5 -348.5q0 -106 55 -163.5t156 -57.5q172 0 385 172l108 -119 q-100 -111 -258.5 -180t-310.5 -69q-213 0 -346 121.5t-133 318.5z" />
<glyph unicode="d" d="M123 422q0 256 184.5 449.5t427.5 193.5q129 0 248 -70l21 109q6 37 6 67q0 41 -26 61.5t-89 20.5h-25l31 168q213 0 387 78h117l-195 -1071q-12 -63 -16 -123q0 -94 76 -94q51 0 104 53l88 -117q-76 -76 -170 -120.5t-182 -44.5q-205 0 -246 165q-33 -27 -68.5 -63.5 t-110.5 -69t-159 -32.5q-174 0 -288.5 126t-114.5 314zM467 379q0 -94 38 -147.5t105 -53.5q90 0 174 107q53 70 89 184.5t77 353.5q-18 18 -65 40t-103 22q-106 0 -182 -95.5t-104.5 -205t-28.5 -205.5z" />
<glyph unicode="e" horiz-adv-x="1146" d="M121 416q0 266 218 457.5t521 191.5q162 0 261.5 -68.5t99.5 -183.5q0 -117 -101.5 -201t-254 -120.5t-337.5 -36.5q-31 0 -53 2q-6 -53 -6 -88q0 -86 55.5 -138.5t147.5 -52.5q176 0 385 178l110 -120q-86 -96 -246.5 -175t-316.5 -79q-215 0 -349 120.5t-134 313.5z M504 598h24q160 0 275 61.5t115 147.5q0 43 -32 70.5t-83 27.5q-104 0 -190 -99t-109 -208z" />
<glyph unicode="f" horiz-adv-x="860" d="M-393 -266q0 66 52 113t126 47q70 0 131 -64q37 -39 54.5 -49t49.5 -10q45 0 84 19.5t67 61.5t48.5 83.5t38.5 108.5t28 114l23 121l107 583h-172l32 185h173q39 225 195.5 352t397.5 127q125 0 198 -44t73 -122q0 -57 -44 -94t-110 -37q-53 0 -85 17.5t-64 62.5 q-27 37 -68 37q-63 0 -98 -51.5t-58 -174.5l-14 -73h197l-35 -185h-195l-67 -366q-2 -8 -4 -25l-23 -119q-8 -43 -29.5 -126t-41 -135t-55.5 -128t-76 -125t-98 -103t-125.5 -86t-157 -53.5t-191.5 -21.5q-127 0 -195.5 42t-68.5 118z" />
<glyph unicode="g" horiz-adv-x="1269" d="M43 -199q0 63 51 106.5t127 43.5q96 0 139 -90q39 -98 166 -99q72 0 130.5 29t92 64.5t65.5 101.5t44 103.5t31 105.5q-51 -61 -79 -91t-95.5 -61.5t-149.5 -31.5q-174 0 -288.5 123.5t-114.5 312.5q0 254 183 450.5t419 196.5q78 0 132 -18.5t140 -67.5l13 68h321 l-153 -844q-12 -66 -24.5 -115t-38.5 -118.5t-59.5 -120t-90 -105.5t-126 -90t-171 -57.5t-222.5 -22.5q-193 0 -317.5 64.5t-124.5 162.5zM516 381q0 -92 38 -143.5t108 -51.5q100 0 183 121t124 324l39 190q-63 45 -99.5 60.5t-77.5 15.5q-78 0 -141 -53t-99 -135 t-55.5 -168t-19.5 -160z" />
<glyph unicode="h" horiz-adv-x="1433" d="M190 0l201 1104q6 37 6 65q0 43 -24.5 63.5t-87.5 20.5h-25l31 168q213 0 387 78h108l-98 -541q160 106 338 107q135 0 219 -65.5t84 -172.5q0 -20 -6 -51l-76 -414q-16 -84 -14 -102q0 -25 19.5 -41t47.5 -16q55 0 121 39l86 -117q-160 -143 -346 -143q-119 0 -190.5 57 t-71.5 151q0 35 19 138l57 311q4 27 8 62.5t6 43.5q0 41 -37 66t-94 25q-113 0 -203 -60l-141 -776h-324z" />
<glyph unicode="i" horiz-adv-x="778" d="M170 807l31 168q201 10 393 72h106l-116 -648q-20 -123 -21 -125q0 -29 23.5 -50t56.5 -21q41 0 131 45l86 -115q-178 -152 -366 -151q-119 0 -193 56t-74 146q0 29 13 101l67 372q4 41 4 56q0 49 -26.5 71.5t-89.5 22.5h-25zM428 1341q0 78 61.5 139.5t139.5 61.5 q61 0 99 -38t38 -99q0 -76 -63.5 -139.5t-139.5 -63.5q-57 0 -96 40t-39 99z" />
<glyph unicode="j" horiz-adv-x="655" d="M-328 -256q0 57 45 101t103 44q84 0 155 -94q37 -53 78 -53q70 0 103.5 58.5t60.5 199.5l119 655q8 49 8 66q0 43 -26.5 64.5t-92.5 21.5h-24l30 168q201 10 394 72h106l-178 -977q-8 -45 -14.5 -76t-25.5 -88.5t-44 -96t-68 -87t-97 -78t-135 -50t-179 -20.5 q-137 0 -227.5 48t-90.5 122zM459 1341q0 78 61.5 139.5t138.5 61.5q61 0 99.5 -38t38.5 -99q0 -76 -63.5 -139.5t-139.5 -63.5q-57 0 -96 40t-39 99z" />
<glyph unicode="k" horiz-adv-x="1433" d="M199 0l200 1104q6 37 7 65q0 43 -25 63.5t-88 20.5h-25l31 168q213 0 387 78h109l-174 -964q150 238 315 362q223 168 395 168q74 0 121 -37t47 -94q0 -66 -43 -108t-113 -42q-61 0 -124 43q-23 16 -39 17q-57 0 -162 -107q23 -193 48.5 -284t70.5 -154q57 -78 133 -78 q39 0 114 39l19 10l86 -120q-55 -63 -175 -115.5t-208 -52.5q-164 0 -277 151q-57 74 -78.5 149.5t-21.5 196.5v19q-100 -111 -137 -244l-70 -254h-323z" />
<glyph unicode="l" horiz-adv-x="778" d="M223 172q0 29 8 68l156 864q8 33 8 63q0 86 -114 86h-23l29 168q215 0 387 78h110l-213 -1171q-6 -31 -6 -54q0 -31 21.5 -51t52.5 -20q45 0 119 37l82 -123q-172 -135 -351 -135q-121 0 -193.5 52t-72.5 138z" />
<glyph unicode="m" horiz-adv-x="1966" d="M170 807l31 168q201 10 393 72h106l-14 -80q125 98 299 98q74 0 142.5 -27.5t107.5 -70.5q174 98 334 98q137 0 221 -61.5t84 -161.5q-2 -10 -4 -40t-4 -44l-78 -426q-6 -31 -6 -51q0 -35 21.5 -56.5t56.5 -21.5q43 0 94 28l86 -116q-145 -133 -336 -133 q-121 0 -190.5 54t-69.5 148q0 33 10 95l68 370q12 86 12 99q0 37 -37 62.5t-92 25.5q-70 0 -141 -48l-144 -788h-323l114 625q0 2 1 13t3.5 28.5t2.5 33.5q0 135 -111 136q-78 0 -152 -39l-145 -797h-324l121 657q4 41 4 56q0 49 -26.5 71.5t-89.5 22.5h-25z" />
<glyph unicode="n" d="M170 807l31 168q201 10 393 72h106l-18 -105q66 55 159 89t181 34q129 0 212 -62.5t83 -158.5q0 -27 -14 -111l-64 -358q-16 -98 -16 -103q0 -70 75 -69q33 0 86 33l80 -115q-168 -139 -323 -139q-113 0 -184.5 55t-71.5 145q0 47 10 92l80 424q2 12 2 37q0 47 -33 74 t-92 27q-111 0 -203 -72l-139 -764h-324l121 657q4 41 4 56q0 49 -26.5 71.5t-89.5 22.5h-25z" />
<glyph unicode="o" horiz-adv-x="1228" d="M121 399q0 70 17.5 149t64.5 173t118.5 169t192.5 125t272 50q240 0 369 -112.5t129 -321.5q0 -59 -17.5 -135t-64.5 -168t-118.5 -168t-193.5 -127t-274 -51q-229 0 -362 112t-133 305zM475 338q0 -84 41 -130t117 -46q90 0 156.5 71.5t96 172t42 174t12.5 110.5 q0 102 -39 148.5t-123 46.5q-88 0 -153.5 -71t-94 -173t-42 -179t-13.5 -124z" />
<glyph unicode="p" horiz-adv-x="1351" d="M-49 -436l31 168h34q137 0 160 127l146 798q6 35 6 58q0 49 -27 70.5t-90 21.5h-27l31 168q203 10 393 72h109l-23 -123q80 76 150.5 108.5t161.5 32.5q172 0 281.5 -122t109.5 -312q0 -258 -182.5 -453.5t-419.5 -195.5q-125 0 -258 73l-37 -196q-4 -29 -4 -39 q0 -45 26.5 -66.5t91.5 -21.5h56l-31 -168h-688zM569 225q86 -63 185 -63q96 0 167.5 94t100.5 203.5t29 202.5q0 207 -136 206q-66 0 -128 -60t-107 -169q-48 -117 -111 -414z" />
<glyph unicode="q" horiz-adv-x="1269" d="M123 422q0 250 186.5 446.5t425.5 196.5q176 0 279 -96l14 78h283l-215 -1188q-4 -29 -4 -41q0 -86 118 -86h33l-29 -168h-688l29 168h55q139 0 162 127l49 270q-63 -78 -133 -112.5t-166 -34.5q-174 0 -286.5 123.5t-112.5 316.5zM477 375q0 -94 37 -145.5t102 -51.5 q123 0 204 158t128 493l-4 2q-20 18 -68.5 36t-93.5 18q-98 0 -171.5 -92.5t-103.5 -204t-30 -213.5z" />
<glyph unicode="r" horiz-adv-x="1024" d="M172 807l31 168q201 10 393 72h106l-28 -156q139 174 317 174q88 0 144.5 -45t56.5 -115q0 -72 -53.5 -121t-130.5 -49q-66 0 -131 49q-35 27 -60 27q-129 0 -213 -346l-92 -465h-324l121 657q4 41 4 56q0 49 -26.5 71.5t-89.5 22.5h-25z" />
<glyph unicode="s" horiz-adv-x="1105" d="M66 211q0 53 38.5 88t96.5 35q55 0 94 -23.5t98 -89.5q59 -72 154 -71q80 0 132 37.5t52 95.5q0 39 -25.5 61.5t-93.5 42.5l-145 41q-139 41 -203.5 104.5t-64.5 159.5q0 162 150.5 267.5t381.5 105.5q186 0 314.5 -61.5t128.5 -151.5q0 -47 -36 -80t-89 -33 q-49 0 -83 19.5t-79 75.5q-53 63 -150 63q-66 0 -104.5 -29.5t-38.5 -79.5q0 -29 12 -49t32.5 -30.5t45.5 -20.5t49 -16l162 -51q240 -74 240 -246q0 -166 -171 -279.5t-421 -113.5q-244 0 -398 98q-79 51 -79 131z" />
<glyph unicode="t" horiz-adv-x="901" d="M217 862l25 135q137 37 215 116t131 237h184l-55 -303h282l-32 -185h-285l-100 -551q-4 -33 -4 -45q0 -29 18 -46t49 -17q33 0 99.5 29.5t117.5 68.5l86 -137q-88 -84 -205.5 -133t-234.5 -49q-127 0 -196.5 53t-69.5 149q0 29 16 117l100 561h-141z" />
<glyph unicode="u" d="M170 807l31 168q201 10 393 72h106l-112 -627q-12 -88 -13 -111q0 -41 37 -69.5t90 -28.5q102 0 201 80l137 756h324l-117 -648q-14 -86 -14 -106q0 -90 70 -90q33 0 92 47l80 -119q-137 -150 -326 -149q-186 0 -242 135q-117 -76 -199.5 -105.5t-175.5 -29.5 q-131 0 -216 60t-85 157q0 51 9 92l67 366q4 41 4 56q0 49 -26.5 71.5t-89.5 22.5h-25z" />
<glyph unicode="v" horiz-adv-x="1105" d="M115 807l30 168q201 10 394 72h106l-115 -631q-10 -55 -10 -92q0 -45 31 -74t78 -29q98 0 195.5 112.5t97.5 270.5q0 59 -11.5 90t-44.5 64q-61 61 -61 125q0 78 55 130t137 52q78 0 126 -71.5t48 -186.5q0 -150 -50 -298.5t-138 -265t-218 -189t-275.5 -72.5t-229.5 60 t-84 167q0 37 6 70l70 378q4 41 4 56q0 49 -26.5 71.5t-90.5 22.5h-24z" />
<glyph unicode="w" horiz-adv-x="1761" d="M115 807l30 168q201 10 394 72h106l-121 -666q-10 -51 -10 -78q0 -45 37 -72.5t94 -27.5q94 0 174 49l144 795h323l-119 -658q-6 -27 -6 -51q0 -127 137 -127q106 0 186.5 111.5t80.5 263.5q0 63 -14.5 94t-73.5 88q-51 51 -52 111q0 76 58.5 131t138.5 55 q92 0 147.5 -80t55.5 -213q0 -195 -84 -374t-246 -297.5t-365 -118.5q-178 0 -286 116q-180 -117 -369 -116q-129 0 -215 66.5t-86 166.5q0 12 4 37l74 405q4 41 4 56q0 49 -26.5 71.5t-90.5 22.5h-24z" />
<glyph unicode="x" horiz-adv-x="1269" d="M20 119q0 76 46.5 106.5t146.5 30.5l12 -2q59 2 130 81t128 212l-64 148q-17 40 -50 72t-58.5 35t-95.5 7l31 166q106 4 167.5 17.5t157.5 54.5h109q59 -221 100 -324q106 162 216 252t202 90q61 0 101 -35t40 -88q0 -57 -48 -100t-113 -43q-16 0 -44 3t-36 3 q-109 0 -264 -254q80 -197 128 -263.5t111 -66.5q53 0 137 66l90 -119q-207 -186 -368 -186q-127 0 -212 84t-167 288q-70 -129 -97.5 -170t-74.5 -88q-119 -115 -223 -114q-61 0 -99.5 37t-38.5 100z" />
<glyph unicode="y" horiz-adv-x="1228" d="M51 -207q0 61 46 103.5t114 42.5q49 0 82 -20.5t42 -43t21 -39.5q43 -74 152 -74q35 0 74 12.5t89 44t91 104.5t57 175q-176 -117 -332 -116q-123 0 -205.5 63.5t-82.5 157.5q0 51 10 100l63 354q8 49 9 64q0 43 -27 64.5t-92 21.5h-25l31 168q201 10 393 72h107 l-115 -633q-16 -92 -16 -97q0 -45 30.5 -75.5t77.5 -30.5q53 0 113.5 26.5t97.5 65.5l135 744h324l-154 -848l-21 -108q-9 -44 -34 -114.5t-55.5 -118.5t-85 -104.5t-122 -90.5t-165.5 -57.5t-219 -23.5q-174 0 -291 60.5t-117 150.5z" />
<glyph unicode="z" horiz-adv-x="1146" d="M74 162l686 702q-49 20 -129 21q-72 0 -105.5 -21.5t-56.5 -79.5q-53 -131 -164 -131q-57 0 -92 40t-35 106q0 115 108.5 190.5t272.5 75.5q80 0 267.5 -18.5t267.5 -18.5h59l47 -145l-682 -697q57 -16 125 -16q186 0 223 104q20 53 62.5 85t93.5 32q61 0 103 -42 t42 -103q0 -106 -103 -185t-243 -79q-27 0 -207 14t-321 14q-61 0 -162 -12z" />
<glyph unicode="{" horiz-adv-x="614" d="M109 498l28 159q139 35 168 168l70 400q16 80 54 131t90 69.5t85 23.5t80 5h154l-27 -147q-90 -18 -130 -49t-54 -95l-66 -368q-16 -109 -61 -151t-168 -66q158 -35 157 -164q0 -33 -6 -66l-65 -381q0 -51 30.5 -77.5t100.5 -39.5l-25 -147q-203 2 -292 37t-89 147 q0 8 11 72l61 352q6 35 6 62q1 96 -112 125z" />
<glyph unicode="|" horiz-adv-x="1269" d="M618 -297v1751h238v-1751h-238z" />
<glyph unicode="}" horiz-adv-x="614" d="M-8 -297l26 147q90 18 130 49t55 95l65 368q16 109 61.5 151t168.5 67q-158 35 -158 163q0 31 6 66l66 381q0 51 -31 77.5t-100 39.5l24 147q78 0 120 -1t93 -6t75.5 -16.5t49.5 -30t34 -48t9 -72.5q-4 -35 -10 -82l-62 -352q-6 -31 -6 -62q0 -96 113 -125l-29 -159 q-139 -35 -168 -168l-69 -400q-16 -76 -48 -124t-80 -68.5t-86 -27.5t-96 -7z" />
<glyph unicode="~" horiz-adv-x="1269" d="M207 657q74 135 141.5 190.5t157.5 55.5q61 0 151 -37l134 -57q88 -37 147 -37q82 0 170 135l131 -145q-51 -106 -130 -168t-161 -62q-57 0 -186 54l-113 45q-88 35 -133 33q-51 0 -89 -31t-93 -119z" />
<glyph unicode="&#xa1;" horiz-adv-x="655" d="M98 -186q0 70 52 192l106 266q59 150 104 344h168q-31 -295 -30 -405l4 -141q6 -76 6 -103q-2 -162 -65.5 -242.5t-172.5 -80.5q-76 0 -124 47t-48 123zM319 889q0 80 59.5 141.5t135.5 61.5q68 0 114 -48.5t46 -117.5q0 -82 -59.5 -142.5t-139.5 -60.5q-68 0 -112 47 t-44 119z" />
<glyph unicode="&#xa2;" d="M330 715q0 174 137 318.5t340 185.5l47 251h170l-47 -251q133 -14 209 -70.5t76 -144.5q0 -72 -51.5 -125.5t-120.5 -53.5q-92 0 -119 68q-14 33 -15 98q0 53 -77 53q-88 0 -162 -93t-74 -206q0 -90 56.5 -145t148.5 -55q143 0 293 123l84 -82q-59 -86 -173 -151.5 t-233 -84.5l-53 -299h-170l53 299q-147 33 -233 131.5t-86 233.5z" />
<glyph unicode="&#xa3;" d="M0 193q0 102 90 170.5t225 68.5q90 0 189 -26l55 303h-223l59 170h195q39 190 123 301q84 109 230.5 175t301.5 66q166 0 266.5 -77.5t100.5 -208.5q0 -88 -53.5 -151.5t-124.5 -63.5q-55 0 -93 34.5t-38 85.5q0 41 19 80t19 54q0 35 -40.5 61.5t-96.5 26.5 q-211 0 -303 -383h316l-64 -170h-283q-51 -272 -98 -375q12 -4 94 -36t161 -58.5t103 -26.5q31 0 54.5 19.5t23.5 46.5q0 29 -25.5 47t-64.5 18q-2 0 -59 -4l-27 109q66 39 146 38q106 0 172.5 -60t66.5 -159q0 -117 -90 -206t-209 -89q-88 0 -163.5 36t-280.5 159 q-49 -86 -158.5 -140.5t-230.5 -54.5q-131 0 -208 60t-77 160zM190 211q0 -20 23 -34.5t55 -14.5q43 0 90.5 23.5t77.5 60.5q-51 27 -114 26q-57 0 -94.5 -17t-37.5 -44z" />
<glyph unicode="&#xa4;" d="M303 354l94 97q-82 133 -82 268q0 150 84 270l-96 94l131 136l96 -97q127 84 277 84q145 0 270 -82l97 95l129 -136l-95 -92q86 -123 86 -272.5t-84 -267.5l95 -97l-129 -131l-97 94q-127 -88 -274 -88q-145 0 -275 88l-96 -94zM524 721q0 -119 82 -202t199 -83 q115 0 197.5 83t82.5 200q0 115 -81.5 197.5t-194.5 82.5q-119 0 -202 -81.5t-83 -196.5z" />
<glyph unicode="&#xa5;" d="M188 412l31 170h387l8 43l-45 110h-321l31 170h215l-29 70q-49 127 -103.5 186.5t-125.5 69.5l28 164h641l-31 -164q-68 -8 -94 -19.5t-26 -35.5q0 -16 12 -46l123 -350l233 340q31 41 31 64q0 37 -84 47l29 164h504l-31 -164q-174 -20 -397 -326h225l-31 -170h-328 l-84 -117l-6 -36h393l-32 -170h-391l-15 -76q-2 -8 -8 -72q0 -53 29.5 -77.5t105.5 -24.5h29l-29 -162h-710l28 162h23q55 0 93 18.5t57.5 53t25.5 53t12 49.5l17 76h-390z" />
<glyph unicode="&#xa6;" horiz-adv-x="1269" d="M618 -297v700h238v-700h-238zM618 754v700h238v-700h-238z" />
<glyph unicode="&#xa7;" horiz-adv-x="1269" d="M94 -4q0 74 50.5 130t117.5 56q51 0 89 -34.5t38 -81.5q0 -31 -18 -86q-6 -18 -6 -31q0 -41 73.5 -70t179.5 -29q131 0 217.5 52.5t86.5 130.5q0 57 -38 75.5t-329 112.5l-99 35q-34 12 -88.5 39t-82 53.5t-50 69.5t-22.5 94q0 70 53 151.5t137 141.5q-47 51 -65.5 90 t-18.5 92q0 182 157 308t386 126q188 0 316.5 -84t128.5 -209q0 -72 -49.5 -121t-120.5 -49q-51 0 -90 34t-39 79q0 2 4 30.5t4 76.5q0 33 -48 54t-120 21q-104 0 -176 -47t-72 -114q0 -45 42 -72t173 -62q88 -23 145.5 -42t120 -47.5t99.5 -61.5t60.5 -81t23.5 -108 q0 -162 -150 -305q70 -86 70 -188q0 -43 -16.5 -94t-59.5 -111.5t-108.5 -108t-177 -80t-249.5 -32.5q-209 0 -344 83t-135 214zM504 606q0 -43 65 -69l396 -136q29 43 28 101q0 45 -37.5 74.5t-134.5 60.5l-254 80q-63 -48 -63 -111z" />
<glyph unicode="&#xa8;" horiz-adv-x="1064" d="M362 1341q0 76 59.5 135.5t135.5 59.5q59 0 96 -37t37 -96q0 -72 -62.5 -133.5t-133.5 -61.5q-57 0 -94.5 38t-37.5 95zM872 1341q0 76 59.5 135.5t135.5 59.5q59 0 96 -37t37 -96q0 -72 -62.5 -133.5t-133.5 -61.5q-57 0 -94.5 38t-37.5 95z" />
<glyph unicode="&#xa9;" horiz-adv-x="1597" d="M143 731q0 313 222.5 535.5t535.5 222.5t535.5 -222.5t222.5 -535.5t-222.5 -535.5t-535.5 -222.5t-535.5 222.5t-222.5 535.5zM283 731q0 -256 181 -437t437 -181t437.5 181t181.5 437t-181.5 437.5t-437.5 181.5t-437 -181.5t-181 -437.5zM504 668q-2 63 23.5 136 t75.5 143.5t142.5 116.5t208.5 46q86 0 183 -39l10 27h84l67 -295l-112 -23q-8 66 -72.5 136.5t-144.5 70.5q-100 0 -160.5 -101.5t-58.5 -223.5q2 -88 49 -137.5t131 -49.5q72 0 141.5 43t114.5 113l102 -60q-143 -219 -405 -219q-168 0 -272.5 93.5t-106.5 222.5z" />
<glyph unicode="&#xaa;" horiz-adv-x="901" d="M113 614l22 127h879l-23 -127h-878zM219 1057q0 150 105.5 261.5t248.5 111.5q100 0 160 -56l8 45h168l-69 -381q-8 -41 -9 -53q0 -20 13.5 -33.5t34.5 -13.5q23 0 59 23l51 -62q-98 -94 -198 -94q-115 0 -144 94q-88 -94 -196 -94q-100 0 -166 71.5t-66 180.5zM428 1032 q0 -51 21.5 -80.5t58.5 -29.5q68 0 117 94q25 45 92 272q-59 45 -103 45q-74 0 -130 -91t-56 -210z" />
<glyph unicode="&#xab;" horiz-adv-x="778" d="M127 528l295 449l88 -72l-172 -389l84 -326l-115 -73zM449 528l294 449l88 -72l-172 -389l84 -326l-114 -73z" />
<glyph unicode="&#xac;" horiz-adv-x="1269" d="M184 567v238h1065v-467h-237v229h-828z" />
<glyph unicode="&#xad;" horiz-adv-x="573" d="M121 459l69 184h463l-67 -184h-465z" />
<glyph unicode="&#xae;" horiz-adv-x="1597" d="M143 731q0 313 222.5 535.5t535.5 222.5t535.5 -222.5t222.5 -535.5t-222.5 -535.5t-535.5 -222.5t-535.5 222.5t-222.5 535.5zM283 731q0 -256 181 -437t437 -181t437.5 181t181.5 437t-181.5 437.5t-437.5 181.5t-437 -181.5t-181 -437.5zM467 367l20 110l31 2 q37 4 51.5 19.5t22.5 56.5l65 354q4 29 5 35q-4 37 -52 39l-30 2l18 113h434q145 0 220 -38t77 -134q2 -70 -46 -131.5t-146 -87.5l75 -140q33 -53 51.5 -66.5t71.5 -23.5l-18 -110h-246l-168 309h-63l-23 -121q-2 -14 -2 -33q0 -37 51 -43l31 -2l-20 -110h-410zM862 799 q119 0 174.5 22.5t53.5 89.5q0 74 -125 74q-45 0 -58.5 -12t-19.5 -39z" />
<glyph unicode="&#xaf;" horiz-adv-x="983" d="M379 1282l53 180h672l-53 -180h-672z" />
<glyph unicode="&#xb0;" horiz-adv-x="819" d="M266 1094q0 131 91.5 221t222.5 90q127 0 214 -90t87 -223q0 -131 -89.5 -222.5t-218.5 -91.5t-218 91.5t-89 224.5zM381 1092q0 -82 57.5 -139.5t134.5 -57.5q80 0 135.5 57.5t55.5 139.5t-54.5 139t-131.5 57q-82 0 -139.5 -57t-57.5 -139z" />
<glyph unicode="&#xb1;" horiz-adv-x="1228" d="M184 0v238h1065v-238h-1065zM184 631v237h414v414h238v-414h413v-237h-413v-180h-238v180h-414z" />
<glyph unicode="&#xb2;" horiz-adv-x="835" d="M186 700q158 66 322 187q215 164 215 305q0 43 -30.5 70.5t-78.5 27.5q-49 0 -89 -19.5t-40 -43.5q4 -12 11.5 -25.5t11.5 -23t4 -21.5q0 -45 -39 -80t-88 -35q-47 0 -78 30t-31 79q0 84 80 158q115 102 301 102q154 0 245 -62.5t91 -165t-83 -186.5t-300 -204l-86 -50 h121q109 0 145.5 17.5t83.5 93.5l7 8l106 -35l-125 -268h-661z" />
<glyph unicode="&#xb3;" horiz-adv-x="835" d="M176 739q0 57 40 97.5t93 40.5q45 0 75 -25t30 -61l-19 -64q0 -18 40 -34.5t85 -16.5q78 0 125 43t47 115q0 61 -42 87.5t-142 26.5h-43l22 123h56q186 0 186 121q0 86 -115 86q-37 0 -71.5 -14.5t-34.5 -28.5q0 -6 3 -19.5t3 -29.5q0 -41 -38 -72t-91 -31 q-47 0 -76.5 26t-29.5 69q0 96 106.5 164.5t258 68.5t248.5 -59.5t97 -153.5q0 -55 -30.5 -99t-63.5 -60.5t-55 -32.5q123 -55 123 -168q0 -127 -130.5 -211t-322.5 -84q-145 0 -239.5 55t-94.5 141z" />
<glyph unicode="&#xb4;" horiz-adv-x="696" d="M387 1270q109 143 188.5 218t143.5 75q59 0 100 -36t41 -87q0 -78 -79 -130.5t-310 -129.5z" />
<glyph unicode="&#xb5;" d="M111 -285q0 63 55 222q20 57 39 155l102 565q4 41 4 56q0 49 -26.5 71.5t-89.5 22.5h-25l31 168q201 10 393 72h106l-112 -627q-10 -61 -10 -103q0 -53 26.5 -79.5t97.5 -26.5q102 0 201 80l137 756h324l-117 -648q-14 -86 -14 -106q0 -90 70 -90q33 0 92 47l80 -119 q-137 -150 -326 -149q-186 0 -242 135q-211 -135 -368 -135q-139 0 -220 92q-4 -25 -4 -45q0 -37 20.5 -135.5t20.5 -106.5q0 -78 -40 -132t-99 -54q-47 0 -76.5 31.5t-29.5 82.5z" />
<glyph unicode="&#xb6;" d="M143 786q0 84 16.5 163t63.5 162t119 144.5t193.5 100.5t277.5 39h674l-273 -1489q-8 -66 -8 -76q0 -33 24.5 -45t100.5 -18l35 -3l-31 -176h-958l31 176l30 3q92 4 123 34.5t49 130.5l74 402q-127 0 -217 17.5t-168 64.5t-117 139t-39 231zM498 739.5q0 -69.5 16 -112.5 t54 -60.5t68 -21.5t87 -4l121 669q-20 2 -56 2q-86 0 -147 -50t-90 -129t-41 -151.5t-12 -142zM821 -227h133l263 1437h-134z" />
<glyph unicode="&#xb7;" horiz-adv-x="696" d="M266 512q0 78 53.5 131t131 53t131 -53t53.5 -131t-53.5 -131t-131 -53t-131 53t-53.5 131z" />
<glyph unicode="&#xb8;" horiz-adv-x="737" d="M139 -332q0 33 22.5 56.5t53.5 23.5q25 0 55.5 -41t69.5 -41q92 0 92 80q0 31 -16.5 52.5t-43 21.5t-48.5 -10l-50 49l64 145h98l-43 -102h70q59 0 104 -44t45 -102q0 -96 -77.5 -146t-196.5 -50q-90 0 -144.5 29.5t-54.5 78.5z" />
<glyph unicode="&#xb9;" horiz-adv-x="835" d="M242 559l22 121h78q49 2 68.5 14.5t25.5 46.5l76 416q4 29 4 37q0 41 -76 41h-73l20 119q106 0 189 10t112 20l29 11h82l-115 -639q-6 -25 -6 -39q0 -18 16.5 -27.5t61.5 -11.5h75l-22 -119h-567z" />
<glyph unicode="&#xba;" horiz-adv-x="901" d="M96 614l23 127h837l-22 -127h-838zM270 1047q0 152 102.5 267.5t280.5 115.5q139 0 214 -65t75 -185q0 -143 -105.5 -259t-279.5 -116q-131 0 -209 65.5t-78 176.5zM479 1006q0 -49 22.5 -77t63.5 -28q49 0 85 42t52.5 101.5t23.5 103.5t7 69q0 117 -88 116 q-61 0 -101 -69.5t-52.5 -138t-12.5 -119.5z" />
<glyph unicode="&#xbb;" horiz-adv-x="778" d="M127 186l172 392l-84 323l115 76l180 -414l-295 -446zM449 186l172 392l-84 323l114 76l180 -414l-294 -446z" />
<glyph unicode="&#xbc;" horiz-adv-x="2088" d="M242 559l22 121h78q49 2 68.5 14.5t25.5 46.5l76 416q4 29 4 37q0 41 -76 41h-73l20 119q106 0 189 10t112 20l29 11h82l-115 -639q-6 -25 -6 -39q0 -18 16.5 -27.5t61.5 -11.5h75l-22 -119h-567zM643 0l907 1395h170l-905 -1395h-172zM1305 330l526 506h225l-86 -474 h189l-74 -143h-141l-7 -33l-4 -14q0 -18 18.5 -33.5t49.5 -17.5l43 -2l-23 -119h-465l21 119l47 2q45 4 62.5 22.5t27.5 75.5h-377zM1522 362h217l51 273z" />
<glyph unicode="&#xbd;" horiz-adv-x="2088" d="M242 559l22 121h78q49 2 68.5 14.5t25.5 46.5l76 416q4 29 4 37q0 41 -76 41h-73l20 119q106 0 189 10t112 20l29 11h82l-115 -639q-6 -25 -6 -39q0 -18 16.5 -27.5t61.5 -11.5h75l-22 -119h-567zM618 0l908 1395h170l-905 -1395h-173zM1315 141q158 66 321 187 q215 164 215 305q0 43 -30.5 70.5t-77.5 27.5q-49 0 -89 -19.5t-40 -43.5q4 -12 11 -25.5t11 -23t4 -21.5q0 -45 -38.5 -80t-88.5 -35q-47 0 -77.5 30t-30.5 79q0 84 80 158q115 102 301 102q154 0 245 -62.5t91 -165t-83 -186.5t-300 -205l-86 -49h121q109 0 145.5 17.5 t83.5 93.5l6 8l107 -35l-125 -268h-662z" />
<glyph unicode="&#xbe;" horiz-adv-x="2088" d="M176 739q0 57 40 97.5t93 40.5q45 0 75 -25t30 -61l-19 -64q0 -18 40 -34.5t85 -16.5q78 0 125 43t47 115q0 61 -42 87.5t-142 26.5h-43l22 123h56q186 0 186 121q0 86 -115 86q-37 0 -71.5 -14.5t-34.5 -28.5q0 -6 3 -19.5t3 -29.5q0 -41 -38 -72t-91 -31 q-47 0 -76.5 26t-29.5 69q0 96 106.5 164.5t258 68.5t248.5 -59.5t97 -153.5q0 -55 -30.5 -99t-63.5 -60.5t-55 -32.5q123 -55 123 -168q0 -127 -130.5 -211t-322.5 -84q-145 0 -239.5 55t-94.5 141zM664 0l907 1395h170l-905 -1395h-172zM1305 330l526 506h225l-86 -474 h189l-74 -143h-141l-7 -33q-4 -8 -4 -14q0 -16 18.5 -32.5t49.5 -18.5l43 -2l-23 -119h-465l21 119l47 2q45 4 62.5 22.5t27.5 75.5h-377zM1522 362h217l51 273z" />
<glyph unicode="&#xbf;" horiz-adv-x="1269" d="M96 -6q0 139 86 253.5t238 174.5q104 41 141 81t49 122h187q-6 -145 -44 -217t-157 -152q-150 -100 -150 -244q-2 -90 52.5 -145t144.5 -55q82 0 147.5 33.5t65.5 76.5q0 12 -8 49t-8 49q0 63 53 114.5t119 51.5q72 0 113.5 -41t41.5 -112q-2 -158 -174 -273.5 t-407 -115.5q-219 0 -355.5 97t-134.5 253zM549 891q0 82 58.5 141.5t140.5 59.5q68 0 112.5 -45.5t44.5 -114.5q0 -78 -59.5 -137.5t-136.5 -59.5q-72 0 -116 43t-44 113z" />
<glyph unicode="&#xc0;" horiz-adv-x="1474" d="M-55 0l30 166q109 25 170.5 85t130.5 179l570 965h309l238 -1030q35 -119 57.5 -145.5t99.5 -47.5l25 -6l-31 -166h-721l31 166l68 8q68 10 92 25.5t24 48.5q0 23 -14 90l-33 158h-454l-95 -179q-33 -61 -32 -88q0 -45 118 -59l39 -4l-30 -166h-592zM625 655h336l-84 447 zM823 1718q18 47 74.5 79t122.5 32q70 0 129 -60q76 -86 139 -204l-121 -80q-195 59 -245 86q-128 65 -99 147z" />
<glyph unicode="&#xc1;" horiz-adv-x="1474" d="M-55 0l30 166q109 25 170.5 85t130.5 179l570 965h309l238 -1030q35 -119 57.5 -145.5t99.5 -47.5l25 -6l-31 -166h-721l31 166l68 8q68 10 92 25.5t24 48.5q0 23 -14 90l-33 158h-454l-95 -179q-33 -61 -32 -88q0 -45 118 -59l39 -4l-30 -166h-592zM625 655h336l-84 447 zM815 1565q106 119 215 204q80 59 150 60q66 0 110.5 -32t44.5 -79q0 -82 -151 -147q-66 -27 -277 -86z" />
<glyph unicode="&#xc2;" horiz-adv-x="1474" d="M-55 0l30 166q109 25 170.5 85t130.5 179l570 965h309l238 -1030q35 -119 57.5 -145.5t99.5 -47.5l25 -6l-31 -166h-721l31 166l68 8q68 10 92 25.5t24 48.5q0 23 -14 90l-33 158h-454l-95 -179q-33 -61 -32 -88q0 -45 118 -59l39 -4l-30 -166h-592zM625 655h336l-84 447 zM659 1624l414 191l352 -201l-94 -113l-293 103l-309 -103z" />
<glyph unicode="&#xc3;" horiz-adv-x="1474" d="M-55 0l30 166q109 25 170.5 85t130.5 179l570 965h309l238 -1030q35 -119 57.5 -145.5t99.5 -47.5l25 -6l-31 -166h-721l31 166l68 8q68 10 92 25.5t24 48.5q0 23 -14 90l-33 158h-454l-95 -179q-33 -61 -32 -88q0 -45 118 -59l39 -4l-30 -166h-592zM625 655h336l-84 447 zM684 1612q47 92 103.5 132t138.5 40q70 0 159 -32t123 -32q39 0 57.5 9.5t51.5 46.5l94 -76q-63 -102 -109.5 -135t-127.5 -33q-55 0 -149.5 32.5t-133.5 32.5q-70 0 -113 -59z" />
<glyph unicode="&#xc4;" horiz-adv-x="1474" d="M-55 0l30 166q109 25 170.5 85t130.5 179l570 965h309l238 -1030q35 -119 57.5 -145.5t99.5 -47.5l25 -6l-31 -166h-721l31 166l68 8q68 10 92 25.5t24 48.5q0 23 -14 90l-33 158h-454l-95 -179q-33 -61 -32 -88q0 -45 118 -59l39 -4l-30 -166h-592zM625 655h336l-84 447 zM629 1626q0 76 59.5 135.5t134.5 59.5q59 0 96 -37t37 -96q0 -72 -62.5 -133.5t-133.5 -61.5q-57 0 -94 38t-37 95zM1139 1626q0 76 59 135.5t135 59.5q59 0 96 -37t37 -96q0 -72 -62.5 -133.5t-133.5 -61.5q-57 0 -94 38t-37 95z" />
<glyph unicode="&#xc5;" horiz-adv-x="1474" d="M-55 0l30 166q109 25 170.5 85t130.5 179l570 965h309l238 -1030q35 -119 57.5 -145.5t99.5 -47.5l25 -6l-31 -166h-721l31 166l68 8q68 10 92 25.5t24 48.5q0 23 -14 90l-33 158h-454l-95 -179q-33 -61 -32 -88q0 -45 118 -59l39 -4l-30 -166h-592zM625 655h336l-84 447 zM825 1681q0 92 66.5 158t161 66t160 -64.5t65.5 -159.5q0 -90 -66.5 -154.5t-160.5 -64.5q-92 0 -159 64.5t-67 154.5zM952 1686q0 -43 29 -74t70 -31q39 0 68.5 30.5t29.5 71.5q0 43 -28.5 73t-69.5 30t-70 -29.5t-29 -70.5z" />
<glyph unicode="&#xc6;" horiz-adv-x="2334" d="M-55 0l30 166q133 16 199 57t223 203l951 969h1011l113 -453l-143 -45q-53 150 -180.5 241t-280.5 91q-131 0 -178.5 -27.5t-63.5 -111.5l-47 -259h92q102 0 145.5 40t81.5 176h142l-113 -621h-141q4 66 3 121t-43 93t-128 38h-68l-61 -336l-10 -88q0 -45 32.5 -63.5 t128.5 -18.5q119 0 242 43t219 117q82 63 197 186l137 -55l-231 -463h-1268l31 166l32 4q76 8 109 45t49 129l31 174h-465l-162 -176q-78 -78 -78 -117q0 -16 11.5 -27.5t42 -17.5t45 -7t59.5 -5l18 -2l-30 -166h-684zM870 678h347l79 438z" />
<glyph unicode="&#xc7;" horiz-adv-x="1433" d="M160 578q0 96 26.5 203.5t90 223t152.5 207t227.5 150.5t301.5 59q154 0 345 -88l24 62h115l102 -537l-151 -33q-25 137 -141.5 272.5t-262.5 135.5q-131 0 -233.5 -106.5t-152.5 -259t-50 -314.5q0 -184 90 -287.5t250 -103.5q127 0 258 81t219 216l141 -92 q-233 -362 -637 -392l-30 -73h69q59 0 104.5 -44t45.5 -102q0 -96 -78 -146t-197 -50q-90 0 -144 29.5t-54 78.5q0 33 22.5 56.5t53.5 23.5q25 0 55.5 -41t69.5 -41q92 0 92 80q0 31 -16.5 52.5t-43 21.5t-49.5 -10l-49 49l51 114q-281 12 -448.5 187.5t-167.5 417.5z" />
<glyph unicode="&#xc8;" horiz-adv-x="1474" d="M29 0l30 166l45 4q80 8 114 44t50 130l129 707l9 73q0 47 -25 71t-84 30l-45 4l31 166h1196l112 -453l-143 -45q-152 332 -465 332q-51 0 -88 -7.5t-59.5 -18.5t-38 -28.5t-22.5 -37t-12 -43t-9 -47.5l-39 -207q33 -4 82 -4q113 0 153.5 37.5t75.5 173.5h145l-112 -619 h-146q4 49 5 66q0 45 -12.5 75.5t-29 48t-51 26.5t-62.5 11t-81 2l-61 -338q-8 -53 -9 -65q0 -47 33 -64.5t125 -17.5q182 0 322.5 77t330.5 283l136 -71l-232 -461h-1298zM754 1718q18 47 74.5 79t121.5 32q70 0 129 -60q76 -86 140 -204l-121 -80q-195 59 -246 86 q-127 65 -98 147z" />
<glyph unicode="&#xc9;" horiz-adv-x="1474" d="M29 0l30 166l45 4q80 8 114 44t50 130l129 707l9 73q0 47 -25 71t-84 30l-45 4l31 166h1196l112 -453l-143 -45q-152 332 -465 332q-51 0 -88 -7.5t-59.5 -18.5t-38 -28.5t-22.5 -37t-12 -43t-9 -47.5l-39 -207q33 -4 82 -4q113 0 153.5 37.5t75.5 173.5h145l-112 -619 h-146q4 49 5 66q0 45 -12.5 75.5t-29 48t-51 26.5t-62.5 11t-81 2l-61 -338q-8 -53 -9 -65q0 -47 33 -64.5t125 -17.5q182 0 322.5 77t330.5 283l136 -71l-232 -461h-1298zM745 1565q106 119 216 204q80 59 149 60q66 0 111 -32t45 -79q0 -82 -152 -147q-66 -27 -276 -86z " />
<glyph unicode="&#xca;" horiz-adv-x="1474" d="M29 0l30 166l45 4q80 8 114 44t50 130l129 707l9 73q0 47 -25 71t-84 30l-45 4l31 166h1196l112 -453l-143 -45q-152 332 -465 332q-51 0 -88 -7.5t-59.5 -18.5t-38 -28.5t-22.5 -37t-12 -43t-9 -47.5l-39 -207q33 -4 82 -4q113 0 153.5 37.5t75.5 173.5h145l-112 -619 h-146q4 49 5 66q0 45 -12.5 75.5t-29 48t-51 26.5t-62.5 11t-81 2l-61 -338q-8 -53 -9 -65q0 -47 33 -64.5t125 -17.5q182 0 322.5 77t330.5 283l136 -71l-232 -461h-1298zM590 1624l414 191l352 -201l-94 -113l-293 103l-310 -103z" />
<glyph unicode="&#xcb;" horiz-adv-x="1474" d="M29 0l30 166l45 4q80 8 114 44t50 130l129 707l9 73q0 47 -25 71t-84 30l-45 4l31 166h1196l112 -453l-143 -45q-152 332 -465 332q-51 0 -88 -7.5t-59.5 -18.5t-38 -28.5t-22.5 -37t-12 -43t-9 -47.5l-39 -207q33 -4 82 -4q113 0 153.5 37.5t75.5 173.5h145l-112 -619 h-146q4 49 5 66q0 45 -12.5 75.5t-29 48t-51 26.5t-62.5 11t-81 2l-61 -338q-8 -53 -9 -65q0 -47 33 -64.5t125 -17.5q182 0 322.5 77t330.5 283l136 -71l-232 -461h-1298zM559 1626q0 76 59.5 135.5t135.5 59.5q59 0 96 -37t37 -96q0 -72 -62.5 -133.5t-134.5 -61.5 q-57 0 -94 38t-37 95zM1069 1626q0 76 59.5 135.5t135.5 59.5q59 0 96 -37t37 -96q0 -72 -62.5 -133.5t-134.5 -61.5q-57 0 -94 38t-37 95z" />
<glyph unicode="&#xcc;" horiz-adv-x="778" d="M29 0l30 166l45 4q82 12 115 46t49 128l129 707q6 39 6 69q0 49 -23.5 74t-84.5 31l-43 4l29 166h712l-30 -166l-45 -4q-82 -10 -115 -44t-49 -130l-129 -707q-6 -39 -7 -70q0 -51 24 -75.5t85 -28.5l43 -4l-31 -166h-710zM461 1718q18 47 74.5 79t121.5 32q70 0 129 -60 q76 -86 140 -204l-121 -80q-195 59 -246 86q-127 65 -98 147z" />
<glyph unicode="&#xcd;" horiz-adv-x="778" d="M29 0l30 166l45 4q82 12 115 46t49 128l129 707q6 39 6 69q0 49 -23.5 74t-84.5 31l-43 4l29 166h712l-30 -166l-45 -4q-82 -10 -115 -44t-49 -130l-129 -707q-6 -39 -7 -70q0 -51 24 -75.5t85 -28.5l43 -4l-31 -166h-710zM453 1565q106 119 215 204q80 59 149 60 q66 0 111 -32t45 -79q0 -82 -152 -147q-66 -27 -276 -86z" />
<glyph unicode="&#xce;" horiz-adv-x="778" d="M29 0l30 166l45 4q82 12 115 46t49 128l129 707q6 39 6 69q0 49 -23.5 74t-84.5 31l-43 4l29 166h712l-30 -166l-45 -4q-82 -10 -115 -44t-49 -130l-129 -707q-6 -39 -7 -70q0 -51 24 -75.5t85 -28.5l43 -4l-31 -166h-710zM297 1624l414 191l352 -201l-94 -113l-293 103 l-309 -103z" />
<glyph unicode="&#xcf;" horiz-adv-x="778" d="M29 0l30 166l45 4q82 12 115 46t49 128l129 707q6 39 6 69q0 49 -23.5 74t-84.5 31l-43 4l29 166h712l-30 -166l-45 -4q-82 -10 -115 -44t-49 -130l-129 -707q-6 -39 -7 -70q0 -51 24 -75.5t85 -28.5l43 -4l-31 -166h-710zM266 1626q0 76 59.5 135.5t135.5 59.5 q59 0 96 -37t37 -96q0 -72 -62.5 -133.5t-134.5 -61.5q-57 0 -94 38t-37 95zM776 1626q0 76 59.5 135.5t135.5 59.5q59 0 96 -37t37 -96q0 -72 -62.5 -133.5t-134.5 -61.5q-57 0 -94 38t-37 95z" />
<glyph unicode="&#xd0;" horiz-adv-x="1556" d="M29 0l30 166l45 4q82 12 114 46t50 128l60 318h-181l31 163h178l41 224q4 20 9 77q0 43 -24 67t-85 32l-45 4l29 166h655q360 0 536.5 -121t176.5 -440q0 -147 -31 -268.5t-83 -207.5t-129 -150.5t-162 -103t-191.5 -62.5t-204.5 -33t-213 -9h-606zM614 252 q0 -41 32 -57.5t124 -16.5q215 0 369.5 201t154.5 479q0 178 -86 273.5t-247 95.5q-72 0 -114 -14.5t-57.5 -39t-24.5 -58.5t-13 -75l-39 -215h319l-28 -163h-320l-61 -340q-9 -39 -9 -70z" />
<glyph unicode="&#xd1;" horiz-adv-x="1515" d="M29 0l30 166l45 4q82 10 116 44t50 130l127 707q8 57 9 73q0 47 -25 72t-84 29l-45 4l31 166h591l326 -871l94 527q8 57 9 71q0 51 -27 75t-82 28l-45 4l31 166h551l-31 -166l-45 -4q-82 -10 -116 -44t-50 -130l-191 -1051h-254l-438 1124l-141 -780q-8 -35 -8 -68 q0 -96 108 -106l45 -4l-30 -166h-551zM690 1612q47 92 103.5 132t138.5 40q70 0 159 -32t123 -32q39 0 57.5 9.5t51.5 46.5l94 -76q-63 -102 -109 -135t-128 -33q-57 0 -151.5 32.5t-131.5 32.5q-70 0 -113 -59z" />
<glyph unicode="&#xd2;" horiz-adv-x="1556" d="M160 596q0 342 241.5 583.5t591.5 241.5q297 0 477.5 -173t180.5 -457q0 -137 -56.5 -278.5t-158 -263.5t-267 -199t-362.5 -77q-289 0 -468 172t-179 451zM545 543q0 -174 73.5 -273.5t200.5 -99.5q98 0 178 53t126 132t78 175.5t43 174t11 139.5q0 186 -74.5 287.5 t-211.5 101.5q-174 0 -299 -203.5t-125 -486.5zM850 1718q18 47 74.5 79t122.5 32q70 0 129 -60q76 -86 139 -204l-121 -80q-195 59 -246 86q-127 65 -98 147z" />
<glyph unicode="&#xd3;" horiz-adv-x="1556" d="M160 596q0 342 241.5 583.5t591.5 241.5q297 0 477.5 -173t180.5 -457q0 -137 -56.5 -278.5t-158 -263.5t-267 -199t-362.5 -77q-289 0 -468 172t-179 451zM545 543q0 -174 73.5 -273.5t200.5 -99.5q98 0 178 53t126 132t78 175.5t43 174t11 139.5q0 186 -74.5 287.5 t-211.5 101.5q-174 0 -299 -203.5t-125 -486.5zM842 1565q106 119 215 204q80 59 149 60q66 0 111 -32t45 -79q0 -82 -152 -147q-66 -27 -276 -86z" />
<glyph unicode="&#xd4;" horiz-adv-x="1556" d="M160 596q0 342 241.5 583.5t591.5 241.5q297 0 477.5 -173t180.5 -457q0 -137 -56.5 -278.5t-158 -263.5t-267 -199t-362.5 -77q-289 0 -468 172t-179 451zM545 543q0 -174 73.5 -273.5t200.5 -99.5q98 0 178 53t126 132t78 175.5t43 174t11 139.5q0 186 -74.5 287.5 t-211.5 101.5q-174 0 -299 -203.5t-125 -486.5zM686 1624l414 191l352 -201l-94 -113l-293 103l-309 -103z" />
<glyph unicode="&#xd5;" horiz-adv-x="1556" d="M160 596q0 342 241.5 583.5t591.5 241.5q297 0 477.5 -173t180.5 -457q0 -137 -56.5 -278.5t-158 -263.5t-267 -199t-362.5 -77q-289 0 -468 172t-179 451zM545 543q0 -174 73.5 -273.5t200.5 -99.5q98 0 178 53t126 132t78 175.5t43 174t11 139.5q0 186 -74.5 287.5 t-211.5 101.5q-174 0 -299 -203.5t-125 -486.5zM711 1612q47 92 103 132t138 40q70 0 159 -32t124 -32q39 0 57.5 9.5t50.5 46.5l95 -76q-63 -102 -109.5 -135t-128.5 -33q-57 0 -150.5 32.5t-131.5 32.5q-70 0 -113 -59z" />
<glyph unicode="&#xd6;" horiz-adv-x="1556" d="M160 596q0 342 241.5 583.5t591.5 241.5q297 0 477.5 -173t180.5 -457q0 -137 -56.5 -278.5t-158 -263.5t-267 -199t-362.5 -77q-289 0 -468 172t-179 451zM545 543q0 -174 73.5 -273.5t200.5 -99.5q98 0 178 53t126 132t78 175.5t43 174t11 139.5q0 186 -74.5 287.5 t-211.5 101.5q-174 0 -299 -203.5t-125 -486.5zM655 1626q0 76 59.5 135.5t135.5 59.5q59 0 96 -37t37 -96q0 -72 -62.5 -133.5t-134.5 -61.5q-57 0 -94 38t-37 95zM1165 1626q0 76 59.5 135.5t135.5 59.5q59 0 96 -37t37 -96q0 -72 -62.5 -133.5t-134.5 -61.5q-57 0 -94 38 t-37 95z" />
<glyph unicode="&#xd7;" horiz-adv-x="1228" d="M256 219l293 293l-293 293l168 168l293 -293l293 293l168 -168l-293 -293l293 -293l-168 -168l-293 293l-293 -293z" />
<glyph unicode="&#xd8;" horiz-adv-x="1556" d="M43 -59l250 258q-129 170 -129 397q0 215 103.5 403.5t297 305t434.5 116.5q217 0 385 -102l160 166h191l-244 -252q164 -174 164 -432q0 -152 -59.5 -299.5t-166 -265t-267.5 -190.5t-349 -73q-244 0 -422 129l-158 -161h-190zM549 541q0 -45 4 -76l641 657 q-80 111 -219 111q-174 0 -300 -204.5t-126 -487.5zM596 311q74 -141 227 -141q139 0 242.5 113.5t149 264t45.5 304.5q0 53 -13 131z" />
<glyph unicode="&#xd9;" horiz-adv-x="1515" d="M229 1229l31 166h713l-31 -166l-45 -4q-82 -10 -115.5 -44t-50.5 -130l-86 -482q-16 -74 -16 -184q0 -98 63.5 -152.5t179.5 -54.5q59 0 109.5 14.5t83.5 34t60.5 57.5t42 63.5t27.5 72.5t17.5 67.5t12.5 65.5l90 498q8 35 8 67q0 96 -109 107l-45 4l31 166h551l-31 -166 l-45 -4q-82 -10 -113.5 -44t-50.5 -130l-104 -576q-94 -502 -666 -502q-221 0 -356 90.5t-135 237.5q0 47 16 150l109 600q8 57 8 73q0 47 -24.5 72t-84.5 29zM868 1718q18 47 74.5 79t122.5 32q70 0 129 -60q76 -86 139 -204l-121 -80q-195 59 -245 86q-128 65 -99 147z " />
<glyph unicode="&#xda;" horiz-adv-x="1515" d="M229 1229l31 166h713l-31 -166l-45 -4q-82 -10 -115.5 -44t-50.5 -130l-86 -482q-16 -74 -16 -184q0 -98 63.5 -152.5t179.5 -54.5q59 0 109.5 14.5t83.5 34t60.5 57.5t42 63.5t27.5 72.5t17.5 67.5t12.5 65.5l90 498q8 35 8 67q0 96 -109 107l-45 4l31 166h551l-31 -166 l-45 -4q-82 -10 -113.5 -44t-50.5 -130l-104 -576q-94 -502 -666 -502q-221 0 -356 90.5t-135 237.5q0 47 16 150l109 600q8 57 8 73q0 47 -24.5 72t-84.5 29zM860 1565q106 119 215 204q80 59 150 60q66 0 110.5 -32t44.5 -79q0 -82 -151 -147q-66 -27 -277 -86z" />
<glyph unicode="&#xdb;" horiz-adv-x="1515" d="M229 1229l31 166h713l-31 -166l-45 -4q-82 -10 -115.5 -44t-50.5 -130l-86 -482q-16 -74 -16 -184q0 -98 63.5 -152.5t179.5 -54.5q59 0 109.5 14.5t83.5 34t60.5 57.5t42 63.5t27.5 72.5t17.5 67.5t12.5 65.5l90 498q8 35 8 67q0 96 -109 107l-45 4l31 166h551l-31 -166 l-45 -4q-82 -10 -113.5 -44t-50.5 -130l-104 -576q-94 -502 -666 -502q-221 0 -356 90.5t-135 237.5q0 47 16 150l109 600q8 57 8 73q0 47 -24.5 72t-84.5 29zM705 1624l413 191l352 -201l-94 -113l-293 103l-309 -103z" />
<glyph unicode="&#xdc;" horiz-adv-x="1515" d="M229 1229l31 166h713l-31 -166l-45 -4q-82 -10 -115.5 -44t-50.5 -130l-86 -482q-16 -74 -16 -184q0 -98 63.5 -152.5t179.5 -54.5q59 0 109.5 14.5t83.5 34t60.5 57.5t42 63.5t27.5 72.5t17.5 67.5t12.5 65.5l90 498q8 35 8 67q0 96 -109 107l-45 4l31 166h551l-31 -166 l-45 -4q-82 -10 -113.5 -44t-50.5 -130l-104 -576q-94 -502 -666 -502q-221 0 -356 90.5t-135 237.5q0 47 16 150l109 600q8 57 8 73q0 47 -24.5 72t-84.5 29zM674 1626q0 76 59.5 135.5t134.5 59.5q59 0 96 -37t37 -96q0 -72 -62 -133.5t-134 -61.5q-57 0 -94 38t-37 95z M1184 1626q0 76 59.5 135.5t134.5 59.5q59 0 96 -37t37 -96q0 -72 -62.5 -133.5t-133.5 -61.5q-57 0 -94 38t-37 95z" />
<glyph unicode="&#xdd;" horiz-adv-x="1351" d="M147 1229l31 166h723l-31 -166q-59 -4 -77.5 -6t-47 -7.5t-37 -15.5t-8.5 -26q0 -18 13 -48l157 -370l285 354q41 47 41 74q0 31 -139 45l30 166h586l-31 -166q-115 -18 -184 -63.5t-194 -192.5l-324 -387l-43 -242l-8 -72q0 -47 24.5 -72.5t83.5 -29.5l62 -4l-31 -166 h-739l30 166l64 4q80 10 113.5 45t50.5 129l43 242l-182 389q-68 143 -111 186t-131 62zM727 1565q106 119 215 204q80 59 150 60q66 0 110.5 -32t44.5 -79q0 -82 -151 -147q-66 -27 -277 -86z" />
<glyph unicode="&#xde;" horiz-adv-x="1310" d="M-12 0l28 168l43 4q92 14 123 45t47 127l123 705q12 61 13 79q0 41 -27 63.5t-94 29.5l-39 4l28 170h730l-29 -170l-49 -4q-80 -8 -113 -34t-43 -83h197q250 0 380 -65.5t130 -239.5q0 -238 -167 -362t-485 -124h-200q-6 -31 -6 -57q0 -72 118 -84l39 -4l-28 -168h-719z M614 498h88q190 0 262 72.5t72 168.5q0 180 -260 181h-88z" />
<glyph unicode="&#xdf;" horiz-adv-x="1351" d="M-473 -258q0 68 49 115t121 47q74 0 131 -64q35 -41 53.5 -51t52.5 -10q45 0 80 13t62.5 47t46 62.5t35.5 87.5l25 92q9 34 25 106l21 102l131 573h-157l45 185h153l17 81q29 137 128 229.5t206.5 126.5t220.5 34q176 0 288.5 -93.5t112.5 -236.5q0 -88 -38 -150.5 t-124 -117.5q-63 -41 -63 -66q0 -27 78 -57q96 -37 153.5 -121t57.5 -187q0 -209 -185.5 -357t-445.5 -148q-80 0 -211 26l53 160q74 -6 84 -6q129 0 225.5 82t96.5 190q0 117 -137 197l-45 24q-22 12 -41 27.5t-33.5 33t-23.5 42t-9 55.5q0 84 72 143q16 12 161 72 q104 41 105 162q0 76 -44 125t-112 49q-78 0 -120 -62.5t-87 -248.5l-133 -551l-6 -23q-16 -72 -27.5 -112.5l-36 -123.5t-47 -136.5t-62.5 -130t-81 -128t-101.5 -107.5t-126 -90t-152.5 -56.5t-183 -22.5q-125 0 -191.5 43t-66.5 125z" />
<glyph unicode="&#xe0;" d="M172 418q0 260 182.5 453.5t427.5 193.5q164 0 279 -96l14 78h291l-119 -660q-12 -61 -12 -88q0 -96 74 -96q45 0 108 49l88 -109q-172 -162 -344 -161q-203 0 -248 161q-137 -162 -342 -161q-174 0 -286.5 123t-112.5 313zM518 373q0 -86 38 -136.5t103 -50.5 q117 0 211 162q66 111 142 471q-104 66 -174 66q-98 0 -175 -91.5t-111 -205t-34 -215.5zM727 1440q20 53 73.5 88t112.5 35q63 0 115.5 -74t110.5 -219l-117 -90q-203 78 -262.5 130t-32.5 130z" />
<glyph unicode="&#xe1;" d="M172 418q0 260 182.5 453.5t427.5 193.5q164 0 279 -96l14 78h291l-119 -660q-12 -61 -12 -88q0 -96 74 -96q45 0 108 49l88 -109q-172 -162 -344 -161q-203 0 -248 161q-137 -162 -342 -161q-174 0 -286.5 123t-112.5 313zM518 373q0 -86 38 -136.5t103 -50.5 q117 0 211 162q66 111 142 471q-104 66 -174 66q-98 0 -175 -91.5t-111 -205t-34 -215.5zM715 1270q109 143 188.5 218t143.5 75q59 0 100 -36t41 -87q0 -78 -79 -130.5t-310 -129.5z" />
<glyph unicode="&#xe2;" d="M172 418q0 260 182.5 453.5t427.5 193.5q164 0 279 -96l14 78h291l-119 -660q-12 -61 -12 -88q0 -96 74 -96q45 0 108 49l88 -109q-172 -162 -344 -161q-203 0 -248 161q-137 -162 -342 -161q-174 0 -286.5 123t-112.5 313zM518 373q0 -86 38 -136.5t103 -50.5 q117 0 211 162q66 111 142 471q-104 66 -174 66q-98 0 -175 -91.5t-111 -205t-34 -215.5zM569 1335l377 211l320 -221l-86 -127l-267 115l-280 -115z" />
<glyph unicode="&#xe3;" d="M172 418q0 260 182.5 453.5t427.5 193.5q164 0 279 -96l14 78h291l-119 -660q-12 -61 -12 -88q0 -96 74 -96q45 0 108 49l88 -109q-172 -162 -344 -161q-203 0 -248 161q-137 -162 -342 -161q-174 0 -286.5 123t-112.5 313zM518 373q0 -86 38 -136.5t103 -50.5 q117 0 211 162q66 111 142 471q-104 66 -174 66q-98 0 -175 -91.5t-111 -205t-34 -215.5zM561 1327q47 92 103.5 132t138.5 40q70 0 159 -31.5t123 -31.5q39 0 57.5 9t51.5 46l94 -76q-63 -102 -109 -135t-128 -33q-55 0 -149.5 33t-133.5 33q-70 0 -113 -60z" />
<glyph unicode="&#xe4;" d="M172 418q0 260 182.5 453.5t427.5 193.5q164 0 279 -96l14 78h291l-119 -660q-12 -61 -12 -88q0 -96 74 -96q45 0 108 49l88 -109q-172 -162 -344 -161q-203 0 -248 161q-137 -162 -342 -161q-174 0 -286.5 123t-112.5 313zM506 1341q0 76 59.5 135.5t134.5 59.5 q59 0 96.5 -37t37.5 -96q0 -72 -62.5 -133.5t-134.5 -61.5q-57 0 -94 38t-37 95zM518 373q0 -86 38 -136.5t103 -50.5q117 0 211 162q66 111 142 471q-104 66 -174 66q-98 0 -175 -91.5t-111 -205t-34 -215.5zM1016 1341q0 76 59.5 135.5t134.5 59.5q59 0 96 -37t37 -96 q0 -72 -62 -133.5t-134 -61.5q-57 0 -94 38t-37 95z" />
<glyph unicode="&#xe5;" d="M172 418q0 260 182.5 453.5t427.5 193.5q164 0 279 -96l14 78h291l-119 -660q-12 -61 -12 -88q0 -96 74 -96q45 0 108 49l88 -109q-172 -162 -344 -161q-203 0 -248 161q-137 -162 -342 -161q-174 0 -286.5 123t-112.5 313zM518 373q0 -86 38 -136.5t103 -50.5 q117 0 211 162q66 111 142 471q-104 66 -174 66q-98 0 -175 -91.5t-111 -205t-34 -215.5zM698 1370q0 92 66.5 157.5t161 65.5t160 -64.5t65.5 -158.5q0 -90 -66.5 -154.5t-160.5 -64.5q-92 0 -159 64.5t-67 154.5zM825 1374q0 -43 29 -73.5t70 -30.5q39 0 68.5 30.5 t29.5 71.5q0 43 -28.5 73t-69.5 30t-70 -30t-29 -71z" />
<glyph unicode="&#xe6;" horiz-adv-x="1802" d="M80 221q0 78 33.5 141.5t97 103.5t133.5 68.5t164 46t164.5 24.5t158.5 13q20 98 21 148q0 63 -45 105t-117 42q-37 0 -67.5 -9t-50 -20.5t-37 -29.5t-24.5 -28.5t-15 -26.5l-9 -15q-61 -111 -163 -110q-49 0 -85 35.5t-36 85.5q0 111 142 190.5t341 79.5q260 0 391 -131 q133 78 219 104.5t205 26.5q168 0 268.5 -68.5t100.5 -183.5q0 -119 -103.5 -203t-257 -119.5t-338.5 -35.5q-29 0 -53 2q-4 -57 -4 -72q0 -96 53.5 -155.5t137.5 -59.5q57 0 115.5 16.5t105.5 43t81.5 50t62.5 47t32 25.5l98 -104q-72 -92 -235.5 -179t-329.5 -87 q-78 0 -144.5 17t-105.5 42t-72.5 52.5t-45 48t-23.5 30.5q-86 -66 -139.5 -99.5t-138.5 -62t-179 -28.5q-143 0 -225 64t-82 175zM416 276q0 -41 26.5 -65.5t69.5 -24.5q96 0 176 79t113 208q-188 0 -286.5 -57.5t-98.5 -139.5zM1153 598h25q160 0 274.5 61.5t114.5 147.5 q0 45 -32 71.5t-83 26.5q-106 0 -192.5 -102.5t-106.5 -204.5z" />
<glyph unicode="&#xe7;" horiz-adv-x="1146" d="M119 422q0 256 213 449.5t491 193.5q166 0 283 -77t117 -187q0 -76 -59.5 -130.5t-141.5 -54.5q-63 0 -107.5 35t-44.5 88q0 18 8.5 46t8.5 46q0 33 -28 53.5t-68 20.5q-123 0 -225.5 -157.5t-102.5 -348.5q0 -106 55 -163.5t156 -57.5q172 0 385 172l108 -119 q-92 -100 -233 -167.5t-281 -79.5l-35 -82h70q59 0 104.5 -44t45.5 -102q0 -96 -78 -146t-197 -50q-90 0 -144 29.5t-54 78.5q0 33 22.5 56.5t52.5 23.5q25 0 55.5 -41t69.5 -41q92 0 92 80q0 31 -16 52.5t-43 21.5t-49 -10l-49 49l55 125q-197 12 -316.5 132t-119.5 306z " />
<glyph unicode="&#xe8;" horiz-adv-x="1146" d="M121 416q0 266 218 457.5t521 191.5q162 0 261.5 -68.5t99.5 -183.5q0 -117 -101.5 -201t-254 -120.5t-337.5 -36.5q-31 0 -53 2q-6 -53 -6 -88q0 -86 55.5 -138.5t147.5 -52.5q176 0 385 178l110 -120q-86 -96 -246.5 -175t-316.5 -79q-215 0 -349 120.5t-134 313.5z M504 598h24q160 0 275 61.5t115 147.5q0 43 -32 70.5t-83 27.5q-104 0 -190 -99t-109 -208zM659 1440q20 53 73.5 88t113.5 35q63 0 115.5 -74t109.5 -219l-117 -90q-203 78 -262.5 130t-32.5 130z" />
<glyph unicode="&#xe9;" horiz-adv-x="1146" d="M121 416q0 266 218 457.5t521 191.5q162 0 261.5 -68.5t99.5 -183.5q0 -117 -101.5 -201t-254 -120.5t-337.5 -36.5q-31 0 -53 2q-6 -53 -6 -88q0 -86 55.5 -138.5t147.5 -52.5q176 0 385 178l110 -120q-86 -96 -246.5 -175t-316.5 -79q-215 0 -349 120.5t-134 313.5z M504 598h24q160 0 275 61.5t115 147.5q0 43 -32 70.5t-83 27.5q-104 0 -190 -99t-109 -208zM647 1270q109 143 188.5 218t143.5 75q59 0 100 -36t41 -87q0 -78 -78.5 -130.5t-310.5 -129.5z" />
<glyph unicode="&#xea;" horiz-adv-x="1146" d="M121 416q0 266 218 457.5t521 191.5q162 0 261.5 -68.5t99.5 -183.5q0 -117 -101.5 -201t-254 -120.5t-337.5 -36.5q-31 0 -53 2q-6 -53 -6 -88q0 -86 55.5 -138.5t147.5 -52.5q176 0 385 178l110 -120q-86 -96 -246.5 -175t-316.5 -79q-215 0 -349 120.5t-134 313.5z M502 1335l377 211l319 -221l-86 -127l-266 115l-281 -115zM504 598h24q160 0 275 61.5t115 147.5q0 43 -32 70.5t-83 27.5q-104 0 -190 -99t-109 -208z" />
<glyph unicode="&#xeb;" horiz-adv-x="1146" d="M121 416q0 266 218 457.5t521 191.5q162 0 261.5 -68.5t99.5 -183.5q0 -117 -101.5 -201t-254 -120.5t-337.5 -36.5q-31 0 -53 2q-6 -53 -6 -88q0 -86 55.5 -138.5t147.5 -52.5q176 0 385 178l110 -120q-86 -96 -246.5 -175t-316.5 -79q-215 0 -349 120.5t-134 313.5z M438 1341q0 76 59.5 135.5t135.5 59.5q59 0 96 -37t37 -96q0 -72 -62.5 -133.5t-134.5 -61.5q-57 0 -94 38t-37 95zM504 598h24q160 0 275 61.5t115 147.5q0 43 -32 70.5t-83 27.5q-104 0 -190 -99t-109 -208zM948 1341q0 76 59.5 135.5t135.5 59.5q59 0 96 -37t37 -96 q0 -72 -62.5 -133.5t-134.5 -61.5q-57 0 -94 38t-37 95z" />
<glyph unicode="&#xec;" horiz-adv-x="778" d="M170 807l31 168q201 10 393 72h106l-116 -648q-20 -123 -21 -125q0 -29 23.5 -50t56.5 -21q41 0 131 45l86 -115q-178 -152 -366 -151q-119 0 -193 56t-74 146q0 29 13 101l67 372q4 41 4 56q0 49 -26.5 71.5t-89.5 22.5h-25zM399 1440q20 53 73.5 88t113.5 35 q63 0 115.5 -74t109.5 -219l-117 -90q-203 78 -262.5 130t-32.5 130z" />
<glyph unicode="&#xed;" horiz-adv-x="778" d="M170 807l31 168q201 10 393 72h106l-116 -648q-20 -123 -21 -125q0 -29 23.5 -50t56.5 -21q41 0 131 45l86 -115q-178 -152 -366 -151q-119 0 -193 56t-74 146q0 29 13 101l67 372q4 41 4 56q0 49 -26.5 71.5t-89.5 22.5h-25zM387 1270q109 143 188.5 218t143.5 75 q59 0 100 -36t41 -87q0 -78 -79 -130.5t-310 -129.5z" />
<glyph unicode="&#xee;" horiz-adv-x="778" d="M170 807l31 168q201 10 393 72h106l-116 -648q-20 -123 -21 -125q0 -29 23.5 -50t56.5 -21q41 0 131 45l86 -115q-178 -152 -366 -151q-119 0 -193 56t-74 146q0 29 13 101l67 372q4 41 4 56q0 49 -26.5 71.5t-89.5 22.5h-25zM242 1335l376 211l320 -221l-86 -127 l-266 115l-281 -115z" />
<glyph unicode="&#xef;" horiz-adv-x="778" d="M170 807l31 168q201 10 393 72h106l-116 -648q-20 -123 -21 -125q0 -29 23.5 -50t56.5 -21q41 0 131 45l86 -115q-178 -152 -366 -151q-119 0 -193 56t-74 146q0 29 13 101l67 372q4 41 4 56q0 49 -26.5 71.5t-89.5 22.5h-25zM178 1341q0 76 59.5 135.5t135.5 59.5 q59 0 96 -37t37 -96q0 -72 -62.5 -133.5t-134.5 -61.5q-57 0 -94 38t-37 95zM688 1341q0 76 59.5 135.5t135.5 59.5q59 0 96 -37t37 -96q0 -72 -62.5 -133.5t-134.5 -61.5q-57 0 -94 38t-37 95z" />
<glyph unicode="&#xf0;" horiz-adv-x="1228" d="M121 399q0 166 73.5 315.5t225 250t348.5 100.5q80 0 168 -25q-27 78 -80 148l-272 -64l-27 131l182 41q-70 51 -131 76l94 133q209 -43 334 -139l293 70l27 -133l-203 -48q80 -102 112.5 -209.5t32.5 -263.5q0 -197 -48 -346t-119.5 -233t-169 -136.5t-178.5 -68.5 t-165 -16q-231 0 -364 112t-133 305zM475 338q0 -84 41 -130t117 -46q90 0 156.5 71.5t96 172t42 174t12.5 110.5q0 102 -39 148.5t-123 46.5q-88 0 -153.5 -71t-94 -173t-42 -179t-13.5 -124z" />
<glyph unicode="&#xf1;" d="M170 807l31 168q201 10 393 72h106l-18 -105q66 55 159 89t181 34q129 0 212 -62.5t83 -158.5q0 -27 -14 -111l-64 -358q-16 -98 -16 -103q0 -70 75 -69q33 0 86 33l80 -115q-168 -139 -323 -139q-113 0 -184.5 55t-71.5 145q0 47 10 92l80 424q2 12 2 37q0 47 -33 74 t-92 27q-111 0 -203 -72l-139 -764h-324l121 657q4 41 4 56q0 49 -26.5 71.5t-89.5 22.5h-25zM565 1327q47 92 103.5 132t138.5 40q70 0 159 -31.5t124 -31.5q39 0 57 9t51 46l94 -76q-63 -102 -109 -135t-128 -33q-55 0 -149.5 33t-133.5 33q-70 0 -113 -60z" />
<glyph unicode="&#xf2;" horiz-adv-x="1228" d="M121 399q0 70 17.5 149t64.5 173t118.5 169t192.5 125t272 50q240 0 369 -112.5t129 -321.5q0 -59 -17.5 -135t-64.5 -168t-118.5 -168t-193.5 -127t-274 -51q-229 0 -362 112t-133 305zM475 338q0 -84 41 -130t117 -46q90 0 156.5 71.5t96 172t42 174t12.5 110.5 q0 102 -39 148.5t-123 46.5q-88 0 -153.5 -71t-94 -173t-42 -179t-13.5 -124zM657 1440q20 53 73.5 88t113.5 35q63 0 115.5 -74t109.5 -219l-117 -90q-203 78 -262.5 130t-32.5 130z" />
<glyph unicode="&#xf3;" horiz-adv-x="1228" d="M121 399q0 70 17.5 149t64.5 173t118.5 169t192.5 125t272 50q240 0 369 -112.5t129 -321.5q0 -59 -17.5 -135t-64.5 -168t-118.5 -168t-193.5 -127t-274 -51q-229 0 -362 112t-133 305zM475 338q0 -84 41 -130t117 -46q90 0 156.5 71.5t96 172t42 174t12.5 110.5 q0 102 -39 148.5t-123 46.5q-88 0 -153.5 -71t-94 -173t-42 -179t-13.5 -124zM645 1270q109 143 188.5 218t143.5 75q59 0 100 -36t41 -87q0 -78 -78.5 -130.5t-310.5 -129.5z" />
<glyph unicode="&#xf4;" horiz-adv-x="1228" d="M121 399q0 70 17.5 149t64.5 173t118.5 169t192.5 125t272 50q240 0 369 -112.5t129 -321.5q0 -59 -17.5 -135t-64.5 -168t-118.5 -168t-193.5 -127t-274 -51q-229 0 -362 112t-133 305zM475 338q0 -84 41 -130t117 -46q90 0 156.5 71.5t96 172t42 174t12.5 110.5 q0 102 -39 148.5t-123 46.5q-88 0 -153.5 -71t-94 -173t-42 -179t-13.5 -124zM500 1335l377 211l319 -221l-86 -127l-266 115l-281 -115z" />
<glyph unicode="&#xf5;" horiz-adv-x="1228" d="M121 399q0 70 17.5 149t64.5 173t118.5 169t192.5 125t272 50q240 0 369 -112.5t129 -321.5q0 -59 -17.5 -135t-64.5 -168t-118.5 -168t-193.5 -127t-274 -51q-229 0 -362 112t-133 305zM475 338q0 -84 41 -130t117 -46q90 0 156.5 71.5t96 172t42 174t12.5 110.5 q0 102 -39 148.5t-123 46.5q-88 0 -153.5 -71t-94 -173t-42 -179t-13.5 -124zM492 1327q47 92 103 132t138 40q70 0 159 -31.5t124 -31.5q39 0 57.5 9t50.5 46l95 -76q-63 -102 -109.5 -135t-128.5 -33q-55 0 -149.5 33t-133.5 33q-70 0 -112 -60z" />
<glyph unicode="&#xf6;" horiz-adv-x="1228" d="M121 399q0 70 17.5 149t64.5 173t118.5 169t192.5 125t272 50q240 0 369 -112.5t129 -321.5q0 -59 -17.5 -135t-64.5 -168t-118.5 -168t-193.5 -127t-274 -51q-229 0 -362 112t-133 305zM436 1341q0 76 59.5 135.5t135.5 59.5q59 0 96 -37t37 -96q0 -72 -62.5 -133.5 t-134.5 -61.5q-57 0 -94 38t-37 95zM475 338q0 -84 41 -130t117 -46q90 0 156.5 71.5t96 172t42 174t12.5 110.5q0 102 -39 148.5t-123 46.5q-88 0 -153.5 -71t-94 -173t-42 -179t-13.5 -124zM946 1341q0 76 59.5 135.5t135.5 59.5q59 0 96 -37t37 -96q0 -72 -62.5 -133.5 t-134.5 -61.5q-57 0 -94 38t-37 95z" />
<glyph unicode="&#xf7;" horiz-adv-x="1228" d="M184 393v238h1065v-238h-1065zM532 164q0 76 54.5 130t130.5 54t130 -54t54 -130q0 -78 -53 -131t-131 -53t-131.5 53t-53.5 131zM532 860q0 78 53.5 131t131.5 53t131 -53t53 -131q0 -76 -54 -130t-130 -54t-130.5 54t-54.5 130z" />
<glyph unicode="&#xf8;" horiz-adv-x="1228" d="M35 -111l194 217q-117 117 -116 295q0 70 17 151t65.5 174t120 167t191.5 123t269 49q154 0 266 -49l148 164h164l-205 -230q127 -115 127 -307q0 -84 -23.5 -172t-76 -176t-127 -157.5t-189.5 -112.5t-252 -43q-154 0 -276 57l-135 -150h-162zM469 373l420 471 q-47 41 -121 41q-84 0 -146.5 -63.5t-92 -160t-43 -165t-17.5 -123.5zM496 223q47 -61 129 -61q86 0 150.5 64.5t95 159.5t46 177t15.5 146z" />
<glyph unicode="&#xf9;" d="M170 807l31 168q201 10 393 72h106l-112 -627q-12 -88 -13 -111q0 -41 37 -69.5t90 -28.5q102 0 201 80l137 756h324l-117 -648q-14 -86 -14 -106q0 -90 70 -90q33 0 92 47l80 -119q-137 -150 -326 -149q-186 0 -242 135q-117 -76 -199.5 -105.5t-175.5 -29.5 q-131 0 -216 60t-85 157q0 51 9 92l67 366q4 41 4 56q0 49 -26.5 71.5t-89.5 22.5h-25zM731 1440q20 53 73.5 88t113.5 35q63 0 115 -74t110 -219l-117 -90q-203 78 -262.5 130t-32.5 130z" />
<glyph unicode="&#xfa;" d="M170 807l31 168q201 10 393 72h106l-112 -627q-12 -88 -13 -111q0 -41 37 -69.5t90 -28.5q102 0 201 80l137 756h324l-117 -648q-14 -86 -14 -106q0 -90 70 -90q33 0 92 47l80 -119q-137 -150 -326 -149q-186 0 -242 135q-117 -76 -199.5 -105.5t-175.5 -29.5 q-131 0 -216 60t-85 157q0 51 9 92l67 366q4 41 4 56q0 49 -26.5 71.5t-89.5 22.5h-25zM719 1270q109 143 188.5 218t143.5 75q59 0 100 -36t41 -87q0 -78 -79 -130.5t-310 -129.5z" />
<glyph unicode="&#xfb;" d="M170 807l31 168q201 10 393 72h106l-112 -627q-12 -88 -13 -111q0 -41 37 -69.5t90 -28.5q102 0 201 80l137 756h324l-117 -648q-14 -86 -14 -106q0 -90 70 -90q33 0 92 47l80 -119q-137 -150 -326 -149q-186 0 -242 135q-117 -76 -199.5 -105.5t-175.5 -29.5 q-131 0 -216 60t-85 157q0 51 9 92l67 366q4 41 4 56q0 49 -26.5 71.5t-89.5 22.5h-25zM573 1335l377 211l320 -221l-86 -127l-266 115l-281 -115z" />
<glyph unicode="&#xfc;" d="M170 807l31 168q201 10 393 72h106l-112 -627q-12 -88 -13 -111q0 -41 37 -69.5t90 -28.5q102 0 201 80l137 756h324l-117 -648q-14 -86 -14 -106q0 -90 70 -90q33 0 92 47l80 -119q-137 -150 -326 -149q-186 0 -242 135q-117 -76 -199.5 -105.5t-175.5 -29.5 q-131 0 -216 60t-85 157q0 51 9 92l67 366q4 41 4 56q0 49 -26.5 71.5t-89.5 22.5h-25zM510 1341q0 76 59.5 135.5t135.5 59.5q59 0 96 -37t37 -96q0 -72 -62.5 -133.5t-134.5 -61.5q-57 0 -94 38t-37 95zM1020 1341q0 76 59.5 135.5t134.5 59.5q59 0 96.5 -37t37.5 -96 q0 -72 -62.5 -133.5t-134.5 -61.5q-57 0 -94 38t-37 95z" />
<glyph unicode="&#xfd;" horiz-adv-x="1228" d="M51 -207q0 61 46 103.5t114 42.5q49 0 82 -20.5t42 -43t21 -39.5q43 -74 152 -74q35 0 74 12.5t89 44t91 104.5t57 175q-176 -117 -332 -116q-123 0 -205.5 63.5t-82.5 157.5q0 51 10 100l63 354q8 49 9 64q0 43 -27 64.5t-92 21.5h-25l31 168q201 10 393 72h107 l-115 -633q-16 -92 -16 -97q0 -45 30.5 -75.5t77.5 -30.5q53 0 113.5 26.5t97.5 65.5l135 744h324l-154 -848l-21 -108q-9 -44 -34 -114.5t-55.5 -118.5t-85 -104.5t-122 -90.5t-165.5 -57.5t-219 -23.5q-174 0 -291 60.5t-117 150.5zM645 1270q109 143 188.5 218t143.5 75 q59 0 100 -36t41 -87q0 -78 -78.5 -130.5t-310.5 -129.5z" />
<glyph unicode="&#xfe;" horiz-adv-x="1351" d="M-49 -436l31 168h34q137 0 160 127l227 1251q6 33 7 59q0 47 -27 69t-90 22h-25l29 167q203 10 393 72h109l-105 -575q147 141 312 141q172 0 281.5 -122t109.5 -312q0 -258 -182.5 -453.5t-419.5 -195.5q-135 0 -258 73l-37 -196q-4 -29 -4 -39q0 -45 26.5 -66.5 t91.5 -21.5h56l-31 -168h-688zM569 225q86 -63 185 -63q72 0 132 53t94 133t52.5 163t18.5 151q0 207 -136 206q-66 0 -128 -60t-107 -169q-50 -121 -111 -414z" />
<glyph unicode="&#xff;" horiz-adv-x="1228" d="M51 -207q0 61 46 103.5t114 42.5q49 0 82 -20.5t42 -43t21 -39.5q43 -74 152 -74q35 0 74 12.5t89 44t91 104.5t57 175q-176 -117 -332 -116q-123 0 -205.5 63.5t-82.5 157.5q0 51 10 100l63 354q8 49 9 64q0 43 -27 64.5t-92 21.5h-25l31 168q201 10 393 72h107 l-115 -633q-16 -92 -16 -97q0 -45 30.5 -75.5t77.5 -30.5q53 0 113.5 26.5t97.5 65.5l135 744h324l-154 -848l-21 -108q-9 -44 -34 -114.5t-55.5 -118.5t-85 -104.5t-122 -90.5t-165.5 -57.5t-219 -23.5q-174 0 -291 60.5t-117 150.5zM436 1341q0 76 59.5 135.5t135.5 59.5 q59 0 96 -37t37 -96q0 -72 -62.5 -133.5t-134.5 -61.5q-57 0 -94 38t-37 95zM946 1341q0 76 59.5 135.5t135.5 59.5q59 0 96 -37t37 -96q0 -72 -62.5 -133.5t-134.5 -61.5q-57 0 -94 38t-37 95z" />
<glyph unicode="&#x100;" horiz-adv-x="1474" d="M-55 0l30 166q109 25 170.5 85t130.5 179l570 965h309l238 -1030q35 -119 57.5 -145.5t99.5 -47.5l25 -6l-31 -166h-721l31 166l68 8q68 10 92 25.5t24 48.5q0 23 -14 90l-33 158h-454l-95 -179q-33 -61 -32 -88q0 -45 118 -59l39 -4l-30 -166h-592zM625 655h336l-84 447 zM686 1567l53 180h672l-53 -180h-672z" />
<glyph unicode="&#x101;" d="M172 418q0 260 182.5 453.5t427.5 193.5q164 0 279 -96l14 78h291l-119 -660q-12 -61 -12 -88q0 -96 74 -96q45 0 108 49l88 -109q-172 -162 -344 -161q-203 0 -248 161q-137 -162 -342 -161q-174 0 -286.5 123t-112.5 313zM518 373q0 -86 38 -136.5t103 -50.5 q117 0 211 162q66 111 142 471q-104 66 -174 66q-98 0 -175 -91.5t-111 -205t-34 -215.5zM563 1282l53 180h672l-53 -180h-672z" />
<glyph unicode="&#x102;" horiz-adv-x="1474" d="M-55 0l30 166q109 25 170.5 85t130.5 179l570 965h309l238 -1030q35 -119 57.5 -145.5t99.5 -47.5l25 -6l-31 -166h-721l31 166l68 8q68 10 92 25.5t24 48.5q0 23 -14 90l-33 158h-454l-95 -179q-33 -61 -32 -88q0 -45 118 -59l39 -4l-30 -166h-592zM625 655h336l-84 447 zM659 1786h164q25 -59 70 -82t141 -23q92 0 143.5 24t82.5 81h163q-33 -143 -125 -200.5t-274 -57.5q-176 0 -260.5 59.5t-104.5 198.5z" />
<glyph unicode="&#x103;" d="M172 418q0 260 182.5 453.5t427.5 193.5q164 0 279 -96l14 78h291l-119 -660q-12 -61 -12 -88q0 -96 74 -96q45 0 108 49l88 -109q-172 -162 -344 -161q-203 0 -248 161q-137 -162 -342 -161q-174 0 -286.5 123t-112.5 313zM518 373q0 -86 38 -136.5t103 -50.5 q117 0 211 162q66 111 142 471q-104 66 -174 66q-98 0 -175 -91.5t-111 -205t-34 -215.5zM567 1516h150q20 -66 62 -91.5t128 -25.5q84 0 130 26.5t75 90.5h150q-35 -164 -118 -225.5t-245 -61.5t-238 65.5t-94 221.5z" />
<glyph unicode="&#x104;" horiz-adv-x="1474" d="M-55 0l30 166q109 25 170.5 85t130.5 179l570 965h309l238 -1030q35 -119 57.5 -145.5t99.5 -47.5l25 -6l-31 -166h-76q-70 0 -113.5 -4t-95 -27.5t-77.5 -68.5q-29 -45 -29 -119q0 -43 32 -66.5t77 -23.5q61 0 141 65l86 -63q-61 -84 -153.5 -134.5t-188.5 -50.5 q-109 0 -191 57.5t-82 143.5q0 154 211 291h-262l31 166l68 8q68 10 92 25.5t24 48.5q0 23 -14 90l-33 158h-454l-95 -179q-33 -61 -32 -88q0 -45 118 -59l39 -4l-30 -166h-592zM625 655h336l-84 447z" />
<glyph unicode="&#x105;" d="M172 418q0 260 182.5 453.5t427.5 193.5q164 0 279 -96l14 78h291l-119 -660q-12 -61 -12 -88q0 -96 74 -96q45 0 108 49l88 -109q-100 -94 -207 -135q-154 -61 -182 -108q-29 -45 -29 -119q0 -43 32 -66.5t77 -23.5q61 0 141 65l86 -63q-61 -84 -153 -134.5t-189 -50.5 q-109 0 -190.5 57.5t-81.5 143.5q0 158 221 297q-88 39 -117 137q-137 -162 -342 -161q-174 0 -286.5 123t-112.5 313zM518 373q0 -86 38 -136.5t103 -50.5q117 0 211 162q66 111 142 471q-104 66 -174 66q-98 0 -175 -91.5t-111 -205t-34 -215.5z" />
<glyph unicode="&#x106;" horiz-adv-x="1433" d="M160 578q0 96 26.5 203.5t90 223t152.5 207t227.5 150.5t301.5 59q154 0 345 -88l24 62h115l102 -537l-151 -33q-25 137 -141.5 272.5t-262.5 135.5q-131 0 -233.5 -106.5t-152.5 -259t-50 -314.5q0 -184 90 -287.5t250 -103.5q127 0 258 81t219 216l141 -92 q-252 -393 -698 -394q-295 0 -474 176.5t-179 428.5zM834 1565q106 119 215 204q80 59 149 60q66 0 111 -32t45 -79q0 -82 -152 -147q-66 -27 -276 -86z" />
<glyph unicode="&#x107;" horiz-adv-x="1146" d="M119 422q0 256 213 449.5t491 193.5q166 0 283 -77t117 -187q0 -76 -59.5 -130.5t-141.5 -54.5q-63 0 -107.5 35t-44.5 88q0 18 8.5 46t8.5 46q0 33 -28 53.5t-68 20.5q-123 0 -225.5 -157.5t-102.5 -348.5q0 -106 55 -163.5t156 -57.5q172 0 385 172l108 -119 q-100 -111 -258.5 -180t-310.5 -69q-213 0 -346 121.5t-133 318.5zM641 1270q109 143 188.5 218t143.5 75q59 0 100 -36t41 -87q0 -78 -79 -130.5t-310 -129.5z" />
<glyph unicode="&#x108;" horiz-adv-x="1433" d="M160 578q0 96 26.5 203.5t90 223t152.5 207t227.5 150.5t301.5 59q154 0 345 -88l24 62h115l102 -537l-151 -33q-25 137 -141.5 272.5t-262.5 135.5q-131 0 -233.5 -106.5t-152.5 -259t-50 -314.5q0 -184 90 -287.5t250 -103.5q127 0 258 81t219 216l141 -92 q-252 -393 -698 -394q-295 0 -474 176.5t-179 428.5zM678 1624l414 191l352 -201l-94 -113l-293 103l-309 -103z" />
<glyph unicode="&#x109;" horiz-adv-x="1146" d="M119 422q0 256 213 449.5t491 193.5q166 0 283 -77t117 -187q0 -76 -59.5 -130.5t-141.5 -54.5q-63 0 -107.5 35t-44.5 88q0 18 8.5 46t8.5 46q0 33 -28 53.5t-68 20.5q-123 0 -225.5 -157.5t-102.5 -348.5q0 -106 55 -163.5t156 -57.5q172 0 385 172l108 -119 q-100 -111 -258.5 -180t-310.5 -69q-213 0 -346 121.5t-133 318.5zM496 1335l376 211l320 -221l-86 -127l-266 115l-281 -115z" />
<glyph unicode="&#x10a;" horiz-adv-x="1433" d="M160 578q0 96 26.5 203.5t90 223t152.5 207t227.5 150.5t301.5 59q154 0 345 -88l24 62h115l102 -537l-151 -33q-25 137 -141.5 272.5t-262.5 135.5q-131 0 -233.5 -106.5t-152.5 -259t-50 -314.5q0 -184 90 -287.5t250 -103.5q127 0 258 81t219 216l141 -92 q-252 -393 -698 -394q-295 0 -474 176.5t-179 428.5zM897 1626q0 78 61.5 139.5t139.5 61.5q61 0 99 -38t38 -99q0 -76 -63.5 -139.5t-139.5 -63.5q-57 0 -96 40t-39 99z" />
<glyph unicode="&#x10b;" horiz-adv-x="1146" d="M119 422q0 256 213 449.5t491 193.5q166 0 283 -77t117 -187q0 -76 -59.5 -130.5t-141.5 -54.5q-63 0 -107.5 35t-44.5 88q0 18 8.5 46t8.5 46q0 33 -28 53.5t-68 20.5q-123 0 -225.5 -157.5t-102.5 -348.5q0 -106 55 -163.5t156 -57.5q172 0 385 172l108 -119 q-100 -111 -258.5 -180t-310.5 -69q-213 0 -346 121.5t-133 318.5zM682 1341q0 78 61.5 139.5t139.5 61.5q61 0 99 -38t38 -99q0 -76 -63.5 -139.5t-139.5 -63.5q-57 0 -96 40t-39 99z" />
<glyph unicode="&#x10c;" horiz-adv-x="1433" d="M160 578q0 96 26.5 203.5t90 223t152.5 207t227.5 150.5t301.5 59q154 0 345 -88l24 62h115l102 -537l-151 -33q-25 137 -141.5 272.5t-262.5 135.5q-131 0 -233.5 -106.5t-152.5 -259t-50 -314.5q0 -184 90 -287.5t250 -103.5q127 0 258 81t219 216l141 -92 q-252 -393 -698 -394q-295 0 -474 176.5t-179 428.5zM690 1702l94 113l293 -103l309 103l70 -123l-414 -191z" />
<glyph unicode="&#x10d;" horiz-adv-x="1146" d="M119 422q0 256 213 449.5t491 193.5q166 0 283 -77t117 -187q0 -76 -59.5 -130.5t-141.5 -54.5q-63 0 -107.5 35t-44.5 88q0 18 8.5 46t8.5 46q0 33 -28 53.5t-68 20.5q-123 0 -225.5 -157.5t-102.5 -348.5q0 -106 55 -163.5t156 -57.5q172 0 385 172l108 -119 q-100 -111 -258.5 -180t-310.5 -69q-213 0 -346 121.5t-133 318.5zM500 1419l86 127l266 -114l281 114l63 -137l-377 -211z" />
<glyph unicode="&#x10e;" horiz-adv-x="1556" d="M29 0l30 166l45 4q82 12 114 46t50 128l129 707q8 57 9 75q0 45 -24 69t-85 30l-45 4l29 166h655q174 0 296 -23.5t221 -83t147.5 -172t48.5 -282.5q0 -242 -113 -443t-303 -297q-186 -94 -598 -94h-606zM612 256q0 -45 35 -61.5t123 -16.5q215 0 369.5 201t154.5 479 q0 180 -86 274.5t-247 94.5q-66 0 -106 -11.5t-60.5 -43t-27.5 -54t-15 -76.5l-129 -720q-11 -46 -11 -66zM662 1702l94 113l293 -103l309 103l69 -123l-413 -191z" />
<glyph unicode="&#x10f;" d="M123 422q0 256 184.5 449.5t427.5 193.5q129 0 248 -70l21 109q6 37 6 67q0 41 -26 61.5t-89 20.5h-25l31 168q213 0 387 78h117l-195 -1071q-12 -63 -16 -123q0 -94 76 -94q51 0 104 53l88 -117q-76 -76 -170 -120.5t-182 -44.5q-205 0 -246 165q-33 -27 -68.5 -63.5 t-110.5 -69t-159 -32.5q-174 0 -288.5 126t-114.5 314zM467 379q0 -94 38 -147.5t105 -53.5q90 0 174 107q53 70 89 184.5t77 353.5q-18 18 -65 40t-103 22q-106 0 -182 -95.5t-104.5 -205t-28.5 -205.5zM1452 1286q0 84 66.5 148.5t154.5 64.5q63 0 103.5 -42t40.5 -109 q0 -102 -81 -217t-212 -201l-70 65q123 111 148 162q-12 -2 -27 -2q-57 0 -90 36t-33 95z" />
<glyph unicode="&#x110;" horiz-adv-x="1556" d="M29 0l30 166l45 4q82 12 114 46t50 128l60 318h-181l31 163h178l41 224q4 20 9 77q0 43 -24 67t-85 32l-45 4l29 166h655q360 0 536.5 -121t176.5 -440q0 -147 -31 -268.5t-83 -207.5t-129 -150.5t-162 -103t-191.5 -62.5t-204.5 -33t-213 -9h-606zM614 252 q0 -41 32 -57.5t124 -16.5q215 0 369.5 201t154.5 479q0 178 -86 273.5t-247 95.5q-72 0 -114 -14.5t-57.5 -39t-24.5 -58.5t-13 -75l-39 -215h319l-28 -163h-320l-61 -340q-9 -39 -9 -70z" />
<glyph unicode="&#x111;" d="M123 420q0 238 179 415t421 177q131 0 250 -70l26 148h-358l16 96h359q2 12 2 24q0 29 -12.5 41.5t-46 22.5t-58.5 10h-24l24 135q211 4 387 80h117l-55 -313h170l-17 -96h-172l-121 -662q-16 -98 -16 -139q0 -33 21.5 -55.5t54.5 -22.5q25 0 38 6t56 39l10 8l88 -117 q-76 -76 -170 -120.5t-182 -44.5q-205 0 -246 165l-82 -75q-111 -90 -256 -90q-174 0 -288.5 125t-114.5 313zM467 387q0 -209 143 -209q90 0 174 107q51 68 85 172t71 313q-78 61 -168 61q-123 0 -214 -133t-91 -311z" />
<glyph unicode="&#x112;" horiz-adv-x="1474" d="M29 0l30 166l45 4q80 8 114 44t50 130l129 707l9 73q0 47 -25 71t-84 30l-45 4l31 166h1196l112 -453l-143 -45q-152 332 -465 332q-51 0 -88 -7.5t-59.5 -18.5t-38 -28.5t-22.5 -37t-12 -43t-9 -47.5l-39 -207q33 -4 82 -4q113 0 153.5 37.5t75.5 173.5h145l-112 -619 h-146q4 49 5 66q0 45 -12.5 75.5t-29 48t-51 26.5t-62.5 11t-81 2l-61 -338q-8 -53 -9 -65q0 -47 33 -64.5t125 -17.5q182 0 322.5 77t330.5 283l136 -71l-232 -461h-1298zM616 1567l54 180h671l-53 -180h-672z" />
<glyph unicode="&#x113;" horiz-adv-x="1146" d="M121 416q0 266 218 457.5t521 191.5q162 0 261.5 -68.5t99.5 -183.5q0 -117 -101.5 -201t-254 -120.5t-337.5 -36.5q-31 0 -53 2q-6 -53 -6 -88q0 -86 55.5 -138.5t147.5 -52.5q176 0 385 178l110 -120q-86 -96 -246.5 -175t-316.5 -79q-215 0 -349 120.5t-134 313.5z M496 1282l53 180h672l-54 -180h-671zM504 598h24q160 0 275 61.5t115 147.5q0 43 -32 70.5t-83 27.5q-104 0 -190 -99t-109 -208z" />
<glyph unicode="&#x114;" horiz-adv-x="1474" d="M29 0l30 166l45 4q80 8 114 44t50 130l129 707l9 73q0 47 -25 71t-84 30l-45 4l31 166h1196l112 -453l-143 -45q-152 332 -465 332q-51 0 -88 -7.5t-59.5 -18.5t-38 -28.5t-22.5 -37t-12 -43t-9 -47.5l-39 -207q33 -4 82 -4q113 0 153.5 37.5t75.5 173.5h145l-112 -619 h-146q4 49 5 66q0 45 -12.5 75.5t-29 48t-51 26.5t-62.5 11t-81 2l-61 -338q-8 -53 -9 -65q0 -47 33 -64.5t125 -17.5q182 0 322.5 77t330.5 283l136 -71l-232 -461h-1298zM590 1786h164q25 -59 69.5 -82t141.5 -23q92 0 143 24t82 81h164q-33 -143 -125 -200.5t-275 -57.5 q-176 0 -260 59.5t-104 198.5z" />
<glyph unicode="&#x115;" horiz-adv-x="1146" d="M121 416q0 266 218 457.5t521 191.5q162 0 261.5 -68.5t99.5 -183.5q0 -117 -101.5 -201t-254 -120.5t-337.5 -36.5q-31 0 -53 2q-6 -53 -6 -88q0 -86 55.5 -138.5t147.5 -52.5q176 0 385 178l110 -120q-86 -96 -246.5 -175t-316.5 -79q-215 0 -349 120.5t-134 313.5z M500 1516h149q20 -66 62.5 -91.5t128.5 -25.5q84 0 130 26.5t74 90.5h150q-35 -164 -118 -225.5t-244.5 -61.5t-237.5 65.5t-94 221.5zM504 598h24q160 0 275 61.5t115 147.5q0 43 -32 70.5t-83 27.5q-104 0 -190 -99t-109 -208z" />
<glyph unicode="&#x116;" horiz-adv-x="1474" d="M29 0l30 166l45 4q80 8 114 44t50 130l129 707l9 73q0 47 -25 71t-84 30l-45 4l31 166h1196l112 -453l-143 -45q-152 332 -465 332q-51 0 -88 -7.5t-59.5 -18.5t-38 -28.5t-22.5 -37t-12 -43t-9 -47.5l-39 -207q33 -4 82 -4q113 0 153.5 37.5t75.5 173.5h145l-112 -619 h-146q4 49 5 66q0 45 -12.5 75.5t-29 48t-51 26.5t-62.5 11t-81 2l-61 -338q-8 -53 -9 -65q0 -47 33 -64.5t125 -17.5q182 0 322.5 77t330.5 283l136 -71l-232 -461h-1298zM809 1626q0 78 61.5 139.5t139.5 61.5q61 0 99 -38t38 -99q0 -76 -63.5 -139.5t-139.5 -63.5 q-57 0 -96 40t-39 99z" />
<glyph unicode="&#x117;" horiz-adv-x="1146" d="M121 416q0 266 218 457.5t521 191.5q162 0 261.5 -68.5t99.5 -183.5q0 -117 -101.5 -201t-254 -120.5t-337.5 -36.5q-31 0 -53 2q-6 -53 -6 -88q0 -86 55.5 -138.5t147.5 -52.5q176 0 385 178l110 -120q-86 -96 -246.5 -175t-316.5 -79q-215 0 -349 120.5t-134 313.5z M504 598h24q160 0 275 61.5t115 147.5q0 43 -32 70.5t-83 27.5q-104 0 -190 -99t-109 -208zM688 1341q0 78 61.5 139.5t139.5 61.5q61 0 99 -38t38 -99q0 -76 -63.5 -139.5t-139.5 -63.5q-57 0 -96 40t-39 99z" />
<glyph unicode="&#x118;" horiz-adv-x="1474" d="M29 0l30 166l45 4q80 8 114 44t50 130l129 707l9 73q0 47 -25 71t-84 30l-45 4l31 166h1196l112 -453l-143 -45q-152 332 -465 332q-51 0 -88 -7.5t-59.5 -18.5t-38 -28.5t-22.5 -37t-12 -43t-9 -47.5l-39 -207q33 -4 82 -4q113 0 153.5 37.5t75.5 173.5h145l-112 -619 h-146q4 49 5 66q0 45 -12.5 75.5t-29 48t-51 26.5t-62.5 11t-81 2l-61 -338q-8 -53 -9 -65q0 -47 33 -64.5t125 -17.5q182 0 322.5 77t330.5 283l136 -71l-232 -461q-158 0 -217 -100q-27 -47 -27 -119q0 -43 32 -66.5t77 -23.5q61 0 141 65l86 -63q-61 -84 -153 -134.5 t-189 -50.5q-109 0 -190.5 57.5t-81.5 143.5q0 154 211 291h-987z" />
<glyph unicode="&#x119;" horiz-adv-x="1146" d="M121 416q0 266 218 457.5t521 191.5q162 0 261.5 -68.5t99.5 -183.5q0 -117 -101.5 -201t-254 -120.5t-337.5 -36.5q-31 0 -53 2q-6 -53 -6 -88q0 -86 55.5 -138.5t147.5 -52.5q176 0 385 178l110 -120q-111 -121 -297 -197l-84.5 -36t-69.5 -42t-59 -61 q-27 -47 -26 -119q0 -43 31.5 -66.5t76.5 -23.5q61 0 142 65l86 -63q-61 -84 -153.5 -134.5t-188.5 -50.5q-109 0 -191 57.5t-82 143.5q0 145 189 275q-188 18 -304 137t-116 295zM504 598h24q160 0 275 61.5t115 147.5q0 43 -32 70.5t-83 27.5q-104 0 -190 -99t-109 -208z " />
<glyph unicode="&#x11a;" horiz-adv-x="1474" d="M29 0l30 166l45 4q80 8 114 44t50 130l129 707l9 73q0 47 -25 71t-84 30l-45 4l31 166h1196l112 -453l-143 -45q-152 332 -465 332q-51 0 -88 -7.5t-59.5 -18.5t-38 -28.5t-22.5 -37t-12 -43t-9 -47.5l-39 -207q33 -4 82 -4q113 0 153.5 37.5t75.5 173.5h145l-112 -619 h-146q4 49 5 66q0 45 -12.5 75.5t-29 48t-51 26.5t-62.5 11t-81 2l-61 -338q-8 -53 -9 -65q0 -47 33 -64.5t125 -17.5q182 0 322.5 77t330.5 283l136 -71l-232 -461h-1298zM602 1702l94 113l293 -103l309 103l70 -123l-414 -191z" />
<glyph unicode="&#x11b;" horiz-adv-x="1146" d="M121 416q0 266 218 457.5t521 191.5q162 0 261.5 -68.5t99.5 -183.5q0 -117 -101.5 -201t-254 -120.5t-337.5 -36.5q-31 0 -53 2q-6 -53 -6 -88q0 -86 55.5 -138.5t147.5 -52.5q176 0 385 178l110 -120q-86 -96 -246.5 -175t-316.5 -79q-215 0 -349 120.5t-134 313.5z M504 598h24q160 0 275 61.5t115 147.5q0 43 -32 70.5t-83 27.5q-104 0 -190 -99t-109 -208zM506 1419l86 127l266 -114l281 114l63 -137l-377 -211z" />
<glyph unicode="&#x11c;" horiz-adv-x="1556" d="M158 569q0 348 234.5 600t559.5 252q188 0 383 -108l39 82h113l86 -502l-152 -27l-38 76t-58 89.5t-85 97t-108.5 66.5t-140.5 30q-184 0 -317 -199t-133 -475q0 -176 79.5 -278.5t217.5 -102.5q127 0 225 81t98 183q0 35 -13 57.5t-32.5 30.5t-43 14.5t-42.5 8.5l-22 4 l28 166h660l-31 -166l-39 -8q-78 -18 -103.5 -46t-39.5 -102l-72 -393h-223l-23 104q-178 -131 -420 -131q-264 0 -425.5 164t-161.5 432zM682 1624l414 191l352 -201l-94 -113l-293 103l-309 -103z" />
<glyph unicode="&#x11d;" horiz-adv-x="1269" d="M43 -199q0 63 51 106.5t127 43.5q96 0 139 -90q39 -98 166 -99q72 0 130.5 29t92 64.5t65.5 101.5t44 103.5t31 105.5q-51 -61 -79 -91t-95.5 -61.5t-149.5 -31.5q-174 0 -288.5 123.5t-114.5 312.5q0 254 183 450.5t419 196.5q78 0 132 -18.5t140 -67.5l13 68h321 l-153 -844q-12 -66 -24.5 -115t-38.5 -118.5t-59.5 -120t-90 -105.5t-126 -90t-171 -57.5t-222.5 -22.5q-193 0 -317.5 64.5t-124.5 162.5zM463 1335l377 211l319 -221l-86 -127l-266 115l-281 -115zM516 381q0 -92 38 -143.5t108 -51.5q100 0 183 121t124 324l39 190 q-63 45 -99.5 60.5t-77.5 15.5q-78 0 -141 -53t-99 -135t-55.5 -168t-19.5 -160z" />
<glyph unicode="&#x11e;" horiz-adv-x="1556" d="M158 569q0 348 234.5 600t559.5 252q188 0 383 -108l39 82h113l86 -502l-152 -27l-38 76t-58 89.5t-85 97t-108.5 66.5t-140.5 30q-184 0 -317 -199t-133 -475q0 -176 79.5 -278.5t217.5 -102.5q127 0 225 81t98 183q0 35 -13 57.5t-32.5 30.5t-43 14.5t-42.5 8.5l-22 4 l28 166h660l-31 -166l-39 -8q-78 -18 -103.5 -46t-39.5 -102l-72 -393h-223l-23 104q-178 -131 -420 -131q-264 0 -425.5 164t-161.5 432zM682 1786h164q25 -59 70 -82t141 -23q92 0 143 24t82 81h164q-33 -143 -125 -200.5t-274 -57.5q-176 0 -260.5 59.5t-104.5 198.5z " />
<glyph unicode="&#x11f;" horiz-adv-x="1269" d="M43 -199q0 63 51 106.5t127 43.5q96 0 139 -90q39 -98 166 -99q72 0 130.5 29t92 64.5t65.5 101.5t44 103.5t31 105.5q-51 -61 -79 -91t-95.5 -61.5t-149.5 -31.5q-174 0 -288.5 123.5t-114.5 312.5q0 254 183 450.5t419 196.5q78 0 132 -18.5t140 -67.5l13 68h321 l-153 -844q-12 -66 -24.5 -115t-38.5 -118.5t-59.5 -120t-90 -105.5t-126 -90t-171 -57.5t-222.5 -22.5q-193 0 -317.5 64.5t-124.5 162.5zM461 1516h149q20 -66 62.5 -91.5t128.5 -25.5q84 0 130 26.5t75 90.5h149q-35 -164 -118 -225.5t-244.5 -61.5t-237.5 65.5 t-94 221.5zM516 381q0 -92 38 -143.5t108 -51.5q100 0 183 121t124 324l39 190q-63 45 -99.5 60.5t-77.5 15.5q-78 0 -141 -53t-99 -135t-55.5 -168t-19.5 -160z" />
<glyph unicode="&#x120;" horiz-adv-x="1556" d="M158 569q0 348 234.5 600t559.5 252q188 0 383 -108l39 82h113l86 -502l-152 -27l-38 76t-58 89.5t-85 97t-108.5 66.5t-140.5 30q-184 0 -317 -199t-133 -475q0 -176 79.5 -278.5t217.5 -102.5q127 0 225 81t98 183q0 35 -13 57.5t-32.5 30.5t-43 14.5t-42.5 8.5l-22 4 l28 166h660l-31 -166l-39 -8q-78 -18 -103.5 -46t-39.5 -102l-72 -393h-223l-23 104q-178 -131 -420 -131q-264 0 -425.5 164t-161.5 432zM901 1626q0 78 61.5 139.5t139.5 61.5q61 0 99 -38t38 -99q0 -76 -63.5 -139.5t-139.5 -63.5q-57 0 -96 40t-39 99z" />
<glyph unicode="&#x121;" horiz-adv-x="1269" d="M43 -199q0 63 51 106.5t127 43.5q96 0 139 -90q39 -98 166 -99q72 0 130.5 29t92 64.5t65.5 101.5t44 103.5t31 105.5q-51 -61 -79 -91t-95.5 -61.5t-149.5 -31.5q-174 0 -288.5 123.5t-114.5 312.5q0 254 183 450.5t419 196.5q78 0 132 -18.5t140 -67.5l13 68h321 l-153 -844q-12 -66 -24.5 -115t-38.5 -118.5t-59.5 -120t-90 -105.5t-126 -90t-171 -57.5t-222.5 -22.5q-193 0 -317.5 64.5t-124.5 162.5zM516 381q0 -92 38 -143.5t108 -51.5q100 0 183 121t124 324l39 190q-63 45 -99.5 60.5t-77.5 15.5q-78 0 -141 -53t-99 -135 t-55.5 -168t-19.5 -160zM649 1341q0 78 61.5 139.5t139.5 61.5q61 0 99 -38t38 -99q0 -76 -63.5 -139.5t-139.5 -63.5q-57 0 -96 40t-39 99z" />
<glyph unicode="&#x122;" horiz-adv-x="1556" d="M158 569q0 348 234.5 600t559.5 252q188 0 383 -108l39 82h113l86 -502l-152 -27l-38 76t-58 89.5t-85 97t-108.5 66.5t-140.5 30q-184 0 -317 -199t-133 -475q0 -176 79.5 -278.5t217.5 -102.5q127 0 225 81t98 183q0 35 -13 57.5t-32.5 30.5t-43 14.5t-42.5 8.5l-22 4 l28 166h660l-31 -166l-39 -8q-78 -18 -103.5 -46t-39.5 -102l-72 -393h-223l-23 104q-178 -131 -420 -131q-264 0 -425.5 164t-161.5 432zM528 -315q0 84 67 148.5t155 64.5q63 0 103 -42t40 -110q0 -102 -81 -217t-212 -201l-70 66q123 111 148 162q-12 -2 -27 -2 q-57 0 -90 36t-33 95z" />
<glyph unicode="&#x123;" horiz-adv-x="1269" d="M43 -199q0 63 51 106.5t127 43.5q96 0 139 -90q39 -98 166 -99q72 0 130.5 29t92 64.5t65.5 101.5t44 103.5t31 105.5q-51 -61 -79 -91t-95.5 -61.5t-149.5 -31.5q-174 0 -288.5 123.5t-114.5 312.5q0 254 183 450.5t419 196.5q78 0 132 -18.5t140 -67.5l13 68h321 l-153 -844q-12 -66 -24.5 -115t-38.5 -118.5t-59.5 -120t-90 -105.5t-126 -90t-171 -57.5t-222.5 -22.5q-193 0 -317.5 64.5t-124.5 162.5zM516 381q0 -92 38 -143.5t108 -51.5q100 0 183 121t124 324l39 190q-63 45 -99.5 60.5t-77.5 15.5q-78 0 -141 -53t-99 -135 t-55.5 -168t-19.5 -160zM627 1280q0 102 80.5 217t212.5 201l69 -66q-123 -111 -147 -162q12 2 26 3q57 0 90 -36t33 -96q0 -84 -66.5 -148.5t-154.5 -64.5q-63 0 -103 42t-40 110z" />
<glyph unicode="&#x124;" horiz-adv-x="1638" d="M29 0l30 166l45 4q82 8 114 43t50 131l129 707q8 57 9 75q0 45 -24 69t-85 30l-45 4l29 166h712l-28 -166l-47 -4q-80 -10 -114 -45t-50 -129l-37 -205h512l37 205q8 53 8 71q0 94 -109 103l-45 4l31 166h713l-31 -166l-45 -4q-82 -10 -114 -44t-50 -130l-129 -707 q-8 -39 -8 -74q0 -47 24.5 -71.5t83.5 -28.5l45 -4l-30 -166h-713l31 166l47 4q82 8 114.5 43t49.5 131l57 318h-512l-59 -318q-6 -39 -7 -70q0 -51 24 -74.5t85 -29.5l45 -4l-31 -166h-712zM731 1624l414 191l352 -201l-94 -113l-293 103l-309 -103z" />
<glyph unicode="&#x125;" horiz-adv-x="1433" d="M190 0l201 1104q6 37 6 65q0 43 -24.5 63.5t-87.5 20.5h-25l31 168q213 0 387 78h108l-98 -541q160 106 338 107q135 0 219 -65.5t84 -172.5q0 -20 -6 -51l-76 -414q-16 -84 -14 -102q0 -25 19.5 -41t47.5 -16q55 0 121 39l86 -117q-160 -143 -346 -143q-119 0 -190.5 57 t-71.5 151q0 35 19 138l57 311q4 27 8 62.5t6 43.5q0 41 -37 66t-94 25q-113 0 -203 -60l-141 -776h-324zM649 1729l414 190l352 -201l-94 -112l-293 102l-309 -102z" />
<glyph unicode="&#x126;" horiz-adv-x="1638" d="M29 0l30 166l45 4q82 8 114 43t50 131l111 604h-180l37 197h170q-10 70 -109 80l-45 4l29 166h712l-28 -166l-47 -4q-106 -14 -138 -80h492q-10 72 -107 80l-45 4l31 166h713l-31 -166l-45 -4q-106 -14 -137 -80h168l-37 -197h-176l-111 -604q-8 -39 -8 -74 q0 -47 24.5 -71.5t83.5 -28.5l45 -4l-30 -166h-713l31 166l47 4q82 8 114.5 43t49.5 131l57 318h-512l-59 -318q-6 -39 -7 -70q0 -51 24 -74.5t85 -29.5l45 -4l-31 -166h-712zM717 846h512l18 102h-512z" />
<glyph unicode="&#x127;" horiz-adv-x="1615" d="M240 0l186 1022l-166 -39l29 164l157 35q-6 72 -112 71h-25l31 168q213 0 387 78h109l-43 -237l211 49l-29 -162l-211 -49l-27 -142q160 106 338 107q135 0 219 -65.5t84 -172.5q0 -20 -6 -51l-76 -414q-16 -84 -14 -102q0 -25 19.5 -41t48.5 -16q55 0 120 39l86 -117 q-160 -143 -346 -143q-119 0 -190.5 57t-71.5 151q0 35 19 138l57 311q4 27 8 62.5t6 43.5q0 41 -36.5 66t-94.5 25q-113 0 -202 -60l-142 -776h-323z" />
<glyph unicode="&#x128;" horiz-adv-x="778" d="M29 0l30 166l45 4q82 12 115 46t49 128l129 707q6 39 6 69q0 49 -23.5 74t-84.5 31l-43 4l29 166h712l-30 -166l-45 -4q-82 -10 -115 -44t-49 -130l-129 -707q-6 -39 -7 -70q0 -51 24 -75.5t85 -28.5l43 -4l-31 -166h-710zM322 1612q47 92 103 132t138 40q70 0 159 -32 t124 -32q39 0 57.5 9.5t50.5 46.5l95 -76q-63 -102 -109.5 -135t-128.5 -33q-57 0 -151.5 32.5t-131.5 32.5q-70 0 -112 -59z" />
<glyph unicode="&#x129;" horiz-adv-x="778" d="M170 807l31 168q201 10 393 72h106l-116 -648q-20 -123 -21 -125q0 -29 23.5 -50t56.5 -21q41 0 131 45l86 -115q-178 -152 -366 -151q-119 0 -193 56t-74 146q0 29 13 101l67 372q4 41 4 56q0 49 -26.5 71.5t-89.5 22.5h-25zM233 1327q47 92 103.5 132t138.5 40 q70 0 159 -31.5t124 -31.5q39 0 57.5 9t50.5 46l95 -76q-63 -102 -109.5 -135t-128.5 -33q-55 0 -149.5 33t-133.5 33q-70 0 -112 -60z" />
<glyph unicode="&#x12a;" horiz-adv-x="778" d="M29 0l30 166l45 4q82 12 115 46t49 128l129 707q6 39 6 69q0 49 -23.5 74t-84.5 31l-43 4l29 166h712l-30 -166l-45 -4q-82 -10 -115 -44t-49 -130l-129 -707q-6 -39 -7 -70q0 -51 24 -75.5t85 -28.5l43 -4l-31 -166h-710zM324 1567l53 180h672l-54 -180h-671z" />
<glyph unicode="&#x12b;" horiz-adv-x="778" d="M170 807l31 168q201 10 393 72h106l-116 -648q-20 -123 -21 -125q0 -29 23.5 -50t56.5 -21q41 0 131 45l86 -115q-178 -152 -366 -151q-119 0 -193 56t-74 146q0 29 13 101l67 372q4 41 4 56q0 49 -26.5 71.5t-89.5 22.5h-25zM236 1282l53 180h672l-54 -180h-671z" />
<glyph unicode="&#x12c;" horiz-adv-x="778" d="M29 0l30 166l45 4q82 12 115 46t49 128l129 707q6 39 6 69q0 49 -23.5 74t-84.5 31l-43 4l29 166h712l-30 -166l-45 -4q-82 -10 -115 -44t-49 -130l-129 -707q-6 -39 -7 -70q0 -51 24 -75.5t85 -28.5l43 -4l-31 -166h-710zM297 1786h164q25 -59 69.5 -82t141.5 -23 q92 0 143 24t82 81h164q-33 -143 -125 -200.5t-274 -57.5q-176 0 -260.5 59.5t-104.5 198.5z" />
<glyph unicode="&#x12d;" horiz-adv-x="778" d="M170 807l31 168q201 10 393 72h106l-116 -648q-20 -123 -21 -125q0 -29 23.5 -50t56.5 -21q41 0 131 45l86 -115q-178 -152 -366 -151q-119 0 -193 56t-74 146q0 29 13 101l67 372q4 41 4 56q0 49 -26.5 71.5t-89.5 22.5h-25zM240 1516h149q20 -66 62.5 -91.5 t128.5 -25.5q84 0 130 26.5t74 90.5h150q-35 -164 -118 -225.5t-244.5 -61.5t-237.5 65.5t-94 221.5z" />
<glyph unicode="&#x12e;" horiz-adv-x="778" d="M29 0l30 166l45 4q82 12 115 46t49 128l129 707q6 39 6 69q0 49 -23.5 74t-84.5 31l-43 4l29 166h712l-30 -166l-45 -4q-82 -10 -115 -44t-49 -130l-129 -707q-6 -39 -7 -70q0 -51 24 -75.5t85 -28.5l43 -4l-31 -166h-73q-72 0 -115 -4t-95.5 -27.5t-78.5 -68.5 q-29 -45 -29 -119q0 -43 32 -66.5t77 -23.5q61 0 141 65l86 -63q-61 -84 -153.5 -134.5t-188.5 -50.5q-109 0 -190.5 57.5t-81.5 143.5q0 154 211 291h-252z" />
<glyph unicode="&#x12f;" horiz-adv-x="778" d="M166 -291q0 147 209 291q-70 23 -109 71t-39 113q0 29 13 101l67 372q4 41 4 56q0 49 -26.5 71.5t-89.5 22.5h-25l31 168q201 10 393 72h106l-116 -648q-20 -123 -21 -125q0 -29 23.5 -50t56.5 -21q41 0 131 45l86 -115q-102 -88 -219 -125q-133 -45 -168 -108 q-29 -45 -29 -119q0 -43 32 -66.5t77 -23.5q61 0 141 65l86 -63q-61 -84 -153 -134.5t-189 -50.5q-109 0 -190.5 57.5t-81.5 143.5zM430 1341q0 78 61.5 139.5t139.5 61.5q61 0 99 -38t38 -99q0 -76 -63.5 -139.5t-139.5 -63.5q-57 0 -96 40t-39 99z" />
<glyph unicode="&#x130;" horiz-adv-x="778" d="M29 0l30 166l45 4q82 12 115 46t49 128l129 707q6 39 6 69q0 49 -23.5 74t-84.5 31l-43 4l29 166h712l-30 -166l-45 -4q-82 -10 -115 -44t-49 -130l-129 -707q-6 -39 -7 -70q0 -51 24 -75.5t85 -28.5l43 -4l-31 -166h-710zM516 1626q0 78 61.5 139.5t139.5 61.5 q61 0 99 -38t38 -99q0 -76 -63.5 -139.5t-139.5 -63.5q-57 0 -96 40t-39 99z" />
<glyph unicode="&#x131;" horiz-adv-x="778" d="M170 807l31 168q201 10 393 72h106l-116 -648q-20 -123 -21 -125q0 -29 23.5 -50t56.5 -21q41 0 131 45l86 -115q-178 -152 -366 -151q-119 0 -193 56t-74 146q0 29 13 101l67 372q4 41 4 56q0 49 -26.5 71.5t-89.5 22.5h-25z" />
<glyph unicode="&#x134;" horiz-adv-x="1269" d="M16 336q0 113 70 191.5t170 78.5q72 0 120 -46t48 -114q0 -80 -72 -131q-31 -23 -38 -32t-7 -25q0 -41 53.5 -72.5t122.5 -31.5q43 0 80 10t64.5 31.5t49 41t38 56.5t27 57.5t19.5 62.5t12 53t9 48l99 537q0 6 3 30.5t3 36.5q0 49 -23.5 76t-85.5 31l-69 4l30 166h738 l-31 -166l-45 -4q-80 -8 -113 -43t-51 -131l-111 -600q-90 -477 -630 -478q-215 0 -347.5 100.5t-132.5 262.5zM780 1624l414 191l352 -201l-94 -113l-293 103l-309 -103z" />
<glyph unicode="&#x135;" horiz-adv-x="655" d="M-328 -256q0 57 45 101t103 44q84 0 155 -94q37 -53 78 -53q70 0 103.5 58.5t60.5 199.5l119 655q8 49 8 66q0 43 -26.5 64.5t-92.5 21.5h-24l30 168q201 10 394 72h106l-178 -977q-8 -45 -14.5 -76t-25.5 -88.5t-44 -96t-68 -87t-97 -78t-135 -50t-179 -20.5 q-137 0 -227.5 48t-90.5 122zM272 1335l377 211l320 -221l-86 -127l-267 115l-280 -115z" />
<glyph unicode="&#x136;" horiz-adv-x="1597" d="M29 0l30 166l45 4q82 8 114 43t50 131l129 707q8 57 9 75q0 45 -24 69t-85 30l-45 4l29 166h714l-30 -166l-47 -4q-80 -10 -114 -44t-50 -130l-49 -277l421 332q80 63 80 84q0 18 -71 31l-58 8l29 166h694l-31 -166q-121 -18 -208.5 -55t-194.5 -115l-221 -162l276 -506 q70 -125 109 -161.5t135 -63.5l-31 -166h-733l29 166l22 4q129 16 129 66q0 27 -37 100l-182 350l-203 -154l-34 -188q-6 -39 -7 -72q0 -47 23 -71.5t86 -30.5l45 -4l-31 -166h-712zM582 -315q0 84 66.5 148.5t154.5 64.5q63 0 103 -42t40 -110q0 -102 -81 -217t-212 -201 l-69 66q123 111 147 162q-12 -2 -26 -2q-57 0 -90 36t-33 95z" />
<glyph unicode="&#x137;" horiz-adv-x="1433" d="M199 0l200 1104q6 37 7 65q0 43 -25 63.5t-88 20.5h-25l31 168q213 0 387 78h109l-174 -964q150 238 315 362q223 168 395 168q74 0 121 -37t47 -94q0 -66 -43 -108t-113 -42q-61 0 -124 43q-23 16 -39 17q-57 0 -162 -107q23 -193 48.5 -284t70.5 -154q57 -78 133 -78 q39 0 114 39l19 10l86 -120q-55 -63 -175 -115.5t-208 -52.5q-164 0 -277 151q-57 74 -78.5 149.5t-21.5 196.5v19q-100 -111 -137 -244l-70 -254h-323zM481 -315q0 84 66.5 148.5t154.5 64.5q63 0 103.5 -42t40.5 -110q0 -102 -81 -217t-212 -201l-70 66q123 111 148 162 q-12 -2 -27 -2q-57 0 -90 36t-33 95z" />
<glyph unicode="&#x139;" horiz-adv-x="1310" d="M29 0l30 166l45 4q80 8 114 44t50 130l129 707q4 25 9 75q0 45 -24 69t-85 30l-45 4l29 166h739l-31 -166l-71 -4q-80 -10 -114 -45t-50 -129l-129 -709q-8 -43 -9 -82q0 -43 26 -60.5t95 -17.5q109 0 212.5 40t180 104.5t127 120t86.5 108.5l142 -76l-242 -479h-1214z M465 1565q106 119 215 204q80 59 149 60q66 0 111 -32t45 -79q0 -82 -151 -147q-66 -27 -277 -86z" />
<glyph unicode="&#x13a;" horiz-adv-x="778" d="M223 172q0 29 8 68l156 864q8 33 8 63q0 86 -114 86h-23l29 168q215 0 387 78h110l-213 -1171q-6 -31 -6 -54q0 -31 21.5 -51t52.5 -20q45 0 119 37l82 -123q-172 -135 -351 -135q-121 0 -193.5 52t-72.5 138zM438 1669q106 119 215 205q80 59 150 59q66 0 110.5 -31.5 t44.5 -78.5q0 -82 -151 -148q-66 -27 -277 -86z" />
<glyph unicode="&#x13b;" horiz-adv-x="1310" d="M29 0l30 166l45 4q80 8 114 44t50 130l129 707q4 25 9 75q0 45 -24 69t-85 30l-45 4l29 166h739l-31 -166l-71 -4q-80 -10 -114 -45t-50 -129l-129 -709q-8 -43 -9 -82q0 -43 26 -60.5t95 -17.5q109 0 212.5 40t180 104.5t127 120t86.5 108.5l142 -76l-242 -479h-1214z M416 -315q0 84 66.5 148.5t154.5 64.5q63 0 103 -42t40 -110q0 -102 -81 -217t-212 -201l-69 66q123 111 147 162q-12 -2 -26 -2q-57 0 -90 36t-33 95z" />
<glyph unicode="&#x13c;" horiz-adv-x="778" d="M111 -315q0 84 66.5 148.5t154.5 64.5q63 0 103 -42t40 -110q0 -102 -81 -217t-212 -201l-69 66q123 111 147 162q-12 -2 -27 -2q-57 0 -89.5 36t-32.5 95zM223 172q0 29 8 68l156 864q8 33 8 63q0 86 -114 86h-23l29 168q215 0 387 78h110l-213 -1171q-6 -31 -6 -54 q0 -31 21.5 -51t52.5 -20q45 0 119 37l82 -123q-172 -135 -351 -135q-121 0 -193.5 52t-72.5 138z" />
<glyph unicode="&#x13d;" horiz-adv-x="1310" d="M29 0l30 166l45 4q80 8 114 44t50 130l129 707q4 25 9 75q0 45 -24 69t-85 30l-45 4l29 166h739l-31 -166l-71 -4q-80 -10 -114 -45t-50 -129l-129 -709q-8 -43 -9 -82q0 -43 26 -60.5t95 -17.5q109 0 212.5 40t180 104.5t127 120t86.5 108.5l142 -76l-242 -479h-1214z M1067 1182q0 84 66.5 148.5t154.5 64.5q63 0 103.5 -42t40.5 -110q0 -102 -81 -217t-212 -201l-70 66q123 111 148 162q-12 -2 -27 -2q-57 0 -90 36t-33 95z" />
<glyph unicode="&#x13e;" horiz-adv-x="778" d="M223 172q0 29 8 68l156 864q8 33 8 63q0 86 -114 86h-23l29 168q215 0 387 78h110l-213 -1171q-6 -31 -6 -54q0 -31 21.5 -51t52.5 -20q45 0 119 37l82 -123q-172 -135 -351 -135q-121 0 -193.5 52t-72.5 138zM831 1286q0 84 67 148.5t155 64.5q63 0 103 -42t40 -109 q0 -102 -81 -217t-212 -201l-69 65q123 111 147 162q-12 -2 -27 -2q-57 0 -90 36t-33 95z" />
<glyph unicode="&#x13f;" horiz-adv-x="1310" d="M29 0l30 166l45 4q80 8 114 44t50 130l129 707q4 25 9 75q0 45 -24 69t-85 30l-45 4l29 166h739l-31 -166l-71 -4q-80 -10 -114 -45t-50 -129l-129 -709q-8 -43 -9 -82q0 -43 26 -60.5t95 -17.5q109 0 212.5 40t180 104.5t127 120t86.5 108.5l142 -76l-242 -479h-1214z M1014 745q0 78 61.5 139.5t138.5 61.5q61 0 99.5 -38t38.5 -99q0 -76 -63.5 -139.5t-139.5 -63.5q-57 0 -96 40t-39 99z" />
<glyph unicode="&#x140;" horiz-adv-x="1048" d="M223 172q0 29 8 68l156 864q8 33 8 63q0 86 -114 86h-23l29 168q215 0 387 78h110l-213 -1171q-6 -31 -6 -54q0 -31 21.5 -51t52.5 -20q45 0 119 37l82 -123q-172 -135 -351 -135q-121 0 -193.5 52t-72.5 138zM846 745q0 78 61.5 139.5t139.5 61.5q61 0 99 -38t38 -99 q0 -76 -63.5 -139.5t-139.5 -63.5q-57 0 -96 40t-39 99z" />
<glyph unicode="&#x141;" horiz-adv-x="1310" d="M29 0l30 166l45 4q80 8 113 43t51 131l35 193l-192 -80l34 192l193 80l59 322q4 25 9 75q0 45 -24 69t-85 30l-45 4l29 166h739l-31 -166l-71 -4q-80 -10 -114 -45t-50 -129l-33 -179l338 142l-35 -193l-338 -141l-61 -338q-8 -39 -9 -74q0 -45 25 -65.5t84 -20.5 q113 0 218.5 40t183 103.5t128 119t88.5 110.5l142 -76l-242 -479h-1214z" />
<glyph unicode="&#x142;" horiz-adv-x="778" d="M121 502l41 217l176 112l49 273q8 33 8 63q0 86 -114 86h-23l29 168q215 0 387 78h110l-82 -452l230 147l-41 -217l-227 -148l-93 -501q-6 -31 -6 -54q0 -31 21.5 -51t52.5 -20q45 0 119 37l82 -123q-172 -135 -351 -135q-121 0 -193.5 52t-72.5 138q0 29 8 68l68 376z " />
<glyph unicode="&#x143;" horiz-adv-x="1515" d="M29 0l30 166l45 4q82 10 116 44t50 130l127 707q8 57 9 73q0 47 -25 72t-84 29l-45 4l31 166h591l326 -871l94 527q8 57 9 71q0 51 -27 75t-82 28l-45 4l31 166h551l-31 -166l-45 -4q-82 -10 -116 -44t-50 -130l-191 -1051h-254l-438 1124l-141 -780q-8 -35 -8 -68 q0 -96 108 -106l45 -4l-30 -166h-551zM821 1565q106 119 215 204q80 59 150 60q66 0 110.5 -32t44.5 -79q0 -82 -151 -147q-66 -27 -277 -86z" />
<glyph unicode="&#x144;" d="M170 807l31 168q201 10 393 72h106l-18 -105q66 55 159 89t181 34q129 0 212 -62.5t83 -158.5q0 -27 -14 -111l-64 -358q-16 -98 -16 -103q0 -70 75 -69q33 0 86 33l80 -115q-168 -139 -323 -139q-113 0 -184.5 55t-71.5 145q0 47 10 92l80 424q2 12 2 37q0 47 -33 74 t-92 27q-111 0 -203 -72l-139 -764h-324l121 657q4 41 4 56q0 49 -26.5 71.5t-89.5 22.5h-25zM719 1270q109 143 188.5 218t143.5 75q59 0 100 -36t41 -87q0 -78 -79 -130.5t-310 -129.5z" />
<glyph unicode="&#x145;" horiz-adv-x="1515" d="M29 0l30 166l45 4q82 10 116 44t50 130l127 707q8 57 9 73q0 47 -25 72t-84 29l-45 4l31 166h591l326 -871l94 527q8 57 9 71q0 51 -27 75t-82 28l-45 4l31 166h551l-31 -166l-45 -4q-82 -10 -116 -44t-50 -130l-191 -1051h-254l-438 1124l-141 -780q-8 -35 -8 -68 q0 -96 108 -106l45 -4l-30 -166h-551zM514 -315q0 84 66.5 148.5t154.5 64.5q63 0 103.5 -42t40.5 -110q0 -102 -81 -217t-212 -201l-70 66q123 111 148 162q-12 -2 -27 -2q-57 0 -90 36t-33 95z" />
<glyph unicode="&#x146;" d="M170 807l31 168q201 10 393 72h106l-18 -105q66 55 159 89t181 34q129 0 212 -62.5t83 -158.5q0 -27 -14 -111l-64 -358q-16 -98 -16 -103q0 -70 75 -69q33 0 86 33l80 -115q-168 -139 -323 -139q-113 0 -184.5 55t-71.5 145q0 47 10 92l80 424q2 12 2 37q0 47 -33 74 t-92 27q-111 0 -203 -72l-139 -764h-324l121 657q4 41 4 56q0 49 -26.5 71.5t-89.5 22.5h-25zM440 -315q0 84 66.5 148.5t155.5 64.5q63 0 103 -42t40 -110q0 -102 -81 -217t-212 -201l-70 66q123 111 148 162q-12 -2 -27 -2q-57 0 -90 36t-33 95z" />
<glyph unicode="&#x147;" horiz-adv-x="1515" d="M29 0l30 166l45 4q82 10 116 44t50 130l127 707q8 57 9 73q0 47 -25 72t-84 29l-45 4l31 166h591l326 -871l94 527q8 57 9 71q0 51 -27 75t-82 28l-45 4l31 166h551l-31 -166l-45 -4q-82 -10 -116 -44t-50 -130l-191 -1051h-254l-438 1124l-141 -780q-8 -35 -8 -68 q0 -96 108 -106l45 -4l-30 -166h-551zM678 1702l94 113l293 -103l309 103l70 -123l-414 -191z" />
<glyph unicode="&#x148;" d="M170 807l31 168q201 10 393 72h106l-18 -105q66 55 159 89t181 34q129 0 212 -62.5t83 -158.5q0 -27 -14 -111l-64 -358q-16 -98 -16 -103q0 -70 75 -69q33 0 86 33l80 -115q-168 -139 -323 -139q-113 0 -184.5 55t-71.5 145q0 47 10 92l80 424q2 12 2 37q0 47 -33 74 t-92 27q-111 0 -203 -72l-139 -764h-324l121 657q4 41 4 56q0 49 -26.5 71.5t-89.5 22.5h-25zM578 1419l86 127l266 -114l280 114l64 -137l-377 -211z" />
<glyph unicode="&#x14a;" horiz-adv-x="1515" d="M29 0l30 166l45 4q82 10 116 44t50 130l127 707q8 57 9 73q0 47 -25 72t-84 29l-45 4l31 166h591l326 -871l94 527q8 57 9 71q0 51 -27 75t-82 28l-45 4l31 166h551l-31 -166l-45 -4q-82 -10 -116 -44t-50 -130l-191 -1051q-35 -186 -217 -306t-401 -120 q-137 0 -227.5 48t-90.5 122q0 57 45.5 101t102.5 44q84 0 156 -94q37 -53 77 -53q104 0 192.5 76t108.5 182l-438 1124l-141 -780q-8 -35 -8 -68q0 -96 108 -106l45 -4l-30 -166h-551z" />
<glyph unicode="&#x14b;" d="M170 807l31 168q201 10 393 72h106l-18 -105q66 55 159 89t181 34q129 0 212 -62.5t83 -158.5q0 -27 -14 -111l-64 -358q-29 -154 -81 -292t-127 -255t-182.5 -185.5t-230.5 -68.5q-137 0 -227 48t-90 122q0 57 45 101t103 44q84 0 155 -94q37 -53 78 -53q33 0 63.5 37 t49 80t41 131t31.5 136l28 148l80 424q2 12 2 37q0 47 -33 74t-92 27q-111 0 -203 -72l-139 -764h-324l121 657q4 41 4 56q0 49 -26.5 71.5t-89.5 22.5h-25z" />
<glyph unicode="&#x14c;" horiz-adv-x="1556" d="M160 596q0 342 241.5 583.5t591.5 241.5q297 0 477.5 -173t180.5 -457q0 -137 -56.5 -278.5t-158 -263.5t-267 -199t-362.5 -77q-289 0 -468 172t-179 451zM545 543q0 -174 73.5 -273.5t200.5 -99.5q98 0 178 53t126 132t78 175.5t43 174t11 139.5q0 186 -74.5 287.5 t-211.5 101.5q-174 0 -299 -203.5t-125 -486.5zM713 1567l53 180h672l-54 -180h-671z" />
<glyph unicode="&#x14d;" horiz-adv-x="1228" d="M121 399q0 70 17.5 149t64.5 173t118.5 169t192.5 125t272 50q240 0 369 -112.5t129 -321.5q0 -59 -17.5 -135t-64.5 -168t-118.5 -168t-193.5 -127t-274 -51q-229 0 -362 112t-133 305zM475 338q0 -84 41 -130t117 -46q90 0 156.5 71.5t96 172t42 174t12.5 110.5 q0 102 -39 148.5t-123 46.5q-88 0 -153.5 -71t-94 -173t-42 -179t-13.5 -124zM494 1282l53 180h672l-54 -180h-671z" />
<glyph unicode="&#x14e;" horiz-adv-x="1556" d="M160 596q0 342 241.5 583.5t591.5 241.5q297 0 477.5 -173t180.5 -457q0 -137 -56.5 -278.5t-158 -263.5t-267 -199t-362.5 -77q-289 0 -468 172t-179 451zM545 543q0 -174 73.5 -273.5t200.5 -99.5q98 0 178 53t126 132t78 175.5t43 174t11 139.5q0 186 -74.5 287.5 t-211.5 101.5q-174 0 -299 -203.5t-125 -486.5zM686 1786h164q25 -59 70 -82t141 -23q92 0 143 24t82 81h164q-33 -143 -125 -200.5t-274 -57.5q-176 0 -260.5 59.5t-104.5 198.5z" />
<glyph unicode="&#x14f;" horiz-adv-x="1228" d="M121 399q0 70 17.5 149t64.5 173t118.5 169t192.5 125t272 50q240 0 369 -112.5t129 -321.5q0 -59 -17.5 -135t-64.5 -168t-118.5 -168t-193.5 -127t-274 -51q-229 0 -362 112t-133 305zM475 338q0 -84 41 -130t117 -46q90 0 156.5 71.5t96 172t42 174t12.5 110.5 q0 102 -39 148.5t-123 46.5q-88 0 -153.5 -71t-94 -173t-42 -179t-13.5 -124zM498 1516h149q20 -66 62.5 -91.5t128.5 -25.5q84 0 130 26.5t74 90.5h150q-35 -164 -118 -225.5t-244.5 -61.5t-237.5 65.5t-94 221.5z" />
<glyph unicode="&#x150;" horiz-adv-x="1556" d="M160 596q0 342 241.5 583.5t591.5 241.5q297 0 477.5 -173t180.5 -457q0 -137 -56.5 -278.5t-158 -263.5t-267 -199t-362.5 -77q-289 0 -468 172t-179 451zM545 543q0 -174 73.5 -273.5t200.5 -99.5q98 0 178 53t126 132t78 175.5t43 174t11 139.5q0 186 -74.5 287.5 t-211.5 101.5q-174 0 -299 -203.5t-125 -486.5zM719 1589q158 209 209 259t110 50q53 0 90 -34.5t37 -85.5q0 -70 -70.5 -123t-283.5 -148zM1184 1589q158 209 209 259t110 50q53 0 90 -34.5t37 -85.5q0 -68 -71.5 -122t-282.5 -149z" />
<glyph unicode="&#x151;" horiz-adv-x="1228" d="M121 399q0 70 17.5 149t64.5 173t118.5 169t192.5 125t272 50q240 0 369 -112.5t129 -321.5q0 -59 -17.5 -135t-64.5 -168t-118.5 -168t-193.5 -127t-274 -51q-229 0 -362 112t-133 305zM475 338q0 -84 41 -130t117 -46q90 0 156.5 71.5t96 172t42 174t12.5 110.5 q0 102 -39 148.5t-123 46.5q-88 0 -153.5 -71t-94 -173t-42 -179t-13.5 -124zM492 1260q158 209 209 259t110 50q53 0 90 -35t37 -86q0 -70 -70.5 -123t-283.5 -147zM956 1260q158 209 209.5 259t110.5 50q53 0 90 -35t37 -86q0 -68 -71.5 -122t-282.5 -148z" />
<glyph unicode="&#x152;" horiz-adv-x="2416" d="M193 594q0 236 116.5 428t301 295.5t393.5 103.5q240 0 421 -133l21 107h995l109 -445l-135 -49q-143 326 -471 326q-76 0 -123 -13.5t-69.5 -45t-30 -52t-15.5 -69.5l-39 -213q33 -2 74 -3q115 0 163 43.5t76 172.5h144l-115 -625h-143q2 70 -1 102.5t-22.5 68.5 t-64.5 48t-125 12h-19l-63 -346q-2 -8 -8 -63q0 -41 33.5 -56.5t132.5 -15.5q178 0 334.5 84t322.5 268l131 -71l-227 -453h-1098l18 104q-170 -131 -385 -131q-279 0 -455.5 174.5t-176.5 446.5zM575 541q0 -174 74 -272.5t203 -98.5q184 0 313 195.5t129 478.5 q0 186 -75.5 287.5t-214.5 101.5q-131 0 -232.5 -111.5t-149 -266t-47.5 -314.5z" />
<glyph unicode="&#x153;" horiz-adv-x="1884" d="M98 399q0 78 20.5 164t71 177t122 162t187 117t257.5 46q231 0 395 -145q211 145 448 145q168 0 268.5 -68.5t100.5 -183.5q0 -121 -105.5 -205t-257 -118.5t-331.5 -34.5q-29 0 -51 2q-6 -49 -6 -82q0 -90 55 -147.5t143 -57.5q74 0 153 35t116 63l120 94l101 -118 q-256 -262 -566 -262q-176 0 -335 127q-129 -74 -215.5 -100.5t-198.5 -26.5q-225 0 -358.5 112t-133.5 305zM453 336q0 -82 41 -128t112 -46q133 0 219 166t86 358q0 102 -38.5 150.5t-120.5 48.5q-86 0 -150.5 -71t-94.5 -171t-42 -179t-12 -128zM1251 598h25 q160 0 274.5 61.5t114.5 147.5q0 45 -31.5 71.5t-83.5 26.5q-104 0 -189 -98t-110 -209z" />
<glyph unicode="&#x154;" horiz-adv-x="1515" d="M29 0l30 166l45 4q82 8 114 43t50 131l129 707q8 57 9 75q0 45 -24 69t-85 30l-45 4l29 166h768q123 0 211 -13.5t158.5 -48.5t106.5 -98.5t36 -157.5q0 -135 -92.5 -253.5t-276.5 -159.5l149 -310q59 -109 93 -138.5t133 -49.5l-31 -166h-416l-293 612h-153l-49 -268 q-6 -39 -7 -70q0 -51 24 -74.5t85 -29.5l45 -4l-31 -166h-712zM709 801q16 -2 34 -2q217 0 327 54t110 206q0 170 -244 170q-78 0 -116 -18.5t-43 -47t-15 -63.5zM780 1565q106 119 215 204q80 59 150 60q66 0 110.5 -32t44.5 -79q0 -82 -151 -147q-66 -27 -277 -86z" />
<glyph unicode="&#x155;" horiz-adv-x="1024" d="M172 807l31 168q201 10 393 72h106l-28 -156q139 174 317 174q88 0 144.5 -45t56.5 -115q0 -72 -53.5 -121t-130.5 -49q-66 0 -131 49q-35 27 -60 27q-129 0 -213 -346l-92 -465h-324l121 657q4 41 4 56q0 49 -26.5 71.5t-89.5 22.5h-25zM551 1270q109 143 188.5 218 t143.5 75q59 0 100 -36t41 -87q0 -78 -79 -130.5t-310 -129.5z" />
<glyph unicode="&#x156;" horiz-adv-x="1515" d="M29 0l30 166l45 4q82 8 114 43t50 131l129 707q8 57 9 75q0 45 -24 69t-85 30l-45 4l29 166h768q123 0 211 -13.5t158.5 -48.5t106.5 -98.5t36 -157.5q0 -135 -92.5 -253.5t-276.5 -159.5l149 -310q59 -109 93 -138.5t133 -49.5l-31 -166h-416l-293 612h-153l-49 -268 q-6 -39 -7 -70q0 -51 24 -74.5t85 -29.5l45 -4l-31 -166h-712zM473 -315q0 84 66.5 148.5t154.5 64.5q63 0 103.5 -42t40.5 -110q0 -102 -81 -217t-212 -201l-70 66q123 111 148 162q-12 -2 -27 -2q-57 0 -90 36t-33 95zM709 801q16 -2 34 -2q217 0 327 54t110 206 q0 170 -244 170q-78 0 -116 -18.5t-43 -47t-15 -63.5z" />
<glyph unicode="&#x157;" horiz-adv-x="1024" d="M115 -315q0 84 66.5 148.5t154.5 64.5q63 0 103 -42t40 -110q0 -102 -81 -217t-212 -201l-69 66q123 111 147 162q-12 -2 -26 -2q-57 0 -90 36t-33 95zM172 807l31 168q201 10 393 72h106l-28 -156q139 174 317 174q88 0 144.5 -45t56.5 -115q0 -72 -53.5 -121 t-130.5 -49q-66 0 -131 49q-35 27 -60 27q-129 0 -213 -346l-92 -465h-324l121 657q4 41 4 56q0 49 -26.5 71.5t-89.5 22.5h-25z" />
<glyph unicode="&#x158;" horiz-adv-x="1515" d="M29 0l30 166l45 4q82 8 114 43t50 131l129 707q8 57 9 75q0 45 -24 69t-85 30l-45 4l29 166h768q123 0 211 -13.5t158.5 -48.5t106.5 -98.5t36 -157.5q0 -135 -92.5 -253.5t-276.5 -159.5l149 -310q59 -109 93 -138.5t133 -49.5l-31 -166h-416l-293 612h-153l-49 -268 q-6 -39 -7 -70q0 -51 24 -74.5t85 -29.5l45 -4l-31 -166h-712zM637 1702l94 113l293 -103l309 103l70 -123l-414 -191zM709 801q16 -2 34 -2q217 0 327 54t110 206q0 170 -244 170q-78 0 -116 -18.5t-43 -47t-15 -63.5z" />
<glyph unicode="&#x159;" horiz-adv-x="1024" d="M172 807l31 168q201 10 393 72h106l-28 -156q139 174 317 174q88 0 144.5 -45t56.5 -115q0 -72 -53.5 -121t-130.5 -49q-66 0 -131 49q-35 27 -60 27q-129 0 -213 -346l-92 -465h-324l121 657q4 41 4 56q0 49 -26.5 71.5t-89.5 22.5h-25zM410 1419l86 127l266 -114 l280 114l64 -137l-377 -211z" />
<glyph unicode="&#x15a;" horiz-adv-x="1433" d="M121 524l158 27q141 -397 520 -397q129 0 212 56t83 142q0 39 -15.5 71t-39 48t-50 29.5t-47 16.5t-33.5 7l-266 64q-16 2 -40.5 10t-55.5 16.5t-64.5 24.5t-66.5 35.5t-63.5 49.5t-53.5 64.5t-36 84t-13 104.5q0 195 168 319.5t430 124.5q246 0 444 -114l43 88h146v-469 h-156q-102 315 -432 315q-111 0 -185.5 -47t-74.5 -117q0 -29 13 -51t27.5 -35.5t52.5 -28t55.5 -18.5t68.5 -18l258 -68q14 0 48 -12t77 -25.5t90 -45.5t85 -70.5t63.5 -101t25.5 -136.5q0 -207 -191.5 -350.5t-465.5 -143.5q-256 0 -449 119l-45 -92h-135zM784 1565 q106 119 215 204q80 59 150 60q66 0 111 -32t45 -79q0 -82 -152 -147q-66 -27 -276 -86z" />
<glyph unicode="&#x15b;" horiz-adv-x="1105" d="M66 211q0 53 38.5 88t96.5 35q55 0 94 -23.5t98 -89.5q59 -72 154 -71q80 0 132 37.5t52 95.5q0 39 -25.5 61.5t-93.5 42.5l-145 41q-139 41 -203.5 104.5t-64.5 159.5q0 162 150.5 267.5t381.5 105.5q186 0 314.5 -61.5t128.5 -151.5q0 -47 -36 -80t-89 -33 q-49 0 -83 19.5t-79 75.5q-53 63 -150 63q-66 0 -104.5 -29.5t-38.5 -79.5q0 -29 12 -49t32.5 -30.5t45.5 -20.5t49 -16l162 -51q240 -74 240 -246q0 -166 -171 -279.5t-421 -113.5q-244 0 -398 98q-79 51 -79 131zM582 1270q109 143 188.5 218t142.5 75q59 0 100.5 -36 t41.5 -87q0 -78 -79 -130.5t-310 -129.5z" />
<glyph unicode="&#x15c;" horiz-adv-x="1433" d="M121 524l158 27q141 -397 520 -397q129 0 212 56t83 142q0 39 -15.5 71t-39 48t-50 29.5t-47 16.5t-33.5 7l-266 64q-16 2 -40.5 10t-55.5 16.5t-64.5 24.5t-66.5 35.5t-63.5 49.5t-53.5 64.5t-36 84t-13 104.5q0 195 168 319.5t430 124.5q246 0 444 -114l43 88h146v-469 h-156q-102 315 -432 315q-111 0 -185.5 -47t-74.5 -117q0 -29 13 -51t27.5 -35.5t52.5 -28t55.5 -18.5t68.5 -18l258 -68q14 0 48 -12t77 -25.5t90 -45.5t85 -70.5t63.5 -101t25.5 -136.5q0 -207 -191.5 -350.5t-465.5 -143.5q-256 0 -449 119l-45 -92h-135zM629 1624 l413 191l353 -201l-95 -113l-292 103l-310 -103z" />
<glyph unicode="&#x15d;" horiz-adv-x="1105" d="M66 211q0 53 38.5 88t96.5 35q55 0 94 -23.5t98 -89.5q59 -72 154 -71q80 0 132 37.5t52 95.5q0 39 -25.5 61.5t-93.5 42.5l-145 41q-139 41 -203.5 104.5t-64.5 159.5q0 162 150.5 267.5t381.5 105.5q186 0 314.5 -61.5t128.5 -151.5q0 -47 -36 -80t-89 -33 q-49 0 -83 19.5t-79 75.5q-53 63 -150 63q-66 0 -104.5 -29.5t-38.5 -79.5q0 -29 12 -49t32.5 -30.5t45.5 -20.5t49 -16l162 -51q240 -74 240 -246q0 -166 -171 -279.5t-421 -113.5q-244 0 -398 98q-79 51 -79 131zM436 1335l377 211l320 -221l-86 -127l-267 115l-280 -115z " />
<glyph unicode="&#x15e;" horiz-adv-x="1433" d="M121 524l158 27q141 -397 520 -397q129 0 212 56t83 142q0 39 -15.5 71t-39 48t-50 29.5t-47 16.5t-33.5 7l-266 64q-16 2 -40.5 10t-55.5 16.5t-64.5 24.5t-66.5 35.5t-63.5 49.5t-53.5 64.5t-36 84t-13 104.5q0 195 168 319.5t430 124.5q246 0 444 -114l43 88h146v-469 h-156q-102 315 -432 315q-111 0 -185.5 -47t-74.5 -117q0 -29 13 -51t27.5 -35.5t52.5 -28t55.5 -18.5t68.5 -18l258 -68q14 0 48 -12t77 -25.5t90 -45.5t85 -70.5t63.5 -101t25.5 -136.5q0 -203 -186.5 -346.5t-456.5 -147.5l-31 -71h70q59 0 104 -44t45 -102 q0 -96 -77.5 -146t-196.5 -50q-90 0 -144.5 29.5t-54.5 78.5q0 33 22.5 56.5t53.5 23.5q25 0 55.5 -41t69.5 -41q92 0 92 80q0 31 -16.5 52.5t-43 21.5t-48.5 -10l-49 49l51 118q-205 16 -365 115l-45 -92h-135z" />
<glyph unicode="&#x15f;" horiz-adv-x="1105" d="M66 211q0 53 38.5 88t96.5 35q55 0 94 -23.5t98 -89.5q59 -72 154 -71q80 0 132 37.5t52 95.5q0 39 -25.5 61.5t-93.5 42.5l-145 41q-139 41 -203.5 104.5t-64.5 159.5q0 162 150.5 267.5t381.5 105.5q186 0 314.5 -61.5t128.5 -151.5q0 -47 -36 -80t-89 -33 q-49 0 -83 19.5t-79 75.5q-53 63 -150 63q-66 0 -104.5 -29.5t-38.5 -79.5q0 -29 12 -49t32.5 -30.5t45.5 -20.5t49 -16l162 -51q240 -74 240 -246q0 -154 -148.5 -264.5t-374.5 -126.5l-34 -82h69q59 0 104.5 -44t45.5 -102q0 -96 -78 -146t-197 -50q-90 0 -144 29.5 t-54 78.5q0 33 22.5 56.5t52.5 23.5q25 0 55.5 -41t69.5 -41q92 0 92 80q0 31 -16 52.5t-43 21.5t-49 -10l-49 49l55 123q-225 6 -369 98q-79 51 -79 131z" />
<glyph unicode="&#x160;" horiz-adv-x="1433" d="M121 524l158 27q141 -397 520 -397q129 0 212 56t83 142q0 39 -15.5 71t-39 48t-50 29.5t-47 16.5t-33.5 7l-266 64q-16 2 -40.5 10t-55.5 16.5t-64.5 24.5t-66.5 35.5t-63.5 49.5t-53.5 64.5t-36 84t-13 104.5q0 195 168 319.5t430 124.5q246 0 444 -114l43 88h146v-469 h-156q-102 315 -432 315q-111 0 -185.5 -47t-74.5 -117q0 -29 13 -51t27.5 -35.5t52.5 -28t55.5 -18.5t68.5 -18l258 -68q14 0 48 -12t77 -25.5t90 -45.5t85 -70.5t63.5 -101t25.5 -136.5q0 -207 -191.5 -350.5t-465.5 -143.5q-256 0 -449 119l-45 -92h-135zM641 1702 l94 113l293 -103l309 103l70 -123l-414 -191z" />
<glyph unicode="&#x161;" horiz-adv-x="1105" d="M66 211q0 53 38.5 88t96.5 35q55 0 94 -23.5t98 -89.5q59 -72 154 -71q80 0 132 37.5t52 95.5q0 39 -25.5 61.5t-93.5 42.5l-145 41q-139 41 -203.5 104.5t-64.5 159.5q0 162 150.5 267.5t381.5 105.5q186 0 314.5 -61.5t128.5 -151.5q0 -47 -36 -80t-89 -33 q-49 0 -83 19.5t-79 75.5q-53 63 -150 63q-66 0 -104.5 -29.5t-38.5 -79.5q0 -29 12 -49t32.5 -30.5t45.5 -20.5t49 -16l162 -51q240 -74 240 -246q0 -166 -171 -279.5t-421 -113.5q-244 0 -398 98q-79 51 -79 131zM440 1419l86 127l267 -114l280 114l64 -137l-377 -211z " />
<glyph unicode="&#x162;" horiz-adv-x="1433" d="M143 977l207 418h1192l100 -445l-147 -32q-57 150 -153.5 225.5t-239.5 85.5l-162 -885q-6 -39 -6 -70q0 -57 27.5 -78.5t99.5 -25.5l65 -4l-28 -166h-334l-43 -98h70q59 0 104 -44t45 -102q0 -96 -78 -146t-196 -50q-90 0 -144.5 29.5t-54.5 78.5q0 33 22.5 56.5 t53.5 23.5q25 0 55.5 -41t69.5 -41q92 0 92 80q0 31 -16.5 52.5t-43 21.5t-49.5 -10l-49 49l62 141h-361l29 166l67 4q92 6 129 40t56 134l161 885q-160 -12 -260 -77t-221 -234z" />
<glyph unicode="&#x163;" horiz-adv-x="901" d="M217 862l25 135q137 37 215 116t131 237h184l-55 -303h282l-32 -185h-285l-100 -551q-4 -33 -4 -45q0 -29 18 -46t49 -17q33 0 99.5 29.5t117.5 68.5l86 -137q-170 -164 -397 -180l-35 -82h70q59 0 104 -44t45 -102q0 -96 -77.5 -146t-196.5 -50q-90 0 -144.5 29.5 t-54.5 78.5q0 33 22.5 56.5t53.5 23.5q25 0 55.5 -41t69.5 -41q92 0 92 80q0 31 -16.5 52.5t-43 21.5t-49.5 -10l-49 49l56 125q-102 12 -156.5 63t-54.5 137q0 29 16 117l100 561h-141z" />
<glyph unicode="&#x164;" horiz-adv-x="1433" d="M143 977l207 418h1192l100 -445l-147 -32q-57 150 -153.5 225.5t-239.5 85.5l-162 -885q-6 -39 -6 -70q0 -57 27.5 -78.5t99.5 -25.5l65 -4l-28 -166h-795l29 166l67 4q92 6 129 40t56 134l161 885q-160 -12 -260 -77t-221 -234zM625 1702l94 113l293 -103l309 103 l70 -123l-414 -191z" />
<glyph unicode="&#x165;" horiz-adv-x="901" d="M217 862l25 135q137 37 215 116t131 237h184l-55 -303h282l-32 -185h-285l-100 -551q-4 -33 -4 -45q0 -29 18 -46t49 -17q33 0 99.5 29.5t117.5 68.5l86 -137q-88 -84 -205.5 -133t-234.5 -49q-127 0 -196.5 53t-69.5 149q0 29 16 117l100 561h-141zM836 1462 q0 84 66.5 148.5t154.5 64.5q63 0 103 -42t40 -109q0 -102 -81 -217t-212 -201l-69 65q123 111 147 162q-12 -2 -27 -2q-57 0 -89.5 36t-32.5 95z" />
<glyph unicode="&#x168;" horiz-adv-x="1515" d="M229 1229l31 166h713l-31 -166l-45 -4q-82 -10 -115.5 -44t-50.5 -130l-86 -482q-16 -74 -16 -184q0 -98 63.5 -152.5t179.5 -54.5q59 0 109.5 14.5t83.5 34t60.5 57.5t42 63.5t27.5 72.5t17.5 67.5t12.5 65.5l90 498q8 35 8 67q0 96 -109 107l-45 4l31 166h551l-31 -166 l-45 -4q-82 -10 -113.5 -44t-50.5 -130l-104 -576q-94 -502 -666 -502q-221 0 -356 90.5t-135 237.5q0 47 16 150l109 600q8 57 8 73q0 47 -24.5 72t-84.5 29zM729 1612q47 92 103.5 132t138.5 40q70 0 159 -32t123 -32q39 0 57.5 9.5t51.5 46.5l94 -76 q-63 -102 -109.5 -135t-127.5 -33q-55 0 -149.5 32.5t-133.5 32.5q-70 0 -113 -59z" />
<glyph unicode="&#x169;" d="M170 807l31 168q201 10 393 72h106l-112 -627q-12 -88 -13 -111q0 -41 37 -69.5t90 -28.5q102 0 201 80l137 756h324l-117 -648q-14 -86 -14 -106q0 -90 70 -90q33 0 92 47l80 -119q-137 -150 -326 -149q-186 0 -242 135q-117 -76 -199.5 -105.5t-175.5 -29.5 q-131 0 -216 60t-85 157q0 51 9 92l67 366q4 41 4 56q0 49 -26.5 71.5t-89.5 22.5h-25zM565 1327q47 92 103.5 132t138.5 40q70 0 159 -31.5t124 -31.5q39 0 57 9t51 46l94 -76q-63 -102 -109 -135t-128 -33q-55 0 -149.5 33t-133.5 33q-70 0 -113 -60z" />
<glyph unicode="&#x16a;" horiz-adv-x="1515" d="M229 1229l31 166h713l-31 -166l-45 -4q-82 -10 -115.5 -44t-50.5 -130l-86 -482q-16 -74 -16 -184q0 -98 63.5 -152.5t179.5 -54.5q59 0 109.5 14.5t83.5 34t60.5 57.5t42 63.5t27.5 72.5t17.5 67.5t12.5 65.5l90 498q8 35 8 67q0 96 -109 107l-45 4l31 166h551l-31 -166 l-45 -4q-82 -10 -113.5 -44t-50.5 -130l-104 -576q-94 -502 -666 -502q-221 0 -356 90.5t-135 237.5q0 47 16 150l109 600q8 57 8 73q0 47 -24.5 72t-84.5 29zM731 1567l53 180h672l-53 -180h-672z" />
<glyph unicode="&#x16b;" d="M170 807l31 168q201 10 393 72h106l-112 -627q-12 -88 -13 -111q0 -41 37 -69.5t90 -28.5q102 0 201 80l137 756h324l-117 -648q-14 -86 -14 -106q0 -90 70 -90q33 0 92 47l80 -119q-137 -150 -326 -149q-186 0 -242 135q-117 -76 -199.5 -105.5t-175.5 -29.5 q-131 0 -216 60t-85 157q0 51 9 92l67 366q4 41 4 56q0 49 -26.5 71.5t-89.5 22.5h-25zM567 1282l54 180h671l-53 -180h-672z" />
<glyph unicode="&#x16c;" horiz-adv-x="1515" d="M229 1229l31 166h713l-31 -166l-45 -4q-82 -10 -115.5 -44t-50.5 -130l-86 -482q-16 -74 -16 -184q0 -98 63.5 -152.5t179.5 -54.5q59 0 109.5 14.5t83.5 34t60.5 57.5t42 63.5t27.5 72.5t17.5 67.5t12.5 65.5l90 498q8 35 8 67q0 96 -109 107l-45 4l31 166h551l-31 -166 l-45 -4q-82 -10 -113.5 -44t-50.5 -130l-104 -576q-94 -502 -666 -502q-221 0 -356 90.5t-135 237.5q0 47 16 150l109 600q8 57 8 73q0 47 -24.5 72t-84.5 29zM705 1786h163q25 -59 70 -82t141 -23q92 0 143.5 24t82.5 81h163q-33 -143 -125 -200.5t-274 -57.5 q-176 0 -260 59.5t-104 198.5z" />
<glyph unicode="&#x16d;" d="M170 807l31 168q201 10 393 72h106l-112 -627q-12 -88 -13 -111q0 -41 37 -69.5t90 -28.5q102 0 201 80l137 756h324l-117 -648q-14 -86 -14 -106q0 -90 70 -90q33 0 92 47l80 -119q-137 -150 -326 -149q-186 0 -242 135q-117 -76 -199.5 -105.5t-175.5 -29.5 q-131 0 -216 60t-85 157q0 51 9 92l67 366q4 41 4 56q0 49 -26.5 71.5t-89.5 22.5h-25zM571 1516h150q20 -66 62 -91.5t128 -25.5q84 0 130 26.5t75 90.5h150q-35 -164 -118 -225.5t-245 -61.5t-238 65.5t-94 221.5z" />
<glyph unicode="&#x16e;" horiz-adv-x="1515" d="M229 1229l31 166h713l-31 -166l-45 -4q-82 -10 -115.5 -44t-50.5 -130l-86 -482q-16 -74 -16 -184q0 -98 63.5 -152.5t179.5 -54.5q59 0 109.5 14.5t83.5 34t60.5 57.5t42 63.5t27.5 72.5t17.5 67.5t12.5 65.5l90 498q8 35 8 67q0 96 -109 107l-45 4l31 166h551l-31 -166 l-45 -4q-82 -10 -113.5 -44t-50.5 -130l-104 -576q-94 -502 -666 -502q-221 0 -356 90.5t-135 237.5q0 47 16 150l109 600q8 57 8 73q0 47 -24.5 72t-84.5 29zM870 1681q0 92 67 158t161 66t159.5 -64.5t65.5 -159.5q0 -90 -66.5 -154.5t-160.5 -64.5q-92 0 -159 64.5 t-67 154.5zM997 1686q0 -43 29 -74t70 -31q39 0 68.5 30.5t29.5 71.5q0 43 -28.5 73t-69.5 30t-70 -29.5t-29 -70.5z" />
<glyph unicode="&#x16f;" d="M170 807l31 168q201 10 393 72h106l-112 -627q-12 -88 -13 -111q0 -41 37 -69.5t90 -28.5q102 0 201 80l137 756h324l-117 -648q-14 -86 -14 -106q0 -90 70 -90q33 0 92 47l80 -119q-137 -150 -326 -149q-186 0 -242 135q-117 -76 -199.5 -105.5t-175.5 -29.5 q-131 0 -216 60t-85 157q0 51 9 92l67 366q4 41 4 56q0 49 -26.5 71.5t-89.5 22.5h-25zM702 1370q0 92 67 157.5t161 65.5t159.5 -64.5t65.5 -158.5q0 -90 -66.5 -154.5t-160.5 -64.5q-92 0 -159 64.5t-67 154.5zM829 1374q0 -43 29 -73.5t70 -30.5q39 0 68.5 30.5 t29.5 71.5q0 43 -28.5 73t-69.5 30t-70 -30t-29 -71z" />
<glyph unicode="&#x170;" horiz-adv-x="1515" d="M229 1229l31 166h713l-31 -166l-45 -4q-82 -10 -115.5 -44t-50.5 -130l-86 -482q-16 -74 -16 -184q0 -98 63.5 -152.5t179.5 -54.5q59 0 109.5 14.5t83.5 34t60.5 57.5t42 63.5t27.5 72.5t17.5 67.5t12.5 65.5l90 498q8 35 8 67q0 96 -109 107l-45 4l31 166h551l-31 -166 l-45 -4q-82 -10 -113.5 -44t-50.5 -130l-104 -576q-94 -502 -666 -502q-221 0 -356 90.5t-135 237.5q0 47 16 150l109 600q8 57 8 73q0 47 -24.5 72t-84.5 29zM737 1589q158 209 209 259t111 50q53 0 90 -34.5t37 -85.5q0 -70 -71 -123t-284 -148zM1202 1589 q158 209 209 259t111 50q53 0 90 -34.5t37 -85.5q0 -68 -72 -122t-283 -149z" />
<glyph unicode="&#x171;" d="M170 807l31 168q201 10 393 72h106l-112 -627q-12 -88 -13 -111q0 -41 37 -69.5t90 -28.5q102 0 201 80l137 756h324l-117 -648q-14 -86 -14 -106q0 -90 70 -90q33 0 92 47l80 -119q-137 -150 -326 -149q-186 0 -242 135q-117 -76 -199.5 -105.5t-175.5 -29.5 q-131 0 -216 60t-85 157q0 51 9 92l67 366q4 41 4 56q0 49 -26.5 71.5t-89.5 22.5h-25zM565 1260q158 209 209 259t111 50q53 0 90 -35t37 -86q0 -70 -71 -123t-284 -147zM1030 1260q158 209 209 259t111 50q53 0 90 -35t37 -86q0 -68 -72 -122t-283 -148z" />
<glyph unicode="&#x172;" horiz-adv-x="1515" d="M229 1229l31 166h713l-31 -166l-45 -4q-82 -10 -115.5 -44t-50.5 -130l-86 -482q-16 -74 -16 -184q0 -98 63.5 -152.5t179.5 -54.5q59 0 109.5 14.5t83.5 34t60.5 57.5t42 63.5t27.5 72.5t17.5 67.5t12.5 65.5l90 498q8 35 8 67q0 96 -109 107l-45 4l31 166h551l-31 -166 l-45 -4q-82 -10 -113.5 -44t-50.5 -130l-104 -576q-66 -356 -373 -461q-121 -39 -164 -114q-29 -45 -28 -119q0 -43 31.5 -66.5t76.5 -23.5q61 0 142 65l86 -63q-61 -84 -153.5 -134.5t-188.5 -50.5q-109 0 -191 57.5t-82 143.5q0 137 172 264q-219 2 -352 92.5t-133 235.5 q0 47 16 150l109 600q8 57 8 73q0 47 -24.5 72t-84.5 29z" />
<glyph unicode="&#x173;" d="M170 807l31 168q201 10 393 72h106l-112 -627q-12 -88 -13 -111q0 -41 37 -69.5t90 -28.5q102 0 201 80l137 756h324l-117 -648q-14 -86 -14 -106q0 -90 70 -90q33 0 92 47l80 -119q-94 -100 -220 -135q-131 -33 -168 -96q-29 -45 -28 -119q0 -43 31.5 -66.5t76.5 -23.5 q61 0 142 65l86 -63q-61 -84 -153.5 -134.5t-188.5 -50.5q-109 0 -191 57.5t-82 143.5q0 156 226 301q-66 31 -99 107q-117 -76 -199.5 -105.5t-175.5 -29.5q-131 0 -216 60t-85 157q0 51 9 92l67 366q4 41 4 56q0 49 -26.5 71.5t-89.5 22.5h-25z" />
<glyph unicode="&#x174;" horiz-adv-x="2048" d="M147 1229l31 166h635l-29 -166q-135 -6 -135 -119q0 -16 2 -25l94 -657l302 657l2 11v4q0 72 -62 102q-23 12 -88 27l29 166h645l-29 -166l-24 -2q-84 -8 -107.5 -24.5t-23.5 -55.5q0 -8 1 -28.5t1 -33.5l94 -657l299 657q27 57 26 80q0 27 -27.5 39.5t-96.5 20.5l-25 4 l31 166h540l-30 -166q-111 -12 -150 -49t-117 -193l-487 -987h-254l-111 778l-378 -778h-250l-148 1036q-14 100 -43 135t-117 58zM909 1624l414 191l352 -201l-94 -113l-293 103l-309 -103z" />
<glyph unicode="&#x175;" horiz-adv-x="1761" d="M115 807l30 168q201 10 394 72h106l-121 -666q-10 -51 -10 -78q0 -45 37 -72.5t94 -27.5q94 0 174 49l144 795h323l-119 -658q-6 -27 -6 -51q0 -127 137 -127q106 0 186.5 111.5t80.5 263.5q0 63 -14.5 94t-73.5 88q-51 51 -52 111q0 76 58.5 131t138.5 55 q92 0 147.5 -80t55.5 -213q0 -195 -84 -374t-246 -297.5t-365 -118.5q-178 0 -286 116q-180 -117 -369 -116q-129 0 -215 66.5t-86 166.5q0 12 4 37l74 405q4 41 4 56q0 49 -26.5 71.5t-90.5 22.5h-24zM754 1335l376 211l320 -221l-86 -127l-266 115l-281 -115z" />
<glyph unicode="&#x176;" horiz-adv-x="1351" d="M147 1229l31 166h723l-31 -166q-59 -4 -77.5 -6t-47 -7.5t-37 -15.5t-8.5 -26q0 -18 13 -48l157 -370l285 354q41 47 41 74q0 31 -139 45l30 166h586l-31 -166q-115 -18 -184 -63.5t-194 -192.5l-324 -387l-43 -242l-8 -72q0 -47 24.5 -72.5t83.5 -29.5l62 -4l-31 -166 h-739l30 166l64 4q80 10 113.5 45t50.5 129l43 242l-182 389q-68 143 -111 186t-131 62zM571 1624l414 191l352 -201l-94 -113l-293 103l-309 -103z" />
<glyph unicode="&#x177;" horiz-adv-x="1228" d="M51 -207q0 61 46 103.5t114 42.5q49 0 82 -20.5t42 -43t21 -39.5q43 -74 152 -74q35 0 74 12.5t89 44t91 104.5t57 175q-176 -117 -332 -116q-123 0 -205.5 63.5t-82.5 157.5q0 51 10 100l63 354q8 49 9 64q0 43 -27 64.5t-92 21.5h-25l31 168q201 10 393 72h107 l-115 -633q-16 -92 -16 -97q0 -45 30.5 -75.5t77.5 -30.5q53 0 113.5 26.5t97.5 65.5l135 744h324l-154 -848l-21 -108q-9 -44 -34 -114.5t-55.5 -118.5t-85 -104.5t-122 -90.5t-165.5 -57.5t-219 -23.5q-174 0 -291 60.5t-117 150.5zM500 1335l377 211l319 -221l-86 -127 l-266 115l-281 -115z" />
<glyph unicode="&#x178;" horiz-adv-x="1351" d="M147 1229l31 166h723l-31 -166q-59 -4 -77.5 -6t-47 -7.5t-37 -15.5t-8.5 -26q0 -18 13 -48l157 -370l285 354q41 47 41 74q0 31 -139 45l30 166h586l-31 -166q-115 -18 -184 -63.5t-194 -192.5l-324 -387l-43 -242l-8 -72q0 -47 24.5 -72.5t83.5 -29.5l62 -4l-31 -166 h-739l30 166l64 4q80 10 113.5 45t50.5 129l43 242l-182 389q-68 143 -111 186t-131 62zM541 1626q0 76 59 135.5t135 59.5q59 0 96 -37t37 -96q0 -72 -62.5 -133.5t-133.5 -61.5q-57 0 -94 38t-37 95zM1051 1626q0 76 59 135.5t135 59.5q59 0 96 -37t37 -96 q0 -72 -62.5 -133.5t-133.5 -61.5q-57 0 -94 38t-37 95z" />
<glyph unicode="&#x179;" d="M47 127l979 1096q-53 10 -104 10q-248 0 -416 -125q-70 -49 -182 -197l-152 56l180 428h1123l41 -123l-971 -1096q94 -12 155 -12q211 0 360.5 88t256.5 276l156 -51l-211 -477h-1162zM729 1565q106 119 215 204q80 59 150 60q66 0 110.5 -32t44.5 -79q0 -82 -151 -147 q-66 -27 -277 -86z" />
<glyph unicode="&#x17a;" horiz-adv-x="1146" d="M74 162l686 702q-49 20 -129 21q-72 0 -105.5 -21.5t-56.5 -79.5q-53 -131 -164 -131q-57 0 -92 40t-35 106q0 115 108.5 190.5t272.5 75.5q80 0 267.5 -18.5t267.5 -18.5h59l47 -145l-682 -697q57 -16 125 -16q186 0 223 104q20 53 62.5 85t93.5 32q61 0 103 -42 t42 -103q0 -106 -103 -185t-243 -79q-27 0 -207 14t-321 14q-61 0 -162 -12zM575 1270q109 143 189 218t143 75q59 0 100.5 -36t41.5 -87q0 -78 -79 -130.5t-311 -129.5z" />
<glyph unicode="&#x17b;" d="M47 127l979 1096q-53 10 -104 10q-248 0 -416 -125q-70 -49 -182 -197l-152 56l180 428h1123l41 -123l-971 -1096q94 -12 155 -12q211 0 360.5 88t256.5 276l156 -51l-211 -477h-1162zM793 1626q0 78 61 139.5t139 61.5q61 0 99 -38t38 -99q0 -76 -63 -139.5t-139 -63.5 q-57 0 -96 40t-39 99z" />
<glyph unicode="&#x17c;" horiz-adv-x="1146" d="M74 162l686 702q-49 20 -129 21q-72 0 -105.5 -21.5t-56.5 -79.5q-53 -131 -164 -131q-57 0 -92 40t-35 106q0 115 108.5 190.5t272.5 75.5q80 0 267.5 -18.5t267.5 -18.5h59l47 -145l-682 -697q57 -16 125 -16q186 0 223 104q20 53 62.5 85t93.5 32q61 0 103 -42 t42 -103q0 -106 -103 -185t-243 -79q-27 0 -207 14t-321 14q-61 0 -162 -12zM616 1341q0 78 61.5 139.5t139.5 61.5q61 0 99 -38t38 -99q0 -76 -63.5 -139.5t-138.5 -63.5q-57 0 -96.5 40t-39.5 99z" />
<glyph unicode="&#x17d;" d="M47 127l979 1096q-53 10 -104 10q-248 0 -416 -125q-70 -49 -182 -197l-152 56l180 428h1123l41 -123l-971 -1096q94 -12 155 -12q211 0 360.5 88t256.5 276l156 -51l-211 -477h-1162zM586 1702l94 113l293 -103l309 103l70 -123l-414 -191z" />
<glyph unicode="&#x17e;" horiz-adv-x="1146" d="M74 162l686 702q-49 20 -129 21q-72 0 -105.5 -21.5t-56.5 -79.5q-53 -131 -164 -131q-57 0 -92 40t-35 106q0 115 108.5 190.5t272.5 75.5q80 0 267.5 -18.5t267.5 -18.5h59l47 -145l-682 -697q57 -16 125 -16q186 0 223 104q20 53 62.5 85t93.5 32q61 0 103 -42 t42 -103q0 -106 -103 -185t-243 -79q-27 0 -207 14t-321 14q-61 0 -162 -12zM434 1419l86 127l266 -114l281 114l63 -137l-376 -211z" />
<glyph unicode="&#x17f;" horiz-adv-x="860" d="M-393 -266q0 66 52 113t126 47q70 0 131 -64q37 -39 54.5 -49t49.5 -10q115 0 191 143q51 98 98 365l107 583h-172l32 185h173q39 225 195.5 352t397.5 127q125 0 198 -44t73 -122q0 -57 -44 -94t-110 -37q-53 0 -85 17.5t-64 62.5q-27 37 -68 37q-63 0 -98 -52.5 t-58 -173.5l-114 -624q-49 -268 -73 -358.5t-64 -168.5q-100 -188 -273.5 -291.5t-390.5 -103.5q-127 0 -195.5 42t-68.5 118z" />
<glyph unicode="&#x18e;" horiz-adv-x="1474" d="M113 461l161 71q115 -205 227.5 -282.5t295.5 -77.5q90 0 130 17.5t56 64.5q4 12 16 65l62 338q-66 0 -101.5 -4t-77.5 -19.5t-69 -49t-47 -90.5q-10 -27 -21 -66h-145l113 619h145q-14 -135 12.5 -173t139.5 -38q49 0 84 4l36 207l12 91q5 40 -36 65.5t-139 25.5 q-313 0 -586 -332l-127 45l278 453h1197l-31 -166l-47 -4q-111 -10 -144 -101l-18 -73l-129 -707q-16 -94 3 -130t97 -44l45 -4l-30 -166h-1299z" />
<glyph unicode="&#x192;" d="M-57 -266q0 66 52 113t126 47q70 0 131 -64q35 -39 53.5 -49t46.5 -10q49 0 70.5 50t58.5 253l144 788h-172l32 185h172q39 225 196 352t398 127q125 0 198 -44t73 -122q0 -57 -44 -94t-110 -37q-53 0 -85 17.5t-64 62.5q-27 37 -68 37q-63 0 -98 -51.5t-58 -174.5 l-14 -73h197l-35 -185h-195l-145 -796q-8 -47 -17.5 -84t-31 -91.5t-48 -94.5t-72.5 -84t-103.5 -72.5t-140.5 -47t-183 -18.5q-125 0 -194.5 42t-69.5 118z" />
<glyph unicode="&#x1a0;" horiz-adv-x="1583" d="M160 596q0 160 63.5 317.5t171.5 264.5q117 115 273.5 179t324.5 64q231 0 400 -112q96 49 110 88q-49 8 -81.5 42t-32.5 81q0 74 63.5 127t130.5 53q70 0 111 -45t41 -107q0 -197 -242 -325q158 -170 158 -432q0 -137 -57.5 -285t-151.5 -254q-115 -131 -283 -205 t-352 -74q-289 0 -468 172t-179 451zM545 543q0 -174 73.5 -273.5t200.5 -99.5q193 0 322 213q47 80 80.5 214t33.5 247q0 186 -74.5 287.5t-211.5 101.5q-174 0 -299 -203.5t-125 -486.5z" />
<glyph unicode="&#x1a1;" horiz-adv-x="1329" d="M121 399q0 137 57.5 272.5t153.5 227.5q176 166 454 166q227 0 357 -104q92 47 106 86q-49 8 -81.5 41.5t-32.5 80.5q0 74 63.5 127.5t130.5 53.5q70 0 111 -45t41 -107q0 -205 -254 -332q57 -102 57 -235q0 -115 -51 -241t-133 -212q-184 -197 -484 -196 q-229 0 -362 112t-133 305zM475 338q0 -84 41 -130t117 -46q135 0 213 151q35 68 64.5 185.5t29.5 191.5q0 102 -39 148.5t-123 46.5q-131 0 -209 -152q-37 -72 -65.5 -191.5t-28.5 -203.5z" />
<glyph unicode="&#x1af;" horiz-adv-x="1683" d="M229 1229l31 166h713l-31 -166l-45 -4q-82 -10 -113.5 -44t-52.5 -130l-86 -482q-16 -74 -16 -184q0 -98 63.5 -152.5t179.5 -54.5q80 0 152 29t111 76q53 66 90 270l90 498q8 37 8 79q0 86 -109 95l-45 4l31 166h373l-21 -111q143 55 166 113q-49 8 -81.5 42t-32.5 81 q0 74 63.5 127t130.5 53q70 0 111 -45t41 -107q0 -84 -44 -155.5t-114 -117.5t-134.5 -76t-129.5 -46l-121 -678q-39 -217 -145 -323q-84 -84 -221.5 -131.5t-299.5 -47.5q-221 0 -356 90.5t-135 237.5q0 47 16 150l109 600q8 45 8 79q0 86 -109 95z" />
<glyph unicode="&#x1b0;" horiz-adv-x="1486" d="M170 807l31 168q201 10 393 72h106l-112 -627q-12 -88 -13 -111q0 -41 37 -69.5t90 -28.5q102 0 201 80l137 756h324l-21 -107q137 55 156 107q-49 8 -82 41.5t-33 80.5q0 74 63.5 127.5t131.5 53.5q70 0 111 -45t41 -107q0 -82 -42 -151.5t-110 -116.5t-130.5 -77 t-127.5 -48l-74 -406q-16 -84 -16 -114q0 -33 21.5 -57.5t50.5 -24.5q33 0 92 47l80 -119q-137 -150 -326 -149q-186 0 -242 135q-117 -76 -199.5 -105.5t-175.5 -29.5q-131 0 -216 60t-85 157q0 51 9 92l67 366q8 53 8 76q0 29 -12 41q-43 33 -108 33h-25z" />
<glyph unicode="&#x1dd;" horiz-adv-x="1146" d="M131 233q0 117 101.5 201t254 121t336.5 37q31 0 54 -2q6 53 6 88q0 86 -55.5 138t-147.5 52q-176 0 -385 -178l-111 121q86 96 247 175t317 79q215 0 349 -121t134 -313q0 -266 -218 -457.5t-521 -191.5q-162 0 -261.5 68t-99.5 183zM434 240q0 -43 32 -71t83 -28 q104 0 190 99.5t109 208.5h-25q-160 0 -274.5 -61.5t-114.5 -147.5z" />
<glyph unicode="&#x1e6;" horiz-adv-x="1556" d="M158 569q0 348 234.5 600t559.5 252q188 0 383 -108l39 82h113l86 -502l-152 -27l-38 76t-58 89.5t-85 97t-108.5 66.5t-140.5 30q-184 0 -317 -199t-133 -475q0 -176 79.5 -278.5t217.5 -102.5q127 0 225 81t98 183q0 35 -13 57.5t-32.5 30.5t-43 14.5t-42.5 8.5l-22 4 l28 166h660l-31 -166l-39 -8q-78 -18 -103.5 -46t-39.5 -102l-72 -393h-223l-23 104q-178 -131 -420 -131q-264 0 -425.5 164t-161.5 432zM694 1702l94 113l293 -103l310 103l69 -123l-413 -191z" />
<glyph unicode="&#x1e7;" horiz-adv-x="1269" d="M43 -199q0 63 51 106.5t127 43.5q96 0 139 -90q39 -98 166 -99q72 0 130.5 29t92 64.5t65.5 101.5t44 103.5t31 105.5q-51 -61 -79 -91t-95.5 -61.5t-149.5 -31.5q-174 0 -288.5 123.5t-114.5 312.5q0 254 183 450.5t419 196.5q78 0 132 -18.5t140 -67.5l13 68h321 l-153 -844q-12 -66 -24.5 -115t-38.5 -118.5t-59.5 -120t-90 -105.5t-126 -90t-171 -57.5t-222.5 -22.5q-193 0 -317.5 64.5t-124.5 162.5zM467 1419l86 127l266 -114l281 114l63 -137l-377 -211zM516 381q0 -92 38 -143.5t108 -51.5q100 0 183 121t124 324l39 190 q-63 45 -99.5 60.5t-77.5 15.5q-78 0 -141 -53t-99 -135t-55.5 -168t-19.5 -160z" />
<glyph unicode="&#x1ea;" horiz-adv-x="1556" d="M160 596q0 342 241.5 583.5t591.5 241.5q297 0 477.5 -173t180.5 -457q0 -229 -145.5 -451.5t-399.5 -314.5q-129 -47 -174 -125q-29 -45 -29 -119q0 -43 32 -66.5t77 -23.5q61 0 141 65l86 -63q-61 -84 -153.5 -134.5t-188.5 -50.5q-109 0 -190.5 57.5t-81.5 143.5 q0 137 172 264q-285 4 -461 175.5t-176 447.5zM545 543q0 -174 73.5 -273.5t200.5 -99.5q98 0 178 53t126 132t78 175.5t43 174t11 139.5q0 186 -74.5 287.5t-211.5 101.5q-174 0 -299 -203.5t-125 -486.5z" />
<glyph unicode="&#x1eb;" horiz-adv-x="1228" d="M121 399q0 70 17.5 149t64.5 173t118.5 169t192.5 125t272 50q240 0 369 -112.5t129 -321.5q0 -121 -69.5 -282t-217.5 -261q-20 -14 -147 -68.5t-164 -119.5q-29 -45 -29 -119q0 -43 32 -66.5t77 -23.5q61 0 141 65l86 -63q-61 -84 -153 -134.5t-189 -50.5 q-109 0 -190.5 57.5t-81.5 143.5q0 143 186 275q-207 12 -325.5 123.5t-118.5 291.5zM475 338q0 -84 41 -130t117 -46q90 0 156.5 71.5t96 172t42 174t12.5 110.5q0 102 -39 148.5t-123 46.5q-88 0 -153.5 -71t-94 -173t-42 -179t-13.5 -124z" />
<glyph unicode="&#x1f4;" horiz-adv-x="1556" d="M158 569q0 348 234.5 600t559.5 252q188 0 383 -108l39 82h113l86 -502l-152 -27l-38 76t-58 89.5t-85 97t-108.5 66.5t-140.5 30q-184 0 -317 -199t-133 -475q0 -176 79.5 -278.5t217.5 -102.5q127 0 225 81t98 183q0 35 -13 57.5t-32.5 30.5t-43 14.5t-42.5 8.5l-22 4 l28 166h660l-31 -166l-39 -8q-78 -18 -103.5 -46t-39.5 -102l-72 -393h-223l-23 104q-178 -131 -420 -131q-264 0 -425.5 164t-161.5 432zM838 1565q106 119 215 204q80 59 149 60q66 0 111 -32t45 -79q0 -82 -152 -147q-66 -27 -276 -86z" />
<glyph unicode="&#x1f5;" horiz-adv-x="1269" d="M43 -199q0 63 51 106.5t127 43.5q96 0 139 -90q39 -98 166 -99q72 0 130.5 29t92 64.5t65.5 101.5t44 103.5t31 105.5q-51 -61 -79 -91t-95.5 -61.5t-149.5 -31.5q-174 0 -288.5 123.5t-114.5 312.5q0 254 183 450.5t419 196.5q78 0 132 -18.5t140 -67.5l13 68h321 l-153 -844q-12 -66 -24.5 -115t-38.5 -118.5t-59.5 -120t-90 -105.5t-126 -90t-171 -57.5t-222.5 -22.5q-193 0 -317.5 64.5t-124.5 162.5zM516 381q0 -92 38 -143.5t108 -51.5q100 0 183 121t124 324l39 190q-63 45 -99.5 60.5t-77.5 15.5q-78 0 -141 -53t-99 -135 t-55.5 -168t-19.5 -160zM608 1270q109 143 189 218t143 75q59 0 100 -36t41 -87q0 -78 -78.5 -130.5t-310.5 -129.5z" />
<glyph unicode="&#x1fa;" horiz-adv-x="1474" d="M-55 0l30 166q109 25 170.5 85t130.5 179l570 965h309l238 -1030q35 -119 57.5 -145.5t99.5 -47.5l25 -6l-31 -166h-721l31 166l68 8q68 10 92 25.5t24 48.5q0 23 -14 90l-33 158h-454l-95 -179q-33 -61 -32 -88q0 -45 118 -59l39 -4l-30 -166h-592zM625 655h336l-84 447 zM825 1681q0 92 66.5 158t161 66t160 -64.5t65.5 -159.5q0 -90 -66.5 -154.5t-160.5 -64.5q-92 0 -159 64.5t-67 154.5zM899 2025q106 119 215 205q80 59 150 60q66 0 110.5 -32t44.5 -79q0 -82 -151 -147q-66 -27 -277 -86zM952 1686q0 -43 29 -74t70 -31q39 0 68.5 30.5 t29.5 71.5q0 43 -28.5 73t-69.5 30t-70 -29.5t-29 -70.5z" />
<glyph unicode="&#x1fb;" d="M172 418q0 260 182.5 453.5t427.5 193.5q164 0 279 -96l14 78h291l-119 -660q-12 -61 -12 -88q0 -96 74 -96q45 0 108 49l88 -109q-172 -162 -344 -161q-203 0 -248 161q-137 -162 -342 -161q-174 0 -286.5 123t-112.5 313zM518 373q0 -86 38 -136.5t103 -50.5 q117 0 211 162q66 111 142 471q-104 66 -174 66q-98 0 -175 -91.5t-111 -205t-34 -215.5zM694 1352q0 92 66.5 157.5t161 65.5t160 -64.5t65.5 -158.5q0 -90 -66.5 -154.5t-160.5 -64.5q-92 0 -159 64.5t-67 154.5zM768 1696q106 119 215 205q80 59 150 59q66 0 110.5 -32 t44.5 -79q0 -82 -151 -147q-66 -27 -277 -86zM821 1356q0 -43 29 -74t70 -31q39 0 68.5 31t29.5 72q0 43 -28.5 72.5t-69.5 29.5t-70 -29.5t-29 -70.5z" />
<glyph unicode="&#x1fc;" horiz-adv-x="2334" d="M-55 0l30 166q133 16 199 57t223 203l951 969h1011l113 -453l-143 -45q-53 150 -180.5 241t-280.5 91q-131 0 -178.5 -27.5t-63.5 -111.5l-47 -259h92q102 0 145.5 40t81.5 176h142l-113 -621h-141q4 66 3 121t-43 93t-128 38h-68l-61 -336l-10 -88q0 -45 32.5 -63.5 t128.5 -18.5q119 0 242 43t219 117q82 63 197 186l137 -55l-231 -463h-1268l31 166l32 4q76 8 109 45t49 129l31 174h-465l-162 -176q-78 -78 -78 -117q0 -16 11.5 -27.5t42 -17.5t45 -7t59.5 -5l18 -2l-30 -166h-684zM870 678h347l79 438zM1329 1565q106 119 215 204 q80 59 150 60q66 0 110.5 -32t44.5 -79q0 -82 -151 -147q-66 -27 -277 -86z" />
<glyph unicode="&#x1fd;" horiz-adv-x="1802" d="M80 221q0 78 33.5 141.5t97 103.5t133.5 68.5t164 46t164.5 24.5t158.5 13q20 98 21 148q0 63 -45 105t-117 42q-37 0 -67.5 -9t-50 -20.5t-37 -29.5t-24.5 -28.5t-15 -26.5l-9 -15q-61 -111 -163 -110q-49 0 -85 35.5t-36 85.5q0 111 142 190.5t341 79.5q260 0 391 -131 q133 78 219 104.5t205 26.5q168 0 268.5 -68.5t100.5 -183.5q0 -119 -103.5 -203t-257 -119.5t-338.5 -35.5q-29 0 -53 2q-4 -57 -4 -72q0 -96 53.5 -155.5t137.5 -59.5q57 0 115.5 16.5t105.5 43t81.5 50t62.5 47t32 25.5l98 -104q-72 -92 -235.5 -179t-329.5 -87 q-78 0 -144.5 17t-105.5 42t-72.5 52.5t-45 48t-23.5 30.5q-86 -66 -139.5 -99.5t-138.5 -62t-179 -28.5q-143 0 -225 64t-82 175zM416 276q0 -41 26.5 -65.5t69.5 -24.5q96 0 176 79t113 208q-188 0 -286.5 -57.5t-98.5 -139.5zM899 1270q109 143 188.5 218t143.5 75 q59 0 100 -36t41 -87q0 -78 -79 -130.5t-310 -129.5zM1153 598h25q160 0 274.5 61.5t114.5 147.5q0 45 -32 71.5t-83 26.5q-106 0 -192.5 -102.5t-106.5 -204.5z" />
<glyph unicode="&#x1fe;" horiz-adv-x="1556" d="M43 -59l250 258q-129 170 -129 397q0 215 103.5 403.5t297 305t434.5 116.5q217 0 385 -102l160 166h191l-244 -252q164 -174 164 -432q0 -152 -59.5 -299.5t-166 -265t-267.5 -190.5t-349 -73q-244 0 -422 129l-158 -161h-190zM549 541q0 -45 4 -76l641 657 q-80 111 -219 111q-174 0 -300 -204.5t-126 -487.5zM596 311q74 -141 227 -141q139 0 242.5 113.5t149 264t45.5 304.5q0 53 -13 131zM846 1565q106 119 215 204q80 59 149 60q66 0 111 -32t45 -79q0 -82 -152 -147q-66 -27 -276 -86z" />
<glyph unicode="&#x1ff;" horiz-adv-x="1228" d="M35 -111l194 217q-117 117 -116 295q0 70 17 151t65.5 174t120 167t191.5 123t269 49q154 0 266 -49l148 164h164l-205 -230q127 -115 127 -307q0 -84 -23.5 -172t-76 -176t-127 -157.5t-189.5 -112.5t-252 -43q-154 0 -276 57l-135 -150h-162zM469 373l420 471 q-47 41 -121 41q-84 0 -146.5 -63.5t-92 -160t-43 -165t-17.5 -123.5zM496 223q47 -61 129 -61q86 0 150.5 64.5t95 159.5t46 177t15.5 146zM653 1270q109 143 189 218t143 75q59 0 100 -36t41 -87q0 -78 -78.5 -130.5t-310.5 -129.5z" />
<glyph unicode="&#x200;" horiz-adv-x="1474" d="M-55 0l30 166q109 25 170.5 85t130.5 179l570 965h309l238 -1030q35 -119 57.5 -145.5t99.5 -47.5l25 -6l-31 -166h-721l31 166l68 8q68 10 92 25.5t24 48.5q0 23 -14 90l-33 158h-454l-95 -179q-33 -61 -32 -88q0 -45 118 -59l39 -4l-30 -166h-592zM537 1778 q18 51 68 85.5t104 34.5q59 0 92 -50t114 -259l-122 -82q-178 94 -229.5 148.5t-26.5 122.5zM625 655h336l-84 447zM1001 1778q18 51 68.5 85.5t104.5 34.5q59 0 91.5 -49t114.5 -260l-123 -82q-178 94 -229.5 147.5t-26.5 123.5z" />
<glyph unicode="&#x201;" d="M172 418q0 260 182.5 453.5t427.5 193.5q164 0 279 -96l14 78h291l-119 -660q-12 -61 -12 -88q0 -96 74 -96q45 0 108 49l88 -109q-172 -162 -344 -161q-203 0 -248 161q-137 -162 -342 -161q-174 0 -286.5 123t-112.5 313zM406 1448q18 51 68 86t104 35q59 0 91.5 -50.5 t114.5 -258.5l-122 -82q-178 94 -229.5 148t-26.5 122zM518 373q0 -86 38 -136.5t103 -50.5q117 0 211 162q66 111 142 471q-104 66 -174 66q-98 0 -175 -91.5t-111 -205t-34 -215.5zM870 1448q18 51 68.5 86t103.5 35q59 0 92 -49.5t115 -259.5l-123 -82 q-178 94 -229.5 147t-26.5 123z" />
<glyph unicode="&#x204;" horiz-adv-x="1474" d="M29 0l30 166l45 4q80 8 114 44t50 130l129 707l9 73q0 47 -25 71t-84 30l-45 4l31 166h1196l112 -453l-143 -45q-152 332 -465 332q-51 0 -88 -7.5t-59.5 -18.5t-38 -28.5t-22.5 -37t-12 -43t-9 -47.5l-39 -207q33 -4 82 -4q113 0 153.5 37.5t75.5 173.5h145l-112 -619 h-146q4 49 5 66q0 45 -12.5 75.5t-29 48t-51 26.5t-62.5 11t-81 2l-61 -338q-8 -53 -9 -65q0 -47 33 -64.5t125 -17.5q182 0 322.5 77t330.5 283l136 -71l-232 -461h-1298zM467 1778q18 51 68.5 85.5t103.5 34.5q59 0 92 -50t115 -259l-123 -82q-178 94 -229.5 148.5 t-26.5 122.5zM932 1778q18 51 68.5 85.5t103.5 34.5q59 0 92 -49t115 -260l-123 -82q-178 94 -229.5 147.5t-26.5 123.5z" />
<glyph unicode="&#x205;" horiz-adv-x="1146" d="M121 416q0 266 218 457.5t521 191.5q162 0 261.5 -68.5t99.5 -183.5q0 -117 -101.5 -201t-254 -120.5t-337.5 -36.5q-31 0 -53 2q-6 -53 -6 -88q0 -86 55.5 -138.5t147.5 -52.5q176 0 385 178l110 -120q-86 -96 -246.5 -175t-316.5 -79q-215 0 -349 120.5t-134 313.5z M338 1448q18 51 68.5 86t103.5 35q59 0 92 -50.5t115 -258.5l-123 -82q-178 94 -229.5 148t-26.5 122zM504 598h24q160 0 275 61.5t115 147.5q0 43 -32 70.5t-83 27.5q-104 0 -190 -99t-109 -208zM803 1448q18 51 68.5 86t103.5 35q59 0 92 -49.5t115 -259.5l-123 -82 q-178 94 -229.5 147t-26.5 123z" />
<glyph unicode="&#x208;" horiz-adv-x="778" d="M29 0l30 166l45 4q82 12 115 46t49 128l129 707q6 39 6 69q0 49 -23.5 74t-84.5 31l-43 4l29 166h712l-30 -166l-45 -4q-82 -10 -115 -44t-49 -130l-129 -707q-6 -39 -7 -70q0 -51 24 -75.5t85 -28.5l43 -4l-31 -166h-710zM174 1778q18 51 68.5 85.5t103.5 34.5 q59 0 92 -50t115 -259l-123 -82q-178 94 -229.5 148.5t-26.5 122.5zM639 1778q18 51 68.5 85.5t103.5 34.5q59 0 92 -49t115 -260l-123 -82q-178 94 -229.5 147.5t-26.5 123.5z" />
<glyph unicode="&#x209;" horiz-adv-x="778" d="M78 1448q18 51 68.5 86t103.5 35q59 0 92 -50.5t115 -258.5l-123 -82q-178 94 -229.5 148t-26.5 122zM170 807l31 168q201 10 393 72h106l-116 -648q-20 -123 -21 -125q0 -29 23.5 -50t56.5 -21q41 0 131 45l86 -115q-178 -152 -366 -151q-119 0 -193 56t-74 146 q0 29 13 101l67 372q4 41 4 56q0 49 -26.5 71.5t-89.5 22.5h-25zM543 1448q18 51 68.5 86t103.5 35q59 0 92 -49.5t115 -259.5l-123 -82q-178 94 -229.5 147t-26.5 123z" />
<glyph unicode="&#x20c;" horiz-adv-x="1556" d="M160 596q0 342 241.5 583.5t591.5 241.5q297 0 477.5 -173t180.5 -457q0 -137 -56.5 -278.5t-158 -263.5t-267 -199t-362.5 -77q-289 0 -468 172t-179 451zM545 543q0 -174 73.5 -273.5t200.5 -99.5q98 0 178 53t126 132t78 175.5t43 174t11 139.5q0 186 -74.5 287.5 t-211.5 101.5q-174 0 -299 -203.5t-125 -486.5zM563 1778q18 51 68.5 85.5t103.5 34.5q59 0 92 -50t115 -259l-123 -82q-178 94 -229.5 148.5t-26.5 122.5zM1028 1778q18 51 68.5 85.5t103.5 34.5q59 0 92 -49t115 -260l-123 -82q-178 94 -229.5 147.5t-26.5 123.5z" />
<glyph unicode="&#x20d;" horiz-adv-x="1228" d="M121 399q0 70 17.5 149t64.5 173t118.5 169t192.5 125t272 50q240 0 369 -112.5t129 -321.5q0 -59 -17.5 -135t-64.5 -168t-118.5 -168t-193.5 -127t-274 -51q-229 0 -362 112t-133 305zM336 1448q18 51 68.5 86t103.5 35q59 0 92 -50.5t115 -258.5l-123 -82 q-178 94 -229.5 148t-26.5 122zM475 338q0 -84 41 -130t117 -46q90 0 156.5 71.5t96 172t42 174t12.5 110.5q0 102 -39 148.5t-123 46.5q-88 0 -153.5 -71t-94 -173t-42 -179t-13.5 -124zM801 1448q18 51 68.5 86t103.5 35q59 0 92 -49.5t115 -259.5l-123 -82 q-178 94 -229.5 147t-26.5 123z" />
<glyph unicode="&#x210;" horiz-adv-x="1515" d="M29 0l30 166l45 4q82 8 114 43t50 131l129 707q8 57 9 75q0 45 -24 69t-85 30l-45 4l29 166h768q123 0 211 -13.5t158.5 -48.5t106.5 -98.5t36 -157.5q0 -135 -92.5 -253.5t-276.5 -159.5l149 -310q59 -109 93 -138.5t133 -49.5l-31 -166h-416l-293 612h-153l-49 -268 q-6 -39 -7 -70q0 -51 24 -74.5t85 -29.5l45 -4l-31 -166h-712zM502 1778q18 51 68.5 85.5t103.5 34.5q59 0 92 -50t115 -259l-123 -82q-178 94 -229.5 148.5t-26.5 122.5zM709 801q16 -2 34 -2q217 0 327 54t110 206q0 170 -244 170q-78 0 -116 -18.5t-43 -47t-15 -63.5z M967 1778q18 51 68 85.5t104 34.5q59 0 92 -49t115 -260l-123 -82q-178 94 -229.5 147.5t-26.5 123.5z" />
<glyph unicode="&#x211;" horiz-adv-x="1024" d="M172 807l31 168q201 10 393 72h106l-28 -156q139 174 317 174q88 0 144.5 -45t56.5 -115q0 -72 -53.5 -121t-130.5 -49q-66 0 -131 49q-35 27 -60 27q-129 0 -213 -346l-92 -465h-324l121 657q4 41 4 56q0 49 -26.5 71.5t-89.5 22.5h-25zM242 1448q18 51 68 86t104 35 q59 0 92 -50.5t115 -258.5l-123 -82q-178 94 -229.5 148t-26.5 122zM707 1448q18 51 68 86t104 35q59 0 92 -49.5t114 -259.5l-122 -82q-178 94 -229.5 147t-26.5 123z" />
<glyph unicode="&#x214;" horiz-adv-x="1515" d="M229 1229l31 166h713l-31 -166l-45 -4q-82 -10 -115.5 -44t-50.5 -130l-86 -482q-16 -74 -16 -184q0 -98 63.5 -152.5t179.5 -54.5q59 0 109.5 14.5t83.5 34t60.5 57.5t42 63.5t27.5 72.5t17.5 67.5t12.5 65.5l90 498q8 35 8 67q0 96 -109 107l-45 4l31 166h551l-31 -166 l-45 -4q-82 -10 -113.5 -44t-50.5 -130l-104 -576q-94 -502 -666 -502q-221 0 -356 90.5t-135 237.5q0 47 16 150l109 600q8 57 8 73q0 47 -24.5 72t-84.5 29zM582 1778q18 51 68 85.5t104 34.5q59 0 92 -50t115 -259l-123 -82q-178 94 -229.5 148.5t-26.5 122.5zM1047 1778 q18 51 68 85.5t104 34.5q59 0 91.5 -49t114.5 -260l-122 -82q-178 94 -229.5 147.5t-26.5 123.5z" />
<glyph unicode="&#x215;" d="M170 807l31 168q201 10 393 72h106l-112 -627q-12 -88 -13 -111q0 -41 37 -69.5t90 -28.5q102 0 201 80l137 756h324l-117 -648q-14 -86 -14 -106q0 -90 70 -90q33 0 92 47l80 -119q-137 -150 -326 -149q-186 0 -242 135q-117 -76 -199.5 -105.5t-175.5 -29.5 q-131 0 -216 60t-85 157q0 51 9 92l67 366q4 41 4 56q0 49 -26.5 71.5t-89.5 22.5h-25zM410 1448q18 51 68 86t104 35q59 0 92 -50.5t114 -258.5l-122 -82q-178 94 -229.5 148t-26.5 122zM874 1448q18 51 68.5 86t104.5 35q59 0 91.5 -49.5t114.5 -259.5l-123 -82 q-178 94 -229.5 147t-26.5 123z" />
<glyph unicode="&#x218;" horiz-adv-x="1433" d="M121 524l158 27q141 -397 520 -397q129 0 212 56t83 142q0 39 -15.5 71t-39 48t-50 29.5t-47 16.5t-33.5 7l-266 64q-16 2 -40.5 10t-55.5 16.5t-64.5 24.5t-66.5 35.5t-63.5 49.5t-53.5 64.5t-36 84t-13 104.5q0 195 168 319.5t430 124.5q246 0 444 -114l43 88h146v-469 h-156q-102 315 -432 315q-111 0 -185.5 -47t-74.5 -117q0 -29 13 -51t27.5 -35.5t52.5 -28t55.5 -18.5t68.5 -18l258 -68q14 0 48 -12t77 -25.5t90 -45.5t85 -70.5t63.5 -101t25.5 -136.5q0 -207 -191.5 -350.5t-465.5 -143.5q-256 0 -449 119l-45 -92h-135zM477 -315 q0 84 66.5 148.5t154.5 64.5q63 0 103.5 -42t40.5 -110q0 -102 -81 -217t-212 -201l-70 66q123 111 148 162q-12 -2 -27 -2q-57 0 -90 36t-33 95z" />
<glyph unicode="&#x219;" horiz-adv-x="1105" d="M66 211q0 53 38.5 88t96.5 35q55 0 94 -23.5t98 -89.5q59 -72 154 -71q80 0 132 37.5t52 95.5q0 39 -25.5 61.5t-93.5 42.5l-145 41q-139 41 -203.5 104.5t-64.5 159.5q0 162 150.5 267.5t381.5 105.5q186 0 314.5 -61.5t128.5 -151.5q0 -47 -36 -80t-89 -33 q-49 0 -83 19.5t-79 75.5q-53 63 -150 63q-66 0 -104.5 -29.5t-38.5 -79.5q0 -29 12 -49t32.5 -30.5t45.5 -20.5t49 -16l162 -51q240 -74 240 -246q0 -166 -171 -279.5t-421 -113.5q-244 0 -398 98q-79 51 -79 131zM303 -315q0 84 66.5 148.5t154.5 64.5q63 0 103.5 -42 t40.5 -110q0 -102 -81 -217t-212 -201l-70 66q123 111 148 162q-12 -2 -27 -2q-57 0 -90 36t-33 95z" />
<glyph unicode="&#x21a;" horiz-adv-x="1433" d="M143 977l207 418h1192l100 -445l-147 -32q-57 150 -153.5 225.5t-239.5 85.5l-162 -885q-6 -39 -6 -70q0 -57 27.5 -78.5t99.5 -25.5l65 -4l-28 -166h-795l29 166l67 4q92 6 129 40t56 134l161 885q-160 -12 -260 -77t-221 -234zM461 -315q0 84 66.5 148.5t154.5 64.5 q63 0 103 -42t40 -110q0 -102 -80.5 -217t-212.5 -201l-69 66q123 111 147 162q-12 -2 -26 -2q-57 0 -90 36t-33 95z" />
<glyph unicode="&#x21b;" horiz-adv-x="901" d="M217 862l25 135q137 37 215 116t131 237h184l-55 -303h282l-32 -185h-285l-100 -551q-4 -33 -4 -45q0 -29 18 -46t49 -17q33 0 99.5 29.5t117.5 68.5l86 -137q-88 -84 -205.5 -133t-234.5 -49q-127 0 -196.5 53t-69.5 149q0 29 16 117l100 561h-141zM285 -315 q0 84 66.5 148.5t154.5 64.5q63 0 103 -42t40 -110q0 -102 -81 -217t-212 -201l-69 66q123 111 147 162q-12 -2 -26 -2q-57 0 -90 36t-33 95z" />
<glyph unicode="&#x258;" horiz-adv-x="1146" d="M80 236l153 120q145 -178 320 -178q92 0 167 52.5t105 138.5q14 39 27 88q-25 -2 -55 -2q-184 0 -323.5 36.5t-210 120.5t-27.5 201q41 115 165.5 183.5t286.5 68.5q199 0 338 -89t181 -233.5t-15 -326.5q-72 -193 -250 -313.5t-393 -120.5q-156 0 -286 79t-183 175z M537 807q-31 -86 61 -147.5t252 -61.5h24q16 109 -33.5 208t-154.5 99q-51 0 -92 -27.5t-57 -70.5z" />
<glyph unicode="&#x259;" horiz-adv-x="1146" d="M131 233q0 117 101.5 201t254 121t336.5 37q31 0 54 -2q6 53 6 88q0 86 -55.5 138t-147.5 52q-176 0 -385 -178l-111 121q86 96 247 175t317 79q215 0 349 -121t134 -313q0 -266 -218 -457.5t-521 -191.5q-162 0 -261.5 68t-99.5 183zM434 240q0 -43 32 -71t83 -28 q104 0 190 99.5t109 208.5h-25q-160 0 -274.5 -61.5t-114.5 -147.5z" />
<glyph unicode="&#x2be;" horiz-adv-x="923" d="M258 805q2 57 47 99t109 42q49 0 80.5 -27.5t31.5 -68.5q0 -12 -5 -30.5t-5 -31.5q0 -35 51 -34q76 0 137.5 99t61.5 218q0 135 -127 135q-104 0 -246 -110q-2 -4 -10 -4t-10 4l-74 78q0 2 -1 6t-1 6t1 5t3 5q72 78 181.5 126t213.5 48q150 0 242 -85t90 -222 q0 -178 -146.5 -313.5t-340.5 -135.5q-117 0 -199 56.5t-84 134.5z" />
<glyph unicode="&#x2bf;" horiz-adv-x="923" d="M256 922q0 178 147.5 313t341.5 135q117 0 198 -56.5t83 -133.5q-2 -57 -47 -99.5t-109 -42.5q-49 0 -80.5 28t-31.5 69q0 12 5 30.5t5 30.5q0 35 -51 35q-76 0 -137.5 -99.5t-61.5 -218.5q0 -135 127 -135q104 0 246 111q2 4 10 4t10 -4l74 -78q2 -4 2 -12q0 -6 -4 -11 q-72 -78 -180.5 -126t-212.5 -48q-150 0 -242 85.5t-92 222.5z" />
<glyph unicode="&#x2c6;" horiz-adv-x="983" d="M385 1335l377 211l319 -221l-86 -127l-266 115l-280 -115z" />
<glyph unicode="&#x2c7;" horiz-adv-x="983" d="M389 1419l86 127l266 -114l281 114l63 -137l-376 -211z" />
<glyph unicode="&#x2d8;" horiz-adv-x="942" d="M362 1516h150q20 -66 62 -91.5t128 -25.5q84 0 130.5 26.5t74.5 90.5h150q-35 -164 -118 -225.5t-245 -61.5t-238 65.5t-94 221.5z" />
<glyph unicode="&#x2d9;" horiz-adv-x="778" d="M469 1341q0 78 61.5 139.5t139.5 61.5q61 0 99 -38t38 -99q0 -76 -63.5 -139.5t-139.5 -63.5q-57 0 -96 40t-39 99z" />
<glyph unicode="&#x2da;" horiz-adv-x="737" d="M391 1370q0 92 66.5 157.5t161 65.5t160 -64.5t65.5 -158.5q0 -90 -66.5 -154.5t-161.5 -64.5q-92 0 -158.5 64.5t-66.5 154.5zM518 1374q0 -43 28.5 -73.5t69.5 -30.5q39 0 69 30.5t30 71.5q0 43 -29 73t-70 30t-69.5 -30t-28.5 -71z" />
<glyph unicode="&#x2db;" horiz-adv-x="655" d="M10 -291q0 166 244 311h221q-100 -43 -143 -98t-43 -141q0 -43 31.5 -66.5t76.5 -23.5q61 0 142 65l86 -63q-61 -84 -153.5 -134.5t-188.5 -50.5q-109 0 -191 57.5t-82 143.5z" />
<glyph unicode="&#x2dc;" horiz-adv-x="983" d="M377 1327q47 92 103.5 132t137.5 40q70 0 159 -31.5t124 -31.5q39 0 57.5 9t51.5 46l94 -76q-63 -102 -109.5 -135t-128.5 -33q-55 0 -149 33t-133 33q-70 0 -113 -60z" />
<glyph unicode="&#x2dd;" horiz-adv-x="1146" d="M459 1260q158 209 209 259t110 50q53 0 90 -35t37 -86q0 -70 -70.5 -123t-283.5 -147zM924 1260q158 209 209 259t110 50q53 0 90 -35t37 -86q0 -68 -71.5 -122t-282.5 -148z" />
<glyph unicode="&#x300;" horiz-adv-x="0" d="M-645 1440q20 53 73.5 88t112.5 35q63 0 115.5 -74t110.5 -219l-117 -90q-203 78 -262.5 130t-32.5 130z" />
<glyph unicode="&#x301;" horiz-adv-x="0" d="M-657 1270q109 143 188.5 218t142.5 75q59 0 100.5 -36t41.5 -87q0 -78 -79 -130.5t-310 -129.5z" />
<glyph unicode="&#x302;" horiz-adv-x="0" d="M-803 1335l377 211l320 -221l-87 -127l-266 115l-280 -115z" />
<glyph unicode="&#x303;" horiz-adv-x="0" d="M-811 1327q47 92 103.5 132t138.5 40q70 0 158.5 -31.5t123.5 -31.5q39 0 57.5 9t51.5 46l94 -76q-63 -102 -109.5 -135t-128.5 -33q-55 0 -149 33t-133 33q-70 0 -113 -60z" />
<glyph unicode="&#x304;" horiz-adv-x="0" d="M-809 1282l53 180h672l-53 -180h-672z" />
<glyph unicode="&#x306;" horiz-adv-x="0" d="M-805 1516h150q20 -66 62 -91.5t128 -25.5q84 0 130 26.5t75 90.5h149q-35 -164 -117.5 -225.5t-244.5 -61.5t-238 65.5t-94 221.5z" />
<glyph unicode="&#x307;" horiz-adv-x="0" d="M-616 1341q0 78 61 139.5t139 61.5q61 0 99 -38t38 -99q0 -76 -63.5 -139.5t-138.5 -63.5q-57 0 -96 40t-39 99z" />
<glyph unicode="&#x308;" horiz-adv-x="0" d="M-866 1341q0 76 59 135.5t135 59.5q59 0 96 -37t37 -96q0 -72 -62.5 -133.5t-133.5 -61.5q-57 0 -94 38t-37 95zM-356 1341q0 76 59 135.5t135 59.5q59 0 96 -37t37 -96q0 -72 -62.5 -133.5t-133.5 -61.5q-57 0 -94 38t-37 95z" />
<glyph unicode="&#x309;" horiz-adv-x="0" d="M-733 1423q0 84 88 144.5t211 60.5q113 0 183.5 -52t70.5 -134q0 -72 -45 -132.5t-123 -90.5q-47 -18 -63.5 -37t-22.5 -64h-117q4 84 23.5 123t81.5 84q66 47 65 109q0 37 -22.5 60.5t-59.5 23.5q-35 0 -62.5 -12.5t-27.5 -28.5q0 -2 4 -20.5t4 -26.5q0 -39 -29.5 -68 t-68.5 -29q-41 0 -65.5 24.5t-24.5 65.5z" />
<glyph unicode="&#x30a;" horiz-adv-x="0" d="M-674 1370q0 92 66.5 157.5t161 65.5t160 -64.5t65.5 -158.5q0 -90 -66.5 -154.5t-161.5 -64.5q-92 0 -158.5 64.5t-66.5 154.5zM-547 1374q0 -43 29 -73.5t69 -30.5q39 0 69 30.5t30 71.5q0 43 -29 73t-69.5 30t-69.5 -30t-29 -71z" />
<glyph unicode="&#x30b;" horiz-adv-x="0" d="M-811 1260q158 209 209 259t110 50q53 0 90 -35t37 -86q0 -70 -70.5 -123t-283.5 -147zM-346 1260q158 209 209 259t110 50q53 0 90 -35t37 -86q0 -68 -71.5 -122t-282.5 -148z" />
<glyph unicode="&#x30c;" horiz-adv-x="0" d="M-799 1419l86 127l267 -114l280 114l64 -137l-377 -211z" />
<glyph unicode="&#x30f;" horiz-adv-x="0" d="M-967 1448q18 51 68.5 86t103.5 35q59 0 92 -50.5t115 -258.5l-123 -82q-178 94 -229.5 148t-26.5 122zM-502 1448q18 51 68.5 86t103.5 35q59 0 92 -49.5t115 -259.5l-123 -82q-178 94 -229.5 147t-26.5 123z" />
<glyph unicode="&#x311;" horiz-adv-x="0" d="M-856 1229q35 164 118 225.5t244.5 61.5t237.5 -66t94 -221h-149q-20 66 -62.5 91.5t-128.5 25.5q-84 0 -130 -27t-75 -90h-149z" />
<glyph unicode="&#x323;" horiz-adv-x="0" d="M-924 -358q0 78 61.5 139t139.5 61q61 0 99 -37.5t38 -99.5q0 -76 -63.5 -139.5t-138.5 -63.5q-57 0 -96.5 40.5t-39.5 99.5z" />
<glyph unicode="&#x326;" horiz-adv-x="0" d="M-936 -315q0 84 66.5 148.5t154.5 64.5q63 0 103.5 -42t40.5 -110q0 -102 -81 -217t-212 -201l-70 66q123 111 148 162q-12 -2 -27 -2q-57 0 -90 36t-33 95z" />
<glyph unicode="&#x32e;" horiz-adv-x="0" d="M-1145 -199h164q25 -59 70 -81.5t141 -22.5q92 0 143.5 23.5t81.5 80.5h164q-33 -143 -125 -200.5t-274 -57.5q-176 0 -260.5 59.5t-104.5 198.5z" />
<glyph unicode="&#x32f;" horiz-adv-x="0" d="M-1190 -457q33 143 125 200.5t274 57.5q176 0 260.5 -59t104.5 -199h-164q-25 59 -70 82t-141 23q-92 0 -143 -23.5t-82 -81.5h-164z" />
<glyph unicode="&#x330;" horiz-adv-x="0" d="M-1120 -373q47 92 103 132t138 40q70 0 159 -31.5t124 -31.5q39 0 57.5 9t51.5 46l94 -76q-63 -102 -109.5 -135t-128.5 -33q-57 0 -150 33t-132 33q-70 0 -113 -59z" />
<glyph unicode="&#x331;" horiz-adv-x="0" d="M-1118 -418l53 180h672l-53 -180h-672z" />
<glyph unicode="&#x332;" horiz-adv-x="0" d="M-1118 -418l53 180h672l-53 -180h-672z" />
<glyph unicode="&#x391;" horiz-adv-x="1474" d="M-55 0l30 166q109 25 170.5 85t130.5 179l570 965h309l238 -1030q35 -119 57.5 -145.5t99.5 -47.5l25 -6l-31 -166h-721l31 166l68 8q68 10 92 25.5t24 48.5q0 23 -14 90l-33 158h-454l-95 -179q-33 -61 -32 -88q0 -45 118 -59l39 -4l-30 -166h-592zM625 655h336l-84 447 z" />
<glyph unicode="&#x392;" horiz-adv-x="1474" d="M29 0l30 166l45 4q82 12 114 46t50 128l129 707q8 57 9 75q0 45 -24 69t-85 30l-45 4l29 166h772q266 0 387 -60.5t121 -232.5q0 -137 -103.5 -234.5t-267.5 -117.5q145 -4 234 -80t89 -195q0 -78 -31.5 -154.5t-99 -151.5t-195.5 -122t-296 -47h-862zM618 262 q0 -51 32 -70.5t124 -19.5q176 0 259 99.5t83 205.5q0 100 -59.5 141t-202.5 41h-172l-45 -247q-19 -148 -19 -150zM713 829h127q174 0 266 58.5t92 171.5q0 170 -246 170q-117 0 -146.5 -29t-47.5 -125z" />
<glyph unicode="&#x393;" horiz-adv-x="1351" d="M29 0l30 166l45 4q82 12 114 46t50 128l129 707q8 57 9 75q0 45 -24 69t-85 30l-45 4l29 166h1171l111 -484l-142 -37l-6 15q-74 119 -101.5 154.5t-74.5 74.5q-121 96 -291 96q-106 0 -140 -29.5t-54 -137.5l-129 -703q-6 -43 -7 -74q0 -51 26 -73.5t95 -26.5l58 -4 l-31 -166h-737z" />
<glyph unicode="&#x394;" horiz-adv-x="1474" d="M-111 0l41 193l801 1202h311l287 -1202l-41 -193h-1399zM240 223h671l-157 805z" />
<glyph unicode="&#x395;" horiz-adv-x="1474" d="M29 0l30 166l45 4q80 8 114 44t50 130l129 707l9 73q0 47 -25 71t-84 30l-45 4l31 166h1196l112 -453l-143 -45q-152 332 -465 332q-51 0 -88 -7.5t-59.5 -18.5t-38 -28.5t-22.5 -37t-12 -43t-9 -47.5l-39 -207q33 -4 82 -4q113 0 153.5 37.5t75.5 173.5h145l-112 -619 h-146q4 49 5 66q0 45 -12.5 75.5t-29 48t-51 26.5t-62.5 11t-81 2l-61 -338q-8 -53 -9 -65q0 -47 33 -64.5t125 -17.5q182 0 322.5 77t330.5 283l136 -71l-232 -461h-1298z" />
<glyph unicode="&#x396;" d="M47 127l979 1096q-53 10 -104 10q-248 0 -416 -125q-70 -49 -182 -197l-152 56l180 428h1123l41 -123l-971 -1096q94 -12 155 -12q211 0 360.5 88t256.5 276l156 -51l-211 -477h-1162z" />
<glyph unicode="&#x397;" horiz-adv-x="1638" d="M29 0l30 166l45 4q82 8 114 43t50 131l129 707q8 57 9 75q0 45 -24 69t-85 30l-45 4l29 166h712l-28 -166l-47 -4q-80 -10 -114 -45t-50 -129l-37 -205h512l37 205q8 53 8 71q0 94 -109 103l-45 4l31 166h713l-31 -166l-45 -4q-82 -10 -114 -44t-50 -130l-129 -707 q-8 -39 -8 -74q0 -47 24.5 -71.5t83.5 -28.5l45 -4l-30 -166h-713l31 166l47 4q82 8 114.5 43t49.5 131l57 318h-512l-59 -318q-6 -39 -7 -70q0 -51 24 -74.5t85 -29.5l45 -4l-31 -166h-712z" />
<glyph unicode="&#x398;" horiz-adv-x="1638" d="M111 516q0 256 129 465t341 323.5t457 114.5q281 0 445 -147.5t164 -403.5q0 -84 -19 -170q-70 -328 -318.5 -525.5t-586.5 -197.5q-272 0 -442 141.5t-170 399.5zM498 520q0 -152 71.5 -236.5t202.5 -84.5q203 0 346.5 203.5t143.5 478.5q0 150 -73 233.5t-200 83.5 q-197 0 -344 -205t-147 -473zM565 498l88 417h142l-9 -41l-4 -26q0 -43 80 -43h80q61 0 79.5 14.5t27.5 54.5l8 41h141l-88 -417h-141l6 30l4 29q0 53 -78 53h-80q-94 0 -108 -82l-6 -30h-142z" />
<glyph unicode="&#x399;" horiz-adv-x="778" d="M29 0l30 166l45 4q82 12 115 46t49 128l129 707q6 39 6 69q0 49 -23.5 74t-84.5 31l-43 4l29 166h712l-30 -166l-45 -4q-82 -10 -115 -44t-49 -130l-129 -707q-6 -39 -7 -70q0 -51 24 -75.5t85 -28.5l43 -4l-31 -166h-710z" />
<glyph unicode="&#x39a;" horiz-adv-x="1597" d="M29 0l30 166l45 4q82 8 114 43t50 131l129 707q8 57 9 75q0 45 -24 69t-85 30l-45 4l29 166h714l-30 -166l-47 -4q-80 -10 -114 -44t-50 -130l-49 -277l421 332q80 63 80 84q0 18 -71 31l-58 8l29 166h694l-31 -166q-121 -18 -208.5 -55t-194.5 -115l-221 -162l276 -506 q70 -125 109 -161.5t135 -63.5l-31 -166h-733l29 166l22 4q129 16 129 66q0 27 -37 100l-182 350l-203 -154l-34 -188q-6 -39 -7 -72q0 -47 23 -71.5t86 -30.5l45 -4l-31 -166h-712z" />
<glyph unicode="&#x39b;" horiz-adv-x="1474" d="M-55 0l30 166q109 25 170.5 85t130.5 179l570 965h309l238 -1030q35 -119 57.5 -145.5t99.5 -47.5l25 -6l-31 -166h-721l31 166l68 8q68 10 92 25.5t24 48.5q0 23 -14 90l-147 764l-435 -785q-33 -61 -32 -88q0 -45 118 -59l39 -4l-30 -166h-592z" />
<glyph unicode="&#x39c;" horiz-adv-x="1761" d="M29 0l30 166l27 4q84 10 117 44t49 130l127 707q8 57 8 73q0 47 -23.5 70t-84.5 31l-27 4l29 166h614l88 -774l381 774h623l-31 -166l-31 -4q-82 -12 -113.5 -46t-48.5 -128l-127 -707q-10 -43 -6 -72q0 -51 23.5 -72.5t79.5 -29.5l30 -4l-30 -166h-695l31 166l45 4 q82 10 115 44t51 130l143 789l-553 -1133h-137l-143 1133l-144 -789q-10 -61 -10 -65q0 -102 111 -109l69 -4l-30 -166h-557z" />
<glyph unicode="&#x39d;" horiz-adv-x="1515" d="M29 0l30 166l45 4q82 10 116 44t50 130l127 707q8 57 9 73q0 47 -25 72t-84 29l-45 4l31 166h591l326 -871l94 527q8 57 9 71q0 51 -27 75t-82 28l-45 4l31 166h551l-31 -166l-45 -4q-82 -10 -116 -44t-50 -130l-191 -1051h-254l-438 1124l-141 -780q-8 -35 -8 -68 q0 -96 108 -106l45 -4l-30 -166h-551z" />
<glyph unicode="&#x39e;" horiz-adv-x="1476" d="M16 506l199 76q37 -186 110.5 -258t243.5 -72h238q182 0 288.5 69.5t215.5 260.5l170 -64l-275 -518h-1132zM145 954l226 441h1132l37 -441l-194 -65q-29 133 -112 193.5t-243 60.5h-219q-160 0 -266.5 -59.5t-192.5 -194.5zM416 469l110 516h179l-11 -45q-6 -27 -6 -47 q0 -57 84 -57h90q66 0 86.5 18t36.5 86l10 45h179l-111 -516h-178l8 33q6 25 6 61q0 33 -16.5 44t-67.5 11h-88q-63 0 -89 -25.5t-38 -90.5l-6 -33h-178z" />
<glyph unicode="&#x39f;" horiz-adv-x="1556" d="M160 596q0 342 241.5 583.5t591.5 241.5q297 0 477.5 -173t180.5 -457q0 -137 -56.5 -278.5t-158 -263.5t-267 -199t-362.5 -77q-289 0 -468 172t-179 451zM545 543q0 -174 73.5 -273.5t200.5 -99.5q98 0 178 53t126 132t78 175.5t43 174t11 139.5q0 186 -74.5 287.5 t-211.5 101.5q-174 0 -299 -203.5t-125 -486.5z" />
<glyph unicode="&#x3a0;" horiz-adv-x="1761" d="M90 0l31 166l45 4q82 8 113.5 43t50.5 131l129 707q8 57 8 75q0 45 -23.5 69t-85.5 30l-45 4l29 166h1583l-31 -166l-45 -4q-82 -8 -113.5 -43t-49.5 -131l-130 -707q-8 -39 -8 -74q0 -47 24.5 -71.5t84.5 -28.5l45 -4l-31 -166h-713l31 166l47 4q80 10 114 44t50 130 l127 707q10 68 10 71q0 102 -110 103h-248q-78 0 -113 -38t-51 -136l-129 -707q-6 -39 -6 -70q0 -51 23.5 -74.5t84.5 -29.5l46 -4l-31 -166h-713z" />
<glyph unicode="&#x3a1;" horiz-adv-x="1310" d="M-12 0l30 166l45 4q82 8 114 43t50 131l129 707q8 57 9 75q0 45 -24 69t-85 30l-45 4l29 166h700q137 0 228.5 -12.5t167 -47.5t111.5 -102.5t36 -173.5q0 -479 -686 -479h-170l-43 -236q-6 -37 -6 -70q0 -49 23.5 -75.5t84.5 -28.5l70 -4l-31 -166h-737zM659 756h52 q109 0 159 10t99 41q59 41 96 105.5t37 131.5q0 190 -215 187q-53 0 -85 -10.5t-48.5 -37t-21.5 -44t-13 -60.5z" />
<glyph unicode="&#x3a3;" horiz-adv-x="1310" d="M-29 0l41 193l504 487l-264 522l41 193h971l108 -484l-192 -77q-72 219 -147 280.5t-249 61.5h-145l219 -433l-455 -454h228q201 0 313.5 60.5t214.5 228.5l170 -62l-293 -516h-1065z" />
<glyph unicode="&#x3a4;" horiz-adv-x="1433" d="M143 977l207 418h1192l100 -445l-147 -32q-57 150 -153.5 225.5t-239.5 85.5l-162 -885q-6 -39 -6 -70q0 -57 27.5 -78.5t99.5 -25.5l65 -4l-28 -166h-795l29 166l67 4q92 6 129 40t56 134l161 885q-160 -12 -260 -77t-221 -234z" />
<glyph unicode="&#x3a5;" horiz-adv-x="1351" d="M190 930q37 193 128.5 329t228.5 136q238 0 325 -236q182 236 422 236q139 0 185.5 -136.5t11.5 -328.5h-197q10 53 -4 93t-55 40q-43 0 -81 -19.5t-63.5 -44t-50 -75t-39 -87t-31 -106t-23.5 -106.5l-21 -113l-29 -168l-8 -72q0 -47 24.5 -72.5t83.5 -29.5l62 -4 l-31 -166h-739l30 166l64 4q80 10 113.5 45t50.5 129l28 168l23 130q8 48 17.5 123t5 119t-16.5 90t-42 67.5t-75 21.5q-39 0 -64.5 -39t-35.5 -94h-197z" />
<glyph unicode="&#x3a6;" horiz-adv-x="1857" d="M43 631q0 236 197.5 345t603.5 109l8 39q2 6 2 37q0 61 -80 62h-72l37 172h674l-37 -172h-71q-96 0 -117 -99l-8 -39q156 0 270.5 -14t185 -38.5t112.5 -64.5t57.5 -83t15.5 -103q0 -18 -11 -73q-41 -201 -229 -295.5t-563 -94.5l-12 -51q-4 -37 -5 -39q0 -57 80 -57h72 l-37 -172h-672l35 172h72q100 0 119 96l10 51q-193 0 -321 21.5t-195.5 66t-94 97.5t-26.5 127zM408 659q0 -72 65.5 -108.5t247.5 -36.5l80 379q-393 -1 -393 -234zM1059 514q209 0 301 55.5t92 171.5q0 152 -313 152z" />
<glyph unicode="&#x3a7;" horiz-adv-x="1515" d="M-14 0l30 166q133 33 185.5 64.5t171.5 150.5l295 332l-174 311q-63 111 -106.5 145.5t-127.5 53.5q-4 2 -24 6l30 166h731l-28 -166q-76 -4 -107 -14.5t-31 -34.5q0 -27 33 -86l105 -189l194 221q35 37 35 60q0 12 -9 21.5t-35 13.5t-36 5t-47 3l29 166h610l-31 -166 q-199 -20 -366 -211l-242 -275l213 -374q66 -100 129.5 -146.5t155.5 -56.5l-31 -166h-770l31 166q78 6 105.5 14t27.5 31q0 16 -31 82l-135 258l-213 -244q-51 -57 -51 -86q0 -23 27.5 -34t91.5 -19l22 -2l-31 -166h-626z" />
<glyph unicode="&#x3a8;" horiz-adv-x="2045" d="M135 1202l41 193h488l-93 -430q-16 -72 -14 -125q0 -74 49 -102.5t170 -28.5h76l82 387q6 27 6 55q0 31 -17.5 41t-64.5 10h-27l41 193h603l-41 -193h-33q-66 0 -87.5 -24.5t-37.5 -100.5l-80 -368h68q158 0 224 53t99 203l90 430h488l-41 -193h-37q-70 0 -91.5 -21.5 t-41.5 -113.5l-29 -135q-49 -233 -196.5 -336.5t-430.5 -103.5h-147l-37 -170q-8 -33 -8 -74q0 -35 22.5 -45t88.5 -10h38l-41 -193h-682l41 193h45q80 0 108 24.5t44 104.5l37 170h-123q-256 0 -368.5 66.5t-112.5 215.5q0 86 16 158l31 135q8 33 8 80q0 33 -18.5 44 t-67.5 11h-37z" />
<glyph unicode="&#x3a9;" horiz-adv-x="1611" d="M-59 401l165 39q41 -117 121 -166t244 -51l2 94q-346 104 -346 404q0 303 243.5 500.5t592.5 197.5q264 0 422.5 -122.5t158.5 -323.5q0 -252 -154.5 -421t-418.5 -235l-37 -94q162 4 261 49t196 168l147 -39l-244 -401h-575l135 469q137 49 228.5 178t91.5 305 q0 115 -71 180.5t-190 65.5q-186 0 -301.5 -142.5t-115.5 -338.5q0 -186 159 -248l-63 -469h-578z" />
<glyph unicode="&#x3b1;" horiz-adv-x="1310" d="M197 346q0 289 185 466t476 177q121 0 422 -26l-166 -730q-2 -10 -6 -24q-2 -12 -2 -16v-11q39 2 156 140l147 -127q-123 -131 -189.5 -171t-156.5 -40q-166 0 -211 135q-150 -143 -328 -144q-147 0 -237 103.5t-90 267.5zM477 326q0 -139 88 -140q121 0 242 174.5 t170 409.5q-80 12 -133 12q-156 0 -261.5 -136t-105.5 -320z" />
<glyph unicode="&#x3b2;" horiz-adv-x="1208" d="M139 434q0 207 103.5 430t294 383t405.5 160q141 0 243.5 -77t102.5 -191q0 -111 -102.5 -176.5t-261.5 -65.5q-190 0 -363 49q-145 -225 -145 -479q0 -152 44 -233.5t124 -81.5q131 0 206.5 85t75.5 236q0 203 -121 203q-92 0 -92 -133q0 -35 6 -76l-213 27q-2 12 -2 36 q0 131 98.5 215t254.5 84q168 0 258 -95t90 -265q0 -242 -148.5 -369t-425.5 -127q-213 0 -322.5 120t-109.5 341zM631 1087q184 -45 256 -45q182 0 182 101q0 47 -48 74.5t-116 27.5q-104 0 -274 -158z" />
<glyph unicode="&#x3b3;" horiz-adv-x="1030" d="M45 641q86 166 174 234.5t191 68.5q61 0 98 -35t72 -137l69 -475l142 225q63 98 69 140q0 4 -13 64t-13 81q0 86 53 134t135 48q158 0 158 -151q0 -90 -84 -230q-12 -23 -123 -186l-289 -432q0 -461 -229 -461q-137 0 -138 141q0 98 111 285l-131 747l-4 9 q-25 -23 -70 -121z" />
<glyph unicode="&#x3b4;" horiz-adv-x="1146" d="M201 401q0 174 89 328t234 227q-76 63 -75 164q0 117 101 217.5t259 100.5q70 -2 186 -37q45 -14 76 -15q27 0 64 50l147 -43q-33 -135 -100 -191q-47 -37 -72 -44t-80 -7q-27 0 -49.5 6t-75.5 23.5t-108 33.5q-70 0 -70 -92q0 -35 109 -82l182 -79q160 -106 160 -353 q0 -272 -158 -452.5t-402 -180.5q-190 0 -303.5 119t-113.5 307zM481 399q0 -219 142 -219q115 0 195.5 134.5t80.5 301.5q0 201 -137 201q-115 0 -198 -129t-83 -289z" />
<glyph unicode="&#x3b5;" horiz-adv-x="960" d="M133 260q0 182 201 268q-78 59 -78 154q0 141 132 233.5t310 92.5q272 0 293 -193v-41q0 -133 -131 -133q-41 0 -67.5 41t-26.5 96l-37 23q-10 6 -47 6q-61 0 -105.5 -35t-44.5 -86q0 -88 166 -88h117l-41 -192h-96q-268 0 -268 -138q0 -33 47 -55.5t104 -22.5 q88 0 156.5 38t204.5 161l122 -127q-176 -180 -275 -234.5t-243 -54.5q-176 0 -284.5 77t-108.5 210z" />
<glyph unicode="&#x3b6;" horiz-adv-x="813" d="M176 -279q0 125 125 125q33 0 115 -53t123 -53q66 0 109.5 26.5t43.5 69.5l-391 262q-94 96 -94 260q0 395 563 893q-109 39 -195 39q-102 0 -174 -65l-161 45q86 242 299 241q80 0 260 -38q86 -18 119 -19q41 0 85 26.5t58 26.5q45 0 75.5 -33.5t30.5 -97.5 q0 -66 -61 -112q-270 -215 -448.5 -464t-178.5 -419q0 -92 58 -131q10 -6 301 -164q117 -78 116 -192q0 -150 -137 -256.5t-319 -106.5q-137 0 -229.5 53t-92.5 137z" />
<glyph unicode="&#x3b7;" horiz-adv-x="1208" d="M104 633q84 205 153 275.5t185 70.5q66 0 116 -41t65 -92q150 143 313 143q109 0 184.5 -65.5t75.5 -171.5q0 -37 -20 -131l-185 -877q2 -33 60 -70l-47 -153q-145 31 -209 89t-64 157q0 20 2 28l189 875q10 51 10 67q0 29 -35 29q-143 0 -266 -227q-61 -115 -92 -216.5 t-82 -361.5h-269l170 768q-43 -47 -82 -160z" />
<glyph unicode="&#x3b8;" horiz-adv-x="1038" d="M96 367q0 217 155 364.5t378 147.5q131 0 219 -66q8 57 8 121q0 268 -160 268h-16q-115 0 -115 -86q0 -35 33 -64.5t90 -29.5q25 0 55 6q2 -12 6.5 -42t6.5 -42q-43 -35 -144 -35q-162 0 -232.5 74t-70.5 176q0 117 121 184.5t301 67.5q174 0 271.5 -143.5t97.5 -384.5 q0 -106 -41 -318q-53 -268 -209 -424.5t-371 -156.5q-168 0 -275.5 107.5t-107.5 275.5zM362 367q0 -176 136 -177q102 0 188 96.5t86 215.5q0 33 -10 78q-29 115 -137 114q-113 0 -188 -96t-75 -231z" />
<glyph unicode="&#x3b9;" horiz-adv-x="573" d="M168 719q139 289 313 289q113 0 113 -113q0 -51 -14 -111l-123 -546q-8 -33 -8 -52v-2q33 12 135 140l127 -125q-145 -215 -301 -215q-86 0 -141.5 56t-55.5 142q0 53 14 111l88 379z" />
<glyph unicode="&#x3ba;" horiz-adv-x="1228" d="M111 739q152 291 356 291q150 0 149 -182q0 -37 -12 -100q221 246 475 245q231 0 232 -164q0 -55 -39 -93t-94 -38q-29 0 -86 29l-21 14q-20 12 -43.5 23.5t-36.5 11.5q-61 0 -162 -76l164 -405q43 -104 66 -105q41 0 151 136l150 -123q-182 -219 -340 -219 q-180 0 -266 213l-117 286q-125 -188 -197 -485h-262l170 795q-20 -27 -59 -103z" />
<glyph unicode="&#x3bb;" horiz-adv-x="1376" d="M-88 -227l33 147l20 -6q57 -4 64 -4q51 0 106 37t72 98l160 639q29 129 142.5 224.5t266.5 95.5q143 0 271 -107l14 57q16 63 16 119q0 100 -50 159.5t-140 59.5q-106 0 -180 -73q-51 -51 -84 -74t-48.5 -25t-56.5 -2q-51 0 -80.5 24.5t-29.5 65.5q0 109 150.5 187 t352.5 78q215 0 352.5 -91.5t137.5 -253.5q-4 -104 -41 -276l-195 -848h-323l170 746q-25 47 -107 47q-195 0 -239 -226l-138 -563q-68 -276 -391 -276q-143 0 -225 41z" />
<glyph unicode="&#x3bc;" horiz-adv-x="1624" d="M45 -512q102 416 168 778l143 799h332l-143 -799q-10 -51 38 -73.5t126 -22.5q111 0 198 92l146 803h331l-143 -799q-8 -39 11.5 -67.5t54.5 -28.5q33 0 56 28.5t32 67.5h196q-23 -121 -115 -207t-204 -86q-203 0 -305 103q-139 -102 -293 -103q-100 0 -180 15l-91 -500 h-358z" />
<glyph unicode="&#x3bd;" horiz-adv-x="1105" d="M166 717q154 293 354 293q125 0 125 -148q0 -27 -8 -90l-51 -436q-6 -51 -6 -100q0 -45 10 -50q98 0 229 177.5t131 287.5q0 20 -29.5 100t-29.5 101q0 137 131 137q78 0 127 -59.5t49 -153.5q0 -238 -207 -510q-223 -291 -461 -291q-102 0 -163.5 58.5t-61.5 154.5 q0 158 45 498l-8 -18z" />
<glyph unicode="&#x3be;" horiz-adv-x="948" d="M162 -276q0 125 125 124q33 0 114.5 -54t124.5 -54q66 0 112 30.5t46 77.5q0 10 -39 31l-252 127q-201 98 -200 356q0 184 94 329t260 214q-139 78 -139 217q0 123 81 207l-14 6q-139 59 -139 197q0 88 24.5 142.5t63.5 54.5q31 0 49 -39q104 -215 420 -215q43 0 122 13 t113 13q33 0 54.5 -34.5t21.5 -67.5q0 -66 -60.5 -107t-150.5 -41q-12 0 -104 4.5t-105 -2.5q-100 -12 -100 -125q0 -76 109 -110l202 -55q111 -41 111 -123q0 -59 -38 -99.5t-95 -40.5q-16 0 -95 33t-104 33q-127 0 -210 -105.5t-83 -259.5q0 -74 47 -128t116 -89l136 -68 q68 -34 115 -87.5t47 -122.5q0 -156 -137 -265.5t-322 -109.5q-137 0 -229 53.5t-92 139.5z" />
<glyph unicode="&#x3bf;" horiz-adv-x="1228" d="M121 399q0 70 17.5 149t64.5 173t118.5 169t192.5 125t272 50q240 0 369 -112.5t129 -321.5q0 -59 -17.5 -135t-64.5 -168t-118.5 -168t-193.5 -127t-274 -51q-229 0 -362 112t-133 305zM475 338q0 -84 41 -130t117 -46q90 0 156.5 71.5t96 172t42 174t12.5 110.5 q0 102 -39 148.5t-123 46.5q-88 0 -153.5 -71t-94 -173t-42 -179t-13.5 -124z" />
<glyph unicode="&#x3c0;" horiz-adv-x="1245" d="M127 815q131 184 395 184q111 0 361 -32q106 -14 174 -15q98 0 174 45l182 -92q-119 -113 -201 -141l-116 -21l-105 -456q-12 -53 -12 -78q0 -23 16 -23q53 0 193 152l149 -125q-207 -238 -370 -238q-106 0 -179 59.5t-73 160.5q0 51 12 104l104 451l-147 16l-182 -768 h-269l189 788q-39 -6 -109 -34z" />
<glyph unicode="&#x3c1;" horiz-adv-x="1302" d="M-10 -446l233 876q156 592 721 592q201 0 320.5 -99.5t119.5 -267.5q0 -68 -22 -153q-63 -240 -257 -383.5t-441 -143.5q-121 0 -230 39l-123 -460h-321zM571 358q0 -166 144 -165q127 0 222 138t95 304q0 25 -8 65q-25 102 -137 103q-135 0 -225.5 -144.5t-90.5 -300.5z " />
<glyph unicode="&#x3c2;" horiz-adv-x="983" d="M117 -279q0 125 127 125q20 0 113.5 -53t123.5 -53q145 0 146 92q0 25 -68 66q-240 135 -316.5 229t-76.5 235q0 258 171 442.5t425 184.5q147 0 244.5 -81t97.5 -208q0 -180 -148 -180q-57 0 -94 44t-37 102q0 6 2 30.5t2 28.5q0 55 -71 55q-123 0 -216 -127t-93 -280 q0 -72 48 -121t195 -125q117 -61 160 -114.5t43 -133.5q0 -145 -137 -247.5t-314 -102.5q-143 0 -235 53t-92 139z" />
<glyph unicode="&#x3c3;" horiz-adv-x="1148" d="M176 389q0 250 161 426t406 176q35 0 184.5 -10t182.5 -10q29 0 66 49l145 -43q-49 -190 -201 -221q41 -86 41 -201q0 -246 -165 -413t-406 -167q-184 0 -299 115t-115 299zM459 371q0 -197 141 -197q115 0 198 130t83 290q0 195 -140 194q-119 0 -200.5 -125.5 t-81.5 -291.5z" />
<glyph unicode="&#x3c4;" horiz-adv-x="798" d="M139 803q82 211 258 211q72 0 211 -33q55 -12 92 -12q41 0 82 43l154 -37q-78 -215 -256 -221l-18 -9l-101 -458q-10 -51 -10 -74q0 -27 16 -27q45 0 181 152l141 -123q-197 -240 -352 -240q-102 0 -170 59.5t-68 160.5q0 43 12 102l109 502q-29 4 -41 4q-23 0 -94 -37z " />
<glyph unicode="&#x3c5;" horiz-adv-x="1169" d="M166 717q154 289 340 289q137 0 137 -119q0 -57 -14 -115l-99 -424q-14 -57 -14 -115q0 -59 86 -59q197 0 270 320l109 475h268l-123 -525q-51 -221 -195.5 -345t-350.5 -124q-324 0 -324 244q0 104 45 291l37 158z" />
<glyph unicode="&#x3c6;" horiz-adv-x="1263" d="M156 367q0 227 116 391q106 147 260 189t482 42l-68 -219q-223 -16 -283.5 -31.5t-142.5 -85.5q-53 -45 -76.5 -137t-23.5 -168q0 -84 22.5 -111.5t89.5 -37.5q41 170 50 196q33 92 108.5 153.5t147 82t139.5 20.5q135 0 239.5 -74.5t104.5 -183.5l-2 -28 q-18 -166 -175 -280t-392 -140l-93 -391h-262l90 395q-331 56 -331 418zM797 199q137 12 199.5 66t62.5 122q0 49 -76 49q-131 0 -156 -106z" />
<glyph unicode="&#x3c7;" horiz-adv-x="1253" d="M-25 -313q0 68 46.5 115.5t111.5 47.5q12 -6 60 -6q29 0 57.5 33t89.5 135l178 293l-82 305q-31 115 -55.5 137.5t-165.5 55.5l41 147q147 14 272 45h107l94 -460q164 227 207 276q160 190 258 190q94 0 132 -40.5t38 -92.5q0 -72 -61.5 -121t-135.5 -49h-24l-8 2 q-68 0 -351 -409q27 -231 52.5 -332.5t60.5 -131.5t111 -30q25 0 137 72l82 -178q-174 -145 -334 -146q-168 0 -238 166q-27 61 -69 305l-103 -176q-106 -182 -187 -239.5t-177 -57.5q-66 0 -105 40.5t-39 103.5z" />
<glyph unicode="&#x3c8;" horiz-adv-x="1521" d="M147 721q156 297 375 297q131 0 131 -125q0 -25 -12 -82l-119 -545q-10 -43 -10 -69q4 -43 70 -43q25 0 43 8l229 977h281l-250 -965q182 37 299 365q45 131 112 438h271l-201 -635q-59 -190 -186 -283.5t-351 -107.5l-98 -404h-246l99 398h-19q-147 0 -230 64.5 t-83 170.5q0 53 14 113l92 416q-31 0 -45 -33z" />
<glyph unicode="&#x3c9;" horiz-adv-x="1468" d="M176 356q0 301 189.5 467t537.5 166l-45 -203q-135 0 -213 -41q-78 -43 -131 -166.5t-53 -259.5q0 -141 78 -141q109 0 159 230l41 186h271l-52 -207q-23 -94 -22 -162q0 -47 47 -47q96 0 167 136.5t71 295.5q0 104 -42 139t-208 42l45 198q254 0 372.5 -94t118.5 -289 q0 -274 -151.5 -452.5t-386.5 -178.5q-141 0 -205 99q-100 -98 -252 -99q-158 0 -247 101.5t-89 279.5z" />
<glyph unicode="&#x3d1;" horiz-adv-x="1230" d="M125 510l57 217q145 -12 172 -18l31 -7q127 -37 127 -165q0 -63 -5 -123t-10 -94.5t-5 -38.5q0 -98 106 -99q244 0 385 545q49 186 49 313q0 121 -37 165t-118 44q-98 0 -162 -76.5t-64 -189.5q0 -51 7.5 -77.5t41.5 -61.5q49 -53 209 -62l-59 -219q-205 0 -329 118 t-124 323q0 166 86 292q57 84 173 128t239 44q416 0 416 -460q0 -264 -99.5 -503t-271.5 -384.5t-371 -145.5q-162 0 -254 83t-92 245q0 23 10.5 109t10.5 90z" />
<glyph unicode="&#x3d5;" horiz-adv-x="1353" d="M88 295q0 88 29 199q61 233 224 362t402 129l43 172h254l-49 -174q166 0 265.5 -81t99.5 -236q0 -68 -27 -174q-70 -260 -227.5 -387.5t-423.5 -131.5l-127 -422h-236l134 424q-174 4 -267.5 86t-93.5 234zM344 356q0 -61 44 -97t128 -36l164 520q-147 -4 -211 -63 q-47 -43 -86 -147.5t-39 -176.5zM766 221q121 0 192 72q137 143 138 328q0 117 -170 120z" />
<glyph unicode="&#x3d6;" horiz-adv-x="1884" d="M209 881q113 94 252 133q205 55 420 55q74 0 362.5 -26.5t351.5 -26.5q90 0 191 31l39 12l262 -49q-61 -78 -254 -140q18 -29 28.5 -94t10.5 -102q0 -295 -170 -504t-449 -209q-176 0 -245 129q-135 -129 -301 -129q-209 0 -289 84t-80 266q0 170 41 278.5t153 252.5 q-18 -4 -83 -21zM682 303q0 -131 80 -131q61 0 98 60.5t82 256.5l51 222h318l-51 -222q-39 -168 -39 -223q0 -94 69 -94q98 0 176 223t78 406h-223q-184 0 -436 28q-203 -190 -203 -526z" />
<glyph unicode="&#x3f5;" horiz-adv-x="962" d="M193 496q37 156 133 270.5t227 169.5q106 45 199 45q100 0 183 -52t124 -136l-187 -205q-33 127 -73.5 176t-96.5 49q-72 0 -140 -64.5t-99 -158.5h323l-43 -193h-325q-18 -123 51 -192q63 -59 139 -60q131 0 310 185l94 -92q-217 -262 -432 -263q-172 0 -260.5 64.5 t-124.5 198.5q-33 123 -2 258z" />
<glyph unicode="&#x400;" horiz-adv-x="1474" d="M29 0l30 166l45 4q82 10 114 44t50 130l129 707q8 45 9 79q0 86 -109 95l-45 4l31 166h1196l112 -453l-143 -45q-152 332 -465 332q-133 0 -176 -43q-35 -29 -53 -139l-39 -207q33 -4 82 -4q113 0 153.5 37.5t75.5 173.5h145l-112 -619h-146q4 33 5 61q0 100 -48.5 135 t-187.5 33l-61 -338q-10 -57 -11 -75q0 -72 160 -72q182 0 322.5 77t330.5 283l136 -71l-232 -461h-1298zM838 1860q0 51 41 86.5t100 35.5q66 0 135 -67q88 -82 197 -225l-84 -91q-213 74 -277 111q-112 64 -112 150z" />
<glyph unicode="&#x401;" horiz-adv-x="1474" d="M29 0l30 166l45 4q82 10 114 44t50 130l129 707q8 45 9 79q0 86 -109 95l-45 4l31 166h1196l112 -453l-143 -45q-152 332 -465 332q-133 0 -176 -43q-35 -29 -53 -139l-39 -207q33 -4 82 -4q113 0 153.5 37.5t75.5 173.5h145l-112 -619h-146q4 33 5 61q0 100 -48.5 135 t-187.5 33l-61 -338q-10 -57 -11 -75q0 -72 160 -72q182 0 322.5 77t330.5 283l136 -71l-232 -461h-1298zM580 1638q0 76 59 135.5t135 59.5q59 0 96 -37t37 -96q0 -72 -62.5 -133.5t-133.5 -61.5q-57 0 -94 38t-37 95zM1049 1638q0 76 59 135.5t135 59.5q59 0 96 -37 t37 -96q0 -72 -62.5 -133.5t-133.5 -61.5q-57 0 -94 38t-37 95z" />
<glyph unicode="&#x402;" horiz-adv-x="1955" d="M143 977l207 418h1192l100 -445l-147 -32q-57 150 -153.5 225.5t-239.5 85.5l-88 -481q236 102 424 102q199 0 295 -88t77 -205l-106 -604q-20 -133 -100 -213t-273 -80h-190l33 186q23 0 54.5 7.5t70 34t44.5 67.5l107 594q4 33 -16.5 56.5t-54 33.5t-59.5 14t-40 4 q-49 0 -90 -8t-73 -22.5t-66.5 -34t-71.5 -43.5l-39 -205q-6 -43 -6 -80q0 -47 28.5 -68.5t98.5 -25.5l65 -4l-28 -166h-795l29 166l67 4q92 6 128 40t57 134l161 885q-160 -12 -260 -77t-221 -234z" />
<glyph unicode="&#x403;" horiz-adv-x="1351" d="M29 0l30 166l45 4q80 8 113 43t51 131l129 707q8 49 9 79q0 86 -109 95l-45 4l29 166h1171l111 -484l-142 -37q-98 193 -182 244q-121 96 -291 96q-106 0 -141 -29.5t-53 -137.5l-127 -703q-8 -66 -9 -80q0 -47 28 -68.5t93 -25.5l58 -4l-31 -166h-737zM762 1569 q109 143 196 225q70 68 136 68q59 0 100 -36t41 -87q0 -92 -137 -162q-63 -35 -252 -98z" />
<glyph unicode="&#x404;" horiz-adv-x="1470" d="M172 698q33 182 131 338t242 252q199 133 454 133q188 0 330 -73l25 47h141l86 -484l-168 -59q-78 195 -125 256q-115 145 -264 145q-141 0 -253 -108.5t-171 -300.5h131q123 0 164 33q14 10 25.5 29.5t20.5 43.5l20 55q10 30 20 64h160l-113 -637h-160q27 158 -20 199 q-27 25 -150 24h-141q-35 -276 90 -403q86 -90 217 -90q166 0 326 127q80 59 188 205l154 -86q-109 -197 -314.5 -316t-437.5 -119q-322 0 -492.5 204t-115.5 521z" />
<glyph unicode="&#x405;" horiz-adv-x="1433" d="M121 524l158 27q141 -397 520 -397q129 0 212 56t83 142q0 72 -54 119q-39 31 -131 53l-266 64q-201 49 -285 129q-109 98 -108 260q0 195 168 319.5t430 124.5q246 0 444 -114l43 88h129l17 -469h-156q-43 133 -119 200q-127 115 -313 115q-111 0 -185.5 -47t-74.5 -117 q0 -55 51 -94q29 -20 166 -57l258 -68q190 -49 274 -127q115 -104 115 -264q0 -207 -191.5 -350.5t-465.5 -143.5q-256 0 -449 119l-45 -92h-135z" />
<glyph unicode="&#x406;" horiz-adv-x="778" d="M29 0l30 166l45 4q80 10 112 44t52 130l129 707q6 49 6 79q0 86 -108 95l-43 4l29 166h712l-30 -166l-45 -4q-80 -10 -112 -44t-52 -130l-129 -707q-6 -43 -7 -82q0 -84 109 -92l43 -4l-31 -166h-710z" />
<glyph unicode="&#x407;" horiz-adv-x="778" d="M29 0l30 166l45 4q80 10 112 44t52 130l129 707q6 49 6 79q0 86 -108 95l-43 4l29 166h712l-30 -166l-45 -4q-80 -10 -112 -44t-52 -130l-129 -707q-6 -43 -7 -82q0 -84 107 -92l45 -4l-31 -166h-710zM283 1638q0 76 59 135.5t135 59.5q59 0 96 -37t37 -96 q0 -72 -62.5 -133.5t-133.5 -61.5q-57 0 -94 38t-37 95zM694 1638q0 76 59.5 135.5t135.5 59.5q59 0 96 -37t37 -96q0 -72 -62.5 -133.5t-134.5 -61.5q-57 0 -94 38t-37 95z" />
<glyph unicode="&#x408;" horiz-adv-x="1269" d="M16 336q0 113 70 191.5t170 78.5q72 0 120 -46t48 -114q0 -80 -72 -131q-31 -23 -38 -32t-7 -25q0 -41 53.5 -72.5t122.5 -31.5q137 0 219 112q45 61 80 248l99 537q6 49 6 82q0 86 -109 92l-69 4l30 166h738l-31 -166l-45 -4q-82 -10 -114 -44t-50 -130l-111 -600 q-25 -141 -45 -185q-63 -131 -224 -212t-361 -81q-215 0 -347.5 100.5t-132.5 262.5z" />
<glyph unicode="&#x409;" horiz-adv-x="2426" d="M70 178q10 66 55 109t104 43q104 0 121 -62q4 -35 13.5 -56.5t44.5 -21.5q82 0 189.5 258.5t156.5 548.5q23 125 4 171t-96 55l-50 6l29 166h1307l-25 -166l-47 -4q-78 -8 -110.5 -44t-53.5 -134l-41 -218h154q166 0 288.5 -22.5t190.5 -55t106.5 -83t50 -94.5t11.5 -99 q0 -92 -45 -183t-123 -157q-162 -135 -455 -135h-862l29 166l53 6q82 10 117 55t55 170l105 592q25 133 16.5 171t-59.5 38h-162q-39 0 -57.5 -14.5t-25.5 -40.5l-18 -68q-78 -307 -132 -459.5t-175 -398.5q-53 -111 -138 -178.5t-179 -67.5q-178 0 -271 53.5t-75 153.5z M1575 248q0 -76 158 -76q150 0 239 84q102 92 103 221q0 100 -59.5 141t-203.5 41h-172l-45 -247q-20 -146 -20 -164z" />
<glyph unicode="&#x40a;" horiz-adv-x="2336" d="M29 0l30 166l45 4q82 10 114 44t50 130l129 707q8 49 9 79q0 86 -109 95l-45 4l29 166h712l-28 -166l-47 -4q-80 -10 -112 -44t-52 -130l-37 -205h512l37 205q8 41 8 79q0 86 -109 95l-45 4l31 166h713l-31 -166l-47 -4q-78 -8 -111 -44t-53 -134l-41 -218h154 q166 0 288.5 -22.5t190 -55t106.5 -83t50.5 -94.5t11.5 -99q0 -92 -45 -183t-123 -157q-162 -135 -455 -135h-862l31 166l47 4q80 10 111.5 44t52.5 130l57 318h-512l-59 -318q-6 -49 -7 -82q0 -84 109 -92l45 -4l-31 -166h-712zM1485 248q0 -76 157 -76q150 0 240 84 q102 92 103 221q0 100 -59.5 141t-203.5 41h-172l-45 -247q-20 -146 -20 -164z" />
<glyph unicode="&#x40b;" horiz-adv-x="1955" d="M143 977l207 418h1192l100 -445l-147 -32q-57 150 -153.5 225.5t-239.5 85.5l-88 -481q236 102 424 102q199 0 297 -88t75 -205l-36 -213q-18 -98 2 -130t106 -42l39 -4l-29 -168h-718l28 168l43 4q88 10 120 42t50 130l35 205q6 33 -14.5 56.5t-54 33.5t-60.5 14t-41 4 q-49 0 -90 -8t-73 -22.5t-66.5 -34t-71.5 -43.5l-39 -205q-6 -43 -6 -80q0 -47 28.5 -68.5t98.5 -25.5l65 -4l-28 -166h-795l29 166l67 4q92 6 128 40t57 134l161 885q-160 -12 -260 -77t-221 -234z" />
<glyph unicode="&#x40c;" horiz-adv-x="1499" d="M29 0l28 164l54 6q82 10 116.5 55t55.5 170l106 602q23 125 3.5 171t-97.5 55l-49 6l28 166h709l-31 -172l-59 -6q-76 -8 -101.5 -50.5t-48.5 -175.5l-28 -170h164q96 0 160.5 88t127.5 262q41 113 131.5 183.5t188.5 70.5q123 0 169 -55t44 -160q0 -66 -45 -111.5 t-107 -47.5q-74 -2 -100.5 13t-34.5 48q-4 14 -4 45t-5 46.5t-26 15.5q-43 0 -61 -66q-84 -317 -281 -410q92 0 156.5 -44t92.5 -118.5t38 -139t10 -134.5q0 -51 2 -69.5t16.5 -33t47.5 -14.5q41 0 68.5 29t35.5 60l6 28l105 -20l-12 -33q-10 -33 -39 -80t-69 -94 t-105.5 -80t-141.5 -33q-264 0 -264 189q0 74 8 157.5t13.5 129.5t3.5 95.5t-19.5 73t-58.5 39t-113 15.5h-131l-45 -265q-25 -125 -14.5 -171t82.5 -54l59 -6l-31 -170h-708zM1425 1638q109 143 197 226q70 68 135 67q59 0 100 -35.5t41 -87.5q0 -92 -137 -161 q-63 -35 -252 -99z" />
<glyph unicode="&#x40d;" horiz-adv-x="1677" d="M29 0l28 168l43 4q88 10 120 42t50 130l123 707q18 98 -2 129.5t-106 42.5l-39 4l28 168h719l-28 -168l-43 -4q-88 -10 -120 -42t-50 -130l-86 -488l634 467l3 21q18 98 -2.5 129.5t-106.5 42.5l-39 4l29 168h719l-29 -168l-43 -4q-88 -10 -120 -42t-50 -130l-123 -707 q-18 -98 2.5 -130t106.5 -42l39 -4l-29 -168h-719l29 168l43 4q88 10 119.5 42t50.5 130l86 487l-635 -466l-2 -21q-18 -98 2 -130t106 -42l39 -4l-28 -168h-719zM727 1804q0 51 41 87t100 36q66 0 136 -67q88 -82 196 -226l-84 -90q-213 74 -276 111q-113 63 -113 149z" />
<glyph unicode="&#x40e;" horiz-adv-x="1384" d="M147 131q0 72 55.5 116t119.5 44q90 0 112 -68q2 -6 4 -16q14 -45 41 -45q51 0 108.5 48t88.5 95l31 47l-283 789q-18 41 -43 59.5t-56 22.5l-81 10l28 162h697l-29 -164q-76 -10 -131 -32.5t-43 -55.5q2 -6 5 -20.5t5 -20.5l150 -451l233 338q70 98 78 156 q4 39 -34 55.5t-136 34.5l27 160h612l-29 -166q-53 -8 -77.5 -14.5t-63.5 -28t-78 -64.5t-88 -114l-479 -693q-160 -203 -265.5 -273.5t-277.5 -70.5q-88 0 -144.5 45t-56.5 115zM721 1831h149q20 -66 62.5 -91.5t128.5 -25.5q84 0 130 26.5t75 90.5h149q-18 -86 -38.5 -129 t-59.5 -78q-86 -80 -264 -80q-162 0 -238 65.5t-94 221.5z" />
<glyph unicode="&#x40f;" horiz-adv-x="1638" d="M29 0l30 166l45 4q80 8 113 43t51 131l129 707q8 45 9 79q0 86 -109 95l-45 4l31 166h712l-30 -166l-47 -4q-80 -8 -112 -42t-52 -132l-160 -867h512l162 867q6 49 6 82q0 84 -109 92l-45 4l31 166h713l-31 -166l-45 -4q-80 -8 -113 -43t-51 -131l-129 -707 q-8 -49 -8 -80q0 -86 108 -94l45 -4l-28 -166h-631l-59 -315h-299l59 315h-653z" />
<glyph unicode="&#x410;" horiz-adv-x="1474" d="M-55 0l30 166q102 25 160 66.5t103 129.5l21 37q13 23 17 31l570 965h309l238 -1030q29 -115 43 -136q16 -27 32.5 -34t81.5 -23l25 -6l-31 -166h-721l31 166l29 4l39 4q66 10 91 24.5t25 45.5q0 27 -14 94l-33 158h-454l-95 -179q-33 -63 -32 -86q0 -47 118 -61l39 -4 l-30 -166h-592zM625 655h336l-84 447z" />
<glyph unicode="&#x411;" horiz-adv-x="1497" d="M29 0l30 166l45 4q80 8 113 43t51 131l129 707q8 49 9 79q0 86 -109 95l-45 4l29 166h1171l111 -484l-142 -37q-68 150 -182 244q-121 96 -291 96q-106 0 -141 -29.5t-53 -137.5l-35 -193l55 8q55 8 92 8q174 0 300 -24.5t191.5 -59t102.5 -91t45 -98.5t8 -101 q0 -94 -46 -195.5t-121 -165.5q-162 -135 -455 -135h-862zM616 248q0 -76 158 -76q150 0 240 84q102 92 102 242q0 102 -60.5 152t-201.5 50l-166 -16l-51 -272q-21 -146 -21 -164z" />
<glyph unicode="&#x412;" horiz-adv-x="1474" d="M29 0l30 166l45 4q82 10 114 44t50 130l129 707q8 49 9 79q0 86 -109 95l-45 4l29 166h772q272 0 372 -56q63 -35 99.5 -98t36.5 -139q0 -137 -103.5 -234.5t-267.5 -117.5q145 -4 234 -80t89 -195q0 -92 -45 -183t-122 -157q-162 -135 -455 -135h-862zM616 248 q0 -76 158 -76q150 0 240 84q102 92 102 221q0 100 -59.5 141t-202.5 41h-172l-45 -247q-21 -146 -21 -164zM713 829h127q174 0 266 58.5t92 171.5q0 170 -246 170q-94 0 -137 -23q-35 -16 -57 -131z" />
<glyph unicode="&#x413;" horiz-adv-x="1351" d="M29 0l30 166l45 4q80 8 113 43t51 131l129 707q8 49 9 79q0 86 -109 95l-45 4l29 166h1142l111 -484l-141 -37q-98 193 -183 244q-121 96 -270 96q-104 0 -136 -28.5t-50 -138.5l-127 -703q-8 -66 -9 -80q0 -47 28 -68.5t93 -25.5l58 -4l-31 -166h-737z" />
<glyph unicode="&#x414;" horiz-adv-x="1736" d="M0 -262l145 436q39 0 72 1t59.5 2t50 6t43 12.5t37 20.5t33 32.5t29.5 46.5q72 129 109.5 220t64.5 197l72 283q23 125 3 170t-97 56l-52 6l31 168h1298l-30 -168l-51 -6q-82 -10 -117 -55.5t-55 -170.5l-107 -608q-25 -139 5 -178t140 -35l-34 -436h-131q2 76 0 126 t-26 80.5t-74 43t-144 12.5h-778q-123 0 -171.5 -18.5t-86.5 -79.5l-111 -178zM697.5 209.5q7.5 -21.5 52.5 -21.5h346q47 0 61 28t41 179l105 594q23 133 15.5 171t-58.5 38h-183q-33 0 -49 -26.5t-35 -96.5l-59 -238q-20 -85 -47 -163t-59.5 -151.5t-96.5 -205.5 q-41 -86 -33.5 -107.5z" />
<glyph unicode="&#x415;" horiz-adv-x="1474" d="M29 0l30 166l45 4q82 10 114 44t50 130l129 707q8 45 9 79q0 86 -109 95l-45 4l31 166h1196l112 -453l-143 -45q-152 332 -465 332q-133 0 -176 -43q-35 -29 -53 -139l-39 -207q33 -4 82 -4q113 0 153.5 37.5t75.5 173.5h145l-112 -619h-146q4 33 5 61q0 100 -48.5 135 t-187.5 33l-61 -338q-10 -57 -11 -75q0 -72 160 -72q182 0 322.5 77t330.5 283l136 -71l-232 -461h-1298z" />
<glyph unicode="&#x416;" horiz-adv-x="2185" d="M102 274v13l109 20q-2 0 -2 -26q0 -90 70 -91q20 0 35.5 6.5t25.5 18.5t19.5 26.5t14.5 31t13 34.5q14 39 36 85l43 92q22 46 53.5 90t67.5 79t85 59.5t106 30.5q-94 53 -94 193q0 31 9 104.5t9 112.5q0 37 -7 51.5t-29 14.5q-20 0 -31.5 -15.5t-21 -45.5t-19.5 -46 q-14 -23 -26.5 -34t-44 -19t-85.5 -8q-82 0 -82 98q0 117 71 196.5t204 79.5q98 0 163.5 -71.5t65.5 -182.5q0 -37 -2 -96t-2 -86.5t4 -66.5t15.5 -56.5t33 -31t56.5 -13.5h163l33 180q14 78 15 111q0 57 -26 81t-85 30l-49 6l28 166h709l-31 -172l-59 -6 q-74 -8 -99.5 -50.5t-50.5 -175.5l-28 -170h164q41 0 69.5 14.5t51 53.5t34 67.5t35 102.5t37.5 112q39 111 130 182.5t189 71.5q106 0 150.5 -41t44.5 -120q0 -90 -34 -151.5t-111.5 -61.5t-102 24.5t-24.5 77.5v24q0 11 -2 21t-9.5 15.5t-19.5 5.5q-43 0 -62 -66 q-27 -92 -43 -169t-59 -141.5t-117 -99.5q47 -6 84 -24.5t60.5 -46t41 -63.5t25.5 -73.5t14.5 -78.5t6.5 -78t4 -72q2 -31 3 -56.5t15.5 -43t46.5 -17.5q41 0 69 30t36 59l6 28l104 -20l-12 -33q-10 -33 -38.5 -80t-68.5 -94t-105.5 -80t-141.5 -33q-135 0 -191.5 49.5 t-72.5 139.5q-20 123 -23.5 264t-24 180t-44 51.5t-74.5 14.5h-70l-45 -265q-18 -111 -18 -139q0 -43 19.5 -62.5t66.5 -23.5l59 -6l-31 -170h-708l28 164l54 6q82 10 117.5 53t56.5 168l45 275h-70q-51 -2 -78.5 -14.5t-60.5 -51.5q-37 -41 -90 -182.5t-117 -261.5 q-45 -90 -120 -139.5t-210 -49.5q-82 0 -138 38t-77.5 96.5t-29 97t-7.5 75.5z" />
<glyph unicode="&#x417;" horiz-adv-x="1359" d="M113 412l178 84l24 -58q12 -29 16.5 -39t13.5 -24.5t26 -32.5q158 -170 360 -170q141 0 220 71.5t79 205.5q0 195 -229 194h-291l41 234l295 2h4q113 0 163 58t50 138q0 57 -57.5 102.5t-145.5 45.5t-182 -38t-164 -102q-57 -51 -156 -159l-137 55l209 416h123l12 -66 q154 92 344 92q207 0 332 -102t125 -268q0 -162 -102 -285q100 -74 100 -225q0 -242 -207 -405t-465 -163q-231 0 -374.5 124.5t-204.5 314.5z" />
<glyph unicode="&#x418;" horiz-adv-x="1677" d="M29 0l28 168l43 4q88 10 120 42t50 130l123 707q18 98 -2 129.5t-106 42.5l-39 4l28 168h719l-28 -168l-43 -4q-88 -10 -120 -42t-50 -130l-86 -488l634 467l3 21q18 98 -2.5 129.5t-106.5 42.5l-39 4l29 168h719l-29 -168l-43 -4q-88 -10 -120 -42t-50 -130l-123 -707 q-18 -98 2.5 -130t106.5 -42l39 -4l-29 -168h-719l29 168l43 4q88 10 119.5 42t50.5 130l86 487l-635 -466l-2 -21q-18 -98 2 -130t106 -42l39 -4l-28 -168h-719z" />
<glyph unicode="&#x419;" horiz-adv-x="1646" d="M29 0l28 168l43 4q88 10 120 42t50 130l123 707q18 98 -2 129.5t-106 42.5l-39 4l28 168h719l-28 -168l-43 -4q-88 -10 -120 -42t-50 -130l-86 -488l604 467l2 21q18 98 -2.5 129.5t-106.5 42.5l-39 4l29 168h719l-29 -168l-43 -4q-88 -10 -119.5 -42t-50.5 -130 l-123 -707q-18 -98 2.5 -130t106.5 -42l39 -4l-29 -168h-719l29 168l43 4q88 10 119.5 42t50.5 130l86 487l-604 -466l-2 -21q-18 -98 2 -130t106 -42l39 -4l-28 -168h-719zM764 1798h149q20 -66 62.5 -90.5t128.5 -24.5q84 0 131 26t74 89h149q-18 -86 -38.5 -129 t-59.5 -78q-86 -80 -264 -80q-162 0 -238 65.5t-94 221.5z" />
</font>
</defs>
</svg>
