<?xml version="1.0" standalone="no"?>
<!DOCTYPE svg PUBLIC "-//W3C//DTD SVG 1.1//EN" "http://www.w3.org/Graphics/SVG/1.1/DTD/svg11.dtd" >
<svg xmlns="http://www.w3.org/2000/svg">
<metadata>
This is a custom SVG webfont generated by Font Squirrel.
Copyright   : Copyright URW copyright 1999 by URW Design  Development Cyrillic glyphs added by Valek Filippov copyright 20012002 Vietnamese characters were added by Han The Thanh copyright 2006 2008 for TeX Gyre extensions by B Jackowski and JM Nowacki on behalf of TeX users groups This work is released under the GUST Font License   see httptugorgfontslicensesGUSTFONTLICENSEtxt for details
</metadata>
<defs>
<font id="webfontDsaTEp0A" horiz-adv-x="1269" >
<font-face units-per-em="2048" ascent="1614" descent="-434" />
<missing-glyph horiz-adv-x="614" />
<glyph unicode="IJ" horiz-adv-x="1906" d="M82 0l10 59l35 4q82 12 119 54.5t55 144.5l158 871q10 72 10 77q0 106 -113 121l-32 4l12 60h547l-11 -60l-34 -4q-82 -12 -119 -54t-55 -144l-158 -871q-8 -39 -8 -78q0 -106 110 -121l33 -4l-12 -59h-547zM709 326q0 102 52 170.5t128 68.5q43 0 70.5 -24.5t27.5 -63.5 q0 -57 -76 -125q-45 -39 -45 -94q0 -78 73 -133t179 -55q72 0 131.5 20.5t98 48t72.5 74.5t50.5 80t32 86t19.5 70.5t10 54.5l115 629q2 6 8 81q0 53 -25.5 81t-93.5 36l-31 4l11 60h561l-11 -60l-34 -4q-86 -10 -124 -52t-57 -146l-110 -611q-10 -57 -17.5 -89t-28 -97.5 t-46 -106.5t-71.5 -95t-103.5 -85t-143.5 -53.5t-190 -22.5q-193 0 -312.5 97.5t-119.5 255.5z" />
<glyph unicode="ij" horiz-adv-x="1099" d="M227 -309q0 41 32 68.5t81 27.5q72 0 123 -82q29 -49 52.5 -65.5t59.5 -16.5q45 0 82 16.5t64 56.5t44 71.5t33.5 99t22.5 99.5l21 108l123 667q2 14 2 39q0 47 -27 70.5t-94 36.5l-23 4l11 59q147 12 286 45h78l-170 -932l-14 -75.5t-23.5 -87t-40 -102.5t-62.5 -91 t-91 -84t-126 -52.5t-167 -23.5q-117 0 -197 42.5t-80 101.5zM244 891l10 59q145 12 287 45h77l-133 -733q-4 -37 -4 -53q0 -53 30 -87t79 -34q59 0 145 88l47 -43q-139 -152 -295 -151q-90 0 -143 56t-53 152q0 39 6 72l86 471q4 18 4 51q0 45 -27.5 69t-91.5 34zM455 1274 q0 57 44 99t103 42q43 0 71.5 -28.5t28.5 -73.5q0 -57 -46 -101.5t-105 -44.5q-43 0 -69.5 30t-26.5 77zM1034 1274q0 57 44 99t104 42q43 0 71.5 -28.5t28.5 -73.5q0 -57 -46 -101.5t-106 -44.5q-43 0 -69.5 30t-26.5 77z" />
<glyph unicode="fk" horiz-adv-x="2109" d="M-326 -266q0 35 26 56.5t71 21.5q66 0 135 -80q68 -76 137 -76q72 0 121 44t71.5 117.5t43 168t34.5 194.5l138 750h-183l13 65h180q35 223 117 326q141 170 432 170q188 0 360 -27l-190 -1052q84 133 137 201.5t127 136.5q274 264 514 264q55 0 89 -26.5t34 -67.5 q0 -51 -38 -88t-89 -37q-39 0 -89 29.5t-73 29.5q-49 0 -122 -40t-105 -85q18 -217 102 -418q86 -207 231 -207q61 0 117 31l35 -47q-139 -106 -264 -106q-201 0 -297 237q-35 92 -92 363q-141 -150 -197.5 -262.5t-95.5 -319.5h-189l215 1182l15 100q0 70 -47 105.5 t-166 35.5q-203 0 -246 -227l-37 -201h211l-12 -65h-209l-141 -774q0 -6 -2 -17l-18.5 -89t-22 -91t-34 -96t-46 -86t-65.5 -80t-86 -60.5t-113.5 -43t-143.5 -13.5q-121 0 -207 45.5t-86 108.5z" />
<glyph unicode="&#xfb00;" horiz-adv-x="1597" d="M-328 -270q0 35 27 59.5t65 24.5q41 0 69 -17.5t75 -72.5q61 -74 133 -74q119 0 173 124t89 398l137 758h-184l12 65h181q31 186 79 275q59 102 165 161.5t231 59.5q94 0 155.5 -35t61.5 -88q0 -35 -28 -59.5t-66 -24.5q-63 0 -103 70q-25 41 -44 55t-52 14 q-47 0 -81 -22.5t-51.5 -67.5t-24.5 -71.5t-15 -75.5l-35 -191h451q31 186 79 275q59 102 165 161.5t231 59.5q94 0 155.5 -35t61.5 -88q0 -35 -27.5 -59.5t-66.5 -24.5q-63 0 -103 70q-25 41 -44 55t-52 14q-47 0 -81 -22.5t-51.5 -67.5t-24.5 -71.5t-15 -75.5l-35 -191 h207l-12 -65h-207l-144 -789l-20 -103q-8 -40 -28.5 -106.5t-44 -108.5t-64.5 -93.5t-90.5 -81t-121 -50t-159.5 -20.5q-113 0 -191.5 37t-91.5 96q-137 -133 -360 -133q-121 0 -203 43t-82 109zM393 -186h15q41 0 68.5 -17.5t74.5 -72.5q61 -74 133 -74q45 0 78 14t59.5 54 t42 72t32.5 109.5t25 122.5l25 150l137 758h-454l-144 -789q-47 -249 -92 -327z" />
<glyph unicode="&#xfb01;" horiz-adv-x="1310" d="M-326 -266q0 33 30 56.5t71 23.5q63 0 139 -84q66 -74 135 -74q55 0 95 26.5t68 85t44 121t35 162.5l160 879h-181l13 65h178q25 137 39 185.5t45 99.5q59 100 164.5 155.5t232.5 55.5q150 0 265.5 -70.5t115.5 -163.5q0 -37 -26.5 -61.5t-67.5 -24.5q-45 0 -66.5 21.5 t-44.5 95.5q-43 135 -196 135q-61 0 -106.5 -22.5t-72 -64.5t-40 -83t-23.5 -96l-31 -162h637l-127 -698q-10 -47 -10 -94q0 -43 30.5 -74t73.5 -31q68 0 160 76l39 -41q-145 -152 -299 -151q-86 0 -140.5 54t-54.5 142q0 35 7 84l77 426q10 66 15 127q0 63 -35 89t-129 26 h-254l-162 -887q-86 -463 -506 -463q-113 0 -205 47.5t-92 106.5z" />
<glyph unicode="&#xfb02;" horiz-adv-x="1351" d="M-326 -266q0 35 26 56.5t71 21.5q66 0 135 -80q68 -76 137 -76q72 0 121 44t71.5 117.5t43 168t34.5 194.5l138 750h-183l13 65h180q35 223 117 326q141 170 432 170q123 0 360 -33l-207 -1143q-14 -78 -14 -108q0 -41 30.5 -72t71.5 -31q80 0 162 72l47 -41 q-147 -154 -307 -153q-82 0 -138.5 58t-56.5 142q0 39 11 101l168 923q8 53 8 76q0 70 -47 105.5t-166 35.5q-203 0 -246 -227l-37 -201h211l-12 -65h-209l-141 -774q0 -6 -2 -17l-18.5 -89t-22 -91t-34 -96t-46 -86t-65.5 -80t-86 -60.5t-113.5 -43t-143.5 -13.5 q-121 0 -207 45.5t-86 108.5z" />
<glyph unicode="&#xfb03;" horiz-adv-x="1980" d="M-328 -270q0 35 27 59.5t65 24.5q41 0 69 -17.5t75 -72.5q61 -74 133 -74q102 0 157.5 127t104.5 395l137 758h-184l12 65h181q31 186 79 275q59 102 165 161.5t231 59.5q94 0 155.5 -35t61.5 -88q0 -35 -28 -59.5t-66 -24.5q-63 0 -103 70q-25 41 -44 55t-52 14 q-47 0 -81 -22.5t-51.5 -67.5t-24.5 -71.5t-15 -75.5l-35 -191h463q25 137 39 185.5t45 99.5q59 100 164.5 155.5t232.5 55.5q150 0 265.5 -70.5t115.5 -163.5q0 -37 -26.5 -61.5t-67.5 -24.5q-53 0 -84 43q-8 12 -27 74q-43 135 -196 135q-57 0 -99.5 -17t-65 -37.5 t-40 -66t-22.5 -68t-15 -77.5l-31 -162h637l-127 -698q-10 -47 -10 -94q0 -43 30.5 -74t73.5 -31q68 0 160 76l39 -41q-145 -152 -299 -151q-86 0 -140 54t-54 142q0 35 6 84l78 426q14 90 14 135q0 59 -36 83t-128 24h-254l-162 -887q-86 -463 -506 -463q-102 0 -190 40 t-105 93q-131 -135 -362 -135q-121 0 -203 43t-82 109zM391 -188q8 2 27 2q63 0 139 -84q66 -74 135 -74q55 0 96 26.5t68 85t44.5 122t33.5 161.5l160 879h-465l-144 -789q-47 -247 -94 -329z" />
<glyph unicode="&#xfb04;" horiz-adv-x="1988" d="M-328 -270q0 35 27 59.5t65 24.5q41 0 69 -17.5t75 -72.5q61 -74 133 -74q55 0 96 33.5t72 111.5t50.5 159t43.5 218l137 758h-184l12 65h181q31 186 79 275q59 102 165 161.5t231 59.5q94 0 155.5 -35t61.5 -88q0 -35 -28 -59.5t-66 -24.5q-63 0 -103 70q-25 41 -44 55 t-52 14q-47 0 -81 -22.5t-51.5 -67.5t-24.5 -71.5t-15 -75.5l-35 -191h463q35 223 117 326q141 170 432 170q123 0 360 -33l-207 -1143q-14 -78 -14 -108q0 -41 30.5 -72t71.5 -31q80 0 162 72l47 -41q-147 -154 -307 -153q-82 0 -138 58t-56 142q0 39 10 101l168 923 q8 53 8 76q0 70 -47 105.5t-166 35.5q-203 0 -246 -227l-37 -201h211l-12 -65h-209l-141 -774q-12 -72 -20.5 -109t-29 -108.5t-43 -111.5t-62.5 -94.5t-90 -82t-123 -49t-163 -21.5q-113 0 -194.5 38t-96.5 95q-131 -135 -362 -135q-121 0 -203 43t-82 109zM391 -190 q6 2 23 2q66 0 135 -80q68 -76 137 -76q72 0 121 44t71.5 117.5t43 168t34.5 194.5l138 750h-465l-144 -789q-45 -243 -94 -331z" />
<glyph unicode=" "  horiz-adv-x="614" />
<glyph unicode="&#x09;" horiz-adv-x="614" />
<glyph unicode="&#xa0;" horiz-adv-x="614" />
<glyph unicode="!" horiz-adv-x="655" d="M211 84q0 66 48 116t112 50q51 0 83.5 -33t32.5 -86q0 -61 -50 -109.5t-115 -48.5q-49 0 -80 31t-31 80zM352 369q43 242 43 573q0 272 43 375.5t144 103.5q119 0 118 -127q0 -61 -23.5 -141t-103.5 -285q-102 -268 -145 -499h-76z" />
<glyph unicode="&#x22;" horiz-adv-x="737" d="M219 946l117 381q16 55 37.5 74.5t62.5 19.5q39 0 62.5 -18.5t23.5 -46.5q0 -27 -37 -88l-194 -322h-72zM520 946l117 381q16 55 37.5 74.5t62.5 19.5q39 0 62.5 -18.5t23.5 -46.5q0 -27 -37 -88l-194 -322h-72z" />
<glyph unicode="#" d="M219 442v117h244l39 270h-223v117h241l62 418h116l-61 -418h272l62 418h116l-61 -418h199v-117h-215l-39 -270h194v-117h-213l-63 -442h-119l66 442h-273l-63 -442h-119l65 442h-227zM582 559h270l39 270h-270z" />
<glyph unicode="$" d="M160 344q0 68 39 111t100 43q43 0 72.5 -28t29.5 -69q0 -37 -19.5 -74.5t-19.5 -54.5q0 -12 9.5 -29.5t32 -40t72.5 -41t120 -24.5l90 488q-88 18 -151.5 38.5t-124 56.5t-92 94t-31.5 136q0 168 146.5 276.5t383.5 127.5l39 207h86l-39 -211q117 -16 196 -53 t112.5 -82.5t45 -77t11.5 -60.5q0 -55 -36 -95t-87 -40q-39 0 -68.5 26.5t-29.5 59.5q0 20 15 56t15 53q0 29 -45 71.5t-143 61.5l-84 -463q49 -6 124 -27.5t144.5 -49.5t118.5 -89t49 -147q0 -170 -166 -298t-407 -145l-41 -225h-86l41 225q-168 10 -295 88t-127 205z M477 1014q0 -70 52.5 -111t191.5 -82l82 453q-141 -4 -233.5 -77.5t-92.5 -182.5zM684 139q92 10 163 37t106.5 57.5t58 68.5t27.5 62.5t5 47.5q0 39 -16 69.5t-36.5 49t-56.5 33t-59.5 20.5t-61.5 13t-46 9z" />
<glyph unicode="%" horiz-adv-x="1638" d="M115 872q0 76 25.5 163t74.5 174t139 144.5t201 57.5q131 0 208 -91t77 -247q0 -221 -126 -375.5t-306 -154.5q-133 0 -213 89.5t-80 239.5zM258 825q0 -100 41 -157.5t111 -57.5q82 0 141 55.5t89 141.5t43 167t13 154q0 104 -40 159.5t-113 55.5q-80 0 -139.5 -61 t-89 -152.5t-43 -169.5t-13.5 -135zM453 0l766 1395h106l-766 -1395h-106zM936 315q0 76 25.5 163t75.5 173t139.5 143.5t199.5 57.5q131 0 208 -91t77 -247q0 -221 -126 -375.5t-306 -154.5q-133 0 -213 89.5t-80 241.5zM1079 266q0 -100 41 -157.5t111 -57.5 q82 0 141.5 55.5t89 141.5t43 167t13.5 154q0 102 -40 158.5t-114 56.5q-80 0 -139.5 -61t-89 -152.5t-43 -169.5t-13.5 -135z" />
<glyph unicode="&#x26;" horiz-adv-x="1679" d="M133 346q0 162 125 296t330 192q-86 98 -86 227q0 147 121.5 253.5t289.5 106.5q109 0 183.5 -62.5t74.5 -154.5q0 -117 -89 -214t-246 -156q223 -225 340 -486q57 55 102 131t45 119q0 23 -22.5 36t-48 19t-48 31t-22.5 70q0 53 46 99t99 46q63 0 104.5 -45t41.5 -115 q0 -80 -62.5 -201.5t-196.5 -267.5q66 -121 117 -166t125 -45q45 0 74 16.5t29 43.5q0 16 -32 40.5t-32 76t38 88t89 36.5q47 0 81 -36.5t34 -87.5q0 -109 -100.5 -186t-243.5 -77q-100 0 -174 37t-148 123q-217 -160 -448 -160q-211 0 -350.5 105.5t-139.5 267.5zM342 358 q0 -139 81 -219t224 -80q205 0 387 138q-55 139 -165.5 299.5t-227.5 271.5q-125 -16 -212 -137t-87 -273zM684 1122q0 -117 96 -227q248 119 248 315q0 61 -38 98.5t-101 37.5q-86 0 -145.5 -65t-59.5 -159z" />
<glyph unicode="'" horiz-adv-x="409" d="M203 946l116 381q16 55 38 74.5t63 19.5q39 0 62.5 -18.5t23.5 -46.5q0 -27 -37 -88l-195 -322h-71z" />
<glyph unicode="(" horiz-adv-x="573" d="M186 166q0 129 39 357.5t92 418.5q66 236 175.5 364t281.5 158l-10 -59q-84 -43 -135 -114.5t-99 -217.5q-63 -193 -119.5 -508t-56.5 -481q0 -186 121 -266l-12 -64q-127 33 -202 143.5t-75 268.5z" />
<glyph unicode=")" horiz-adv-x="573" d="M0 -246l10 60q84 43 135.5 114.5t98.5 216.5q63 193 119.5 508.5t56.5 479.5q0 186 -121 268l12 63q127 -33 202 -143.5t75 -269.5q0 -129 -39 -356.5t-92 -418.5q-66 -238 -174.5 -364.5t-282.5 -157.5z" />
<glyph unicode="*" horiz-adv-x="901" d="M285 895q0 80 129 106l155 29l13 41l-148 23q-98 18 -98 75q0 43 38 82t79 39q39 0 82 -61l79 -115l41 16l-30 144l-4 51q0 45 31.5 75t78.5 30q37 0 58.5 -18.5t21.5 -47.5q0 -31 -31 -90l-75 -144l28 -24l119 121q61 61 109 61q29 0 51 -26.5t22 -61.5q0 -84 -129 -108 l-155 -29l-13 -41l148 -23q98 -18 98 -75q0 -43 -38 -82t-79 -39q-43 0 -82 61l-79 115l-41 -16l30 -144l4 -51q0 -45 -31.5 -74.5t-78.5 -29.5q-80 0 -80 65q0 33 31 90l75 144l-28 24l-119 -121q-61 -61 -111 -61q-29 0 -50 27.5t-21 62.5z" />
<glyph unicode="+" horiz-adv-x="1228" d="M184 432v160h453v452h160v-452h452v-160h-452v-452h-160v452h-453z" />
<glyph unicode="," horiz-adv-x="614" d="M180 -199q152 84 189 215q-37 -35 -84 -34q-35 0 -58.5 28.5t-23.5 69.5q0 61 45 105t108 44q47 0 78 -36.5t31 -94.5q0 -102 -74 -195t-192 -139z" />
<glyph unicode="-" horiz-adv-x="655" d="M160 475l53 109h475l-57 -109h-471z" />
<glyph unicode="." horiz-adv-x="614" d="M197 84q0 66 48 116t111 50q51 0 84 -33t33 -86q0 -61 -50 -109.5t-116 -48.5q-49 0 -79.5 31t-30.5 80z" />
<glyph unicode="/" horiz-adv-x="1228" d="M213 -248l778 1712h160l-780 -1712h-158z" />
<glyph unicode="0" d="M176 516q0 154 50 312.5t137.5 291.5t222.5 218t291 85q205 0 325.5 -150.5t120.5 -406.5q0 -233 -88 -437t-249 -330t-359 -126q-205 0 -328 148.5t-123 394.5zM385 436q0 -170 66.5 -268t181.5 -98q135 0 235.5 96t150.5 245.5t72.5 290t22.5 269.5q0 176 -64.5 271 t-185.5 95q-135 0 -235.5 -107.5t-149.5 -266t-71.5 -294t-22.5 -233.5z" />
<glyph unicode="1" d="M315 0l11 59q94 6 150 19.5t84 43.5t36 52.5t16 73.5l156 858q4 12 4 43q0 63 -37 85.5t-141 22.5h-49l10 58q213 33 377 80h82l-207 -1135q-8 -49 -8 -88q0 -53 37.5 -77.5t132.5 -31.5l55 -4l-10 -59h-699z" />
<glyph unicode="2" d="M135 0l27 145q201 117 295 180.5t194 147.5q426 350 426 635q0 96 -72.5 156.5t-187.5 60.5q-125 0 -224 -62.5t-99 -140.5q0 -31 17 -61.5t17 -56.5q0 -49 -37.5 -84t-93.5 -35q-47 0 -79.5 32.5t-32.5 83.5q0 137 143 267q174 154 428 153q199 0 323 -89t124 -228 q0 -147 -104.5 -297t-328.5 -320q-117 -90 -188.5 -135t-325.5 -188h498q115 0 182.5 49t145.5 193l69 -27l-161 -379h-955z" />
<glyph unicode="3" d="M113 246q0 68 46 121t105 53q41 0 68.5 -26.5t27.5 -65.5q0 -25 -21.5 -62t-21.5 -61q0 -66 72 -106t189 -40q98 0 177 29t125 73t76.5 102.5t42 109.5t11.5 102q0 129 -74 189.5t-234 60.5q-66 0 -137 -10l15 90q29 -4 59 -4q182 0 299 87t117 238q0 102 -61.5 155.5 t-178.5 53.5q-121 0 -210 -49t-89 -115q0 -12 8 -40.5t8 -49.5q0 -45 -36.5 -76.5t-89.5 -31.5q-47 0 -78 26.5t-31 67.5q0 121 154.5 237.5t388.5 116.5q98 0 189 -22.5t168 -93t77 -181.5q0 -39 -12.5 -77.5t-46 -94t-117.5 -104.5t-209 -80q51 -8 86 -15.5t87 -29t85 -51 t57.5 -81.5t24.5 -122q0 -211 -193.5 -353.5t-480.5 -142.5q-195 0 -318.5 77t-123.5 196z" />
<glyph unicode="4" d="M141 463l838 932h192l-163 -906h290l-49 -108h-262l-24 -139q-4 -29 -5 -41q0 -59 29 -97t84 -41l68 -4l-11 -59h-598l11 59l51 4q152 8 182 199l21 119h-633zM283 489h532l133 738z" />
<glyph unicode="5" d="M143 238q0 63 45 114t101 51q41 0 68.5 -26.5t27.5 -65.5q0 -20 -16.5 -71.5t-16.5 -67.5q0 -57 71 -85t146 -28q193 0 325 144.5t132 355.5q0 131 -76 208t-202 77q-203 0 -367 -203l-102 33l149 721h829l-55 -164h-696l-98 -438q197 158 411 157q195 0 313.5 -100 t118.5 -266q0 -254 -199.5 -432.5t-484.5 -178.5q-184 0 -304 75t-120 190z" />
<glyph unicode="6" d="M182 471q0 233 95.5 449.5t275.5 358.5t403 142q156 0 273 -69.5t117 -163.5q0 -49 -38 -87t-85 -38t-78 29.5t-31 74.5l12 68q0 37 -58 63.5t-138 26.5q-84 0 -156 -31.5t-120 -78t-89 -116t-63.5 -124.5t-42 -127t-24.5 -100l-11 -66q174 211 434 211q188 0 302 -101.5 t114 -269.5q0 -223 -188.5 -386t-444.5 -163q-213 0 -336 133.5t-123 364.5zM391 332q0 -121 72 -191.5t196 -70.5q170 0 283 131t113 323q0 119 -70 190.5t-186 71.5q-137 0 -233.5 -76.5t-135.5 -176t-39 -201.5z" />
<glyph unicode="7" d="M293 1044l129 351h948l6 -99q-307 -311 -503.5 -653t-239.5 -643h-268q45 170 147 360.5t215 339t219.5 272.5t175.5 191l70 68h-424q-96 0 -229 -46t-179 -141h-67z" />
<glyph unicode="8" d="M125 328q0 150 108.5 256t307.5 153q-113 49 -160 107.5t-47 146.5q0 178 166 304t397 126q197 0 320.5 -84t123.5 -217q0 -137 -104 -215t-276 -119q63 -27 90.5 -40t78 -43.5t73 -59.5t42 -76t19.5 -104q0 -207 -184.5 -348.5t-452.5 -141.5q-225 0 -363.5 97.5 t-138.5 257.5zM293 317q0 -119 92 -188.5t248 -69.5q174 0 298 95.5t124 228.5q0 41 -12.5 75t-33 57.5t-49 45t-63.5 35.5l-73 30q-38 15 -79 29q-12 6 -49 20l-59 21q-152 -39 -248 -143.5t-96 -235.5zM553 1065q0 -76 62.5 -124t240.5 -114q145 29 231.5 112t86.5 196 q0 98 -70 154.5t-191 56.5q-150 0 -255 -82t-105 -199z" />
<glyph unicode="9" d="M158 211q0 49 34.5 86t82 37t79 -35t31.5 -86q0 -10 -4 -32.5t-4 -28.5q0 -37 58.5 -65t137.5 -28q197 0 328 172t191 502q-104 -119 -209 -171t-242 -52q-182 0 -298 101.5t-116 258.5q0 217 192.5 384t444.5 167q211 0 338 -126t127 -337q0 -88 -17.5 -187t-53 -213 t-98 -216t-145.5 -185t-203 -133.5t-261 -50.5q-158 0 -275.5 72t-117.5 166zM436 858q0 -113 74 -182.5t190 -69.5q188 0 304 144.5t116 322.5q0 121 -72.5 191.5t-197.5 70.5q-131 0 -229.5 -77.5t-141.5 -184t-43 -215.5z" />
<glyph unicode=":" horiz-adv-x="614" d="M197 84q0 66 48 116t111 50q51 0 84 -33t33 -86q0 -61 -50 -109.5t-116 -48.5q-49 0 -79.5 31t-30.5 80zM322 856q0 66 48 116t111 50q51 0 84 -33t33 -86q0 -61 -50 -109.5t-116 -48.5q-49 0 -79.5 31t-30.5 80z" />
<glyph unicode=";" horiz-adv-x="614" d="M180 -199q152 84 189 215q-37 -35 -84 -34q-35 0 -58.5 28.5t-23.5 69.5q0 61 45 105t108 44q47 0 78 -36.5t31 -94.5q0 -102 -74 -195t-192 -139zM322 856q0 66 48 116t111 50q51 0 84 -33t33 -86q0 -61 -50 -109.5t-116 -48.5q-49 0 -79.5 31t-30.5 80z" />
<glyph unicode="&#x3c;" horiz-adv-x="1228" d="M227 442v140l940 532v-184l-739 -418l739 -418v-184z" />
<glyph unicode="=" horiz-adv-x="1228" d="M184 258v160h1065v-160h-1065zM184 606v160h1065v-160h-1065z" />
<glyph unicode="&#x3e;" horiz-adv-x="1228" d="M227 -90v184l740 418l-740 418v184l940 -532v-140z" />
<glyph unicode="?" horiz-adv-x="1105" d="M233 1069q0 137 162 244.5t369 107.5q211 0 342 -88t131 -231q0 -137 -93 -249t-263 -165q-154 -45 -216.5 -114.5t-80.5 -211.5h-92q23 182 66.5 247t215.5 167q143 84 193.5 164t50.5 193q0 100 -69.5 156.5t-192.5 56.5q-131 0 -222.5 -51.5t-91.5 -125.5 q0 -18 10.5 -46.5t10.5 -41.5q0 -45 -39 -79.5t-86 -34.5t-76 28.5t-29 73.5zM360 84q0 68 49.5 118t114.5 50q51 0 83 -33t32 -86q0 -63 -50 -111.5t-116 -48.5q-51 0 -82 31t-31 80z" />
<glyph unicode="@" horiz-adv-x="1597" d="M209 700q0 305 218 519.5t529 214.5q285 0 485.5 -178.5t200.5 -428.5q0 -209 -143 -354t-285 -145q-59 0 -102 50t-43 122v22q-141 -195 -321 -194q-123 0 -199 82t-76 213q0 205 137.5 357.5t321.5 152.5q143 0 231 -95l15 80h147l-96 -520q-10 -57 -10 -86 q0 -35 21.5 -58.5t51.5 -23.5q82 0 167 117t85 264q0 217 -174 371.5t-420 154.5q-262 0 -450.5 -185t-188.5 -443q0 -264 187.5 -451.5t451.5 -187.5q51 0 110.5 9t147.5 37.5t173 97.5t145 171h94q-45 -100 -116.5 -178t-144.5 -121t-156 -69.5t-141 -35t-112 -8.5 q-309 0 -525 212t-216 515zM623 584q0 -82 41 -131.5t108 -49.5q63 0 133 44.5t115 113.5q76 117 131 410q-80 86 -186 86q-152 0 -247 -153.5t-95 -319.5z" />
<glyph unicode="A" horiz-adv-x="1433" d="M-51 0l10 59l27 4q96 23 147 74t148 221l583 1037h197l217 -1076q31 -152 59.5 -193.5t112.5 -62.5l25 -4l-11 -59h-555l11 59l24 4q80 12 109.5 42t29.5 79q0 37 -10 95l-45 239h-524l-109 -196q-53 -98 -53 -156q0 -80 129 -103l25 -4l-11 -59h-536zM551 600h467 l-129 625z" />
<glyph unicode="B" horiz-adv-x="1474" d="M43 0l10 59l35 4q84 10 122 52.5t58 146.5l158 871q10 41 10 69q0 115 -119 129l-32 4l12 60h743q229 0 358.5 -63.5t129.5 -221.5q0 -29 -5 -58.5t-26.5 -76.5t-57.5 -86t-106.5 -76t-165.5 -55q31 -6 55.5 -12.5t76 -28t86 -50t62.5 -82t28 -120.5q0 -465 -707 -465 h-725zM465 199q0 -66 53 -91.5t174 -25.5q557 0 557 399q0 131 -91 179.5t-337 48.5h-266l-84 -461q-6 -26 -6 -49zM567 784h262q150 0 253.5 30t151.5 80t66.5 97t18.5 101q0 115 -96.5 169t-300.5 54q-152 0 -210.5 -31t-74.5 -119z" />
<glyph unicode="C" horiz-adv-x="1474" d="M180 563q0 350 245 604t585 254q111 0 193.5 -29.5t174.5 -101.5l62 105h88v-486h-78q-74 223 -173 319.5t-253 96.5q-260 0 -442.5 -244.5t-182.5 -562.5v-4q0 -205 119 -324.5t320 -119.5q174 0 323.5 90t251.5 256l84 -41q-100 -190 -291.5 -296t-414.5 -106 q-274 0 -442.5 162t-168.5 428z" />
<glyph unicode="D" horiz-adv-x="1515" d="M43 0l10 59l35 4q84 10 122 52.5t58 146.5l158 871q10 41 10 69q0 115 -119 129l-32 4l12 60h670q147 0 260.5 -33t182.5 -85t114 -128t61.5 -153.5t16.5 -168.5q0 -92 -21.5 -192t-81 -217t-149.5 -207t-243 -150.5t-343 -60.5h-721zM463 180q0 -57 46 -78.5t159 -21.5 q164 0 293 54t205.5 136t128 189.5t69.5 204t18 188.5q0 215 -120.5 337t-335.5 122q-154 0 -213.5 -29t-73.5 -111l-172 -946q-4 -16 -4 -45z" />
<glyph unicode="E" horiz-adv-x="1392" d="M43 0l10 59l35 4q84 10 123 52.5t57 146.5l158 871q10 41 10 69q0 115 -119 129l-32 4l12 60h1133l77 -404l-86 -20q-96 193 -218 264.5t-310 71.5q-104 0 -160.5 -22.5t-72 -51.5t-25.5 -86l-68 -369h158q117 0 174 51.5t102 196.5h66l-106 -588h-66q2 14 2 41 q0 209 -176 209h-170l-82 -452q-4 -25 -4 -35q0 -61 48 -87t163 -26q250 0 457 135q117 76 249 223l66 -26l-203 -420h-1202z" />
<glyph unicode="F" d="M43 0l10 59l35 4q84 10 122 52.5t58 146.5l158 871q10 41 10 69q0 115 -119 129l-32 4l12 60h1133l92 -406l-78 -24q-84 178 -211 260t-320 82q-170 0 -218 -38t-72 -182l-58 -319h166q78 0 128 17.5t81 61.5t43 74.5t33 102.5h67l-108 -594h-66q1 18 1 35.5t-1 34.5 q-2 33 -5 61.5t-16.5 51t-35 39t-59 25.5t-88.5 9h-154l-78 -424q-8 -41 -8 -82q0 -53 28.5 -80.5t106.5 -36.5l43 -4l-10 -59h-590z" />
<glyph unicode="G" horiz-adv-x="1556" d="M180 563q0 354 232.5 606t558.5 252q246 0 381 -125l51 99h61l43 -439h-63q-188 369 -463 369q-170 0 -307 -126t-206 -306t-69 -365q0 -106 27 -189t69 -132t96 -81t104 -44t100 -12q193 0 327.5 115.5t134.5 279.5q0 59 -31.5 90t-105.5 45l-22 4l10 60h557l-10 -60 l-29 -4q-74 -10 -115 -58t-57 -141l-74 -401h-110l-33 152q-88 -82 -221 -130.5t-275 -48.5q-248 0 -404.5 164t-156.5 426z" />
<glyph unicode="H" horiz-adv-x="1638" d="M43 0l10 59l35 4q84 10 122 52.5t58 146.5l158 871q10 41 10 69q0 115 -119 129l-32 4l12 60h586l-13 -60l-57 -4q-86 -10 -125 -52t-57 -146l-62 -340h758l62 340q10 47 10 79q0 109 -121 119l-55 4l10 60h586l-11 -60l-34 -4q-84 -10 -122 -52t-59 -146l-157 -871 q-10 -41 -11 -72q0 -113 119 -127l33 -4l-12 -59h-586l12 59l58 4q86 10 124.5 52.5t57.5 146.5l80 449h-756l-82 -449q-8 -39 -8 -80q0 -111 119 -119l55 -4l-10 -59h-586z" />
<glyph unicode="I" horiz-adv-x="655" d="M43 0l10 59l35 4q82 12 119 54.5t55 144.5l158 871q10 72 10 77q0 106 -113 121l-32 4l12 60h547l-10 -60l-35 -4q-82 -12 -119 -54t-55 -144l-158 -871q-8 -39 -8 -78q0 -106 110 -121l33 -4l-12 -59h-547z" />
<glyph unicode="J" horiz-adv-x="1146" d="M-4 326q0 102 52 170.5t128 68.5q43 0 70.5 -24.5t27.5 -63.5q0 -57 -75 -125q-45 -39 -45 -94q0 -78 72.5 -133t179.5 -55q72 0 131 20.5t98 48t72.5 74.5t50 80t32 86t19.5 70.5t10 54.5l115 629q2 6 8 81q0 53 -25.5 81t-93.5 36l-30 4l10 60h561l-10 -60l-35 -4 q-86 -10 -124 -52t-56 -146l-111 -611q-10 -57 -17 -89t-27.5 -97.5t-46.5 -106.5t-72 -95t-103 -85t-143.5 -53.5t-190.5 -22.5q-193 0 -312.5 97.5t-119.5 255.5z" />
<glyph unicode="K" horiz-adv-x="1474" d="M43 0l10 59l35 4q84 10 122 52.5t58 146.5l158 871q10 41 10 69q0 115 -119 129l-32 4l12 60h575l-10 -60l-49 -4q-86 -10 -125 -52t-57 -146l-80 -445l600 475q57 47 57 92q0 59 -104 76l-25 4l11 60h557l-11 -60q-139 -35 -364 -205l-332 -249l363 -621 q59 -100 105 -139t138 -62l-12 -59h-594l10 59l33 4q129 18 129 76q0 25 -18 62l-314 559l-252 -193l-55 -305q-8 -39 -8 -80q0 -111 119 -119l47 -4l-10 -59h-578z" />
<glyph unicode="L" horiz-adv-x="1187" d="M43 0l10 59l35 4q84 10 122 52.5t58 146.5l158 871q10 41 10 69q0 115 -119 129l-32 4l12 60h561l-12 -60l-33 -4q-86 -10 -125 -52t-57 -146l-154 -848q-14 -76 -14 -109q0 -51 33.5 -73.5t128.5 -22.5q227 0 438 156q98 72 221 221l59 -29l-198 -428h-1102z" />
<glyph unicode="M" horiz-adv-x="1761" d="M37 0l10 59l35 4q84 10 122 52.5t58 146.5l158 871q10 41 10 69q0 115 -119 129l-32 4l12 60h457l172 -1076l598 1076h440l-10 -60l-35 -4q-84 -10 -122 -52t-58 -146l-158 -871q-10 -41 -10 -72q0 -113 118 -127l33 -4l-12 -59h-561l12 59l33 4q86 10 125 52.5t57 146.5 l178 991l-698 -1253h-88l-205 1270l-182 -1008q-8 -43 -8 -84q0 -53 25.5 -79.5t92.5 -35.5l31 -4l-10 -59h-469z" />
<glyph unicode="N" horiz-adv-x="1474" d="M37 0l10 59l35 4q84 10 122 52.5t58 146.5l158 871q10 41 10 69q0 115 -119 129l-32 4l12 60h446l453 -1129l158 867q6 43 6 73q0 61 -27 88t-90 37l-31 4l11 60h469l-11 -60l-35 -4q-84 -10 -122.5 -52t-57.5 -146l-207 -1133h-176l-518 1274l-184 -1012q-8 -43 -8 -84 q0 -53 25.5 -79.5t92.5 -35.5l31 -4l-10 -59h-469z" />
<glyph unicode="O" horiz-adv-x="1556" d="M180 567q0 156 60.5 307.5t169 273.5t275.5 197.5t364 75.5q260 0 423.5 -164.5t163.5 -425.5q0 -221 -108.5 -416.5t-308 -318.5t-443.5 -123q-266 0 -431 165t-165 429zM406 510q0 -201 103 -320.5t275 -119.5q150 0 273 77.5t198.5 200.5t115.5 267.5t40 287.5 q0 188 -106.5 305t-278.5 117q-186 0 -332.5 -129t-217 -312.5t-70.5 -373.5z" />
<glyph unicode="P" horiz-adv-x="1228" d="M43 0l10 59l35 4q84 10 122 52.5t58 146.5l158 871q10 41 10 69q0 115 -119 129l-32 4l12 60h625q229 0 351 -71t122 -263q0 -117 -40 -204t-101.5 -136t-154.5 -80t-180.5 -40t-195.5 -9h-191l-59 -330q-10 -68 -10 -74q0 -119 121 -125l59 -4l-10 -59h-590zM547 668 h190q141 0 239.5 41t142.5 107.5t60.5 124.5t16.5 120q0 248 -305 248q-225 0 -254 -144z" />
<glyph unicode="Q" horiz-adv-x="1597" d="M125 -121q0 45 39 80t92 35q43 0 73.5 -25.5t30.5 -60.5q0 -14 -5 -39t-5 -35q0 -51 107.5 -90t247.5 -39q240 0 376 95.5t136 197.5q0 18 -23 68q-193 -92 -395 -93q-283 0 -459 159t-176 413q0 162 62.5 318.5t172 280.5t276.5 200.5t361 76.5q289 0 458 -158.5 t169 -431.5q0 -199 -87 -375.5t-243 -295.5q51 -66 51 -152q0 -170 -190 -284.5t-475 -114.5q-227 0 -410.5 79.5t-183.5 190.5zM383 485q0 -100 30.5 -188t104.5 -157.5t182 -88.5q-51 45 -51 99q0 84 86 137t217 53q145 0 277 -76q82 86 133 229.5t63.5 239.5t12.5 168 q0 70 -18.5 137.5t-60.5 135t-125 109.5t-196 42q-166 0 -298 -86t-206.5 -218t-112.5 -271.5t-38 -264.5zM737 111q0 -27 32 -44.5t85 -17.5q150 0 266 96q-90 55 -213 56q-76 0 -123 -24.5t-47 -65.5z" />
<glyph unicode="R" horiz-adv-x="1433" d="M43 0l10 59l35 4q84 10 122 52.5t58 146.5l158 871q10 41 10 69q0 115 -119 129l-32 4l12 60h756q444 0 444 -303q0 -39 -8 -81t-36 -98.5t-74 -102.5t-133 -86t-202 -56l246 -435q49 -88 85 -116.5t132 -57.5l-10 -59h-336l-346 668h-268l-74 -406q-2 -12 -8 -78 q0 -111 119 -121l59 -4l-10 -59h-590zM561 743h256q461 0 461 344q0 125 -91 173.5t-257 48.5q-156 0 -216.5 -29t-74.5 -111z" />
<glyph unicode="S" horiz-adv-x="1310" d="M125 506h80q59 -207 192 -321.5t318 -114.5q174 0 299 100t125 240q0 41 -17.5 71.5t-39 50t-77 41t-94.5 31.5l-131 35q-233 59 -338 113q-76 39 -119.5 106.5t-43.5 147.5q0 174 162.5 294.5t400.5 120.5q193 0 358 -102l39 76h66l63 -400h-72q-72 150 -127 207 q-127 133 -321 133q-143 0 -246.5 -79.5t-103.5 -190.5q0 -113 168 -168q55 -18 383 -109q164 -45 236.5 -118.5t72.5 -196.5q0 -207 -188.5 -353.5t-452.5 -146.5q-244 0 -416 129l-57 -102h-74z" />
<glyph unicode="T" horiz-adv-x="1228" d="M102 995l172 400h1160l51 -404h-66q-27 63 -54.5 109.5t-73.5 98.5t-112.5 81t-150.5 29q-53 0 -71.5 -17.5t-28.5 -74.5l-172 -955q-10 -41 -11 -69q0 -117 127 -130l62 -4l-10 -59h-635l10 59l61 4q88 8 129 50.5t62 148.5l174 965q2 10 2 26q0 55 -78 56 q-260 0 -477 -314h-70z" />
<glyph unicode="U" horiz-adv-x="1474" d="M242 297q0 45 16 147l125 689q10 47 10 71q0 113 -119 127l-32 4l10 60h561l-10 -60l-33 -4q-86 -10 -124 -52t-58 -146l-115 -629q-12 -70 -12 -174q0 -127 87 -193.5t249 -66.5q66 0 123 11t98 26.5t78 47.5l59 52q23 20 43.5 64t30.5 63.5t21.5 68t13.5 58.5t10 55 l112 617q2 6 9 81q0 53 -27 81t-92 36l-31 4l10 60h469l-10 -60l-35 -4q-84 -10 -121.5 -52t-58.5 -146l-117 -644q-12 -61 -22 -103t-32.5 -100.5t-51.5 -98.5t-78 -84t-111.5 -69.5t-153.5 -43t-204 -17.5q-143 0 -246.5 34t-151.5 87t-68.5 103.5t-20.5 99.5z" />
<glyph unicode="V" horiz-adv-x="1392" d="M178 1335l10 60h557l-10 -60l-41 -4q-127 -14 -127 -129q0 -35 8 -69l179 -914l520 918q29 49 29 94q0 88 -123 100l-37 4l12 60h514l-10 -60l-27 -4q-80 -12 -134 -56t-109 -138l-656 -1137h-125l-256 1178q-16 78 -47 109.5t-100 43.5z" />
<glyph unicode="W" horiz-adv-x="1966" d="M178 1335l10 60h531l-10 -60l-31 -4q-66 -8 -91.5 -36.5t-25.5 -80.5q0 -35 4 -55l131 -901l398 809q-18 131 -52 185.5t-112 78.5l-21 4l11 60h524l-10 -60l-33 -4q-63 -8 -87 -35.5t-24 -74.5q0 -4 10 -86l123 -877l402 809q63 127 63 176q0 68 -119 88l-28 4l10 60 h492l-11 -60l-24 -4q-76 -10 -129.5 -56t-102.5 -140l-583 -1135h-133l-136 905l-456 -905h-129l-183 1106q-20 129 -46.5 165t-112.5 60z" />
<glyph unicode="X" horiz-adv-x="1433" d="M-51 0l10 59q115 37 208 99.5t208 183.5l354 373l-264 465q-33 68 -78 102.5t-115 48.5l-20 4l10 60h592l-12 -60l-29 -4q-123 -16 -123 -98q0 -27 17 -55l196 -347l266 289q74 78 74 144q0 61 -72 67l-43 4l11 60h530l-10 -60l-37 -4q-133 -6 -328 -215l-346 -366 l297 -510q49 -84 89 -118t120 -54l37 -9l-12 -59h-635l10 59l33 4q147 18 147 97q0 31 -35 94l-219 379l-356 -375q-53 -57 -53 -111q0 -33 24.5 -56t69.5 -28l35 -4l-11 -59h-540z" />
<glyph unicode="Y" horiz-adv-x="1351" d="M178 1335l10 60h553l-10 -60l-22 -4q-131 -25 -131 -100q0 -23 16 -55l223 -482l404 484q29 35 28 71q0 63 -104 82l-25 4l13 60h524l-10 -60q-111 -14 -182.5 -63t-186.5 -182l-420 -482l-63 -346q-8 -39 -9 -78q0 -57 29 -86.5t96 -34.5l62 -4l-10 -59h-635l10 59l61 4 q90 8 130 50.5t61 148.5l57 313l-299 629q-27 59 -54.5 82t-94.5 43z" />
<glyph unicode="Z" horiz-adv-x="1187" d="M16 72l1110 1214q-102 20 -206 21q-201 0 -340.5 -71t-284.5 -249l-62 27l177 381h989l24 -80l-1106 -1215q109 -10 209 -10q299 0 486 105q72 41 125 90t123 143l57 -31l-176 -397h-1092z" />
<glyph unicode="[" horiz-adv-x="532" d="M104 -248l312 1712h293l-13 -63h-28q-76 0 -98.5 -23.5t-39.5 -117.5l-237 -1303q-12 -68 -12 -84q0 -57 104 -57h25l-13 -64h-293z" />
<glyph unicode="\" horiz-adv-x="1228" d="M172 1468h160l778 -1468h-158z" />
<glyph unicode="]" horiz-adv-x="532" d="M25 -246l12 64h29q74 0 96 23.5t39 117.5l237 1301q12 74 13 86q0 33 -27 44t-100 11l12 63h291l-312 -1710h-290z" />
<glyph unicode="^" horiz-adv-x="1228" d="M199 651l428 828h172l428 -828h-183l-331 631l-332 -631h-182z" />
<glyph unicode="_" horiz-adv-x="1024" d="M0 -195h1024v-122h-1024v122z" />
<glyph unicode="`" horiz-adv-x="696" d="M399 1356q14 35 49 61.5t70 26.5q63 -2 131 -111l92 -139l-47 -59l-198 92q-124 55 -97 129z" />
<glyph unicode="a" d="M145 360q0 262 176.5 458t413.5 196q186 0 297 -123l19 104h188l-121 -667q-14 -74 -14 -113q0 -45 31.5 -78t76.5 -33q82 0 148 80l45 -43q-45 -68 -132 -113.5t-167 -45.5q-55 0 -97 25.5t-61.5 63.5t-29 69.5t-9.5 56.5q0 18 2 32q-182 -248 -413 -247 q-158 0 -255.5 104t-97.5 274zM344 309q0 -102 52.5 -166.5t138.5 -64.5q84 0 171 56t144 147q55 88 91 198.5t75 325.5q-102 113 -235.5 113t-238 -102.5t-151.5 -239t-47 -267.5z" />
<glyph unicode="b" horiz-adv-x="1228" d="M180 0l215 1182q4 37 4 47q0 49 -26.5 71.5t-102.5 32.5l-30 4l10 60q176 18 301 67h84l-131 -725q70 127 183.5 201t240.5 74q156 0 250 -104.5t94 -276.5q0 -258 -171 -454.5t-394 -196.5q-94 0 -179.5 37.5t-136.5 101.5l-80 -121h-131zM406 197q12 -27 78.5 -73 t162.5 -46q127 0 227.5 100.5t149.5 238.5t49 275q0 100 -49 163t-129 63q-121 0 -224.5 -91.5t-168.5 -255.5q-47 -116 -96 -374z" />
<glyph unicode="c" horiz-adv-x="983" d="M133 389q0 248 187.5 436.5t433.5 188.5q133 0 224 -63.5t91 -157.5q0 -53 -34 -89t-85 -36q-35 0 -56.5 19.5t-21.5 49.5q0 4 3.5 24.5t3.5 39.5q0 59 -43 98t-111 39q-109 0 -200 -97.5t-137 -228.5t-46 -252q0 -125 72.5 -203.5t189.5 -78.5q164 0 363 166l45 -51 q-82 -94 -212 -152.5t-255 -58.5q-182 0 -297 113.5t-115 293.5z" />
<glyph unicode="d" horiz-adv-x="1310" d="M133 367q0 262 176 454.5t418 192.5q178 0 313 -127l54 295q4 37 4 47q0 49 -27 71.5t-102 32.5l-33 4l12 60q176 18 301 67h84l-209 -1126q-18 -72 -18 -141q0 -49 29.5 -79t81.5 -30q39 0 72.5 18.5t86.5 71.5l47 -43q-137 -154 -309 -153q-84 0 -142.5 54t-58.5 130 q0 31 11 84q-12 -20 -31 -46t-59.5 -68t-87 -73.5t-116 -56t-143.5 -24.5q-160 0 -257 105.5t-97 279.5zM340 317q0 -109 53 -169t148 -60q182 0 319 203q51 78 82 168t64 252l16 86q-106 121 -250 121q-102 0 -188 -58.5t-137.5 -148.5t-79 -194t-27.5 -200z" />
<glyph unicode="e" horiz-adv-x="1105" d="M133 365q0 256 214 452.5t495 196.5q145 0 240.5 -63.5t95.5 -157.5q0 -299 -811 -347q-10 -39 -11 -73q0 -268 283 -269q92 0 174 28t213 101l53 -55q-256 -197 -504 -196q-190 0 -316 109.5t-126 273.5zM381 522h27q133 0 259 28t219 91.5t93 149.5q0 66 -50 106.5 t-130 40.5q-41 0 -86 -13.5t-107.5 -51t-123 -129t-101.5 -222.5z" />
<glyph unicode="f" horiz-adv-x="696" d="M-328 -270q0 35 27 59.5t65 24.5q41 0 69 -17.5t75 -72.5q61 -74 133 -74q45 0 80 25.5t60.5 65.5t48 112.5t38 141t35.5 177.5l137 758h-184l12 65h181q31 186 79 275q59 102 165 161.5t231 59.5q94 0 155.5 -35t61.5 -88q0 -35 -28 -59.5t-66 -24.5q-63 0 -103 70 q-25 41 -44 55t-52 14q-47 0 -81 -22.5t-51.5 -67.5t-24.5 -71.5t-15 -75.5l-35 -191h207l-12 -65h-207l-144 -789q-14 -84 -31.5 -147.5t-56.5 -147.5t-92 -137t-143 -92t-205 -39q-121 0 -203 43t-82 109z" />
<glyph unicode="g" horiz-adv-x="1146" d="M8 -283q0 41 35 71t82 30q74 0 106 -66q39 -78 85 -103.5t112 -25.5q143 0 254 111.5t143 290.5l39 217q-70 -121 -178 -190.5t-227 -69.5q-152 0 -245 104t-93 276q0 264 170 458t401 194q174 0 285 -129l47 110h166l-166 -909q-98 -539 -635 -539q-152 0 -266.5 51 t-114.5 119zM319 309q0 -109 48.5 -170t132.5 -61q86 0 172 61.5t145 163.5q51 88 77 177t69 319l-19 20q-18 23 -32.5 34t-43 28.5t-64.5 27t-79 9.5q-119 0 -215 -101.5t-143.5 -239t-47.5 -268.5z" />
<glyph unicode="h" d="M180 0l215 1182q4 37 4 47q0 49 -26.5 71.5t-102.5 32.5l-30 4l10 60q176 18 301 67h84l-113 -620q147 96 239.5 133t194.5 37q109 0 178.5 -51.5t69.5 -133.5q0 -45 -20 -163l-64 -353q-8 -43 -14 -116q0 -47 31.5 -78t81.5 -31q66 0 149 82l43 -45q-131 -143 -297 -143 q-84 0 -141.5 57t-57.5 141q0 47 13 115l76 416q10 57 10 82q0 55 -38 90t-97 35q-160 0 -375 -173l-135 -745h-189z" />
<glyph unicode="i" horiz-adv-x="573" d="M180 891l10 59q145 12 287 45h78l-133 -733q-4 -37 -4 -53q0 -53 29.5 -87t78.5 -34q59 0 146 88l47 -43q-139 -152 -295 -151q-90 0 -143.5 56t-53.5 152q0 39 6 72l86 471q4 18 5 51q0 45 -28 69t-91 34zM391 1274q0 57 44 99t104 42q43 0 71.5 -28.5t28.5 -73.5 q0 -57 -46 -101.5t-106 -44.5q-43 0 -69.5 30t-26.5 77z" />
<glyph unicode="j" horiz-adv-x="573" d="M-410 -309q0 41 32 68.5t81 27.5q72 0 123 -82q29 -49 52.5 -65.5t60.5 -16.5q45 0 81.5 16.5t63.5 56.5t44 71.5t33.5 99t22.5 99.5l21 108l123 667q2 14 2 39q0 47 -27 70.5t-94 36.5l-23 4l11 59q147 12 286 45h78l-170 -932l-14 -75.5t-23.5 -87t-40 -102.5 t-62.5 -91t-91 -84t-126 -52.5t-167 -23.5q-117 0 -197 42.5t-80 101.5zM397 1274q0 57 44 99t104 42q43 0 71.5 -28.5t28.5 -73.5q0 -57 -46 -101.5t-105 -44.5q-43 0 -70 30t-27 77z" />
<glyph unicode="k" horiz-adv-x="1228" d="M180 0l215 1182q4 37 4 49q0 45 -26.5 68.5t-100.5 33.5l-32 4l10 60q176 18 301 67h84l-191 -1052q84 133 137.5 201.5t127.5 136.5q274 264 514 264q55 0 89 -26.5t34 -67.5q0 -51 -38 -88t-89 -37q-41 0 -99 34q-41 25 -63 25q-49 0 -122 -40t-106 -85 q18 -217 103 -418q86 -207 231 -207q61 0 117 31l35 -47q-139 -106 -264 -106q-201 0 -297 237q-35 92 -92 363q-141 -150 -197.5 -262.5t-95.5 -319.5h-189z" />
<glyph unicode="l" horiz-adv-x="573" d="M205 174q0 47 16 139l158 869q4 37 4 49q0 47 -26.5 69.5t-102.5 32.5l-31 4l10 60q176 18 302 67h83l-204 -1128q-18 -98 -19 -129q0 -47 32 -78t81 -31q61 0 145 76l47 -43q-131 -150 -307 -149q-80 0 -134 55t-54 137z" />
<glyph unicode="m" horiz-adv-x="1802" d="M180 891l10 59q145 12 287 45h78l-18 -108q199 127 362 127q201 0 250 -148q193 147 385 148q121 0 188.5 -52.5t67.5 -144.5q-2 -6 -4 -43t-8 -67l-72 -375q-14 -96 -14 -137q0 -49 26.5 -78t71.5 -29q59 0 123 62l37 -52q-113 -117 -260 -116q-82 0 -135.5 56 t-53.5 146q0 45 12 115l72 391q12 63 12 98q0 59 -38.5 94.5t-106.5 35.5q-127 0 -297 -125l-143 -793h-189l121 664q12 66 12 116q0 68 -30.5 103t-104.5 35q-139 0 -303 -125l-143 -793h-189l133 733q4 37 5 51q0 43 -25 66.5t-94 36.5z" />
<glyph unicode="n" d="M180 891l10 59q145 12 287 45h78l-27 -147q236 166 430 166q119 0 186.5 -51.5t67.5 -141.5q0 -84 -24 -170l-62 -336q-14 -84 -14 -112q0 -47 28.5 -81t69.5 -34q49 0 127 78l41 -45q-115 -139 -266 -139q-82 0 -136 55t-54 139q0 55 22 176l60 322q18 111 18 123 q0 55 -38 88t-103 33q-154 0 -371 -166l-135 -752h-189l133 733q4 37 5 51q0 43 -25 66.5t-94 36.5z" />
<glyph unicode="o" horiz-adv-x="1105" d="M133 389q0 244 173 434.5t439 190.5q193 0 309.5 -116t116.5 -304q0 -254 -178 -433t-432 -179q-193 0 -310.5 112.5t-117.5 294.5zM332 360q0 -139 63.5 -215.5t179.5 -76.5q109 0 190 66.5t121 166.5t58.5 187t18.5 155q0 160 -70 222.5t-160 62.5q-100 0 -181 -59.5 t-127 -150.5t-69.5 -184.5t-23.5 -173.5z" />
<glyph unicode="p" horiz-adv-x="1228" d="M-49 -434l10 59l35 4q80 8 118 43t52 109l174 952q4 37 4 51q0 43 -25.5 66.5t-95.5 36.5l-22 4l10 59q147 12 287 45h77l-49 -272q59 133 171 212t241 79q150 0 241 -101.5t91 -269.5q0 -262 -170 -461.5t-393 -199.5q-184 0 -293 131l-60 -332q-4 -16 -4 -45 q0 -94 121 -107l31 -4l-10 -59h-541zM430 195q82 -117 234 -117q125 0 224 101.5t145 239.5t46 275q0 100 -49 162t-129 62q-123 0 -233.5 -113t-167.5 -305q-8 -27 -49 -209q-7 -30 -21 -96z" />
<glyph unicode="q" horiz-adv-x="1146" d="M133 377q0 254 168 445.5t391 191.5q94 0 167 -33t145 -111l79 125h113l-221 -1214q-4 -33 -4 -47q0 -47 25.5 -71.5t95.5 -33.5l32 -4l-12 -59h-541l13 59l32 4q80 8 118 43t52 109l84 461q-150 -260 -399 -260q-152 0 -245 108.5t-93 286.5zM324 326q0 -117 51 -182.5 t143 -65.5t180 64.5t148 172.5q45 82 69.5 176.5t59.5 319.5q-82 106 -240 107q-125 0 -222 -95.5t-143 -227.5t-46 -269z" />
<glyph unicode="r" horiz-adv-x="819" d="M180 891l10 59q145 12 287 45h78l-27 -147q164 166 326 166q61 0 96 -26.5t35 -74.5q0 -49 -37 -79.5t-96 -30.5q-45 0 -92 27.5t-74 27.5q-158 0 -219 -344l-92 -514h-189l133 733q4 37 5 51q0 43 -25 66.5t-94 36.5z" />
<glyph unicode="s" horiz-adv-x="1105" d="M133 199q0 39 25.5 65.5t62.5 26.5q45 0 77 -24.5t77 -94.5q74 -115 223 -115q111 0 185.5 56.5t74.5 138.5q0 57 -40 92t-140 68q-213 68 -289 106q-121 68 -121 191q0 133 124 219t313 86q160 0 287.5 -56.5t127.5 -128.5q0 -37 -26.5 -61.5t-67.5 -24.5t-64.5 17.5 t-68.5 87.5q-29 41 -86 65.5t-123 24.5q-92 0 -149.5 -45t-57.5 -117q0 -74 68 -114q35 -20 200 -74q80 -25 126.5 -42.5t97.5 -48t74.5 -72.5t23.5 -97q0 -147 -139.5 -246.5t-347.5 -99.5q-170 0 -308.5 67.5t-138.5 149.5z" />
<glyph unicode="t" horiz-adv-x="696" d="M180 930l13 65q158 10 232.5 89t115.5 278h73l-65 -367h293l-13 -65h-292l-107 -582q-23 -123 -22 -160q0 -53 32.5 -86.5t83.5 -33.5q98 0 209 96l45 -51q-139 -131 -315 -131q-117 0 -182.5 44t-65.5 124q0 47 21 163l112 617h-168z" />
<glyph unicode="u" d="M180 891l10 59q145 12 287 45h78l-127 -702q-10 -55 -10 -82q0 -57 33.5 -90t91.5 -33q84 0 168 37t209 127l135 743h188l-121 -669q-10 -66 -10 -107q0 -131 98 -131q78 0 148 90l47 -43q-131 -154 -289 -153q-88 0 -143 49t-68 139q-78 -76 -200.5 -132t-247.5 -56 q-109 0 -169.5 50t-60.5 140q0 53 13 123l79 438q4 16 5 43q0 90 -119 111z" />
<glyph unicode="v" horiz-adv-x="1105" d="M180 891l10 59q145 12 287 45h78l-129 -714q-6 -35 -6 -66q0 -127 155 -127q176 0 312.5 145.5t136.5 333.5q0 76 -24.5 127t-84.5 99q-51 39 -51 88q0 57 38 99t87 42q76 0 119 -77t43 -210q0 -322 -186.5 -537.5t-462.5 -215.5q-129 0 -201 52t-72 146q0 59 13 127 l77 426q4 37 5 51q0 43 -25 66.5t-94 36.5z" />
<glyph unicode="w" horiz-adv-x="1802" d="M180 891l10 59q145 12 287 45h78l-121 -661q-14 -90 -14 -125q0 -61 42 -96t116 -35q70 0 164 43t180 115l137 759h188l-110 -606q-16 -86 -17 -145q0 -82 37 -124t129 -42q156 0 284 151.5t128 337.5q0 141 -92 213q-68 51 -68 107q0 53 38 94t87 41q76 0 121 -69.5 t45 -186.5q0 -168 -57.5 -330t-153.5 -264q-178 -190 -434 -190q-115 0 -183.5 45t-74.5 127q-94 -80 -213 -126t-228 -46q-121 0 -190.5 52t-69.5 142q0 45 8 84l86 473q4 37 5 51q0 43 -25 66.5t-94 36.5z" />
<glyph unicode="x" horiz-adv-x="1105" d="M18 82q0 45 29 73.5t74 28.5q4 0 34.5 -3t39.5 -3q86 0 166.5 80t179.5 260l-52 133q-53 139 -90 178t-139 62l10 59q152 16 254 45h54l143 -424q287 451 477 451q35 0 59.5 -26.5t24.5 -65.5q0 -47 -41 -81t-98 -34q-25 0 -28 1t-19 1q-143 0 -338 -321 q98 -250 139 -308q59 -84 133 -84q45 0 117 50l45 -41q-131 -131 -270 -131q-66 0 -118 32.5t-82 82.5t-57.5 109.5t-43.5 112.5l-48 113q-139 -246 -246.5 -352.5t-211.5 -106.5q-43 0 -70 30t-27 79z" />
<glyph unicode="y" horiz-adv-x="1228" d="M123 -297q0 39 30.5 62.5t77.5 23.5q68 0 107 -68q59 -98 174 -98q133 0 234.5 103.5t132.5 271.5l30 170q-98 -86 -213.5 -136t-220.5 -50q-119 0 -185.5 53t-66.5 147q0 63 10 125l78 426q4 37 4 51q0 43 -24.5 66.5t-93.5 36.5l-25 4l10 59q152 14 287 45h78 l-125 -688q-12 -66 -12 -98q0 -57 36.5 -94t96.5 -37q188 0 381 174l135 743h188l-182 -1001q-23 -129 -93.5 -222.5t-163.5 -139.5t-177 -65.5t-162 -19.5q-141 0 -243.5 46.5t-102.5 109.5z" />
<glyph unicode="z" horiz-adv-x="1064" d="M78 55l809 860q-88 20 -213 21q-80 0 -133.5 -25.5t-67.5 -46t-31 -55.5q-49 -100 -125 -100q-41 0 -66.5 29.5t-25.5 76.5q0 86 103.5 142.5t261.5 56.5q53 0 172 -9.5t147 -9.5h211l29 -80l-795 -835q35 0 118 -8.5t138 -8.5q213 0 273 127q29 59 54.5 80t70.5 21 q37 0 61.5 -27.5t24.5 -68.5q0 -90 -96.5 -151.5t-233.5 -61.5l-404 14l-241 4z" />
<glyph unicode="{" horiz-adv-x="737" d="M246 582l10 57q92 33 133 95.5t62 197.5l47 266q12 70 28.5 117t55.5 104.5t113.5 87t185.5 29.5h8l-10 -61q-115 0 -162 -55.5t-76 -221.5l-47 -266q-23 -141 -66 -214t-127 -108q96 -61 97 -192q0 -59 -15 -148l-43 -252q-12 -66 -12 -143q0 -68 35 -99.5t119 -31.5 l-13 -61q-162 0 -223 69.5t-61 161.5q-4 49 12 127l47 266q10 61 10 107q1 113 -108 168z" />
<glyph unicode="|" horiz-adv-x="1228" d="M637 -248v1712h160v-1712h-160z" />
<glyph unicode="}" horiz-adv-x="737" d="M31 -317l10 61q115 0 163 56.5t75 219.5l47 267q23 139 65.5 211.5t126.5 109.5q-96 59 -96 191q0 61 14 147l43 254q2 12 13 143q0 68 -35 100t-119 32l12 61h23q121 0 191.5 -62.5t70.5 -168.5q0 -41 -12 -127l-48 -267q-10 -61 -10 -106q0 -113 111 -168l-10 -57 q-92 -33 -134.5 -95.5t-62.5 -197.5l-47 -267q-16 -156 -110.5 -246.5t-237.5 -90.5h-43z" />
<glyph unicode="~" horiz-adv-x="1228" d="M186 408q78 137 143.5 191t151.5 54q70 0 156 -39l133 -55q113 -47 164 -47q96 0 196 168l89 -96q-57 -109 -132 -169.5t-155 -60.5q-63 0 -191 54l-110 45q-102 43 -150 43q-37 0 -66.5 -12.5t-57 -45t-41.5 -54.5l-44 -73z" />
<glyph unicode="&#xa1;" horiz-adv-x="655" d="M141 -272q0 61 23.5 141t103.5 285q102 268 146 499h75q-43 -242 -43 -573q0 -272 -43 -375.5t-143 -103.5q-119 0 -119 127zM354 891q0 61 50.5 109.5t115.5 48.5q49 0 80 -31t31 -80q0 -66 -48 -116t-112 -50q-51 0 -84 33t-33 86z" />
<glyph unicode="&#xa2;" d="M303 618q0 78 24.5 165t79 184.5t166 168t261.5 85.5l43 243h86l-43 -243q135 -14 218 -81t83 -161q0 -59 -41 -103.5t-97 -44.5q-39 0 -64.5 26t-25.5 65q0 23 14.5 49t14.5 45q0 92 -119 114l-147 -806h6q160 0 315 178l70 -41q-150 -205 -408 -230l-53 -290h-86 l53 290q-66 12 -111.5 28.5t-108 56.5t-96.5 116.5t-34 185.5zM502 592q0 -201 172 -252l143 790q-102 -8 -178 -102t-106.5 -209.5t-30.5 -226.5z" />
<glyph unicode="&#xa3;" d="M8 133q0 92 85 160.5t202 68.5q80 0 233 -51q14 70 15 115q-2 94 -35 317h-285l43 91h238q-6 63 -6 86q0 209 162.5 355t394.5 146q168 0 275.5 -75.5t107.5 -196.5q0 -86 -43 -139.5t-113 -53.5q-39 0 -63.5 22.5t-24.5 57.5q0 37 45 94q31 39 31 70q0 55 -66.5 95 t-159.5 40q-55 0 -108 -18.5t-106.5 -61.5t-85 -129t-31.5 -202q0 -12 4 -90h348l-33 -91h-307q27 -201 27 -221q0 -141 -82 -262q246 -106 344 -106q68 0 117 42t49 99q0 39 -27 63.5t-68 24.5q-29 0 -77 -18l-47 -19l-21 57q96 55 180 55.5t135.5 -48t51.5 -129.5 q0 -119 -103.5 -213.5t-230.5 -94.5q-76 0 -166 49.5t-213 133.5q-182 -182 -385 -183q-90 0 -145.5 44t-55.5 116zM125 152q0 -37 35 -59.5t92 -22.5q131 0 244 137q-106 59 -222 59q-59 0 -104 -34.5t-45 -79.5z" />
<glyph unicode="&#xa4;" d="M205 1126l104 107l111 -111q139 104 305 105q156 0 299 -103l109 109l102 -107l-109 -106q104 -135 105 -303q0 -162 -101 -297l109 -109l-102 -104l-109 108q-141 -106 -305 -106t-305 106l-109 -108l-102 104l108 109q-100 141 -100 297q0 168 100 299zM383 721 q0 -143 99.5 -242.5t240.5 -99.5q139 0 239.5 100.5t100.5 239.5q0 137 -99.5 237.5t-234.5 100.5q-143 0 -244.5 -98.5t-101.5 -237.5z" />
<glyph unicode="&#xa5;" d="M145 526l17 90h434l-64 215h-331l16 91h293l-64 200q-31 100 -62.5 139t-102.5 64l-39 10l10 60h526l-10 -60q-84 -10 -115.5 -30.5t-31.5 -59.5q0 -18 20 -92l129 -459l268 410q74 111 74 160q0 55 -88 67l-33 4l10 60h504l-10 -60l-41 -10q-119 -35 -171 -75t-161 -191 l-98 -137h295l-16 -91h-345l-151 -215h457l-17 -90h-459l-51 -280q-6 -31 -6 -58q0 -55 31 -85.5t100 -39.5l35 -4l-14 -59h-580l12 59l33 4q100 10 143.5 49.5t59.5 137.5l49 276h-455z" />
<glyph unicode="&#xa6;" horiz-adv-x="1228" d="M637 -248v684h160v-684h-160zM637 780v684h160v-684h-160z" />
<glyph unicode="&#xa7;" d="M78 -94q0 63 38 107t91 44q45 0 76.5 -29.5t31.5 -72.5q0 -33 -20.5 -85t-20.5 -56q0 -45 92.5 -81t219.5 -36q162 0 273.5 74.5t111.5 183.5q0 61 -45 100t-148 66q-115 29 -190.5 51.5t-151.5 54t-119 66.5t-69.5 83t-26.5 109q0 63 27.5 122t66.5 95.5t81 71.5t73 53 q-139 86 -139 226q0 158 152.5 263t377.5 105q193 0 320 -82t127 -206q0 -53 -32 -90t-79 -37q-41 0 -71.5 29.5t-30.5 68.5q0 16 8 59t8 58q0 57 -71.5 95t-174.5 38q-141 0 -242.5 -70t-101.5 -166q0 -66 45 -103.5t164 -70.5q322 -94 419 -159.5t97 -209.5 q0 -90 -50 -157.5t-181 -155.5q154 -84 153 -229q0 -57 -34.5 -124t-102 -131.5t-191.5 -106.5t-280 -42q-211 0 -346 78t-135 199zM365 582q0 -66 47 -106t112.5 -56.5t195.5 -53t238 -81.5q137 115 138 215q0 84 -84 139q-41 29 -340 115q-66 20 -146 49 q-161 -108 -161 -221z" />
<glyph unicode="&#xa8;" horiz-adv-x="860" d="M356 1274q0 55 44 97t102 42q43 0 71.5 -28.5t28.5 -73.5q0 -57 -44 -100.5t-103 -43.5q-45 0 -72 30t-27 77zM729 1274q0 55 44 97t101 42q43 0 72 -28.5t29 -73.5q0 -57 -44 -100.5t-104 -43.5q-45 0 -71.5 30t-26.5 77z" />
<glyph unicode="&#xa9;" horiz-adv-x="1515" d="M143 690q0 297 210 507t507 210t507 -210t210 -507t-210 -507t-507 -210t-507 210t-210 507zM217 690q0 -266 188.5 -454.5t454.5 -188.5t454.5 188.5t188.5 454.5t-188.5 454.5t-454.5 188.5t-454.5 -188.5t-188.5 -454.5zM446 616q-2 197 146.5 337.5t357.5 140.5 q123 0 221 -70l35 55h62l4 -278h-58q-47 121 -106 174t-150 53q-154 0 -257 -132t-99 -302q-2 -111 68.5 -175.5t189.5 -64.5q219 0 340 191l62 -27q-59 -109 -176 -169t-257 -60q-170 0 -275.5 88.5t-107.5 238.5z" />
<glyph unicode="&#xaa;" horiz-adv-x="901" d="M193 623l14 75h797l-15 -75h-796zM287 1032q0 154 107.5 271.5t246.5 117.5q113 0 182 -73l13 63h127l-76 -410q-10 -51 -10 -67q0 -31 16 -51.5t39 -20.5q45 0 90 51l29 -26q-25 -37 -79 -63.5t-104 -26.5q-51 0 -84.5 36.5t-33.5 94.5v18q-111 -152 -244 -151 q-102 0 -160.5 63t-58.5 174zM414 993q0 -59 29.5 -95t76.5 -36q49 0 103.5 34t89.5 87q57 88 100 313q-59 57 -147 58q-100 0 -176 -110t-76 -251z" />
<glyph unicode="&#xab;" horiz-adv-x="614" d="M143 549l230 278l49 -28l-152 -250l47 -328l-41 -18zM369 549l231 282l41 -30l-147 -252l43 -318l-50 -16z" />
<glyph unicode="&#xac;" horiz-adv-x="1228" d="M184 606v160h1065v-428h-159v268h-906z" />
<glyph unicode="&#xad;" horiz-adv-x="655" d="M160 475l53 109h475l-57 -109h-471z" />
<glyph unicode="&#xae;" horiz-adv-x="1515" d="M143 690q0 297 210 507t507 210t507 -210t210 -507t-210 -507t-507 -210t-507 210t-210 507zM217 690q0 -266 188.5 -454.5t454.5 -188.5t454.5 188.5t188.5 454.5t-188.5 454.5t-454.5 188.5t-454.5 -188.5t-188.5 -454.5zM416 303l8 45l20 2q47 6 66.5 27.5t30.5 75.5 l88 477q4 25 4 37q0 57 -66 65l-20 2l10 45h457q279 0 280 -172q0 -29 -8 -58.5t-32.5 -67.5t-82 -68.5t-141.5 -42.5l148 -230q29 -47 50 -62.5t77 -29.5l-9 -45h-211l-215 365h-145l-39 -215q0 -16 -4 -41q2 -29 15.5 -44.5t50.5 -17.5l36 -2l-8 -45h-360zM735 723h144 q121 0 192.5 40t69.5 140q-2 117 -201 117q-88 0 -122 -14.5t-40 -55.5z" />
<glyph unicode="&#xaf;" horiz-adv-x="901" d="M371 1233l39 117h587l-39 -117h-587z" />
<glyph unicode="&#xb0;" horiz-adv-x="819" d="M246 1094q0 131 91 221t222 90q127 0 214 -90t87 -223q0 -131 -89 -222.5t-218 -91.5t-218 91.5t-89 224.5zM360 1092q0 -82 57.5 -139.5t135.5 -57.5q80 0 135 57.5t55 139.5t-54 139t-132 57q-82 0 -139.5 -57t-57.5 -139z" />
<glyph unicode="&#xb1;" horiz-adv-x="1228" d="M184 0v160h1065v-160h-1065zM184 592v160h453v452h160v-452h452v-160h-452v-289h-160v289h-453z" />
<glyph unicode="&#xb2;" horiz-adv-x="761" d="M139 559l19 100q240 113 391 256q182 168 182 297q0 59 -40 91t-111.5 32t-128 -32.5t-56.5 -73.5q0 -12 13 -35q10 -20 10 -35q0 -31 -31 -57.5t-65 -26.5q-33 0 -54.5 22.5t-21.5 55.5q0 100 110.5 179t253.5 79q127 0 208 -55.5t81 -141.5q0 -252 -551 -538h268 q72 0 111 28.5t86 116.5l61 -22l-104 -240h-631z" />
<glyph unicode="&#xb3;" horiz-adv-x="761" d="M143 711q0 45 33 79.5t74 34.5q29 0 49 -18.5t20 -44.5q0 -18 -18 -49q-8 -14 -8 -25q0 -35 43 -56.5t113 -21.5q121 0 189.5 62.5t68.5 169.5q0 141 -183 141q-47 0 -98 -8l14 76q23 -2 47 -2q117 0 185.5 49t68.5 131q0 115 -149 114q-70 0 -122 -24.5t-52 -58.5 q0 -4 6 -29l4 -25q0 -29 -29.5 -54.5t-64.5 -25.5q-33 0 -53.5 18.5t-20.5 47.5q0 86 106.5 152.5t241.5 66.5q131 0 211 -50t80 -134q0 -68 -56.5 -124t-148.5 -81q170 -35 170 -180q0 -127 -124 -213t-310 -86q-125 0 -206 47t-81 121z" />
<glyph unicode="&#xb4;" horiz-adv-x="655" d="M389 1194l141 139q109 109 172 111q35 0 60.5 -26.5t25.5 -61.5q0 -74 -143 -129l-231 -92z" />
<glyph unicode="&#xb5;" d="M109 -348q0 43 12 84t59 149q37 90 49 156l125 692q6 29 6 49q0 49 -29.5 70.5t-90.5 34.5l-25 4l10 59q150 12 287 45h78l-127 -702q-8 -39 -8 -80q0 -125 116 -125q80 0 160 37t201 127l135 743h188l-122 -669q-10 -49 -11 -109q0 -129 97 -129q76 0 141 90l45 -43 q-129 -154 -283 -153q-84 0 -139 50t-65 138q-76 -72 -194 -130t-235 -58q-113 0 -174 92q-14 -70 -14 -111q0 -20 7 -106t7 -95q0 -88 -37.5 -149.5t-91.5 -61.5q-33 0 -55 29t-22 72z" />
<glyph unicode="&#xb6;" d="M229 932q0 115 40 198.5t99.5 131t148.5 76t168 36.5t175 8h610l-12 -61l-24 -4q-106 -14 -135 -46t-52 -161l-149 -829q-12 -59 -13 -101q0 -51 27 -76.5t96 -33.5l37 -4l-12 -66h-899l12 66l37 4q115 10 150.5 45t60.5 166l59 329q-92 0 -164.5 14.5t-133 49.5 t-93.5 99.5t-33 158.5zM707 94h211l221 1206h-213z" />
<glyph unicode="&#xb7;" horiz-adv-x="614" d="M279 512q0 53 38.5 92t92 39t92.5 -39t39 -92t-39 -92t-92.5 -39t-92 39t-38.5 92z" />
<glyph unicode="&#xb8;" horiz-adv-x="655" d="M92 -315q0 23 15.5 40t35.5 17q35 0 55.5 -45t69.5 -45q45 0 81 34.5t36 73.5q0 37 -33 69t-82 32q-37 0 -84 -13l60 156h76l-29 -92h39q72 0 126 -43t54 -96q0 -70 -78 -128.5t-172 -58.5q-74 0 -122 28t-48 71z" />
<glyph unicode="&#xb9;" horiz-adv-x="761" d="M233 559l11 55q106 8 135 24.5t37 76.5l92 499q2 10 2 27q0 35 -29.5 43t-115.5 8l10 56q154 23 243 47h64l-123 -674q-6 -29 -6 -49q0 -27 19.5 -37t78.5 -17l43 -4l-10 -55h-451z" />
<glyph unicode="&#xba;" horiz-adv-x="819" d="M193 623l14 75h725l-14 -75h-725zM322 1036q0 158 104 271.5t250 113.5q111 0 177.5 -68.5t66.5 -181.5q0 -156 -104.5 -266t-252.5 -110q-109 0 -175 67.5t-66 173.5zM449 1008q0 -70 32.5 -108t91.5 -38q61 0 107.5 40t69 99.5t33 110.5t10.5 90q0 72 -32 112t-91 40 q-61 0 -108.5 -41t-70 -101.5t-32.5 -112.5t-10 -91z" />
<glyph unicode="&#xbb;" horiz-adv-x="614" d="M123 215l145 328l-47 254l47 28l127 -282l-219 -344zM348 215l146 328l-48 254l48 28l127 -282l-220 -344z" />
<glyph unicode="&#xbc;" horiz-adv-x="1904" d="M186 559l11 55q106 8 134.5 24.5t37.5 76.5l92 499q2 10 2 27q0 35 -30 43t-116 8l11 56q154 23 243 47h64l-123 -674q-6 -29 -6 -49q0 -27 19.5 -37t78.5 -17l43 -4l-10 -55h-451zM438 0l1014 1395h115l-1014 -1395h-115zM1124 281l523 555h135l-94 -531h182l-39 -82 h-160l-12 -69q-2 -6 -2 -19q0 -29 16.5 -51.5t44.5 -24.5l54 -4l-13 -55h-391l10 55l41 4q88 4 101 107l10 57h-389zM1249 305h297l70 389z" />
<glyph unicode="&#xbd;" horiz-adv-x="1904" d="M186 559l11 55q106 8 134.5 24.5t37.5 76.5l92 499q2 10 2 27q0 35 -30 43t-116 8l11 56q154 23 243 47h64l-123 -674q-6 -29 -6 -49q0 -27 19.5 -37t78.5 -17l43 -4l-10 -55h-451zM418 0l1014 1395h114l-1014 -1395h-114zM1135 0l18 100q236 111 391 256 q182 170 182 297q0 57 -39.5 90t-111.5 33t-128 -32.5t-56 -73.5q0 -12 12 -35q10 -20 10 -35q0 -31 -30.5 -57.5t-67.5 -26.5q-31 0 -52.5 22.5t-21.5 55.5q0 100 110.5 179t254.5 79q127 0 207.5 -55.5t80.5 -141.5q0 -254 -551 -538h269q72 0 110.5 28.5t85.5 116.5 l62 -22l-107 -240h-628z" />
<glyph unicode="&#xbe;" horiz-adv-x="1904" d="M203 711q0 45 32.5 79.5t73.5 34.5q29 0 49.5 -18.5t20.5 -44.5q0 -18 -19 -49q-8 -14 -8 -25q0 -35 43 -56.5t113 -21.5q121 0 189.5 62.5t68.5 169.5q0 141 -182 141q-47 0 -99 -8l15 76q23 -2 47 -2q117 0 185.5 49t68.5 131q0 115 -150 114q-70 0 -122 -24.5 t-52 -58.5q0 -4 6 -29l4 -25q0 -29 -29.5 -54.5t-64.5 -25.5q-33 0 -53.5 18.5t-20.5 47.5q0 86 106.5 152.5t242.5 66.5q131 0 210.5 -50t79.5 -134q0 -68 -56 -124t-148 -81q170 -35 170 -180q0 -127 -124 -213t-311 -86q-125 0 -205.5 47t-80.5 121zM565 0l1014 1395h115 l-1014 -1395h-115zM1124 281l523 555h135l-94 -531h182l-39 -82h-160l-12 -69q-2 -6 -2 -19q0 -29 16.5 -51.5t44.5 -24.5l54 -4l-13 -55h-391l10 55l41 4q88 4 101 107l10 57h-389zM1249 305h297l70 389z" />
<glyph unicode="&#xbf;" horiz-adv-x="1105" d="M55 -80q0 137 93.5 249t263.5 165q154 45 216 114.5t81 210.5h92q-23 -182 -67 -246.5t-216 -166.5q-143 -84 -193.5 -164t-50.5 -193q0 -100 70 -156.5t193 -56.5q131 0 222 51.5t91 125.5q0 18 -10.5 46.5t-10.5 41.5q0 45 39 79.5t86 34.5t76 -28.5t29 -73.5 q0 -137 -162 -244.5t-369 -107.5q-211 0 -342 88t-131 231zM653 889q0 63 50.5 111.5t115.5 48.5q51 0 82 -31t31 -80q0 -68 -49 -118t-115 -50q-51 0 -83 33t-32 86z" />
<glyph unicode="&#xc0;" horiz-adv-x="1433" d="M-51 0l10 59l27 4q96 23 147 74t148 221l583 1037h197l217 -1076q31 -152 59.5 -193.5t112.5 -62.5l25 -4l-11 -59h-555l11 59l24 4q80 12 109.5 42t29.5 79q0 37 -10 95l-45 239h-524l-109 -196q-53 -98 -53 -156q0 -80 129 -103l25 -4l-11 -59h-536zM551 600h467 l-129 625zM798.5 1689.5q12.5 32.5 49.5 56t76 23.5q61 0 151 -100l111 -125l-45 -53l-223 84q-74 27 -103 54.5t-16.5 60z" />
<glyph unicode="&#xc1;" horiz-adv-x="1433" d="M-51 0l10 59l27 4q96 23 147 74t148 221l583 1037h197l217 -1076q31 -152 59.5 -193.5t112.5 -62.5l25 -4l-11 -59h-555l11 59l24 4q80 12 109.5 42t29.5 79q0 37 -10 95l-45 239h-524l-109 -196q-53 -98 -53 -156q0 -80 129 -103l25 -4l-11 -59h-536zM551 600h467 l-129 625zM813 1544l156 125q125 100 188 100q39 0 67.5 -23.5t28.5 -55.5q0 -63 -159 -115l-254 -84z" />
<glyph unicode="&#xc2;" horiz-adv-x="1433" d="M-51 0l10 59l27 4q96 23 147 74t148 221l583 1037h197l217 -1076q31 -152 59.5 -193.5t112.5 -62.5l25 -4l-11 -59h-555l11 59l24 4q80 12 109.5 42t29.5 79q0 37 -10 95l-45 239h-524l-109 -196q-53 -98 -53 -156q0 -80 129 -103l25 -4l-11 -59h-536zM551 600h467 l-129 625zM651 1563l375 182l307 -182l-55 -45l-279 81l-299 -83z" />
<glyph unicode="&#xc3;" horiz-adv-x="1433" d="M-51 0l10 59l27 4q96 23 147 74t148 221l583 1037h197l217 -1076q31 -152 59.5 -193.5t112.5 -62.5l25 -4l-11 -59h-555l11 59l24 4q80 12 109.5 42t29.5 79q0 37 -10 95l-45 239h-524l-109 -196q-53 -98 -53 -156q0 -80 129 -103l25 -4l-11 -59h-536zM551 600h467 l-129 625zM690 1556q33 74 89.5 115t125.5 41q41 0 133 -21.5t113 -21.5q51 0 111 47h59q-78 -170 -234 -170q-31 0 -117.5 21.5t-123.5 21.5q-59 0 -92 -33h-64z" />
<glyph unicode="&#xc4;" horiz-adv-x="1433" d="M-51 0l10 59l27 4q96 23 147 74t148 221l583 1037h197l217 -1076q31 -152 59.5 -193.5t112.5 -62.5l25 -4l-11 -59h-555l11 59l24 4q80 12 109.5 42t29.5 79q0 37 -10 95l-45 239h-524l-109 -196q-53 -98 -53 -156q0 -80 129 -103l25 -4l-11 -59h-536zM551 600h467 l-129 625zM696 1614q0 55 44 97t102 42q43 0 71.5 -28.5t28.5 -73.5q0 -57 -44 -100.5t-103 -43.5q-45 0 -72 30t-27 77zM1069 1614q0 55 44 97t101 42q43 0 72 -28.5t29 -73.5q0 -57 -44 -100.5t-104 -43.5q-45 0 -71.5 30t-26.5 77z" />
<glyph unicode="&#xc5;" horiz-adv-x="1433" d="M-51 0l10 59l27 4q96 23 147 74t148 221l583 1037h197l217 -1076q31 -152 59.5 -193.5t112.5 -62.5l25 -4l-11 -59h-555l11 59l24 4q80 12 109.5 42t29.5 79q0 37 -10 95l-45 239h-524l-109 -196q-53 -98 -53 -156q0 -80 129 -103l25 -4l-11 -59h-536zM551 600h467 l-129 625zM850 1632q0 76 55.5 131.5t132.5 55.5q57 0 94 -38t37 -95q0 -74 -59 -131.5t-135 -57.5q-55 0 -90 38t-35 97zM926 1645q0 -37 16 -58.5t45 -21.5q41 0 74 33.5t33 76.5q0 33 -18.5 54.5t-47.5 21.5q-41 0 -71.5 -31.5t-30.5 -74.5z" />
<glyph unicode="&#xc6;" horiz-adv-x="2498" d="M-92 0l10 59q246 55 481 275l1131 1061h991l78 -400l-86 -22q-84 180 -207 259t-319 79q-86 0 -138.5 -11.5t-79 -44t-36 -58.5t-19.5 -85l-59 -330h151q72 0 124 22.5t83 69t43 73t29 77.5h63l-104 -580h-66q4 41 4 60q0 188 -188 188h-156l-77 -422q-6 -33 -7 -59 q0 -72 48.5 -95.5t177.5 -23.5q104 0 224 36t214 93q127 82 256 223l63 -24l-200 -420h-1209l13 59l33 4q86 10 123.5 52.5t58.5 146.5l78 430h-504l-385 -360q-141 -131 -142 -201q0 -16 9.5 -27.5t25 -18.5t32.5 -11t35.5 -6t33.5 -5l30 -4l-10 -59h-651zM1026 788h424 l88 484z" />
<glyph unicode="&#xc7;" horiz-adv-x="1474" d="M180 563q0 350 245 604t585 254q111 0 193.5 -29.5t174.5 -101.5l62 105h88v-486h-78q-74 223 -173 319.5t-253 96.5q-260 0 -442.5 -244.5t-182.5 -562.5v-4q0 -205 119 -324.5t320 -119.5q174 0 323.5 90t251.5 256l84 -41q-96 -182 -276.5 -286.5t-395.5 -115.5 l-20 -61h39q72 0 126 -43t54 -96q0 -70 -78 -128.5t-172 -58.5q-74 0 -122 28t-48 71q0 23 15.5 40t35.5 17q35 0 55.5 -45t69.5 -45q45 0 81 34.5t36 73.5q0 37 -33 69t-82 32q-37 0 -84 -13l50 127q-256 12 -412 173t-156 415z" />
<glyph unicode="&#xc8;" horiz-adv-x="1392" d="M43 0l10 59l35 4q84 10 123 52.5t57 146.5l158 871q10 41 10 69q0 115 -119 129l-32 4l12 60h1133l77 -404l-86 -20q-96 193 -218 264.5t-310 71.5q-104 0 -160.5 -22.5t-72 -51.5t-25.5 -86l-68 -369h158q117 0 174 51.5t102 196.5h66l-106 -588h-66q2 14 2 41 q0 209 -176 209h-170l-82 -452q-4 -25 -4 -35q0 -61 48 -87t163 -26q250 0 457 135q117 76 249 223l66 -26l-203 -420h-1202zM735.5 1689.5q12.5 32.5 49 56t75.5 23.5q61 0 152 -100l110 -125l-45 -53l-223 84q-74 27 -102.5 54.5t-16 60z" />
<glyph unicode="&#xc9;" horiz-adv-x="1392" d="M43 0l10 59l35 4q84 10 123 52.5t57 146.5l158 871q10 41 10 69q0 115 -119 129l-32 4l12 60h1133l77 -404l-86 -20q-96 193 -218 264.5t-310 71.5q-104 0 -160.5 -22.5t-72 -51.5t-25.5 -86l-68 -369h158q117 0 174 51.5t102 196.5h66l-106 -588h-66q2 14 2 41 q0 209 -176 209h-170l-82 -452q-4 -25 -4 -35q0 -61 48 -87t163 -26q250 0 457 135q117 76 249 223l66 -26l-203 -420h-1202zM750 1544l155 125q125 100 189 100q39 0 67.5 -23.5t28.5 -55.5q0 -63 -160 -115l-254 -84z" />
<glyph unicode="&#xca;" horiz-adv-x="1392" d="M43 0l10 59l35 4q84 10 123 52.5t57 146.5l158 871q10 41 10 69q0 115 -119 129l-32 4l12 60h1133l77 -404l-86 -20q-96 193 -218 264.5t-310 71.5q-104 0 -160.5 -22.5t-72 -51.5t-25.5 -86l-68 -369h158q117 0 174 51.5t102 196.5h66l-106 -588h-66q2 14 2 41 q0 209 -176 209h-170l-82 -452q-4 -25 -4 -35q0 -61 48 -87t163 -26q250 0 457 135q117 76 249 223l66 -26l-203 -420h-1202zM588 1563l375 182l307 -182l-56 -45l-278 81l-299 -83z" />
<glyph unicode="&#xcb;" horiz-adv-x="1392" d="M43 0l10 59l35 4q84 10 123 52.5t57 146.5l158 871q10 41 10 69q0 115 -119 129l-32 4l12 60h1133l77 -404l-86 -20q-96 193 -218 264.5t-310 71.5q-104 0 -160.5 -22.5t-72 -51.5t-25.5 -86l-68 -369h158q117 0 174 51.5t102 196.5h66l-106 -588h-66q2 14 2 41 q0 209 -176 209h-170l-82 -452q-4 -25 -4 -35q0 -61 48 -87t163 -26q250 0 457 135q117 76 249 223l66 -26l-203 -420h-1202zM633 1614q0 55 44 97t101 42q43 0 72 -28.5t29 -73.5q0 -57 -44 -100.5t-104 -43.5q-45 0 -71.5 30t-26.5 77zM1006 1614q0 55 44 97t101 42 q43 0 71.5 -28.5t28.5 -73.5q0 -57 -44 -100.5t-103 -43.5q-45 0 -71.5 30t-26.5 77z" />
<glyph unicode="&#xcc;" horiz-adv-x="655" d="M43 0l10 59l35 4q82 12 119 54.5t55 144.5l158 871q10 72 10 77q0 106 -113 121l-32 4l12 60h547l-10 -60l-35 -4q-82 -12 -119 -54t-55 -144l-158 -871q-8 -39 -8 -78q0 -106 110 -121l33 -4l-12 -59h-547zM407.5 1689.5q12.5 32.5 49.5 56t75 23.5q61 0 152 -100 l111 -125l-45 -53l-224 84q-74 27 -102.5 54.5t-16 60z" />
<glyph unicode="&#xcd;" horiz-adv-x="655" d="M43 0l10 59l35 4q82 12 119 54.5t55 144.5l158 871q10 72 10 77q0 106 -113 121l-32 4l12 60h547l-10 -60l-35 -4q-82 -12 -119 -54t-55 -144l-158 -871q-8 -39 -8 -78q0 -106 110 -121l33 -4l-12 -59h-547zM422 1544l156 125q125 100 188 100q39 0 67.5 -23.5 t28.5 -55.5q0 -63 -160 -115l-253 -84z" />
<glyph unicode="&#xce;" horiz-adv-x="655" d="M43 0l10 59l35 4q82 12 119 54.5t55 144.5l158 871q10 72 10 77q0 106 -113 121l-32 4l12 60h547l-10 -60l-35 -4q-82 -12 -119 -54t-55 -144l-158 -871q-8 -39 -8 -78q0 -106 110 -121l33 -4l-12 -59h-547zM260 1563l375 182l307 -182l-55 -45l-279 81l-299 -83z" />
<glyph unicode="&#xcf;" horiz-adv-x="655" d="M43 0l10 59l35 4q82 12 119 54.5t55 144.5l158 871q10 72 10 77q0 106 -113 121l-32 4l12 60h547l-10 -60l-35 -4q-82 -12 -119 -54t-55 -144l-158 -871q-8 -39 -8 -78q0 -106 110 -121l33 -4l-12 -59h-547zM305 1614q0 55 44 97t102 42q43 0 71.5 -28.5t28.5 -73.5 q0 -57 -44 -100.5t-104 -43.5q-45 0 -71.5 30t-26.5 77zM678 1614q0 55 44 97t101 42q43 0 72 -28.5t29 -73.5q0 -57 -44 -100.5t-104 -43.5q-45 0 -71.5 30t-26.5 77z" />
<glyph unicode="&#xd0;" horiz-adv-x="1515" d="M43 0l10 59l35 4q84 10 122 52.5t58 146.5l78 428h-178l16 88h178l64 355q10 41 10 69q0 115 -119 129l-32 4l12 60h670q147 0 260.5 -33t182.5 -85t114 -128t61.5 -153.5t16.5 -168.5q0 -92 -21.5 -192t-81 -217t-149.5 -207t-243 -150.5t-343 -60.5h-721zM461 178 q0 -55 47 -76.5t160 -21.5q164 0 293 54t205.5 136t128 189.5t69.5 204t18 188.5q0 215 -120.5 337t-335.5 122q-152 0 -212.5 -29t-74.5 -111l-72 -393h408l-14 -88h-410l-84 -465q-6 -29 -6 -47z" />
<glyph unicode="&#xd1;" horiz-adv-x="1474" d="M37 0l10 59l35 4q84 10 122 52.5t58 146.5l158 871q10 41 10 69q0 115 -119 129l-32 4l12 60h446l453 -1129l158 867q6 43 6 73q0 61 -27 88t-90 37l-31 4l11 60h469l-11 -60l-35 -4q-84 -10 -122.5 -52t-57.5 -146l-207 -1133h-176l-518 1274l-184 -1012q-8 -43 -8 -84 q0 -53 25.5 -79.5t92.5 -35.5l31 -4l-10 -59h-469zM717 1556q33 74 89 115t126 41q39 0 132 -21.5t114 -21.5q51 0 110 47h60q-78 -170 -234 -170q-31 0 -118 21.5t-124 21.5q-59 0 -92 -33h-63z" />
<glyph unicode="&#xd2;" horiz-adv-x="1556" d="M180 567q0 156 60.5 307.5t169 273.5t275.5 197.5t364 75.5q260 0 423.5 -164.5t163.5 -425.5q0 -221 -108.5 -416.5t-308 -318.5t-443.5 -123q-266 0 -431 165t-165 429zM406 510q0 -201 103 -320.5t275 -119.5q150 0 273 77.5t198.5 200.5t115.5 267.5t40 287.5 q0 188 -106.5 305t-278.5 117q-186 0 -332.5 -129t-217 -312.5t-70.5 -373.5zM880.5 1689.5q12.5 32.5 49.5 56t76 23.5q61 0 151 -100l111 -125l-45 -53l-224 84q-74 27 -102.5 54.5t-16 60z" />
<glyph unicode="&#xd3;" horiz-adv-x="1556" d="M180 567q0 156 60.5 307.5t169 273.5t275.5 197.5t364 75.5q260 0 423.5 -164.5t163.5 -425.5q0 -221 -108.5 -416.5t-308 -318.5t-443.5 -123q-266 0 -431 165t-165 429zM406 510q0 -201 103 -320.5t275 -119.5q150 0 273 77.5t198.5 200.5t115.5 267.5t40 287.5 q0 188 -106.5 305t-278.5 117q-186 0 -332.5 -129t-217 -312.5t-70.5 -373.5zM895 1544l156 125q125 100 188 100q39 0 67.5 -23.5t28.5 -55.5q0 -63 -159 -115l-254 -84z" />
<glyph unicode="&#xd4;" horiz-adv-x="1556" d="M180 567q0 156 60.5 307.5t169 273.5t275.5 197.5t364 75.5q260 0 423.5 -164.5t163.5 -425.5q0 -221 -108.5 -416.5t-308 -318.5t-443.5 -123q-266 0 -431 165t-165 429zM406 510q0 -201 103 -320.5t275 -119.5q150 0 273 77.5t198.5 200.5t115.5 267.5t40 287.5 q0 188 -106.5 305t-278.5 117q-186 0 -332.5 -129t-217 -312.5t-70.5 -373.5zM733 1563l375 182l307 -182l-55 -45l-279 81l-299 -83z" />
<glyph unicode="&#xd5;" horiz-adv-x="1556" d="M180 567q0 156 60.5 307.5t169 273.5t275.5 197.5t364 75.5q260 0 423.5 -164.5t163.5 -425.5q0 -221 -108.5 -416.5t-308 -318.5t-443.5 -123q-266 0 -431 165t-165 429zM406 510q0 -201 103 -320.5t275 -119.5q150 0 273 77.5t198.5 200.5t115.5 267.5t40 287.5 q0 188 -106.5 305t-278.5 117q-186 0 -332.5 -129t-217 -312.5t-70.5 -373.5zM772 1556q33 74 89.5 115t125.5 41q41 0 133 -21.5t113 -21.5q51 0 110 47h60q-78 -170 -234 -170q-31 0 -117.5 21.5t-123.5 21.5q-59 0 -92 -33h-64z" />
<glyph unicode="&#xd6;" horiz-adv-x="1556" d="M180 567q0 156 60.5 307.5t169 273.5t275.5 197.5t364 75.5q260 0 423.5 -164.5t163.5 -425.5q0 -221 -108.5 -416.5t-308 -318.5t-443.5 -123q-266 0 -431 165t-165 429zM406 510q0 -201 103 -320.5t275 -119.5q150 0 273 77.5t198.5 200.5t115.5 267.5t40 287.5 q0 188 -106.5 305t-278.5 117q-186 0 -332.5 -129t-217 -312.5t-70.5 -373.5zM778 1614q0 55 44 97t102 42q43 0 71.5 -28.5t28.5 -73.5q0 -57 -44 -100.5t-103 -43.5q-45 0 -72 30t-27 77zM1151 1614q0 55 44 97t101 42q43 0 72 -28.5t29 -73.5q0 -57 -44 -100.5 t-104 -43.5q-45 0 -71.5 30t-26.5 77z" />
<glyph unicode="&#xd7;" horiz-adv-x="1228" d="M285 193l319 319l-319 319l112 113l320 -319l319 319l113 -113l-320 -319l320 -319l-113 -113l-319 319l-320 -319z" />
<glyph unicode="&#xd8;" horiz-adv-x="1556" d="M180 563q0 362 253 610t622 248q131 0 256 -45l147 217h101l-175 -256q252 -180 252 -499q0 -225 -109.5 -423t-311 -320t-447.5 -122q-141 0 -276 54l-152 -222h-100l178 265q-238 176 -238 493zM406 498q0 -98 21.5 -166t74.5 -137l735 1071q-100 59 -207 59 q-188 0 -334.5 -125t-218 -311t-71.5 -391zM565 137q113 -68 217 -67q117 0 220.5 48t177 131t127 189.5t79 225t25.5 237.5q0 182 -111 316z" />
<glyph unicode="&#xd9;" horiz-adv-x="1474" d="M242 297q0 45 16 147l125 689q10 47 10 71q0 113 -119 127l-32 4l10 60h561l-10 -60l-33 -4q-86 -10 -124 -52t-58 -146l-115 -629q-12 -70 -12 -174q0 -127 87 -193.5t249 -66.5q66 0 123 11t98 26.5t78 47.5l59 52q23 20 43.5 64t30.5 63.5t21.5 68t13.5 58.5t10 55 l112 617q2 6 9 81q0 53 -27 81t-92 36l-31 4l10 60h469l-10 -60l-35 -4q-84 -10 -121.5 -52t-58.5 -146l-117 -644q-12 -61 -22 -103t-32.5 -100.5t-51.5 -98.5t-78 -84t-111.5 -69.5t-153.5 -43t-204 -17.5q-143 0 -246.5 34t-151.5 87t-68.5 103.5t-20.5 99.5zM848 1689.5 q12 32.5 49 56t76 23.5q61 0 151 -100l111 -125l-45 -53l-223 84q-74 27 -102.5 54.5t-16.5 60z" />
<glyph unicode="&#xda;" horiz-adv-x="1474" d="M242 297q0 45 16 147l125 689q10 47 10 71q0 113 -119 127l-32 4l10 60h561l-10 -60l-33 -4q-86 -10 -124 -52t-58 -146l-115 -629q-12 -70 -12 -174q0 -127 87 -193.5t249 -66.5q66 0 123 11t98 26.5t78 47.5l59 52q23 20 43.5 64t30.5 63.5t21.5 68t13.5 58.5t10 55 l112 617q2 6 9 81q0 53 -27 81t-92 36l-31 4l10 60h469l-10 -60l-35 -4q-84 -10 -121.5 -52t-58.5 -146l-117 -644q-12 -61 -22 -103t-32.5 -100.5t-51.5 -98.5t-78 -84t-111.5 -69.5t-153.5 -43t-204 -17.5q-143 0 -246.5 34t-151.5 87t-68.5 103.5t-20.5 99.5zM862 1544 l156 125q125 100 188 100q39 0 68 -23.5t29 -55.5q0 -63 -160 -115l-254 -84z" />
<glyph unicode="&#xdb;" horiz-adv-x="1474" d="M242 297q0 45 16 147l125 689q10 47 10 71q0 113 -119 127l-32 4l10 60h561l-10 -60l-33 -4q-86 -10 -124 -52t-58 -146l-115 -629q-12 -70 -12 -174q0 -127 87 -193.5t249 -66.5q66 0 123 11t98 26.5t78 47.5l59 52q23 20 43.5 64t30.5 63.5t21.5 68t13.5 58.5t10 55 l112 617q2 6 9 81q0 53 -27 81t-92 36l-31 4l10 60h469l-10 -60l-35 -4q-84 -10 -121.5 -52t-58.5 -146l-117 -644q-12 -61 -22 -103t-32.5 -100.5t-51.5 -98.5t-78 -84t-111.5 -69.5t-153.5 -43t-204 -17.5q-143 0 -246.5 34t-151.5 87t-68.5 103.5t-20.5 99.5zM700 1563 l375 182l307 -182l-55 -45l-278 81l-299 -83z" />
<glyph unicode="&#xdc;" horiz-adv-x="1474" d="M242 297q0 45 16 147l125 689q10 47 10 71q0 113 -119 127l-32 4l10 60h561l-10 -60l-33 -4q-86 -10 -124 -52t-58 -146l-115 -629q-12 -70 -12 -174q0 -127 87 -193.5t249 -66.5q66 0 123 11t98 26.5t78 47.5l59 52q23 20 43.5 64t30.5 63.5t21.5 68t13.5 58.5t10 55 l112 617q2 6 9 81q0 53 -27 81t-92 36l-31 4l10 60h469l-10 -60l-35 -4q-84 -10 -121.5 -52t-58.5 -146l-117 -644q-12 -61 -22 -103t-32.5 -100.5t-51.5 -98.5t-78 -84t-111.5 -69.5t-153.5 -43t-204 -17.5q-143 0 -246.5 34t-151.5 87t-68.5 103.5t-20.5 99.5zM745 1614 q0 55 44.5 97t101.5 42q43 0 71.5 -28.5t28.5 -73.5q0 -57 -44 -100.5t-103 -43.5q-45 0 -72 30t-27 77zM1118 1614q0 55 44 97t102 42q43 0 71.5 -28.5t28.5 -73.5q0 -57 -44 -100.5t-103 -43.5q-45 0 -72 30t-27 77z" />
<glyph unicode="&#xdd;" horiz-adv-x="1351" d="M178 1335l10 60h553l-10 -60l-22 -4q-131 -25 -131 -100q0 -23 16 -55l223 -482l404 484q29 35 28 71q0 63 -104 82l-25 4l13 60h524l-10 -60q-111 -14 -182.5 -63t-186.5 -182l-420 -482l-63 -346q-8 -39 -9 -78q0 -57 29 -86.5t96 -34.5l62 -4l-10 -59h-635l10 59l61 4 q90 8 130 50.5t61 148.5l57 313l-299 629q-27 59 -54.5 82t-94.5 43zM750 1544l155 125q125 100 189 100q39 0 67.5 -23.5t28.5 -55.5q0 -63 -160 -115l-254 -84z" />
<glyph unicode="&#xde;" horiz-adv-x="1228" d="M43 0l10 59l35 4q84 10 122 52.5t58 146.5l158 871q10 41 10 69q0 115 -119 129l-32 4l12 60h561l-12 -60l-33 -4q-88 -10 -127 -58t-59 -169h243q227 0 350 -70.5t123 -263.5q0 -143 -56 -240.5t-158.5 -144.5t-211 -65.5t-247.5 -18.5h-189l-8 -39q-8 -35 -8 -74 q0 -117 119 -125l59 -4l-10 -59h-590zM494 377h190q135 0 231.5 37t142.5 99t65.5 124.5t19.5 136.5q0 137 -80 195.5t-264 58.5h-189z" />
<glyph unicode="&#xdf;" d="M-248 -182l43 73q94 -31 148 -30q59 0 109 21.5t84 50t63.5 81t45 87t32 98t20.5 85t12 72.5l103 578h-123l12 65h125q18 117 73.5 202t116 128t139.5 68.5t128 31t98 5.5q61 0 117.5 -9.5t113 -31t91 -65.5t34.5 -105q0 -182 -301 -297q-63 -23 -63 -54q0 -27 57 -53 q170 -90 236.5 -163.5t66.5 -194.5q0 -207 -181 -343t-400 -136q-168 0 -287 88l51 63q119 -66 209 -65q168 0 293 119.5t125 279.5q0 63 -32 104t-118 93q-119 72 -153.5 104.5t-34.5 71.5q0 41 40 79.5t142 98.5q94 53 138 96t44 111q0 66 -50 103.5t-138 37.5 q-295 0 -371 -387l-114 -633q-27 -145 -81.5 -254.5t-112.5 -168t-131 -94.5t-125 -45t-103 -9q-117 0 -191 43z" />
<glyph unicode="&#xe0;" d="M145 360q0 262 176.5 458t413.5 196q186 0 297 -123l19 104h188l-121 -667q-14 -74 -14 -113q0 -45 31.5 -78t76.5 -33q82 0 148 80l45 -43q-45 -68 -132 -113.5t-167 -45.5q-55 0 -97 25.5t-61.5 63.5t-29 69.5t-9.5 56.5q0 18 2 32q-182 -248 -413 -247 q-158 0 -255.5 104t-97.5 274zM344 309q0 -102 52.5 -166.5t138.5 -64.5q84 0 171 56t144 147q55 88 91 198.5t75 325.5q-102 113 -235.5 113t-238 -102.5t-151.5 -239t-47 -267.5zM666 1356q14 35 49 61.5t69 26.5q63 -2 131 -111l93 -139l-47 -59l-199 92q-123 55 -96 129 z" />
<glyph unicode="&#xe1;" d="M145 360q0 262 176.5 458t413.5 196q186 0 297 -123l19 104h188l-121 -667q-14 -74 -14 -113q0 -45 31.5 -78t76.5 -33q82 0 148 80l45 -43q-45 -68 -132 -113.5t-167 -45.5q-55 0 -97 25.5t-61.5 63.5t-29 69.5t-9.5 56.5q0 18 2 32q-182 -248 -413 -247 q-158 0 -255.5 104t-97.5 274zM344 309q0 -102 52.5 -166.5t138.5 -64.5q84 0 171 56t144 147q55 88 91 198.5t75 325.5q-102 113 -235.5 113t-238 -102.5t-151.5 -239t-47 -267.5zM676 1194l141 139q109 109 172 111q35 0 60.5 -26.5t25.5 -61.5q0 -74 -143 -129l-232 -92z " />
<glyph unicode="&#xe2;" d="M145 360q0 262 176.5 458t413.5 196q186 0 297 -123l19 104h188l-121 -667q-14 -74 -14 -113q0 -45 31.5 -78t76.5 -33q82 0 148 80l45 -43q-45 -68 -132 -113.5t-167 -45.5q-55 0 -97 25.5t-61.5 63.5t-29 69.5t-9.5 56.5q0 18 2 32q-182 -248 -413 -247 q-158 0 -255.5 104t-97.5 274zM344 309q0 -102 52.5 -166.5t138.5 -64.5q84 0 171 56t144 147q55 88 91 198.5t75 325.5q-102 113 -235.5 113t-238 -102.5t-151.5 -239t-47 -267.5zM524 1217l340 202l281 -202l-51 -52l-252 92l-273 -94z" />
<glyph unicode="&#xe3;" d="M145 360q0 262 176.5 458t413.5 196q186 0 297 -123l19 104h188l-121 -667q-14 -74 -14 -113q0 -45 31.5 -78t76.5 -33q82 0 148 80l45 -43q-45 -68 -132 -113.5t-167 -45.5q-55 0 -97 25.5t-61.5 63.5t-29 69.5t-9.5 56.5q0 18 2 32q-182 -248 -413 -247 q-158 0 -255.5 104t-97.5 274zM344 309q0 -102 52.5 -166.5t138.5 -64.5q84 0 171 56t144 147q55 88 91 198.5t75 325.5q-102 113 -235.5 113t-238 -102.5t-151.5 -239t-47 -267.5zM535 1217q33 74 89 114.5t126 40.5q41 0 133 -21.5t112 -21.5q51 0 111 47h59 q-78 -170 -233 -170q-31 0 -118 21.5t-124 21.5q-59 0 -92 -32h-63z" />
<glyph unicode="&#xe4;" d="M145 360q0 262 176.5 458t413.5 196q186 0 297 -123l19 104h188l-121 -667q-14 -74 -14 -113q0 -45 31.5 -78t76.5 -33q82 0 148 80l45 -43q-45 -68 -132 -113.5t-167 -45.5q-55 0 -97 25.5t-61.5 63.5t-29 69.5t-9.5 56.5q0 18 2 32q-182 -248 -413 -247 q-158 0 -255.5 104t-97.5 274zM344 309q0 -102 52.5 -166.5t138.5 -64.5q84 0 171 56t144 147q55 88 91 198.5t75 325.5q-102 113 -235.5 113t-238 -102.5t-151.5 -239t-47 -267.5zM541 1274q0 55 44 97t101 42q43 0 71.5 -28.5t28.5 -73.5q0 -57 -44 -100.5t-103 -43.5 q-45 0 -71.5 30t-26.5 77zM913 1274q0 55 44 97t102 42q43 0 71.5 -28.5t28.5 -73.5q0 -57 -44 -100.5t-103 -43.5q-45 0 -72 30t-27 77z" />
<glyph unicode="&#xe5;" d="M145 360q0 262 176.5 458t413.5 196q186 0 297 -123l19 104h188l-121 -667q-14 -74 -14 -113q0 -45 31.5 -78t76.5 -33q82 0 148 80l45 -43q-45 -68 -132 -113.5t-167 -45.5q-55 0 -97 25.5t-61.5 63.5t-29 69.5t-9.5 56.5q0 18 2 32q-182 -248 -413 -247 q-158 0 -255.5 104t-97.5 274zM344 309q0 -102 52.5 -166.5t138.5 -64.5q84 0 171 56t144 147q55 88 91 198.5t75 325.5q-102 113 -235.5 113t-238 -102.5t-151.5 -239t-47 -267.5zM690 1266q0 76 55.5 131t133.5 55q57 0 94 -38t37 -95q0 -74 -59.5 -131.5t-135.5 -57.5 q-55 0 -90 38.5t-35 97.5zM766 1278q0 -37 16.5 -58.5t44.5 -21.5q41 0 74 34t33 77q0 33 -18.5 54t-47.5 21q-41 0 -71.5 -31.5t-30.5 -74.5z" />
<glyph unicode="&#xe6;" horiz-adv-x="1802" d="M145 188q0 106 93.5 202.5t244.5 144.5q166 51 437 65q25 137 24 195q0 70 -54 106.5t-157 36.5q-90 0 -151.5 -35t-69.5 -106q-6 -53 -43 -89t-86 -36q-33 0 -56.5 21.5t-23.5 49.5q0 111 149.5 191t319.5 80q104 0 178 -19.5t107 -52.5t42 -46t13 -28q223 145 432 146 q150 0 243 -62.5t93 -160.5q0 -145 -205 -228.5t-508 -83.5h-82q-10 -74 -10 -123q0 -127 74 -202.5t199 -75.5q170 0 387 151l47 -57q-244 -190 -486 -190q-45 0 -90 7t-106.5 28.5t-114.5 69.5t-88 120q-37 -43 -62.5 -66.5t-86 -67.5t-145.5 -67.5t-187 -23.5 q-123 0 -197 56t-74 150zM344 229q0 -66 47 -108.5t121 -42.5q94 0 183 52t136 132q49 86 76 266q-250 0 -406.5 -86t-156.5 -213zM1094 545h41q262 0 408.5 68.5t146.5 183.5q0 59 -51.5 100t-127.5 41q-141 0 -256.5 -107.5t-160.5 -285.5z" />
<glyph unicode="&#xe7;" horiz-adv-x="983" d="M133 389q0 248 187.5 436.5t433.5 188.5q133 0 224 -63.5t91 -157.5q0 -53 -34 -89t-85 -36q-35 0 -56.5 19.5t-21.5 49.5q0 4 3.5 24.5t3.5 39.5q0 59 -43 98t-111 39q-109 0 -200 -97.5t-137 -228.5t-46 -252q0 -125 72.5 -203.5t189.5 -78.5q164 0 363 166l45 -51 q-76 -88 -194 -144.5t-236 -64.5l-23 -72h39q72 0 126 -43t54 -96q0 -70 -77.5 -128.5t-172.5 -58.5q-74 0 -122 28t-48 71q0 23 15.5 40t36.5 17q35 0 55 -45t70 -45q45 0 80.5 34.5t35.5 73.5q0 37 -32.5 69t-81.5 32q-39 0 -84 -13l51 136q-166 12 -268.5 123.5 t-102.5 281.5z" />
<glyph unicode="&#xe8;" horiz-adv-x="1105" d="M133 365q0 256 214 452.5t495 196.5q145 0 240.5 -63.5t95.5 -157.5q0 -299 -811 -347q-10 -39 -11 -73q0 -268 283 -269q92 0 174 28t213 101l53 -55q-256 -197 -504 -196q-190 0 -316 109.5t-126 273.5zM381 522h27q133 0 259 28t219 91.5t93 149.5q0 66 -50 106.5 t-130 40.5q-41 0 -86 -13.5t-107.5 -51t-123 -129t-101.5 -222.5zM631 1356q14 35 49 61.5t70 26.5q63 -2 131 -111l92 -139l-47 -59l-199 92q-123 55 -96 129z" />
<glyph unicode="&#xe9;" horiz-adv-x="1105" d="M133 365q0 256 214 452.5t495 196.5q145 0 240.5 -63.5t95.5 -157.5q0 -299 -811 -347q-10 -39 -11 -73q0 -268 283 -269q92 0 174 28t213 101l53 -55q-256 -197 -504 -196q-190 0 -316 109.5t-126 273.5zM381 522h27q133 0 259 28t219 91.5t93 149.5q0 66 -50 106.5 t-130 40.5q-41 0 -86 -13.5t-107.5 -51t-123 -129t-101.5 -222.5zM641 1194l141 139q106 109 172 111q35 0 60.5 -26.5t25.5 -61.5q0 -74 -143 -129l-231 -92z" />
<glyph unicode="&#xea;" horiz-adv-x="1105" d="M133 365q0 256 214 452.5t495 196.5q145 0 240.5 -63.5t95.5 -157.5q0 -299 -811 -347q-10 -39 -11 -73q0 -268 283 -269q92 0 174 28t213 101l53 -55q-256 -197 -504 -196q-190 0 -316 109.5t-126 273.5zM381 522h27q133 0 259 28t219 91.5t93 149.5q0 66 -50 106.5 t-130 40.5q-41 0 -86 -13.5t-107.5 -51t-123 -129t-101.5 -222.5zM489 1217l340 202l281 -202l-51 -52l-252 92l-272 -94z" />
<glyph unicode="&#xeb;" horiz-adv-x="1105" d="M133 365q0 256 214 452.5t495 196.5q145 0 240.5 -63.5t95.5 -157.5q0 -299 -811 -347q-10 -39 -11 -73q0 -268 283 -269q92 0 174 28t213 101l53 -55q-256 -197 -504 -196q-190 0 -316 109.5t-126 273.5zM381 522h27q133 0 259 28t219 91.5t93 149.5q0 66 -50 106.5 t-130 40.5q-41 0 -86 -13.5t-107.5 -51t-123 -129t-101.5 -222.5zM506 1274q0 55 44 97t101 42q43 0 72 -28.5t29 -73.5q0 -57 -44 -100.5t-104 -43.5q-45 0 -71.5 30t-26.5 77zM879 1274q0 55 44 97t101 42q43 0 71.5 -28.5t28.5 -73.5q0 -57 -44 -100.5t-103 -43.5 q-45 0 -71.5 30t-26.5 77z" />
<glyph unicode="&#xec;" horiz-adv-x="573" d="M180 891l10 59q145 12 287 45h78l-133 -733q-4 -37 -4 -53q0 -53 29.5 -87t78.5 -34q59 0 146 88l47 -43q-139 -152 -295 -151q-90 0 -143.5 56t-53.5 152q0 39 6 72l86 471q4 18 5 51q0 45 -28 69t-91 34zM332 1356q14 35 49 61.5t70 26.5q63 -2 131 -111l92 -139 l-47 -59l-199 92q-123 55 -96 129z" />
<glyph unicode="&#xed;" horiz-adv-x="573" d="M180 891l10 59q145 12 287 45h78l-133 -733q-4 -37 -4 -53q0 -53 29.5 -87t78.5 -34q59 0 146 88l47 -43q-139 -152 -295 -151q-90 0 -143.5 56t-53.5 152q0 39 6 72l86 471q4 18 5 51q0 45 -28 69t-91 34zM342 1194l141 139q106 109 172 111q35 0 60.5 -26.5t25.5 -61.5 q0 -74 -143 -129l-231 -92z" />
<glyph unicode="&#xee;" horiz-adv-x="573" d="M180 891l10 59q145 12 287 45h78l-133 -733q-4 -37 -4 -53q0 -53 29.5 -87t78.5 -34q59 0 146 88l47 -43q-139 -152 -295 -151q-90 0 -143.5 56t-53.5 152q0 39 6 72l86 471q4 18 5 51q0 45 -28 69t-91 34zM190 1217l340 202l281 -202l-51 -52l-252 92l-272 -94z" />
<glyph unicode="&#xef;" horiz-adv-x="573" d="M180 891l10 59q145 12 287 45h78l-133 -733q-4 -37 -4 -53q0 -53 29.5 -87t78.5 -34q59 0 146 88l47 -43q-139 -152 -295 -151q-90 0 -143.5 56t-53.5 152q0 39 6 72l86 471q4 18 5 51q0 45 -28 69t-91 34zM207 1274q0 55 44 97t101 42q43 0 72 -28.5t29 -73.5 q0 -57 -44 -100.5t-104 -43.5q-45 0 -71.5 30t-26.5 77zM580 1274q0 55 44 97t101 42q43 0 71.5 -28.5t28.5 -73.5q0 -57 -44 -100.5t-103 -43.5q-45 0 -71.5 30t-26.5 77z" />
<glyph unicode="&#xf0;" horiz-adv-x="1105" d="M133 391q0 250 179.5 436.5t418.5 186.5q127 0 211 -56q-27 119 -96 230l-342 -66l-17 80l306 58q-80 92 -213 155l45 53q186 -63 311 -182l362 70l17 -78l-316 -59q174 -219 175 -531q0 -178 -49.5 -313t-119 -208t-160.5 -117t-156.5 -56t-127.5 -12 q-193 0 -310.5 112.5t-117.5 296.5zM332 360q0 -139 63.5 -215.5t179.5 -76.5q109 0 190 66.5t121 166.5t58.5 187t18.5 155q0 72 -16.5 125t-41 83t-58.5 48.5t-60.5 23.5t-53.5 5q-127 0 -223 -101.5t-137 -227.5t-41 -239z" />
<glyph unicode="&#xf1;" d="M180 891l10 59q145 12 287 45h78l-27 -147q236 166 430 166q119 0 186.5 -51.5t67.5 -141.5q0 -84 -24 -170l-62 -336q-14 -84 -14 -112q0 -47 28.5 -81t69.5 -34q49 0 127 78l41 -45q-115 -139 -266 -139q-82 0 -136 55t-54 139q0 55 22 176l60 322q18 111 18 123 q0 55 -38 88t-103 33q-154 0 -371 -166l-135 -752h-189l133 733q4 37 5 51q0 43 -25 66.5t-94 36.5zM547 1217q33 74 89 114.5t126 40.5q41 0 133 -21.5t113 -21.5q51 0 110 47h60q-78 -170 -234 -170q-31 0 -118 21.5t-124 21.5q-59 0 -92 -32h-63z" />
<glyph unicode="&#xf2;" horiz-adv-x="1105" d="M133 389q0 244 173 434.5t439 190.5q193 0 309.5 -116t116.5 -304q0 -254 -178 -433t-432 -179q-193 0 -310.5 112.5t-117.5 294.5zM332 360q0 -139 63.5 -215.5t179.5 -76.5q109 0 190 66.5t121 166.5t58.5 187t18.5 155q0 160 -70 222.5t-160 62.5q-100 0 -181 -59.5 t-127 -150.5t-69.5 -184.5t-23.5 -173.5zM612 1356q14 35 49 61.5t70 26.5q63 -2 131 -111l92 -139l-47 -59l-198 92q-124 55 -97 129z" />
<glyph unicode="&#xf3;" horiz-adv-x="1105" d="M133 389q0 244 173 434.5t439 190.5q193 0 309.5 -116t116.5 -304q0 -254 -178 -433t-432 -179q-193 0 -310.5 112.5t-117.5 294.5zM332 360q0 -139 63.5 -215.5t179.5 -76.5q109 0 190 66.5t121 166.5t58.5 187t18.5 155q0 160 -70 222.5t-160 62.5q-100 0 -181 -59.5 t-127 -150.5t-69.5 -184.5t-23.5 -173.5zM623 1194l141 139q109 109 172 111q35 0 60.5 -26.5t25.5 -61.5q0 -74 -143 -129l-232 -92z" />
<glyph unicode="&#xf4;" horiz-adv-x="1105" d="M133 389q0 244 173 434.5t439 190.5q193 0 309.5 -116t116.5 -304q0 -254 -178 -433t-432 -179q-193 0 -310.5 112.5t-117.5 294.5zM332 360q0 -139 63.5 -215.5t179.5 -76.5q109 0 190 66.5t121 166.5t58.5 187t18.5 155q0 160 -70 222.5t-160 62.5q-100 0 -181 -59.5 t-127 -150.5t-69.5 -184.5t-23.5 -173.5zM471 1217l340 202l281 -202l-52 -52l-252 92l-272 -94z" />
<glyph unicode="&#xf5;" horiz-adv-x="1105" d="M133 389q0 244 173 434.5t439 190.5q193 0 309.5 -116t116.5 -304q0 -254 -178 -433t-432 -179q-193 0 -310.5 112.5t-117.5 294.5zM332 360q0 -139 63.5 -215.5t179.5 -76.5q109 0 190 66.5t121 166.5t58.5 187t18.5 155q0 160 -70 222.5t-160 62.5q-100 0 -181 -59.5 t-127 -150.5t-69.5 -184.5t-23.5 -173.5zM481 1217q33 74 89.5 114.5t125.5 40.5q41 0 133.5 -21.5t112.5 -21.5q51 0 111 47h59q-78 -170 -233 -170q-31 0 -118 21.5t-124 21.5q-59 0 -92 -32h-64z" />
<glyph unicode="&#xf6;" horiz-adv-x="1105" d="M133 389q0 244 173 434.5t439 190.5q193 0 309.5 -116t116.5 -304q0 -254 -178 -433t-432 -179q-193 0 -310.5 112.5t-117.5 294.5zM332 360q0 -139 63.5 -215.5t179.5 -76.5q109 0 190 66.5t121 166.5t58.5 187t18.5 155q0 160 -70 222.5t-160 62.5q-100 0 -181 -59.5 t-127 -150.5t-69.5 -184.5t-23.5 -173.5zM487 1274q0 55 44 97t102 42q43 0 71.5 -28.5t28.5 -73.5q0 -57 -44 -100.5t-103 -43.5q-45 0 -72 30t-27 77zM860 1274q0 55 44 97t102 42q43 0 71.5 -28.5t28.5 -73.5q0 -57 -44 -100.5t-104 -43.5q-45 0 -71.5 30t-26.5 77z" />
<glyph unicode="&#xf7;" horiz-adv-x="1228" d="M184 432v160h1065v-160h-1065zM586 164q0 53 39 92t92 39t92 -39t39 -92q0 -55 -39 -93t-92 -38t-92 38t-39 93zM586 860q0 55 39 93t92 38t92 -38t39 -93q0 -53 -39 -92t-92 -39t-92 39t-39 92z" />
<glyph unicode="&#xf8;" horiz-adv-x="1105" d="M133 389q0 141 67.5 281.5t211 242t327.5 101.5q113 0 222 -51l102 129h82l-127 -164q82 -70 116.5 -146.5t34.5 -185.5q0 -256 -179 -435t-437 -179q-102 0 -227 55l-105 -137h-86l135 176q-137 123 -137 313zM332 338q0 -61 35 -141l520 671q-66 59 -158 60 q-104 0 -185 -64.5t-125 -161t-65.5 -190.5t-21.5 -174zM401 135q76 -68 178.5 -67.5t181.5 60.5t123 152.5t65.5 187.5t21.5 179q0 76 -45 164z" />
<glyph unicode="&#xf9;" d="M180 891l10 59q145 12 287 45h78l-127 -702q-10 -55 -10 -82q0 -57 33.5 -90t91.5 -33q84 0 168 37t209 127l135 743h188l-121 -669q-10 -66 -10 -107q0 -131 98 -131q78 0 148 90l47 -43q-131 -154 -289 -153q-88 0 -143 49t-68 139q-78 -76 -200.5 -132t-247.5 -56 q-109 0 -169.5 50t-60.5 140q0 53 13 123l79 438q4 16 5 43q0 90 -119 111zM676 1356q14 35 49 61.5t70 26.5q63 -2 131 -111l92 -139l-47 -59l-199 92q-123 55 -96 129z" />
<glyph unicode="&#xfa;" d="M180 891l10 59q145 12 287 45h78l-127 -702q-10 -55 -10 -82q0 -57 33.5 -90t91.5 -33q84 0 168 37t209 127l135 743h188l-121 -669q-10 -66 -10 -107q0 -131 98 -131q78 0 148 90l47 -43q-131 -154 -289 -153q-88 0 -143 49t-68 139q-78 -76 -200.5 -132t-247.5 -56 q-109 0 -169.5 50t-60.5 140q0 53 13 123l79 438q4 16 5 43q0 90 -119 111zM686 1194l141 139q106 109 172 111q35 0 60.5 -26.5t25.5 -61.5q0 -74 -143 -129l-231 -92z" />
<glyph unicode="&#xfb;" d="M180 891l10 59q145 12 287 45h78l-127 -702q-10 -55 -10 -82q0 -57 33.5 -90t91.5 -33q84 0 168 37t209 127l135 743h188l-121 -669q-10 -66 -10 -107q0 -131 98 -131q78 0 148 90l47 -43q-131 -154 -289 -153q-88 0 -143 49t-68 139q-78 -76 -200.5 -132t-247.5 -56 q-109 0 -169.5 50t-60.5 140q0 53 13 123l79 438q4 16 5 43q0 90 -119 111zM535 1217l339 202l281 -202l-51 -52l-252 92l-272 -94z" />
<glyph unicode="&#xfc;" d="M180 891l10 59q145 12 287 45h78l-127 -702q-10 -55 -10 -82q0 -57 33.5 -90t91.5 -33q84 0 168 37t209 127l135 743h188l-121 -669q-10 -66 -10 -107q0 -131 98 -131q78 0 148 90l47 -43q-131 -154 -289 -153q-88 0 -143 49t-68 139q-78 -76 -200.5 -132t-247.5 -56 q-109 0 -169.5 50t-60.5 140q0 53 13 123l79 438q4 16 5 43q0 90 -119 111zM551 1274q0 55 44 97t101 42q43 0 72 -28.5t29 -73.5q0 -57 -44 -100.5t-104 -43.5q-45 0 -71.5 30t-26.5 77zM924 1274q0 55 44 97t101 42q43 0 71.5 -28.5t28.5 -73.5q0 -57 -44 -100.5 t-103 -43.5q-45 0 -71.5 30t-26.5 77z" />
<glyph unicode="&#xfd;" horiz-adv-x="1228" d="M123 -297q0 39 30.5 62.5t77.5 23.5q68 0 107 -68q59 -98 174 -98q133 0 234.5 103.5t132.5 271.5l30 170q-98 -86 -213.5 -136t-220.5 -50q-119 0 -185.5 53t-66.5 147q0 63 10 125l78 426q4 37 4 51q0 43 -24.5 66.5t-93.5 36.5l-25 4l10 59q152 14 287 45h78 l-125 -688q-12 -66 -12 -98q0 -57 36.5 -94t96.5 -37q188 0 381 174l135 743h188l-182 -1001q-23 -129 -93.5 -222.5t-163.5 -139.5t-177 -65.5t-162 -19.5q-141 0 -243.5 46.5t-102.5 109.5zM645 1194l141 139q106 109 172 111q35 0 60.5 -26.5t25.5 -61.5q0 -74 -143 -129 l-231 -92z" />
<glyph unicode="&#xfe;" horiz-adv-x="1228" d="M-49 -434l10 59l35 4q80 8 118 43t52 109l258 1421q6 27 6 49q0 51 -29.5 73t-91.5 32l-24 4l10 59q150 12 287 45h77l-133 -741q59 133 171 212t241 79q150 0 241 -101.5t91 -269.5q0 -262 -170 -461.5t-393 -199.5q-184 0 -293 131l-60 -332q-4 -16 -4 -45 q0 -94 121 -107l31 -4l-10 -59h-541zM430 195q82 -117 234 -117q125 0 224 101.5t145 239.5t46 275q0 100 -49 162t-129 62q-123 0 -233.5 -113t-165.5 -305q-14 -41 -56 -228q0 -2 -1 -7l-5 -24z" />
<glyph unicode="&#xff;" horiz-adv-x="1228" d="M123 -297q0 39 30.5 62.5t77.5 23.5q68 0 107 -68q59 -98 174 -98q133 0 234.5 103.5t132.5 271.5l30 170q-98 -86 -213.5 -136t-220.5 -50q-119 0 -185.5 53t-66.5 147q0 63 10 125l78 426q4 37 4 51q0 43 -24.5 66.5t-93.5 36.5l-25 4l10 59q152 14 287 45h78 l-125 -688q-12 -66 -12 -98q0 -57 36.5 -94t96.5 -37q188 0 381 174l135 743h188l-182 -1001q-23 -129 -93.5 -222.5t-163.5 -139.5t-177 -65.5t-162 -19.5q-141 0 -243.5 46.5t-102.5 109.5zM510 1274q0 55 44 97t101 42q43 0 72 -28.5t29 -73.5q0 -57 -44 -100.5 t-104 -43.5q-45 0 -71.5 30t-26.5 77zM883 1274q0 55 44 97t101 42q43 0 71.5 -28.5t28.5 -73.5q0 -57 -44 -100.5t-103 -43.5q-45 0 -71.5 30t-26.5 77z" />
<glyph unicode="&#x100;" horiz-adv-x="1433" d="M-51 0l10 59l27 4q96 23 147 74t148 221l583 1037h197l217 -1076q31 -152 59.5 -193.5t112.5 -62.5l25 -4l-11 -59h-555l11 59l24 4q80 12 109.5 42t29.5 79q0 37 -10 95l-45 239h-524l-109 -196q-53 -98 -53 -156q0 -80 129 -103l25 -4l-11 -59h-536zM551 600h467 l-129 625zM692 1573l39 117h588l-39 -117h-588z" />
<glyph unicode="&#x101;" d="M145 360q0 262 176.5 458t413.5 196q186 0 297 -123l19 104h188l-121 -667q-14 -74 -14 -113q0 -45 31.5 -78t76.5 -33q82 0 148 80l45 -43q-45 -68 -132 -113.5t-167 -45.5q-55 0 -97 25.5t-61.5 63.5t-29 69.5t-9.5 56.5q0 18 2 32q-182 -248 -413 -247 q-158 0 -255.5 104t-97.5 274zM344 309q0 -102 52.5 -166.5t138.5 -64.5q84 0 171 56t144 147q55 88 91 198.5t75 325.5q-102 113 -235.5 113t-238 -102.5t-151.5 -239t-47 -267.5zM535 1233l38 117h588l-39 -117h-587z" />
<glyph unicode="&#x102;" horiz-adv-x="1433" d="M-51 0l10 59l27 4q96 23 147 74t148 221l583 1037h197l217 -1076q31 -152 59.5 -193.5t112.5 -62.5l25 -4l-11 -59h-555l11 59l24 4q80 12 109.5 42t29.5 79q0 37 -10 95l-45 239h-524l-109 -196q-53 -98 -53 -156q0 -80 129 -103l25 -4l-11 -59h-536zM551 600h467 l-129 625zM649 1708l53 23q88 -76 291 -76q199 0 303 74l50 -19q-63 -96 -146.5 -137t-212.5 -41q-242 0 -338 176z" />
<glyph unicode="&#x103;" d="M145 360q0 262 176.5 458t413.5 196q186 0 297 -123l19 104h188l-121 -667q-14 -74 -14 -113q0 -45 31.5 -78t76.5 -33q82 0 148 80l45 -43q-45 -68 -132 -113.5t-167 -45.5q-55 0 -97 25.5t-61.5 63.5t-29 69.5t-9.5 56.5q0 18 2 32q-182 -248 -413 -247 q-158 0 -255.5 104t-97.5 274zM344 309q0 -102 52.5 -166.5t138.5 -64.5q84 0 171 56t144 147q55 88 91 198.5t75 325.5q-102 113 -235.5 113t-238 -102.5t-151.5 -239t-47 -267.5zM522 1376l49 25q78 -84 265 -84q180 0 274 82l45 -21q-57 -106 -133 -152t-193 -46 q-219 -1 -307 196z" />
<glyph unicode="&#x104;" horiz-adv-x="1433" d="M-51 0l10 59l27 4q96 23 147 74t148 221l583 1037h197l217 -1076q31 -152 59.5 -193.5t112.5 -62.5l25 -4l-11 -59h-110q-117 0 -195 -94q-66 -80 -65 -160q0 -45 32.5 -72.5t81.5 -27.5q78 0 144 49l49 -43q-113 -123 -266 -123q-88 0 -148.5 49t-60.5 127 q0 143 219 295h-236l11 59l24 4q80 12 109.5 42t29.5 79q0 37 -10 95l-45 239h-524l-109 -196q-53 -98 -53 -156q0 -80 129 -103l25 -4l-11 -59h-536zM551 600h467l-129 625z" />
<glyph unicode="&#x105;" d="M145 360q0 262 176.5 458t413.5 196q186 0 297 -123l19 104h188l-121 -667q-14 -74 -14 -113q0 -45 31.5 -78t76.5 -33q82 0 148 80l45 -43q-57 -84 -166 -129q-119 -53 -164 -106q-66 -76 -65 -160q0 -45 32.5 -72.5t81.5 -27.5q80 0 144 49l49 -43q-113 -123 -266 -123 q-88 0 -148.5 49t-60.5 127q0 141 205 285q-72 23 -105 89t-33 118q0 18 2 32q-182 -248 -413 -247q-158 0 -255.5 104t-97.5 274zM344 309q0 -102 52.5 -166.5t138.5 -64.5q84 0 171 56t144 147q55 88 91 198.5t75 325.5q-102 113 -235.5 113t-238 -102.5t-151.5 -239 t-47 -267.5z" />
<glyph unicode="&#x106;" horiz-adv-x="1474" d="M180 563q0 350 245 604t585 254q111 0 193.5 -29.5t174.5 -101.5l62 105h88v-486h-78q-74 223 -173 319.5t-253 96.5q-260 0 -442.5 -244.5t-182.5 -562.5v-4q0 -205 119 -324.5t320 -119.5q174 0 323.5 90t251.5 256l84 -41q-100 -190 -291.5 -296t-414.5 -106 q-274 0 -442.5 162t-168.5 428zM856 1544l156 125q125 100 188 100q39 0 67.5 -23.5t28.5 -55.5q0 -63 -159 -115l-254 -84z" />
<glyph unicode="&#x107;" horiz-adv-x="983" d="M133 389q0 248 187.5 436.5t433.5 188.5q133 0 224 -63.5t91 -157.5q0 -53 -34 -89t-85 -36q-35 0 -56.5 19.5t-21.5 49.5q0 4 3.5 24.5t3.5 39.5q0 59 -43 98t-111 39q-109 0 -200 -97.5t-137 -228.5t-46 -252q0 -125 72.5 -203.5t189.5 -78.5q164 0 363 166l45 -51 q-82 -94 -212 -152.5t-255 -58.5q-182 0 -297 113.5t-115 293.5zM610 1194l142 139q109 109 172 111q35 0 60.5 -26.5t25.5 -61.5q0 -74 -144 -129l-231 -92z" />
<glyph unicode="&#x108;" horiz-adv-x="1474" d="M180 563q0 350 245 604t585 254q111 0 193.5 -29.5t174.5 -101.5l62 105h88v-486h-78q-74 223 -173 319.5t-253 96.5q-260 0 -442.5 -244.5t-182.5 -562.5v-4q0 -205 119 -324.5t320 -119.5q174 0 323.5 90t251.5 256l84 -41q-100 -190 -291.5 -296t-414.5 -106 q-274 0 -442.5 162t-168.5 428zM694 1563l375 182l307 -182l-55 -45l-279 81l-299 -83z" />
<glyph unicode="&#x109;" horiz-adv-x="983" d="M133 389q0 248 187.5 436.5t433.5 188.5q133 0 224 -63.5t91 -157.5q0 -53 -34 -89t-85 -36q-35 0 -56.5 19.5t-21.5 49.5q0 4 3.5 24.5t3.5 39.5q0 59 -43 98t-111 39q-109 0 -200 -97.5t-137 -228.5t-46 -252q0 -125 72.5 -203.5t189.5 -78.5q164 0 363 166l45 -51 q-82 -94 -212 -152.5t-255 -58.5q-182 0 -297 113.5t-115 293.5zM459 1217l340 202l280 -202l-51 -52l-252 92l-272 -94z" />
<glyph unicode="&#x10a;" horiz-adv-x="1474" d="M180 563q0 350 245 604t585 254q111 0 193.5 -29.5t174.5 -101.5l62 105h88v-486h-78q-74 223 -173 319.5t-253 96.5q-260 0 -442.5 -244.5t-182.5 -562.5v-4q0 -205 119 -324.5t320 -119.5q174 0 323.5 90t251.5 256l84 -41q-100 -190 -291.5 -296t-414.5 -106 q-274 0 -442.5 162t-168.5 428zM924 1614q0 57 44 99t103 42q43 0 71.5 -28.5t28.5 -73.5q0 -57 -46 -101.5t-105 -44.5q-43 0 -69.5 30t-26.5 77z" />
<glyph unicode="&#x10b;" horiz-adv-x="983" d="M133 389q0 248 187.5 436.5t433.5 188.5q133 0 224 -63.5t91 -157.5q0 -53 -34 -89t-85 -36q-35 0 -56.5 19.5t-21.5 49.5q0 4 3.5 24.5t3.5 39.5q0 59 -43 98t-111 39q-109 0 -200 -97.5t-137 -228.5t-46 -252q0 -125 72.5 -203.5t189.5 -78.5q164 0 363 166l45 -51 q-82 -94 -212 -152.5t-255 -58.5q-182 0 -297 113.5t-115 293.5zM659 1274q0 57 44.5 99t103.5 42q43 0 71.5 -28.5t28.5 -73.5q0 -57 -46 -101.5t-105 -44.5q-43 0 -70 30t-27 77z" />
<glyph unicode="&#x10c;" horiz-adv-x="1474" d="M180 563q0 350 245 604t585 254q111 0 193.5 -29.5t174.5 -101.5l62 105h88v-486h-78q-74 223 -173 319.5t-253 96.5q-260 0 -442.5 -244.5t-182.5 -562.5v-4q0 -205 119 -324.5t320 -119.5q174 0 323.5 90t251.5 256l84 -41q-100 -190 -291.5 -296t-414.5 -106 q-274 0 -442.5 162t-168.5 428zM719 1698l55 45l279 -82l299 84l49 -47l-375 -182z" />
<glyph unicode="&#x10d;" horiz-adv-x="983" d="M133 389q0 248 187.5 436.5t433.5 188.5q133 0 224 -63.5t91 -157.5q0 -53 -34 -89t-85 -36q-35 0 -56.5 19.5t-21.5 49.5q0 4 3.5 24.5t3.5 39.5q0 59 -43 98t-111 39q-109 0 -200 -97.5t-137 -228.5t-46 -252q0 -125 72.5 -203.5t189.5 -78.5q164 0 363 166l45 -51 q-82 -94 -212 -152.5t-255 -58.5q-182 0 -297 113.5t-115 293.5zM479 1366l51 51l252 -92l273 94l45 -51l-340 -205z" />
<glyph unicode="&#x10e;" horiz-adv-x="1515" d="M43 0l10 59l35 4q84 10 122 52.5t58 146.5l158 871q10 41 10 69q0 115 -119 129l-32 4l12 60h670q147 0 260.5 -33t182.5 -85t114 -128t61.5 -153.5t16.5 -168.5q0 -92 -21.5 -192t-81 -217t-149.5 -207t-243 -150.5t-343 -60.5h-721zM463 180q0 -57 46 -78.5t159 -21.5 q164 0 293 54t205.5 136t128 189.5t69.5 204t18 188.5q0 215 -120.5 337t-335.5 122q-154 0 -213.5 -29t-73.5 -111l-172 -946q-4 -16 -4 -45zM621 1698l55 45l278 -82l299 84l50 -47l-375 -182z" />
<glyph unicode="&#x10f;" horiz-adv-x="1310" d="M133 367q0 262 176 454.5t418 192.5q178 0 313 -127l54 295q4 37 4 47q0 49 -27 71.5t-102 32.5l-33 4l12 60q176 18 301 67h84l-209 -1126q-18 -72 -18 -141q0 -49 29.5 -79t81.5 -30q39 0 72.5 18.5t86.5 71.5l47 -43q-137 -154 -309 -153q-84 0 -142.5 54t-58.5 130 q0 31 11 84q-12 -20 -31 -46t-59.5 -68t-87 -73.5t-116 -56t-143.5 -24.5q-160 0 -257 105.5t-97 279.5zM340 317q0 -109 53 -169t148 -60q182 0 319 203q51 78 82 168t64 252l16 86q-106 121 -250 121q-102 0 -188 -58.5t-137.5 -148.5t-79 -194t-27.5 -200zM1368 1034 q152 86 188 217q-41 -35 -81 -34q-37 0 -60.5 27.5t-23.5 70.5q0 61 45 105t108 44q47 0 79 -36.5t32 -94.5q0 -100 -75 -194.5t-194 -141.5z" />
<glyph unicode="&#x110;" horiz-adv-x="1515" d="M43 0l10 59l35 4q84 10 122 52.5t58 146.5l78 428h-178l16 88h178l64 355q10 41 10 69q0 115 -119 129l-32 4l12 60h670q147 0 260.5 -33t182.5 -85t114 -128t61.5 -153.5t16.5 -168.5q0 -92 -21.5 -192t-81 -217t-149.5 -207t-243 -150.5t-343 -60.5h-721zM461 178 q0 -55 47 -76.5t160 -21.5q164 0 293 54t205.5 136t128 189.5t69.5 204t18 188.5q0 215 -120.5 337t-335.5 122q-152 0 -212.5 -29t-74.5 -111l-72 -393h408l-14 -88h-410l-84 -465q-6 -29 -6 -47z" />
<glyph unicode="&#x111;" horiz-adv-x="1310" d="M133 367q0 262 176 454.5t418 192.5q178 0 313 -127l41 235h-364l14 76h365v31q0 51 -28 72.5t-99 31.5l-33 4l12 60q176 18 301 67h84l-49 -266h199l-15 -76h-198l-142 -784q-23 -106 -22 -141q0 -49 29.5 -79t81.5 -30q39 0 72.5 18.5t86.5 71.5l47 -43 q-137 -154 -309 -153q-84 0 -142.5 54t-58.5 130q0 20 11 84q-57 -82 -98.5 -123t-98.5 -76q-117 -70 -240 -69q-160 0 -257 105.5t-97 279.5zM352 324q0 -104 50.5 -162t140.5 -58q84 0 168 51.5t147 145.5q98 141 150 410l16 86q-98 94 -248 94q-166 0 -272 -133 q-152 -184 -152 -434z" />
<glyph unicode="&#x112;" horiz-adv-x="1392" d="M43 0l10 59l35 4q84 10 123 52.5t57 146.5l158 871q10 41 10 69q0 115 -119 129l-32 4l12 60h1133l77 -404l-86 -20q-96 193 -218 264.5t-310 71.5q-104 0 -160.5 -22.5t-72 -51.5t-25.5 -86l-68 -369h158q117 0 174 51.5t102 196.5h66l-106 -588h-66q2 14 2 41 q0 209 -176 209h-170l-82 -452q-4 -25 -4 -35q0 -61 48 -87t163 -26q250 0 457 135q117 76 249 223l66 -26l-203 -420h-1202zM629 1573l39 117h587l-38 -117h-588z" />
<glyph unicode="&#x113;" horiz-adv-x="1105" d="M133 365q0 256 214 452.5t495 196.5q145 0 240.5 -63.5t95.5 -157.5q0 -299 -811 -347q-10 -39 -11 -73q0 -268 283 -269q92 0 174 28t213 101l53 -55q-256 -197 -504 -196q-190 0 -316 109.5t-126 273.5zM381 522h27q133 0 259 28t219 91.5t93 149.5q0 66 -50 106.5 t-130 40.5q-41 0 -86 -13.5t-107.5 -51t-123 -129t-101.5 -222.5zM500 1233l39 117h587l-39 -117h-587z" />
<glyph unicode="&#x114;" horiz-adv-x="1392" d="M43 0l10 59l35 4q84 10 123 52.5t57 146.5l158 871q10 41 10 69q0 115 -119 129l-32 4l12 60h1133l77 -404l-86 -20q-96 193 -218 264.5t-310 71.5q-104 0 -160.5 -22.5t-72 -51.5t-25.5 -86l-68 -369h158q117 0 174 51.5t102 196.5h66l-106 -588h-66q2 14 2 41 q0 209 -176 209h-170l-82 -452q-4 -25 -4 -35q0 -61 48 -87t163 -26q250 0 457 135q117 76 249 223l66 -26l-203 -420h-1202zM586 1708l53 23q88 -76 291 -76q199 0 303 74l49 -19q-63 -96 -146 -137t-212 -41q-242 0 -338 176z" />
<glyph unicode="&#x115;" horiz-adv-x="1105" d="M133 365q0 256 214 452.5t495 196.5q145 0 240.5 -63.5t95.5 -157.5q0 -299 -811 -347q-10 -39 -11 -73q0 -268 283 -269q92 0 174 28t213 101l53 -55q-256 -197 -504 -196q-190 0 -316 109.5t-126 273.5zM381 522h27q133 0 259 28t219 91.5t93 149.5q0 66 -50 106.5 t-130 40.5q-41 0 -86 -13.5t-107.5 -51t-123 -129t-101.5 -222.5zM487 1376l50 25q78 -84 264 -84q180 0 274 82l45 -21q-57 -106 -133 -152t-192 -46q-218 -1 -308 196z" />
<glyph unicode="&#x116;" horiz-adv-x="1392" d="M43 0l10 59l35 4q84 10 123 52.5t57 146.5l158 871q10 41 10 69q0 115 -119 129l-32 4l12 60h1133l77 -404l-86 -20q-96 193 -218 264.5t-310 71.5q-104 0 -160.5 -22.5t-72 -51.5t-25.5 -86l-68 -369h158q117 0 174 51.5t102 196.5h66l-106 -588h-66q2 14 2 41 q0 209 -176 209h-170l-82 -452q-4 -25 -4 -35q0 -61 48 -87t163 -26q250 0 457 135q117 76 249 223l66 -26l-203 -420h-1202zM817 1614q0 57 44 99t104 42q43 0 71.5 -28.5t28.5 -73.5q0 -57 -46 -101.5t-106 -44.5q-43 0 -69.5 30t-26.5 77z" />
<glyph unicode="&#x117;" horiz-adv-x="1105" d="M133 365q0 256 214 452.5t495 196.5q145 0 240.5 -63.5t95.5 -157.5q0 -299 -811 -347q-10 -39 -11 -73q0 -268 283 -269q92 0 174 28t213 101l53 -55q-256 -197 -504 -196q-190 0 -316 109.5t-126 273.5zM381 522h27q133 0 259 28t219 91.5t93 149.5q0 66 -50 106.5 t-130 40.5q-41 0 -86 -13.5t-107.5 -51t-123 -129t-101.5 -222.5zM690 1274q0 57 44 99t104 42q43 0 71.5 -28.5t28.5 -73.5q0 -57 -46 -101.5t-106 -44.5q-43 0 -69.5 30t-26.5 77z" />
<glyph unicode="&#x118;" horiz-adv-x="1392" d="M43 0l10 59l35 4q84 10 123 52.5t57 146.5l158 871q10 41 10 69q0 115 -119 129l-32 4l12 60h1133l77 -404l-86 -20q-96 193 -218 264.5t-310 71.5q-104 0 -160.5 -22.5t-72 -51.5t-25.5 -86l-68 -369h158q117 0 174 51.5t102 196.5h66l-106 -588h-66q2 14 2 41 q0 209 -176 209h-170l-82 -452q-4 -25 -4 -35q0 -61 48 -87t163 -26q250 0 457 135q117 76 249 223l66 -26l-203 -420q-98 0 -178 -94q-66 -80 -66 -160q0 -45 33 -72.5t82 -27.5q80 0 144 49l49 -43q-113 -123 -267 -123q-88 0 -148 49t-60 127q0 143 219 295h-1010z" />
<glyph unicode="&#x119;" horiz-adv-x="1105" d="M133 365q0 256 214 452.5t495 196.5q145 0 240.5 -63.5t95.5 -157.5q0 -299 -811 -347q-10 -39 -11 -73q0 -268 283 -269q92 0 174 28t213 101l53 -55q-123 -94 -254 -147q-119 -45 -186 -125q-66 -80 -66 -160q0 -45 33 -72.5t82 -27.5q78 0 143 49l50 -43 q-113 -123 -267 -123q-88 0 -148 49t-60 127q0 139 194 277h-25q-190 0 -316 109.5t-126 273.5zM381 522h27q133 0 259 28t219 91.5t93 149.5q0 66 -50 106.5t-130 40.5q-41 0 -86 -13.5t-107.5 -51t-123 -129t-101.5 -222.5z" />
<glyph unicode="&#x11a;" horiz-adv-x="1392" d="M43 0l10 59l35 4q84 10 123 52.5t57 146.5l158 871q10 41 10 69q0 115 -119 129l-32 4l12 60h1133l77 -404l-86 -20q-96 193 -218 264.5t-310 71.5q-104 0 -160.5 -22.5t-72 -51.5t-25.5 -86l-68 -369h158q117 0 174 51.5t102 196.5h66l-106 -588h-66q2 14 2 41 q0 209 -176 209h-170l-82 -452q-4 -25 -4 -35q0 -61 48 -87t163 -26q250 0 457 135q117 76 249 223l66 -26l-203 -420h-1202zM612 1698l56 45l278 -82l299 84l49 -47l-374 -182z" />
<glyph unicode="&#x11b;" horiz-adv-x="1105" d="M133 365q0 256 214 452.5t495 196.5q145 0 240.5 -63.5t95.5 -157.5q0 -299 -811 -347q-10 -39 -11 -73q0 -268 283 -269q92 0 174 28t213 101l53 -55q-256 -197 -504 -196q-190 0 -316 109.5t-126 273.5zM381 522h27q133 0 259 28t219 91.5t93 149.5q0 66 -50 106.5 t-130 40.5q-41 0 -86 -13.5t-107.5 -51t-123 -129t-101.5 -222.5zM510 1366l51 51l252 -92l272 94l45 -51l-339 -205z" />
<glyph unicode="&#x11c;" horiz-adv-x="1556" d="M180 563q0 354 232.5 606t558.5 252q246 0 381 -125l51 99h61l43 -439h-63q-188 369 -463 369q-170 0 -307 -126t-206 -306t-69 -365q0 -106 27 -189t69 -132t96 -81t104 -44t100 -12q193 0 327.5 115.5t134.5 279.5q0 59 -31.5 90t-105.5 45l-22 4l10 60h557l-10 -60 l-29 -4q-74 -10 -115 -58t-57 -141l-74 -401h-110l-33 152q-88 -82 -221 -130.5t-275 -48.5q-248 0 -404.5 164t-156.5 426zM688 1563l375 182l307 -182l-55 -45l-279 81l-299 -83z" />
<glyph unicode="&#x11d;" horiz-adv-x="1146" d="M8 -283q0 41 35 71t82 30q74 0 106 -66q39 -78 85 -103.5t112 -25.5q143 0 254 111.5t143 290.5l39 217q-70 -121 -178 -190.5t-227 -69.5q-152 0 -245 104t-93 276q0 264 170 458t401 194q174 0 285 -129l47 110h166l-166 -909q-98 -539 -635 -539q-152 0 -266.5 51 t-114.5 119zM319 309q0 -109 48.5 -170t132.5 -61q86 0 172 61.5t145 163.5q51 88 77 177t69 319l-19 20q-18 23 -32.5 34t-43 28.5t-64.5 27t-79 9.5q-119 0 -215 -101.5t-143.5 -239t-47.5 -268.5zM469 1217l340 202l281 -202l-52 -52l-252 92l-272 -94z" />
<glyph unicode="&#x11e;" horiz-adv-x="1556" d="M180 563q0 354 232.5 606t558.5 252q246 0 381 -125l51 99h61l43 -439h-63q-188 369 -463 369q-170 0 -307 -126t-206 -306t-69 -365q0 -106 27 -189t69 -132t96 -81t104 -44t100 -12q193 0 327.5 115.5t134.5 279.5q0 59 -31.5 90t-105.5 45l-22 4l10 60h557l-10 -60 l-29 -4q-74 -10 -115 -58t-57 -141l-74 -401h-110l-33 152q-88 -82 -221 -130.5t-275 -48.5q-248 0 -404.5 164t-156.5 426zM686 1708l53 23q88 -76 291 -76q199 0 303 74l49 -19q-63 -96 -146 -137t-212 -41q-242 0 -338 176z" />
<glyph unicode="&#x11f;" horiz-adv-x="1146" d="M8 -283q0 41 35 71t82 30q74 0 106 -66q39 -78 85 -103.5t112 -25.5q143 0 254 111.5t143 290.5l39 217q-70 -121 -178 -190.5t-227 -69.5q-152 0 -245 104t-93 276q0 264 170 458t401 194q174 0 285 -129l47 110h166l-166 -909q-98 -539 -635 -539q-152 0 -266.5 51 t-114.5 119zM319 309q0 -109 48.5 -170t132.5 -61q86 0 172 61.5t145 163.5q51 88 77 177t69 319l-19 20q-18 23 -32.5 34t-43 28.5t-64.5 27t-79 9.5q-119 0 -215 -101.5t-143.5 -239t-47.5 -268.5zM467 1376l49 25q78 -84 264 -84q180 0 275 82l45 -21q-57 -106 -133 -152 t-193 -46q-217 -1 -307 196z" />
<glyph unicode="&#x120;" horiz-adv-x="1556" d="M180 563q0 354 232.5 606t558.5 252q246 0 381 -125l51 99h61l43 -439h-63q-188 369 -463 369q-170 0 -307 -126t-206 -306t-69 -365q0 -106 27 -189t69 -132t96 -81t104 -44t100 -12q193 0 327.5 115.5t134.5 279.5q0 59 -31.5 90t-105.5 45l-22 4l10 60h557l-10 -60 l-29 -4q-74 -10 -115 -58t-57 -141l-74 -401h-110l-33 152q-88 -82 -221 -130.5t-275 -48.5q-248 0 -404.5 164t-156.5 426zM918 1614q0 57 44 99t103 42q43 0 71.5 -28.5t28.5 -73.5q0 -57 -46 -101.5t-105 -44.5q-43 0 -69.5 30t-26.5 77z" />
<glyph unicode="&#x121;" horiz-adv-x="1146" d="M8 -283q0 41 35 71t82 30q74 0 106 -66q39 -78 85 -103.5t112 -25.5q143 0 254 111.5t143 290.5l39 217q-70 -121 -178 -190.5t-227 -69.5q-152 0 -245 104t-93 276q0 264 170 458t401 194q174 0 285 -129l47 110h166l-166 -909q-98 -539 -635 -539q-152 0 -266.5 51 t-114.5 119zM319 309q0 -109 48.5 -170t132.5 -61q86 0 172 61.5t145 163.5q51 88 77 177t69 319l-19 20q-18 23 -32.5 34t-43 28.5t-64.5 27t-79 9.5q-119 0 -215 -101.5t-143.5 -239t-47.5 -268.5zM670 1274q0 57 44 99t103 42q43 0 72 -28.5t29 -73.5q0 -57 -46.5 -101.5 t-105.5 -44.5q-43 0 -69.5 30t-26.5 77z" />
<glyph unicode="&#x122;" horiz-adv-x="1556" d="M180 563q0 354 232.5 606t558.5 252q246 0 381 -125l51 99h61l43 -439h-63q-188 369 -463 369q-170 0 -307 -126t-206 -306t-69 -365q0 -106 27 -189t69 -132t96 -81t104 -44t100 -12q193 0 327.5 115.5t134.5 279.5q0 59 -31.5 90t-105.5 45l-22 4l10 60h557l-10 -60 l-29 -4q-74 -10 -115 -58t-57 -141l-74 -401h-110l-33 152q-88 -82 -221 -130.5t-275 -48.5q-248 0 -404.5 164t-156.5 426zM551 -535q152 86 188 218q-41 -35 -82 -35q-37 0 -60.5 27.5t-23.5 70.5q0 61 45.5 105.5t108.5 44.5q47 0 79 -37t32 -95q0 -100 -75 -194 t-194 -141z" />
<glyph unicode="&#x123;" horiz-adv-x="1146" d="M8 -283q0 41 35 71t82 30q74 0 106 -66q39 -78 85 -103.5t112 -25.5q143 0 254 111.5t143 290.5l39 217q-70 -121 -178 -190.5t-227 -69.5q-152 0 -245 104t-93 276q0 264 170 458t401 194q174 0 285 -129l47 110h166l-166 -909q-98 -539 -635 -539q-152 0 -266.5 51 t-114.5 119zM319 309q0 -109 48.5 -170t132.5 -61q86 0 172 61.5t145 163.5q51 88 77 177t69 319l-19 20q-18 23 -32.5 34t-43 28.5t-64.5 27t-79 9.5q-119 0 -215 -101.5t-143.5 -239t-47.5 -268.5zM651 1229q0 100 75 194.5t194 141.5l18 -37q-152 -86 -188 -217 q41 35 81 35q37 0 60.5 -28t23.5 -71q0 -61 -45 -105t-108 -44q-47 0 -79 37t-32 94z" />
<glyph unicode="&#x124;" horiz-adv-x="1638" d="M43 0l10 59l35 4q84 10 122 52.5t58 146.5l158 871q10 41 10 69q0 115 -119 129l-32 4l12 60h586l-13 -60l-57 -4q-86 -10 -125 -52t-57 -146l-62 -340h758l62 340q10 47 10 79q0 109 -121 119l-55 4l10 60h586l-11 -60l-34 -4q-84 -10 -122 -52t-59 -146l-157 -871 q-10 -41 -11 -72q0 -113 119 -127l33 -4l-12 -59h-586l12 59l58 4q86 10 124.5 52.5t57.5 146.5l80 449h-756l-82 -449q-8 -39 -8 -80q0 -111 119 -119l55 -4l-10 -59h-586zM748 1563l374 182l308 -182l-56 -45l-278 81l-299 -83z" />
<glyph unicode="&#x125;" d="M180 0l215 1182q4 37 4 47q0 49 -26.5 71.5t-102.5 32.5l-30 4l10 60q176 18 301 67h84l-113 -620q147 96 239.5 133t194.5 37q109 0 178.5 -51.5t69.5 -133.5q0 -45 -20 -163l-64 -353q-8 -43 -14 -116q0 -47 31.5 -78t81.5 -31q66 0 149 82l43 -45q-131 -143 -297 -143 q-84 0 -141.5 57t-57.5 141q0 47 13 115l76 416q10 57 10 82q0 55 -38 90t-97 35q-160 0 -375 -173l-135 -745h-189zM590 1632l375 183l307 -183l-55 -45l-279 82l-299 -84z" />
<glyph unicode="&#x126;" horiz-adv-x="1638" d="M43 0l10 59l35 4q84 10 122 52.5t58 146.5l135 744h-178l15 81h178l8 46q10 41 10 69q0 115 -119 129l-32 4l12 60h586l-13 -60l-57 -4q-86 -10 -125 -52t-57 -146l-8 -46h757l9 46q10 47 10 79q0 109 -121 119l-55 4l10 60h586l-11 -60l-34 -4q-84 -10 -122 -52 t-59 -146l-8 -46h178l-14 -81h-178l-135 -744q-10 -41 -11 -72q0 -113 119 -127l33 -4l-12 -59h-586l12 59l58 4q86 10 124.5 52.5t57.5 146.5l80 449h-756l-82 -449q-8 -39 -8 -80q0 -111 119 -119l55 -4l-10 -59h-586zM569 793h758l39 213h-758z" />
<glyph unicode="&#x127;" horiz-adv-x="1556" d="M262 987l12 70l195 53l12 72q4 37 4 47q0 49 -26.5 71.5t-102.5 32.5l-30 4l10 60q176 18 301 67h84l-55 -299l280 78l-12 -69l-281 -78l-45 -252q147 96 239.5 133t194.5 37q109 0 178.5 -51.5t69.5 -133.5q0 -45 -20 -163l-64 -353q-8 -43 -14 -116q0 -47 31.5 -78 t81.5 -31q66 0 149 82l43 -45q-131 -143 -297 -143q-84 0 -141.5 57t-57.5 141q0 47 13 115l76 416q10 57 10 82q0 55 -38 90t-97 35q-160 0 -375 -173l-135 -745h-189l191 1042z" />
<glyph unicode="&#x128;" horiz-adv-x="655" d="M43 0l10 59l35 4q82 12 119 54.5t55 144.5l158 871q10 72 10 77q0 106 -113 121l-32 4l12 60h547l-10 -60l-35 -4q-82 -12 -119 -54t-55 -144l-158 -871q-8 -39 -8 -78q0 -106 110 -121l33 -4l-12 -59h-547zM299 1556q33 74 89 115t126 41q39 0 131 -21.5t115 -21.5 q51 0 110 47h60q-78 -170 -234 -170q-31 0 -117.5 21.5t-123.5 21.5q-59 0 -93 -33h-63z" />
<glyph unicode="&#x129;" horiz-adv-x="573" d="M180 891l10 59q145 12 287 45h78l-133 -733q-4 -37 -4 -53q0 -53 29.5 -87t78.5 -34q59 0 146 88l47 -43q-139 -152 -295 -151q-90 0 -143.5 56t-53.5 152q0 39 6 72l86 471q4 18 5 51q0 45 -28 69t-91 34zM201 1217q33 74 89 114.5t126 40.5q39 0 131 -21.5t115 -21.5 q51 0 110 47h59q-78 -170 -233 -170q-31 0 -118 21.5t-124 21.5q-59 0 -92 -32h-63z" />
<glyph unicode="&#x12a;" horiz-adv-x="655" d="M43 0l10 59l35 4q82 12 119 54.5t55 144.5l158 871q10 72 10 77q0 106 -113 121l-32 4l12 60h547l-10 -60l-35 -4q-82 -12 -119 -54t-55 -144l-158 -871q-8 -39 -8 -78q0 -106 110 -121l33 -4l-12 -59h-547zM301 1573l39 117h588l-39 -117h-588z" />
<glyph unicode="&#x12b;" horiz-adv-x="573" d="M180 891l10 59q145 12 287 45h78l-133 -733q-4 -37 -4 -53q0 -53 29.5 -87t78.5 -34q59 0 146 88l47 -43q-139 -152 -295 -151q-90 0 -143.5 56t-53.5 152q0 39 6 72l86 471q4 18 5 51q0 45 -28 69t-91 34zM201 1233l39 117h587l-39 -117h-587z" />
<glyph unicode="&#x12c;" horiz-adv-x="655" d="M43 0l10 59l35 4q82 12 119 54.5t55 144.5l158 871q10 72 10 77q0 106 -113 121l-32 4l12 60h547l-10 -60l-35 -4q-82 -12 -119 -54t-55 -144l-158 -871q-8 -39 -8 -78q0 -106 110 -121l33 -4l-12 -59h-547zM258 1708l53 23q88 -76 291 -76q199 0 303 74l49 -19 q-63 -96 -146 -137t-212 -41q-242 0 -338 176z" />
<glyph unicode="&#x12d;" horiz-adv-x="573" d="M180 891l10 59q145 12 287 45h78l-133 -733q-4 -37 -4 -53q0 -53 29.5 -87t78.5 -34q59 0 146 88l47 -43q-139 -152 -295 -151q-90 0 -143.5 56t-53.5 152q0 39 6 72l86 471q4 18 5 51q0 45 -28 69t-91 34zM188 1376l50 25q78 -84 264 -84q180 0 274 82l45 -21 q-57 -106 -133 -152t-192 -46q-218 -1 -308 196z" />
<glyph unicode="&#x12e;" horiz-adv-x="655" d="M43 0l10 59l35 4q82 12 119 54.5t55 144.5l158 871q10 72 10 77q0 106 -113 121l-32 4l12 60h547l-10 -60l-35 -4q-82 -12 -119 -54t-55 -144l-158 -871q-8 -39 -8 -78q0 -106 110 -121l33 -4l-12 -59h-119q-106 0 -184 -94q-66 -80 -66 -160q0 -45 33 -72.5t82 -27.5 q78 0 143 49l49 -43q-113 -123 -266 -123q-88 0 -148.5 49t-60.5 127q0 143 219 295h-229z" />
<glyph unicode="&#x12f;" horiz-adv-x="573" d="M156 -295q0 141 204 285q-63 16 -98 69.5t-35 130.5q0 39 6 72l86 471q4 18 5 51q0 45 -28 69t-91 34l-25 4l10 59q145 12 287 45h78l-133 -733q-4 -37 -4 -53q0 -53 29.5 -87t78.5 -34q59 0 146 88l47 -43q-88 -94 -174 -127q-113 -47 -156 -100q-66 -80 -65 -160 q0 -45 32.5 -72.5t81.5 -27.5q78 0 144 49l49 -43q-113 -123 -266 -123q-88 0 -148.5 49t-60.5 127zM391 1274q0 57 44 99t104 42q43 0 71.5 -28.5t28.5 -73.5q0 -57 -46 -101.5t-106 -44.5q-43 0 -69.5 30t-26.5 77z" />
<glyph unicode="&#x130;" horiz-adv-x="655" d="M43 0l10 59l35 4q82 12 119 54.5t55 144.5l158 871q10 72 10 77q0 106 -113 121l-32 4l12 60h547l-10 -60l-35 -4q-82 -12 -119 -54t-55 -144l-158 -871q-8 -39 -8 -78q0 -106 110 -121l33 -4l-12 -59h-547zM489 1614q0 57 44.5 99t103.5 42q43 0 71.5 -28.5t28.5 -73.5 q0 -57 -46 -101.5t-105 -44.5q-43 0 -70 30t-27 77z" />
<glyph unicode="&#x131;" horiz-adv-x="573" d="M180 891l10 59q145 12 287 45h78l-133 -733q-4 -37 -4 -53q0 -53 29.5 -87t78.5 -34q59 0 146 88l47 -43q-139 -152 -295 -151q-90 0 -143.5 56t-53.5 152q0 39 6 72l86 471q4 18 5 51q0 45 -28 69t-91 34z" />
<glyph unicode="&#x134;" horiz-adv-x="1146" d="M-4 326q0 102 52 170.5t128 68.5q43 0 70.5 -24.5t27.5 -63.5q0 -57 -75 -125q-45 -39 -45 -94q0 -78 72.5 -133t179.5 -55q72 0 131 20.5t98 48t72.5 74.5t50 80t32 86t19.5 70.5t10 54.5l115 629q2 6 8 81q0 53 -25.5 81t-93.5 36l-30 4l10 60h561l-10 -60l-35 -4 q-86 -10 -124 -52t-56 -146l-111 -611q-10 -57 -17 -89t-27.5 -97.5t-46.5 -106.5t-72 -95t-103 -85t-143.5 -53.5t-190.5 -22.5q-193 0 -312.5 97.5t-119.5 255.5zM774 1563l375 182l307 -182l-55 -45l-279 81l-299 -83z" />
<glyph unicode="&#x135;" horiz-adv-x="573" d="M-410 -309q0 41 32 68.5t81 27.5q72 0 123 -82q29 -49 52.5 -65.5t60.5 -16.5q45 0 81.5 16.5t63.5 56.5t44 71.5t33.5 99t22.5 99.5l21 108l123 667q2 14 2 39q0 47 -27 70.5t-94 36.5l-23 4l11 59q147 12 286 45h78l-170 -932l-14 -75.5t-23.5 -87t-40 -102.5 t-62.5 -91t-91 -84t-126 -52.5t-167 -23.5q-117 0 -197 42.5t-80 101.5zM197 1217l340 202l280 -202l-51 -52l-252 92l-272 -94z" />
<glyph unicode="&#x136;" horiz-adv-x="1474" d="M43 0l10 59l35 4q84 10 122 52.5t58 146.5l158 871q10 41 10 69q0 115 -119 129l-32 4l12 60h575l-10 -60l-49 -4q-86 -10 -125 -52t-57 -146l-80 -445l600 475q57 47 57 92q0 59 -104 76l-25 4l11 60h557l-11 -60q-139 -35 -364 -205l-332 -249l363 -621 q59 -100 105 -139t138 -62l-12 -59h-594l10 59l33 4q129 18 129 76q0 25 -18 62l-314 559l-252 -193l-55 -305q-8 -39 -8 -80q0 -111 119 -119l47 -4l-10 -59h-578zM586 -535q152 86 188 218q-41 -35 -82 -35q-37 0 -60.5 27.5t-23.5 70.5q0 61 45 105.5t109 44.5 q47 0 78.5 -37t31.5 -95q0 -100 -74.5 -194t-193.5 -141z" />
<glyph unicode="&#x137;" horiz-adv-x="1228" d="M180 0l215 1182q4 37 4 49q0 45 -26.5 68.5t-100.5 33.5l-32 4l10 60q176 18 301 67h84l-191 -1052q84 133 137.5 201.5t127.5 136.5q274 264 514 264q55 0 89 -26.5t34 -67.5q0 -51 -38 -88t-89 -37q-41 0 -99 34q-41 25 -63 25q-49 0 -122 -40t-106 -85 q18 -217 103 -418q86 -207 231 -207q61 0 117 31l35 -47q-139 -106 -264 -106q-201 0 -297 237q-35 92 -92 363q-141 -150 -197.5 -262.5t-95.5 -319.5h-189zM422 -535q152 86 188 218q-41 -35 -82 -35q-37 0 -60.5 27.5t-23.5 70.5q0 61 45.5 105.5t108.5 44.5q47 0 79 -37 t32 -95q0 -100 -75 -194t-194 -141z" />
<glyph unicode="&#x139;" horiz-adv-x="1187" d="M43 0l10 59l35 4q84 10 122 52.5t58 146.5l158 871q10 41 10 69q0 115 -119 129l-32 4l12 60h561l-12 -60l-33 -4q-86 -10 -125 -52t-57 -146l-154 -848q-14 -76 -14 -109q0 -51 33.5 -73.5t128.5 -22.5q227 0 438 156q98 72 221 221l59 -29l-198 -428h-1102zM428 1544 l156 125q125 100 188 100q39 0 67.5 -23.5t28.5 -55.5q0 -63 -159 -115l-254 -84z" />
<glyph unicode="&#x13a;" horiz-adv-x="573" d="M205 174q0 47 16 139l158 869q4 37 4 49q0 47 -26.5 69.5t-102.5 32.5l-31 4l10 60q176 18 302 67h83l-204 -1128q-18 -98 -19 -129q0 -47 32 -78t81 -31q61 0 145 76l47 -43q-131 -150 -307 -149q-80 0 -134 55t-54 137zM344 1614l156 125q125 100 188 100 q39 0 67.5 -23.5t28.5 -56.5q0 -63 -159 -114l-254 -84z" />
<glyph unicode="&#x13b;" horiz-adv-x="1187" d="M43 0l10 59l35 4q84 10 122 52.5t58 146.5l158 871q10 41 10 69q0 115 -119 129l-32 4l12 60h561l-12 -60l-33 -4q-86 -10 -125 -52t-57 -146l-154 -848q-14 -76 -14 -109q0 -51 33.5 -73.5t128.5 -22.5q227 0 438 156q98 72 221 221l59 -29l-198 -428h-1102zM399 -535 q152 86 189 218q-41 -35 -82 -35q-37 0 -60.5 27.5t-23.5 70.5q0 61 45 105.5t108 44.5q47 0 79 -37t32 -95q0 -100 -74.5 -194t-193.5 -141z" />
<glyph unicode="&#x13c;" horiz-adv-x="573" d="M63 -535q152 86 189 218q-41 -35 -82 -35q-37 0 -60.5 27.5t-23.5 70.5q0 61 45 105.5t109 44.5q47 0 78.5 -37t31.5 -95q0 -100 -74.5 -194t-193.5 -141zM205 174q0 47 16 139l158 869q4 37 4 49q0 47 -26.5 69.5t-102.5 32.5l-31 4l10 60q176 18 302 67h83l-204 -1128 q-18 -98 -19 -129q0 -47 32 -78t81 -31q61 0 145 76l47 -43q-131 -150 -307 -149q-80 0 -134 55t-54 137z" />
<glyph unicode="&#x13d;" horiz-adv-x="1187" d="M43 0l10 59l35 4q84 10 122 52.5t58 146.5l158 871q10 41 10 69q0 115 -119 129l-32 4l12 60h561l-12 -60l-33 -4q-86 -10 -125 -52t-57 -146l-154 -848q-14 -76 -14 -109q0 -51 33.5 -73.5t128.5 -22.5q227 0 438 156q98 72 221 221l59 -29l-198 -428h-1102zM893 965 q152 86 188 217q-41 -35 -82 -35q-37 0 -60.5 27.5t-23.5 70.5q0 61 45.5 105.5t108.5 44.5q47 0 79 -37t32 -94q0 -100 -75 -194.5t-194 -141.5z" />
<glyph unicode="&#x13e;" horiz-adv-x="573" d="M205 174q0 47 16 139l158 869q4 37 4 49q0 47 -26.5 69.5t-102.5 32.5l-31 4l10 60q176 18 302 67h83l-204 -1128q-18 -98 -19 -129q0 -47 32 -78t81 -31q61 0 145 76l47 -43q-131 -150 -307 -149q-80 0 -134 55t-54 137zM653 1034q152 86 189 217q-41 -35 -82 -34 q-37 0 -60.5 27.5t-23.5 70.5q0 61 45 105t108 44q47 0 79 -36.5t32 -94.5q0 -100 -74.5 -194.5t-193.5 -141.5z" />
<glyph unicode="&#x13f;" horiz-adv-x="1187" d="M43 0l10 59l35 4q84 10 122 52.5t58 146.5l158 871q10 41 10 69q0 115 -119 129l-32 4l12 60h561l-12 -60l-33 -4q-86 -10 -125 -52t-57 -146l-154 -848q-14 -76 -14 -109q0 -51 33.5 -73.5t128.5 -22.5q227 0 438 156q98 72 221 221l59 -29l-198 -428h-1102zM932 743 q0 57 44 99.5t103 42.5q43 0 72 -29t29 -74q0 -57 -46.5 -101t-105.5 -44q-43 0 -69.5 29.5t-26.5 76.5z" />
<glyph unicode="&#x140;" horiz-adv-x="598" d="M205 174q0 47 16 139l158 869q4 37 4 49q0 47 -26.5 69.5t-102.5 32.5l-31 4l10 60q176 18 302 67h83l-204 -1128q-18 -98 -19 -129q0 -47 32 -78t81 -31q61 0 145 76l47 -43q-131 -150 -307 -149q-80 0 -134 55t-54 137zM571 743q0 57 44 99.5t104 42.5q43 0 71.5 -29 t28.5 -74q0 -57 -46 -101t-105 -44q-43 0 -70 29.5t-27 76.5z" />
<glyph unicode="&#x141;" horiz-adv-x="1187" d="M43 0l10 59l35 4q86 10 124 52.5t56 146.5l35 197l-203 -137l39 206l203 140l84 465q10 41 10 69q0 115 -119 129l-32 4l12 60h561l-12 -60l-33 -4q-86 -10 -124 -52t-58 -146l-62 -336l512 348l-37 -207l-512 -350l-55 -303q-14 -76 -14 -109q0 -51 33.5 -73.5 t128.5 -22.5q227 0 438 156q98 72 221 221l59 -29l-198 -428h-1102z" />
<glyph unicode="&#x142;" horiz-adv-x="696" d="M66 475l40 219l213 164l60 324q4 37 4 49q0 47 -26.5 69.5t-102.5 32.5l-31 4l10 60q176 18 302 67h83l-86 -469l238 181l-41 -220l-235 -180l-80 -440q-18 -98 -19 -129q0 -47 32 -78t81 -31q61 0 145 76l47 -43q-131 -150 -307 -149q-80 0 -134 55t-54 137q0 47 16 139 l60 326z" />
<glyph unicode="&#x143;" horiz-adv-x="1474" d="M37 0l10 59l35 4q84 10 122 52.5t58 146.5l158 871q10 41 10 69q0 115 -119 129l-32 4l12 60h446l453 -1129l158 867q6 43 6 73q0 61 -27 88t-90 37l-31 4l11 60h469l-11 -60l-35 -4q-84 -10 -122.5 -52t-57.5 -146l-207 -1133h-176l-518 1274l-184 -1012q-8 -43 -8 -84 q0 -53 25.5 -79.5t92.5 -35.5l31 -4l-10 -59h-469zM840 1544l155 125q125 100 189 100q39 0 67.5 -23.5t28.5 -55.5q0 -63 -160 -115l-254 -84z" />
<glyph unicode="&#x144;" d="M180 891l10 59q145 12 287 45h78l-27 -147q236 166 430 166q119 0 186.5 -51.5t67.5 -141.5q0 -84 -24 -170l-62 -336q-14 -84 -14 -112q0 -47 28.5 -81t69.5 -34q49 0 127 78l41 -45q-115 -139 -266 -139q-82 0 -136 55t-54 139q0 55 22 176l60 322q18 111 18 123 q0 55 -38 88t-103 33q-154 0 -371 -166l-135 -752h-189l133 733q4 37 5 51q0 43 -25 66.5t-94 36.5zM688 1194l141 139q109 109 172 111q35 0 60.5 -26.5t25.5 -61.5q0 -74 -143 -129l-231 -92z" />
<glyph unicode="&#x145;" horiz-adv-x="1474" d="M37 0l10 59l35 4q84 10 122 52.5t58 146.5l158 871q10 41 10 69q0 115 -119 129l-32 4l12 60h446l453 -1129l158 867q6 43 6 73q0 61 -27 88t-90 37l-31 4l11 60h469l-11 -60l-35 -4q-84 -10 -122.5 -52t-57.5 -146l-207 -1133h-176l-518 1274l-184 -1012q-8 -43 -8 -84 q0 -53 25.5 -79.5t92.5 -35.5l31 -4l-10 -59h-469zM541 -535q152 86 188 218q-41 -35 -82 -35q-37 0 -60.5 27.5t-23.5 70.5q0 61 45 105.5t109 44.5q47 0 78.5 -37t31.5 -95q0 -100 -74.5 -194t-193.5 -141z" />
<glyph unicode="&#x146;" d="M180 891l10 59q145 12 287 45h78l-27 -147q236 166 430 166q119 0 186.5 -51.5t67.5 -141.5q0 -84 -24 -170l-62 -336q-14 -84 -14 -112q0 -47 28.5 -81t69.5 -34q49 0 127 78l41 -45q-115 -139 -266 -139q-82 0 -136 55t-54 139q0 55 22 176l60 322q18 111 18 123 q0 55 -38 88t-103 33q-154 0 -371 -166l-135 -752h-189l133 733q4 37 5 51q0 43 -25 66.5t-94 36.5zM432 -535q152 86 189 218q-41 -35 -82 -35q-37 0 -60.5 27.5t-23.5 70.5q0 61 45 105.5t108 44.5q47 0 79 -37t32 -95q0 -100 -75 -194t-193 -141z" />
<glyph unicode="&#x147;" horiz-adv-x="1474" d="M37 0l10 59l35 4q84 10 122 52.5t58 146.5l158 871q10 41 10 69q0 115 -119 129l-32 4l12 60h446l453 -1129l158 867q6 43 6 73q0 61 -27 88t-90 37l-31 4l11 60h469l-11 -60l-35 -4q-84 -10 -122.5 -52t-57.5 -146l-207 -1133h-176l-518 1274l-184 -1012q-8 -43 -8 -84 q0 -53 25.5 -79.5t92.5 -35.5l31 -4l-10 -59h-469zM702 1698l56 45l278 -82l299 84l49 -47l-374 -182z" />
<glyph unicode="&#x148;" d="M180 891l10 59q145 12 287 45h78l-27 -147q236 166 430 166q119 0 186.5 -51.5t67.5 -141.5q0 -84 -24 -170l-62 -336q-14 -84 -14 -112q0 -47 28.5 -81t69.5 -34q49 0 127 78l41 -45q-115 -139 -266 -139q-82 0 -136 55t-54 139q0 55 22 176l60 322q18 111 18 123 q0 55 -38 88t-103 33q-154 0 -371 -166l-135 -752h-189l133 733q4 37 5 51q0 43 -25 66.5t-94 36.5zM557 1366l51 51l252 -92l273 94l45 -51l-340 -205z" />
<glyph unicode="&#x14a;" horiz-adv-x="1474" d="M37 0l10 59l35 4q84 10 122 52.5t58 146.5l158 871q10 41 10 69q0 115 -119 129l-32 4l12 60h446l453 -1129l158 867q6 43 6 73q0 61 -27 88t-90 37l-31 4l11 60h469l-11 -60l-35 -4q-84 -10 -122.5 -52t-57.5 -146l-207 -1133q-35 -193 -211 -323t-387 -130 q-117 0 -196.5 42t-79.5 102q0 41 31.5 68.5t81.5 27.5q72 0 122 -82q29 -49 52.5 -65.5t60.5 -16.5q127 0 225.5 112.5t124.5 264.5l-518 1274l-184 -1012q-8 -43 -8 -84q0 -53 25.5 -79.5t92.5 -35.5l31 -4l-10 -59h-469z" />
<glyph unicode="&#x14b;" d="M180 891l10 59q145 12 287 45h78l-27 -147q236 166 430 166q119 0 186.5 -51.5t67.5 -141.5q0 -84 -24 -170l-62 -336q-27 -147 -73.5 -278t-115.5 -245t-168 -179.5t-216 -65.5t-197 42t-80 102q0 41 32 68.5t81 27.5q72 0 123 -82q29 -49 52.5 -65.5t60.5 -16.5 q39 0 73.5 25.5t60 60.5t51.5 101.5t42 116.5t35.5 141.5t28.5 139.5l28 144l60 322q18 111 18 123q0 55 -38 88t-103 33q-154 0 -371 -166l-135 -752h-189l133 733q4 37 5 51q0 43 -25 66.5t-94 36.5z" />
<glyph unicode="&#x14c;" horiz-adv-x="1556" d="M180 567q0 156 60.5 307.5t169 273.5t275.5 197.5t364 75.5q260 0 423.5 -164.5t163.5 -425.5q0 -221 -108.5 -416.5t-308 -318.5t-443.5 -123q-266 0 -431 165t-165 429zM406 510q0 -201 103 -320.5t275 -119.5q150 0 273 77.5t198.5 200.5t115.5 267.5t40 287.5 q0 188 -106.5 305t-278.5 117q-186 0 -332.5 -129t-217 -312.5t-70.5 -373.5zM774 1573l39 117h588l-39 -117h-588z" />
<glyph unicode="&#x14d;" horiz-adv-x="1105" d="M133 389q0 244 173 434.5t439 190.5q193 0 309.5 -116t116.5 -304q0 -254 -178 -433t-432 -179q-193 0 -310.5 112.5t-117.5 294.5zM332 360q0 -139 63.5 -215.5t179.5 -76.5q109 0 190 66.5t121 166.5t58.5 187t18.5 155q0 160 -70 222.5t-160 62.5q-100 0 -181 -59.5 t-127 -150.5t-69.5 -184.5t-23.5 -173.5zM481 1233l39 117h588l-39 -117h-588z" />
<glyph unicode="&#x14e;" horiz-adv-x="1556" d="M180 567q0 156 60.5 307.5t169 273.5t275.5 197.5t364 75.5q260 0 423.5 -164.5t163.5 -425.5q0 -221 -108.5 -416.5t-308 -318.5t-443.5 -123q-266 0 -431 165t-165 429zM406 510q0 -201 103 -320.5t275 -119.5q150 0 273 77.5t198.5 200.5t115.5 267.5t40 287.5 q0 188 -106.5 305t-278.5 117q-186 0 -332.5 -129t-217 -312.5t-70.5 -373.5zM731 1708l53 23q88 -76 291 -76q199 0 303 74l49 -19q-63 -96 -146 -137t-212 -41q-242 0 -338 176z" />
<glyph unicode="&#x14f;" horiz-adv-x="1105" d="M133 389q0 244 173 434.5t439 190.5q193 0 309.5 -116t116.5 -304q0 -254 -178 -433t-432 -179q-193 0 -310.5 112.5t-117.5 294.5zM332 360q0 -139 63.5 -215.5t179.5 -76.5q109 0 190 66.5t121 166.5t58.5 187t18.5 155q0 160 -70 222.5t-160 62.5q-100 0 -181 -59.5 t-127 -150.5t-69.5 -184.5t-23.5 -173.5zM469 1376l49 25q78 -84 264 -84q180 0 275 82l45 -21q-57 -106 -133 -152t-193 -46q-219 -1 -307 196z" />
<glyph unicode="&#x150;" horiz-adv-x="1556" d="M180 567q0 156 60.5 307.5t169 273.5t275.5 197.5t364 75.5q260 0 423.5 -164.5t163.5 -425.5q0 -221 -108.5 -416.5t-308 -318.5t-443.5 -123q-266 0 -431 165t-165 429zM406 510q0 -201 103 -320.5t275 -119.5q150 0 273 77.5t198.5 200.5t115.5 267.5t40 287.5 q0 188 -106.5 305t-278.5 117q-186 0 -332.5 -129t-217 -312.5t-70.5 -373.5zM1098 1511l43 160q29 106 50 142t60 36q33 0 57.5 -25.5t24.5 -58.5q-4 -57 -55 -120l-133 -166zM1384 1511l43 160q29 106 50.5 142t60.5 36q33 0 57.5 -25.5t24.5 -58.5q-4 -57 -55 -120 l-133 -166z" />
<glyph unicode="&#x151;" horiz-adv-x="1105" d="M133 389q0 244 173 434.5t439 190.5q193 0 309.5 -116t116.5 -304q0 -254 -178 -433t-432 -179q-193 0 -310.5 112.5t-117.5 294.5zM332 360q0 -139 63.5 -215.5t179.5 -76.5q109 0 190 66.5t121 166.5t58.5 187t18.5 155q0 160 -70 222.5t-160 62.5q-100 0 -181 -59.5 t-127 -150.5t-69.5 -184.5t-23.5 -173.5zM801 1139l43 159q29 106 50 142.5t60 36.5q33 0 57.5 -26t24.5 -58q-4 -57 -55 -121l-133 -166zM1087 1139l43 159q29 106 50.5 142.5t60.5 36.5q33 0 57.5 -26t24.5 -58q-4 -57 -55 -121l-133 -166z" />
<glyph unicode="&#x152;" horiz-adv-x="2416" d="M180 553q0 346 254 607t592 261q49 0 95 -6t84 -16t72 -22.5t61 -28.5l50 -30q22 -13 38 -30l27 -24q9 -8 17 -19l11 -10l28 160h945l79 -400l-82 -22q-51 100 -94 153.5t-106 94.5q-133 86 -322 86q-90 0 -143 -10.5t-81 -43t-36 -59.5t-20 -92l-58 -320h168 q109 0 168.5 61.5t91.5 184.5h66l-107 -592h-63q2 16 2 47q0 117 -49 160t-137 43h-158l-78 -434q-8 -37 -8 -51q0 -68 56 -91.5t165 -23.5q256 0 469 145q139 94 231 215l70 -28l-201 -418h-1022l31 166q-252 -193 -522 -193q-250 0 -417 166t-167 414zM406 549 q0 -227 98 -353t276 -126q182 0 324.5 117.5t214.5 297t72 381.5q0 84 -18.5 159t-58.5 145.5t-120 112.5t-190 42q-184 0 -325.5 -129t-207 -303t-65.5 -344z" />
<glyph unicode="&#x153;" horiz-adv-x="1843" d="M133 395q0 262 172 440.5t426 178.5q127 0 215 -45t158 -148q129 102 243.5 147.5t247.5 45.5q152 0 249.5 -63.5t97.5 -162.5q0 -147 -212 -235t-550 -88h-33q-14 -53 -14 -113q0 -125 70.5 -199.5t189.5 -74.5q172 0 397 153l45 -57q-221 -193 -485 -192 q-229 0 -369 163q-199 -164 -430 -163q-180 0 -299 117.5t-119 295.5zM332 356q0 -90 24.5 -151.5t65.5 -89t75.5 -37.5t73.5 -10q178 0 286 174t108 397q0 145 -61.5 222t-178.5 77q-90 0 -161.5 -43t-113.5 -108.5t-70 -147.5t-38 -152t-10 -131zM1163 537h27 q244 0 402.5 76.5t158.5 191.5q0 59 -52 100t-130 41q-41 0 -84 -12t-104.5 -49t-120 -127t-97.5 -221z" />
<glyph unicode="&#x154;" horiz-adv-x="1433" d="M43 0l10 59l35 4q84 10 122 52.5t58 146.5l158 871q10 41 10 69q0 115 -119 129l-32 4l12 60h756q444 0 444 -303q0 -39 -8 -81t-36 -98.5t-74 -102.5t-133 -86t-202 -56l246 -435q49 -88 85 -116.5t132 -57.5l-10 -59h-336l-346 668h-268l-74 -406q-2 -12 -8 -78 q0 -111 119 -121l59 -4l-10 -59h-590zM561 743h256q461 0 461 344q0 125 -91 173.5t-257 48.5q-156 0 -216.5 -29t-74.5 -111zM799 1544l155 125q125 100 189 100q39 0 67.5 -23.5t28.5 -55.5q0 -63 -160 -115l-254 -84z" />
<glyph unicode="&#x155;" horiz-adv-x="819" d="M180 891l10 59q145 12 287 45h78l-27 -147q164 166 326 166q61 0 96 -26.5t35 -74.5q0 -49 -37 -79.5t-96 -30.5q-45 0 -92 27.5t-74 27.5q-158 0 -219 -344l-92 -514h-189l133 733q4 37 5 51q0 43 -25 66.5t-94 36.5zM436 1194l142 139q106 109 172 111q35 0 60.5 -26.5 t25.5 -61.5q0 -74 -144 -129l-231 -92z" />
<glyph unicode="&#x156;" horiz-adv-x="1433" d="M43 0l10 59l35 4q84 10 122 52.5t58 146.5l158 871q10 41 10 69q0 115 -119 129l-32 4l12 60h756q444 0 444 -303q0 -39 -8 -81t-36 -98.5t-74 -102.5t-133 -86t-202 -56l246 -435q49 -88 85 -116.5t132 -57.5l-10 -59h-336l-346 668h-268l-74 -406q-2 -12 -8 -78 q0 -111 119 -121l59 -4l-10 -59h-590zM500 -535q152 86 188 218q-41 -35 -82 -35q-37 0 -60.5 27.5t-23.5 70.5q0 61 45 105.5t109 44.5q47 0 78.5 -37t31.5 -95q0 -100 -74.5 -194t-193.5 -141zM561 743h256q461 0 461 344q0 125 -91 173.5t-257 48.5q-156 0 -216.5 -29 t-74.5 -111z" />
<glyph unicode="&#x157;" horiz-adv-x="819" d="M86 -535q152 86 188 218q-41 -35 -81 -35q-37 0 -60.5 27.5t-23.5 70.5q0 61 45 105.5t108 44.5q47 0 79 -37t32 -95q0 -100 -75 -194t-194 -141zM180 891l10 59q145 12 287 45h78l-27 -147q164 166 326 166q61 0 96 -26.5t35 -74.5q0 -49 -37 -79.5t-96 -30.5 q-45 0 -92 27.5t-74 27.5q-158 0 -219 -344l-92 -514h-189l133 733q4 37 5 51q0 43 -25 66.5t-94 36.5z" />
<glyph unicode="&#x158;" horiz-adv-x="1433" d="M43 0l10 59l35 4q84 10 122 52.5t58 146.5l158 871q10 41 10 69q0 115 -119 129l-32 4l12 60h756q444 0 444 -303q0 -39 -8 -81t-36 -98.5t-74 -102.5t-133 -86t-202 -56l246 -435q49 -88 85 -116.5t132 -57.5l-10 -59h-336l-346 668h-268l-74 -406q-2 -12 -8 -78 q0 -111 119 -121l59 -4l-10 -59h-590zM561 743h256q461 0 461 344q0 125 -91 173.5t-257 48.5q-156 0 -216.5 -29t-74.5 -111zM662 1698l55 45l278 -82l299 84l49 -47l-374 -182z" />
<glyph unicode="&#x159;" horiz-adv-x="819" d="M180 891l10 59q145 12 287 45h78l-27 -147q164 166 326 166q61 0 96 -26.5t35 -74.5q0 -49 -37 -79.5t-96 -30.5q-45 0 -92 27.5t-74 27.5q-158 0 -219 -344l-92 -514h-189l133 733q4 37 5 51q0 43 -25 66.5t-94 36.5zM305 1366l51 51l252 -92l273 94l45 -51l-340 -205z " />
<glyph unicode="&#x15a;" horiz-adv-x="1310" d="M125 506h80q59 -207 192 -321.5t318 -114.5q174 0 299 100t125 240q0 41 -17.5 71.5t-39 50t-77 41t-94.5 31.5l-131 35q-233 59 -338 113q-76 39 -119.5 106.5t-43.5 147.5q0 174 162.5 294.5t400.5 120.5q193 0 358 -102l39 76h66l63 -400h-72q-72 150 -127 207 q-127 133 -321 133q-143 0 -246.5 -79.5t-103.5 -190.5q0 -113 168 -168q55 -18 383 -109q164 -45 236.5 -118.5t72.5 -196.5q0 -207 -188.5 -353.5t-452.5 -146.5q-244 0 -416 129l-57 -102h-74zM758 1544l155 125q125 100 189 100q39 0 67.5 -23.5t28.5 -55.5 q0 -63 -160 -115l-254 -84z" />
<glyph unicode="&#x15b;" horiz-adv-x="1105" d="M133 199q0 39 25.5 65.5t62.5 26.5q45 0 77 -24.5t77 -94.5q74 -115 223 -115q111 0 185.5 56.5t74.5 138.5q0 57 -40 92t-140 68q-213 68 -289 106q-121 68 -121 191q0 133 124 219t313 86q160 0 287.5 -56.5t127.5 -128.5q0 -37 -26.5 -61.5t-67.5 -24.5t-64.5 17.5 t-68.5 87.5q-29 41 -86 65.5t-123 24.5q-92 0 -149.5 -45t-57.5 -117q0 -74 68 -114q35 -20 200 -74q80 -25 126.5 -42.5t97.5 -48t74.5 -72.5t23.5 -97q0 -147 -139.5 -246.5t-347.5 -99.5q-170 0 -308.5 67.5t-138.5 149.5zM612 1194l142 139q106 109 172 111 q35 0 60.5 -26.5t25.5 -61.5q0 -74 -144 -129l-231 -92z" />
<glyph unicode="&#x15c;" horiz-adv-x="1310" d="M125 506h80q59 -207 192 -321.5t318 -114.5q174 0 299 100t125 240q0 41 -17.5 71.5t-39 50t-77 41t-94.5 31.5l-131 35q-233 59 -338 113q-76 39 -119.5 106.5t-43.5 147.5q0 174 162.5 294.5t400.5 120.5q193 0 358 -102l39 76h66l63 -400h-72q-72 150 -127 207 q-127 133 -321 133q-143 0 -246.5 -79.5t-103.5 -190.5q0 -113 168 -168q55 -18 383 -109q164 -45 236.5 -118.5t72.5 -196.5q0 -207 -188.5 -353.5t-452.5 -146.5q-244 0 -416 129l-57 -102h-74zM596 1563l375 182l307 -182l-55 -45l-279 81l-299 -83z" />
<glyph unicode="&#x15d;" horiz-adv-x="1105" d="M133 199q0 39 25.5 65.5t62.5 26.5q45 0 77 -24.5t77 -94.5q74 -115 223 -115q111 0 185.5 56.5t74.5 138.5q0 57 -40 92t-140 68q-213 68 -289 106q-121 68 -121 191q0 133 124 219t313 86q160 0 287.5 -56.5t127.5 -128.5q0 -37 -26.5 -61.5t-67.5 -24.5t-64.5 17.5 t-68.5 87.5q-29 41 -86 65.5t-123 24.5q-92 0 -149.5 -45t-57.5 -117q0 -74 68 -114q35 -20 200 -74q80 -25 126.5 -42.5t97.5 -48t74.5 -72.5t23.5 -97q0 -147 -139.5 -246.5t-347.5 -99.5q-170 0 -308.5 67.5t-138.5 149.5zM461 1217l340 202l280 -202l-51 -52l-252 92 l-272 -94z" />
<glyph unicode="&#x15e;" horiz-adv-x="1310" d="M125 506h80q59 -207 192 -321.5t318 -114.5q174 0 299 100t125 240q0 41 -17.5 71.5t-39 50t-77 41t-94.5 31.5l-131 35q-233 59 -338 113q-76 39 -119.5 106.5t-43.5 147.5q0 174 162.5 294.5t400.5 120.5q193 0 358 -102l39 76h66l63 -400h-72q-72 150 -127 207 q-127 133 -321 133q-143 0 -246.5 -79.5t-103.5 -190.5q0 -113 168 -168q55 -18 383 -109q164 -45 236.5 -118.5t72.5 -196.5q0 -201 -179.5 -346t-435.5 -154l-20 -61h39q72 0 126 -43t54 -96q0 -70 -78 -128.5t-172 -58.5q-74 0 -122 28t-48 71q0 23 15.5 40t35.5 17 q35 0 55.5 -45t69.5 -45q45 0 81 34.5t36 73.5q0 37 -32.5 69t-82.5 32q-37 0 -84 -13l50 127q-205 8 -365 127l-57 -102h-74z" />
<glyph unicode="&#x15f;" horiz-adv-x="1105" d="M133 199q0 39 25.5 65.5t62.5 26.5q45 0 77 -24.5t77 -94.5q74 -115 223 -115q111 0 185.5 56.5t74.5 138.5q0 57 -40 92t-140 68q-213 68 -289 106q-121 68 -121 191q0 133 124 219t313 86q160 0 287.5 -56.5t127.5 -128.5q0 -37 -26.5 -61.5t-67.5 -24.5t-64.5 17.5 t-68.5 87.5q-29 41 -86 65.5t-123 24.5q-92 0 -149.5 -45t-57.5 -117q0 -74 68 -114q35 -20 200 -74q80 -25 126.5 -42.5t97.5 -48t74.5 -72.5t23.5 -97q0 -143 -132 -241.5t-333 -104.5l-22 -70h38q72 0 126.5 -43t54.5 -96q0 -70 -78 -128.5t-172 -58.5q-74 0 -122 28 t-48 71q0 23 15.5 40t35.5 17q35 0 55.5 -45t69.5 -45q45 0 81 34.5t36 73.5q0 37 -33 69t-82 32q-37 0 -84 -13l51 136q-156 10 -273.5 74.5t-117.5 140.5z" />
<glyph unicode="&#x160;" horiz-adv-x="1310" d="M125 506h80q59 -207 192 -321.5t318 -114.5q174 0 299 100t125 240q0 41 -17.5 71.5t-39 50t-77 41t-94.5 31.5l-131 35q-233 59 -338 113q-76 39 -119.5 106.5t-43.5 147.5q0 174 162.5 294.5t400.5 120.5q193 0 358 -102l39 76h66l63 -400h-72q-72 150 -127 207 q-127 133 -321 133q-143 0 -246.5 -79.5t-103.5 -190.5q0 -113 168 -168q55 -18 383 -109q164 -45 236.5 -118.5t72.5 -196.5q0 -207 -188.5 -353.5t-452.5 -146.5q-244 0 -416 129l-57 -102h-74zM621 1698l55 45l278 -82l299 84l50 -47l-375 -182z" />
<glyph unicode="&#x161;" horiz-adv-x="1105" d="M133 199q0 39 25.5 65.5t62.5 26.5q45 0 77 -24.5t77 -94.5q74 -115 223 -115q111 0 185.5 56.5t74.5 138.5q0 57 -40 92t-140 68q-213 68 -289 106q-121 68 -121 191q0 133 124 219t313 86q160 0 287.5 -56.5t127.5 -128.5q0 -37 -26.5 -61.5t-67.5 -24.5t-64.5 17.5 t-68.5 87.5q-29 41 -86 65.5t-123 24.5q-92 0 -149.5 -45t-57.5 -117q0 -74 68 -114q35 -20 200 -74q80 -25 126.5 -42.5t97.5 -48t74.5 -72.5t23.5 -97q0 -147 -139.5 -246.5t-347.5 -99.5q-170 0 -308.5 67.5t-138.5 149.5zM481 1366l51 51l252 -92l273 94l45 -51 l-340 -205z" />
<glyph unicode="&#x162;" horiz-adv-x="1228" d="M102 995l172 400h1160l51 -404h-66q-27 63 -54.5 109.5t-73.5 98.5t-112.5 81t-150.5 29q-53 0 -71.5 -17.5t-28.5 -74.5l-172 -955q-10 -41 -11 -69q0 -117 127 -130l62 -4l-10 -59h-254l-29 -88h39q72 0 126 -43t54 -96q0 -70 -77.5 -128.5t-172.5 -58.5q-74 0 -122 28 t-48 71q0 23 15.5 40t36.5 17q35 0 55 -45t69 -45q45 0 81 34.5t36 73.5q0 37 -32.5 69t-82.5 32q-37 0 -83 -13l59 152h-305l10 59l61 4q88 8 129 50.5t62 148.5l174 965q2 10 2 26q0 55 -78 56q-260 0 -477 -314h-70z" />
<glyph unicode="&#x163;" horiz-adv-x="696" d="M180 930l13 65q158 10 232.5 89t115.5 278h73l-65 -367h293l-13 -65h-292l-107 -582q-23 -123 -22 -160q0 -53 32.5 -86.5t83.5 -33.5q98 0 209 96l45 -51q-133 -125 -299 -131l-22 -70h39q72 0 126 -43t54 -96q0 -70 -78 -128.5t-172 -58.5q-74 0 -122 28t-48 71 q0 23 15.5 40t35.5 17q35 0 55.5 -45t69.5 -45q45 0 81 34.5t36 73.5q0 37 -33 69t-82 32q-37 0 -84 -13l53 138q-90 10 -139 53t-49 111q0 47 21 163l112 617h-168z" />
<glyph unicode="&#x164;" horiz-adv-x="1228" d="M102 995l172 400h1160l51 -404h-66q-27 63 -54.5 109.5t-73.5 98.5t-112.5 81t-150.5 29q-53 0 -71.5 -17.5t-28.5 -74.5l-172 -955q-10 -41 -11 -69q0 -117 127 -130l62 -4l-10 -59h-635l10 59l61 4q88 8 129 50.5t62 148.5l174 965q2 10 2 26q0 55 -78 56 q-260 0 -477 -314h-70zM571 1698l56 45l278 -82l299 84l49 -47l-374 -182z" />
<glyph unicode="&#x165;" horiz-adv-x="696" d="M180 930l13 65q158 10 232.5 89t115.5 278h73l-65 -367h293l-13 -65h-292l-107 -582q-23 -123 -22 -160q0 -53 32.5 -86.5t83.5 -33.5q98 0 209 96l45 -51q-139 -131 -315 -131q-117 0 -182.5 44t-65.5 124q0 47 21 163l112 617h-168zM639 1100q152 86 188 217 q-41 -35 -82 -35q-37 0 -60 27.5t-23 70.5q0 61 45 105.5t108 44.5q47 0 79 -37t32 -94q0 -100 -75 -194.5t-194 -141.5z" />
<glyph unicode="&#x168;" horiz-adv-x="1474" d="M242 297q0 45 16 147l125 689q10 47 10 71q0 113 -119 127l-32 4l10 60h561l-10 -60l-33 -4q-86 -10 -124 -52t-58 -146l-115 -629q-12 -70 -12 -174q0 -127 87 -193.5t249 -66.5q66 0 123 11t98 26.5t78 47.5l59 52q23 20 43.5 64t30.5 63.5t21.5 68t13.5 58.5t10 55 l112 617q2 6 9 81q0 53 -27 81t-92 36l-31 4l10 60h469l-10 -60l-35 -4q-84 -10 -121.5 -52t-58.5 -146l-117 -644q-12 -61 -22 -103t-32.5 -100.5t-51.5 -98.5t-78 -84t-111.5 -69.5t-153.5 -43t-204 -17.5q-143 0 -246.5 34t-151.5 87t-68.5 103.5t-20.5 99.5zM739 1556 q33 74 89.5 115t125.5 41q41 0 133.5 -21.5t112.5 -21.5q51 0 111 47h59q-78 -170 -233 -170q-31 0 -118 21.5t-124 21.5q-59 0 -92 -33h-64z" />
<glyph unicode="&#x169;" d="M180 891l10 59q145 12 287 45h78l-127 -702q-10 -55 -10 -82q0 -57 33.5 -90t91.5 -33q84 0 168 37t209 127l135 743h188l-121 -669q-10 -66 -10 -107q0 -131 98 -131q78 0 148 90l47 -43q-131 -154 -289 -153q-88 0 -143 49t-68 139q-78 -76 -200.5 -132t-247.5 -56 q-109 0 -169.5 50t-60.5 140q0 53 13 123l79 438q4 16 5 43q0 90 -119 111zM545 1217q33 74 89 114.5t126 40.5q39 0 131 -21.5t115 -21.5q51 0 110 47h60q-78 -170 -234 -170q-31 0 -118 21.5t-124 21.5q-59 0 -92 -32h-63z" />
<glyph unicode="&#x16a;" horiz-adv-x="1474" d="M242 297q0 45 16 147l125 689q10 47 10 71q0 113 -119 127l-32 4l10 60h561l-10 -60l-33 -4q-86 -10 -124 -52t-58 -146l-115 -629q-12 -70 -12 -174q0 -127 87 -193.5t249 -66.5q66 0 123 11t98 26.5t78 47.5l59 52q23 20 43.5 64t30.5 63.5t21.5 68t13.5 58.5t10 55 l112 617q2 6 9 81q0 53 -27 81t-92 36l-31 4l10 60h469l-10 -60l-35 -4q-84 -10 -121.5 -52t-58.5 -146l-117 -644q-12 -61 -22 -103t-32.5 -100.5t-51.5 -98.5t-78 -84t-111.5 -69.5t-153.5 -43t-204 -17.5q-143 0 -246.5 34t-151.5 87t-68.5 103.5t-20.5 99.5zM741 1573 l39 117h588l-39 -117h-588z" />
<glyph unicode="&#x16b;" d="M180 891l10 59q145 12 287 45h78l-127 -702q-10 -55 -10 -82q0 -57 33.5 -90t91.5 -33q84 0 168 37t209 127l135 743h188l-121 -669q-10 -66 -10 -107q0 -131 98 -131q78 0 148 90l47 -43q-131 -154 -289 -153q-88 0 -143 49t-68 139q-78 -76 -200.5 -132t-247.5 -56 q-109 0 -169.5 50t-60.5 140q0 53 13 123l79 438q4 16 5 43q0 90 -119 111zM545 1233l39 117h587l-38 -117h-588z" />
<glyph unicode="&#x16c;" horiz-adv-x="1474" d="M242 297q0 45 16 147l125 689q10 47 10 71q0 113 -119 127l-32 4l10 60h561l-10 -60l-33 -4q-86 -10 -124 -52t-58 -146l-115 -629q-12 -70 -12 -174q0 -127 87 -193.5t249 -66.5q66 0 123 11t98 26.5t78 47.5l59 52q23 20 43.5 64t30.5 63.5t21.5 68t13.5 58.5t10 55 l112 617q2 6 9 81q0 53 -27 81t-92 36l-31 4l10 60h469l-10 -60l-35 -4q-84 -10 -121.5 -52t-58.5 -146l-117 -644q-12 -61 -22 -103t-32.5 -100.5t-51.5 -98.5t-78 -84t-111.5 -69.5t-153.5 -43t-204 -17.5q-143 0 -246.5 34t-151.5 87t-68.5 103.5t-20.5 99.5zM698 1708 l54 23q88 -76 290 -76q199 0 304 74l49 -19q-63 -96 -146.5 -137t-212.5 -41q-242 0 -338 176z" />
<glyph unicode="&#x16d;" d="M180 891l10 59q145 12 287 45h78l-127 -702q-10 -55 -10 -82q0 -57 33.5 -90t91.5 -33q84 0 168 37t209 127l135 743h188l-121 -669q-10 -66 -10 -107q0 -131 98 -131q78 0 148 90l47 -43q-131 -154 -289 -153q-88 0 -143 49t-68 139q-78 -76 -200.5 -132t-247.5 -56 q-109 0 -169.5 50t-60.5 140q0 53 13 123l79 438q4 16 5 43q0 90 -119 111zM532 1376l50 25q78 -84 264 -84q180 0 274 82l45 -21q-57 -106 -133 -152t-192 -46q-218 -1 -308 196z" />
<glyph unicode="&#x16e;" horiz-adv-x="1474" d="M242 297q0 45 16 147l125 689q10 47 10 71q0 113 -119 127l-32 4l10 60h561l-10 -60l-33 -4q-86 -10 -124 -52t-58 -146l-115 -629q-12 -70 -12 -174q0 -127 87 -193.5t249 -66.5q66 0 123 11t98 26.5t78 47.5l59 52q23 20 43.5 64t30.5 63.5t21.5 68t13.5 58.5t10 55 l112 617q2 6 9 81q0 53 -27 81t-92 36l-31 4l10 60h469l-10 -60l-35 -4q-84 -10 -121.5 -52t-58.5 -146l-117 -644q-12 -61 -22 -103t-32.5 -100.5t-51.5 -98.5t-78 -84t-111.5 -69.5t-153.5 -43t-204 -17.5q-143 0 -246.5 34t-151.5 87t-68.5 103.5t-20.5 99.5zM899 1632 q0 76 55.5 131.5t132.5 55.5q57 0 94.5 -38t37.5 -95q0 -74 -59.5 -131.5t-135.5 -57.5q-55 0 -90 38t-35 97zM975 1645q0 -37 16.5 -58.5t44.5 -21.5q41 0 74 33.5t33 76.5q0 33 -18.5 54.5t-47.5 21.5q-41 0 -71.5 -31.5t-30.5 -74.5z" />
<glyph unicode="&#x16f;" d="M180 891l10 59q145 12 287 45h78l-127 -702q-10 -55 -10 -82q0 -57 33.5 -90t91.5 -33q84 0 168 37t209 127l135 743h188l-121 -669q-10 -66 -10 -107q0 -131 98 -131q78 0 148 90l47 -43q-131 -154 -289 -153q-88 0 -143 49t-68 139q-78 -76 -200.5 -132t-247.5 -56 q-109 0 -169.5 50t-60.5 140q0 53 13 123l79 438q4 16 5 43q0 90 -119 111zM700 1266q0 76 55.5 131t133.5 55q57 0 94 -38t37 -95q0 -74 -59.5 -131.5t-135.5 -57.5q-55 0 -90 38.5t-35 97.5zM776 1278q0 -37 16.5 -58.5t45.5 -21.5q41 0 73.5 34t32.5 77q0 33 -18.5 54 t-46.5 21q-41 0 -72 -31.5t-31 -74.5z" />
<glyph unicode="&#x170;" horiz-adv-x="1474" d="M242 297q0 45 16 147l125 689q10 47 10 71q0 113 -119 127l-32 4l10 60h561l-10 -60l-33 -4q-86 -10 -124 -52t-58 -146l-115 -629q-12 -70 -12 -174q0 -127 87 -193.5t249 -66.5q66 0 123 11t98 26.5t78 47.5l59 52q23 20 43.5 64t30.5 63.5t21.5 68t13.5 58.5t10 55 l112 617q2 6 9 81q0 53 -27 81t-92 36l-31 4l10 60h469l-10 -60l-35 -4q-84 -10 -121.5 -52t-58.5 -146l-117 -644q-12 -61 -22 -103t-32.5 -100.5t-51.5 -98.5t-78 -84t-111.5 -69.5t-153.5 -43t-204 -17.5q-143 0 -246.5 34t-151.5 87t-68.5 103.5t-20.5 99.5zM1065 1511 l43 160q29 106 50.5 142t60.5 36q33 0 57 -25.5t24 -58.5q-4 -57 -55 -120l-133 -166zM1352 1511l43 160q29 106 50 142t60 36q33 0 57.5 -25.5t24.5 -58.5q-4 -57 -55 -120l-133 -166z" />
<glyph unicode="&#x171;" d="M180 891l10 59q145 12 287 45h78l-127 -702q-10 -55 -10 -82q0 -57 33.5 -90t91.5 -33q84 0 168 37t209 127l135 743h188l-121 -669q-10 -66 -10 -107q0 -131 98 -131q78 0 148 90l47 -43q-131 -154 -289 -153q-88 0 -143 49t-68 139q-78 -76 -200.5 -132t-247.5 -56 q-109 0 -169.5 50t-60.5 140q0 53 13 123l79 438q4 16 5 43q0 90 -119 111zM864 1139l43 159q29 106 50.5 142.5t60.5 36.5q33 0 57.5 -26t24.5 -58q-4 -57 -56 -121l-133 -166zM1151 1139l43 159q29 106 50.5 142.5t60.5 36.5q33 0 57 -26t24 -58q-4 -57 -55 -121 l-133 -166z" />
<glyph unicode="&#x172;" horiz-adv-x="1474" d="M242 297q0 45 16 147l125 689q10 47 10 71q0 113 -119 127l-32 4l10 60h561l-10 -60l-33 -4q-86 -10 -124 -52t-58 -146l-115 -629q-12 -70 -12 -174q0 -127 87 -193.5t249 -66.5q66 0 123 11t98 26.5t78 47.5l59 52q23 20 43.5 64t30.5 63.5t21.5 68t13.5 58.5t10 55 l112 617q2 6 9 81q0 53 -27 81t-92 36l-31 4l10 60h469l-10 -60l-35 -4q-84 -10 -121.5 -52t-58.5 -146l-117 -644q-16 -88 -34.5 -146t-58.5 -133t-112.5 -126t-177.5 -80q-154 -39 -202 -98q-66 -80 -66 -160q0 -45 33 -72.5t82 -27.5q80 0 143 49l49 -43 q-113 -123 -266 -123q-88 0 -148.5 49t-60.5 127q0 133 182 268h-16q-143 0 -246.5 34t-151.5 87t-68.5 103.5t-20.5 99.5z" />
<glyph unicode="&#x173;" d="M180 891l10 59q145 12 287 45h78l-127 -702q-10 -55 -10 -82q0 -57 33.5 -90t91.5 -33q84 0 168 37t209 127l135 743h188l-121 -669q-10 -66 -10 -107q0 -131 98 -131q78 0 148 90l47 -43q-80 -92 -168 -129q-117 -47 -162 -100q-66 -80 -65 -160q0 -45 32.5 -72.5 t81.5 -27.5q80 0 144 49l49 -43q-113 -123 -266 -123q-88 0 -148.5 49t-60.5 127q0 139 207 285q-125 35 -144 180q-78 -76 -200.5 -132t-247.5 -56q-109 0 -169.5 50t-60.5 140q0 53 13 123l79 438q4 16 5 43q0 90 -119 111z" />
<glyph unicode="&#x174;" horiz-adv-x="1966" d="M178 1335l10 60h531l-10 -60l-31 -4q-66 -8 -91.5 -36.5t-25.5 -80.5q0 -35 4 -55l131 -901l398 809q-18 131 -52 185.5t-112 78.5l-21 4l11 60h524l-10 -60l-33 -4q-63 -8 -87 -35.5t-24 -74.5q0 -4 10 -86l123 -877l402 809q63 127 63 176q0 68 -119 88l-28 4l10 60 h492l-11 -60l-24 -4q-76 -10 -129.5 -56t-102.5 -140l-583 -1135h-133l-136 905l-456 -905h-129l-183 1106q-20 129 -46.5 165t-112.5 60zM903 1563l375 182l307 -182l-55 -45l-279 81l-299 -83z" />
<glyph unicode="&#x175;" horiz-adv-x="1802" d="M180 891l10 59q145 12 287 45h78l-121 -661q-14 -90 -14 -125q0 -61 42 -96t116 -35q70 0 164 43t180 115l137 759h188l-110 -606q-16 -86 -17 -145q0 -82 37 -124t129 -42q156 0 284 151.5t128 337.5q0 141 -92 213q-68 51 -68 107q0 53 38 94t87 41q76 0 121 -69.5 t45 -186.5q0 -168 -57.5 -330t-153.5 -264q-178 -190 -434 -190q-115 0 -183.5 45t-74.5 127q-94 -80 -213 -126t-228 -46q-121 0 -190.5 52t-69.5 142q0 45 8 84l86 473q4 37 5 51q0 43 -25 66.5t-94 36.5zM788 1217l340 202l281 -202l-51 -52l-252 92l-272 -94z" />
<glyph unicode="&#x176;" horiz-adv-x="1351" d="M178 1335l10 60h553l-10 -60l-22 -4q-131 -25 -131 -100q0 -23 16 -55l223 -482l404 484q29 35 28 71q0 63 -104 82l-25 4l13 60h524l-10 -60q-111 -14 -182.5 -63t-186.5 -182l-420 -482l-63 -346q-8 -39 -9 -78q0 -57 29 -86.5t96 -34.5l62 -4l-10 -59h-635l10 59l61 4 q90 8 130 50.5t61 148.5l57 313l-299 629q-27 59 -54.5 82t-94.5 43zM588 1563l375 182l307 -182l-56 -45l-278 81l-299 -83z" />
<glyph unicode="&#x177;" horiz-adv-x="1228" d="M123 -297q0 39 30.5 62.5t77.5 23.5q68 0 107 -68q59 -98 174 -98q133 0 234.5 103.5t132.5 271.5l30 170q-98 -86 -213.5 -136t-220.5 -50q-119 0 -185.5 53t-66.5 147q0 63 10 125l78 426q4 37 4 51q0 43 -24.5 66.5t-93.5 36.5l-25 4l10 59q152 14 287 45h78 l-125 -688q-12 -66 -12 -98q0 -57 36.5 -94t96.5 -37q188 0 381 174l135 743h188l-182 -1001q-23 -129 -93.5 -222.5t-163.5 -139.5t-177 -65.5t-162 -19.5q-141 0 -243.5 46.5t-102.5 109.5zM494 1217l340 202l280 -202l-51 -52l-252 92l-272 -94z" />
<glyph unicode="&#x178;" horiz-adv-x="1351" d="M178 1335l10 60h553l-10 -60l-22 -4q-131 -25 -131 -100q0 -23 16 -55l223 -482l404 484q29 35 28 71q0 63 -104 82l-25 4l13 60h524l-10 -60q-111 -14 -182.5 -63t-186.5 -182l-420 -482l-63 -346q-8 -39 -9 -78q0 -57 29 -86.5t96 -34.5l62 -4l-10 -59h-635l10 59l61 4 q90 8 130 50.5t61 148.5l57 313l-299 629q-27 59 -54.5 82t-94.5 43zM633 1614q0 55 44 97t101 42q43 0 72 -28.5t29 -73.5q0 -57 -44 -100.5t-104 -43.5q-45 0 -71.5 30t-26.5 77zM1006 1614q0 55 44 97t101 42q43 0 71.5 -28.5t28.5 -73.5q0 -57 -44 -100.5t-103 -43.5 q-45 0 -71.5 30t-26.5 77z" />
<glyph unicode="&#x179;" horiz-adv-x="1187" d="M16 72l1110 1214q-102 20 -206 21q-201 0 -340.5 -71t-284.5 -249l-62 27l177 381h989l24 -80l-1106 -1215q109 -10 209 -10q299 0 486 105q72 41 125 90t123 143l57 -31l-176 -397h-1092zM700 1544l156 125q125 100 188 100q39 0 68 -23.5t29 -55.5q0 -63 -160 -115 l-254 -84z" />
<glyph unicode="&#x17a;" horiz-adv-x="1064" d="M78 55l809 860q-88 20 -213 21q-80 0 -133.5 -25.5t-67.5 -46t-31 -55.5q-49 -100 -125 -100q-41 0 -66.5 29.5t-25.5 76.5q0 86 103.5 142.5t261.5 56.5q53 0 172 -9.5t147 -9.5h211l29 -80l-795 -835q35 0 118 -8.5t138 -8.5q213 0 273 127q29 59 54.5 80t70.5 21 q37 0 61.5 -27.5t24.5 -68.5q0 -90 -96.5 -151.5t-233.5 -61.5l-404 14l-241 4zM592 1194l141 139q106 109 172 111q35 0 60.5 -26.5t25.5 -61.5q0 -74 -143 -129l-232 -92z" />
<glyph unicode="&#x17b;" horiz-adv-x="1187" d="M16 72l1110 1214q-102 20 -206 21q-201 0 -340.5 -71t-284.5 -249l-62 27l177 381h989l24 -80l-1106 -1215q109 -10 209 -10q299 0 486 105q72 41 125 90t123 143l57 -31l-176 -397h-1092zM768 1614q0 57 44 99t103 42q43 0 72 -28.5t29 -73.5q0 -57 -46 -101.5 t-106 -44.5q-43 0 -69.5 30t-26.5 77z" />
<glyph unicode="&#x17c;" horiz-adv-x="1064" d="M78 55l809 860q-88 20 -213 21q-80 0 -133.5 -25.5t-67.5 -46t-31 -55.5q-49 -100 -125 -100q-41 0 -66.5 29.5t-25.5 76.5q0 86 103.5 142.5t261.5 56.5q53 0 172 -9.5t147 -9.5h211l29 -80l-795 -835q35 0 118 -8.5t138 -8.5q213 0 273 127q29 59 54.5 80t70.5 21 q37 0 61.5 -27.5t24.5 -68.5q0 -90 -96.5 -151.5t-233.5 -61.5l-404 14l-241 4zM641 1274q0 57 44 99t103 42q43 0 72 -28.5t29 -73.5q0 -57 -46 -101.5t-106 -44.5q-43 0 -69.5 30t-26.5 77z" />
<glyph unicode="&#x17d;" horiz-adv-x="1187" d="M16 72l1110 1214q-102 20 -206 21q-201 0 -340.5 -71t-284.5 -249l-62 27l177 381h989l24 -80l-1106 -1215q109 -10 209 -10q299 0 486 105q72 41 125 90t123 143l57 -31l-176 -397h-1092zM563 1698l55 45l279 -82l299 84l49 -47l-375 -182z" />
<glyph unicode="&#x17e;" horiz-adv-x="1064" d="M78 55l809 860q-88 20 -213 21q-80 0 -133.5 -25.5t-67.5 -46t-31 -55.5q-49 -100 -125 -100q-41 0 -66.5 29.5t-25.5 76.5q0 86 103.5 142.5t261.5 56.5q53 0 172 -9.5t147 -9.5h211l29 -80l-795 -835q35 0 118 -8.5t138 -8.5q213 0 273 127q29 59 54.5 80t70.5 21 q37 0 61.5 -27.5t24.5 -68.5q0 -90 -96.5 -151.5t-233.5 -61.5l-404 14l-241 4zM461 1366l51 51l252 -92l272 94l45 -51l-340 -205z" />
<glyph unicode="&#x17f;" horiz-adv-x="696" d="M-328 -270q0 35 27 59.5t65 24.5q41 0 69 -17.5t75 -72.5q61 -74 133 -74q82 0 139 67q37 39 59.5 125t63.5 330l137 758h-184l12 65h181q31 186 79 275q59 102 165 161.5t231 59.5q94 0 155.5 -35t61.5 -88q0 -35 -28 -59.5t-66 -24.5q-63 0 -103 70q-25 41 -44 55 t-52 14q-74 0 -115 -57q-35 -49 -57 -180l-191 -1045q-33 -176 -59.5 -252.5t-79.5 -144.5q-131 -166 -389 -166q-121 0 -203 43t-82 109z" />
<glyph unicode="&#x18e;" horiz-adv-x="1392" d="M119 420l74 26q84 -150 169 -223q158 -135 408 -135q115 0 172 25.5t80 87.5q4 10 8 35l82 452h-170q-174 0 -252 -209q-4 -12 -12 -41h-66l107 588h65q-8 -145 31 -196.5t156 -51.5h157l68 369q8 47 5 83t-52 56.5t-154 20.5q-188 0 -335.5 -72t-313.5 -264l-80 20 l226 404h1132l-10 -60l-33 -4q-125 -14 -166 -129q-8 -20 -16 -69l-158 -871q-20 -104 3.5 -146t105.5 -53l32 -4l-12 -59h-1202z" />
<glyph unicode="&#x192;" d="M-53 -272q0 37 26.5 61.5t67.5 24.5t68.5 -17.5t74.5 -72.5q61 -74 133 -74q47 0 84 26.5t60.5 63.5t46 114.5t36 139t36.5 178.5l137 758h-185l13 65h180q31 186 80 275q59 102 164.5 161.5t230.5 59.5q94 0 155.5 -35t61.5 -88q0 -35 -27.5 -59.5t-66.5 -24.5 q-63 0 -102 70q-25 41 -44.5 55t-52.5 14q-47 0 -80.5 -22.5t-51 -67.5t-24.5 -71.5t-16 -75.5l-34 -191h206l-12 -65h-207l-143 -789l-22 -111q-7 -36 -27.5 -106.5t-42 -108.5t-62.5 -91.5t-90 -79t-121.5 -46t-163.5 -20.5q-121 0 -203.5 43.5t-82.5 106.5z" />
<glyph unicode="&#x1a0;" horiz-adv-x="1556" d="M180 567q0 170 69.5 331t196.5 286q242 238 603 237q184 0 329 -90q88 29 105 64q-43 4 -70 26.5t-27 55.5q0 43 39 72.5t84 29.5q49 0 88 -28.5t39 -75.5q0 -68 -55 -117t-137 -76q193 -166 192 -451q0 -164 -63.5 -320.5t-179.5 -274.5q-256 -262 -617 -263 q-266 0 -431 165t-165 429zM406 510q0 -201 103 -320.5t275 -119.5q131 0 253 67.5t206 186.5q74 106 121 268t47 311q0 188 -106.5 305t-278.5 117q-119 0 -235.5 -62.5t-198.5 -166.5q-82 -111 -134 -273.5t-52 -312.5z" />
<glyph unicode="&#x1a1;" horiz-adv-x="1132" d="M133 389q0 250 174 436q178 188 438 189q154 0 267 -80q76 29 94 61q-43 4 -69.5 26.5t-26.5 55.5q0 43 38.5 73t84.5 30q49 0 88 -29t39 -76q0 -68 -55.5 -117t-135.5 -75q102 -115 102 -289q0 -254 -178 -433t-432 -179q-193 0 -310.5 112.5t-117.5 294.5zM332 360 q0 -139 63.5 -215.5t179.5 -76.5q182 0 289 188q41 74 70 185.5t29 201.5q0 137 -58 211q-27 31 -76 52.5t-96 21.5q-154 0 -262 -140q-61 -84 -100 -203t-39 -225z" />
<glyph unicode="&#x1af;" horiz-adv-x="1572" d="M242 297q0 45 16 147l125 689q8 37 8 88q0 96 -117 110l-32 4l10 60h561l-10 -60l-33 -4q-84 -10 -123 -51t-59 -147l-115 -629q-12 -70 -12 -174q0 -127 87 -193.5t249 -66.5q240 0 356 127q45 51 70.5 117.5t50.5 201.5l112 617q8 53 9 84q0 53 -28 79.5t-91 34.5 l-31 4l10 60h293l-14 -74q37 8 80 30.5t55 43.5q-43 4 -69.5 26.5t-26.5 55.5q0 43 39 72.5t84 29.5q49 0 88 -28.5t39 -75.5q0 -90 -97.5 -148.5t-201.5 -64.5l-142 -773q-31 -166 -70.5 -247.5t-119.5 -143.5q-166 -125 -463 -125q-264 0 -395 119q-92 86 -92 205z" />
<glyph unicode="&#x1b0;" horiz-adv-x="1341" d="M180 891l10 59q145 12 287 45h78l-127 -702q-10 -55 -10 -82q0 -57 33.5 -90t91.5 -33q84 0 168 37t209 127l135 743h188l-12 -69q98 27 121 69q-43 4 -70 26.5t-27 55.5q0 43 39 73t84 30q49 0 88 -29t39 -76q0 -88 -91 -145.5t-195 -67.5l-97 -536q-16 -98 -16 -115 q0 -53 29.5 -88t74.5 -35q78 0 148 90l47 -43q-131 -154 -289 -153q-88 0 -143 49t-68 139q-63 -59 -164 -113q-143 -76 -284 -75q-109 0 -169.5 50t-60.5 140q0 53 13 123l79 438q4 18 5 49q0 45 -27 70t-92 35z" />
<glyph unicode="&#x1dd;" horiz-adv-x="1105" d="M109 203q0 299 811 346q10 39 10 74q0 268 -283 268q-92 0 -174 -27.5t-213 -101.5l-53 55q256 197 504 197q190 0 316 -109.5t126 -273.5q0 -256 -214 -452.5t-495 -196.5q-145 0 -240 63.5t-95 157.5zM307 205q0 -66 50.5 -107t129.5 -41q41 0 86 13.5t107.5 51.5 t123 129t101.5 222h-26q-133 0 -259 -27.5t-219.5 -91t-93.5 -149.5z" />
<glyph unicode="&#x1e6;" horiz-adv-x="1556" d="M180 563q0 354 232.5 606t558.5 252q246 0 381 -125l51 99h61l43 -439h-63q-188 369 -463 369q-170 0 -307 -126t-206 -306t-69 -365q0 -106 27 -189t69 -132t96 -81t104 -44t100 -12q193 0 327.5 115.5t134.5 279.5q0 59 -31.5 90t-105.5 45l-22 4l10 60h557l-10 -60 l-29 -4q-74 -10 -115 -58t-57 -141l-74 -401h-110l-33 152q-88 -82 -221 -130.5t-275 -48.5q-248 0 -404.5 164t-156.5 426zM713 1698l55 45l279 -82l299 84l49 -47l-375 -182z" />
<glyph unicode="&#x1e7;" horiz-adv-x="1146" d="M8 -283q0 41 35 71t82 30q74 0 106 -66q39 -78 85 -103.5t112 -25.5q143 0 254 111.5t143 290.5l39 217q-70 -121 -178 -190.5t-227 -69.5q-152 0 -245 104t-93 276q0 264 170 458t401 194q174 0 285 -129l47 110h166l-166 -909q-98 -539 -635 -539q-152 0 -266.5 51 t-114.5 119zM319 309q0 -109 48.5 -170t132.5 -61q86 0 172 61.5t145 163.5q51 88 77 177t69 319l-19 20q-18 23 -32.5 34t-43 28.5t-64.5 27t-79 9.5q-119 0 -215 -101.5t-143.5 -239t-47.5 -268.5zM489 1366l52 51l252 -92l272 94l45 -51l-340 -205z" />
<glyph unicode="&#x1ea;" horiz-adv-x="1556" d="M180 567q0 156 60.5 307.5t169 273.5t275.5 197.5t364 75.5q260 0 423.5 -164.5t163.5 -425.5q0 -268 -159.5 -494t-417.5 -317q-145 -49 -201 -114q-66 -80 -65 -160q0 -45 32.5 -72.5t81.5 -27.5q80 0 144 49l49 -43q-113 -123 -266 -123q-88 0 -148.5 49t-60.5 127 q0 133 182 268h-31q-266 0 -431 165t-165 429zM406 510q0 -201 103 -320.5t275 -119.5q150 0 273 77.5t198.5 200.5t115.5 267.5t40 287.5q0 188 -106.5 305t-278.5 117q-186 0 -332.5 -129t-217 -312.5t-70.5 -373.5z" />
<glyph unicode="&#x1eb;" horiz-adv-x="1105" d="M133 389q0 244 173 434.5t439 190.5q193 0 309.5 -116t116.5 -304q0 -201 -115.5 -360.5t-301.5 -221.5q-74 -25 -142 -106q-66 -80 -65 -160q0 -45 32.5 -72.5t82.5 -27.5q80 0 143 49l49 -43q-113 -123 -266 -123q-88 0 -148.5 49t-60.5 127q0 135 192 277h-10 q-193 0 -310.5 112.5t-117.5 294.5zM332 360q0 -139 63.5 -215.5t179.5 -76.5q109 0 190 66.5t121 166.5t58.5 187t18.5 155q0 160 -70 222.5t-160 62.5q-100 0 -181 -59.5t-127 -150.5t-69.5 -184.5t-23.5 -173.5z" />
<glyph unicode="&#x1f4;" horiz-adv-x="1556" d="M180 563q0 354 232.5 606t558.5 252q246 0 381 -125l51 99h61l43 -439h-63q-188 369 -463 369q-170 0 -307 -126t-206 -306t-69 -365q0 -106 27 -189t69 -132t96 -81t104 -44t100 -12q193 0 327.5 115.5t134.5 279.5q0 59 -31.5 90t-105.5 45l-22 4l10 60h557l-10 -60 l-29 -4q-74 -10 -115 -58t-57 -141l-74 -401h-110l-33 152q-88 -82 -221 -130.5t-275 -48.5q-248 0 -404.5 164t-156.5 426zM850 1544l156 125q125 100 188 100q39 0 67.5 -23.5t28.5 -55.5q0 -63 -160 -115l-253 -84z" />
<glyph unicode="&#x1f5;" horiz-adv-x="1146" d="M8 -283q0 41 35 71t82 30q74 0 106 -66q39 -78 85 -103.5t112 -25.5q143 0 254 111.5t143 290.5l39 217q-70 -121 -178 -190.5t-227 -69.5q-152 0 -245 104t-93 276q0 264 170 458t401 194q174 0 285 -129l47 110h166l-166 -909q-98 -539 -635 -539q-152 0 -266.5 51 t-114.5 119zM319 309q0 -109 48.5 -170t132.5 -61q86 0 172 61.5t145 163.5q51 88 77 177t69 319l-19 20q-18 23 -32.5 34t-43 28.5t-64.5 27t-79 9.5q-119 0 -215 -101.5t-143.5 -239t-47.5 -268.5zM621 1194l141 139q106 109 172 111q35 0 60.5 -26.5t25.5 -61.5 q0 -74 -143 -129l-232 -92z" />
<glyph unicode="&#x1fa;" horiz-adv-x="1433" d="M-51 0l10 59l27 4q96 23 147 74t148 221l583 1037h197l217 -1076q31 -152 59.5 -193.5t112.5 -62.5l25 -4l-11 -59h-555l11 59l24 4q80 12 109.5 42t29.5 79q0 37 -10 95l-45 239h-524l-109 -196q-53 -98 -53 -156q0 -80 129 -103l25 -4l-11 -59h-536zM551 600h467 l-129 625zM850 1632q0 76 55.5 131.5t132.5 55.5q57 0 94 -38t37 -95q0 -74 -59 -131.5t-135 -57.5q-55 0 -90 38t-35 97zM879 1913l155 125q125 100 189 100q39 0 67.5 -23.5t28.5 -56.5q0 -63 -160 -114l-254 -84zM926 1645q0 -37 16 -58.5t45 -21.5q41 0 74 33.5t33 76.5 q0 33 -18.5 54.5t-47.5 21.5q-41 0 -71.5 -31.5t-30.5 -74.5z" />
<glyph unicode="&#x1fb;" d="M145 360q0 262 176.5 458t413.5 196q186 0 297 -123l19 104h188l-121 -667q-14 -74 -14 -113q0 -45 31.5 -78t76.5 -33q82 0 148 80l45 -43q-45 -68 -132 -113.5t-167 -45.5q-55 0 -97 25.5t-61.5 63.5t-29 69.5t-9.5 56.5q0 18 2 32q-182 -248 -413 -247 q-158 0 -255.5 104t-97.5 274zM344 309q0 -102 52.5 -166.5t138.5 -64.5q84 0 171 56t144 147q55 88 91 198.5t75 325.5q-102 113 -235.5 113t-238 -102.5t-151.5 -239t-47 -267.5zM688 1260q0 76 55.5 131t133.5 55q57 0 94 -38t37 -95q0 -74 -59.5 -131.5t-135.5 -57.5 q-55 0 -90 38.5t-35 97.5zM717 1540l155 125q125 100 189 100q39 0 67.5 -23.5t28.5 -55.5q0 -63 -160 -115l-254 -84zM764 1272q0 -37 16.5 -58.5t44.5 -21.5q41 0 74 34t33 77q0 33 -18.5 54t-47.5 21q-41 0 -71.5 -31.5t-30.5 -74.5z" />
<glyph unicode="&#x1fc;" horiz-adv-x="2498" d="M-92 0l10 59q246 55 481 275l1131 1061h991l78 -400l-86 -22q-84 180 -207 259t-319 79q-86 0 -138.5 -11.5t-79 -44t-36 -58.5t-19.5 -85l-59 -330h151q72 0 124 22.5t83 69t43 73t29 77.5h63l-104 -580h-66q4 41 4 60q0 188 -188 188h-156l-77 -422q-6 -33 -7 -59 q0 -72 48.5 -95.5t177.5 -23.5q104 0 224 36t214 93q127 82 256 223l63 -24l-200 -420h-1209l13 59l33 4q86 10 123.5 52.5t58.5 146.5l78 430h-504l-385 -360q-141 -131 -142 -201q0 -16 9.5 -27.5t25 -18.5t32.5 -11t35.5 -6t33.5 -5l30 -4l-10 -59h-651zM1026 788h424 l88 484zM1499 1544l156 125q125 100 188 100q39 0 67.5 -23.5t28.5 -55.5q0 -63 -159 -115l-254 -84z" />
<glyph unicode="&#x1fd;" horiz-adv-x="1802" d="M145 188q0 106 93.5 202.5t244.5 144.5q166 51 437 65q25 137 24 195q0 70 -54 106.5t-157 36.5q-90 0 -151.5 -35t-69.5 -106q-6 -53 -43 -89t-86 -36q-33 0 -56.5 21.5t-23.5 49.5q0 111 149.5 191t319.5 80q104 0 178 -19.5t107 -52.5t42 -46t13 -28q223 145 432 146 q150 0 243 -62.5t93 -160.5q0 -145 -205 -228.5t-508 -83.5h-82q-10 -74 -10 -123q0 -127 74 -202.5t199 -75.5q170 0 387 151l47 -57q-244 -190 -486 -190q-45 0 -90 7t-106.5 28.5t-114.5 69.5t-88 120q-37 -43 -62.5 -66.5t-86 -67.5t-145.5 -67.5t-187 -23.5 q-123 0 -197 56t-74 150zM344 229q0 -66 47 -108.5t121 -42.5q94 0 183 52t136 132q49 86 76 266q-250 0 -406.5 -86t-156.5 -213zM963 1194l141 139q109 109 172 111q35 0 60.5 -26.5t25.5 -61.5q0 -74 -143 -129l-232 -92zM1094 545h41q262 0 408.5 68.5t146.5 183.5 q0 59 -51.5 100t-127.5 41q-141 0 -256.5 -107.5t-160.5 -285.5z" />
<glyph unicode="&#x1fe;" horiz-adv-x="1556" d="M180 563q0 362 253 610t622 248q131 0 256 -45l147 217h101l-175 -256q252 -180 252 -499q0 -225 -109.5 -423t-311 -320t-447.5 -122q-141 0 -276 54l-152 -222h-100l178 265q-238 176 -238 493zM406 498q0 -98 21.5 -166t74.5 -137l735 1071q-100 59 -207 59 q-188 0 -334.5 -125t-218 -311t-71.5 -391zM565 137q113 -68 217 -67q117 0 220.5 48t177 131t127 189.5t79 225t25.5 237.5q0 182 -111 316zM883 1544l155 125q125 100 189 100q39 0 67.5 -23.5t28.5 -55.5q0 -63 -160 -115l-254 -84z" />
<glyph unicode="&#x1ff;" horiz-adv-x="1105" d="M133 389q0 141 67.5 281.5t211 242t327.5 101.5q113 0 222 -51l102 129h82l-127 -164q82 -70 116.5 -146.5t34.5 -185.5q0 -256 -179 -435t-437 -179q-102 0 -227 55l-105 -137h-86l135 176q-137 123 -137 313zM332 338q0 -61 35 -141l520 671q-66 59 -158 60 q-104 0 -185 -64.5t-125 -161t-65.5 -190.5t-21.5 -174zM401 135q76 -68 178.5 -67.5t181.5 60.5t123 152.5t65.5 187.5t21.5 179q0 76 -45 164zM614 1194l142 139q109 109 172 111q35 0 60.5 -26.5t25.5 -61.5q0 -74 -144 -129l-231 -92z" />
<glyph unicode="&#x200;" horiz-adv-x="1433" d="M-51 0l10 59l27 4q96 23 147 74t148 221l583 1037h197l217 -1076q31 -152 59.5 -193.5t112.5 -62.5l25 -4l-11 -59h-555l11 59l24 4q80 12 109.5 42t29.5 79q0 37 -10 95l-45 239h-524l-109 -196q-53 -98 -53 -156q0 -80 129 -103l25 -4l-11 -59h-536zM520 1765 q12 35 45 59.5t66 24.5q39 0 48 -35.5t-1 -142.5l-16 -160l-58 -32l-74 166q-28 63 -10 120zM551 600h467l-129 625zM807 1765q12 35 45 59.5t66 24.5q39 0 48 -35.5t-1 -142.5l-17 -160l-57 -32l-74 166q-28 63 -10 120z" />
<glyph unicode="&#x201;" d="M145 360q0 262 176.5 458t413.5 196q186 0 297 -123l19 104h188l-121 -667q-14 -74 -14 -113q0 -45 31.5 -78t76.5 -33q82 0 148 80l45 -43q-45 -68 -132 -113.5t-167 -45.5q-55 0 -97 25.5t-61.5 63.5t-29 69.5t-9.5 56.5q0 18 2 32q-182 -248 -413 -247 q-158 0 -255.5 104t-97.5 274zM344 309q0 -102 52.5 -166.5t138.5 -64.5q84 0 171 56t144 147q55 88 91 198.5t75 325.5q-102 113 -235.5 113t-238 -102.5t-151.5 -239t-47 -267.5zM358 1393q12 35 45 59.5t66 24.5q39 0 48 -36t-1 -143l-16 -159l-58 -33l-73 166 q-29 64 -11 121zM645 1393q12 35 45 59.5t66 24.5q39 0 48 -36t-1 -143l-17 -159l-57 -33l-74 166q-28 64 -10 121z" />
<glyph unicode="&#x204;" horiz-adv-x="1392" d="M43 0l10 59l35 4q84 10 123 52.5t57 146.5l158 871q10 41 10 69q0 115 -119 129l-32 4l12 60h1133l77 -404l-86 -20q-96 193 -218 264.5t-310 71.5q-104 0 -160.5 -22.5t-72 -51.5t-25.5 -86l-68 -369h158q117 0 174 51.5t102 196.5h66l-106 -588h-66q2 14 2 41 q0 209 -176 209h-170l-82 -452q-4 -25 -4 -35q0 -61 48 -87t163 -26q250 0 457 135q117 76 249 223l66 -26l-203 -420h-1202zM457 1765q12 35 45 59.5t65 24.5q39 0 48.5 -35.5t-1.5 -142.5l-16 -160l-57 -32l-74 166q-28 63 -10 120zM743 1765q12 35 45 59.5t66 24.5 q39 0 48 -35.5t-1 -142.5l-16 -160l-58 -32l-73 166q-29 63 -11 120z" />
<glyph unicode="&#x205;" horiz-adv-x="1105" d="M133 365q0 256 214 452.5t495 196.5q145 0 240.5 -63.5t95.5 -157.5q0 -299 -811 -347q-10 -39 -11 -73q0 -268 283 -269q92 0 174 28t213 101l53 -55q-256 -197 -504 -196q-190 0 -316 109.5t-126 273.5zM324 1393q12 35 44.5 59.5t65.5 24.5q39 0 48.5 -36t-1.5 -143 l-16 -159l-57 -33l-74 166q-28 64 -10 121zM381 522h27q133 0 259 28t219 91.5t93 149.5q0 66 -50 106.5t-130 40.5q-41 0 -86 -13.5t-107.5 -51t-123 -129t-101.5 -222.5zM610 1393q12 35 45 59.5t66 24.5q39 0 48 -36t-1 -143l-16 -159l-58 -33l-73 166q-29 64 -11 121z " />
<glyph unicode="&#x208;" horiz-adv-x="655" d="M43 0l10 59l35 4q82 12 119 54.5t55 144.5l158 871q10 72 10 77q0 106 -113 121l-32 4l12 60h547l-10 -60l-35 -4q-82 -12 -119 -54t-55 -144l-158 -871q-8 -39 -8 -78q0 -106 110 -121l33 -4l-12 -59h-547zM129 1765q12 35 45 59.5t66 24.5q39 0 48 -35.5t-1 -142.5 l-17 -160l-57 -32l-74 166q-28 63 -10 120zM416 1765q12 35 45 59.5t65 24.5q39 0 48.5 -35.5t-1.5 -142.5l-16 -160l-57 -32l-74 166q-28 63 -10 120z" />
<glyph unicode="&#x209;" horiz-adv-x="573" d="M25 1393q12 35 44.5 59.5t65.5 24.5q39 0 48.5 -36t-1.5 -143l-16 -159l-57 -33l-74 166q-28 64 -10 121zM180 891l10 59q145 12 287 45h78l-133 -733q-4 -37 -4 -53q0 -53 29.5 -87t78.5 -34q59 0 146 88l47 -43q-139 -152 -295 -151q-90 0 -143.5 56t-53.5 152 q0 39 6 72l86 471q4 18 5 51q0 45 -28 69t-91 34zM311 1393q12 35 45 59.5t66 24.5q39 0 48 -36t-1 -143l-16 -159l-58 -33l-73 166q-29 64 -11 121z" />
<glyph unicode="&#x20c;" horiz-adv-x="1556" d="M180 567q0 156 60.5 307.5t169 273.5t275.5 197.5t364 75.5q260 0 423.5 -164.5t163.5 -425.5q0 -221 -108.5 -416.5t-308 -318.5t-443.5 -123q-266 0 -431 165t-165 429zM406 510q0 -201 103 -320.5t275 -119.5q150 0 273 77.5t198.5 200.5t115.5 267.5t40 287.5 q0 188 -106.5 305t-278.5 117q-186 0 -332.5 -129t-217 -312.5t-70.5 -373.5zM602 1765q12 35 45 59.5t66 24.5q39 0 48 -35.5t-1 -142.5l-17 -160l-57 -32l-74 166q-28 63 -10 120zM889 1765q12 35 45 59.5t65 24.5q39 0 48.5 -35.5t-0.5 -142.5l-17 -160l-57 -32l-74 166 q-28 63 -10 120z" />
<glyph unicode="&#x20d;" horiz-adv-x="1105" d="M133 389q0 244 173 434.5t439 190.5q193 0 309.5 -116t116.5 -304q0 -254 -178 -433t-432 -179q-193 0 -310.5 112.5t-117.5 294.5zM305 1393q12 35 45 59.5t66 24.5q39 0 48 -36t-1 -143l-17 -159l-57 -33l-74 166q-28 64 -10 121zM332 360q0 -139 63.5 -215.5 t179.5 -76.5q109 0 190 66.5t121 166.5t58.5 187t18.5 155q0 160 -70 222.5t-160 62.5q-100 0 -181 -59.5t-127 -150.5t-69.5 -184.5t-23.5 -173.5zM592 1393q12 35 45 59.5t65 24.5q39 0 48.5 -36t-0.5 -143l-17 -159l-57 -33l-74 166q-28 64 -10 121z" />
<glyph unicode="&#x210;" horiz-adv-x="1433" d="M43 0l10 59l35 4q84 10 122 52.5t58 146.5l158 871q10 41 10 69q0 115 -119 129l-32 4l12 60h756q444 0 444 -303q0 -39 -8 -81t-36 -98.5t-74 -102.5t-133 -86t-202 -56l246 -435q49 -88 85 -116.5t132 -57.5l-10 -59h-336l-346 668h-268l-74 -406q-2 -12 -8 -78 q0 -111 119 -121l59 -4l-10 -59h-590zM506 1765q12 35 45 59.5t65 24.5q39 0 48.5 -35.5t-0.5 -142.5l-17 -160l-57 -32l-74 166q-28 63 -10 120zM561 743h256q461 0 461 344q0 125 -91 173.5t-257 48.5q-156 0 -216.5 -29t-74.5 -111zM793 1765q12 35 44.5 59.5t65.5 24.5 q39 0 48.5 -35.5t-1.5 -142.5l-16 -160l-57 -32l-74 166q-28 63 -10 120z" />
<glyph unicode="&#x211;" horiz-adv-x="819" d="M119 1393q12 35 45 59.5t65 24.5q39 0 48.5 -36t-1.5 -143l-16 -159l-57 -33l-74 166q-28 64 -10 121zM180 891l10 59q145 12 287 45h78l-27 -147q164 166 326 166q61 0 96 -26.5t35 -74.5q0 -49 -37 -79.5t-96 -30.5q-45 0 -92 27.5t-74 27.5q-158 0 -219 -344l-92 -514 h-189l133 733q4 37 5 51q0 43 -25 66.5t-94 36.5zM406 1393q12 35 44.5 59.5t65.5 24.5q39 0 48 -36t-1 -143l-16 -159l-58 -33l-73 166q-28 64 -10 121z" />
<glyph unicode="&#x214;" horiz-adv-x="1474" d="M242 297q0 45 16 147l125 689q10 47 10 71q0 113 -119 127l-32 4l10 60h561l-10 -60l-33 -4q-86 -10 -124 -52t-58 -146l-115 -629q-12 -70 -12 -174q0 -127 87 -193.5t249 -66.5q66 0 123 11t98 26.5t78 47.5l59 52q23 20 43.5 64t30.5 63.5t21.5 68t13.5 58.5t10 55 l112 617q2 6 9 81q0 53 -27 81t-92 36l-31 4l10 60h469l-10 -60l-35 -4q-84 -10 -121.5 -52t-58.5 -146l-117 -644q-12 -61 -22 -103t-32.5 -100.5t-51.5 -98.5t-78 -84t-111.5 -69.5t-153.5 -43t-204 -17.5q-143 0 -246.5 34t-151.5 87t-68.5 103.5t-20.5 99.5zM569 1765 q12 35 45 59.5t66 24.5q39 0 48 -35.5t-1 -142.5l-16 -160l-58 -32l-73 166q-29 63 -11 120zM856 1765q12 35 45 59.5t66 24.5q39 0 48 -35.5t-1 -142.5l-17 -160l-57 -32l-74 166q-28 63 -10 120z" />
<glyph unicode="&#x215;" d="M180 891l10 59q145 12 287 45h78l-127 -702q-10 -55 -10 -82q0 -57 33.5 -90t91.5 -33q84 0 168 37t209 127l135 743h188l-121 -669q-10 -66 -10 -107q0 -131 98 -131q78 0 148 90l47 -43q-131 -154 -289 -153q-88 0 -143 49t-68 139q-78 -76 -200.5 -132t-247.5 -56 q-109 0 -169.5 50t-60.5 140q0 53 13 123l79 438q4 16 5 43q0 90 -119 111zM369 1393q12 35 44.5 59.5t65.5 24.5q39 0 48.5 -36t-1.5 -143l-16 -159l-57 -33l-74 166q-28 64 -10 121zM655 1393q12 35 45 59.5t66 24.5q39 0 48 -36t-1 -143l-16 -159l-58 -33l-73 166 q-29 64 -11 121z" />
<glyph unicode="&#x218;" horiz-adv-x="1310" d="M125 506h80q59 -207 192 -321.5t318 -114.5q174 0 299 100t125 240q0 41 -17.5 71.5t-39 50t-77 41t-94.5 31.5l-131 35q-233 59 -338 113q-76 39 -119.5 106.5t-43.5 147.5q0 174 162.5 294.5t400.5 120.5q193 0 358 -102l39 76h66l63 -400h-72q-72 150 -127 207 q-127 133 -321 133q-143 0 -246.5 -79.5t-103.5 -190.5q0 -113 168 -168q55 -18 383 -109q164 -45 236.5 -118.5t72.5 -196.5q0 -207 -188.5 -353.5t-452.5 -146.5q-244 0 -416 129l-57 -102h-74zM459 -535q152 86 188 218q-41 -35 -82 -35q-37 0 -60.5 27.5t-23.5 70.5 q0 61 45 105.5t109 44.5q47 0 78.5 -37t31.5 -95q0 -100 -74.5 -194t-193.5 -141z" />
<glyph unicode="&#x219;" horiz-adv-x="1105" d="M133 199q0 39 25.5 65.5t62.5 26.5q45 0 77 -24.5t77 -94.5q74 -115 223 -115q111 0 185.5 56.5t74.5 138.5q0 57 -40 92t-140 68q-213 68 -289 106q-121 68 -121 191q0 133 124 219t313 86q160 0 287.5 -56.5t127.5 -128.5q0 -37 -26.5 -61.5t-67.5 -24.5t-64.5 17.5 t-68.5 87.5q-29 41 -86 65.5t-123 24.5q-92 0 -149.5 -45t-57.5 -117q0 -74 68 -114q35 -20 200 -74q80 -25 126.5 -42.5t97.5 -48t74.5 -72.5t23.5 -97q0 -147 -139.5 -246.5t-347.5 -99.5q-170 0 -308.5 67.5t-138.5 149.5zM356 -535q152 86 189 218q-41 -35 -82 -35 q-37 0 -60.5 27.5t-23.5 70.5q0 61 45 105.5t108 44.5q47 0 79 -37t32 -95q0 -100 -74.5 -194t-193.5 -141z" />
<glyph unicode="&#x21a;" horiz-adv-x="1228" d="M102 995l172 400h1160l51 -404h-66q-27 63 -54.5 109.5t-73.5 98.5t-112.5 81t-150.5 29q-53 0 -71.5 -17.5t-28.5 -74.5l-172 -955q-10 -41 -11 -69q0 -117 127 -130l62 -4l-10 -59h-635l10 59l61 4q88 8 129 50.5t62 148.5l174 965q2 10 2 26q0 55 -78 56 q-260 0 -477 -314h-70zM410 -535q152 86 188 218q-41 -35 -82 -35q-37 0 -60.5 27.5t-23.5 70.5q0 61 45 105.5t109 44.5q47 0 78.5 -37t31.5 -95q0 -100 -74.5 -194t-193.5 -141z" />
<glyph unicode="&#x21b;" horiz-adv-x="696" d="M172 -535q152 86 188 218q-41 -35 -81 -35q-37 0 -60.5 27.5t-23.5 70.5q0 61 45 105.5t108 44.5q47 0 79 -37t32 -95q0 -100 -75 -194t-194 -141zM180 930l13 65q158 10 232.5 89t115.5 278h73l-65 -367h293l-13 -65h-292l-107 -582q-23 -123 -22 -160q0 -53 32.5 -86.5 t83.5 -33.5q98 0 209 96l45 -51q-139 -131 -315 -131q-117 0 -182.5 44t-65.5 124q0 47 21 163l112 617h-168z" />
<glyph unicode="&#x258;" horiz-adv-x="1105" d="M90 178l74 55q104 -74 176 -101.5t164 -27.5q285 0 381 269q10 33 16 73q-389 23 -564 110t-122 237q35 94 153.5 157.5t264.5 63.5q182 0 315 -92.5t172 -236.5t-16 -320q-59 -164 -225 -273.5t-357 -109.5q-248 -1 -432 196zM414 791q-31 -86 38.5 -149.5t185.5 -91.5 t249 -28h26q6 106 -12 187.5t-48 123t-72 67.5t-72.5 32t-61.5 6q-80 0 -145 -40.5t-88 -106.5z" />
<glyph unicode="&#x259;" horiz-adv-x="1105" d="M109 203q0 299 811 346q10 39 10 74q0 268 -283 268q-92 0 -174 -27.5t-213 -101.5l-53 55q256 197 504 197q190 0 316 -109.5t126 -273.5q0 -256 -214 -452.5t-495 -196.5q-145 0 -240 63.5t-95 157.5zM307 205q0 -66 50.5 -107t129.5 -41q41 0 86 13.5t107.5 51.5 t123 129t101.5 222h-26q-133 0 -259 -27.5t-219.5 -91t-93.5 -149.5z" />
<glyph unicode="&#x2be;" horiz-adv-x="811" d="M262 811q0 43 27.5 72.5t70.5 29.5q29 0 48.5 -17t19.5 -44q0 -2 -2 -15.5t-2 -25.5q0 -35 24.5 -56.5t63.5 -21.5q100 0 168 121t68 244q0 78 -45.5 127t-116.5 49q-102 0 -228 -107q-8 -4 -12 -4q-8 0 -10 4l-31 35q-10 8 2 21q55 66 146.5 106.5t179.5 40.5 q127 0 208 -80t81 -205q-2 -174 -132.5 -305t-302.5 -131q-94 0 -159.5 47t-65.5 115z" />
<glyph unicode="&#x2bf;" horiz-adv-x="811" d="M258 934q0 174 131 305t303 131q94 0 158.5 -47t64.5 -115q0 -43 -27.5 -72.5t-70.5 -29.5q-29 0 -48 17.5t-17 43.5q-2 4 0 17.5t2 23.5q0 35 -24.5 56.5t-63.5 21.5q-100 0 -167 -121t-67 -243q0 -78 44 -127.5t116 -49.5q102 0 229 107q8 4 13 4q8 0 10 -4l30 -35 q6 -6 -2 -20q-57 -66 -147 -107t-178 -41q-127 0 -208 80t-81 205z" />
<glyph unicode="&#x2c6;" horiz-adv-x="901" d="M360 1217l340 202l281 -202l-51 -52l-252 92l-272 -94z" />
<glyph unicode="&#x2c7;" horiz-adv-x="901" d="M381 1366l51 51l252 -92l272 94l45 -51l-339 -205z" />
<glyph unicode="&#x2d8;" horiz-adv-x="901" d="M358 1376l50 25q78 -84 264 -84q180 0 274 82l45 -21q-57 -106 -133 -152t-192 -46q-220 -1 -308 196z" />
<glyph unicode="&#x2d9;" horiz-adv-x="532" d="M377 1274q0 57 44 99t103 42q43 0 72 -28.5t29 -73.5q0 -57 -46.5 -101.5t-105.5 -44.5q-43 0 -69.5 30t-26.5 77z" />
<glyph unicode="&#x2da;" horiz-adv-x="614" d="M383 1266q0 76 55.5 131t132.5 55q57 0 94 -38t37 -95q0 -74 -59 -131.5t-135 -57.5q-55 0 -90 38.5t-35 97.5zM459 1278q0 -37 16.5 -58.5t44.5 -21.5q41 0 74 34t33 77q0 33 -18.5 54t-47.5 21q-41 0 -71.5 -31.5t-30.5 -74.5z" />
<glyph unicode="&#x2db;" horiz-adv-x="532" d="M10 -295q0 92 68.5 167t181.5 148h129q-88 -45 -149.5 -119.5t-61.5 -154.5q0 -45 33 -72.5t82 -27.5q80 0 143 49l49 -43q-113 -123 -266 -123q-88 0 -148.5 49t-60.5 127z" />
<glyph unicode="&#x2dc;" horiz-adv-x="901" d="M371 1217q33 74 89 114.5t126 40.5q41 0 133 -21.5t112 -21.5q51 0 111 47h59q-78 -170 -233 -170q-31 0 -118 21.5t-124 21.5q-59 0 -92 -32h-63z" />
<glyph unicode="&#x2dd;" horiz-adv-x="696" d="M588 1139l43 159q29 106 50 142.5t60 36.5q33 0 57.5 -26t24.5 -58q-4 -57 -55 -121l-133 -166zM874 1139l44 159q29 106 50 142.5t60 36.5q33 0 57.5 -26t24.5 -58q-4 -57 -55 -121l-133 -166z" />
<glyph unicode="&#x300;" horiz-adv-x="0" d="M-584 1356q14 35 49 61.5t70 26.5q63 -2 131 -111l92 -139l-47 -59l-198 92q-124 55 -97 129z" />
<glyph unicode="&#x301;" horiz-adv-x="0" d="M-573 1194l141 139q109 109 172 111q35 0 60.5 -26.5t25.5 -61.5q0 -74 -143 -129l-232 -92z" />
<glyph unicode="&#x302;" horiz-adv-x="0" d="M-725 1217l340 202l281 -202l-52 -52l-252 92l-272 -94z" />
<glyph unicode="&#x303;" horiz-adv-x="0" d="M-715 1217q33 74 89.5 114.5t125.5 40.5q41 0 133.5 -21.5t112.5 -21.5q51 0 111 47h59q-78 -170 -233 -170q-31 0 -118 21.5t-124 21.5q-59 0 -92 -32h-64z" />
<glyph unicode="&#x304;" horiz-adv-x="0" d="M-715 1233l39 117h588l-39 -117h-588z" />
<glyph unicode="&#x306;" horiz-adv-x="0" d="M-727 1376l49 25q78 -84 264 -84q180 0 275 82l45 -21q-57 -106 -133 -152t-193 -46q-219 -1 -307 196z" />
<glyph unicode="&#x307;" horiz-adv-x="0" d="M-524 1274q0 57 44 99t103 42q43 0 72 -28.5t29 -73.5q0 -57 -46.5 -101.5t-105.5 -44.5q-43 0 -69.5 30t-26.5 77z" />
<glyph unicode="&#x308;" horiz-adv-x="0" d="M-709 1274q0 55 44 97t102 42q43 0 71.5 -28.5t28.5 -73.5q0 -57 -44 -100.5t-103 -43.5q-45 0 -72 30t-27 77zM-336 1274q0 55 44 97t102 42q43 0 71.5 -28.5t28.5 -73.5q0 -57 -44 -100.5t-104 -43.5q-45 0 -71.5 30t-26.5 77z" />
<glyph unicode="&#x309;" horiz-adv-x="0" d="M-586 1360q0 61 71 110.5t159 49.5q92 0 149 -42t57 -108q0 -63 -55 -123q-35 -37 -100 -57q-49 -16 -70.5 -43t-30.5 -84h-83q12 96 31.5 127t95.5 74q37 25 59 49v-2q20 33 20 71q0 59 -75 60q-43 0 -72 -12.5t-29 -32.5l2 -11q6 -16 6 -22q0 -27 -21.5 -47.5 t-50 -20.5t-46 17.5t-17.5 46.5z" />
<glyph unicode="&#x30a;" horiz-adv-x="0" d="M-559 1266q0 76 55 131t133 55q57 0 94 -38t37 -95q0 -74 -59 -131.5t-135 -57.5q-55 0 -90 38.5t-35 97.5zM-483 1278q0 -37 16 -58.5t45 -21.5q41 0 74 34t33 77q0 33 -18.5 54t-47.5 21q-41 0 -71.5 -31.5t-30.5 -74.5z" />
<glyph unicode="&#x30b;" horiz-adv-x="0" d="M-395 1139l43 159q29 106 50 142.5t60 36.5q33 0 57.5 -26t24.5 -58q-4 -57 -55 -121l-133 -166zM-109 1139l43 159q29 106 50.5 142.5t60.5 36.5q33 0 57.5 -26t24.5 -58q-4 -57 -55 -121l-133 -166z" />
<glyph unicode="&#x30c;" horiz-adv-x="0" d="M-705 1366l52 51l252 -92l272 94l45 -51l-340 -205z" />
<glyph unicode="&#x30f;" horiz-adv-x="0" d="M-891 1393q12 35 45 59.5t66 24.5q39 0 48 -36t-1 -143l-17 -159l-57 -33l-74 166q-28 64 -10 121zM-604 1393q12 35 45 59.5t65 24.5q39 0 48.5 -36t-0.5 -143l-17 -159l-57 -33l-74 166q-28 64 -10 121z" />
<glyph unicode="&#x311;" horiz-adv-x="0" d="M-760 1202q57 106 133 152.5t193 46.5q217 0 307 -197l-49 -24q-78 84 -264 84q-180 0 -275 -82z" />
<glyph unicode="&#x323;" horiz-adv-x="0" d="M-815 -324q0 57 44 99.5t103 42.5q43 0 72 -29t29 -74q0 -57 -46 -101t-106 -44q-43 0 -69.5 29.5t-26.5 76.5z" />
<glyph unicode="&#x326;" horiz-adv-x="0" d="M-829 -535q152 86 188 218q-41 -35 -82 -35q-37 0 -60.5 27.5t-23.5 70.5q0 61 45 105.5t109 44.5q47 0 78.5 -37t31.5 -95q0 -100 -74.5 -194t-193.5 -141z" />
<glyph unicode="&#x32e;" horiz-adv-x="0" d="M-1047 -229l54 22q88 -76 291 -76q199 0 303 74l49 -18q-63 -96 -146.5 -137.5t-212.5 -41.5q-242 1 -338 177z" />
<glyph unicode="&#x32f;" horiz-adv-x="0" d="M-1075 -385q63 96 146 137t212 41q242 0 338 -176l-53 -23q-88 76 -291 76q-199 0 -303 -73z" />
<glyph unicode="&#x330;" horiz-adv-x="0" d="M-1006 -381q33 74 89.5 115t125.5 41q41 0 133.5 -21.5t112.5 -21.5q51 0 111 47h59q-78 -170 -233 -170q-31 0 -118 21.5t-124 21.5q-59 0 -92 -33h-64z" />
<glyph unicode="&#x331;" horiz-adv-x="0" d="M-1004 -365l39 117h588l-39 -117h-588z" />
<glyph unicode="&#x332;" horiz-adv-x="0" d="M-1004 -365l39 117h588l-39 -117h-588z" />
<glyph unicode="&#x391;" horiz-adv-x="1433" d="M-51 0l10 59l27 4q96 23 147 74t148 221l583 1037h197l217 -1076q31 -152 59.5 -193.5t112.5 -62.5l25 -4l-11 -59h-555l11 59l24 4q80 12 109.5 42t29.5 79q0 37 -10 95l-45 239h-524l-109 -196q-53 -98 -53 -156q0 -80 129 -103l25 -4l-11 -59h-536zM551 600h467 l-129 625z" />
<glyph unicode="&#x392;" horiz-adv-x="1474" d="M43 0l10 59l35 4q84 10 122 52.5t58 146.5l158 871q10 41 10 69q0 115 -119 129l-32 4l12 60h743q229 0 358.5 -63.5t129.5 -221.5q0 -29 -5 -58.5t-26.5 -76.5t-57.5 -86t-106.5 -76t-165.5 -55q31 -6 55.5 -12.5t76 -28t86 -50t62.5 -82t28 -120.5q0 -465 -707 -465 h-725zM465 199q0 -66 53 -91.5t174 -25.5q557 0 557 399q0 131 -91 179.5t-337 48.5h-266l-84 -461q-6 -26 -6 -49zM567 784h262q150 0 253.5 30t151.5 80t66.5 97t18.5 101q0 115 -96.5 169t-300.5 54q-152 0 -210.5 -31t-74.5 -119z" />
<glyph unicode="&#x393;" d="M43 0l10 59l35 4q84 10 122 52.5t58 146.5l158 871q10 41 10 69q0 115 -119 129l-32 4l12 60h1133l92 -406l-78 -24q-84 178 -211 260t-320 82q-170 0 -218 -38t-72 -182l-150 -825q-8 -41 -8 -82q0 -53 28.5 -80.5t106.5 -36.5l43 -4l-10 -59h-590z" />
<glyph unicode="&#x394;" horiz-adv-x="1241" d="M18 0l19 84l776 1311h170l234 -1311l-19 -84h-1180zM184 104h854l-198 1133z" />
<glyph unicode="&#x395;" horiz-adv-x="1392" d="M43 0l10 59l35 4q84 10 123 52.5t57 146.5l158 871q10 41 10 69q0 115 -119 129l-32 4l12 60h1133l77 -404l-86 -20q-96 193 -218 264.5t-310 71.5q-104 0 -160.5 -22.5t-72 -51.5t-25.5 -86l-68 -369h158q117 0 174 51.5t102 196.5h66l-106 -588h-66q2 14 2 41 q0 209 -176 209h-170l-82 -452q-4 -25 -4 -35q0 -61 48 -87t163 -26q250 0 457 135q117 76 249 223l66 -26l-203 -420h-1202z" />
<glyph unicode="&#x396;" horiz-adv-x="1187" d="M16 72l1110 1214q-102 20 -206 21q-201 0 -340.5 -71t-284.5 -249l-62 27l177 381h989l24 -80l-1106 -1215q109 -10 209 -10q299 0 486 105q72 41 125 90t123 143l57 -31l-176 -397h-1092z" />
<glyph unicode="&#x397;" horiz-adv-x="1638" d="M43 0l10 59l35 4q84 10 122 52.5t58 146.5l158 871q10 41 10 69q0 115 -119 129l-32 4l12 60h586l-13 -60l-57 -4q-86 -10 -125 -52t-57 -146l-62 -340h758l62 340q10 47 10 79q0 109 -121 119l-55 4l10 60h586l-11 -60l-34 -4q-84 -10 -122 -52t-59 -146l-157 -871 q-10 -41 -11 -72q0 -113 119 -127l33 -4l-12 -59h-586l12 59l58 4q86 10 124.5 52.5t57.5 146.5l80 449h-756l-82 -449q-8 -39 -8 -80q0 -111 119 -119l55 -4l-10 -59h-586z" />
<glyph unicode="&#x398;" horiz-adv-x="1556" d="M217 555q0 195 75 361.5t196.5 274t271 168t301.5 60.5q272 0 433 -160.5t161 -431.5q0 -371 -243 -611.5t-609 -240.5q-260 0 -423 161t-163 419zM422 528q0 -205 100.5 -326.5t288.5 -121.5q266 0 453.5 234.5t187.5 557.5q0 197 -104.5 319t-286.5 122 q-156 0 -283 -77t-201.5 -196.5t-114.5 -252t-40 -259.5zM561 475l94 494h99q-14 -43 -15 -70q0 -55 35 -76.5t127 -21.5h123q104 0 149.5 36.5t69.5 131.5h96l-92 -494h-98q12 66 12 86q0 57 -25.5 72.5t-134.5 15.5h-116q-184 0 -213 -121l-13 -53h-98z" />
<glyph unicode="&#x399;" horiz-adv-x="655" d="M43 0l10 59l35 4q82 12 119 54.5t55 144.5l158 871q10 72 10 77q0 106 -113 121l-32 4l12 60h547l-10 -60l-35 -4q-82 -12 -119 -54t-55 -144l-158 -871q-8 -39 -8 -78q0 -106 110 -121l33 -4l-12 -59h-547z" />
<glyph unicode="&#x39a;" horiz-adv-x="1474" d="M43 0l10 59l35 4q84 10 122 52.5t58 146.5l158 871q10 41 10 69q0 115 -119 129l-32 4l12 60h575l-10 -60l-49 -4q-86 -10 -125 -52t-57 -146l-80 -445l600 475q57 47 57 92q0 59 -104 76l-25 4l11 60h557l-11 -60q-139 -35 -364 -205l-332 -249l363 -621 q59 -100 105 -139t138 -62l-12 -59h-594l10 59l33 4q129 18 129 76q0 25 -18 62l-314 559l-252 -193l-55 -305q-8 -39 -8 -80q0 -111 119 -119l47 -4l-10 -59h-578z" />
<glyph unicode="&#x39b;" horiz-adv-x="1433" d="M-51 0l10 59l27 4q96 23 147 74t148 221l583 1037h197l217 -1076q31 -152 59.5 -193.5t112.5 -62.5l25 -4l-11 -59h-555l11 59l24 4q80 12 109.5 42t29.5 79q0 37 -10 95l-184 946l-494 -903q-53 -98 -53 -156q0 -80 129 -103l25 -4l-11 -59h-536z" />
<glyph unicode="&#x39c;" horiz-adv-x="1761" d="M37 0l10 59l35 4q84 10 122 52.5t58 146.5l158 871q10 41 10 69q0 115 -119 129l-32 4l12 60h457l172 -1076l598 1076h440l-10 -60l-35 -4q-84 -10 -122 -52t-58 -146l-158 -871q-10 -41 -10 -72q0 -113 118 -127l33 -4l-12 -59h-561l12 59l33 4q86 10 125 52.5t57 146.5 l178 991l-698 -1253h-88l-205 1270l-182 -1008q-8 -43 -8 -84q0 -53 25.5 -79.5t92.5 -35.5l31 -4l-10 -59h-469z" />
<glyph unicode="&#x39d;" horiz-adv-x="1474" d="M37 0l10 59l35 4q84 10 122 52.5t58 146.5l158 871q10 41 10 69q0 115 -119 129l-32 4l12 60h446l453 -1129l158 867q6 43 6 73q0 61 -27 88t-90 37l-31 4l11 60h469l-11 -60l-35 -4q-84 -10 -122.5 -52t-57.5 -146l-207 -1133h-176l-518 1274l-184 -1012q-8 -43 -8 -84 q0 -53 25.5 -79.5t92.5 -35.5l31 -4l-10 -59h-469z" />
<glyph unicode="&#x39e;" horiz-adv-x="1454" d="M121 446l92 29q78 -211 151.5 -268t243.5 -57h250q205 0 330 72.5t225 252.5l86 -35l-211 -440h-1071zM295 1030l172 365h997l115 -369l-92 -29q-49 137 -138 191.5t-274 54.5h-252q-176 0 -269 -55t-173 -191zM455 442l147 559h98q-12 -80 -12 -108q0 -92 143 -92h91 q121 0 175 47t74 153h99l-137 -559h-97q20 80 21 113q0 51 -35 72.5t-123 21.5h-90q-123 0 -170 -44t-86 -163h-98z" />
<glyph unicode="&#x39f;" horiz-adv-x="1556" d="M180 567q0 156 60.5 307.5t169 273.5t275.5 197.5t364 75.5q260 0 423.5 -164.5t163.5 -425.5q0 -221 -108.5 -416.5t-308 -318.5t-443.5 -123q-266 0 -431 165t-165 429zM406 510q0 -201 103 -320.5t275 -119.5q150 0 273 77.5t198.5 200.5t115.5 267.5t40 287.5 q0 188 -106.5 305t-278.5 117q-186 0 -332.5 -129t-217 -312.5t-70.5 -373.5z" />
<glyph unicode="&#x3a0;" horiz-adv-x="1761" d="M104 0l11 59l35 4q84 10 121.5 52.5t58.5 146.5l157 871q8 33 9 88q0 96 -117 110l-33 4l12 60h1522l-10 -60l-35 -4q-84 -10 -122 -52t-58 -146l-158 -871q-8 -33 -8 -88q0 -96 117 -111l32 -4l-12 -59h-586l13 59l57 4q86 10 125 52.5t57 146.5l158 871q8 53 8 84 q0 53 -30.5 83.5t-88.5 30.5h-465q-82 0 -122.5 -46t-59.5 -152l-157 -871q-8 -53 -9 -84q0 -104 119 -115l55 -4l-10 -59h-586z" />
<glyph unicode="&#x3a1;" horiz-adv-x="1228" d="M43 0l10 59l35 4q84 10 122 52.5t58 146.5l158 871q10 41 10 69q0 115 -119 129l-32 4l12 60h625q229 0 351 -71t122 -263q0 -117 -40 -204t-101.5 -136t-154.5 -80t-180.5 -40t-195.5 -9h-191l-59 -330q-10 -68 -10 -74q0 -119 121 -125l59 -4l-10 -59h-590zM547 668 h190q141 0 239.5 41t142.5 107.5t60.5 124.5t16.5 120q0 248 -305 248q-225 0 -254 -144z" />
<glyph unicode="&#x3a3;" horiz-adv-x="1187" d="M-6 0l18 84l600 635l-350 592l21 84h884l115 -369l-92 -29q-51 154 -147.5 219.5t-288.5 65.5h-242l289 -528l-570 -604h355q219 0 365.5 81.5t277.5 276.5l84 -33l-271 -475h-1048z" />
<glyph unicode="&#x3a4;" horiz-adv-x="1228" d="M102 995l172 400h1160l51 -404h-66q-27 63 -54.5 109.5t-73.5 98.5t-112.5 81t-150.5 29q-53 0 -71.5 -17.5t-28.5 -74.5l-172 -955q-10 -41 -11 -69q0 -117 127 -130l62 -4l-10 -59h-635l10 59l61 4q88 8 129 50.5t62 148.5l174 965q2 10 2 26q0 55 -78 56 q-260 0 -477 -314h-70z" />
<glyph unicode="&#x3a5;" horiz-adv-x="1351" d="M145 930q86 465 324 465q332 0 346 -473q205 473 545 473q92 0 140 -71t48 -174t-16 -220h-82q20 111 -10.5 191.5t-114.5 80.5q-102 0 -186 -59.5t-141.5 -162.5t-95.5 -218t-62 -250l-45 -250q-8 -39 -9 -78q0 -57 29 -86.5t96 -34.5l62 -4l-10 -59h-635l10 59l61 4 q90 8 130 50.5t61 148.5l45 250q20 111 29.5 199t6.5 184t-25.5 159.5t-76 105.5t-135.5 42q-80 0 -133 -80t-74 -192h-82z" />
<glyph unicode="&#x3a6;" horiz-adv-x="1736" d="M223 651q0 139 65.5 240.5t182.5 160t259 85t312 26.5q12 43 13 70q0 78 -125 78h-37l18 84h549l-18 -84h-33q-90 0 -123 -23.5t-57 -97.5l-8 -27q348 0 484 -86t136 -295q0 -274 -196.5 -405t-628.5 -131q-16 -82 -17 -86q0 -74 119 -74h47l-20 -86h-551l18 86h41 q96 0 130 32t55 128q-301 0 -458 105t-157 300zM418 655q0 -158 101.5 -231.5t340.5 -73.5l160 705q-299 0 -450.5 -102.5t-151.5 -297.5zM1042 350q121 4 293 29q311 74 312 397q0 158 -92.5 218.5t-358.5 60.5z" />
<glyph unicode="&#x3a7;" horiz-adv-x="1433" d="M-51 0l10 59q115 37 208 99.5t208 183.5l354 373l-264 465q-33 68 -78 102.5t-115 48.5l-20 4l10 60h592l-12 -60l-29 -4q-123 -16 -123 -98q0 -27 17 -55l196 -347l266 289q74 78 74 144q0 61 -72 67l-43 4l11 60h530l-10 -60l-37 -4q-133 -6 -328 -215l-346 -366 l297 -510q49 -84 89 -118t120 -54l37 -9l-12 -59h-635l10 59l33 4q147 18 147 97q0 31 -35 94l-219 379l-356 -375q-53 -57 -53 -111q0 -33 24.5 -56t69.5 -28l35 -4l-11 -59h-540z" />
<glyph unicode="&#x3a8;" horiz-adv-x="1837" d="M322 1311l20 84h356l-94 -430q-25 -113 -24 -191q0 -106 84 -151t292 -45l134 585q12 53 12 72q0 76 -119 76h-33l19 84h501l-18 -84h-20q-84 0 -113 -32t-51 -126l-131 -575q244 0 350 85t162 302l100 430h356l-18 -84h-51q-78 0 -103.5 -28t-46.5 -112l-63 -260 q-68 -270 -254 -364q-156 -78 -459 -78l-33 -141q-31 -141 -30 -168q0 -76 118 -76h45l-18 -84h-553l20 84h39q88 0 125 33t56 116l55 236q-295 0 -423 69.5t-128 215.5q0 109 80 417q10 45 10 70q0 70 -96 70h-55z" />
<glyph unicode="&#x3a9;" horiz-adv-x="1609" d="M127 354l94 31q90 -164 174 -203q63 -31 275 -30l12 77q-397 178 -397 539q0 297 252 483q223 168 534 168q268 0 431 -137t163 -385q0 -279 -174 -453q-160 -162 -442 -215l-25 -77q215 0 307 34q117 47 232 199l86 -35l-189 -350h-575l86 305q489 98 489 584 q0 203 -107.5 314.5t-305.5 111.5q-248 0 -405 -159t-157 -404q0 -324 303 -447l-40 -305h-474z" />
<glyph unicode="&#x3b1;" horiz-adv-x="1282" d="M186 328q0 303 182.5 482t487.5 179q117 0 387 -24l-168 -748q-8 -33 -8 -61q0 -76 61 -76q72 0 183 129l61 -57q-51 -55 -83 -84t-89 -56.5t-119 -27.5q-176 0 -176 159q0 47 21 121q-197 -289 -441 -289q-139 0 -219 100.5t-80 252.5zM369 303q0 -94 42 -156.5 t119 -62.5q102 0 196.5 79t161 200.5t111.5 250.5t64 248q-141 25 -225 25q-209 0 -346 -193q-123 -172 -123 -391z" />
<glyph unicode="&#x3b2;" horiz-adv-x="1208" d="M137 414q0 109 37 240.5t109.5 264t170 242t231.5 178t280 68.5q133 0 228 -67.5t95 -161.5q0 -90 -92 -145.5t-250 -55.5q-236 0 -424 63q-82 -100 -138 -288.5t-56 -362.5q0 -156 65.5 -251t177.5 -95q117 0 216.5 91t154.5 257q14 43 14 101q0 217 -223 217 q-143 0 -303 -86l-43 45q184 139 387 139q156 0 260.5 -85t104.5 -226q0 -213 -174 -370t-400 -157q-428 1 -428 445zM569 1124q190 -47 330 -47q236 6 236 113q0 45 -57.5 77.5t-143.5 32.5q-181 0 -365 -176z" />
<glyph unicode="&#x3b3;" horiz-adv-x="1030" d="M72 717q45 86 127 157.5t168 71.5q125 0 145 -143l100 -684l252 393q90 141 90 190q0 23 -14 74t-14 70q0 68 40 105.5t103 37.5q111 0 111 -100q0 -92 -84 -217l-469 -684q0 -459 -193 -459q-86 0 -86 88q0 94 125 299l-147 834q-6 33 -26.5 52t-43.5 19 q-55 0 -117 -125z" />
<glyph unicode="&#x3b4;" horiz-adv-x="1146" d="M201 375q0 225 127 385t323 207q-174 63 -174 190q0 88 95.5 184.5t228.5 96.5q47 0 160.5 -29t148.5 -29q66 0 98 45l62 -16q-18 -63 -74.5 -109.5t-128.5 -46.5q-20 0 -118.5 36t-149.5 36q-53 0 -84 -27q-53 -45 -53 -139q0 -96 198 -164q174 -61 240.5 -145 t66.5 -252q0 -268 -158.5 -445.5t-404.5 -177.5q-182 0 -292.5 110t-110.5 290zM383 373q0 -303 225 -303q158 0 266.5 162.5t108.5 373.5q0 125 -56.5 206t-160.5 81q-156 0 -269.5 -159.5t-113.5 -360.5z" />
<glyph unicode="&#x3b5;" horiz-adv-x="960" d="M133 227q0 219 350 283q-211 61 -211 186q0 121 135.5 209t307.5 88q131 0 225 -51q20 -10 36.5 -34.5t16.5 -49.5q0 -68 -33.5 -116t-68.5 -48q-20 0 -33 2q57 51 57 103q0 23 -13 42t-65.5 38.5t-140.5 19.5q-96 0 -166.5 -55.5t-70.5 -143.5q0 -164 258 -163h51 l-18 -84h-58q-375 0 -375 -217q0 -72 71 -111t169 -39q125 0 213 48t199 147l51 -52q-117 -123 -231.5 -189.5t-270.5 -66.5q-160 0 -272.5 64.5t-112.5 189.5z" />
<glyph unicode="&#x3b6;" horiz-adv-x="804" d="M176 -328q0 72 80 72q51 0 88 -43q59 -72 178 -72q92 0 163 45t71 119q0 55 -103.5 115.5t-287.5 150.5q-154 104 -154 289q0 199 186.5 459t511.5 512q-242 82 -329 82q-74 0 -137.5 -19.5t-90.5 -46.5l-84 23q27 70 97.5 111.5t156.5 41.5q72 0 281 -41q96 -20 145 -20 q92 0 142 49q10 10 22 10q23 0 39 -19.5t16 -51.5v-19q-6 -35 -45 -61q-315 -233 -522 -512t-207 -473q0 -49 16.5 -89t39 -67t70.5 -56.5t84 -46.5l108 -52l116 -56q100 -63 101 -151q0 -143 -139.5 -233.5t-313.5 -90.5q-117 0 -208 40t-91 101z" />
<glyph unicode="&#x3b7;" horiz-adv-x="1208" d="M125 705q31 70 51.5 107.5t54 80.5t76.5 62.5t99 19.5q59 0 102 -27.5t51 -75.5q-2 -45 -19.5 -114.5t-19.5 -81.5q84 141 208 227t243 86q96 0 160.5 -53t64.5 -141q0 -39 -20 -129l-209 -965q-4 -20 -4 -29q0 -37 36.5 -62.5t81.5 -25.5q49 0 125 49l29 -55 q-111 -82 -217 -82q-100 0 -159.5 55.5t-59.5 139.5q0 25 6 49l213 952q12 55 12 86q0 96 -104 96q-197 0 -351 -272q-72 -127 -110.5 -254t-85.5 -348h-166l186 815q-6 49 -39 49q-45 0 -91 -52t-76 -132z" />
<glyph unicode="&#x3b8;" horiz-adv-x="1208" d="M76 303q0 207 166 355.5t370 148.5q211 0 334 -139l-61 -45q-123 86 -264 86q-152 0 -253.5 -104.5t-101.5 -280.5q0 -135 57.5 -208t159.5 -73q145 0 268 143.5t186.5 344t63.5 395.5q0 186 -105 280t-218 94q-104 0 -180 -46t-76 -103q0 -137 352 -137q33 0 90 6 l17 -74q-139 -27 -308 -26q-141 0 -217.5 70.5t-76.5 133.5q0 23 6 54q16 80 133 155.5t246 75.5q164 0 274 -68q111 -70 172 -222t61 -320q0 -190 -86 -385q-197 -444 -614 -445q-174 0 -284.5 93.5t-110.5 240.5z" />
<glyph unicode="&#x3b9;" horiz-adv-x="573" d="M195 788q115 217 286 218h18q9 0 19 -1t18.5 -5.5t15.5 -10.5t11 -17t4 -26q0 -39 -16 -108l-156 -617q-12 -49 -12 -74q0 -68 61 -67q66 0 183 129l63 -57q-125 -168 -291 -168q-72 0 -125 45t-53 112q0 41 17 111q156 600 155 625q0 18 -12 18q-29 0 -61.5 -38 t-57.5 -89z" />
<glyph unicode="&#x3ba;" horiz-adv-x="1228" d="M139 811q115 221 297 221q55 0 79 -37t24 -112q0 -37 -7 -68l-61 -317q127 227 300 359t343 132q195 0 195 -119q0 -82 -84 -82l-99 43q-96 43 -108 43q-113 0 -256 -131l199 -499q61 -158 133 -158q76 0 176 125l65 -55q-139 -172 -284 -172q-156 0 -236 198l-172 430 q-190 -233 -287 -612h-157l174 823q4 20 4 31q0 66 -43 66q-70 0 -127 -127z" />
<glyph unicode="&#x3bb;" horiz-adv-x="1347" d="M-37 -82l35 47q59 -31 117 -31q86 0 154.5 59.5t95.5 188.5l114 492q57 326 357 325q111 0 175 -36.5t138 -135.5l29 170q10 57 10 101q0 125 -63.5 199.5t-180.5 74.5t-209 -98q-63 -68 -131 -68q-84 0 -84 51q0 80 124 135.5t284 55.5q190 0 318 -91t128 -261 q0 -51 -8 -95l-172 -1001h-188l127 743q-70 92 -122.5 126t-142.5 34q-61 0 -110 -37t-68 -92l-160 -694q-35 -127 -120.5 -197.5t-182.5 -70.5q-127 0 -264 106z" />
<glyph unicode="&#x3bc;" horiz-adv-x="1398" d="M45 -512q94 385 166 768l139 766h193l-140 -766q-14 -84 40.5 -142.5t144.5 -58.5q147 0 254 131l4 70l139 766h193l-140 -766q-14 -82 9.5 -141.5t87.5 -59.5q57 0 94 58.5t53 142.5h82q-20 -115 -88 -199t-158 -84q-176 0 -250 129q-133 -129 -295 -129q-119 0 -215 39 l-94 -524h-219z" />
<glyph unicode="&#x3bd;" horiz-adv-x="1105" d="M195 788q115 219 297 220q45 0 63 -16.5t18 -82.5q-4 -76 -38.5 -350t-34.5 -354q0 -123 78 -123q143 0 313 225q160 213 160 367q0 27 -35 111.5t-35 113.5q0 90 82 90q61 0 98 -53t37 -125q0 -250 -217 -535q-231 -301 -471 -301q-84 0 -137.5 47.5t-53.5 127.5 q0 55 13 169l59 504q2 10 2 41t-16 31q-55 0 -115 -127z" />
<glyph unicode="&#x3be;" horiz-adv-x="948" d="M162 -328q0 72 78 72q53 0 90 -43q59 -72 178 -72q98 0 167.5 50.5t69.5 125.5q0 43 -67 82q-2 2 -84 37t-207 103q-190 100 -190 321q0 223 149.5 378t392.5 183q-170 51 -236.5 103.5t-66.5 138.5q0 135 137.5 225t323.5 90q127 0 224.5 -50t97.5 -126q0 -84 -84 -84 q-35 0 -64 27t-48 57.5t-57 57t-87 26.5q-104 0 -180 -63.5t-76 -153.5q0 -86 78.5 -135t285.5 -92q106 -20 107 -78q0 -37 -25 -61.5t-61 -24.5q-18 0 -96 35t-128 35q-168 0 -278.5 -128t-110.5 -319q0 -117 54.5 -176t252.5 -150q137 -63 173 -97t36 -101 q0 -137 -138 -235.5t-312 -98.5q-123 0 -211 41t-88 100z" />
<glyph unicode="&#x3bf;" horiz-adv-x="1105" d="M133 389q0 244 173 434.5t439 190.5q193 0 309.5 -116t116.5 -304q0 -254 -178 -433t-432 -179q-193 0 -310.5 112.5t-117.5 294.5zM332 360q0 -139 63.5 -215.5t179.5 -76.5q109 0 190 66.5t121 166.5t58.5 187t18.5 155q0 160 -70 222.5t-160 62.5q-100 0 -181 -59.5 t-127 -150.5t-69.5 -184.5t-23.5 -173.5z" />
<glyph unicode="&#x3c0;" horiz-adv-x="1245" d="M162 891q31 47 132 77.5t204 30.5q74 0 387 -34q154 -16 202 -17q123 0 195 41l88 -47q-53 -51 -106.5 -68.5t-186.5 -37.5l-127 -562q-14 -59 -14 -100q0 -90 84 -90q90 0 219 143l68 -55q-166 -197 -320 -197q-92 0 -152.5 49.5t-60.5 133.5q0 51 12 102l132 578 l-293 36l-201 -874h-164l205 889l-41 4q-88 0 -164 -39z" />
<glyph unicode="&#x3c1;" horiz-adv-x="1185" d="M-72 -446l211 786q59 219 109 309q92 162 241.5 251t321.5 89q174 0 274.5 -88t100.5 -252q0 -270 -188.5 -472t-469.5 -202q-217 0 -280 142l-152 -563h-168zM344 291q0 -225 211 -225q133 0 237.5 102t152.5 232t48 251q0 242 -215 242q-102 0 -189 -62.5 t-138.5 -157.5t-79 -195.5t-27.5 -186.5z" />
<glyph unicode="&#x3c2;" horiz-adv-x="983" d="M117 -328q0 72 78 72q53 0 90 -43q59 -72 180 -72q92 0 160.5 45t68.5 121q0 66 -108 127q-248 139 -330 223t-82 228q0 266 173 441t435 175q129 0 225.5 -72.5t96.5 -177.5q0 -131 -100 -131q-35 0 -59.5 29t-24.5 63q0 31 6 50v16q0 55 -45 91t-103 36 q-160 0 -289 -159t-129 -349q0 -102 75 -179t286 -173q145 -68 145 -187q0 -131 -136 -224t-308 -93q-121 0 -213 41t-92 102z" />
<glyph unicode="&#x3c3;" horiz-adv-x="1148" d="M176 375q0 258 159 436t408 178q39 0 171.5 -12t236.5 -12q66 0 98 45l60 -19q-14 -61 -72.5 -103t-130.5 -42l-16 2q-16 2 -33 2q-8 0 -8 -14q96 -109 96 -273q0 -252 -163 -420t-409 -168q-186 0 -291.5 107t-105.5 293zM360 356q0 -125 57.5 -205.5t166.5 -80.5 q156 0 266.5 161.5t110.5 374.5q0 121 -58.5 204t-161.5 83q-162 0 -271.5 -162t-109.5 -375z" />
<glyph unicode="&#x3c4;" horiz-adv-x="798" d="M162 889q20 51 80.5 88t132.5 37q29 0 166 -24.5t186 -24.5q80 0 119 39l72 -17q-20 -57 -84 -95t-142 -42q-4 0 -27.5 3t-31.5 3l-133 -582q-14 -59 -15 -98q0 -92 88 -92q80 0 215 143l66 -55q-162 -197 -317 -197q-94 0 -153.5 48.5t-59.5 134.5q0 47 12 100l143 629 q-94 20 -129 20q-27 0 -117 -37z" />
<glyph unicode="&#x3c5;" horiz-adv-x="1169" d="M195 788q115 219 288 220q29 0 41.5 -1t28.5 -17.5t16 -51.5q0 -57 -14 -115l-111 -479q-16 -76 -16 -141q0 -133 162 -133q274 0 366 409l111 486h168l-121 -510q-53 -219 -190.5 -349.5t-360.5 -130.5q-297 0 -297 211q0 76 37 238l90 397q6 27 6 47q0 29 -16 29 q-27 0 -65.5 -38t-61.5 -89z" />
<glyph unicode="&#x3c6;" horiz-adv-x="1452" d="M156 375q0 223 115.5 385t336.5 207q113 23 346 22l-34 -112q-317 -18 -383 -78q-72 -47 -119 -104.5t-66.5 -121t-26 -110.5t-6.5 -107q0 -129 53.5 -178t188.5 -55l49 219q18 80 62.5 138.5t104 87t114.5 41t113 12.5q135 0 225 -60.5t92 -157.5q0 -174 -175 -294.5 t-446 -133.5l-100 -421h-160l99 421q-197 16 -290 108.5t-93 291.5zM723 123q436 20 436 274q0 119 -149 119q-199 0 -236 -168z" />
<glyph unicode="&#x3c7;" horiz-adv-x="1253" d="M-20 -369q0 57 34.5 90t77.5 33q0 -6 76 -6t186 186l217 359l-94 358q-35 127 -70.5 169t-152.5 71l16 59q145 16 258 45h54l120 -587l308 409q158 184 233 184q59 0 87 -15t28 -58q0 -61 -43 -97t-109 -36h-18q0 2 -27 2q-59 0 -136 -89.5t-296 -396.5l16 -143 q31 -276 115 -404q45 -70 178 -69q47 0 123 49l37 -82q-137 -117 -291 -117q-115 0 -166 77t-75 226l-56 318l-307 -490q-25 -27 -50.5 -51t-50 -42.5t-59 -29t-75.5 -10.5q-88 0 -88 88z" />
<glyph unicode="&#x3c8;" horiz-adv-x="1521" d="M195 788q115 219 288 220q27 0 42.5 -2t30.5 -19.5t15 -50.5q0 -25 -10 -76l-131 -586q-12 -55 -12 -88q0 -55 78.5 -79.5t162.5 -24.5l297 1055h170l-297 -1055q180 0 311.5 190.5t202.5 509.5l41 183h162l-194 -605q-57 -180 -184.5 -272t-360.5 -104l-113 -422h-170 l109 413h-113q-113 0 -187.5 49.5t-74.5 143.5q0 53 12 106l125 547q6 27 6 45q0 31 -18 31q-27 0 -63.5 -39t-59.5 -88z" />
<glyph unicode="&#x3c9;" horiz-adv-x="1468" d="M176 342q0 303 183.5 475t494.5 172l-20 -96q-217 0 -346.5 -163t-129.5 -431q0 -225 152 -225q25 0 47.5 6t40.5 17.5t34.5 27.5t30 36.5t25.5 46t22 54.5l19 62q10 33 19 68l17 74q9 38 17 79h162q-63 -268 -63 -355q0 -117 114 -116q135 0 231.5 170t96.5 383 q0 141 -66.5 200.5t-218.5 65.5l23 96q446 0 446 -366q0 -281 -146.5 -464.5t-379.5 -183.5q-172 0 -203 170q-123 -170 -299 -170q-152 0 -227.5 99.5t-75.5 267.5z" />
<glyph unicode="&#x3d1;" horiz-adv-x="1230" d="M141 551l31 113q8 0 34.5 1t45.5 1q199 0 199 -123q0 -6 -5 -43q-20 -158 -20 -258q0 -90 37 -128t121 -38q315 0 485 637q57 211 57 354q0 287 -198 287q-123 0 -236.5 -125t-113.5 -291q0 -123 71.5 -193.5t194.5 -80.5l-33 -119q-172 0 -281.5 118.5t-109.5 297.5 q0 221 149.5 363t358.5 142q383 0 383 -434q0 -123 -29 -261t-92.5 -280.5t-149.5 -257t-214 -186.5t-273 -72q-154 0 -239 77t-85 227q0 23 11.5 101.5t11.5 98.5q0 31 -15.5 46.5t-35 19.5t-60.5 6z" />
<glyph unicode="&#x3d5;" horiz-adv-x="1263" d="M182 295q0 88 31 199q66 246 241 376.5t425 130.5l43 152h168l-43 -154q205 0 314 -86t109 -251q0 -78 -24 -170q-74 -266 -232.5 -391.5t-439.5 -127.5l-112 -419h-168l112 421q-229 0 -326.5 78t-97.5 242zM373 295q0 -111 62.5 -165t199.5 -52l217 811 q-182 0 -287.5 -98.5t-161.5 -305.5q-30 -110 -30 -190zM801 76q186 0 290.5 99t159.5 308q31 119 31 187q0 219 -262 217z" />
<glyph unicode="&#x3d6;" horiz-adv-x="1611" d="M131 846q154 164 473 164q178 0 463 -43q158 -23 240 -23q160 0 254 53l139 -22q-129 -139 -375 -166q96 -82 96 -244q0 -55 -14 -106q-59 -217 -187 -350.5t-313 -133.5q-168 0 -202 170q-127 -170 -297 -170q-137 0 -203 74t-66 205q0 82 31 205q29 111 133.5 245 t192.5 166h-19q-113 0 -209 -49zM328 231q0 -154 116 -153q88 0 142.5 70.5t107.5 273.5l33 123h168l-33 -123q-43 -166 -43 -209q0 -135 109 -135q180 0 278 371q33 127 33 213q0 96 -37 141q-63 0 -142 7t-220 25l-228 27q-74 -37 -145.5 -165t-104.5 -248 q-34 -136 -34 -218z" />
<glyph unicode="&#x3f5;" horiz-adv-x="962" d="M190 354q0 176 102.5 330t252.5 234q121 63 243 63q98 0 175 -46t116 -118l-133 -139q-45 203 -196 203q-119 0 -211.5 -100.5t-122.5 -223.5h358l-33 -125h-360q-16 -66 -16 -113q0 -102 68.5 -171.5t168.5 -69.5q160 0 348 182l49 -51q-201 -233 -413 -234 q-172 0 -260 60.5t-121 200.5q-15 55 -15 118z" />
<glyph unicode="&#x400;" horiz-adv-x="1392" d="M43 0l10 59l35 4q84 10 121 52.5t59 146.5l158 871q8 33 8 88q0 96 -117 110l-32 4l12 60h1133l77 -404l-86 -20q-76 154 -166 225q-143 111 -362 111q-152 0 -205 -45q-39 -29 -53 -115l-68 -369h158q117 0 174 51.5t102 196.5h66l-106 -588h-66q2 29 2 54q0 94 -46 145 t-130 51h-170l-82 -452q-4 -29 -4 -37q0 -57 50 -84t161 -27q250 0 457 135q117 76 249 223l66 -26l-203 -420h-1202zM823 1823q0 35 27 60.5t63 25.5q57 0 168 -111l142 -139l-27 -60l-229 93q-78 31 -111 60.5t-33 70.5z" />
<glyph unicode="&#x401;" horiz-adv-x="1392" d="M43 0l10 59l35 4q84 10 121 52.5t59 146.5l158 871q8 33 8 88q0 96 -117 110l-32 4l12 60h1133l77 -404l-86 -20q-76 154 -166 225q-143 111 -362 111q-152 0 -205 -45q-39 -29 -53 -115l-68 -369h158q117 0 174 51.5t102 196.5h66l-106 -588h-66q2 29 2 54q0 94 -46 145 t-130 51h-170l-82 -452q-4 -29 -4 -37q0 -57 50 -84t161 -27q250 0 457 135q117 76 249 223l66 -26l-203 -420h-1202zM676 1620q0 55 44 97t101 42q45 0 73 -28.5t28 -73.5q0 -57 -44 -100.5t-104 -43.5q-45 0 -71.5 30t-26.5 77zM1006 1620q0 55 44 97t101 42 q45 0 72.5 -28.5t27.5 -73.5q0 -57 -44 -100.5t-103 -43.5q-45 0 -71.5 30t-26.5 77z" />
<glyph unicode="&#x402;" horiz-adv-x="1744" d="M102 995l172 400h1160l51 -404h-66q-53 125 -112 193q-117 125 -279 125q-53 0 -72.5 -17.5t-27.5 -74.5l-84 -486q123 72 213 104.5t213 32.5q182 0 284.5 -67.5t77.5 -200.5l-114 -625q-27 -139 -111 -203.5t-252 -64.5h-43l14 76q86 0 126 38t61 154l110 619 q20 111 -34 151.5t-152 40.5q-158 0 -410 -137l-71 -387q-8 -33 -8 -90q0 -98 124 -109l62 -4l-10 -59h-635l10 59l61 4q90 8 130 49.5t61 149.5l174 965q4 12 4 37q0 45 -80 45q-260 0 -477 -314h-70z" />
<glyph unicode="&#x403;" d="M43 0l10 59l35 4q84 10 121 51.5t59 147.5l158 871q8 33 8 88q0 96 -117 110l-32 4l12 60h1133l92 -406l-78 -24q-84 178 -211 260t-320 82q-104 0 -153 -11.5t-82 -42.5q-31 -31 -55 -166l-150 -825q-8 -57 -8 -86q0 -100 135 -113l43 -4l-10 -59h-590zM791 1534 l141 139q117 111 172 111q35 0 60.5 -26.5t25.5 -61.5q0 -74 -143 -129l-232 -92z" />
<glyph unicode="&#x404;" horiz-adv-x="1474" d="M180 563q0 350 245 604t585 254q111 0 193.5 -29.5t174.5 -101.5l62 105h63l25 -486h-78q-74 223 -173 319.5t-253 96.5q-236 0 -416 -221q-111 -137 -164 -311h609l-15 -82h-616q-23 -100 -23 -193q0 -207 119 -327.5t320 -120.5q174 0 323.5 90t251.5 256l84 -41 q-43 -82 -83 -129t-109 -101q-225 -172 -514 -172q-274 0 -442.5 162t-168.5 428z" />
<glyph unicode="&#x405;" horiz-adv-x="1310" d="M125 506h80q59 -207 192 -321.5t318 -114.5q174 0 299 100t125 240q0 90 -80 137q-63 35 -279 92q-233 59 -338 113q-76 39 -119.5 106.5t-43.5 147.5q0 174 162.5 294.5t400.5 120.5q193 0 358 -102l39 76h66l63 -400h-72q-72 150 -127 207q-127 133 -321 133 q-143 0 -246.5 -79.5t-103.5 -190.5q0 -113 168 -168q55 -18 383 -109q164 -45 236.5 -118.5t72.5 -196.5q0 -207 -188.5 -353.5t-452.5 -146.5q-244 0 -416 129l-57 -102h-74z" />
<glyph unicode="&#x406;" horiz-adv-x="655" d="M43 0l10 59l35 4q82 14 117 55.5t57 143.5l158 871q8 45 8 84q0 98 -111 114l-32 4l12 60h547l-10 -60l-35 -4q-82 -14 -117 -55t-57 -143l-158 -871q-8 -45 -8 -84q0 -100 110 -115l33 -4l-12 -59h-547z" />
<glyph unicode="&#x407;" horiz-adv-x="655" d="M43 0l10 59l35 4q82 14 117 55.5t57 143.5l158 871q8 45 8 84q0 98 -111 114l-32 4l12 60h547l-10 -60l-35 -4q-82 -14 -117 -55t-57 -143l-158 -871q-8 -45 -8 -84q0 -100 110 -115l33 -4l-12 -59h-547zM315 1620q0 55 44 97t102 42q43 0 71.5 -28.5t28.5 -73.5 q0 -57 -44 -100.5t-103 -43.5q-45 0 -72 30t-27 77zM608 1620q0 55 44 97t102 42q43 0 71.5 -28.5t28.5 -73.5q0 -57 -44 -100.5t-103 -43.5q-45 0 -72 30t-27 77z" />
<glyph unicode="&#x408;" horiz-adv-x="1146" d="M-4 326q0 102 52 170.5t128 68.5q43 0 70.5 -24.5t27.5 -63.5q0 -57 -75 -125q-45 -39 -45 -94q0 -78 72.5 -133t179.5 -55q199 0 309 137q39 49 60.5 110.5t43.5 186.5l115 629q8 53 8 84q0 53 -27.5 79.5t-91.5 34.5l-30 4l10 60h561l-10 -60l-35 -4q-84 -10 -121 -51 t-59 -147l-111 -611q-31 -168 -55.5 -236.5t-73.5 -121.5q-76 -86 -206 -138.5t-265 -52.5q-193 0 -312.5 97.5t-119.5 255.5z" />
<glyph unicode="&#x409;" horiz-adv-x="2314" d="M0 135q10 66 55 109t105 43q104 0 121 -62q4 -33 13 -55.5t44 -22.5q80 0 200.5 325t172.5 628q23 125 3 170t-98 55l-49 6l11 64h1124l-10 -64h-39q-84 -10 -122 -52t-61 -146l-63 -349h262q129 0 225.5 -7t145.5 -18t87 -25.5t49 -28t30 -25.5q109 -86 108 -215 q0 -100 -52 -195.5t-140 -156.5q-94 -66 -204 -89.5t-310 -23.5h-725l10 63l53 7q82 10 117 55t55 170l144 803q23 131 14.5 170t-59.5 39h-256q-63 0 -99 -123l-95 -364q-32 -116 -91.5 -279.5t-138.5 -323.5q-57 -113 -156.5 -179.5t-200.5 -66.5q-88 0 -142 36t-38 128z M1305 193q0 -57 53 -84t174 -27q279 0 407 94q68 49 109 133t41 172q0 131 -91 179.5t-337 48.5h-266l-84 -461q-6 -30 -6 -55z" />
<glyph unicode="&#x40a;" horiz-adv-x="2410" d="M43 0l10 59l35 4q84 10 121 51.5t59 147.5l158 871q8 33 8 88q0 96 -117 110l-32 4l12 60h586l-13 -60l-57 -4q-84 -10 -122 -52t-60 -146l-62 -340h758l62 340q8 53 8 84q0 104 -119 114l-55 4l10 60h586l-13 -60l-57 -4q-84 -10 -122 -52t-60 -146l-64 -349h262 q129 0 225.5 -7t145.5 -18t87 -25.5t49.5 -28t29.5 -25.5q109 -86 108 -215q0 -100 -52 -195.5t-140 -156.5q-94 -66 -203.5 -89.5t-310.5 -23.5h-725l12 59l58 4q84 10 121.5 52.5t60.5 146.5l80 449h-756l-82 -449q-8 -53 -8 -84q0 -104 119 -115l55 -4l-10 -59h-586z M1401 193q0 -57 53 -84t174 -27q279 0 408 94q68 49 108.5 133t40.5 172q0 131 -91 179.5t-337 48.5h-266l-84 -461q-6 -30 -6 -55z" />
<glyph unicode="&#x40b;" horiz-adv-x="1744" d="M102 995l172 400h1160l51 -404h-66q-53 125 -112 193q-117 125 -279 125q-53 0 -72.5 -17.5t-27.5 -74.5l-84 -486q123 72 213 104.5t213 32.5q182 0 284.5 -67.5t77.5 -200.5l-63 -338q-8 -33 -8 -88q0 -96 116 -111l33 -4l-12 -59h-586l12 59l58 4q86 10 125 52.5 t57 146.5l59 332q20 111 -34 151.5t-152 40.5q-158 0 -410 -137l-71 -387q-8 -33 -8 -90q0 -98 124 -109l62 -4l-10 -59h-635l10 59l61 4q90 8 130 49.5t61 149.5l174 965q4 12 4 37q0 45 -80 45q-260 0 -477 -314h-70z" />
<glyph unicode="&#x40c;" horiz-adv-x="1353" d="M43 0l10 63l53 7q82 10 117 55t56 170l143 805q23 125 3.5 171t-97.5 54l-49 6l10 64h606l-10 -64l-86 -6q-78 -6 -114 -53t-58 -172l-58 -314h242q96 -2 182 106.5t148 278.5q39 111 115.5 183.5t168.5 70.5q72 -2 122 -47t40 -133q-8 -70 -41 -115t-90 -45 q-82 0 -98 62q-6 25 -4 48.5t-4.5 40.5t-26.5 17q-43 0 -61 -65q-37 -143 -123 -267t-199 -178q254 -31 277 -460q2 -47 8 -71t29.5 -44.5t70.5 -20.5q41 0 70.5 36t38.5 71l10 37l69 -21l-6 -30q-8 -31 -31.5 -76t-57.5 -90t-95 -76t-137 -31q-100 0 -161.5 53.5 t-47.5 135.5q59 334 -41 479q-31 43 -62.5 54t-111.5 11h-209l-70 -405q-20 -125 -0.5 -172t95.5 -53l81 -7l-10 -63h-606zM860 1534l141 139q117 111 173 111q35 0 60.5 -26.5t25.5 -61.5q0 -74 -144 -129l-231 -92z" />
<glyph unicode="&#x40d;" horiz-adv-x="1638" d="M43 0l10 59l35 4q84 8 121 50.5t59 148.5l158 871q8 33 8 88q0 96 -117 110l-32 4l12 60h586l-13 -60l-57 -4q-84 -10 -122 -52t-60 -146l-127 -695l872 623l13 72q8 53 8 84q0 104 -119 114l-55 4l10 60h586l-11 -60l-34 -4q-84 -8 -121 -50t-60 -148l-157 -871 q-8 -33 -9 -88q0 -96 117 -111l33 -4l-12 -59h-586l12 59l58 4q84 10 121.5 52.5t60.5 146.5l125 692l-871 -624l-12 -68q-8 -53 -8 -84q0 -104 119 -115l55 -4l-10 -59h-586zM922 1823q0 35 26.5 60.5t63.5 25.5q57 0 168 -111l141 -139l-27 -60l-229 93 q-78 31 -110.5 60.5t-32.5 70.5z" />
<glyph unicode="&#x40e;" horiz-adv-x="1409" d="M135 127q8 41 45 70.5t82 29.5q31 0 50.5 -13t49.5 -54q33 -39 62 -39q39 -6 124 66.5t140 148.5l-280 866q-16 72 -42 95.5t-100 33.5l10 64h508l-10 -62q-113 -14 -125 -76q-4 -23 2 -40l213 -623l340 483q61 88 66 156q4 43 -19.5 64.5t-101.5 35.5l10 62h483l-10 -64 q-82 -6 -120.5 -36.5t-120.5 -149.5l-578 -832q-156 -197 -272 -268q-117 -74 -236 -74q-82 0 -131 47.5t-39 108.5zM662 1712l49 25q78 -84 266 -84q178 0 272 82l45 -21q-57 -106 -133 -152t-192 -46q-219 -1 -307 196z" />
<glyph unicode="&#x40f;" horiz-adv-x="1638" d="M43 0l10 59l35 4q84 8 121 50.5t59 148.5l158 871q8 33 8 88q0 96 -117 110l-32 4l12 60h586l-13 -60l-57 -4q-84 -10 -122 -52t-60 -146l-156 -852q-8 -53 -8 -84q0 -53 30.5 -84t88.5 -31h465q145 2 182 199l156 852q8 53 8 84q0 104 -119 114l-55 4l10 60h586l-11 -60 l-34 -4q-84 -8 -121 -50t-60 -148l-157 -871q-8 -33 -9 -88q0 -96 117 -111l33 -4l-12 -59h-647l-56 -315h-205l56 315h-670z" />
<glyph unicode="&#x410;" horiz-adv-x="1433" d="M-51 0l10 59l27 4q96 23 146 74t149 221l583 1037h197l217 -1076q33 -152 60.5 -193.5t111.5 -62.5l25 -4l-11 -59h-555l11 59l24 4q143 23 143 119q0 33 -14 97l-45 239h-524l-109 -196q-53 -100 -53 -158q0 -80 129 -101l25 -4l-11 -59h-536zM551 600h467l-129 625z " />
<glyph unicode="&#x411;" horiz-adv-x="1460" d="M43 0l10 59l35 4q84 8 121 50.5t59 148.5l158 871q8 33 8 88q0 96 -117 110l-32 4l12 60h1133l92 -406l-78 -24q-84 178 -211 260t-320 82q-104 0 -153 -11.5t-82 -42.5q-31 -31 -55 -166l-54 -290l103 28q104 29 174 29q299 2 464 -98.5t165 -290.5q0 -100 -52.5 -195.5 t-140.5 -156.5q-94 -66 -203.5 -89.5t-310.5 -23.5h-725zM465 193q0 -57 53 -84t174 -27q279 0 408 94q68 49 108.5 133t40.5 172q0 303 -411 297q-72 -2 -176 -28l-105 -29l-86 -473q-6 -30 -6 -55z" />
<glyph unicode="&#x412;" horiz-adv-x="1474" d="M43 0l10 59l35 4q84 10 121 51.5t59 147.5l158 871q8 33 8 88q0 96 -117 110l-32 4l12 60h743q268 0 385 -84q102 -74 103 -201q0 -162 -146 -268q-76 -57 -215 -84q143 -33 199 -78q109 -86 109 -215q0 -100 -52.5 -195.5t-140.5 -156.5q-94 -66 -203.5 -89.5 t-310.5 -23.5h-725zM465 193q0 -57 53 -84t174 -27q279 0 408 94q68 49 108.5 133t40.5 172q0 131 -91 179.5t-337 48.5h-266l-84 -461q-6 -30 -6 -55zM567 784h262q244 0 363 76q55 37 91 102.5t36 129.5q0 115 -96.5 169t-300.5 54q-152 0 -210.5 -31t-74.5 -119z" />
<glyph unicode="&#x413;" horiz-adv-x="1228" d="M43 0l10 59l35 4q84 10 121 51.5t59 147.5l158 871q8 33 8 88q0 96 -117 110l-32 4l12 60h1092l92 -406l-78 -24q-84 178 -211 260t-320 82q-98 0 -128.5 -9.5t-65.5 -44.5q-31 -31 -55 -166l-150 -825q-8 -57 -8 -86q0 -100 135 -113l43 -4l-10 -59h-590z" />
<glyph unicode="&#x414;" horiz-adv-x="1556" d="M27 -262l127 342q63 0 83.5 1t51 12t49 36t45.5 72q104 186 175 391t149 508q25 125 5 170t-98 55l-51 6l12 64h1125l-12 -64l-52 -6q-82 -8 -116.5 -53t-57.5 -172l-139 -805q-25 -139 5 -178t140 -35l-18 -344h-70q0 45 -3 80t-6 62.5t-12 48t-24.5 33.5t-42 21.5 t-64.5 12.5t-91 4h-676q-123 0 -171 -18.5t-88 -80l-110 -177.5zM496.5 109.5q7.5 -21.5 52.5 -21.5h465q47 0 61.5 27.5t40.5 179.5l141 803q23 131 16 170t-59 39h-256q-63 0 -100 -123q-86 -346 -148.5 -540.5t-177.5 -426.5q-43 -86 -35.5 -107.5z" />
<glyph unicode="&#x415;" horiz-adv-x="1392" d="M43 0l10 59l35 4q84 10 121 52.5t59 146.5l158 871q8 33 8 88q0 96 -117 110l-32 4l12 60h1133l77 -404l-86 -20q-76 154 -166 225q-143 111 -362 111q-152 0 -205 -45q-39 -29 -53 -115l-68 -369h158q117 0 174 51.5t102 196.5h66l-106 -588h-66q2 29 2 54q0 94 -46 145 t-130 51h-170l-82 -452q-4 -29 -4 -37q0 -57 50 -84t161 -27q250 0 457 135q117 76 249 223l66 -26l-203 -420h-1202z" />
<glyph unicode="&#x416;" horiz-adv-x="2068" d="M12 223l2 47l76 21l-4 -37q-2 -35 15.5 -71t58.5 -36q47 0 78.5 21.5t44 44.5t32.5 70q176 432 439 460q-94 53 -135 177t-29 268q6 66 -39 65q-20 0 -31.5 -15t-21 -45t-19.5 -46q-37 -61 -121 -62q-57 0 -74.5 47.5t1.5 112.5q20 88 85.5 133t139.5 47 q92 2 143.5 -71.5t51.5 -182.5q2 -170 49 -278.5t145 -106.5h180l56 314q23 127 3 171t-98 54l-49 6l10 64h607l-11 -64l-86 -6q-76 -6 -112.5 -53t-59.5 -172l-57 -314h180q98 -2 184.5 108t145.5 277q39 111 116 183.5t169 70.5q74 -2 125 -47t39 -133q-23 -160 -132 -160 q-84 0 -100 62q-6 25 -3 48.5t-3 40.5t-29 17q-41 0 -59 -65q-39 -145 -125 -268t-199 -177q250 -29 279 -460q2 -35 5 -53.5t12 -41t32 -32t57 -9.5q41 0 71 36t38 71l10 37l72 -21l-8 -30q-6 -31 -30 -75t-57.5 -89t-95 -76t-137.5 -33q-100 -2 -161.5 52.5t-47.5 136.5 q59 338 -43 479q-31 43 -61.5 54t-110.5 11h-147l-70 -405q-23 -125 -3.5 -172t95.5 -53l84 -7l-12 -63h-606l12 63l51 7q82 8 117 52t57 171l72 407h-147q-80 0 -116 -11t-81 -54q-152 -143 -211 -479q-14 -82 -95 -136.5t-179 -52.5q-92 2 -146.5 49t-67 103.5 t-10.5 103.5z" />
<glyph unicode="&#x417;" horiz-adv-x="1323" d="M113 354q0 70 30.5 121t87.5 51q39 0 66 -29.5t27 -72.5q0 -14 -10.5 -59.5t-10.5 -63.5q0 -35 21 -63l22 -27q23 -27 64 -57.5t114.5 -57t157.5 -26.5q174 0 299 100t125 240q0 160 -51 228.5t-203 68.5h-279l11 81l284 -2q90 0 153.5 25t95.5 68t46.5 88t14.5 98 q0 111 -103.5 190.5t-247.5 79.5q-195 0 -321 -133q-55 -57 -127 -207h-72l64 400h65l39 -76q166 102 359 102q254 0 408.5 -96t154.5 -297q0 -113 -60.5 -190.5t-148.5 -96.5q86 -41 111.5 -101t25.5 -167q0 -207 -188.5 -353.5t-452.5 -146.5q-127 0 -252 37t-222 127 t-97 217z" />
<glyph unicode="&#x418;" horiz-adv-x="1638" d="M43 0l10 59l35 4q84 8 121 50.5t59 148.5l158 871q8 33 8 88q0 96 -117 110l-32 4l12 60h586l-13 -60l-57 -4q-84 -10 -122 -52t-60 -146l-127 -695l872 623l13 72q8 53 8 84q0 104 -119 114l-55 4l10 60h586l-11 -60l-34 -4q-84 -8 -121 -50t-60 -148l-157 -871 q-8 -33 -9 -88q0 -96 117 -111l33 -4l-12 -59h-586l12 59l58 4q84 10 121.5 52.5t60.5 146.5l125 692l-871 -624l-12 -68q-8 -53 -8 -84q0 -104 119 -115l55 -4l-10 -59h-586z" />
<glyph unicode="&#x419;" horiz-adv-x="1638" d="M43 0l10 59l35 4q84 8 121 50.5t59 148.5l158 871q8 33 8 88q0 96 -117 110l-32 4l12 60h586l-13 -60l-57 -4q-84 -10 -122 -52t-60 -146l-127 -695l872 623l13 72q8 53 8 84q0 104 -119 114l-55 4l10 60h586l-11 -60l-34 -4q-84 -8 -121 -50t-60 -148l-157 -871 q-8 -33 -9 -88q0 -96 117 -111l33 -4l-12 -59h-586l12 59l58 4q84 10 121.5 52.5t60.5 146.5l125 692l-871 -624l-12 -68q-8 -53 -8 -84q0 -104 119 -115l55 -4l-10 -59h-586zM774 1712l49 25q78 -84 267 -84q178 0 272 82l45 -21q-57 -106 -133 -152t-193 -46 q-217 -1 -307 196z" />
<glyph unicode="&#x41a;" horiz-adv-x="1396" d="M43 0l10 63l53 7q82 10 117 55t56 170l143 805q23 125 3.5 171t-97.5 54l-49 6l10 64h606l-10 -64l-86 -6q-78 -6 -114 -53t-58 -172l-58 -314h211q98 -2 200.5 111t160.5 274q39 111 115.5 183.5t168.5 70.5q72 -2 122 -47t40 -133q-8 -70 -41 -115t-90 -45 q-82 0 -98 62q-6 25 -4 48.5t-4.5 40.5t-26.5 17q-43 0 -61 -65q-37 -139 -130.5 -265t-207.5 -180q80 -10 139 -60t90 -124t45 -141.5t19 -134.5q2 -47 8 -71t29.5 -44.5t70.5 -20.5q41 0 70.5 36t38.5 71l10 37l69 -21l-6 -30q-8 -31 -31.5 -76t-57.5 -90t-95 -76 t-137 -31q-100 0 -161.5 53.5t-47.5 135.5q53 299 -72 479q-31 43 -62.5 54t-111.5 11h-178l-70 -405q-20 -125 -0.5 -172t95.5 -53l81 -7l-10 -63h-606z" />
</font>
</defs>
</svg>
